<svg width="130" height="210" viewBox="0 0 130 210" fill="none" xmlns="http://www.w3.org/2000/svg">
<g clip-path="url(#clip0_310_2518)">
<path d="M38.2959 140.013H89.8041V176.645C89.8041 190.913 78.2626 202.5 64.05 202.5C49.8374 202.5 38.2959 190.913 38.2959 176.645V140.013Z" class="skin" fill="#B77261"/>
<path d="M38.2957 143.276C38.2957 143.276 44.5452 159.037 57.5483 166.475C66.9982 171.863 79.1948 169.789 85.5955 160.96C88.7959 156.558 89.7787 151.043 89.7787 141.531C89.7787 141.531 80.8076 154.357 65.2846 155.015C49.7616 155.672 38.2705 143.276 38.2705 143.276H38.2957Z" fill="#844E3F"/>
<path d="M101.093 120.33C109.434 126.503 123.849 98.422 115.709 91.7685C107.595 85.115 100.363 97.9666 100.363 97.9666L98.3465 107.201L94.7178 115.701L97.6661 118.104L101.068 120.356L101.093 120.33Z" class="skin" fill="#B77261"/>
<path d="M113.467 100.218C113.467 100.218 107.419 98.1942 103.135 107.125" stroke="#844E3F" stroke-width="2.5" stroke-linecap="square" stroke-linejoin="round"/>
<path d="M106.083 102.773C106.083 102.773 112.66 106.315 108.326 111.602" stroke="#844E3F" stroke-width="2.5" stroke-linecap="square" stroke-linejoin="round"/>
<path d="M27.535 120.331C19.1939 126.503 4.77963 98.4221 12.9191 91.7686C21.0334 85.1151 27.6862 98.751 27.6862 98.751L26.6278 107.656L27.8122 117.32L30.1053 118.939L27.5602 120.331H27.535Z" class="skin" fill="#B77261"/>
<path d="M15.1621 100.218C15.1621 100.218 21.21 98.1945 25.494 107.125" stroke="#844E3F" stroke-width="2.5" stroke-linecap="square" stroke-linejoin="round"/>
<path d="M22.5452 102.773C22.5452 102.773 15.9681 106.315 20.3024 111.603" stroke="#844E3F" stroke-width="2.5" stroke-linecap="square" stroke-linejoin="round"/>
<path d="M103.033 84.0778C103.033 101.483 100.74 116.485 98.4215 127.161C96.1787 137.584 89.8284 143.226 80.8825 149.095L79.2445 150.157C69.7695 156.356 57.5224 156.507 47.8961 150.537C38.1942 144.491 31.3903 138.191 29.2987 127.009C25.4936 106.644 25.0904 84.1031 25.0904 84.1031C25.0904 84.1031 21.4616 40.185 63.4947 41.0198C105.528 41.88 103.008 84.1031 103.008 84.1031L103.033 84.0778Z" class="skin" fill="#B77261"/>
<path d="M59.8916 102.773V111.425C59.8916 111.931 59.9924 112.412 60.1688 112.867C60.8744 114.613 62.8652 115.448 64.6795 114.967L70.0219 113.424" stroke="#844E3F" stroke-width="2.5" stroke-linecap="square" stroke-linejoin="round"/>
<path fill-rule="evenodd" clip-rule="evenodd" d="M41.4935 92.8354C41.1784 93.3925 40.999 94.0337 40.999 94.716C40.999 96.8592 42.7692 98.5966 44.9527 98.5966C47.1363 98.5966 48.9065 96.8592 48.9065 94.716C48.9065 94.0337 48.727 93.3925 48.412 92.8354H41.4935Z" class="hair" fill="#1A1A1A"/>
<path fill-rule="evenodd" clip-rule="evenodd" d="M78.4935 92.8354C78.1784 93.3925 77.999 94.0337 77.999 94.716C77.999 96.8592 79.7692 98.5966 81.9527 98.5966C84.1363 98.5966 85.9065 96.8592 85.9065 94.716C85.9065 94.0337 85.727 93.3925 85.412 92.8354H78.4935Z" class="hair" fill="#1A1A1A"/>
<path d="M82.5449 120.656C79.8049 117.806 73.295 117.846 65.195 117.846C57.095 117.846 51.8249 119.656 48.4049 121.656C44.8749 123.716 47.125 133.196 65.195 133.206C82.715 133.216 85.085 123.306 82.555 120.656H82.5449Z" fill="#AE5655"/>
<path d="M65.1844 117.846C59.7144 117.846 53.4744 118.867 50.0742 120.742C51.4692 121.435 53.1544 122.365 53.1544 122.365L65.1844 121.996L77.8 121.552C77.8 121.552 78.763 120.731 80.0268 119.093C76.6712 117.734 70.6044 117.836 65.1844 117.836V117.846Z" fill="white"/>
<path d="M64.775 129.646C59.125 130.036 56.395 130.956 55.165 131.916C57.765 132.706 61.0551 133.206 65.1851 133.206C69.4251 133.206 72.775 132.626 75.385 131.706C74.315 130.346 71.535 129.176 64.775 129.646Z" fill="#D97F7E"/>
<path d="M55.4997 81.3116C55.9784 80.3512 56.6841 78.8323 56.6841 78.8323C57.0369 78.0733 56.5329 77.2638 55.5249 76.9602C52.7529 76.1254 46.9462 72.7834 43.0707 72.5588C38.1063 73.8238 34.4776 78.0739 33.3184 79.5665C33.0664 79.8954 33.0412 80.3002 33.2428 80.629C33.646 81.3627 34.8556 81.641 35.788 81.2362C35.788 81.2362 39.4671 79.6424 41.3823 78.8329C43.2975 78.0233 45.4149 80.1209 47.5618 81.3116C49.7087 82.5022 50.7868 82.541 52.8537 82.197C53.9441 82.0155 55.1469 82.0452 55.5249 81.261C55.5249 81.261 55.1921 81.9286 55.4997 81.3116Z" class="hair" fill="#1A1A1A"/>
<path d="M71.3181 86.4079L70.1337 83.9286C69.7809 83.1697 70.2849 82.3601 71.2929 82.0566C74.0649 81.2217 79.6088 79.8809 83.9432 80.994C88.9075 82.2589 92.5363 86.5091 93.6955 88.0017C93.9474 88.3306 93.9726 88.7354 93.771 89.0642C93.3679 89.7979 92.1583 90.0762 91.2259 89.6714L85.6315 87.268C83.7164 86.4585 81.4736 86.1549 79.256 86.4079C77.6432 86.6103 75.7029 86.8886 73.9641 87.2933C72.8553 87.5463 71.6709 87.1415 71.2929 86.3573L71.3181 86.4079Z" class="hair" fill="#1A1A1A"/>
<path d="M25.6194 95.437C25.6194 95.437 24.561 71.9853 35.4473 68.6965L38.2948 57.7676H22.545C22.545 57.7676 21.9906 66.4703 25.6194 95.437Z" class="hair" fill="#1A1A1A"/>
<path d="M102.605 95.4369C102.605 95.4369 102.378 71.9852 91.4919 68.6964L88.3672 56.9326L103.059 55.6677C103.059 55.6677 106.234 66.4702 102.58 95.4369H102.605Z" class="hair" fill="#1A1A1A"/>
<path d="M95.3729 59.5384C95.3729 59.5384 85.0914 62.7766 71.1056 63.3078C57.1197 63.8391 62.9409 76.5642 62.9409 76.5642C62.9409 76.5642 47.7958 78.2845 48.073 56.6796C48.073 56.6796 43.7135 70.1131 30.3072 71.7322C30.3072 71.7322 33.558 66.0401 32.9532 59.5131C32.9532 59.5131 18.9926 62.4983 16.3466 68.747C16.3466 68.747 9.2907 55.9966 22.6969 41.3235C22.6969 41.3235 18.6146 37.5034 13.373 43.4738C13.373 43.4738 19.1942 26.9033 49.5094 29.6103C49.5094 29.6103 57.3717 32.3172 64.9568 27.4346C72.5419 22.552 82.3446 23.8928 86.2254 30.1415C88.8209 34.3411 89.7281 37.3769 89.7281 37.3769C89.7281 37.3769 94.3901 37.9082 94.6925 29.7621C94.6925 29.7621 101.27 36.7191 94.6925 44.1569C94.6925 44.1569 113.466 48.2046 104.344 70.0625L95.3477 59.4878L95.3729 59.5384Z" class="hair" fill="#1A1A1A"/>
</g>
<defs>
<clipPath id="clip0_310_2518">
<rect width="107.628" height="178" fill="white" transform="translate(10.5 24.5)"/>
</clipPath>
</defs>
</svg>
