<svg width="130" height="210" viewBox="0 0 130 210" fill="none" xmlns="http://www.w3.org/2000/svg">
<g clip-path="url(#clip0_310_2518)">
<path d="M38.1963 140.013H89.7045V176.645C89.7045 190.913 78.163 202.5 63.9504 202.5C49.7378 202.5 38.1963 190.913 38.1963 176.645V140.013Z" class="skin" fill="#B77261"/>
<path d="M38.1961 143.276C38.1961 143.276 44.4456 159.037 57.4487 166.475C66.8986 171.863 79.0952 169.789 85.4959 160.96C88.6963 156.558 89.6791 151.043 89.6791 141.531C89.6791 141.531 80.708 154.357 65.185 155.015C49.662 155.672 38.1709 143.276 38.1709 143.276H38.1961Z" fill="#844E3F"/>
<path d="M100.994 120.33C109.335 126.503 123.749 98.422 115.61 91.7685C107.495 85.115 100.263 97.9666 100.263 97.9666L98.2469 107.201L94.6182 115.701L97.5665 118.104L100.968 120.356L100.994 120.33Z" class="skin" fill="#B77261"/>
<path d="M113.367 100.218C113.367 100.218 107.319 98.1942 103.035 107.125" stroke="#844E3F" stroke-width="2.5" stroke-linecap="square" stroke-linejoin="round"/>
<path d="M105.983 102.773C105.983 102.773 112.561 106.315 108.226 111.602" stroke="#844E3F" stroke-width="2.5" stroke-linecap="square" stroke-linejoin="round"/>
<path d="M27.4354 120.331C19.0943 126.503 4.68002 98.4221 12.8195 91.7686C20.9338 85.1151 27.5865 98.751 27.5865 98.751L26.5282 107.656L27.7125 117.32L30.0057 118.939L27.4606 120.331H27.4354Z" class="skin" fill="#B77261"/>
<path d="M15.0625 100.218C15.0625 100.218 21.1104 98.1945 25.3944 107.125" stroke="#844E3F" stroke-width="2.5" stroke-linecap="square" stroke-linejoin="round"/>
<path d="M22.4456 102.773C22.4456 102.773 15.8685 106.315 20.2028 111.603" stroke="#844E3F" stroke-width="2.5" stroke-linecap="square" stroke-linejoin="round"/>
<path d="M102.933 84.0778C102.933 101.483 100.64 116.485 98.3219 127.161C96.0791 137.584 89.7288 143.226 80.7829 149.095L79.1449 150.157C69.6698 156.356 57.4228 156.507 47.7965 150.537C38.0946 144.491 31.2907 138.191 29.1991 127.009C25.394 106.644 24.9908 84.1031 24.9908 84.1031C24.9908 84.1031 21.362 40.185 63.3951 41.0198C105.428 41.88 102.908 84.1031 102.908 84.1031L102.933 84.0778Z" class="skin" fill="#B77261"/>
<path d="M59.9441 128.658L59.6641 125.848C59.8741 125.828 64.7841 125.348 68.1841 125.848L67.764 128.638C64.714 128.178 59.9941 128.638 59.9441 128.638V128.658Z" fill="#844E3F"/>
<path d="M59.792 102.773V111.426C59.792 111.931 59.8928 112.412 60.0692 112.868C60.7748 114.613 62.7656 115.448 64.5799 114.967L69.9223 113.424" stroke="#844E3F" stroke-width="2.5" stroke-linecap="square" stroke-linejoin="round"/>
<path d="M49.2332 95.6394C49.2332 97.7897 47.4944 99.5353 45.3524 99.5353C43.2105 99.5353 41.4717 97.7897 41.4717 95.6394C41.4717 93.489 43.2105 91.7434 45.3524 91.7434C47.4944 91.7434 49.2332 93.489 49.2332 95.6394Z" class="hair" fill="#1A1A1A"/>
<path d="M86.1512 95.6394C86.1512 97.7897 84.4124 99.5353 82.2704 99.5353C80.1284 99.5353 78.3896 97.7897 78.3896 95.6394C78.3896 93.489 80.1284 91.7434 82.2704 91.7434C84.4124 91.7434 86.1512 93.489 86.1512 95.6394Z" class="hair" fill="#1A1A1A"/>
<path d="M75.4376 125.621C75.4376 125.621 71.0359 122.151 63.9932 122.151H63.9761C57.1898 122.151 52.241 125.272 52.1897 125.299L50.9248 123.144C51.147 123.001 56.4718 119.621 63.9761 119.621H63.9932C71.9077 119.621 76.7197 123.457 76.9248 123.618L75.4462 125.612L75.4376 125.621Z" fill="#844E3F"/>
<path d="M56.0404 81.5275L56.764 78.8769C56.9759 78.0672 56.3357 77.3604 55.2897 77.2413C52.4134 76.9139 46.7192 76.5826 42.6526 78.4503C37.9932 80.5797 35.18 85.4085 34.3054 87.0838C34.116 87.4524 34.1634 87.8552 34.4203 88.1428C34.9478 88.7929 36.1876 88.8512 37.033 88.2867L42.1094 84.9248C43.8497 83.7869 46.0024 83.0885 48.2296 82.9422C49.8526 82.8539 51.8115 82.7819 53.5946 82.8703C54.7307 82.9217 55.824 82.3123 56.0562 81.4732L56.0404 81.5275Z" class="hair" fill="#1A1A1A"/>
<path d="M71.2889 80.9552L70.7511 78.2607C70.596 77.4383 71.2837 76.7777 72.3354 76.7315C75.2276 76.6045 80.931 76.6694 84.8581 78.815C89.3584 81.2628 91.8295 86.2753 92.5857 88.0073C92.749 88.388 92.6738 88.7866 92.3975 89.0557C91.8261 89.6676 90.5853 89.6396 89.7812 89.0178L84.9504 85.3116C83.2934 84.0556 81.1943 83.2093 78.9827 82.9088C77.3697 82.708 75.4205 82.5002 73.6356 82.4646C72.4987 82.4369 71.4503 81.7531 71.277 80.8999L71.2889 80.9552Z" class="hair" fill="#1A1A1A"/>
<path d="M25.5198 95.437C25.5198 95.437 24.4614 71.9853 35.3476 68.6965L38.1952 57.7676H22.4454C22.4454 57.7676 21.891 66.4703 25.5198 95.437Z" class="hair" fill="#1A1A1A"/>
<path d="M102.505 95.4369C102.505 95.4369 102.279 71.9852 91.3923 68.6964L88.2676 56.9326L102.959 55.6677C102.959 55.6677 106.134 66.4702 102.48 95.4369H102.505Z" class="hair" fill="#1A1A1A"/>
<path d="M95.2733 59.5384C95.2733 59.5384 84.9918 62.7766 71.006 63.3078C57.0201 63.8391 62.8412 76.5642 62.8412 76.5642C62.8412 76.5642 47.6962 78.2845 47.9734 56.6796C47.9734 56.6796 43.6139 70.1131 30.2076 71.7322C30.2076 71.7322 33.4584 66.0401 32.8536 59.5131C32.8536 59.5131 18.893 62.4983 16.247 68.747C16.247 68.747 9.19109 55.9966 22.5973 41.3235C22.5973 41.3235 18.515 37.5034 13.2734 43.4738C13.2734 43.4738 19.0946 26.9033 49.4098 29.6103C49.4098 29.6103 57.2721 32.3172 64.8572 27.4346C72.4423 22.552 82.245 23.8928 86.1258 30.1415C88.7213 34.3411 89.6285 37.3769 89.6285 37.3769C89.6285 37.3769 94.2905 37.9082 94.5929 29.7621C94.5929 29.7621 101.17 36.7191 94.5929 44.1569C94.5929 44.1569 113.367 48.2046 104.244 70.0625L95.2481 59.4878L95.2733 59.5384Z" class="hair" fill="#1A1A1A"/>
</g>
<defs>
<clipPath id="clip0_310_2518">
<rect width="107.628" height="178" fill="white" transform="translate(10.4004 24.5)"/>
</clipPath>
</defs>
</svg>
