<svg width="130" height="210" viewBox="0 0 130 210" fill="none" xmlns="http://www.w3.org/2000/svg">
<g clip-path="url(#clip0_277_600)">
<path d="M38.5391 140.013H90.0472V176.645C90.0472 190.913 78.5058 202.5 64.2932 202.5C50.0805 202.5 38.5391 190.913 38.5391 176.645V140.013Z" class="skin"  fill="#B77261"/>
<path d="M38.5389 143.276C38.5389 143.276 44.7884 159.037 57.7914 166.475C67.2413 171.863 79.438 169.789 85.8387 160.96C89.0391 156.558 90.0219 151.043 90.0219 141.531C90.0219 141.531 81.0508 154.357 65.5277 155.015C50.0047 155.672 38.5137 143.276 38.5137 143.276H38.5389Z" fill="#844E3F"/>
<path d="M98.5122 123.434C106.281 130.313 123.099 103.602 115.573 96.2614C108.073 88.9229 99.7429 101.092 99.7429 101.092L96.9259 110.114L92.5667 118.263L95.2932 120.916L98.4849 123.457L98.5122 123.434Z" class="skin"  fill="#B77261"/>
<path d="M112.599 104.482C112.599 104.482 106.752 101.937 101.702 110.457" stroke="#844E3F" stroke-width="2.5" stroke-linecap="square" stroke-linejoin="round"/>
<path d="M105.021 106.381C105.021 106.381 111.262 110.485 106.481 115.373" stroke="#844E3F" stroke-width="2.5" stroke-linecap="square" stroke-linejoin="round"/>
<path d="M25.2366 116.991C16.3869 122.41 4.48743 93.1743 13.1784 87.2592C21.8442 81.3419 27.2771 95.508 27.2771 95.508L25.4429 104.286L25.7764 114.017L27.9189 115.831L25.2617 116.994L25.2366 116.991Z" class="skin"  fill="#B77261"/>
<path d="M14.6722 95.8729C14.6722 95.8729 20.8741 94.3865 24.3595 103.658" stroke="#844E3F" stroke-width="2.5" stroke-linecap="square" stroke-linejoin="round"/>
<path d="M21.8034 99.0649C21.8034 99.0649 14.9413 102.017 18.796 107.664" stroke="#844E3F" stroke-width="2.5" stroke-linecap="square" stroke-linejoin="round"/>
<path d="M103.62 87.49C102.096 104.828 98.4978 119.572 95.2533 130.004C92.1063 140.19 85.2863 145.254 75.8608 150.317L74.1361 151.232C64.1545 156.577 51.9413 155.655 42.8748 148.865C33.7398 141.992 27.5137 135.121 26.4095 123.799C24.4025 103.179 25.975 80.689 25.975 80.689C25.975 80.689 26.2065 36.6218 68.005 41.1347C109.801 45.6728 103.593 87.513 103.593 87.513L103.62 87.49Z" class="skin"  fill="#B77261"/>
<path fill-rule="evenodd" clip-rule="evenodd" d="M65.3343 79.0092C65.7103 78.8355 66.156 78.9995 66.3297 79.3755C67.2798 81.432 66.6612 83.2482 65.484 84.4866C63.1549 86.4004 61.3201 85.1223 61.3201 85.1223C61.3201 85.1223 63.5272 84.3679 64.3968 83.4531C65.2253 82.5815 65.6175 81.4104 64.968 80.0046C64.7943 79.6286 64.9583 79.1829 65.3343 79.0092Z" fill="#844E3F"/>
<path d="M59.0068 102.335L58.2491 110.954C58.2048 111.458 58.2631 111.946 58.3989 112.415C58.9489 114.216 60.8589 115.222 62.7084 114.902L68.1654 113.832" stroke="#844E3F" stroke-width="2.5" stroke-linecap="square" stroke-linejoin="round"/>
<path d="M49.1141 94.3039C48.9258 96.446 47.0408 98.0326 44.9071 97.845C42.7733 97.6574 41.1941 95.7663 41.3824 93.6242C41.5708 91.4821 43.4557 89.8954 45.5895 90.083C47.7232 90.2706 49.3024 92.1618 49.1141 94.3039Z" class="hair" fill="#1A1A1A"/>
<path d="M85.8895 97.5371C85.7012 99.6792 83.8162 101.266 81.6825 101.078C79.5487 100.891 77.9695 98.9994 78.1578 96.8573C78.3461 94.7152 80.2311 93.1286 82.3649 93.3162C84.4986 93.5038 86.0778 95.395 85.8895 97.5371Z" class="hair" fill="#1A1A1A"/>
<path d="M50.2323 120.781C50.2323 120.781 61.9273 120.829 72.2011 126.228" stroke="#844E3F" stroke-width="2.5" stroke-linecap="square" stroke-linejoin="round"/>
<path d="M58.8372 82.9184L60.456 80.6982C60.9419 80.0167 60.5948 79.1285 59.6596 78.6453C57.0877 77.3165 51.5758 73.825 47.111 74.1248C41.9989 74.4585 37.6526 77.9714 36.2394 79.2263C35.9314 79.5034 35.8325 79.8967 35.9704 80.257C36.2323 81.0521 37.3704 81.5474 38.3611 81.3204L44.3012 79.9831C46.3323 79.5383 48.9003 80.8083 51.0339 81.4635C52.5823 81.958 54.4387 82.5872 56.0738 83.3039C57.1175 83.7558 58.356 83.575 58.8713 82.8733L58.8372 82.9184Z" class="hair" fill="#1A1A1A"/>
<path d="M72.6691 77.4087L71.7064 74.8352C71.4214 74.0483 71.9944 73.286 73.0251 73.0719C75.8595 72.483 81.4996 71.6329 85.7198 73.1213C90.5543 74.8162 93.7969 79.3678 94.8209 80.9562C95.0431 81.3059 95.0328 81.7113 94.8031 82.0213C94.3372 82.7168 93.1079 82.8881 92.2146 82.4032L86.8522 79.5191C85.0153 78.5449 82.8077 78.0461 80.5765 78.1039C78.9522 78.1643 76.9949 78.2715 75.2274 78.5225C74.1007 78.6774 72.9563 78.1704 72.6484 77.3561L72.6691 77.4087Z" class="hair" fill="#1A1A1A"/>
<path d="M25.5095 92.0256C25.5095 92.0256 26.5091 68.5713 37.6416 66.2486L41.4354 55.611L25.7461 54.2317C25.7461 54.2317 24.4316 62.8523 25.5095 92.0256Z" class="hair" fill="#1A1A1A"/>
<path d="M102.198 98.7679C102.198 98.7679 104.026 75.3864 93.4698 71.1569L91.3873 59.1646L106.133 59.1912C106.133 59.1912 108.35 70.2302 102.173 98.7657L102.198 98.7679Z" class="hair" fill="#1A1A1A"/>
<path d="M98.1375 62.374C98.1375 62.374 87.6119 64.6993 73.6333 64.0036C59.6547 63.308 64.339 76.494 64.339 76.494C64.339 76.494 49.1015 76.8813 51.2698 55.3837C51.2698 55.3837 45.7505 68.3838 32.2539 68.8225C32.2539 68.8225 35.9907 63.437 35.9599 56.8821C35.9599 56.8821 21.7915 58.6331 18.6084 64.6261C18.6084 64.6261 12.6963 51.3067 27.3361 37.8641C27.3361 37.8641 23.604 33.7012 17.8597 39.1897C17.8597 39.1897 25.1097 23.1926 55.0714 28.5442C55.0714 28.5442 62.6664 31.9293 70.65 27.7298C78.6336 23.5302 88.2811 25.7244 91.5997 32.289C93.8175 36.6997 94.4554 39.8033 94.4554 39.8033C94.4554 39.8033 99.0528 40.7408 100.068 32.6525C100.068 32.6525 106.01 40.1589 98.8068 46.992C98.8068 46.992 117.154 52.6684 106.152 73.6434L98.1168 62.3214L98.1375 62.374Z" class="hair" fill="#1A1A1A"/>
</g>
<defs>
<clipPath id="clip0_277_600">
<rect width="107.628" height="178" fill="white" transform="translate(10.7432 24.5)"/>
</clipPath>
</defs>
</svg>
