<svg width="130" height="210" viewBox="0 0 130 210" fill="none" xmlns="http://www.w3.org/2000/svg">
<g clip-path="url(#clip0_310_2518)">
<path d="M38.4238 140.013H89.932V176.645C89.932 190.913 78.3906 202.5 64.1779 202.5C49.9653 202.5 38.4238 190.913 38.4238 176.645V140.013Z" class="skin" fill="#B77261"/>
<path d="M38.4236 143.276C38.4236 143.276 44.6732 159.037 57.6762 166.475C67.1261 171.863 79.3227 169.789 85.7235 160.96C88.9238 156.558 89.9066 151.043 89.9066 141.531C89.9066 141.531 80.9355 154.357 65.4125 155.015C49.8895 155.672 38.3984 143.276 38.3984 143.276H38.4236Z" fill="#844E3F"/>
<path d="M101.221 120.33C109.562 126.503 123.977 98.422 115.837 91.7685C107.723 85.115 100.49 97.9666 100.49 97.9666L98.4745 107.201L94.8457 115.701L97.7941 118.104L101.196 120.356L101.221 120.33Z" class="skin" fill="#B77261"/>
<path d="M113.595 100.218C113.595 100.218 107.547 98.1942 103.263 107.125" stroke="#844E3F" stroke-width="2.5" stroke-linecap="square" stroke-linejoin="round"/>
<path d="M106.211 102.773C106.211 102.773 112.788 106.315 108.454 111.602" stroke="#844E3F" stroke-width="2.5" stroke-linecap="square" stroke-linejoin="round"/>
<path d="M27.6629 120.331C19.3218 126.503 4.90756 98.4221 13.0471 91.7686C21.1614 85.1151 27.8141 98.751 27.8141 98.751L26.7557 107.656L27.9401 117.32L30.2333 118.939L27.6881 120.331H27.6629Z" class="skin" fill="#B77261"/>
<path d="M15.29 100.218C15.29 100.218 21.338 98.1945 25.6219 107.125" stroke="#844E3F" stroke-width="2.5" stroke-linecap="square" stroke-linejoin="round"/>
<path d="M22.6731 102.773C22.6731 102.773 16.096 106.315 20.4304 111.603" stroke="#844E3F" stroke-width="2.5" stroke-linecap="square" stroke-linejoin="round"/>
<path d="M103.161 84.0778C103.161 101.483 100.868 116.485 98.5494 127.161C96.3067 137.584 89.9563 143.226 81.0105 149.095L79.3725 150.157C69.8974 156.356 57.6503 156.507 48.024 150.537C38.3222 144.491 31.5182 138.191 29.4267 127.009C25.6215 106.644 25.2183 84.1031 25.2183 84.1031C25.2183 84.1031 21.5896 40.185 63.6227 41.0198C105.656 41.88 103.136 84.1031 103.136 84.1031L103.161 84.0778Z" class="skin" fill="#B77261"/>
<path d="M89.9795 95.0471L88.1748 95.8799L89.9795 97.1293" stroke="#844E3F" stroke-linecap="square"/>
<path d="M60.0186 102.773V111.426C60.0186 111.931 60.1194 112.412 60.2957 112.868C61.0013 114.613 62.9921 115.448 64.8065 114.967L70.1488 113.424" stroke="#844E3F" stroke-width="2.5" stroke-linecap="square" stroke-linejoin="round"/>
<path d="M44.443 96.567C46.4859 96.567 48.1419 97.1731 48.1419 95.1681C48.1419 93.163 46.4859 91.5376 44.443 91.5376C42.4002 91.5376 40.7441 93.163 40.7441 95.1681C40.7441 97.1731 42.4002 96.567 44.443 96.567Z" class="hair" fill="#1A1A1A"/>
<path d="M81.443 96.567C83.4859 96.567 85.1419 97.1731 85.1419 95.1681C85.1419 93.163 83.4859 91.5376 81.443 91.5376C79.4002 91.5376 77.7441 93.163 77.7441 95.1681C77.7441 97.1731 79.4002 96.567 81.443 96.567Z" class="hair" fill="#1A1A1A"/>
<path d="M46.1953 120.388L83.6522 118.339C83.6522 118.339 81.3745 131.97 64.48 132.443C47.5855 132.916 46.1647 120.389 46.1647 120.389L46.1953 120.388Z" fill="#AE5655"/>
<path d="M81.5837 118.597L81.7079 118.241C65.7282 119.189 55.2323 119.483 48.1178 120.182C48.2864 120.453 49.5226 122.159 49.6779 122.438C50.1142 123.168 51.2683 123.671 52.6379 123.725C58.3449 123.963 64.8026 123.981 77.428 122.694C78.8992 122.546 81.2988 119.439 81.5837 118.597Z" fill="white"/>
<path d="M54.416 130.758C57.0178 131.927 60.5996 132.99 65.0978 132.864C69.5961 132.738 73.0527 131.141 75.5098 129.571C74.3109 128.197 70.1382 127.356 63.0656 128.082C56.9274 128.717 55.2946 129.752 54.416 130.758Z" fill="#D97F7E"/>
<path d="M54.3735 80.9462L55.5578 78.467C55.9106 77.708 55.4067 76.8985 54.3987 76.5949C51.6267 75.76 46.0828 74.4192 41.7484 75.5324C36.7841 76.7973 33.1553 81.0474 31.9961 82.54C31.7441 82.8689 31.7189 83.2737 31.9205 83.6026C32.3237 84.3362 33.5333 84.6145 34.4657 84.2097L40.06 81.8064C41.9752 80.9968 44.218 80.6932 46.4356 80.9462C48.0483 81.1486 49.9887 81.4269 51.7275 81.8317C52.8363 82.0847 54.0207 81.6799 54.3987 80.8956L54.3735 80.9462Z" class="hair" fill="#1A1A1A"/>
<path d="M71.446 81.3893L70.2617 78.9101C69.9089 78.1511 70.4129 77.3416 71.4208 77.038C74.1928 76.2032 79.7367 74.8623 84.0711 75.9755C89.0354 77.2404 92.6642 81.4905 93.8234 82.9831C94.0754 83.312 94.1006 83.7168 93.899 84.0457C93.4958 84.7793 92.2862 85.0576 91.3538 84.6528L85.7595 82.2495C83.8443 81.4399 81.6015 81.1364 79.384 81.3893C77.7712 81.5917 75.8308 81.87 74.092 82.2748C72.9832 82.5278 71.7988 82.123 71.4208 81.3387L71.446 81.3893Z" class="hair" fill="#1A1A1A"/>
<path d="M25.7473 95.437C25.7473 95.437 24.6889 71.9853 35.5752 68.6965L38.4228 57.7676H22.6729C22.6729 57.7676 22.1186 66.4703 25.7473 95.437Z" class="hair" fill="#1A1A1A"/>
<path d="M102.733 95.4369C102.733 95.4369 102.506 71.9852 91.6199 68.6964L88.4951 56.9326L103.187 55.6677C103.187 55.6677 106.362 66.4702 102.708 95.4369H102.733Z" class="hair" fill="#1A1A1A"/>
<path d="M95.5008 59.5384C95.5008 59.5384 85.2193 62.7766 71.2335 63.3078C57.2477 63.8391 63.0688 76.5642 63.0688 76.5642C63.0688 76.5642 47.9238 78.2845 48.201 56.6796C48.201 56.6796 43.8414 70.1131 30.4352 71.7322C30.4352 71.7322 33.6859 66.0401 33.0811 59.5131C33.0811 59.5131 19.1205 62.4983 16.4745 68.747C16.4745 68.747 9.41863 55.9966 22.8249 41.3235C22.8249 41.3235 18.7425 37.5034 13.501 43.4738C13.501 43.4738 19.3221 26.9033 49.6373 29.6103C49.6373 29.6103 57.4997 32.3172 65.0848 27.4346C72.6699 22.552 82.4726 23.8928 86.3533 30.1415C88.9489 34.3411 89.8561 37.3769 89.8561 37.3769C89.8561 37.3769 94.518 37.9082 94.8204 29.7621C94.8204 29.7621 101.398 36.7191 94.8204 44.1569C94.8204 44.1569 113.594 48.2046 104.472 70.0625L95.4756 59.4878L95.5008 59.5384Z" class="hair" fill="#1A1A1A"/>
</g>
<defs>
<clipPath id="clip0_310_2518">
<rect width="107.628" height="178" fill="white" transform="translate(10.6279 24.5)"/>
</clipPath>
</defs>
</svg>
