<svg width="215" height="243" viewBox="0 0 215 243" fill="none" xmlns="http://www.w3.org/2000/svg">
<g clip-path="url(#clip0_209_24)">
<path class="hair" d="M112.989 55.9447C112.989 55.9447 76.2063 31.9839 53.1307 47.4468C24.2297 66.8316 63.1316 106.074 41.7329 119.534C20.3341 132.995 9.73603 143.124 9.017 166.315C3.43767 210.353 86.0418 266.509 150.101 223.519C214.161 180.529 185.866 109.563 153.701 97.1469C114.997 82.2002 113.021 55.9728 113.021 55.9728L112.989 55.9447Z" fill="#190F0D"/>
<path class="skin" d="M164.358 110.163C165.204 101.867 160.683 94.6101 154.26 93.9552C147.837 93.3002 141.944 99.4949 141.098 107.791C140.252 116.088 144.773 123.344 151.196 123.999C157.619 124.654 163.512 118.46 164.358 110.163Z" fill="#E98C7B"/>
<path class="skin" d="M49.1484 108.731C48.251 100.44 52.7269 93.1556 59.1456 92.4609C65.5644 91.7661 71.4953 97.9241 72.3927 106.215C73.2901 114.506 68.8142 121.791 62.3955 122.485C55.9767 123.18 50.0458 117.022 49.1484 108.731Z" fill="#E98C7B"/>
<path class="skin" d="M129.941 168.757C128.062 165.793 127.358 148.565 127.358 148.565L109.511 149.45L91.7262 151.165C91.7262 151.165 93.5293 168.31 92.0992 171.524C90.6692 174.729 77.1174 180.621 77.1174 180.621C81.3887 197.177 102.217 206.183 114.722 204.754C129.927 203.027 146.646 189.805 147.903 175.851C147.903 175.851 131.82 171.731 129.931 168.767L129.941 168.757Z" fill="#E98C7B"/>
<path d="M128.174 159.903C127.917 157.484 127.729 155.005 127.603 152.975C125.236 154.102 119.413 156.4 110.075 157.079C98.6077 157.915 92.8702 155.493 92.0991 155.135C92.2549 157.004 92.4221 159.324 92.5393 161.644C95.53 165.094 101.687 170.515 111.005 169.836C119.613 169.21 125.206 163.762 128.174 159.913L128.174 159.903Z" fill="#9C3D28"/>
<path class="skin" d="M63.6021 75.5721C63.6021 75.5721 69.5197 42.5436 106.308 41.7896C143.107 41.3956 150.048 74.2242 150.048 74.2242C150.048 74.2242 153.063 111.105 142.3 136.199C136.373 150.027 123.307 160.858 108.197 161.154C93.0879 161.331 79.6356 150.913 73.2733 137.272C61.7365 112.528 63.6021 75.5721 63.6021 75.5721Z" fill="#E98C7B"/>
<path d="M125.534 123.226C122.777 120.697 116.632 121.129 108.978 121.618C101.324 122.107 96.4626 124.131 93.3503 126.234C90.1414 128.393 93.2277 143.296 110.294 142.226C126.841 141.179 128.1 125.587 125.535 123.236L125.534 123.226Z" fill="#190F0D"/>
<path d="M108.977 121.619C103.818 121.948 99.7305 123.061 96.6809 124.418C96.8493 125.8 97.1537 127.113 97.9425 127.384C98.8749 127.705 104.683 127.184 109.652 126.846C114.132 126.54 120.947 125.624 121.484 124.768C121.702 124.423 121.733 123.018 121.752 121.594C118.547 120.997 114.108 121.301 108.978 121.629L108.977 121.619Z" fill="white"/>
<path d="M100.28 140.602C102.882 141.798 106.172 142.48 110.293 142.217C114.425 141.953 117.607 140.788 120.007 139.141C119.128 137.765 116.545 136.557 109.59 137.482C103.559 138.288 101.112 139.506 100.28 140.602Z" fill="#A06275"/>
<path class="hair" d="M142.888 89.0939L143.395 107.548C143.395 107.548 150.535 100.838 149.984 88.0255L142.888 89.0939Z" fill="#190F0D"/>
<path d="M62.8225 116.697C62.8672 114.977 63.2101 99.7854 60.4163 95.3541L58.1308 96.7912C60.1306 99.955 60.2485 112.175 60.1222 116.615L62.8225 116.687L62.8225 116.697Z" fill="#9C3D28"/>
<path d="M55.2979 105.012L61.9424 106.98L61.1726 109.579L54.5281 107.61L55.2979 105.012Z" fill="#9C3D28"/>
<path class="hair" d="M65.65 111.563C65.65 111.563 58.6258 107.104 56.4368 87.4121L63.4531 85.9756L65.65 111.563Z" fill="#190F0D"/>
<path d="M85.8081 101.964C88.4235 101.796 90.5931 102.433 90.4299 99.8788C90.2668 97.3243 88.0143 95.3889 85.3988 95.5559C82.7833 95.723 80.7953 97.9292 80.9585 100.484C81.1217 103.038 83.1926 102.131 85.8081 101.964Z" fill="#340C00"/>
<path d="M127.722 99.2858C130.338 99.1187 132.507 99.7555 132.344 97.201C132.181 94.6466 129.928 92.7111 127.313 92.8782C124.697 93.0452 122.709 95.2515 122.873 97.806C123.036 100.36 125.107 99.4528 127.722 99.2858Z" fill="#340C00"/>
<path d="M150.466 118.673C150.431 116.963 150.194 101.884 152.99 97.4949L155.255 98.9379C153.255 102.074 153.062 114.205 153.156 118.604L150.466 118.663L150.466 118.673Z" fill="#9C3D28"/>
<path d="M158.015 107.173L151.406 109.085L152.154 111.669L158.763 109.757L158.015 107.173Z" fill="#9C3D28"/>
<path d="M108.341 96.3321C108.69 103.122 109.102 106.98 112.874 114.594L103.86 114.294" stroke="#9C3D28" stroke-width="2.5"/>
<path class="hair" d="M72.3238 89.7736C72.0569 84.4781 76.9215 81.392 88.8094 82.6625L72.3238 89.7736Z" fill="#340C00"/>
<path class="hair" d="M137.192 85.6307C136.405 80.3872 131.026 78.3254 119.625 81.9244L137.192 85.6307Z" fill="#340C00"/>
<path class="hair" d="M44.8281 56.378C69.6313 43.981 105.773 62.5769 105.773 62.5769C105.773 62.5769 113.944 80.5584 152.648 95.5051C160.82 98.6534 172.257 111.009 177.737 118.632C177.737 118.632 164.718 87.6343 159.964 67.3605C155.178 47.0586 137.167 51.3978 137.167 51.3978C137.167 51.3978 123.846 23.6769 81.9006 28.0343C60.7569 29.475 44.8281 56.378 44.8281 56.378Z" fill="#190F0D"/>
</g>
<defs>
<clipPath id="clip0_209_24">
<rect width="215" height="243" fill="white"/>
</clipPath>
</defs>
</svg>
