<svg width="215" height="243" viewBox="0 0 215 243" fill="none" xmlns="http://www.w3.org/2000/svg">
<path d="M118.878 56.7541C118.878 56.7541 83.6967 30.4974 59.6825 44.458C29.6046 61.9613 65.9262 103.603 43.713 115.672C21.4998 127.741 10.2776 137.174 8.08185 160.273C-0.293123 203.866 78.5637 265.173 145.233 226.353C211.903 187.534 188.189 114.908 156.88 100.467C119.208 83.0841 118.908 56.7841 118.908 56.7841L118.878 56.7541Z" fill="#190F0D"/>
<path d="M166.686 114.136C168.059 105.911 164.01 98.3806 157.642 97.3176C151.273 96.2546 144.998 102.061 143.625 110.287C142.252 118.512 146.301 126.042 152.669 127.105C159.037 128.168 165.313 122.362 166.686 114.136Z" fill="#E98C7B"/>
<path d="M51.8031 105.364C51.436 97.0324 56.3671 90.048 62.8171 89.7638C69.267 89.4796 74.7934 96.0031 75.1605 104.335C75.5276 112.666 70.5965 119.65 64.1465 119.935C57.6966 120.219 52.1702 113.695 51.8031 105.364Z" fill="#E98C7B"/>
<path d="M128.605 170.417C126.919 167.339 127.315 150.102 127.315 150.102L109.447 149.848L91.5893 150.426C91.5893 150.426 92.2959 167.65 90.6639 170.767C89.0325 173.874 75.1327 178.89 75.1327 178.89C78.3401 195.686 98.5517 206 111.123 205.372C126.407 204.617 143.935 192.488 146.078 178.642C146.078 178.642 130.291 173.505 128.594 170.427L128.605 170.417Z" fill="#E98C7B"/>
<path d="M127.405 161.468C127.303 159.038 127.273 156.551 127.277 154.518C124.843 155.492 118.886 157.414 109.523 157.497C98.0259 157.6 92.4545 154.817 91.7077 154.41C91.744 156.286 91.763 158.612 91.7321 160.934C94.4968 164.568 100.296 170.371 109.638 170.287C118.268 170.21 124.197 165.131 127.405 161.478L127.405 161.468Z" fill="#9C3D28"/>
<path d="M68.3404 73.1935C68.3404 73.1935 76.3513 40.6093 113.112 42.2017C149.862 44.154 154.697 77.3584 154.697 77.3584C154.697 77.3584 155.354 114.356 143.014 138.713C136.218 152.135 122.488 162.111 107.39 161.444C92.3001 160.658 79.5392 149.403 74.0593 135.385C64.1232 109.955 68.3404 73.1935 68.3404 73.1935Z" fill="#E98C7B"/>
<path d="M127.109 124.698C124.519 121.998 118.359 122.038 110.689 122.038C103.019 122.038 98.0387 123.748 94.7987 125.648C91.4587 127.598 93.5887 142.668 110.689 142.688C127.269 142.698 129.519 127.218 127.109 124.708V124.698Z" fill="#190F0D"/>
<path d="M110.688 122.038C105.518 122.038 101.368 122.888 98.2383 124.048C98.3183 125.438 98.5383 126.768 99.3083 127.088C100.218 127.468 106.048 127.318 111.028 127.298C115.518 127.278 122.378 126.798 122.968 125.978C123.208 125.648 123.328 124.248 123.438 122.828C120.278 122.028 115.828 122.048 110.688 122.048V122.038Z" fill="white"/>
<path d="M100.799 140.428C103.319 141.788 106.559 142.678 110.689 142.678C114.829 142.678 118.079 141.718 120.579 140.228C119.789 138.798 117.289 137.428 110.289 137.908C104.219 138.328 101.699 139.388 100.799 140.428Z" fill="#A06275"/>
<path d="M146.603 91.7417L145.932 110.19C145.932 110.19 153.486 103.949 153.753 91.1278L146.603 91.7417Z" fill="#190F0D"/>
<path d="M64.9411 114.184C65.0953 112.47 66.4058 97.3317 63.9002 92.7312L61.5277 94.0197C63.3218 97.3046 62.6605 109.507 62.2515 113.93L64.9417 114.174L64.9411 114.184Z" fill="#9C3D28"/>
<path d="M58.1761 102.044L64.6816 104.432L63.7478 106.976L57.2422 104.588L58.1761 102.044Z" fill="#9C3D28"/>
<path d="M68.0898 109.241C68.0898 109.241 61.364 104.344 60.4347 84.5528L67.5283 83.5664L68.0898 109.241Z" fill="#190F0D"/>
<path d="M88.8186 100.947C91.4394 100.947 93.564 101.721 93.564 99.1611C93.564 96.6014 91.4394 94.5264 88.8186 94.5264C86.1978 94.5264 84.0732 96.6014 84.0732 99.1611C84.0732 101.721 86.1978 100.947 88.8186 100.947Z" fill="#340C00"/>
<path d="M130.819 100.947C133.439 100.947 135.564 101.721 135.564 99.1611C135.564 96.6014 133.439 94.5264 130.819 94.5264C128.198 94.5264 126.073 96.6014 126.073 99.1611C126.073 101.721 128.198 100.947 130.819 100.947Z" fill="#340C00"/>
<path d="M152.281 121.744C152.354 120.035 153.079 104.972 156.15 100.77L158.318 102.355C156.121 105.357 155.156 117.451 154.969 121.847L152.281 121.734L152.281 121.744Z" fill="#9C3D28"/>
<path d="M160.546 110.748L153.829 112.235L154.411 114.862L161.128 113.375L160.546 110.748Z" fill="#9C3D28"/>
<path d="M111.664 96.7627C111.58 103.561 111.746 107.437 115.024 115.276L106.048 114.403" stroke="#9C3D28" stroke-width="2.5"/>
<path d="M76.1389 87.9211C76.2101 82.6193 81.2615 79.8496 93.0442 81.8752L76.1389 87.9211Z" fill="#340C00"/>
<path d="M141.139 87.9213C140.688 82.6383 135.451 80.2378 123.844 83.1028L141.139 87.9213Z" fill="#340C00"/>
<path d="M50.8276 52.8407C76.3705 42.0499 111.254 62.9117 111.254 62.9117C111.254 62.9117 118.262 81.3774 155.934 98.7607C163.889 102.423 174.515 115.483 179.498 123.439C179.498 123.439 168.481 91.6753 165.029 71.1396C161.547 50.574 143.297 53.7564 143.297 53.7564C143.297 53.7564 131.769 25.2428 89.6313 26.9177C68.4388 27.0077 50.8276 52.8407 50.8276 52.8407Z" fill="#190F0D"/>
</svg>
