<svg width="215" height="243" viewBox="0 0 215 243" fill="none" xmlns="http://www.w3.org/2000/svg">
<g clip-path="url(#clip0_209_24)">
<path class="hair" d="M113.693 56.414C113.693 56.414 77.0106 32.3002 53.8708 47.6669C24.8894 66.9313 63.6276 106.335 42.173 119.706C20.7184 133.077 10.0782 143.162 9.26269 166.351C3.50008 210.365 85.8697 266.864 150.108 224.141C214.346 181.418 186.347 110.335 154.233 97.7852C115.592 82.6776 113.725 56.4422 113.725 56.4422L113.693 56.414Z" fill="#190F0D"/>
<path class="skin" d="M164.836 110.847C165.716 102.554 161.226 95.2784 154.806 94.5967C148.385 93.915 142.467 100.085 141.587 108.378C140.706 116.671 145.197 123.946 151.617 124.628C158.037 125.31 163.955 119.139 164.836 110.847Z" fill="#E98C7B"/>
<path class="skin" d="M49.6343 108.934C48.7714 100.64 53.2776 93.3739 59.6991 92.7058C66.1207 92.0378 72.0259 98.2205 72.8888 106.515C73.7517 114.81 69.2455 122.076 62.8239 122.744C56.4024 123.412 50.4971 117.229 49.6343 108.934Z" fill="#E98C7B"/>
<path class="skin" d="M130.175 169.296C128.309 166.324 127.677 149.094 127.677 149.094L109.826 149.905L92.0342 151.546C92.0342 151.546 93.766 168.698 92.3225 171.906C90.8791 175.104 77.303 180.94 77.303 180.94C81.5053 197.514 102.296 206.607 114.807 205.23C130.019 203.566 146.793 190.414 148.108 176.465C148.108 176.465 132.042 172.278 130.165 169.306L130.175 169.296Z" fill="#E98C7B"/>
<path d="M128.445 160.434C128.198 158.014 128.02 155.534 127.903 153.504C125.531 154.621 119.699 156.895 110.358 157.535C98.8874 158.323 93.16 155.877 92.3904 155.516C92.5384 157.386 92.6959 159.706 92.8035 162.026C95.7798 165.489 101.914 170.936 111.235 170.296C119.845 169.705 125.461 164.281 128.445 160.444L128.445 160.434Z" fill="#9C3D28"/>
<path class="skin" d="M64.2256 75.8355C64.2256 75.8355 70.2808 42.8319 107.071 42.2311C143.872 41.9902 150.677 74.8475 150.677 74.8475C150.677 74.8475 153.537 111.741 142.671 136.789C136.686 150.593 123.575 161.369 108.464 161.603C93.3542 161.717 79.9454 151.242 73.6399 137.576C62.2063 112.783 64.2256 75.8355 64.2256 75.8355Z" fill="#E98C7B"/>
<path d="M110.261 122.025C115.314 121.923 120.475 127.165 120.657 131.722C120.804 135.36 118.048 142.216 111.468 142.259C104.889 142.301 101.207 138.002 100.878 133.664C100.549 129.336 104.997 122.128 110.261 122.035L110.261 122.025Z" fill="#190F0D"/>
<path d="M116.114 138.515C112.335 136.967 108.389 138.485 105.064 140.517C106.731 141.59 108.875 142.263 111.468 142.249C114.393 142.234 116.565 140.862 118.058 139.03C117.402 138.939 116.75 138.768 116.114 138.515Z" fill="#A06275"/>
<path d="M115.678 123.815C114.038 122.69 112.143 121.992 110.271 122.024C108.21 122.067 106.283 123.183 104.717 124.8C108.378 124.541 112.035 124.212 115.688 123.814L115.678 123.815Z" fill="white"/>
<path class="hair" d="M143.454 89.6873L143.884 108.143C143.884 108.143 151.052 101.463 150.555 88.6485L143.454 89.6873Z" fill="#190F0D"/>
<path d="M63.2746 116.956C63.3265 115.236 63.7326 100.047 60.9573 95.6039L58.6658 97.0315C60.6525 100.204 60.7194 112.424 60.5747 116.864L63.2746 116.946L63.2746 116.956Z" fill="#9C3D28"/>
<path d="M55.7983 105.24L62.4346 107.236L61.654 109.831L55.0177 107.835L55.7983 105.24Z" fill="#9C3D28"/>
<path class="hair" d="M66.1225 111.834C66.1225 111.834 59.117 107.347 57.0099 87.6456L64.0322 86.2383L66.1225 111.834Z" fill="#190F0D"/>
<path d="M85.7765 105.924C88.0602 105.787 89.7808 103.487 89.6195 100.785C89.4583 98.084 87.4763 96.0046 85.1926 96.1409C82.9089 96.2772 81.1883 98.5776 81.3496 101.279C81.5108 103.98 83.4928 106.06 85.7765 105.924Z" fill="#340C00"/>
<path d="M128.104 103.67C130.387 103.533 132.108 101.233 131.947 98.5315C131.785 95.8301 129.803 93.7507 127.52 93.887C125.236 94.0233 123.515 96.3237 123.677 99.0251C123.838 101.727 125.82 103.806 128.104 103.67Z" fill="#340C00"/>
<path d="M150.909 119.299C150.881 117.589 150.707 102.509 153.522 98.1317L155.78 99.5841C153.767 102.712 153.524 114.842 153.599 119.242L150.909 119.289L150.909 119.299Z" fill="#9C3D28"/>
<path d="M158.505 107.83L151.889 109.715L152.626 112.302L159.242 110.417L158.505 107.83Z" fill="#9C3D28"/>
<path d="M108.877 96.7818C109.198 103.573 109.595 107.432 113.334 115.062L104.322 114.725" stroke="#9C3D28" stroke-width="2.5"/>
<path class="hair" d="M78.0352 82.0631C79.2319 76.8977 84.7567 75.2652 95.8394 79.7495L78.0352 82.0631Z" fill="#340C00"/>
<path class="hair" d="M135.863 78.5943C133.904 73.6672 128.197 72.8829 117.913 78.9807L135.863 78.5943Z" fill="#340C00"/>
<path class="hair" d="M45.5308 56.5649C70.3854 44.2712 106.45 63.0174 106.45 63.0174C106.45 63.0174 114.545 81.0328 153.187 96.1405C161.345 99.3228 172.731 111.726 178.179 119.371C178.179 119.371 165.29 88.32 160.62 68.0266C155.919 47.7049 137.89 51.9692 137.89 51.9692C137.89 51.9692 124.684 24.1931 82.721 28.3758C61.5715 29.7284 45.5308 56.5649 45.5308 56.5649Z" fill="#190F0D"/>
</g>
<defs>
<clipPath id="clip0_209_24">
<rect width="215" height="243" fill="white"/>
</clipPath>
</defs>
</svg>
