<svg width="215" height="243" viewBox="0 0 215 243" fill="none" xmlns="http://www.w3.org/2000/svg">
<path d="M120.41 56.9074C120.41 56.9074 85.229 30.6507 61.2147 44.6113C31.1369 62.1147 67.4584 103.756 45.2452 115.826C23.032 127.895 11.8098 137.328 9.61407 160.426C1.2391 204.019 80.0959 265.326 146.765 226.507C213.435 187.687 189.721 115.062 158.412 100.621C120.74 83.2374 120.44 56.9374 120.44 56.9374L120.41 56.9074Z" fill="#190F0D"/>
<path d="M168.218 114.29C169.591 106.064 165.542 98.5339 159.174 97.4709C152.806 96.4079 146.53 102.214 145.157 110.44C143.784 118.666 147.833 126.196 154.201 127.259C160.569 128.322 166.845 122.515 168.218 114.29Z" fill="#E98C7B"/>
<path d="M53.3354 105.517C52.9682 97.1857 57.8994 90.2013 64.3493 89.9171C70.7993 89.6329 76.3256 96.1565 76.6927 104.488C77.0598 112.819 72.1287 119.804 65.6788 120.088C59.2288 120.372 53.7025 113.849 53.3354 105.517Z" fill="#E98C7B"/>
<path d="M130.137 170.571C128.451 167.493 128.847 150.255 128.847 150.255L110.979 150.001L93.1215 150.579C93.1215 150.579 93.8282 167.804 92.1961 170.92C90.5647 174.027 76.665 179.043 76.665 179.043C79.8723 195.839 100.084 206.154 112.655 205.525C127.939 204.77 145.467 192.641 147.611 178.796C147.611 178.796 131.823 173.659 130.127 170.58L130.137 170.571Z" fill="#E98C7B"/>
<path d="M128.938 161.622C128.835 159.191 128.806 156.705 128.809 154.671C126.375 155.645 120.418 157.568 111.056 157.65C99.5581 157.753 93.9867 154.97 93.2399 154.564C93.2762 156.439 93.2952 158.765 93.2643 161.087C96.029 164.722 101.828 170.524 111.17 170.44C119.801 170.364 125.73 165.284 128.937 161.632L128.938 161.622Z" fill="#9C3D28"/>
<path d="M69.8727 73.3468C69.8727 73.3468 77.8835 40.7626 114.645 42.355C151.394 44.3073 156.229 77.5117 156.229 77.5117C156.229 77.5117 156.886 114.51 144.547 138.866C137.75 152.289 124.02 162.264 108.922 161.597C93.8323 160.811 81.0714 149.556 75.5915 135.538C65.6554 110.109 69.8727 73.3468 69.8727 73.3468Z" fill="#E98C7B"/>
<path d="M112.661 135.454C110.475 135.321 109.1 134.536 109.004 134.47L110.444 132.043L109.729 133.262L110.434 132.042C110.56 132.12 113.634 133.79 117.984 131.279L119.398 133.729C116.782 135.243 114.448 135.562 112.671 135.454L112.661 135.454Z" fill="#9C3D28"/>
<path d="M148.135 91.895L147.465 110.344C147.465 110.344 155.018 104.103 155.285 91.2811L148.135 91.895Z" fill="#190F0D"/>
<path d="M66.4733 114.337C66.6275 112.623 67.9381 97.485 65.4324 92.8846L63.0599 94.1731C64.854 97.4579 64.1928 109.66 63.7838 114.084L66.4739 114.327L66.4733 114.337Z" fill="#9C3D28"/>
<path d="M59.7083 102.197L66.2139 104.585L65.28 107.129L58.7745 104.741L59.7083 102.197Z" fill="#9C3D28"/>
<path d="M69.6784 109.8C69.6784 109.8 62.9398 104.811 61.9669 84.7061L69.0605 83.7197L69.6784 109.8Z" fill="#190F0D"/>
<path d="M89.9229 102.704C92.1423 102.92 94.1353 101.103 94.3745 98.6456C94.6136 96.1883 93.0084 94.0212 90.789 93.8052C88.5697 93.5892 86.5766 95.4061 86.3375 97.8634C86.0983 100.321 87.7036 102.488 89.9229 102.704Z" fill="#340C00"/>
<path d="M131.846 102.704C134.065 102.92 136.058 101.103 136.297 98.6456C136.536 96.1883 134.931 94.0212 132.712 93.8052C130.493 93.5892 128.499 95.4061 128.26 97.8634C128.021 100.321 129.626 102.488 131.846 102.704Z" fill="#340C00"/>
<path d="M153.813 121.897C153.887 120.189 154.612 105.125 157.682 100.924L159.85 102.508C157.654 105.51 156.689 117.604 156.502 122.001L153.813 121.888L153.813 121.897Z" fill="#9C3D28"/>
<path d="M162.079 110.902L155.361 112.389L155.943 115.015L162.66 113.528L162.079 110.902Z" fill="#9C3D28"/>
<path d="M113.197 96.916C113.112 103.714 113.278 107.59 116.556 115.43L107.58 114.556" stroke="#9C3D28" stroke-width="2.5"/>
<path d="M108.763 128.838C101.097 128.372 95.7706 126.506 95.378 126.372L96.2831 123.842C96.4497 123.902 113.501 129.837 130.514 122.716L131.556 125.194C123.332 128.641 115.221 129.231 108.773 128.839L108.763 128.838Z" fill="#9C3D28"/>
<path d="M80.8106 83.2499C82.7345 78.309 88.4362 77.4844 98.7626 83.5093L80.8106 83.2499Z" fill="#340C00"/>
<path d="M140.507 87.5271C139.567 82.3087 134.13 80.4045 122.839 84.334L140.507 87.5271Z" fill="#340C00"/>
<path d="M52.3598 52.9941C77.9027 42.2032 112.786 63.065 112.786 63.065C112.786 63.065 119.794 81.5308 157.466 98.914C165.421 102.577 176.047 115.637 181.03 123.593C181.03 123.593 170.014 91.8286 166.562 71.293C163.08 50.7273 144.829 53.9097 144.829 53.9097C144.829 53.9097 133.301 25.3961 91.1636 27.071C69.971 27.1611 52.3598 52.9941 52.3598 52.9941Z" fill="#190F0D"/>
</svg>
