<svg width="215" height="243" viewBox="0 0 215 243" fill="none" xmlns="http://www.w3.org/2000/svg">
<g clip-path="url(#clip0_209_24)">
<path class="hair" d="M117.41 56.1674C117.41 56.1674 82.2295 29.7886 58.2152 43.8141C28.1373 61.3989 64.4589 103.234 42.2457 115.359C20.0325 127.485 8.8103 136.962 6.61453 160.167C-1.76045 203.963 77.0964 265.555 143.766 226.555C210.436 187.555 186.721 114.592 155.413 100.084C117.741 82.6199 117.44 56.1976 117.44 56.1976L117.41 56.1674Z" fill="#190F0D"/>
<path class="skin" d="M164.535 110.284C165.407 101.952 160.909 94.6476 154.488 93.9696C148.067 93.2916 142.155 99.4967 141.283 107.829C140.412 116.161 144.91 123.466 151.331 124.144C157.752 124.822 163.664 118.617 164.535 110.284Z" fill="#E98C7B"/>
<path class="skin" d="M49.3317 108.485C48.46 100.153 52.9585 92.8488 59.3793 92.1708C65.8001 91.4928 71.7119 97.6979 72.5836 106.03C73.4554 114.362 68.9569 121.667 62.5361 122.345C56.1152 123.023 50.2034 116.818 49.3317 108.485Z" fill="#E98C7B"/>
<path class="skin" d="M129.937 169.042C128.067 166.058 127.417 148.748 127.417 148.748L109.567 149.582L91.7771 151.25C91.7771 151.25 93.5271 168.479 92.0871 171.704C90.6471 174.919 77.0771 180.796 77.0771 180.796C81.2971 197.443 102.097 206.556 114.607 205.159C129.817 203.471 146.577 190.24 147.877 176.225C147.877 176.225 131.807 172.036 129.927 169.052L129.937 169.042Z" fill="#E98C7B"/>
<path d="M128.197 160.14C127.947 157.709 127.767 155.217 127.647 153.178C125.277 154.303 119.447 156.594 110.107 157.247C98.6376 158.05 92.9077 155.599 92.1377 155.237C92.2877 157.116 92.4476 159.447 92.5576 161.778C95.5376 165.254 101.677 170.719 110.997 170.066C119.607 169.463 125.217 164.008 128.197 160.15V160.14Z" fill="#9C3D28"/>
<path class="skin" d="M63.8874 75.2185C63.8874 75.2185 69.9074 42.0549 106.697 41.4119C143.497 41.1306 150.337 74.1334 150.337 74.1334C150.337 74.1334 153.237 111.195 142.397 136.372C136.427 150.246 123.327 161.086 108.217 161.337C93.1074 161.468 79.6874 150.959 73.3674 137.236C61.9074 112.34 63.8874 75.2185 63.8874 75.2185Z" fill="#E98C7B"/>
<path fill-rule="evenodd" clip-rule="evenodd" d="M110.694 74.5946C110.335 74.3886 109.876 74.5129 109.67 74.8723C108.544 76.8376 109.001 78.7011 110.065 80.0378C112.218 82.1483 114.157 81.0358 114.157 81.0358C114.157 81.0358 112.025 80.091 111.239 79.1035C110.49 78.1627 110.202 76.9618 110.972 75.6182C111.178 75.2589 111.053 74.8006 110.694 74.5946Z" fill="#9C3D28"/>
<path class="hair" d="M145.135 91.318L144.465 109.852C144.465 109.852 152.018 103.582 152.285 90.7012L145.135 91.318Z" fill="#190F0D"/>
<path d="M62.9805 116.529C63.0305 114.801 63.4206 99.5407 60.6406 95.0801L58.3506 96.5167C60.3406 99.7015 60.4206 111.978 60.2806 116.439L62.9805 116.519V116.529Z" fill="#9C3D28"/>
<path d="M55.4918 104.767L62.1302 106.766L61.3523 109.374L54.7139 107.375L55.4918 104.767Z" fill="#9C3D28"/>
<path class="hair" d="M65.917 107.61C65.917 107.61 59.2252 102.368 56.8379 86.3608L63.7572 84.5039L65.917 107.61Z" fill="#190F0D"/>
<path class="hair" d="M85.6026 102.156C87.8309 102.237 89.7105 100.293 89.8006 97.815C89.8907 95.3363 88.1573 93.2612 85.9289 93.1802C83.7005 93.0992 81.821 95.0429 81.7309 97.5217C81.6408 100 83.3742 102.075 85.6026 102.156Z" fill="#340C00"/>
<path class="hair" d="M127.603 102.156C129.831 102.237 131.71 100.293 131.801 97.815C131.891 95.3363 130.157 93.2612 127.929 93.1802C125.701 93.0992 123.821 95.0429 123.731 97.5217C123.641 100 125.374 102.075 127.603 102.156Z" fill="#340C00"/>
<path d="M150.617 118.79C150.587 117.072 150.397 101.922 153.207 97.5215L155.467 98.9782C153.457 102.123 153.227 114.309 153.307 118.73L150.617 118.78V118.79Z" fill="#9C3D28"/>
<path d="M158.201 107.258L151.586 109.158L152.326 111.757L158.941 109.856L158.201 107.258Z" fill="#9C3D28"/>
<path d="M108.561 96.2119C108.889 103.034 109.29 106.911 113.037 114.573L104.025 114.244" stroke="#9C3D28" stroke-width="2.5"/>
<path d="M99.8571 132.08L98.4971 129.588C98.9071 129.367 108.607 124.103 117.577 127.006L116.707 129.709C108.907 127.187 99.9471 132.029 99.8571 132.08Z" fill="#9C3D28"/>
<path d="M107.207 135.727L106.047 133.135C106.157 133.085 108.677 131.96 112.777 131.588L113.037 134.411C109.407 134.742 107.227 135.707 107.207 135.717V135.727Z" fill="#9C3D28"/>
<path class="hair" d="M77.2866 84.0983C77.009 78.7787 81.8675 75.6685 93.7579 76.9209L77.2866 84.0983Z" fill="#340C00"/>
<path class="hair" d="M133.299 83.4056C132.045 78.2298 126.502 76.6515 115.47 81.28L133.299 83.4056Z" fill="#340C00"/>
<path class="hair" d="M49.3594 52.2361C74.9023 41.395 109.786 62.3538 109.786 62.3538C109.786 62.3538 116.794 80.9055 154.466 98.3696C162.421 102.049 173.047 115.17 178.03 123.163C178.03 123.163 167.014 91.2512 163.562 70.6201C160.08 49.9588 141.829 53.156 141.829 53.156C141.829 53.156 130.301 24.5097 88.1632 26.1924C66.9706 26.2829 49.3594 52.2361 49.3594 52.2361Z" fill="#190F0D"/>
<path class="hair" d="M113.487 55.819C113.487 55.819 76.859 31.6219 53.6844 46.936C24.6592 66.1345 63.3077 105.626 41.8228 118.948C20.3379 132.271 9.67485 142.332 8.80659 165.518C2.94397 209.52 85.185 266.206 149.52 223.629C213.855 181.052 186.017 109.905 153.933 97.2823C115.326 82.0869 113.519 55.8473 113.519 55.8473L113.487 55.819Z" fill="#190F0D"/>
<path class="skin" d="M164.505 110.367C165.404 102.076 160.93 94.7906 154.512 94.0943C148.093 93.398 142.161 99.5547 141.261 107.846C140.362 116.136 144.836 123.422 151.255 124.118C157.673 124.814 163.606 118.658 164.505 110.367Z" fill="#E98C7B"/>
<path class="skin" d="M49.3075 108.193C48.4635 99.8967 52.9861 92.6413 59.4092 91.9878C65.8323 91.3344 71.7234 97.5305 72.5674 105.827C73.4115 114.124 68.8888 121.379 62.4657 122.033C56.0427 122.686 50.1515 116.49 49.3075 108.193Z" fill="#E98C7B"/>
<path class="skin" d="M129.712 168.738C127.852 165.761 127.26 148.529 127.26 148.529L109.407 149.3L91.6115 150.9C91.6115 150.9 93.3042 168.056 91.8535 171.261C90.4029 174.456 76.8135 180.261 76.8135 180.261C80.9782 196.845 101.748 205.984 114.262 204.636C129.478 203.007 146.282 189.893 147.628 175.947C147.628 175.947 131.572 171.724 129.702 168.748L129.712 168.738Z" fill="#E98C7B"/>
<path d="M128.002 159.873C127.761 157.452 127.589 154.971 127.476 152.941C125.102 154.053 119.264 156.313 109.922 156.932C98.4496 157.694 92.7278 155.235 91.959 154.872C92.1027 156.743 92.255 159.063 92.3572 161.384C95.3257 164.854 101.447 170.314 110.77 169.695C119.382 169.124 125.01 163.713 128.002 159.883L128.002 159.873Z" fill="#9C3D28"/>
<path class="skin" d="M63.9744 75.1276C63.9744 75.1276 70.1045 42.1379 106.896 41.6207C143.697 41.4634 150.427 74.3361 150.427 74.3361C150.427 74.3361 153.204 111.236 142.281 136.259C136.265 150.049 123.129 160.795 108.018 160.995C92.9077 161.075 79.5227 150.57 73.2483 136.889C61.871 112.071 63.9744 75.1276 63.9744 75.1276Z" fill="#E98C7B"/>
<path d="M110.253 134.68C108.063 134.673 106.645 133.968 106.545 133.908L107.844 131.402L107.199 132.66L107.834 131.402C107.963 131.472 111.128 132.963 115.328 130.207L116.88 132.572C114.354 134.234 112.043 134.686 110.263 134.68L110.253 134.68Z" fill="#9C3D28"/>
<path class="hair" d="M143.172 89.1595L143.559 107.616C143.559 107.616 150.743 100.953 150.274 88.1368L143.172 89.1595Z" fill="#190F0D"/>
<path d="M62.9302 116.246C62.9859 114.526 63.4266 99.3378 60.6615 94.8885L58.3667 96.3109C60.3461 99.4875 60.3853 111.708 60.2305 116.147L62.9302 116.236L62.9302 116.246Z" fill="#9C3D28"/>
<path d="M55.4806 104.513L62.1123 106.524L61.3258 109.118L54.6941 107.107L55.4806 104.513Z" fill="#9C3D28"/>
<path class="hair" d="M65.8694 111.532C65.8694 111.532 58.856 106.938 56.7323 86.9216L63.7578 85.5303L65.8694 111.532Z" fill="#190F0D"/>
<path d="M85.6748 103.287C87.9029 103.376 89.7885 101.447 89.8864 98.9805C89.9844 96.5135 88.2575 94.442 86.0294 94.3535C83.8013 94.2651 81.9157 96.1932 81.8178 98.6602C81.7199 101.127 83.4467 103.199 85.6748 103.287Z" fill="#340C00"/>
<path d="M127.528 100.884C129.756 100.972 131.642 99.0442 131.74 96.5772C131.838 94.1102 130.111 92.0386 127.883 91.9502C125.655 91.8617 123.769 93.7899 123.671 96.2569C123.573 98.7238 125.3 100.795 127.528 100.884Z" fill="#340C00"/>
<path d="M150.559 118.787C150.535 117.077 150.395 101.996 153.22 97.6259L155.475 99.0834C153.455 102.207 153.184 114.336 153.25 118.736L150.559 118.777L150.559 118.787Z" fill="#9C3D28"/>
<path d="M158.182 107.335L151.561 109.205L152.292 111.794L158.913 109.924L158.182 107.335Z" fill="#9C3D28"/>
<path d="M108.578 96.1744C108.883 102.966 109.271 106.827 112.993 114.465L103.982 114.107" stroke="#9C3D28" stroke-width="2.5"/>
<path d="M105.981 128.298C98.3013 128.273 92.8764 126.715 92.4768 126.603L93.2354 124.026C93.4052 124.076 110.769 129.024 127.346 120.94L128.528 123.353C120.515 127.267 112.451 128.32 105.991 128.298L105.981 128.298Z" fill="#9C3D28"/>
<path class="hair" d="M75.4628 84.3875C77.1004 79.3445 82.7454 78.1945 93.4002 83.6176L75.4628 84.3875Z" fill="#340C00"/>
<path class="hair" d="M135.305 85.2368C134.068 80.0808 128.531 78.4913 117.484 83.0615L135.305 85.2368Z" fill="#340C00"/>
<path class="hair" d="M45.3239 55.8115C70.2063 43.5744 106.228 62.4025 106.228 62.4025C106.228 62.4025 114.283 80.4363 152.89 95.6317C161.041 98.8325 172.398 111.262 177.829 118.919C177.829 118.919 165.01 87.8388 160.387 67.5348C155.732 47.2025 137.693 51.4258 137.693 51.4258C137.693 51.4258 124.55 23.6197 82.5781 27.707C61.4255 29.0116 45.3239 55.8115 45.3239 55.8115Z" fill="#190F0D"/>
</g>
<defs>
<clipPath id="clip0_209_24">
<rect width="215" height="243" fill="white"/>
</clipPath>
</defs>
</svg>
