<svg width="215" height="243" viewBox="0 0 215 243" fill="none" xmlns="http://www.w3.org/2000/svg">
<path class="hair" d="M117.41 56.9074C117.41 56.9074 82.229 30.6507 58.2147 44.6113C28.1369 62.1147 64.4584 103.756 42.2452 115.826C20.032 127.895 8.80985 137.328 6.61407 160.426C-1.7609 204.019 77.0959 265.326 143.765 226.507C210.435 187.687 186.721 115.062 155.412 100.621C117.74 83.2374 117.44 56.9374 117.44 56.9374L117.41 56.9074Z" fill="#190F0D"/>
<path class="skin" d="M164.535 110.773C165.407 102.479 160.909 95.2089 154.488 94.534C148.067 93.8592 142.155 100.036 141.283 108.329C140.412 116.623 144.91 123.894 151.331 124.569C157.752 125.243 163.664 119.067 164.535 110.773Z" fill="#E98C7B"/>
<path class="skin" d="M49.3308 108.983C48.4591 100.689 52.9576 93.4189 59.3784 92.744C65.7993 92.0692 71.711 98.2455 72.5828 106.539C73.4545 114.833 68.956 122.104 62.5352 122.779C56.1143 123.453 50.2025 117.277 49.3308 108.983Z" fill="#E98C7B"/>
<path class="skin" d="M129.937 169.26C128.067 166.29 127.417 149.06 127.417 149.06L109.567 149.89L91.7771 151.55C91.7771 151.55 93.5271 168.7 92.0871 171.91C90.6471 175.11 77.0771 180.96 77.0771 180.96C81.2971 197.53 102.097 206.6 114.607 205.21C129.817 203.53 146.577 190.36 147.877 176.41C147.877 176.41 131.807 172.24 129.927 169.27L129.937 169.26Z" fill="#E98C7B"/>
<path d="M128.198 160.4C127.948 157.98 127.768 155.5 127.648 153.47C125.278 154.59 119.448 156.87 110.108 157.52C98.6377 158.32 92.9077 155.88 92.1377 155.52C92.2877 157.39 92.4477 159.71 92.5577 162.03C95.5377 165.49 101.678 170.93 110.998 170.28C119.608 169.68 125.218 164.25 128.198 160.41V160.4Z" fill="#9C3D28"/>
<path class="skin" d="M63.8874 75.8696C63.8874 75.8696 69.9074 42.8596 106.697 42.2196C143.497 41.9396 150.337 74.7896 150.337 74.7896C150.337 74.7896 153.237 111.68 142.397 136.74C136.427 150.55 123.327 161.34 108.217 161.59C93.1074 161.72 79.6874 151.26 73.3674 137.6C61.9074 112.82 63.8874 75.8696 63.8874 75.8696Z" fill="#E98C7B"/>
<path fill-rule="evenodd" clip-rule="evenodd" d="M110.694 75.5938C110.335 75.3878 109.877 75.5121 109.671 75.8715C108.544 77.8368 109.001 79.7003 110.065 81.037C112.218 83.1475 114.158 82.035 114.158 82.035C114.158 82.035 112.025 81.0902 111.239 80.1027C110.49 79.1619 110.202 77.961 110.972 76.6174C111.178 76.2581 111.054 75.7998 110.694 75.5938Z" fill="#9C3D28"/>
<path class="hair" d="M145.135 91.895L144.465 110.344C144.465 110.344 152.018 104.103 152.285 91.2811L145.135 91.895Z" fill="#190F0D"/>
<path d="M62.9809 116.991C63.0309 115.271 63.4209 100.081 60.6409 95.6406L58.3509 97.0706C60.3409 100.241 60.4209 112.461 60.2809 116.901L62.9809 116.981V116.991Z" fill="#9C3D28"/>
<path d="M55.4925 105.282L62.1309 107.271L61.353 109.867L54.7146 107.878L55.4925 105.282Z" fill="#9C3D28"/>
<path class="hair" d="M65.9166 108.112C65.9166 108.112 59.2248 102.893 56.8375 86.9606L63.7568 85.1123L65.9166 108.112Z" fill="#190F0D"/>
<path d="M85.6045 102.685C87.8329 102.766 89.7121 100.832 89.8018 98.3643C89.8915 95.897 88.1577 93.8312 85.9294 93.7502C83.701 93.6692 81.8218 95.6036 81.7321 98.0709C81.6424 100.538 83.3762 102.604 85.6045 102.685Z" fill="#340C00"/>
<path d="M127.605 102.685C129.833 102.766 131.712 100.832 131.802 98.3643C131.891 95.897 130.158 93.8312 127.929 93.7502C125.701 93.6692 123.822 95.6036 123.732 98.0709C123.642 100.538 125.376 102.604 127.605 102.685Z" fill="#340C00"/>
<path d="M150.617 119.24C150.587 117.53 150.397 102.45 153.207 98.0703L155.467 99.5203C153.457 102.65 153.227 114.78 153.307 119.18L150.617 119.23V119.24Z" fill="#9C3D28"/>
<path d="M158.202 107.763L151.587 109.654L152.327 112.241L158.941 110.349L158.202 107.763Z" fill="#9C3D28"/>
<path d="M108.561 96.7679C108.889 103.558 109.29 107.418 113.037 115.044L104.025 114.716" stroke="#9C3D28" stroke-width="2.5"/>
<path d="M99.8571 132.47L98.4971 129.99C98.9071 129.77 108.607 124.53 117.577 127.42L116.707 130.11C108.907 127.6 99.9471 132.42 99.8571 132.47Z" fill="#9C3D28"/>
<path d="M107.208 136.1L106.048 133.52C106.158 133.47 108.678 132.35 112.778 131.98L113.038 134.79C109.408 135.12 107.228 136.08 107.208 136.09V136.1Z" fill="#9C3D28"/>
<path class="hair" d="M77.2868 84.7095C77.0093 79.4145 81.8677 76.3188 93.7581 77.5654L77.2868 84.7095Z" fill="#340C00"/>
<path class="hair" d="M133.299 84.0194C132.045 78.8676 126.502 77.2966 115.47 81.9036L133.299 84.0194Z" fill="#340C00"/>
<path class="hair" d="M49.3598 52.9941C74.9027 42.2032 109.786 63.065 109.786 63.065C109.786 63.065 116.794 81.5308 154.466 98.914C162.421 102.577 173.047 115.637 178.03 123.593C178.03 123.593 167.014 91.8286 163.562 71.293C160.08 50.7273 141.829 53.9097 141.829 53.9097C141.829 53.9097 130.301 25.3961 88.1636 27.071C66.971 27.1611 49.3598 52.9941 49.3598 52.9941Z" fill="#190F0D"/>
</svg>
