<svg width="130" height="210" viewBox="0 0 130 210" fill="none" xmlns="http://www.w3.org/2000/svg">
<path d="M65.4353 202.264C48.9867 202.264 35.6631 189.186 35.6631 173.042V110.858H95.2074V173.042C95.2074 189.186 81.8838 202.264 65.4353 202.264Z" class="skin" fill="#FCCBAE"/>
<path d="M112.128 43.6023C109.851 35.4286 104.487 23.8664 85.306 15.253C53.6433 1.00068 32.2907 31.2383 32.2907 31.2383C23.76 30.333 19.1284 33.5662 17.2705 41.1709C15.7005 47.6633 17.82 60.3636 18.9714 65.2265L25.2778 98.3093L31.3748 68.9512C37.3671 49.655 46.4734 41.7917 46.4734 41.7917L75.4147 39.5155L106.109 95.4899L112.075 62.3553C112.834 58.165 113.148 53.8712 112.913 49.6033C112.782 47.146 112.52 44.9991 112.128 43.5765V43.6023Z" class="hair" fill="#E94B36"/>
<path d="M104.17 107.202C113.201 113.741 128.791 84.0135 120 76.9693C111.209 69.9252 105.406 82.8339 105.406 82.8339L105.2 93.7541L103.895 104L103.38 107.168H104.17V107.202Z" class="skin" fill="#FCCBAE"/>
<path d="M116.667 86.1492C116.667 86.1492 111.408 82.9836 107.071 91.8441" stroke="#864B1D" stroke-width="2" stroke-linecap="square" stroke-linejoin="round"/>
<path d="M109.729 88.7705C109.729 88.7705 115.832 92.172 111.431 97.4063" stroke="#864B1D" stroke-width="2" stroke-linecap="square" stroke-linejoin="round"/>
<path d="M25.4299 107.203C16.3987 113.741 0.80862 84.0143 9.59948 76.9701C18.3903 69.926 23.919 82.9695 23.919 82.9695L24.4341 93.7549L25.739 104.001L26.2197 107.169H25.4299V107.203Z" class="skin" fill="#FCCBAE"/>
<path d="M11.9512 86.1505C11.9512 86.1505 18.0551 84.1325 22.3921 92.993" stroke="#864B1D" stroke-width="2" stroke-linecap="square" stroke-linejoin="round"/>
<path d="M18.5963 88.7283C18.5963 88.7283 12.7863 92.1735 17.1876 97.4078" stroke="#864B1D" stroke-width="2" stroke-linecap="square" stroke-linejoin="round"/>
<path d="M107.157 68.8477C107.157 87.2502 104.65 103.125 102.178 114.416C99.7399 125.437 92.872 135.077 83.1883 141.312L81.437 142.458C71.1696 149.03 57.9489 149.165 47.5098 142.862C37.002 136.492 29.6534 126.145 27.387 114.281C23.2663 92.744 22.8198 68.8814 22.8198 68.8814C22.8198 68.8814 18.9052 22.4032 64.3704 23.3132C109.836 24.2233 107.123 68.8814 107.123 68.8814L107.157 68.8477Z" class="skin" fill="#FCCBAE"/>
<path d="M71.2691 128.494H58.6933L61.3009 138.027L57.5579 143.464L44.7036 136.38L27.6006 110.077C32.7498 133.934 42.8555 146.034 65.337 146.661C86.1639 147.241 100.081 129.567 102.102 110.078L86.1639 136.38L72.3771 144.097L68.3646 138.027L71.2691 128.494Z" class="hair" fill="#E94B36"/>
<path d="M83.4559 112.896C80.7191 110.049 74.2169 110.089 66.1265 110.089C58.0361 110.089 52.7723 111.897 49.3564 113.895C45.8306 115.952 48.0779 125.421 66.1265 125.431C83.6257 125.441 85.9928 115.543 83.4659 112.896H83.4559Z" fill="#AE5655"/>
<path d="M66.1157 110.089C60.6522 110.089 54.4196 111.109 51.0234 112.982C52.4167 113.674 54.1 114.603 54.1 114.603L66.1157 114.234L78.7163 113.791C78.7163 113.791 79.6781 112.971 80.9404 111.335C77.5888 109.977 71.5293 110.079 66.1157 110.079V110.089Z" fill="white"/>
<path d="M65.707 121.875C60.0637 122.265 57.3369 123.184 56.1084 124.143C58.7053 124.932 61.9914 125.431 66.1165 125.431C70.3515 125.431 73.6975 124.852 76.3044 123.933C75.2356 122.575 72.4589 121.406 65.707 121.875Z" fill="#D97F7E"/>
<path d="M103.435 29.711C89.026 23.2721 73.5728 19.4316 73.5728 19.4316L49.3669 20.7871L38.9055 26.3382C38.9055 26.3382 37.4424 29.1623 37.4424 29.2141C11.3534 36.1979 22.4639 61.8794 22.4639 61.8794C33.1926 56.4217 34.2476 44.5323 36.2887 36.5138C41.025 42.6699 59.2114 53.9217 81.5847 53.482C104.481 53.0423 107.072 44.2219 107.072 44.2219C107.072 44.2219 104.455 29.3747 103.408 29.711H103.435Z" class="hair" fill="#E94B36"/>
<path d="M61.0049 86.6438V101.642C61.0049 102.148 61.1079 102.62 61.2796 103.058C62.0007 104.81 64.0267 105.619 65.8811 105.147L69.8644 104.103" stroke="#864B1D" stroke-width="2.5" stroke-linecap="square" stroke-linejoin="round"/>
<path fill-rule="evenodd" clip-rule="evenodd" d="M42.4529 80.1147C42.1382 80.6712 41.959 81.3116 41.959 81.9931C41.959 84.1338 43.727 85.8691 45.908 85.8691C48.089 85.8691 49.857 84.1338 49.857 81.9931C49.857 81.3116 49.6778 80.6712 49.3631 80.1147H42.4529Z" fill="#864B1D"/>
<path fill-rule="evenodd" clip-rule="evenodd" d="M79.4089 80.1147C79.0942 80.6712 78.915 81.3116 78.915 81.9931C78.915 84.1338 80.6831 85.8691 82.8641 85.8691C85.045 85.8691 86.8131 84.1338 86.8131 81.9931C86.8131 81.3116 86.6339 80.6712 86.3192 80.1147H79.4089Z" fill="#864B1D"/>
<path d="M57.4397 72.3892L57.9391 67.633L43.912 61.1645C41.9751 61.1645 40.0754 61.7986 38.5855 62.8767L32.4394 68.933L42.6828 67.633L57.4397 72.4209V72.3892Z" class="hair" fill="#E94B36"/>
<path d="M70.3887 74.8512L70.4244 69.8889L86.4054 66.1948C88.2654 66.1948 90.0897 66.829 91.5205 67.9071L97.4584 73.9634L87.6216 72.6633L70.4244 74.8829L70.3887 74.8512Z" class="hair" fill="#E94B36"/>
</svg>
