<svg width="130" height="210" viewBox="0 0 130 210" fill="none" xmlns="http://www.w3.org/2000/svg">
<path d="M65.7917 202.535C49.3432 202.535 36.0195 189.458 36.0195 173.314V111.129H95.5639V173.314C95.5639 189.458 82.2402 202.535 65.7917 202.535Z" class="skin" fill="#FCCBAE"/>
<path d="M110.924 44.1675C108.647 35.9938 103.283 24.4316 84.1019 15.8181C52.4392 1.56587 31.0866 31.8035 31.0866 31.8035C22.5559 30.8981 17.9243 34.1314 16.0664 41.7361C14.4964 48.2285 16.6159 60.9288 17.7673 65.7916L24.0737 98.8745L30.1707 69.5164C36.163 50.2202 45.2693 42.3569 45.2693 42.3569L74.2106 40.0806L104.905 96.0551L110.871 62.9205C111.63 58.7302 111.944 54.4364 111.709 50.1685C111.578 47.7112 111.316 45.5643 110.924 44.1416V44.1675Z" class="hair" fill="#E94B36"/>
<path d="M104.527 105.77C113.558 112.308 129.148 82.5812 120.358 75.537C111.567 68.4928 105.763 81.4015 105.763 81.4015L105.557 92.3217L104.252 102.568L103.737 105.736H104.527V105.77Z" class="skin" fill="#FCCBAE"/>
<path d="M116.952 84.907C116.952 84.907 111.693 81.7414 107.356 90.6019" stroke="#864B1D" stroke-width="2" stroke-linecap="square" stroke-linejoin="round"/>
<path d="M110.014 87.5286C110.014 87.5286 116.118 90.9301 111.716 96.1644" stroke="#864B1D" stroke-width="2" stroke-linecap="square" stroke-linejoin="round"/>
<path d="M25.7873 105.77C16.7561 112.309 1.16604 82.582 9.9569 75.5378C18.7478 68.4936 24.2764 81.5371 24.2764 81.5371L24.7915 92.3225L26.0964 102.569L26.5771 105.737H25.7873V105.77Z" class="skin" fill="#FCCBAE"/>
<path d="M13.2363 84.9086C13.2363 84.9086 19.3403 82.8906 23.6773 91.751" stroke="#864B1D" stroke-width="2" stroke-linecap="square" stroke-linejoin="round"/>
<path d="M19.8825 87.4861C19.8825 87.4861 14.0725 90.9313 18.4737 96.1656" stroke="#864B1D" stroke-width="2" stroke-linecap="square" stroke-linejoin="round"/>
<path d="M107.516 67.4153C107.516 85.8178 105.009 101.693 102.536 112.983C100.098 124.005 93.2304 133.644 83.5467 139.879L81.7954 141.025C71.528 147.598 58.3073 147.733 47.8682 141.43C37.3604 135.06 30.0118 124.713 27.7454 112.849C23.6247 91.3116 23.1782 67.449 23.1782 67.449C23.1782 67.449 19.2636 20.9709 64.7288 21.8809C110.194 22.7909 107.481 67.449 107.481 67.449L107.516 67.4153Z" class="skin" fill="#FCCBAE"/>
<path d="M102.653 29.855C88.2449 23.4161 72.7916 19.5757 72.7916 19.5757L48.5858 20.9312L38.1243 26.4822C38.1243 26.4822 36.6613 29.3064 36.6613 29.3581C10.5723 36.342 23.5229 61.3083 23.5229 61.3083C34.2516 55.8505 33.4665 44.6763 35.5076 36.6578C40.2439 42.814 58.4303 54.0658 80.8035 53.626C103.7 53.1863 106.291 44.3659 106.291 44.3659C106.291 44.3659 103.674 29.5187 102.627 29.855H102.653Z" class="hair" fill="#E94B36"/>
<path d="M61.3643 81.2834V96.2818C61.3643 96.7874 61.4673 97.2593 61.639 97.6974C62.3601 99.45 64.3861 100.259 66.2404 99.7871L70.2238 98.7423" stroke="#864B1D" stroke-width="2.5" stroke-linecap="square" stroke-linejoin="round"/>
<path d="M46.2205 84.907C48.4015 84.907 50.1695 83.1717 50.1695 81.031C50.1695 78.8904 48.4015 77.155 46.2205 77.155C44.0395 77.155 42.2715 78.8904 42.2715 81.031C42.2715 83.1717 44.0395 84.907 46.2205 84.907Z" fill="#001D6C"/>
<path d="M82.7918 84.907C84.9728 84.907 86.7408 83.1717 86.7408 81.031C86.7408 78.8904 84.9728 77.155 82.7918 77.155C80.6108 77.155 78.8428 78.8904 78.8428 81.031C78.8428 83.1717 80.6108 84.907 82.7918 84.907Z" fill="#001D6C"/>
<path d="M56.2468 72.1332L56.3841 64.5835L42.099 64.8194C40.3133 64.8194 38.562 65.4935 37.1885 66.6395L31.5225 73.077L40.9658 71.6951L56.2468 72.167V72.1332Z" class="hair" fill="#E94B36"/>
<path d="M72.9704 72.1332L72.833 64.5835L87.1182 64.8194C88.9038 64.8194 90.6551 65.4935 92.0287 66.6395L97.729 73.077L88.2857 71.6951L73.0047 72.167L72.9704 72.1332Z" class="hair" fill="#E94B36"/>
<path d="M70.2449 129.52H57.6691L60.2767 139.053L56.5337 144.489L43.6794 137.406L27.0273 108.357C30.0038 129.52 41.5951 147.984 64.0767 148.61C84.9036 149.191 101.472 127.846 103.493 108.357L85.1397 137.406L71.3529 145.123L67.3404 139.053L70.2449 129.52Z" class="hair" fill="#E94B36"/>
<path d="M50.8477 111.128C61.8234 116.884 70.0259 116.49 80.7412 111.128" stroke="#864B1D" stroke-width="2.5" stroke-linecap="square"/>
<path d="M60.4287 119.669C60.4287 119.669 66.279 121.714 70.0373 119.669" stroke="#864B1D" stroke-width="2.5" stroke-linecap="square"/>
<path d="M40.1406 108.269C51.3761 100.986 60.1283 103.298 64.8635 104.752C76.8675 100.658 85.9601 104.664 90.3294 106.607L88.8131 109.736L85.9669 116.132C85.6484 113.424 84.8821 108.809 84.8821 108.809C78.1969 106.776 70.053 106.925 64.8635 107.253C58.6472 106.999 49.7719 107.966 45.2065 110.001L43.5084 116.131L41.0475 110.296L40.1406 108.269Z" class="hair" fill="#E94B36"/>
</svg>
