<svg width="130" height="210" viewBox="0 0 130 210" fill="none" xmlns="http://www.w3.org/2000/svg">
<path d="M65.4343 202.024C48.9858 202.024 35.6621 188.947 35.6621 172.802V110.618H95.2065V172.802C95.2065 188.947 81.8828 202.024 65.4343 202.024Z" class="skin" fill="#FCCBAE"/>
<path d="M116.936 46.7387C114.502 38.0019 108.768 25.6431 88.2662 16.4363C54.4221 1.20209 33.2812 25.6294 33.2812 25.6294C24.1629 24.6617 17.5293 36.0112 15.5434 44.1398C13.8651 51.0795 16.1307 64.6548 17.3614 69.8527L24.1023 105.215L30.6194 73.834C37.0246 53.2084 46.7582 44.8034 46.7582 44.8034L77.6934 42.3703L110.503 102.201L116.88 66.7837C117.691 62.3047 118.027 57.7151 117.775 53.1531C117.635 50.5266 117.355 48.2318 116.936 46.7111V46.7387Z" class="hair" fill="#E94B36"/>
<path d="M104.17 105.258C113.201 111.797 128.791 82.0697 120 75.0255C111.209 67.9813 105.406 80.89 105.406 80.89L105.2 91.8102L103.895 102.056L103.38 105.225H104.17V105.258Z" class="skin" fill="#FCCBAE"/>
<path d="M118.118 83.8343C118.118 83.8343 112.497 80.4506 107.861 89.9215" stroke="#864B1D" stroke-width="2" stroke-linecap="square" stroke-linejoin="round"/>
<path d="M110.701 86.6365C110.701 86.6365 117.226 90.2724 112.521 95.8673" stroke="#864B1D" stroke-width="2" stroke-linecap="square" stroke-linejoin="round"/>
<path d="M25.4299 105.259C16.3987 111.798 0.80862 82.0705 9.59948 75.0263C18.3903 67.9821 23.919 81.0256 23.919 81.0256L24.4341 91.811L25.739 102.057L26.2197 105.225H25.4299V105.259Z" class="skin" fill="#FCCBAE"/>
<path d="M12.2754 84.0328C12.2754 84.0328 18.7999 81.8757 23.4357 91.3466" stroke="#864B1D" stroke-width="2" stroke-linecap="square" stroke-linejoin="round"/>
<path d="M19.3792 86.7878C19.3792 86.7878 13.1689 90.4704 17.8734 96.0654" stroke="#864B1D" stroke-width="2" stroke-linecap="square" stroke-linejoin="round"/>
<path d="M107.157 66.9038C107.157 85.3064 104.65 101.181 102.178 112.472C99.7399 123.493 92.872 133.133 83.1883 139.368L81.437 140.514C71.1696 147.086 57.949 147.221 47.5098 140.918C37.002 134.548 29.6534 124.201 27.387 112.337C23.2663 90.8002 22.8198 66.9376 22.8198 66.9376C22.8198 66.9376 18.9052 20.4594 64.3704 21.3694C109.836 22.2794 107.123 66.9376 107.123 66.9376L107.157 66.9038Z" class="skin" fill="#FCCBAE"/>
<path d="M65.016 107.915C70.4075 108.129 78.2159 110.27 78.2159 119.73C78.1412 123.616 72.0303 129.93 65.016 129.556C58.0017 129.182 51.229 124.374 51.1543 119.73C51.1545 109.909 59.4003 107.691 65.016 107.926V107.915Z" fill="#AE5655"/>
<path d="M70.2734 125.872C67.9377 125.293 61.4929 125.522 57.8203 127.476C59.5285 128.725 62.3194 129.406 65.0846 129.555C67.8497 129.705 70.6941 128.836 73.3783 126.907C71.4869 126.256 70.9322 126.066 70.2734 125.872Z" fill="#D97F7E"/>
<path d="M73.3357 110.178C71.6595 108.876 68.8187 108.016 64.2575 107.841C59.11 108.078 57.2913 108.987 55.3477 110.462C59.2658 110.42 66.8357 110.37 70.7539 110.178H73.3357Z" fill="white"/>
<path d="M105.174 29.5481C89.7728 22.6656 73.2549 18.5605 73.2549 18.5605L47.3814 20.0094L36.1992 25.9429C36.1992 25.9429 34.6353 28.9616 34.6353 29.0169C6.74895 36.4819 18.6249 63.9328 18.6249 63.9328C30.0927 58.099 31.2205 45.3905 33.4021 36.8195C38.4648 43.3998 57.9041 55.4268 81.8187 54.9568C106.293 54.4868 109.062 45.0587 109.062 45.0587C109.062 45.0587 106.265 29.1886 105.146 29.5481H105.174Z" class="hair" fill="#E94B36"/>
<path d="M61.0078 82.0386V97.037C61.0078 97.5425 61.1108 98.0144 61.2825 98.4526C62.0036 100.205 64.0297 101.014 65.884 100.542L69.8673 99.4974" stroke="#864B1D" stroke-width="2.5" stroke-linecap="square" stroke-linejoin="round"/>
<path d="M46.1355 84.3953C48.3165 84.3953 50.0846 82.2142 50.0846 79.5237C50.0846 76.8332 48.3165 74.6521 46.1355 74.6521C43.9546 74.6521 42.1865 76.8332 42.1865 79.5237C42.1865 82.2142 43.9546 84.3953 46.1355 84.3953Z" fill="#001D6C"/>
<path d="M82.4344 84.3953C84.6153 84.3953 86.3834 82.2142 86.3834 79.5237C86.3834 76.8332 84.6153 74.6521 82.4344 74.6521C80.2534 74.6521 78.4854 76.8332 78.4854 79.5237C78.4854 82.2142 80.2534 84.3953 82.4344 84.3953Z" fill="#001D6C"/>
<path d="M56.2246 66.7002L55.4341 61.1008L41.2785 63.0348C39.5055 63.2473 37.8469 64.125 36.6194 65.4262L31.7597 72.4922L40.9714 69.9965L56.2286 66.7336L56.2246 66.7002Z" class="hair" fill="#E94B36"/>
<path d="M72.3633 66.6841L73.1736 60.8898L87.2927 63.0739C89.0617 63.3177 90.7045 64.2245 91.9088 65.5473L96.6768 72.7028L87.5106 70.0446L72.3927 66.7222L72.3633 66.6841Z" class="hair" fill="#E94B36"/>
<path d="M71.8067 131.797H58.3645L61.1518 141.987L57.1509 147.798L45.2327 138.144L26.9513 110.029C32.4553 135.53 41.1831 151.533 65.2135 152.203C87.4753 152.824 100.486 130.862 102.645 110.03L85.6094 138.144L72.9911 148.475L68.7021 141.987L71.8067 131.797Z" class="hair" fill="#E94B36"/>
<path d="M38.6074 109.244C50.6169 101.459 59.9722 103.931 65.0335 105.484C77.8646 101.109 87.5836 105.391 92.2539 107.467L90.6332 110.812L87.5909 117.648C87.2504 114.754 86.4314 109.821 86.4314 109.821C79.2856 107.648 70.5806 107.807 65.0335 108.158C58.389 107.887 48.9023 108.92 44.0223 111.096L42.2073 117.648L39.5768 111.411L38.6074 109.244Z" class="hair" fill="#E94B36"/>
</svg>
