<svg width="130" height="210" viewBox="0 0 130 210" fill="none" xmlns="http://www.w3.org/2000/svg">
<path d="M65.4353 201.964C48.9867 201.964 35.6631 188.887 35.6631 172.743V110.558H95.2074V172.743C95.2074 188.887 81.8838 201.964 65.4353 201.964Z" class="skin" fill="#FCCBAE"/>
<path d="M114.381 47.6568C111.948 38.9199 106.214 26.5612 85.7115 17.3543C51.8674 2.12012 32.0244 27.1315 32.0244 27.1315C22.9061 26.1638 14.9746 36.9293 12.9887 45.0578C11.3105 51.9976 13.5761 65.5728 14.8067 70.7707L21.5476 106.133L28.0647 74.752C34.4699 54.1265 44.2035 45.7214 44.2035 45.7214L75.1387 43.2884L107.948 103.119L114.325 67.7018C115.136 63.2227 115.472 58.6331 115.22 54.0712C115.08 51.4446 114.801 49.1498 114.381 47.6291V47.6568Z" class="hair" fill="#E94B36"/>
<path d="M104.171 105.199C113.202 111.737 128.792 82.0101 120.001 74.9659C111.21 67.9217 105.407 80.8305 105.407 80.8305L105.201 91.7506L103.896 101.997L103.381 105.165H104.171V105.199Z" class="skin" fill="#FCCBAE"/>
<path d="M117.032 83.9712C117.032 83.9712 111.41 80.5876 106.774 90.0585" stroke="#864B1D" stroke-width="2" stroke-linecap="square" stroke-linejoin="round"/>
<path d="M109.614 86.7732C109.614 86.7732 116.139 90.4091 111.434 96.004" stroke="#864B1D" stroke-width="2" stroke-linecap="square" stroke-linejoin="round"/>
<path d="M25.4299 105.199C16.3987 111.738 0.80862 82.0109 9.59948 74.9667C18.3903 67.9225 23.919 80.9661 23.919 80.9661L24.4341 91.7514L25.739 101.998L26.2197 105.166H25.4299V105.199Z" class="skin" fill="#FCCBAE"/>
<path d="M11.5049 83.973C11.5049 83.973 18.0294 81.8159 22.6652 91.2868" stroke="#864B1D" stroke-width="2" stroke-linecap="square" stroke-linejoin="round"/>
<path d="M18.6077 86.728C18.6077 86.728 12.3974 90.4106 17.1019 96.0055" stroke="#864B1D" stroke-width="2" stroke-linecap="square" stroke-linejoin="round"/>
<path d="M107.158 66.8443C107.158 85.2468 104.651 101.121 102.179 112.412C99.7409 123.434 92.873 133.073 83.1893 139.308L81.438 140.454C71.1706 147.027 57.9499 147.162 47.5108 140.859C37.003 134.489 29.6543 124.142 27.3879 112.278C23.2672 90.7406 22.8208 66.878 22.8208 66.878C22.8208 66.878 18.9061 20.3998 64.3714 21.3098C109.837 22.2198 107.124 66.878 107.124 66.878L107.158 66.8443Z" class="skin" fill="#FCCBAE"/>
<path d="M104.402 29.6276C89.0013 22.7452 72.4834 18.6401 72.4834 18.6401L46.6099 20.089L35.4277 26.0225C35.4277 26.0225 33.8639 29.0412 33.8639 29.0965C5.97746 36.5615 17.8534 64.0124 17.8534 64.0124C29.3212 58.1786 30.449 45.4701 32.6306 36.8991C37.6933 43.4794 57.1326 55.5064 81.0472 55.0364C105.521 54.5664 108.29 45.1383 108.29 45.1383C108.29 45.1383 105.493 29.2682 104.374 29.6276H104.402Z" class="hair" fill="#E94B36"/>
<path d="M62.3493 82.5325L64.2931 84.9634L61.8623 87.5967L61.0068 96.5971C61.0068 97.0502 61.1098 97.4731 61.2815 97.8658C62.0027 99.4366 64.0287 100.162 65.883 99.7387L69.8664 98.8023" stroke="#864B1D" stroke-width="2.5" stroke-linecap="square" stroke-linejoin="round"/>
<path d="M45.8621 82.1786C48.0431 82.1786 49.8111 82.8257 49.8111 80.6851C49.8111 78.5444 48.0431 76.8091 45.8621 76.8091C43.6811 76.8091 41.9131 78.5444 41.9131 80.6851C41.9131 82.8257 43.6811 82.1786 45.8621 82.1786Z" fill="#001D6C"/>
<path d="M82.1619 82.1786C84.3429 82.1786 86.1109 82.8257 86.1109 80.6851C86.1109 78.5444 84.3429 76.8091 82.1619 76.8091C79.9809 76.8091 78.2129 78.5444 78.2129 80.6851C78.2129 82.8257 79.9809 82.1786 82.1619 82.1786Z" fill="#001D6C"/>
<path d="M45.6191 107.982L85.6013 105.519C85.6013 105.519 83.274 123.804 65.237 124.309C47.2 124.814 45.5864 107.983 45.5864 107.983L45.6191 107.982Z" fill="#AE5655"/>
<path d="M54.3281 122.28C57.1059 123.528 60.9299 124.663 65.7323 124.529C70.5347 124.394 74.2252 122.689 76.8484 121.013C75.5684 119.546 71.1135 118.648 63.5626 119.423C57.0094 120.101 55.2661 121.206 54.3281 122.28Z" fill="#D97F7E"/>
<path d="M55.8893 71.5624L56.0267 64.0127L41.7416 64.2486C39.9559 64.2486 38.2046 64.9227 36.831 66.0687L31.165 72.5062L40.6083 71.1243L55.8893 71.5962V71.5624Z" class="hair" fill="#E94B36"/>
<path d="M72.612 71.5624L72.4746 64.0127L86.7598 64.2486C88.5454 64.2486 90.2967 64.9227 91.6703 66.0687L97.3706 72.5062L87.9273 71.1243L72.6463 71.5962L72.612 71.5624Z" class="hair" fill="#E94B36"/>
<path d="M70.7064 128.436H57.2642L60.0515 138.625L56.0506 144.436L43.7562 135.994L25.6855 104.263C28.9809 128.436 40.0828 148.172 64.1132 148.842C86.375 149.462 100.8 125.966 102.96 105.135L86.6274 136.865L71.8908 145.113L67.6018 138.625L70.7064 128.436Z" class="hair" fill="#E94B36"/>
<path d="M36.3369 80.2212L38.2636 81.1103L36.3369 82.4442" stroke="#864B1D" stroke-linecap="square"/>
<path d="M91.6885 80.2212L89.7617 81.1103L91.6885 82.4442" stroke="#864B1D" stroke-linecap="square"/>
<path d="M83.3341 105.959L83.4667 105.579C66.4063 106.591 55.2006 106.904 47.6051 107.651C47.785 107.94 49.1048 109.762 49.2707 110.059C49.7364 110.839 50.9686 111.376 52.4308 111.433C58.5237 111.688 65.4182 111.707 78.8974 110.333C80.4681 110.175 83.0299 106.858 83.3341 105.959Z" fill="white"/>
<path d="M38.2627 107.376C50.2722 99.5914 59.6274 102.063 64.6888 103.617C77.5198 99.2411 87.2389 103.523 91.9092 105.599L90.2884 108.944L87.2461 115.78C86.9057 112.887 86.0867 107.953 86.0867 107.953C78.9408 105.78 70.2359 105.939 64.6888 106.29C58.0443 106.019 48.5576 107.052 43.6775 109.228L41.8625 115.78L39.2321 109.543L38.2627 107.376Z" class="hair" fill="#E94B36"/>
</svg>
