<svg width="130" height="210" viewBox="0 0 130 210" fill="none" xmlns="http://www.w3.org/2000/svg">
<path d="M65.5905 202.341C49.142 202.341 35.8184 189.264 35.8184 173.119V110.935H95.3627V173.119C95.3627 189.264 82.0391 202.341 65.5905 202.341Z" class="skin" fill="#FCCBAE"/>
<path d="M111.626 42.6675C109.349 34.4938 103.985 22.9316 84.8041 14.3181C53.1414 0.0658704 31.7887 30.3035 31.7887 30.3035C23.2581 29.3981 18.6264 32.6314 16.7686 40.2361C15.1985 46.7285 17.3181 59.4288 18.4694 64.2916L24.7758 97.3745L30.8728 68.0164C36.8652 48.7202 45.9715 40.8569 45.9715 40.8569L74.9127 38.5806L105.607 94.5551L111.573 61.4205C112.332 57.2302 112.646 52.9364 112.411 48.6685C112.28 46.2112 112.018 44.0643 111.626 42.6416V42.6675Z" class="hair" fill="#E94B36"/>
<path d="M104.326 105.575C113.357 112.114 128.947 82.3866 120.156 75.3424C111.366 68.2982 105.562 81.2069 105.562 81.2069L105.356 92.1271L104.051 102.373L103.536 105.541H104.326V105.575Z" class="skin" fill="#FCCBAE"/>
<path d="M117.014 84.7129C117.014 84.7129 111.755 81.5473 107.418 90.4078" stroke="#864B1D" stroke-width="2" stroke-linecap="square" stroke-linejoin="round"/>
<path d="M110.075 87.3345C110.075 87.3345 116.179 90.736 111.778 95.9703" stroke="#864B1D" stroke-width="2" stroke-linecap="square" stroke-linejoin="round"/>
<path d="M25.5862 105.576C16.5549 112.114 0.96487 82.3871 9.75573 75.3429C18.5466 68.2988 24.0752 81.3423 24.0752 81.3423L24.5903 92.1277L25.8952 102.374L26.376 105.542H25.5862V105.576Z" class="skin" fill="#FCCBAE"/>
<path d="M12.2959 84.714C12.2959 84.714 18.3998 82.696 22.7368 91.5564" stroke="#864B1D" stroke-width="2" stroke-linecap="square" stroke-linejoin="round"/>
<path d="M18.942 87.2915C18.942 87.2915 13.132 90.7368 17.5333 95.971" stroke="#864B1D" stroke-width="2" stroke-linecap="square" stroke-linejoin="round"/>
<path d="M107.313 67.2207C107.313 85.6233 104.807 101.498 102.334 112.789C99.8961 123.81 93.0283 133.45 83.3446 139.685L81.5933 140.831C71.3258 147.403 58.1052 147.538 47.6661 141.235C37.1582 134.865 29.8096 124.518 27.5432 112.654C23.4225 91.117 22.9761 67.2544 22.9761 67.2544C22.9761 67.2544 19.0614 20.7763 64.5266 21.6863C109.992 22.5963 107.279 67.2544 107.279 67.2544L107.313 67.2207Z" class="skin" fill="#FCCBAE"/>
<path d="M60.3734 119.476L60.0938 116.669C60.3035 116.649 65.2077 116.17 68.6037 116.669L68.1841 119.456C65.1377 118.997 60.4234 119.456 60.3734 119.456V119.476Z" fill="#864B1D"/>
<path d="M76.5863 116.443C76.5863 116.443 72.1898 112.977 65.1554 112.977H65.1383C58.3601 112.977 53.4172 116.095 53.366 116.121L52.1025 113.969C52.3245 113.826 57.643 110.45 65.1383 110.45H65.1554C73.0605 110.45 77.8668 114.281 78.0717 114.442L76.5948 116.434L76.5863 116.443Z" fill="#864B1D"/>
<path d="M101.288 30.1111C86.8797 23.6722 71.4264 19.8318 71.4264 19.8318L47.2206 21.1873L36.7591 26.7383C36.7591 26.7383 35.2961 29.5625 35.2961 29.6142C9.20708 36.5981 22.1576 61.5644 22.1576 61.5644C32.8863 56.1066 32.1013 44.9324 34.1424 36.9139C38.8787 43.0701 57.0651 54.3219 79.4383 53.8821C102.335 53.4424 104.925 44.622 104.925 44.622C104.925 44.622 102.309 29.7748 101.262 30.1111H101.288Z" class="hair" fill="#E94B36"/>
<path d="M61.1611 85.0166V100.015C61.1611 100.521 61.2641 100.992 61.4358 101.431C62.157 103.183 64.183 103.992 66.0373 103.52L70.0207 102.475" stroke="#864B1D" stroke-width="2.5" stroke-linecap="square" stroke-linejoin="round"/>
<path d="M46.0174 84.7122C48.1984 84.7122 49.9664 82.9768 49.9664 80.8362C49.9664 78.6955 48.1984 76.9602 46.0174 76.9602C43.8364 76.9602 42.0684 78.6955 42.0684 80.8362C42.0684 82.9768 43.8364 84.7122 46.0174 84.7122Z" fill="#001D6C"/>
<path d="M82.5896 84.7122C84.7706 84.7122 86.5387 82.9768 86.5387 80.8362C86.5387 78.6955 84.7706 76.9602 82.5896 76.9602C80.4087 76.9602 78.6406 78.6955 78.6406 80.8362C78.6406 82.9768 80.4087 84.7122 82.5896 84.7122Z" fill="#001D6C"/>
<path d="M58.0822 67.7401L57.6767 63.2957L42.2656 64.9248C40.3367 65.1008 38.5025 65.905 37.1167 67.114L31.5464 73.7038L41.6293 71.4783L58.0851 67.7717L58.0822 67.7401Z" class="hair" fill="#E94B36"/>
<path d="M71.0473 68.1859L71.5706 63.2511L86.3572 64.9346C88.2082 65.1174 89.9614 65.9278 91.2793 67.1413L96.5931 73.7519L86.9317 71.4913L71.0798 68.2209L71.0473 68.1859Z" class="hair" fill="#E94B36"/>
<path d="M70.7662 128.866H58.1903L60.798 138.399L57.055 143.836L44.2007 136.752L27.0977 110.449C32.2468 134.307 42.1164 147.33 64.5979 147.957C85.4249 148.538 99.5784 129.939 101.599 110.45L85.661 136.752L71.8742 144.469L67.8616 138.399L70.7662 128.866Z" class="hair" fill="#E94B36"/>
<path d="M39.8613 110.096C51.0968 102.814 59.849 105.125 64.5842 106.579C76.5882 102.486 85.6808 106.491 90.0501 108.434L88.5338 111.563L85.6876 117.959C85.3691 115.252 84.6028 110.637 84.6028 110.637C77.9176 108.603 69.7737 108.752 64.5842 109.08C58.3679 108.826 49.4926 109.793 44.9272 111.829L43.2291 117.959L40.7682 112.124L39.8613 110.096Z" class="hair" fill="#E94B36"/>
</svg>
