<svg width="130" height="210" viewBox="0 0 130 210" fill="none" xmlns="http://www.w3.org/2000/svg">
<path d="M65.4343 202.269C48.9858 202.269 35.6621 189.176 35.6621 173.012V110.754H95.2065V173.012C95.2065 189.176 81.8828 202.269 65.4343 202.269Z" class="skin" fill="#FCCBAE"/>
<path d="M111.469 42.4057C109.193 34.2223 103.829 22.6463 84.6478 14.0226C52.9851 -0.246584 31.6324 30.027 31.6324 30.027C23.1018 29.1206 18.4702 32.3577 16.6123 39.9714C15.0423 46.4715 17.1618 59.1869 18.3132 64.0556L24.6196 97.1778L30.7166 67.7847C36.7089 48.4656 45.8152 40.5929 45.8152 40.5929L74.7565 38.314L105.451 94.355L111.417 61.181C112.176 56.9857 112.49 52.6868 112.255 48.4138C112.124 45.9536 111.862 43.8041 111.469 42.3798V42.4057Z" class="hair" fill="#E94B36"/>
<path d="M104.17 105.388C113.201 111.934 128.791 82.1719 120 75.1193C111.209 68.0667 105.406 80.9908 105.406 80.9908L105.2 91.924L103.895 102.182L103.38 105.354H104.17V105.388Z" class="skin" fill="#FCCBAE"/>
<path d="M116.858 84.5009C116.858 84.5009 111.599 81.3316 107.262 90.2025" stroke="#864B1D" stroke-width="2" stroke-linecap="square" stroke-linejoin="round"/>
<path d="M109.919 87.1255C109.919 87.1255 116.023 90.5311 111.622 95.7716" stroke="#864B1D" stroke-width="2" stroke-linecap="square" stroke-linejoin="round"/>
<path d="M25.4299 105.389C16.3987 111.935 0.80862 82.1726 9.59948 75.1201C18.3903 68.0675 23.919 81.1266 23.919 81.1266L24.4341 91.9248L25.739 102.183L26.2197 105.355H25.4299V105.389Z" class="skin" fill="#FCCBAE"/>
<path d="M12.1396 84.5023C12.1396 84.5023 18.2436 82.4819 22.5806 91.3529" stroke="#864B1D" stroke-width="2" stroke-linecap="square" stroke-linejoin="round"/>
<path d="M18.7858 87.083C18.7858 87.083 12.9758 90.5324 17.377 95.7729" stroke="#864B1D" stroke-width="2" stroke-linecap="square" stroke-linejoin="round"/>
<path d="M107.157 66.988C107.157 85.4124 104.65 101.306 102.178 112.61C99.7399 123.645 92.872 133.296 83.1883 139.538L81.437 140.686C71.1696 147.266 57.9489 147.401 47.5098 141.091C37.002 134.713 29.6534 124.353 27.387 112.475C23.2663 90.9127 22.8198 67.0218 22.8198 67.0218C22.8198 67.0218 18.9052 20.4883 64.3704 21.3994C109.836 22.3105 107.123 67.0218 107.123 67.0218L107.157 66.988Z" class="skin" fill="#FCCBAE"/>
<path d="M60.2172 119.306L59.9375 116.496C60.1473 116.476 65.0514 115.996 68.4474 116.496L68.0279 119.286C64.9815 118.826 60.2671 119.286 60.2172 119.286V119.306Z" fill="#864B1D"/>
<path d="M46.5644 112.803L83.9768 110.756C83.9768 110.756 81.7022 124.386 64.8278 124.858C47.9533 125.331 46.5338 112.804 46.5338 112.804L46.5644 112.803Z" fill="#AE5655"/>
<path d="M54.7752 123.173C57.374 124.342 60.9515 125.405 65.4444 125.279C69.9373 125.153 73.3899 123.556 75.844 121.986C74.6466 120.612 70.4788 119.771 63.4146 120.497C57.2837 121.132 55.6528 122.167 54.7752 123.173Z" fill="#D97F7E"/>
<path d="M81.8564 111.166L81.9805 110.811C66.0197 111.758 55.5363 112.052 48.4303 112.752C48.5986 113.022 49.8334 114.729 49.9886 115.007C50.4243 115.737 51.577 116.241 52.945 116.294C58.6452 116.533 65.0953 116.551 77.7057 115.264C79.1752 115.115 81.5718 112.008 81.8564 111.166Z" fill="white"/>
<path d="M101.132 29.8343C86.7234 23.3877 71.2702 19.5427 71.2702 19.5427L47.0643 20.8998L36.6029 26.4575C36.6029 26.4575 35.1398 29.285 35.1398 29.3368C9.05083 36.3289 22.0014 61.325 22.0014 61.325C32.7301 55.8607 31.945 44.6732 33.9861 36.6452C38.7224 42.8086 56.9088 54.0738 79.2821 53.6336C102.179 53.1933 104.769 44.3625 104.769 44.3625C104.769 44.3625 102.152 29.4976 101.106 29.8343H101.132Z" class="hair" fill="#E94B36"/>
<path d="M61.0049 84.8052V99.8214C61.0049 100.328 61.1079 100.8 61.2796 101.239C62.0007 102.993 64.0267 103.803 65.8811 103.331L69.8644 102.285" stroke="#864B1D" stroke-width="2.5" stroke-linecap="square" stroke-linejoin="round"/>
<path d="M45.8611 84.5005C48.0421 84.5005 49.8101 82.763 49.8101 80.6199C49.8101 78.4767 48.0421 76.7393 45.8611 76.7393C43.6802 76.7393 41.9121 78.4767 41.9121 80.6199C41.9121 82.763 43.6802 84.5005 45.8611 84.5005Z" fill="#001D6C"/>
<path d="M82.4334 84.5005C84.6144 84.5005 86.3824 82.763 86.3824 80.6199C86.3824 78.4767 84.6144 76.7393 82.4334 76.7393C80.2524 76.7393 78.4844 78.4767 78.4844 80.6199C78.4844 82.763 80.2524 84.5005 82.4334 84.5005Z" fill="#001D6C"/>
<path d="M57.926 67.5081L57.5204 63.0584L42.1093 64.6895C40.1804 64.8657 38.3462 65.6708 36.9604 66.8813L31.3902 73.4789L41.473 71.2507L57.9289 67.5398L57.926 67.5081Z" class="hair" fill="#E94B36"/>
<path d="M70.8911 67.9544L71.4144 63.0138L86.2009 64.6993C88.052 64.8823 89.8051 65.6937 91.123 66.9086L96.4368 73.5271L86.7754 71.2638L70.9236 67.9896L70.8911 67.9544Z" class="hair" fill="#E94B36"/>
<path d="M70.6099 128.856H58.0341L60.6418 138.4L56.8987 143.843L44.0444 136.751L26.9414 110.417C32.0906 134.303 41.9601 147.342 64.4417 147.969C85.2686 148.551 99.4221 129.93 101.443 110.418L85.5048 136.751L71.718 144.477L67.7054 138.4L70.6099 128.856Z" class="hair" fill="#E94B36"/>
<path d="M40.166 109.524C51.4014 102.232 60.1537 104.547 64.8888 106.002C76.8929 101.904 85.9855 105.915 90.3548 107.86L88.8385 110.992L85.9923 117.396C85.6738 114.685 84.9075 110.065 84.9075 110.065C78.2223 108.029 70.0784 108.178 64.8888 108.506C58.6726 108.252 49.7973 109.22 45.2318 111.258L43.5338 117.396L41.0729 111.553L40.166 109.524Z" class="hair" fill="#E94B36"/>
</svg>
