<svg width="130" height="210" viewBox="0 0 130 210" fill="none" xmlns="http://www.w3.org/2000/svg">
<path d="M65.0527 202C48.5846 202 35.2451 188.908 35.2451 172.744V110.486H94.8603V172.744C94.8603 188.908 81.5208 202 65.0527 202Z" class="skin"  fill="#F3A396"/>
<path d="M35.2451 130.26C35.2451 130.26 51.6444 160.191 70.3816 158.706C99.3641 156.445 94.5509 121.183 94.5509 121.183C94.5509 121.183 83.3085 144.702 65.534 144.702C45.6967 144.702 35.2451 130.226 35.2451 130.226V130.26Z" fill="#D26665"/>
<path d="M20.5648 88.8886L17.6081 59.2949C13.792 40.3643 28.8161 30.376 41.9837 30.376H87.5373C101.496 30.376 118.101 40.2968 111.019 61.6232L106.962 93.8828L20.5992 88.8886H20.5648Z" class="hair"  fill="#1A1A1A"/>
<path d="M103.834 105.119C112.876 111.665 128.484 81.9028 119.683 74.8503C110.882 67.7977 105.071 80.7218 105.071 80.7218L104.865 91.6549L103.559 101.913L103.043 105.085H103.834V105.119Z" class="skin"  fill="#F3A396"/>
<path d="M118.295 83.4806C118.295 83.4806 111.762 81.3209 107.121 90.8031" stroke="#D26665" stroke-width="2.13779" stroke-linecap="square" stroke-linejoin="round"/>
<path d="M110.818 86.4922C110.818 86.4922 117.4 89.9258 112.69 95.5273" stroke="#D26665" stroke-width="2.13779" stroke-linecap="square" stroke-linejoin="round"/>
<path d="M24.9987 105.12C15.9567 111.666 0.348134 81.9036 9.14945 74.851C17.9508 67.7985 23.486 80.8575 23.486 80.8575L24.0017 91.6557L25.3081 101.914L25.7894 105.086H24.9987V105.12Z" class="skin"  fill="#F3A396"/>
<path d="M11.2607 84.0719C11.2607 84.0719 17.793 81.9122 22.4343 91.3944" stroke="#D26665" stroke-width="2.13779" stroke-linecap="square" stroke-linejoin="round"/>
<path d="M18.3733 86.8306C18.3733 86.8306 12.1556 90.5176 16.8657 96.1191" stroke="#D26665" stroke-width="2.13779" stroke-linecap="square" stroke-linejoin="round"/>
<path d="M106.824 66.7195C106.824 85.1439 104.314 101.037 101.839 112.342C99.3978 123.376 92.5218 133.027 82.8266 139.27L81.0732 140.417C70.7936 146.997 57.5572 147.132 47.1057 140.822C36.5853 134.444 29.228 124.085 26.9589 112.207C22.8333 90.6442 22.3863 66.7532 22.3863 66.7532C22.3863 66.7532 18.467 20.2198 63.9863 21.1309C109.506 22.042 106.79 66.7532 106.79 66.7532L106.824 66.7195Z" class="skin"  fill="#F3A396"/>
<path d="M107.408 14.01C92.9342 3.95418 64.3643 11.0067 48.7901 17.9918C49.0996 13.4363 46.246 13.9425 46.246 13.9425C18.8451 21.1638 26.0305 42.3552 26.0305 42.3552C26.0305 42.3552 26.1337 42.4227 26.3056 42.4902C23.452 48.5979 19.7389 61.5895 23.2457 85.1093C23.2457 85.1093 30.4999 59.6661 30.7062 44.4811C42.8768 49.7452 76.1911 62.5343 97.9193 55.3805C100.051 68.3384 105.758 85.1093 105.758 85.1093C108.027 69.8569 107.064 58.9912 105.552 51.6349C106.893 50.7238 108.165 49.6777 109.299 48.4967C109.299 48.4967 127.933 28.2501 107.408 14.01Z" class="hair"  fill="#1A1A1A"/>
<path d="M60.6191 84.5366V99.5528C60.6191 100.059 60.7223 100.531 60.8942 100.97C61.6162 102.725 63.6446 103.535 65.5011 103.062L69.4892 102.016" stroke="#D26665" stroke-width="2.67224" stroke-linecap="square" stroke-linejoin="round"/>
<path d="M45.4576 84.2314C47.6412 84.2314 49.4113 82.494 49.4113 80.3508C49.4113 78.2076 47.6412 76.4702 45.4576 76.4702C43.2741 76.4702 41.5039 78.2076 41.5039 80.3508C41.5039 82.494 43.2741 84.2314 45.4576 84.2314Z" class="hair"  fill="#1A1A1A"/>
<path d="M82.0719 84.2314C84.2554 84.2314 86.0256 82.494 86.0256 80.3508C86.0256 78.2076 84.2554 76.4702 82.0719 76.4702C79.8883 76.4702 78.1182 78.2076 78.1182 80.3508C78.1182 82.494 79.8883 84.2314 82.0719 84.2314Z" class="hair"  fill="#1A1A1A"/>
<path d="M44.3058 109.468L84.3432 107.278C84.3432 107.278 81.9086 121.847 63.8502 122.353C45.7917 122.858 44.2731 109.469 44.2731 109.469L44.3058 109.468Z" fill="#AE5655"/>
<path d="M53.0928 120.553C55.874 121.802 59.7025 122.938 64.5106 122.803C69.3188 122.669 73.0136 120.961 75.6399 119.284C74.3584 117.815 69.8982 116.916 62.3384 117.692C55.7773 118.37 54.0319 119.477 53.0928 120.553Z" fill="#D97F7E"/>
<path d="M55.4959 71.443L55.6334 63.8843L41.3313 64.1205C39.5435 64.1205 37.7901 64.7954 36.4149 65.9427L30.7422 72.3878L40.1967 71.0043L55.4959 71.4768V71.443Z" class="hair"  fill="#1A1A1A"/>
<path d="M72.2391 71.443L72.1016 63.8843L86.4037 64.1205C88.1915 64.1205 89.9449 64.7954 91.3201 65.9427L97.0271 72.3878L87.5726 71.0043L72.2735 71.4768L72.2391 71.443Z" class="hair"  fill="#1A1A1A"/>
<path d="M63.1992 134.061V139.32" stroke="#D26665" stroke-width="2.67224" stroke-linecap="square" stroke-linejoin="round"/>
<path d="M82.0738 107.718L82.2066 107.338C65.126 108.351 53.907 108.665 46.3024 109.412C46.4825 109.702 47.8039 111.525 47.97 111.823C48.4362 112.604 49.6699 113.142 51.1338 113.199C57.234 113.454 64.1367 113.473 77.6319 112.097C79.2045 111.939 81.7693 108.618 82.0738 107.718Z" fill="white"/>
</svg>
