<svg width="130" height="210" viewBox="0 0 130 210" fill="none" xmlns="http://www.w3.org/2000/svg">
<path d="M65.0048 202.191C48.5368 202.191 35.1973 189.098 35.1973 172.935V110.676H94.8124V172.935C94.8124 189.098 81.4729 202.191 65.0048 202.191Z" class="skin"  fill="#F3A396"/>
<path d="M35.1973 130.45C35.1973 130.45 51.5966 160.381 70.3338 158.897C99.3162 156.636 94.503 121.373 94.503 121.373C94.503 121.373 83.2607 144.893 65.4862 144.893C45.6488 144.893 35.1973 130.417 35.1973 130.417V130.45Z" fill="#D26665"/>
<path d="M20.517 89.0791L17.5603 59.4853C13.7441 40.5547 28.7682 30.5664 41.9358 30.5664H87.4895C101.448 30.5664 118.053 40.4872 110.971 61.8137L106.914 94.0732L20.5514 89.0791H20.517Z" class="hair"  fill="#1A1A1A"/>
<path d="M103.786 105.31C112.828 111.856 128.436 82.0938 119.635 75.0412C110.834 67.9886 105.024 80.9127 105.024 80.9127L104.817 91.8459L103.511 102.104L102.995 105.276H103.786V105.31Z" class="skin"  fill="#F3A396"/>
<path d="M116.298 84.2321C116.298 84.2321 111.033 81.0628 106.69 89.9338" stroke="#D26665" stroke-width="2" stroke-linecap="square" stroke-linejoin="round"/>
<path d="M109.351 86.8569C109.351 86.8569 115.462 90.2625 111.055 95.503" stroke="#D26665" stroke-width="2" stroke-linecap="square" stroke-linejoin="round"/>
<path d="M24.9518 105.311C15.9098 111.858 0.301259 82.095 9.10257 75.0424C17.9039 67.9899 23.4391 81.0489 23.4391 81.0489L23.9548 91.8471L25.2612 102.105L25.7426 105.277H24.9518V105.311Z" class="skin"  fill="#F3A396"/>
<path d="M11.457 84.234C11.457 84.234 17.5682 82.2136 21.9104 91.0846" stroke="#D26665" stroke-width="2" stroke-linecap="square" stroke-linejoin="round"/>
<path d="M18.1097 86.8149C18.1097 86.8149 12.2928 90.2643 16.6993 95.5048" stroke="#D26665" stroke-width="2" stroke-linecap="square" stroke-linejoin="round"/>
<path d="M106.776 66.9099C106.776 85.3343 104.266 101.228 101.791 112.532C99.35 123.567 92.474 133.217 82.7788 139.46L81.0254 140.608C70.7457 147.188 57.5094 147.323 47.0578 141.012C36.5375 134.635 29.1801 124.275 26.9111 112.397C22.7854 90.8346 22.3385 66.9436 22.3385 66.9436C22.3385 66.9436 18.4192 20.4102 63.9385 21.3213C109.458 22.2324 106.742 66.9436 106.742 66.9436L106.776 66.9099Z" class="skin"  fill="#F3A396"/>
<path d="M66.0774 130.521C64.4774 130.521 63.4474 130.291 63.3574 130.271L63.9674 127.651C63.9674 127.651 67.5274 128.421 71.5774 126.731L72.6174 129.211C70.0974 130.261 67.7674 130.521 66.0774 130.521Z" fill="#D26665"/>
<path d="M83.0469 111.011C80.3069 108.161 73.7969 108.201 65.6969 108.201C57.5969 108.201 52.3269 110.011 48.9069 112.011C45.3769 114.071 47.6269 123.551 65.6969 123.561C83.2169 123.571 85.5869 113.661 83.0569 111.011H83.0469Z" fill="#AE5655"/>
<path d="M65.6864 108.201C60.2164 108.201 53.9764 109.222 50.5762 111.096C51.9711 111.79 53.6564 112.72 53.6564 112.72L65.6864 112.351L78.3019 111.906C78.3019 111.906 79.2649 111.086 80.5287 109.448C77.1732 108.088 71.1064 108.191 65.6864 108.191V108.201Z" fill="white"/>
<path d="M65.277 120.001C59.627 120.391 56.897 121.311 55.667 122.271C58.267 123.061 61.557 123.561 65.687 123.561C69.927 123.561 73.277 122.981 75.887 122.061C74.817 120.701 72.037 119.531 65.277 120.001Z" fill="#D97F7E"/>
<path d="M107.36 14.2009C92.8864 4.14509 64.3165 11.1977 48.7423 18.1827C49.0517 13.6273 46.1982 14.1334 46.1982 14.1334C18.7972 21.3547 25.9827 42.5461 25.9827 42.5461C25.9827 42.5461 26.0858 42.6136 26.2577 42.6811C23.4042 48.7888 19.6911 61.7804 23.1979 85.3002C23.1979 85.3002 30.4521 59.857 30.6584 44.672C42.8289 49.9362 76.1433 62.7253 97.8715 55.5715C100.003 68.5293 105.71 85.3002 105.71 85.3002C107.979 70.0478 107.017 59.1821 105.504 51.8258C106.845 50.9147 108.117 49.8687 109.251 48.6876C109.251 48.6876 127.885 28.441 107.36 14.2009Z" class="hair"  fill="#1A1A1A"/>
<path d="M60.5693 84.7271V99.7433C60.5693 100.249 60.6725 100.722 60.8444 101.161C61.5664 102.915 63.5948 103.725 65.4513 103.253L69.4394 102.207" stroke="#D26665" stroke-width="2.5" stroke-linecap="square" stroke-linejoin="round"/>
<path fill-rule="evenodd" clip-rule="evenodd" d="M41.9945 78.1909C41.6794 78.748 41.5 79.3892 41.5 80.0715C41.5 82.2147 43.2701 83.9521 45.4537 83.9521C47.6373 83.9521 49.4074 82.2147 49.4074 80.0715C49.4074 79.3892 49.228 78.748 48.913 78.1909H41.9945Z" class="hair"  fill="#1A1A1A"/>
<path fill-rule="evenodd" clip-rule="evenodd" d="M78.9945 78.1909C78.6794 78.748 78.5 79.3892 78.5 80.0715C78.5 82.2147 80.2701 83.9521 82.4537 83.9521C84.6373 83.9521 86.4074 82.2147 86.4074 80.0715C86.4074 79.3892 86.228 78.748 85.913 78.1909H78.9945Z" class="hair"  fill="#1A1A1A"/>
<path d="M56.9997 70.4558L57.4997 65.6939L43.4559 59.2177C41.5167 59.2177 39.6147 59.8526 38.123 60.932L31.9697 66.9955L42.2252 65.6939L56.9997 70.4875V70.4558Z" class="hair"  fill="#1A1A1A"/>
<path d="M69.9639 72.9206L69.9996 67.9524L85.9996 64.2539C87.8619 64.2539 89.6884 64.8888 91.1209 65.9682L97.0658 72.0317L87.2173 70.7301L69.9997 72.9524L69.9639 72.9206Z" class="hair"  fill="#1A1A1A"/>
</svg>
