<svg width="130" height="210" viewBox="0 0 130 210" fill="none" xmlns="http://www.w3.org/2000/svg">
<path d="M64.8055 202C48.3537 202 35.0273 188.92 35.0273 172.773V110.576H94.5836V172.773C94.5836 188.92 81.2573 202 64.8055 202Z" class="skin"  fill="#F3A396"/>
<path d="M35.0273 130.33C35.0273 130.33 51.4105 160.232 70.1291 158.749C99.0829 156.49 94.2745 121.262 94.2745 121.262C94.2745 121.262 83.0433 144.759 65.2863 144.759C45.4686 144.759 35.0273 130.297 35.0273 130.297V130.33Z" fill="#D26665"/>
<path d="M20.3621 88.9997L17.4083 59.4352C13.5959 40.5234 28.6052 30.5449 41.7597 30.5449H87.2684C101.213 30.5449 117.802 40.4559 110.727 61.7613L106.674 93.989L20.3965 88.9997H20.3621Z" class="hair"  fill="#1A1A1A"/>
<path d="M103.548 105.215C112.581 111.755 128.174 82.0222 119.381 74.9766C110.589 67.931 104.784 80.8423 104.784 80.8423L104.578 91.7647L103.273 102.013L102.758 105.182H103.548V105.215Z" class="skin"  fill="#F3A396"/>
<path d="M117.498 83.7865C117.498 83.7865 111.876 80.4022 107.239 89.875" stroke="#D26665" stroke-width="2.13568" stroke-linecap="square" stroke-linejoin="round"/>
<path d="M110.08 86.5894C110.08 86.5894 116.606 90.226 111.9 95.822" stroke="#D26665" stroke-width="2.13568" stroke-linecap="square" stroke-linejoin="round"/>
<path d="M24.7929 105.216C15.7599 111.756 0.166763 82.0225 8.95937 74.9769C17.752 67.9313 23.2817 80.9775 23.2817 80.9775L23.7969 91.765L25.1021 102.013L25.5829 105.182H24.7929V105.216Z" class="skin"  fill="#F3A396"/>
<path d="M11.6357 83.9847C11.6357 83.9847 18.1615 81.8272 22.7982 91.3" stroke="#D26665" stroke-width="2.13568" stroke-linecap="square" stroke-linejoin="round"/>
<path d="M18.7411 86.7407C18.7411 86.7407 12.5296 90.4241 17.235 96.0201" stroke="#D26665" stroke-width="2.13568" stroke-linecap="square" stroke-linejoin="round"/>
<path d="M106.535 66.8531C106.535 85.2593 104.028 101.137 101.555 112.43C99.1165 123.454 92.2473 133.095 82.5617 139.332L80.8101 140.478C70.5406 147.051 57.3173 147.186 46.8761 140.882C36.3661 134.511 29.0161 124.162 26.7492 112.295C22.6277 90.7542 22.1812 66.8868 22.1812 66.8868C22.1812 66.8868 18.2657 20.3994 63.74 21.3096C109.214 22.2198 106.501 66.8868 106.501 66.8868L106.535 66.8531Z" class="skin"  fill="#F3A396"/>
<path d="M64.387 107.873C69.7795 108.086 77.5895 110.228 77.5895 119.69C77.5147 123.577 71.4027 129.892 64.387 129.518C57.3713 129.144 50.5972 124.335 50.5225 119.69C50.5227 109.867 58.7701 107.649 64.387 107.884V107.873Z" fill="#AE5655"/>
<path d="M69.645 125.833C67.3089 125.255 60.8628 125.484 57.1895 127.438C58.898 128.687 61.6895 129.368 64.4552 129.517C67.2209 129.667 70.0658 128.798 72.7505 126.868C70.8587 126.217 70.304 126.028 69.645 125.833Z" fill="#D97F7E"/>
<path d="M72.7075 110.136C71.031 108.833 68.1895 107.974 63.6274 107.799C58.4789 108.036 56.6598 108.945 54.7158 110.42C58.6348 110.378 66.2061 110.328 70.1251 110.136H72.7075Z" fill="white"/>
<path d="M107.12 14.196C92.6598 4.15008 64.1182 11.1957 48.5594 18.1738C48.8685 13.6229 46.0178 14.1285 46.0178 14.1285C18.6439 21.3427 25.8222 42.5132 25.8222 42.5132C25.8222 42.5132 25.9253 42.5806 26.097 42.648C23.2463 48.7497 19.5369 61.7284 23.0402 85.225C23.0402 85.225 30.2872 59.8069 30.4933 44.637C42.6519 49.8959 75.9333 62.6723 97.64 55.5256C99.7695 68.4706 105.471 85.225 105.471 85.225C107.738 69.9876 106.776 59.1327 105.265 51.7837C106.604 50.8735 107.875 49.8284 109.009 48.6486C109.009 48.6486 127.624 28.422 107.12 14.196Z" class="hair"  fill="#1A1A1A"/>
<path d="M60.376 81.9912V96.9926C60.376 97.4983 60.479 97.9702 60.6507 98.4085C61.372 100.161 63.3984 100.97 65.2531 100.499L69.2373 99.4535" stroke="#D26665" stroke-width="2.66959" stroke-linecap="square" stroke-linejoin="round"/>
<path d="M45.5006 84.3486C47.682 84.3486 49.4504 82.1671 49.4504 79.4761C49.4504 76.785 47.682 74.6035 45.5006 74.6035C43.3192 74.6035 41.5508 76.785 41.5508 79.4761C41.5508 82.1671 43.3192 84.3486 45.5006 84.3486Z" class="hair"  fill="#1A1A1A"/>
<path d="M81.8072 84.3486C83.9886 84.3486 85.757 82.1671 85.757 79.4761C85.757 76.785 83.9886 74.6035 81.8072 74.6035C79.6258 74.6035 77.8574 76.785 77.8574 79.4761C77.8574 82.1671 79.6258 84.3486 81.8072 84.3486Z" class="hair"  fill="#1A1A1A"/>
<path d="M55.592 66.6499L54.8013 61.0494L40.6429 62.9839C38.8696 63.1964 37.2106 64.0742 35.9829 65.3757L31.1222 72.4431L40.3358 69.9469L55.596 66.6834L55.592 66.6499Z" class="hair"  fill="#1A1A1A"/>
<path d="M71.7323 66.634L72.5427 60.8385L86.6647 63.023C88.434 63.2669 90.0772 64.1739 91.2817 65.497L96.0506 72.6539L86.8826 69.9951L71.7617 66.6721L71.7323 66.634Z" class="hair"  fill="#1A1A1A"/>
<path d="M62.9541 134.128V139.382" stroke="#D26665" stroke-width="2.66959" stroke-linecap="square" stroke-linejoin="round"/>
</svg>
