<svg width="130" height="210" viewBox="0 0 130 210" fill="none" xmlns="http://www.w3.org/2000/svg">
<path d="M65.5048 202C49.0368 202 35.6973 188.907 35.6973 172.744V110.485H95.3124V172.744C95.3124 188.907 81.9729 202 65.5048 202Z" class="skin"  fill="#F3A396"/>
<path d="M35.6973 130.259C35.6973 130.259 52.0966 160.191 70.8338 158.706C99.8162 156.445 95.003 121.182 95.003 121.182C95.003 121.182 83.7607 144.702 65.9862 144.702C46.1488 144.702 35.6973 130.226 35.6973 130.226V130.259Z" fill="#D26665"/>
<path d="M21.017 88.8882L18.0603 59.2944C14.2441 40.3638 29.2682 30.3755 42.4358 30.3755H87.9895C101.948 30.3755 118.553 40.2963 111.471 61.6227L107.414 93.8823L21.0514 88.8882H21.017Z" class="hair"  fill="#1A1A1A"/>
<path d="M104.286 105.119C113.328 111.666 128.936 81.9033 120.135 74.8508C111.334 67.7982 105.524 80.7223 105.524 80.7223L105.317 91.6554L104.011 101.914L103.495 105.086H104.286V105.119Z" class="skin"  fill="#F3A396"/>
<path d="M116.463 84.2321C116.463 84.2321 111.198 81.0628 106.855 89.9338" stroke="#D26665" stroke-width="2" stroke-linecap="square" stroke-linejoin="round"/>
<path d="M109.516 86.8569C109.516 86.8569 115.627 90.2625 111.22 95.503" stroke="#D26665" stroke-width="2" stroke-linecap="square" stroke-linejoin="round"/>
<path d="M25.4518 105.12C16.4098 111.667 0.801259 81.9041 9.60257 74.8515C18.4039 67.799 23.9391 80.858 23.9391 80.858L24.4548 91.6562L25.7612 101.914L26.2426 105.086H25.4518V105.12Z" class="skin"  fill="#F3A396"/>
<path d="M12.6221 84.2335C12.6221 84.2335 18.7333 82.2131 23.0754 91.0841" stroke="#D26665" stroke-width="2" stroke-linecap="square" stroke-linejoin="round"/>
<path d="M19.2748 86.8145C19.2748 86.8145 13.4579 90.2638 17.8644 95.5043" stroke="#D26665" stroke-width="2" stroke-linecap="square" stroke-linejoin="round"/>
<path d="M107.276 66.7195C107.276 85.1439 104.766 101.037 102.291 112.342C99.85 123.376 92.974 133.027 83.2788 139.27L81.5254 140.417C71.2457 146.997 58.0094 147.132 47.5578 140.822C37.0375 134.444 29.6801 124.085 27.4111 112.207C23.2854 90.6442 22.8385 66.7532 22.8385 66.7532C22.8385 66.7532 18.9192 20.2198 64.4385 21.1309C109.958 22.042 107.242 66.7532 107.242 66.7532L107.276 66.7195Z" class="skin"  fill="#F3A396"/>
<path d="M107.86 14.01C93.3864 3.95418 64.8165 11.0067 49.2423 17.9918C49.5517 13.4363 46.6982 13.9425 46.6982 13.9425C19.2972 21.1638 26.4827 42.3552 26.4827 42.3552C26.4827 42.3552 26.5858 42.4227 26.7577 42.4902C23.9042 48.5979 20.1911 61.5895 23.6979 85.1093C23.6979 85.1093 30.9521 59.6661 31.1584 44.4811C43.3289 49.7452 76.6433 62.5343 98.3715 55.3805C100.503 68.3384 106.21 85.1093 106.21 85.1093C108.479 69.8569 107.517 58.9912 106.004 51.6349C107.345 50.7238 108.617 49.6777 109.751 48.4967C109.751 48.4967 128.385 28.2501 107.86 14.01Z" class="hair"  fill="#1A1A1A"/>
<path d="M61.0703 84.5366V99.5528C61.0703 100.059 61.1734 100.531 61.3453 100.97C62.0673 102.725 64.0958 103.535 65.9523 103.062L69.9404 102.016" stroke="#D26665" stroke-width="2.5" stroke-linecap="square" stroke-linejoin="round"/>
<path d="M45.9088 84.2319C48.0924 84.2319 49.8625 82.4945 49.8625 80.3513C49.8625 78.2081 48.0924 76.4707 45.9088 76.4707C43.7252 76.4707 41.9551 78.2081 41.9551 80.3513C41.9551 82.4945 43.7252 84.2319 45.9088 84.2319Z" class="hair"  fill="#1A1A1A"/>
<path d="M82.523 84.2319C84.7066 84.2319 86.4768 82.4945 86.4768 80.3513C86.4768 78.2081 84.7066 76.4707 82.523 76.4707C80.3395 76.4707 78.5693 78.2081 78.5693 80.3513C78.5693 82.4945 80.3395 84.2319 82.523 84.2319Z" class="hair"  fill="#1A1A1A"/>
<path d="M56.6888 68.4683L55.515 61L41.4699 63.71C39.7092 64.0197 38.0992 64.9881 36.9435 66.3562L32.4729 73.6866L41.5449 70.6863L56.6946 68.5016L56.6888 68.4683Z" class="hair"  fill="#1A1A1A"/>
<path d="M71.1375 71.5587L71 64L85.3021 64.2362C87.0899 64.2362 88.8433 64.9111 90.2185 66.0584L95.9256 72.5036L86.471 71.12L71.1719 71.5925L71.1375 71.5587Z" class="hair"  fill="#1A1A1A"/>
<path d="M64.0923 113.916C57.2732 113.916 52.4518 112.672 52.0967 112.584L52.7626 110.5C52.9136 110.541 65.5163 113.969 80.2111 107.396L81.2677 109.342C74.1645 112.524 69.7626 113.5 64.1011 113.916H64.0923Z" fill="#D26665"/>
<path d="M64.2323 119C62.3243 119 61.0871 118.376 61 118.323L62.1239 116.087L61.5663 117.209L62.1152 116.087C62.2285 116.149 64.9903 117.468 68.6409 115L70 117.102C67.8045 118.59 65.7919 119 64.2411 119H64.2323Z" fill="#D26665"/>
<path d="M87.5361 105C87.3372 105.884 87.5338 107.143 88.0741 107.951" stroke="#D26665" stroke-width="2.5" stroke-linecap="square"/>
</svg>
