<svg width="130" height="210" viewBox="0 0 130 210" fill="none" xmlns="http://www.w3.org/2000/svg">
<path d="M64.8046 202.191C48.3366 202.191 34.9971 189.098 34.9971 172.935V110.676H94.6122V172.935C94.6122 189.098 81.2727 202.191 64.8046 202.191Z" class="skin"  fill="#F3A396"/>
<path d="M34.9971 130.45C34.9971 130.45 51.3964 160.381 70.1336 158.897C99.116 156.636 94.3028 121.373 94.3028 121.373C94.3028 121.373 83.0605 144.893 65.286 144.893C45.4486 144.893 34.9971 130.417 34.9971 130.417V130.45Z" fill="#D26665"/>
<path d="M20.3168 89.0791L17.3601 59.4853C13.5439 40.5547 28.568 30.5664 41.7356 30.5664H87.2893C101.248 30.5664 117.853 40.4872 110.771 61.8137L106.714 94.0732L20.3512 89.0791H20.3168Z" class="hair"  fill="#1A1A1A"/>
<path d="M103.586 105.31C112.628 111.857 128.236 82.0942 119.435 75.0417C110.634 67.9891 104.823 80.9132 104.823 80.9132L104.617 91.8463L103.311 102.105L102.795 105.277H103.586V105.31Z" class="skin"  fill="#F3A396"/>
<path d="M116.527 84.2321C116.527 84.2321 111.262 81.0628 106.92 89.9338" stroke="#D26665" stroke-width="2" stroke-linecap="square" stroke-linejoin="round"/>
<path d="M109.58 86.8569C109.58 86.8569 115.691 90.2625 111.285 95.503" stroke="#D26665" stroke-width="2" stroke-linecap="square" stroke-linejoin="round"/>
<path d="M24.7516 105.311C15.7096 111.858 0.101064 82.095 8.90238 75.0424C17.7037 67.9899 23.2389 81.0489 23.2389 81.0489L23.7546 91.8471L25.061 102.105L25.5424 105.277H24.7516V105.311Z" class="skin"  fill="#F3A396"/>
<path d="M11.6865 84.2335C11.6865 84.2335 17.7977 82.2131 22.1399 91.0841" stroke="#D26665" stroke-width="2" stroke-linecap="square" stroke-linejoin="round"/>
<path d="M18.3392 86.8145C18.3392 86.8145 12.5223 90.2638 16.9288 95.5043" stroke="#D26665" stroke-width="2" stroke-linecap="square" stroke-linejoin="round"/>
<path d="M106.576 66.9104C106.576 85.3348 104.066 101.228 101.591 112.533C99.1498 123.567 92.2738 133.218 82.5786 139.461L80.8252 140.608C70.5455 147.188 57.3092 147.323 46.8576 141.013C36.3373 134.635 28.9799 124.276 26.7109 112.398C22.5852 90.8351 22.1383 66.9441 22.1383 66.9441C22.1383 66.9441 18.219 20.4107 63.7383 21.3218C109.258 22.2329 106.542 66.9441 106.542 66.9441L106.576 66.9104Z" class="skin"  fill="#F3A396"/>
<path d="M59.5798 119.228L59.2998 116.418C59.5098 116.398 64.4198 115.918 67.8198 116.418L67.3998 119.208C64.3498 118.748 59.6298 119.208 59.5798 119.208V119.228Z" fill="#D26665"/>
<path d="M75.8126 116.191C75.8126 116.191 71.4109 112.721 64.3682 112.721H64.3511C57.5648 112.721 52.616 115.842 52.5647 115.869L51.2998 113.714C51.522 113.571 56.8468 110.191 64.3511 110.191H64.3682C72.2827 110.191 77.0947 114.027 77.2998 114.188L75.8212 116.182L75.8126 116.191Z" fill="#D26665"/>
<path d="M107.16 14.2009C92.6862 4.14509 64.1163 11.1977 48.5421 18.1827C48.8515 13.6273 45.998 14.1334 45.998 14.1334C18.597 21.3547 25.7825 42.5461 25.7825 42.5461C25.7825 42.5461 25.8856 42.6136 26.0575 42.6811C23.204 48.7888 19.4909 61.7804 22.9977 85.3002C22.9977 85.3002 30.2519 59.857 30.4582 44.672C42.6287 49.9362 75.9431 62.7253 97.6713 55.5715C99.8029 68.5293 105.51 85.3002 105.51 85.3002C107.779 70.0478 106.816 59.1821 105.304 51.8258C106.645 50.9147 107.917 49.8687 109.051 48.6876C109.051 48.6876 127.685 28.441 107.16 14.2009Z" class="hair"  fill="#1A1A1A"/>
<path d="M60.3701 84.7271V99.7433C60.3701 100.249 60.4733 100.722 60.6452 101.161C61.3671 102.915 63.3956 103.725 65.2521 103.253L69.2402 102.207" stroke="#D26665" stroke-width="2.5" stroke-linecap="square" stroke-linejoin="round"/>
<path d="M45.2076 84.4223C47.3912 84.4223 49.1613 82.6849 49.1613 80.5417C49.1613 78.3985 47.3912 76.6611 45.2076 76.6611C43.024 76.6611 41.2539 78.3985 41.2539 80.5417C41.2539 82.6849 43.024 84.4223 45.2076 84.4223Z" class="hair"  fill="#1A1A1A"/>
<path d="M81.8228 84.4223C84.0064 84.4223 85.7766 82.6849 85.7766 80.5417C85.7766 78.3985 84.0064 76.6611 81.8228 76.6611C79.6393 76.6611 77.8691 78.3985 77.8691 80.5417C77.8691 82.6849 79.6393 84.4223 81.8228 84.4223Z" class="hair"  fill="#1A1A1A"/>
<path d="M56.7997 74.5284L57.2997 69.7665L41.6327 65.1157C39.6935 65.1157 37.7915 65.7507 36.2998 66.83L30.1465 72.8935L40.402 71.5919L56.7997 74.5602V74.5284Z" class="hair"  fill="#1A1A1A"/>
<path d="M69.7637 74.4968L69.7994 69.5285L85.7994 65.8301C87.6617 65.8301 89.4882 66.465 90.9207 67.5444L96.8656 73.6079L87.0171 72.3063L69.7995 74.5285L69.7637 74.4968Z" class="hair"  fill="#1A1A1A"/>
<path d="M62.9512 134.251V139.511" stroke="#D26665" stroke-width="2.5" stroke-linecap="square" stroke-linejoin="round"/>
</svg>
