<svg width="473" height="238" viewBox="0 0 473 238" fill="none" xmlns="http://www.w3.org/2000/svg">
<path d="M243.197 134.999L310.129 125.045L331.572 139.383C331.572 139.383 229.926 166.061 223.509 162.98C217.082 159.9 202.851 45.5589 224.232 40.9653C236.504 38.3335 243.207 134.999 243.207 134.999L243.197 134.999Z" class="skin" fill="#FFB784"/>
<path d="M348.413 112.12L347.213 119.911C347.213 119.911 264.078 115.504 255.096 118.22C250.109 119.72 243.199 135.01 243.199 135.01C243.199 135.01 364.239 150.917 370.362 146.892C376.484 142.866 368.804 29.2459 354.788 31.1156C342.75 32.7257 348.414 112.13 348.414 112.13L348.413 112.12Z" class="skin" fill="#FFB784"/>
<path d="M317.388 118.525C317.53 118.002 318.388 109.273 324.866 100.381C331.755 90.9355 346.867 85.3586 348.234 88.0368C349.953 91.4012 336.542 99.2997 336.542 99.2997C336.542 99.2997 350.656 92.7338 358.476 94.9758C364.336 96.6626 361.751 100.994 361.751 100.994C361.751 100.994 363.864 103.726 363.061 105.725C362.258 107.723 358.846 108.412 358.846 108.412C358.846 108.412 361.419 110.045 359.946 112.757C358.474 115.468 351.967 113.589 350.216 115.669C348.851 117.278 348.109 120.487 348.109 120.487L317.388 118.525Z" class="skin" fill="#FFB784"/>
<path d="M361.752 101.004C361.752 101.004 362.127 100.383 362.263 99.5194C360.53 98.7665 355.96 97.2836 350.136 99.1483C343.401 101.303 335.292 107.215 332.374 114.323C333.147 114.445 333.92 114.578 334.702 114.699C337.467 108.487 344.717 103.312 350.776 101.369C356.531 99.5298 360.945 101.486 361.707 101.861C362.098 102.253 362.489 102.655 362.88 103.047C362.443 101.906 361.742 101.004 361.742 101.004L361.752 101.004Z" fill="#BA4E00"/>
<path d="M358.848 108.422C358.848 108.422 360.153 108.153 361.347 107.481C358.835 105.983 352.646 104.733 347.503 108.032C343.902 110.342 341.508 113.614 340.316 115.522C341.158 115.639 341.991 115.757 342.832 115.864C344.017 114.138 345.984 111.721 348.705 109.99C352.833 107.349 357.692 108.278 359.758 109.307C359.334 108.747 358.849 108.442 358.849 108.442L358.848 108.422Z" fill="#BA4E00"/>
<path d="M244.344 134.892L244.09 133.124C243.524 134.271 243.198 134.998 243.198 134.998L242.966 131.924L242.532 134.687L230.999 137.273L231.361 139.274L243.008 137.011L308.03 145.413C310.274 144.812 313.136 144.155 315.133 143.613L244.334 134.893L244.344 134.892Z" fill="#BA4E00"/>
<path d="M325.587 113.659L328.297 113.906C328.366 113.359 330.209 100.519 349.086 95.2004L349.083 95.1604C342.665 96.4675 336.544 99.3084 336.544 99.3084C336.544 99.3084 340.889 96.7519 344.321 93.9229C327.39 100.41 325.664 113.081 325.587 113.659Z" fill="#BA4E00"/>
<path d="M349.385 95.1967C354.24 94.4693 360.01 94.687 360.523 96.1645C360.791 96.9274 360.817 97.5379 360.589 97.9768C360.292 98.5614 359.597 98.7946 359.597 98.7946L356.304 99.7355L359.255 101.32C359.255 101.32 361.349 102.468 360.736 104.06C360.039 105.87 357.953 106.027 357.844 106.045L352.355 106.349L357.268 108.669C357.268 108.669 359.177 109.61 359.047 110.955C358.99 111.531 358.267 112.459 357.087 112.649C356.729 112.706 356.3 112.738 355.841 112.773C352.956 112.99 347.694 113.387 347.017 120.386L349.731 120.563C350.142 116.295 352.542 115.762 355.896 115.509L355.956 115.505C356.486 115.465 356.985 115.427 357.431 115.354C359.703 114.992 361.565 113.185 361.761 111.132C361.885 109.837 361.412 108.758 360.727 107.926C361.709 107.37 362.705 106.472 363.277 104.993C364.05 102.997 363.282 101.338 362.264 100.22C362.535 99.9486 362.781 99.6188 362.992 99.2214C363.608 98.0605 363.646 96.7022 363.11 95.1863C361.743 91.3033 351.055 92.1692 347.436 92.6427C347.425 93.5673 347.515 94.8859 347.553 95.6661C347.434 95.6851 349.396 95.2059 349.396 95.2059L349.385 95.1967Z" fill="#BA4E00"/>
<path d="M359.583 119.519L317.875 115.916C317.546 117.407 317.437 118.359 317.389 118.523C316.775 118.499 316.16 118.475 315.536 118.452L315.538 118.482L359.248 122.266L359.564 119.531L359.583 119.519Z" fill="#BA4E00"/>
<path d="M347.267 87.4474C347.267 87.4474 348.516 87.6344 348.596 88.6927C348.67 89.6811 347.351 90.9553 347.351 90.9553L347.417 92.9081C347.417 92.9081 350.733 91.2024 350.506 88.3278C350.316 85.8119 347.194 85.2842 347.194 85.2842L347.246 87.439L347.267 87.4474Z" fill="#BA4E00"/>
</svg>
