<svg width="130" height="210" viewBox="0 0 130 210" fill="none" xmlns="http://www.w3.org/2000/svg">
<path d="M65.2418 201.98C48.7734 201.98 35.4336 188.887 35.4336 172.723V110.463H95.0501V172.723C95.0501 188.887 81.7103 201.98 65.2418 201.98Z" class="skin" fill="#FCCBAE"/>
<path d="M35.4336 130.238C35.4336 130.238 51.8333 160.169 70.5709 158.685C99.554 156.424 94.7406 121.16 94.7406 121.16C94.7406 121.16 83.4981 144.68 65.7232 144.68C45.8854 144.68 35.4336 130.204 35.4336 130.204V130.238Z" fill="#DFB095"/>
<path d="M20.7544 88.865L17.7976 59.2706C13.9813 40.3396 29.0058 30.3511 42.1737 30.3511H87.7284C101.687 30.3511 118.293 40.2721 111.21 61.599L107.154 93.8593L20.7888 88.865H20.7544Z" class="hair" fill="#684B47"/>
<path d="M104.025 105.097C113.067 111.643 128.676 81.8801 119.875 74.8274C111.073 67.7746 105.263 80.699 105.263 80.699L105.057 91.6324L103.75 101.891L103.234 105.063H104.025V105.097Z" class="skin" fill="#FCCBAE"/>
<path d="M116.9 83.8438C116.9 83.8438 111.272 80.456 106.631 89.9384" stroke="#BA754D" stroke-width="2" stroke-linecap="square" stroke-linejoin="round"/>
<path d="M109.475 86.6494C109.475 86.6494 116.007 90.2897 111.297 95.8914" stroke="#BA754D" stroke-width="2" stroke-linecap="square" stroke-linejoin="round"/>
<path d="M25.1895 105.097C16.1474 111.644 0.538426 81.8809 9.33993 74.8281C18.1414 67.7754 23.6768 80.8348 23.6768 80.8348L24.1925 91.6332L25.499 101.892L25.9803 105.064H25.1895V105.097Z" class="skin" fill="#FCCBAE"/>
<path d="M11.248 83.8453C11.248 83.8453 17.7804 81.6856 22.4218 91.168" stroke="#BA754D" stroke-width="2" stroke-linecap="square" stroke-linejoin="round"/>
<path d="M18.3587 86.604C18.3587 86.604 12.1409 90.2911 16.8511 95.8928" stroke="#BA754D" stroke-width="2" stroke-linecap="square" stroke-linejoin="round"/>
<path d="M107.016 66.6961C107.016 85.1209 104.506 101.015 102.031 112.319C99.59 123.354 92.7138 133.005 83.0184 139.248L81.265 140.395C70.9851 146.976 57.7484 147.111 47.2966 140.8C36.7761 134.422 29.4186 124.063 27.1494 112.184C23.0237 90.6213 22.5768 66.7298 22.5768 66.7298C22.5768 66.7298 18.6574 20.1954 64.1777 21.1065C109.698 22.0176 106.982 66.7298 106.982 66.7298L107.016 66.6961Z" class="skin" fill="#FCCBAE"/>
<path d="M60.3105 81.9448C60.3105 81.9448 62.0896 86.5381 62.0616 89.6076C62.0348 92.5596 60.3105 96.9614 60.3105 96.9614C60.3105 97.4676 60.4137 97.94 60.5856 98.3787C61.3076 100.133 63.3361 100.943 65.1926 100.471L69.1808 99.4248" stroke="#CA8A64" stroke-width="2.5" stroke-linecap="square" stroke-linejoin="round"/>
<path d="M45.6462 82.0489C47.8298 82.0489 49.6 82.6968 49.6 80.5535C49.6 78.4103 47.8298 76.6729 45.6462 76.6729C43.4626 76.6729 41.6924 78.4103 41.6924 80.5535C41.6924 82.6968 43.4626 82.0489 45.6462 82.0489Z" class="hair" fill="#684B47"/>
<path d="M81.9899 82.0489C84.1736 82.0489 85.9437 82.6968 85.9437 80.5535C85.9437 78.4103 84.1736 76.6729 81.9899 76.6729C79.8063 76.6729 78.0361 78.4103 78.0361 80.5535C78.0361 82.6968 79.8063 82.0489 81.9899 82.0489Z" class="hair" fill="#684B47"/>
<path d="M45.4033 107.884L85.434 105.418C85.434 105.418 83.1039 123.725 65.0451 124.23C46.9862 124.736 45.3706 107.885 45.3706 107.885L45.4033 107.884Z" fill="#AE5655"/>
<path d="M54.1231 122.199C56.9043 123.448 60.7329 124.585 65.5411 124.45C70.3494 124.315 74.0443 122.608 76.6707 120.931C75.3891 119.461 70.9289 118.562 63.3688 119.338C56.8076 120.017 55.0622 121.123 54.1231 122.199Z" fill="#D97F7E"/>
<path d="M55.6859 71.4197L55.8234 63.8608L41.521 64.0971C39.7332 64.0971 37.9797 64.772 36.6045 65.9193L30.9316 72.3646L40.3864 70.981L55.6859 71.4535V71.4197Z" class="hair" fill="#684B47"/>
<path d="M72.4295 71.4197L72.292 63.8608L86.5944 64.0971C88.3822 64.0971 90.1357 64.772 91.5109 65.9193L97.2181 72.3646L87.7634 70.981L72.4639 71.4535L72.4295 71.4197Z" class="hair" fill="#684B47"/>
<path d="M36.1084 80.0894L38.0375 80.9796L36.1084 82.315" stroke="#BA754D" stroke-linecap="square"/>
<path d="M91.5283 80.0894L89.5993 80.9796L91.5283 82.315" stroke="#BA754D" stroke-linecap="square"/>
<path d="M83.1635 105.857L83.2963 105.477C66.2152 106.49 54.996 106.804 47.3912 107.552C47.5714 107.841 48.8928 109.665 49.0589 109.963C49.5252 110.744 50.7589 111.282 52.2228 111.339C58.3231 111.593 65.2259 111.613 78.7214 110.237C80.294 110.079 82.8589 106.758 83.1635 105.857Z" fill="white"/>
</svg>
