<svg width="130" height="210" viewBox="0 0 130 210" fill="none" xmlns="http://www.w3.org/2000/svg">
<path d="M65.705 201.882C49.237 201.882 35.8975 188.79 35.8975 172.626V110.368H95.5126V172.626C95.5126 188.79 82.1731 201.882 65.705 201.882Z" class="skin" fill="#FCCBAE"/>
<path d="M35.8975 130.142C35.8975 130.142 52.2968 160.073 71.034 158.588C100.016 156.327 95.2032 121.064 95.2032 121.064C95.2032 121.064 83.9609 144.584 66.1864 144.584C46.349 144.584 35.8975 130.108 35.8975 130.108V130.142Z" fill="#DFB095"/>
<path d="M21.2172 88.771L18.2605 59.1772C14.4443 40.2466 29.4684 30.2583 42.636 30.2583H88.1897C102.148 30.2583 118.754 40.1791 111.671 61.5056L107.614 93.7651L21.2516 88.771H21.2172Z" class="hair" fill="#684B47"/>
<path d="M104.486 105.002C113.528 111.548 129.137 81.7856 120.335 74.7331C111.534 67.6805 105.724 80.6046 105.724 80.6046L105.517 91.5378L104.211 101.796L103.695 104.968H104.486V105.002Z" class="skin" fill="#FCCBAE"/>
<path d="M116.663 84.1144C116.663 84.1144 111.398 80.9451 107.056 89.8161" stroke="#BA754D" stroke-width="2" stroke-linecap="square" stroke-linejoin="round"/>
<path d="M109.716 86.7393C109.716 86.7393 115.827 90.1448 111.421 95.3854" stroke="#BA754D" stroke-width="2" stroke-linecap="square" stroke-linejoin="round"/>
<path d="M25.652 105.003C16.61 111.549 1.00145 81.7864 9.80277 74.7339C18.6041 67.6813 24.1393 80.7403 24.1393 80.7403L24.655 91.5385L25.9614 101.797L26.4428 104.969H25.652V105.003Z" class="skin" fill="#FCCBAE"/>
<path d="M12.8223 84.1159C12.8223 84.1159 18.9335 82.0954 23.2756 90.9664" stroke="#BA754D" stroke-width="2" stroke-linecap="square" stroke-linejoin="round"/>
<path d="M19.475 86.6968C19.475 86.6968 13.6581 90.1461 18.0646 95.3866" stroke="#BA754D" stroke-width="2" stroke-linecap="square" stroke-linejoin="round"/>
<path d="M107.476 66.6018C107.476 85.0262 104.967 100.92 102.491 112.224C100.05 123.259 93.1741 132.909 83.479 139.152L81.7256 140.299C71.4459 146.88 58.2096 147.015 47.758 140.704C37.2377 134.327 29.8803 123.967 27.6113 112.089C23.4856 90.5265 23.0387 66.6355 23.0387 66.6355C23.0387 66.6355 19.1194 20.1021 64.6386 21.0132C110.158 21.9243 107.442 66.6355 107.442 66.6355L107.476 66.6018Z" class="skin" fill="#FCCBAE"/>
<path d="M61.4121 85.02C61.4121 85.02 63.0764 89.3171 63.0503 92.1887C63.0251 94.9504 61.4121 99.0684 61.4121 99.0684C61.4121 99.5419 61.5086 99.9839 61.6694 100.394C62.3449 102.036 64.2426 102.794 65.9794 102.352L69.7105 101.373" stroke="#CA8A64" stroke-width="2.5" stroke-linecap="square" stroke-linejoin="round"/>
<path d="M46.109 84.1142C48.2926 84.1142 50.0627 82.3768 50.0627 80.2336C50.0627 78.0904 48.2926 76.353 46.109 76.353C43.9254 76.353 42.1553 78.0904 42.1553 80.2336C42.1553 82.3768 43.9254 84.1142 46.109 84.1142Z" class="hair" fill="#684B47"/>
<path d="M82.7232 84.1142C84.9068 84.1142 86.677 82.3768 86.677 80.2336C86.677 78.0904 84.9068 76.353 82.7232 76.353C80.5397 76.353 78.7695 78.0904 78.7695 80.2336C78.7695 82.3768 80.5397 84.1142 82.7232 84.1142Z" class="hair" fill="#684B47"/>
<path d="M56.889 68.3507L55.7152 60.8824L41.6701 63.5923C39.9094 63.902 38.2994 64.8704 37.1437 66.2385L32.6731 73.5689L41.7451 70.5686L56.8948 68.3839L56.889 68.3507Z" class="hair" fill="#684B47"/>
<path d="M71.3377 71.4411L71.2002 63.8823L85.5023 64.1185C87.2901 64.1185 89.0435 64.7934 90.4187 65.9407L96.1258 72.3859L86.6712 71.0024L71.3721 71.4748L71.3377 71.4411Z" class="hair" fill="#684B47"/>
<path d="M64.2925 113.798C57.4734 113.798 52.652 112.555 52.2969 112.466L52.9628 110.382C53.1137 110.423 65.7165 113.852 80.4113 107.278L81.4679 109.224C74.3647 112.406 69.9628 113.382 64.3013 113.798H64.2925Z" fill="#BA754D"/>
<path d="M64.4325 118.882C62.5245 118.882 61.2873 118.259 61.2002 118.205L62.3241 115.969L61.7665 117.092L62.3154 115.969C62.4287 116.032 65.1905 117.35 68.8411 114.882L70.2002 116.985C68.0047 118.473 65.9921 118.882 64.4413 118.882H64.4325Z" fill="#BA754D"/>
<path d="M87.7363 104.882C87.5374 105.766 87.7339 107.025 88.2743 107.834" stroke="#BA754D" stroke-width="2.5" stroke-linecap="square"/>
</svg>
