<svg width="130" height="210" viewBox="0 0 130 210" fill="none" xmlns="http://www.w3.org/2000/svg">
<path d="M65.807 201.885C49.3387 201.885 35.999 188.792 35.999 172.628V110.369H95.6151V172.628C95.6151 188.792 82.2754 201.885 65.807 201.885Z" class="skin" fill="#FCCBAE"/>
<path d="M35.999 130.144C35.999 130.144 52.3986 160.075 71.136 158.591C100.119 156.33 95.3056 121.066 95.3056 121.066C95.3056 121.066 84.0632 144.587 66.2884 144.587C46.4507 144.587 35.999 130.11 35.999 130.11V130.144Z" fill="#DFB095"/>
<path d="M21.3168 88.7714L18.3601 59.1771C14.5439 40.2463 29.5682 30.2578 42.736 30.2578H88.2903C102.249 30.2578 118.855 40.1788 111.772 61.5055L107.715 93.7656L21.3512 88.7714H21.3168Z" class="hair" fill="#684B47"/>
<path d="M104.588 105.003C113.63 111.549 129.239 81.7863 120.437 74.7336C111.636 67.6809 105.825 80.6052 105.825 80.6052L105.619 91.5385L104.313 101.797L103.797 104.969H104.588V105.003Z" class="skin" fill="#FCCBAE"/>
<path d="M119.05 83.3639C119.05 83.3639 112.517 81.2042 107.876 90.6865" stroke="#BA754D" stroke-width="2.12663" stroke-linecap="square" stroke-linejoin="round"/>
<path d="M111.573 86.376C111.573 86.376 118.155 89.8096 113.445 95.4113" stroke="#BA754D" stroke-width="2.12663" stroke-linecap="square" stroke-linejoin="round"/>
<path d="M25.7519 105.004C16.7098 111.55 1.10097 81.7875 9.90242 74.7349C18.7039 67.6822 24.2391 80.7414 24.2391 80.7414L24.7549 91.5398L26.0613 101.798L26.5426 104.97H25.7519V105.004Z" class="skin" fill="#FCCBAE"/>
<path d="M12.0137 83.9557C12.0137 83.9557 18.546 81.796 23.1874 91.2783" stroke="#BA754D" stroke-width="2.12663" stroke-linecap="square" stroke-linejoin="round"/>
<path d="M19.1253 86.7148C19.1253 86.7148 12.9075 90.4019 17.6177 96.0035" stroke="#BA754D" stroke-width="2.12663" stroke-linecap="square" stroke-linejoin="round"/>
<path d="M107.577 66.6025C107.577 85.0271 105.067 100.921 102.592 112.225C100.151 123.26 93.2748 132.911 83.5795 139.154L81.8261 140.301C71.5462 146.881 58.3097 147.016 47.858 140.706C37.3375 134.328 29.9801 123.969 27.7109 112.09C23.5853 90.5275 23.1383 66.6362 23.1383 66.6362C23.1383 66.6362 19.2189 20.1021 64.7389 21.0132C110.259 21.9243 107.543 66.6362 107.543 66.6362L107.577 66.6025Z" class="skin" fill="#FCCBAE"/>
<path d="M61.8135 84.0879C61.8135 84.0879 63.5925 88.6811 63.5645 91.7506C63.5377 94.7026 61.8135 99.1043 61.8135 99.1043C61.8135 99.6105 61.9166 100.083 62.0885 100.522C62.8105 102.276 64.839 103.086 66.6955 102.614L70.6837 101.568" stroke="#CA8A64" stroke-width="2.65828" stroke-linecap="square" stroke-linejoin="round"/>
<path d="M46.2077 84.1148C48.3913 84.1148 50.1615 82.3774 50.1615 80.2342C50.1615 78.0909 48.3913 76.3535 46.2077 76.3535C44.0241 76.3535 42.2539 78.0909 42.2539 80.2342C42.2539 82.3774 44.0241 84.1148 46.2077 84.1148Z" class="hair" fill="#684B47"/>
<path d="M82.8229 84.1148C85.0065 84.1148 86.7767 82.3774 86.7767 80.2342C86.7767 78.0909 85.0065 76.3535 82.8229 76.3535C80.6393 76.3535 78.8691 78.0909 78.8691 80.2342C78.8691 82.3774 80.6393 84.1148 82.8229 84.1148Z" class="hair" fill="#684B47"/>
<path d="M45.0548 109.351L85.0928 107.161C85.0928 107.161 82.6582 121.731 64.5995 122.236C46.5408 122.742 45.0221 109.352 45.0221 109.352L45.0548 109.351Z" fill="#AE5655"/>
<path d="M53.8418 120.436C56.623 121.685 60.4516 122.822 65.2598 122.687C70.068 122.553 73.7629 120.845 76.3892 119.168C75.1077 117.698 70.6475 116.799 63.0875 117.576C56.5263 118.254 54.781 119.361 53.8418 120.436Z" fill="#D97F7E"/>
<path d="M56.2462 71.3259L56.3838 63.7671L42.0814 64.0033C40.2936 64.0033 38.5402 64.6782 37.165 65.8255L31.4922 72.2708L40.9469 70.8872L56.2462 71.3597V71.3259Z" class="hair" fill="#684B47"/>
<path d="M72.9891 71.3259L72.8516 63.7671L87.1539 64.0033C88.9417 64.0033 90.6951 64.6782 92.0703 65.8255L97.7775 72.2708L88.3228 70.8872L73.0235 71.3597L72.9891 71.3259Z" class="hair" fill="#684B47"/>
<path d="M82.8253 107.601L82.9581 107.221C65.8772 108.234 54.658 108.548 47.0533 109.296C47.2335 109.585 48.5549 111.409 48.721 111.707C49.1873 112.487 50.4209 113.025 51.8849 113.082C57.9852 113.337 64.8879 113.356 78.3833 111.981C79.9559 111.822 82.5208 108.501 82.8253 107.601Z" fill="white"/>
</svg>
