<svg width="130" height="210" viewBox="0 0 130 210" fill="none" xmlns="http://www.w3.org/2000/svg">
<path d="M65.8857 201.882C49.4176 201.882 36.0781 188.79 36.0781 172.626V110.368H95.6933V172.626C95.6933 188.79 82.3538 201.882 65.8857 201.882Z" class="skin" fill="#FCCBAE"/>
<path d="M36.0781 130.142C36.0781 130.142 52.4775 160.073 71.2146 158.588C100.197 156.327 95.3839 121.064 95.3839 121.064C95.3839 121.064 84.1415 144.584 66.367 144.584C46.5297 144.584 36.0781 130.108 36.0781 130.108V130.142Z" fill="#DFB095"/>
<path d="M21.3978 88.7705L18.4412 59.1767C14.625 40.2461 29.6491 30.2578 42.8167 30.2578H88.3703C102.329 30.2578 118.934 40.1786 111.852 61.5051L107.795 93.7646L21.4322 88.7705H21.3978Z" class="hair" fill="#684B47"/>
<path d="M104.667 105.002C113.709 111.548 129.317 81.7856 120.516 74.7331C111.715 67.6805 105.904 80.6046 105.904 80.6046L105.698 91.5378L104.392 101.796L103.876 104.968H104.667V105.002Z" class="skin" fill="#FCCBAE"/>
<path d="M117.106 84.1144C117.106 84.1144 111.841 80.9451 107.499 89.8161" stroke="#BA754D" stroke-width="2" stroke-linecap="square" stroke-linejoin="round"/>
<path d="M110.159 86.7393C110.159 86.7393 116.27 90.1448 111.864 95.3854" stroke="#BA754D" stroke-width="2" stroke-linecap="square" stroke-linejoin="round"/>
<path d="M25.8327 105.003C16.7907 111.549 1.18212 81.7864 9.98343 74.7339C18.7847 67.6813 24.32 80.7403 24.32 80.7403L24.8356 91.5385L26.1421 101.797L26.6234 104.969H25.8327V105.003Z" class="skin" fill="#FCCBAE"/>
<path d="M13.2656 84.1159C13.2656 84.1159 19.3768 82.0954 23.719 90.9664" stroke="#BA754D" stroke-width="2" stroke-linecap="square" stroke-linejoin="round"/>
<path d="M19.9183 86.6968C19.9183 86.6968 14.1014 90.1461 18.5079 95.3866" stroke="#BA754D" stroke-width="2" stroke-linecap="square" stroke-linejoin="round"/>
<path d="M107.657 66.6018C107.657 85.0262 105.147 100.92 102.672 112.224C100.231 123.259 93.3548 132.909 83.6596 139.152L81.9062 140.299C71.6266 146.88 58.3902 147.015 47.9387 140.704C37.4184 134.327 30.061 123.967 27.7919 112.089C23.6663 90.5265 23.2194 66.6355 23.2194 66.6355C23.2194 66.6355 19.3 20.1021 64.8193 21.0132C110.339 21.9243 107.623 66.6355 107.623 66.6355L107.657 66.6018Z" class="skin" fill="#FCCBAE"/>
<path d="M61.8555 85.0205C61.8555 85.0205 63.5198 89.3176 63.4937 92.1892C63.4685 94.9509 61.8555 99.0689 61.8555 99.0689C61.8555 99.5424 61.952 99.9844 62.1128 100.395C62.7882 102.036 64.6859 102.794 66.4228 102.352L70.1538 101.373" stroke="#CA8A64" stroke-width="2.5" stroke-linecap="square" stroke-linejoin="round"/>
<path d="M46.2887 84.1142C48.4723 84.1142 50.2424 82.3768 50.2424 80.2336C50.2424 78.0904 48.4723 76.353 46.2887 76.353C44.1051 76.353 42.335 78.0904 42.335 80.2336C42.335 82.3768 44.1051 84.1142 46.2887 84.1142Z" class="hair" fill="#684B47"/>
<path d="M82.9039 84.1142C85.0875 84.1142 86.8576 82.3768 86.8576 80.2336C86.8576 78.0904 85.0875 76.353 82.9039 76.353C80.7203 76.353 78.9502 78.0904 78.9502 80.2336C78.9502 82.3768 80.7203 84.1142 82.9039 84.1142Z" class="hair" fill="#684B47"/>
<path d="M56.3279 71.3253L56.4654 63.7666L42.1633 64.0028C40.3755 64.0028 38.6222 64.6777 37.2469 65.825L31.5742 72.2702L41.0288 70.8867L56.3279 71.3591V71.3253Z" class="hair" fill="#684B47"/>
<path d="M73.0711 71.3253L72.9336 63.7666L87.2357 64.0028C89.0235 64.0028 90.7769 64.6777 92.1521 65.825L97.8592 72.2702L88.4046 70.8867L73.1055 71.3591L73.0711 71.3253Z" class="hair" fill="#684B47"/>
<path d="M50.6982 106.978C61.687 112.74 69.8993 112.347 80.6273 106.978" stroke="#BA754D" stroke-width="2.5" stroke-linecap="square"/>
<path d="M60.291 115.529C60.291 115.529 66.1483 117.576 69.9111 115.529" stroke="#BA754D" stroke-width="2.5" stroke-linecap="square"/>
</svg>
