<svg width="130" height="210" viewBox="0 0 130 210" fill="none" xmlns="http://www.w3.org/2000/svg">
<path d="M65.5048 201.976C49.0368 201.976 35.6973 188.883 35.6973 172.719V110.461H95.3124V172.719C95.3124 188.883 81.9729 201.976 65.5048 201.976Z" class="skin" fill="#FCCBAE"/>
<path d="M35.6973 130.235C35.6973 130.235 52.0966 160.166 70.8338 158.681C99.8162 156.421 95.003 121.158 95.003 121.158C95.003 121.158 83.7607 144.678 65.9862 144.678C46.1488 144.678 35.6973 130.201 35.6973 130.201V130.235Z" fill="#DFB095"/>
<path d="M21.017 88.8642L18.0603 59.2705C14.2441 40.3399 29.2682 30.3516 42.4358 30.3516H87.9895C101.948 30.3516 118.553 40.2724 111.471 61.5988L107.414 93.8584L21.0514 88.8642H21.017Z" class="hair" fill="#684B47"/>
<path d="M104.286 105.095C113.328 111.641 128.936 81.8789 120.135 74.8263C111.334 67.7738 105.524 80.6979 105.524 80.6979L105.317 91.631L104.011 101.889L103.495 105.061H104.286V105.095Z" class="skin" fill="#FCCBAE"/>
<path d="M116.798 84.0173C116.798 84.0173 111.533 80.8479 107.19 89.7189" stroke="#BA754D" stroke-width="2" stroke-linecap="square" stroke-linejoin="round"/>
<path d="M109.851 86.6421C109.851 86.6421 115.962 90.0477 111.555 95.2882" stroke="#BA754D" stroke-width="2" stroke-linecap="square" stroke-linejoin="round"/>
<path d="M25.4518 105.096C16.4098 111.642 0.801259 81.8797 9.60257 74.8271C18.4039 67.7746 23.9391 80.8336 23.9391 80.8336L24.4548 91.6318L25.7612 101.89L26.2426 105.062H25.4518V105.096Z" class="skin" fill="#FCCBAE"/>
<path d="M11.957 84.0182C11.957 84.0182 18.0682 81.9978 22.4104 90.8688" stroke="#BA754D" stroke-width="2" stroke-linecap="square" stroke-linejoin="round"/>
<path d="M18.6097 86.5991C18.6097 86.5991 12.7928 90.0485 17.1993 95.289" stroke="#BA754D" stroke-width="2" stroke-linecap="square" stroke-linejoin="round"/>
<path d="M107.276 66.6951C107.276 85.1195 104.766 101.013 102.291 112.317C99.85 123.352 92.974 133.003 83.2788 139.245L81.5254 140.393C71.2457 146.973 58.0094 147.108 47.5578 140.798C37.0375 134.42 29.6801 124.06 27.4111 112.182C23.2854 90.6198 22.8385 66.7288 22.8385 66.7288C22.8385 66.7288 18.9192 20.1954 64.4385 21.1065C109.958 22.0176 107.242 66.7288 107.242 66.7288L107.276 66.6951Z" class="skin" fill="#FCCBAE"/>
<path d="M66.5774 130.306C64.9774 130.306 63.9474 130.076 63.8574 130.056L64.4674 127.436C64.4674 127.436 68.0274 128.206 72.0774 126.516L73.1174 128.996C70.5974 130.046 68.2674 130.306 66.5774 130.306Z" fill="#BA754D"/>
<path d="M83.5469 110.796C80.8069 107.946 74.2969 107.986 66.1969 107.986C58.0969 107.986 52.8269 109.796 49.4069 111.796C45.8769 113.856 48.1269 123.336 66.1969 123.346C83.7169 123.356 86.0869 113.446 83.5569 110.796H83.5469Z" fill="#AE5655"/>
<path d="M66.1864 107.986C60.7164 107.986 54.4764 109.007 51.0762 110.882C52.4711 111.575 54.1564 112.505 54.1564 112.505L66.1864 112.136L78.8019 111.692C78.8019 111.692 79.7649 110.871 81.0287 109.233C77.6732 107.873 71.6064 107.976 66.1864 107.976V107.986Z" fill="white"/>
<path d="M65.777 119.786C60.127 120.176 57.397 121.096 56.167 122.056C58.767 122.846 62.057 123.346 66.187 123.346C70.427 123.346 73.777 122.766 76.387 121.846C75.317 120.486 72.537 119.316 65.777 119.786Z" fill="#D97F7E"/>
<path d="M61.8555 85.0215C61.8555 85.0215 63.5198 89.3186 63.4937 92.1902C63.4685 94.9519 61.8555 99.0699 61.8555 99.0699C61.8555 99.5434 61.952 99.9854 62.1128 100.396C62.7882 102.037 64.6859 102.795 66.4228 102.353L70.1538 101.374" stroke="#CA8A64" stroke-width="2.5" stroke-linecap="square" stroke-linejoin="round"/>
<path fill-rule="evenodd" clip-rule="evenodd" d="M42.4945 77.9761C42.1794 78.5332 42 79.1744 42 79.8567C42 81.9999 43.7701 83.7373 45.9537 83.7373C48.1373 83.7373 49.9074 81.9999 49.9074 79.8567C49.9074 79.1744 49.728 78.5332 49.413 77.9761H42.4945Z" class="hair" fill="#684B47"/>
<path fill-rule="evenodd" clip-rule="evenodd" d="M79.4945 77.9761C79.1794 78.5332 79 79.1744 79 79.8567C79 81.9999 80.7701 83.7373 82.9537 83.7373C85.1373 83.7373 86.9074 81.9999 86.9074 79.8567C86.9074 79.1744 86.728 78.5332 86.413 77.9761H79.4945Z" class="hair" fill="#684B47"/>
<path d="M57.4997 70.2409L57.9997 65.479L43.9559 59.0029C42.0167 59.0029 40.1147 59.6378 38.623 60.7171L32.4697 66.7806L42.7252 65.479L57.4997 70.2727V70.2409Z" class="hair" fill="#684B47"/>
<path d="M70.4639 72.7058L70.4996 67.7375L86.4996 64.0391C88.3619 64.0391 90.1884 64.674 91.6209 65.7533L97.5658 71.8168L87.7173 70.5153L70.4997 72.7375L70.4639 72.7058Z" class="hair" fill="#684B47"/>
</svg>
