<svg width="215" height="243" viewBox="0 0 215 243" fill="none" xmlns="http://www.w3.org/2000/svg">
<g clip-path="url(#clip0_209_24)">
<path class="hair" d="M114.014 56.8441C114.014 56.8441 77.4248 32.589 54.226 47.8663C25.1704 67.0188 63.7564 106.571 42.2504 119.86C20.7444 133.148 10.0654 143.192 9.16038 166.377C3.22805 210.369 85.3792 267.186 149.782 224.711C214.184 182.236 186.459 111.045 154.394 98.3714C115.812 83.1148 114.046 56.8724 114.046 56.8724L114.014 56.8441Z" fill="#190F0D"/>
<path class="skin" d="M164.947 111.473C165.859 103.183 161.396 95.8907 154.979 95.1843C148.562 94.4778 142.619 100.625 141.707 108.915C140.794 117.204 145.257 124.497 151.674 125.203C158.092 125.909 164.034 119.762 164.947 111.473Z" fill="#E98C7B"/>
<path class="skin" d="M49.7524 109.117C48.9215 100.819 53.4557 93.5707 59.8798 92.9275C66.3038 92.2842 72.1852 98.4896 73.016 106.788C73.8469 115.086 69.3128 122.334 62.8887 122.977C56.4646 123.62 50.5833 117.415 49.7524 109.117Z" fill="#E98C7B"/>
<path class="skin" d="M130.061 169.789C128.205 166.81 127.64 149.577 127.64 149.577L109.786 150.319L91.9883 151.891C91.9883 151.891 93.6539 169.05 92.1981 172.253C90.7424 175.446 77.1438 181.229 77.1438 181.229C81.2822 197.819 102.037 206.992 114.554 205.663C129.772 204.058 146.597 190.971 147.965 177.027C147.965 177.027 131.916 172.778 130.051 169.799L130.061 169.789Z" fill="#E98C7B"/>
<path d="M128.365 160.921C128.127 158.5 127.959 156.019 127.849 153.988C125.474 155.097 119.633 157.348 110.29 157.952C98.8159 158.695 93.098 156.227 92.3298 155.863C92.4706 157.734 92.6191 160.055 92.7177 162.375C95.6806 165.85 101.794 171.32 111.117 170.716C119.73 170.158 125.366 164.756 128.365 160.931L128.365 160.921Z" fill="#9C3D28"/>
<path class="skin" d="M64.4718 76.0749C64.4718 76.0749 70.6542 43.0949 107.447 42.6359C144.248 42.537 150.926 75.4203 150.926 75.4203C150.926 75.4203 153.645 112.324 142.681 137.33C136.643 151.111 123.49 161.836 108.379 162.012C93.2689 162.068 79.9006 151.542 73.6479 137.851C62.31 113.015 64.4718 76.0749 64.4718 76.0749Z" fill="#E98C7B"/>
<path d="M126.02 124.224C123.284 121.673 117.135 122.056 109.477 122.484C101.819 122.911 96.9424 124.896 93.8133 126.974C90.5872 129.107 93.5538 144.035 110.628 143.102C127.183 142.187 128.567 126.606 126.021 124.234L126.02 124.224Z" fill="#190F0D"/>
<path d="M109.477 122.484C104.315 122.772 100.218 123.852 97.1579 125.185C97.3153 126.568 97.6091 127.884 98.3958 128.16C99.3255 128.489 105.138 128.014 110.109 127.717C114.591 127.447 121.414 126.585 121.957 125.733C122.178 125.39 122.22 123.986 122.251 122.562C119.051 121.939 114.609 122.207 109.477 122.494L109.477 122.484Z" fill="white"/>
<path d="M100.627 141.397C103.219 142.614 106.504 143.322 110.627 143.092C114.761 142.861 117.952 141.722 120.365 140.095C119.497 138.711 116.924 137.482 109.962 138.352C103.925 139.11 101.468 140.308 100.627 141.397Z" fill="#A06275"/>
<path class="hair" d="M143.647 90.2322L144.005 108.689C144.005 108.689 151.199 102.037 150.751 89.2208L143.647 90.2322Z" fill="#190F0D"/>
<path d="M63.3622 117.191C63.4207 115.472 63.8854 100.284 61.1273 95.8301L58.8303 97.2488C60.8047 100.429 60.8245 112.649 60.6627 117.088L63.3622 117.181L63.3622 117.191Z" fill="#9C3D28"/>
<path d="M55.932 105.446L62.5605 107.468L61.7699 110.06L55.1414 108.038L55.932 105.446Z" fill="#9C3D28"/>
<path class="hair" d="M66.2308 112.08C66.2308 112.08 59.2426 107.566 57.2116 87.8568L64.2393 86.4766L66.2308 112.08Z" fill="#190F0D"/>
<path d="M86.1272 104.269C88.3551 104.361 90.2438 102.435 90.3456 99.9686C90.4475 97.5018 88.7239 95.4275 86.496 95.3355C84.268 95.2435 82.3794 97.1687 82.2775 99.6355C82.1757 102.102 83.8992 104.177 86.1272 104.269Z" fill="#340C00"/>
<path d="M127.985 101.933C130.213 102.025 132.101 100.099 132.203 97.6326C132.305 95.1658 130.581 93.0915 128.353 92.9996C126.125 92.9076 124.237 94.8328 124.135 97.2996C124.033 99.7664 125.757 101.841 127.985 101.933Z" fill="#340C00"/>
<path d="M150.987 119.872C150.965 118.162 150.849 103.081 153.681 98.715L155.934 100.176C153.908 103.296 153.619 115.425 153.677 119.825L150.987 119.862L150.987 119.872Z" fill="#9C3D28"/>
<path d="M158.627 108.432L152.003 110.291L152.73 112.881L159.354 111.022L158.627 108.432Z" fill="#9C3D28"/>
<path d="M109.042 97.1933C109.336 103.985 109.718 107.847 113.428 115.491L104.417 115.119" stroke="#9C3D28" stroke-width="2.5"/>
<path class="hair" d="M73.0791 90.3442C72.8546 85.0467 77.7438 81.9998 89.6211 83.3655L73.0791 90.3442Z" fill="#340C00"/>
<path class="hair" d="M137.978 86.7221C137.233 81.4724 131.871 79.3676 120.441 82.8751L137.978 86.7221Z" fill="#340C00"/>
<path class="hair" d="M45.8513 56.7295C70.7531 44.5318 106.745 63.4169 106.745 63.4169C106.745 63.4169 114.771 81.4634 153.354 96.72C161.5 99.9338 172.838 112.381 178.257 120.047C178.257 120.047 165.487 88.9463 160.896 68.635C156.273 48.2954 138.228 52.49 138.228 52.49C138.228 52.49 125.129 24.6632 83.15 28.684C61.9954 29.9551 45.8513 56.7295 45.8513 56.7295Z" fill="#190F0D"/>
</g>
<defs>
<clipPath id="clip0_209_24">
<rect width="215" height="243" fill="white"/>
</clipPath>
</defs>
</svg>
