<svg width="215" height="243" viewBox="0 0 215 243" fill="none" xmlns="http://www.w3.org/2000/svg">
<g clip-path="url(#clip0_209_24)">
<path class="hair" d="M113.129 56.1283C113.129 56.1283 76.3212 32.2056 53.2617 47.6924C24.3807 67.1072 63.3233 106.309 41.9385 119.791C20.5537 133.274 9.96611 143.414 9.2711 166.606C3.7374 210.65 86.3997 266.721 150.415 223.664C214.43 180.608 186.061 109.671 153.883 97.2882C115.164 82.3817 113.161 56.1563 113.161 56.1563L113.129 56.1283Z" fill="#190F0D"/>
<path class="skin" d="M164.553 110.294C165.39 101.996 160.861 94.7445 154.438 94.0962C148.014 93.4479 142.128 99.6487 141.291 107.946C140.453 116.243 144.982 123.495 151.405 124.144C157.829 124.792 163.715 118.591 164.553 110.294Z" fill="#E98C7B"/>
<path class="skin" d="M49.3425 108.982C48.4365 100.691 52.9049 93.4023 59.3229 92.7009C65.7409 91.9995 71.6782 98.1514 72.5842 106.442C73.4902 114.732 69.0218 122.021 62.6038 122.722C56.1858 123.424 50.2485 117.272 49.3425 108.982Z" fill="#E98C7B"/>
<path class="skin" d="M130.197 168.924C128.315 165.961 127.593 148.734 127.593 148.734L109.747 149.638L91.964 151.372C91.964 151.372 93.7849 168.514 92.3582 171.73C90.9314 174.936 77.3858 180.842 77.3858 180.842C81.6743 197.395 102.512 206.378 115.016 204.937C130.219 203.194 146.924 189.955 148.166 175.999C148.166 175.999 132.079 171.896 130.187 168.934L130.197 168.924Z" fill="#E98C7B"/>
<path d="M128.42 160.071C128.16 157.652 127.97 155.173 127.842 153.143C125.476 154.273 119.656 156.577 110.319 157.266C98.852 158.113 93.112 155.697 92.3405 155.34C92.4982 157.209 92.6678 159.529 92.7874 161.848C95.7817 165.296 101.944 170.71 111.261 170.022C119.869 169.386 125.456 163.933 128.42 160.081L128.42 160.071Z" fill="#9C3D28"/>
<path class="skin" d="M63.7609 75.8072C63.7609 75.8072 69.6444 42.7726 106.431 41.9805C143.23 41.5483 150.206 74.3698 150.206 74.3698C150.206 74.3698 153.258 111.247 142.522 136.352C136.609 150.187 123.554 161.031 108.445 161.343C93.3356 161.536 79.8725 151.131 73.4961 137.497C61.9337 112.765 63.7609 75.8072 63.7609 75.8072Z" fill="#E98C7B"/>
<path d="M109.224 135.094C107.034 135.103 105.611 134.409 105.511 134.349L106.79 131.834L106.155 133.096L106.78 131.834C106.91 131.903 110.087 133.37 114.265 130.583L115.835 132.936C113.322 134.617 111.014 135.086 109.234 135.094L109.224 135.094Z" fill="#9C3D28"/>
<path class="hair" d="M143.062 89.2477L143.588 107.701C143.588 107.701 150.721 100.984 150.157 88.172L143.062 89.2477Z" fill="#190F0D"/>
<path d="M63.0243 116.933C63.0672 115.213 63.3944 100.021 60.596 95.5929L58.312 97.0323C60.3151 100.194 60.4456 112.414 60.3239 116.854L63.0242 116.923L63.0243 116.933Z" fill="#9C3D28"/>
<path d="M55.4882 105.255L62.1348 107.217L61.3677 109.816L54.7211 107.854L55.4882 105.255Z" fill="#9C3D28"/>
<path class="hair" d="M65.9289 112.196C65.9289 112.196 58.8814 107.654 56.6082 87.6548L63.623 86.2109L65.9289 112.196Z" fill="#190F0D"/>
<path d="M86.573 103.238C89.7892 103.029 92.2504 100.609 92.0658 97.7664C91.8813 94.9233 89.4586 97.9356 86.2424 98.1444C83.0262 98.3531 80.2344 95.6793 80.4189 98.5224C80.6035 101.365 83.3568 103.446 86.573 103.238Z" fill="#340C00"/>
<path d="M127.486 100.582C130.702 100.373 133.163 97.9542 132.979 95.1111C132.794 92.268 130.372 95.2803 127.155 95.4891C123.939 95.6979 121.147 93.024 121.332 95.8671C121.517 98.7102 124.27 100.791 127.486 100.582Z" fill="#340C00"/>
<path d="M150.67 118.819C150.633 117.109 150.38 102.03 153.172 97.6386L155.438 99.0793C153.441 102.218 153.261 114.348 153.359 118.748L150.67 118.809L150.67 118.819Z" fill="#9C3D28"/>
<path d="M158.206 107.31L151.599 109.229L152.349 111.813L158.956 109.894L158.206 107.31Z" fill="#9C3D28"/>
<path d="M108.52 96.5214C108.877 103.311 109.293 107.168 113.072 114.779L104.059 114.488" stroke="#9C3D28" stroke-width="2.5"/>
<path d="M104.905 128.745C97.2249 128.777 91.7886 127.259 91.3882 127.151L92.1275 124.568C92.2977 124.617 109.698 129.435 126.214 121.227L127.414 123.632C119.43 127.605 111.375 128.718 104.915 128.745L104.905 128.745Z" fill="#9C3D28"/>
<path d="M75.3172 84.9814C76.917 79.9263 82.5532 78.7342 93.2482 84.0775L75.3172 84.9814Z" fill="#340C00"/>
<path d="M135.165 85.3828C133.889 80.2362 128.34 78.6882 117.327 83.3408L135.165 85.3828Z" fill="#340C00"/>
<path class="hair" d="M44.9661 56.6313C69.7564 44.2086 105.918 62.7671 105.918 62.7671C105.918 62.7671 114.107 80.7401 152.826 95.6467C161.001 98.7865 172.451 111.131 177.939 118.747C177.939 118.747 164.888 87.7634 160.113 67.4945C155.307 47.1976 137.3 51.5555 137.3 51.5555C137.3 51.5555 123.95 23.8485 82.0092 28.2492C60.867 29.7118 44.9661 56.6313 44.9661 56.6313Z" fill="#190F0D"/>
</g>
<defs>
<clipPath id="clip0_209_24">
<rect width="215" height="243" fill="white"/>
</clipPath>
</defs>
</svg>
