<svg width="215" height="243" viewBox="0 0 215 243" fill="none" xmlns="http://www.w3.org/2000/svg">
<path d="M120.814 56.9074C120.814 56.9074 85.6333 30.6507 61.619 44.6113C31.5411 62.1147 67.8627 103.756 45.6495 115.826C23.4363 127.895 12.2141 137.328 10.0184 160.426C1.6434 204.019 80.5002 265.326 147.17 226.507C213.839 187.687 190.125 115.062 158.817 100.621C121.144 83.2374 120.844 56.9374 120.844 56.9374L120.814 56.9074Z" fill="#190F0D"/>
<path d="M168.622 114.29C169.995 106.064 165.946 98.5339 159.578 97.4709C153.21 96.4079 146.935 102.214 145.561 110.44C144.188 118.666 148.238 126.196 154.606 127.259C160.974 128.322 167.249 122.515 168.622 114.29Z" fill="#E98C7B"/>
<path d="M53.7397 105.517C53.3725 97.1857 58.3037 90.2013 64.7536 89.9171C71.2036 89.6329 76.7299 96.1565 77.097 104.488C77.4641 112.819 72.533 119.804 66.083 120.088C59.6331 120.372 54.1068 113.849 53.7397 105.517Z" fill="#E98C7B"/>
<path d="M130.542 170.571C128.855 167.493 129.251 150.255 129.251 150.255L111.384 150.001L93.5258 150.579C93.5258 150.579 94.2325 167.804 92.6004 170.92C90.969 174.027 77.0693 179.043 77.0693 179.043C80.2766 195.839 100.488 206.154 113.059 205.525C128.343 204.77 145.871 192.641 148.015 178.796C148.015 178.796 132.227 173.659 130.531 170.58L130.542 170.571Z" fill="#E98C7B"/>
<path d="M129.342 161.622C129.239 159.191 129.21 156.705 129.213 154.671C126.78 155.645 120.822 157.568 111.46 157.65C99.9624 157.753 94.391 154.97 93.6442 154.564C93.6805 156.439 93.6995 158.765 93.6686 161.087C96.4333 164.722 102.232 170.524 111.574 170.44C120.205 170.364 126.134 165.284 129.341 161.632L129.342 161.622Z" fill="#9C3D28"/>
<path d="M70.277 73.3468C70.277 73.3468 78.2878 40.7626 115.049 42.355C151.798 44.3073 156.633 77.5117 156.633 77.5117C156.633 77.5117 157.291 114.51 144.951 138.866C138.154 152.289 124.424 162.264 109.327 161.597C94.2366 160.811 81.4757 149.556 75.9958 135.538C66.0597 110.109 70.277 73.3468 70.277 73.3468Z" fill="#E98C7B"/>
<path d="M126.819 131.049C126.819 131.049 121.669 127.169 113.429 127.169H113.409C105.469 127.169 99.6787 130.659 99.6187 130.689L98.1387 128.279C98.3987 128.119 104.629 124.339 113.409 124.339H113.429C122.689 124.339 128.319 128.629 128.559 128.809L126.829 131.039L126.819 131.049Z" fill="#9C3D28"/>
<path d="M110.439 134.029L110.159 131.219C110.369 131.199 115.279 130.719 118.679 131.219L118.259 134.009C115.209 133.549 110.489 134.009 110.439 134.009V134.029Z" fill="#9C3D28"/>
<path d="M148.54 91.895L147.869 110.344C147.869 110.344 155.422 104.103 155.689 91.2811L148.54 91.895Z" fill="#190F0D"/>
<path d="M66.8776 114.337C67.0318 112.623 68.3423 97.485 65.8367 92.8846L63.4642 94.1731C65.2583 97.4579 64.5971 109.66 64.188 114.084L66.8782 114.327L66.8776 114.337Z" fill="#9C3D28"/>
<path d="M60.1126 102.197L66.6182 104.585L65.6843 107.129L59.1788 104.741L60.1126 102.197Z" fill="#9C3D28"/>
<path d="M70.0263 109.395C70.0263 109.395 63.3006 104.498 62.3712 84.7061L69.4648 83.7197L70.0263 109.395Z" fill="#190F0D"/>
<path d="M90.3272 102.704C92.5466 102.92 94.5396 101.103 94.7788 98.6456C95.0179 96.1883 93.4127 94.0212 91.1933 93.8052C88.974 93.5892 86.9809 95.4061 86.7418 97.8634C86.5026 100.321 88.1079 102.488 90.3272 102.704Z" fill="#340C00"/>
<path d="M132.25 102.704C134.469 102.92 136.462 101.103 136.702 98.6456C136.941 96.1883 135.336 94.0212 133.116 93.8052C130.897 93.5892 128.904 95.4061 128.665 97.8634C128.425 100.321 130.031 102.488 132.25 102.704Z" fill="#340C00"/>
<path d="M154.217 121.897C154.291 120.189 155.016 105.125 158.086 100.924L160.254 102.508C158.058 105.51 157.093 117.604 156.906 122.001L154.218 121.888L154.217 121.897Z" fill="#9C3D28"/>
<path d="M162.483 110.902L155.766 112.389L156.347 115.015L163.064 113.528L162.483 110.902Z" fill="#9C3D28"/>
<path d="M113.601 96.916C113.517 103.714 113.682 107.59 116.961 115.43L107.985 114.556" stroke="#9C3D28" stroke-width="2.5"/>
<path d="M81.9156 86.7599C82.7494 81.5236 88.147 79.5101 99.5153 83.2112L81.9156 86.7599Z" fill="#340C00"/>
<path d="M138.568 87.5095C137.629 82.2911 132.192 80.3869 120.9 84.3164L138.568 87.5095Z" fill="#340C00"/>
<path d="M52.7641 52.9941C78.307 42.2032 113.19 63.065 113.19 63.065C113.19 63.065 120.198 81.5308 157.871 98.914C165.825 102.577 176.452 115.637 181.435 123.593C181.435 123.593 170.418 91.8286 166.966 71.293C163.484 50.7273 145.233 53.9097 145.233 53.9097C145.233 53.9097 133.706 25.3961 91.5679 27.071C70.3753 27.1611 52.7641 52.9941 52.7641 52.9941Z" fill="#190F0D"/>
</svg>
