<svg width="215" height="243" viewBox="0 0 215 243" fill="none" xmlns="http://www.w3.org/2000/svg">
<path d="M121.41 56.7541C121.41 56.7541 86.229 30.4974 62.2147 44.458C32.1369 61.9613 68.4584 103.603 46.2452 115.672C24.032 127.741 12.8098 137.174 10.6141 160.273C2.2391 203.866 81.0959 265.173 147.765 226.353C214.435 187.534 190.721 114.908 159.412 100.467C121.74 83.0841 121.44 56.7841 121.44 56.7841L121.41 56.7541Z" fill="#190F0D"/>
<path d="M169.218 114.136C170.591 105.911 166.542 98.3806 160.174 97.3176C153.806 96.2546 147.53 102.061 146.157 110.287C144.784 118.512 148.833 126.042 155.201 127.105C161.569 128.168 167.845 122.362 169.218 114.136Z" fill="#E98C7B"/>
<path d="M54.3354 105.364C53.9682 97.0324 58.8994 90.048 65.3493 89.7638C71.7993 89.4796 77.3256 96.0031 77.6927 104.335C78.0598 112.666 73.1287 119.65 66.6788 119.935C60.2288 120.219 54.7025 113.695 54.3354 105.364Z" fill="#E98C7B"/>
<path d="M131.137 170.417C129.451 167.339 129.847 150.102 129.847 150.102L111.979 149.848L94.1215 150.426C94.1215 150.426 94.8282 167.65 93.1961 170.767C91.5647 173.874 77.665 178.89 77.665 178.89C80.8723 195.686 101.084 206 113.655 205.372C128.939 204.617 146.467 192.488 148.611 178.642C148.611 178.642 132.823 173.505 131.127 170.427L131.137 170.417Z" fill="#E98C7B"/>
<path d="M129.938 161.468C129.835 159.038 129.806 156.551 129.809 154.518C127.375 155.492 121.418 157.414 112.056 157.497C100.558 157.6 94.9867 154.817 94.2399 154.41C94.2762 156.286 94.2952 158.612 94.2643 160.934C97.029 164.568 102.828 170.371 112.17 170.287C120.801 170.21 126.73 165.131 129.937 161.478L129.938 161.468Z" fill="#9C3D28"/>
<path d="M70.8727 73.1935C70.8727 73.1935 78.8835 40.6093 115.645 42.2017C152.394 44.154 157.229 77.3584 157.229 77.3584C157.229 77.3584 157.886 114.356 145.547 138.713C138.75 152.135 125.02 162.111 109.922 161.444C94.8323 160.658 82.0714 149.403 76.5915 135.385C66.6554 109.955 70.8727 73.1935 70.8727 73.1935Z" fill="#E98C7B"/>
<path d="M130.303 125.463C127.563 122.613 121.053 122.653 112.953 122.653C104.853 122.653 99.5827 124.463 96.1627 126.463C92.6327 128.523 94.8828 138.003 112.953 138.013C130.473 138.023 132.843 128.113 130.313 125.463H130.303Z" fill="#190F0D"/>
<path d="M112.943 122.654C107.473 122.654 103.103 123.554 99.7832 124.774C99.8632 126.234 100.093 127.644 100.913 127.984C101.873 128.384 108.043 128.224 113.303 128.204C118.043 128.184 125.293 127.674 125.923 126.804C126.183 126.454 126.303 124.974 126.413 123.474C123.073 122.634 118.363 122.644 112.943 122.644V122.654Z" fill="white"/>
<path d="M112.533 134.453C106.883 134.843 104.153 135.763 102.923 136.723C105.523 137.513 108.813 138.013 112.943 138.013C117.183 138.013 120.533 137.433 123.143 136.513C122.073 135.153 119.293 133.983 112.533 134.453Z" fill="#A06275"/>
<path d="M149.135 91.7417L148.465 110.19C148.465 110.19 156.018 103.949 156.285 91.1278L149.135 91.7417Z" fill="#190F0D"/>
<path d="M67.4733 114.184C67.6275 112.47 68.9381 97.3317 66.4324 92.7312L64.0599 94.0197C65.854 97.3046 65.1928 109.507 64.7838 113.93L67.4739 114.174L67.4733 114.184Z" fill="#9C3D28"/>
<path d="M60.7083 102.044L67.2139 104.432L66.28 106.976L59.7745 104.588L60.7083 102.044Z" fill="#9C3D28"/>
<path d="M70.622 109.241C70.622 109.241 63.8963 104.344 62.9669 84.5528L70.0605 83.5664L70.622 109.241Z" fill="#190F0D"/>
<path fill-rule="evenodd" clip-rule="evenodd" d="M87.0733 95.083C86.7055 95.7334 86.4961 96.4819 86.4961 97.2784C86.4961 99.7804 88.5625 101.809 91.1116 101.809C93.6607 101.809 95.7272 99.7804 95.7272 97.2784C95.7272 96.4819 95.5177 95.7334 95.1499 95.083H87.0733Z" fill="#340C00"/>
<path fill-rule="evenodd" clip-rule="evenodd" d="M129.073 95.083C128.706 95.7334 128.496 96.4819 128.496 97.2784C128.496 99.7804 130.563 101.809 133.112 101.809C135.661 101.809 137.727 99.7804 137.727 97.2784C137.727 96.4819 137.518 95.7334 137.15 95.083H129.073Z" fill="#340C00"/>
<path d="M154.812 121.744C154.886 120.035 155.611 104.972 158.681 100.77L160.849 102.355C158.653 105.357 157.688 117.451 157.501 121.847L154.812 121.734L154.812 121.744Z" fill="#9C3D28"/>
<path d="M163.079 110.748L156.361 112.235L156.943 114.862L163.66 113.375L163.079 110.748Z" fill="#9C3D28"/>
<path d="M114.197 96.7627C114.112 103.561 114.278 107.437 117.556 115.276L108.58 114.403" stroke="#9C3D28" stroke-width="2.5"/>
<path d="M86.6728 86.4175C88.175 81.3325 93.7873 80.0321 104.583 85.1688L86.6728 86.4175Z" fill="#340C00"/>
<path d="M142.218 86.1318C140.556 81.0967 134.906 79.9738 124.277 85.448L142.218 86.1318Z" fill="#340C00"/>
<path d="M53.3598 52.8407C78.9027 42.0499 113.786 62.9117 113.786 62.9117C113.786 62.9117 120.794 81.3774 158.466 98.7607C166.421 102.423 177.047 115.483 182.03 123.439C182.03 123.439 171.014 91.6753 167.562 71.1396C164.08 50.574 145.829 53.7564 145.829 53.7564C145.829 53.7564 134.301 25.2428 92.1636 26.9177C70.971 27.0077 53.3598 52.8407 53.3598 52.8407Z" fill="#190F0D"/>
</svg>
