<svg width="215" height="243" viewBox="0 0 215 243" fill="none" xmlns="http://www.w3.org/2000/svg">
<path class="hair" d="M114.756 55.8295C114.756 55.8295 78.3619 31.2826 55.0416 46.3739C25.8338 65.2933 64.1022 105.153 42.4906 118.269C20.879 131.385 10.12 141.344 9.0296 164.52C2.7456 208.464 84.4397 265.935 149.18 223.977C213.92 182.018 186.765 110.608 154.803 97.6785C116.343 82.1138 114.788 55.8581 114.788 55.8581L114.756 55.8295Z" fill="#190F0D"/>
<path class="skin" d="M165.25 110.865C166.229 102.583 161.825 95.2547 155.413 94.497C149.002 93.7392 143.011 99.8387 142.032 108.121C141.053 116.402 145.457 123.73 151.869 124.488C158.281 125.246 164.272 119.147 165.25 110.865Z" fill="#E98C7B"/>
<path class="skin" d="M50.0793 107.587C49.3148 99.2829 53.9068 92.0711 60.3359 91.4793C66.7649 90.8874 72.5964 97.1397 73.3609 105.444C74.1254 113.748 69.5334 120.96 63.1043 121.552C56.6753 122.144 50.8438 115.892 50.0793 107.587Z" fill="#E98C7B"/>
<path class="skin" d="M129.899 168.899C128.068 165.905 127.64 148.668 127.64 148.668L109.781 149.267L91.9712 150.697C91.9712 150.697 93.4995 167.868 92.0182 171.06C90.537 174.241 76.8926 179.915 76.8926 179.915C80.8982 196.538 101.579 205.876 114.106 204.648C129.337 203.164 146.265 190.212 147.745 176.28C147.745 176.28 131.731 171.903 129.889 168.909L129.899 168.899Z" fill="#E98C7B"/>
<path d="M128.274 160.017C128.055 157.594 127.907 155.112 127.814 153.081C125.429 154.17 119.57 156.375 110.223 156.904C98.7434 157.556 93.0454 155.042 92.2802 154.672C92.406 156.544 92.536 158.866 92.616 161.187C95.5511 164.685 101.62 170.204 110.948 169.674C119.565 169.186 125.245 163.829 128.274 160.027L128.274 160.017Z" fill="#9C3D28"/>
<path class="skin" d="M65.0611 74.6634C65.0611 74.6634 71.507 41.7339 108.302 41.5692C145.103 41.7647 151.518 74.7003 151.518 74.7003C151.518 74.7003 153.941 111.625 142.778 136.543C136.63 150.274 123.392 160.894 108.28 160.949C93.1695 160.884 79.8858 150.251 73.7428 136.511C62.6039 111.585 65.0611 74.6634 65.0611 74.6634Z" fill="#E98C7B"/>
<path class="hair" d="M126.919 124.036C124.046 121.32 117.545 121.671 109.454 122.058C101.364 122.445 96.1861 124.504 92.8655 126.665C89.4379 128.891 92.138 138.253 110.188 137.4C127.688 136.574 129.582 126.562 126.929 124.036L126.919 124.036Z" fill="#190F0D"/>
<path d="M109.445 122.058C103.982 122.32 99.6595 123.427 96.4015 124.804C96.5511 126.259 96.8482 127.656 97.6835 127.957C98.6615 128.31 104.817 127.856 110.07 127.585C114.804 127.339 122.021 126.483 122.609 125.584C122.852 125.222 122.901 123.738 122.939 122.234C119.563 121.555 114.859 121.79 109.445 122.048L109.445 122.058Z" fill="white"/>
<path d="M109.599 133.865C103.974 134.524 101.291 135.573 100.109 136.591C102.743 137.256 106.053 137.598 110.179 137.401C114.414 137.198 117.732 136.459 120.295 135.416C119.162 134.108 116.329 133.072 109.599 133.865Z" fill="#A06275"/>
<path class="hair" d="M144.121 89.4536L144.332 107.913C144.332 107.913 151.579 101.319 151.233 88.4991L144.121 89.4536Z" fill="#190F0D"/>
<path d="M63.6231 115.77C63.6953 114.051 64.2815 98.8676 61.5591 94.392L59.2508 95.7923C61.1997 98.9878 61.1218 111.208 60.9245 115.646L63.6232 115.76L63.6231 115.77Z" fill="#9C3D28"/>
<path d="M56.2873 103.966L62.8994 106.041L62.0881 108.627L55.476 106.552L56.2873 103.966Z" fill="#9C3D28"/>
<path class="hair" d="M66.5318 110.682C66.5318 110.682 59.58 106.112 57.7066 86.3875L64.7451 85.0635L66.5318 110.682Z" fill="#190F0D"/>
<path fill-rule="evenodd" clip-rule="evenodd" d="M82.2895 95.7537C81.9532 96.4209 81.7797 97.1785 81.8177 97.9741C81.9372 100.473 84.0981 102.4 86.6443 102.279C89.1905 102.157 91.1577 100.032 91.0383 97.5334C91.0002 96.7378 90.7553 96.0001 90.3569 95.3681L82.2895 95.7537Z" fill="#340C00"/>
<path fill-rule="evenodd" clip-rule="evenodd" d="M124.242 93.7488C123.905 94.416 123.732 95.1736 123.77 95.9693C123.889 98.4684 126.05 100.396 128.596 100.274C131.143 100.152 133.11 98.0276 132.99 95.5285C132.952 94.7329 132.707 93.9952 132.309 93.3632L124.242 93.7488Z" fill="#340C00"/>
<path d="M151.224 119.151C151.216 117.441 151.221 102.359 154.087 98.0161L156.328 99.4951C154.278 102.599 153.891 114.725 153.914 119.126L151.224 119.141L151.224 119.151Z" fill="#9C3D28"/>
<path d="M158.956 107.772L152.317 109.578L153.024 112.174L159.662 110.368L158.956 107.772Z" fill="#9C3D28"/>
<path d="M109.461 96.1364C109.701 102.931 110.052 106.795 113.701 114.469L104.694 114.025" stroke="#9C3D28" stroke-width="2.5"/>
<path class="hair" d="M81.4757 87.1179C82.7335 81.967 88.2773 80.4001 99.3061 85.0154L81.4757 87.1179Z" fill="#340C00"/>
<path class="hair" d="M136.944 84.1797C135.043 79.2297 129.346 78.3779 118.991 84.3533L136.944 84.1797Z" fill="#340C00"/>
<path class="hair" d="M46.5973 55.1695C71.5958 43.1714 107.436 62.3438 107.436 62.3438C107.436 62.3438 115.317 80.4539 153.776 96.0186C161.897 99.2974 173.135 111.835 178.492 119.544C178.492 119.544 165.971 88.3422 161.543 67.9948C157.083 47.6188 139.005 51.6691 139.005 51.6691C139.005 51.6691 126.129 23.7384 84.1191 27.4233C62.955 28.5251 46.5973 55.1695 46.5973 55.1695Z" fill="#190F0D"/>
</svg>
