<svg width="215" height="243" viewBox="0 0 215 243" fill="none" xmlns="http://www.w3.org/2000/svg">
<g clip-path="url(#clip0_209_24)">
<path class="hair" d="M113.314 55.7957C113.314 55.7957 76.6524 31.6502 53.4994 46.9969C24.5013 66.2363 63.2055 105.673 41.7394 119.026C20.2732 132.379 9.62435 142.455 8.78876 165.642C2.98814 209.652 85.309 266.222 149.584 223.554C213.859 180.887 185.921 109.779 153.818 97.2019C115.19 82.0609 113.346 55.8239 113.346 55.8239L113.314 55.7957Z" fill="#190F0D"/>
<path class="skin" d="M164.41 110.271C165.298 101.979 160.813 94.7 154.394 94.0128C147.974 93.3256 142.051 99.4906 141.163 107.783C140.275 116.075 144.76 123.354 151.179 124.041C157.599 124.728 163.522 118.564 164.41 110.271Z" fill="#E98C7B"/>
<path class="skin" d="M49.2096 108.261C48.3539 99.9651 52.8663 92.7032 59.2885 92.0408C65.7106 91.3783 71.6105 97.5661 72.4662 105.862C73.3219 114.157 68.8095 121.419 62.3873 122.081C55.9652 122.744 50.0653 116.556 49.2096 108.261Z" fill="#E98C7B"/>
<path class="skin" d="M129.699 168.692C127.835 165.718 127.218 148.487 127.218 148.487L109.366 149.282L91.5731 150.908C91.5731 150.908 93.29 168.061 91.8438 171.269C90.3976 174.466 76.8164 180.29 76.8164 180.29C81.0045 196.868 101.787 205.978 114.3 204.612C129.513 202.961 146.298 189.824 147.625 175.876C147.625 175.876 131.563 171.675 129.689 168.701L129.699 168.692Z" fill="#E98C7B"/>
<path d="M127.976 159.829C127.731 157.408 127.556 154.928 127.44 152.898C125.067 154.013 119.233 156.282 109.892 156.914C98.4203 157.692 92.695 155.241 91.9257 154.879C92.0721 156.749 92.2276 159.07 92.3332 161.39C95.3065 164.856 101.436 170.307 110.757 169.675C119.368 169.092 124.989 163.673 127.976 159.839L127.976 159.829Z" fill="#9C3D28"/>
<path class="skin" d="M63.8294 75.1744C63.8294 75.1744 69.913 42.1761 106.704 41.607C143.505 41.398 150.281 74.2611 150.281 74.2611C150.281 74.2611 153.11 111.157 142.222 136.196C136.225 149.994 123.104 160.759 107.994 160.98C92.8838 161.081 79.484 150.595 73.1903 136.923C61.7781 112.121 63.8294 75.1744 63.8294 75.1744Z" fill="#E98C7B"/>
<path d="M123.662 129.456C123.662 129.456 118.293 125.885 110.068 126.369L110.048 126.37C102.121 126.836 96.5461 130.66 96.488 130.694L94.8691 128.375C95.1192 128.2 101.117 124.06 109.881 123.545L109.901 123.544C119.145 123 125.018 126.952 125.268 127.117L123.672 129.445L123.662 129.456Z" fill="#9C3D28"/>
<path d="M107.486 133.393L107.042 130.604C107.25 130.572 112.123 129.804 115.547 130.104L115.291 132.914C112.22 132.634 107.535 133.37 107.485 133.373L107.486 133.393Z" fill="#9C3D28"/>
<path class="hair" d="M143.046 89.0943L143.46 107.55C143.46 107.55 150.634 100.877 150.147 88.0616L143.046 89.0943Z" fill="#190F0D"/>
<path d="M62.8431 116.294C62.8964 114.574 63.3157 99.3851 60.5443 94.9397L58.2515 96.3653C60.2354 99.5392 60.2918 111.759 60.1433 116.199L62.8431 116.284L62.8431 116.294Z" fill="#9C3D28"/>
<path d="M55.3772 104.571L62.0117 106.573L61.2289 109.168L54.5943 107.166L55.3772 104.571Z" fill="#9C3D28"/>
<path class="hair" d="M65.6961 111.175C65.6961 111.175 58.6944 106.681 56.6044 86.9784L63.6279 85.5771L65.6961 111.175Z" fill="#190F0D"/>
<path d="M85.5685 103.303C87.7967 103.388 89.6796 101.457 89.774 98.9899C89.8685 96.5228 88.1387 94.4536 85.9105 94.3683C83.6823 94.283 81.7994 96.2139 81.7049 98.681C81.6105 101.148 83.3402 103.217 85.5685 103.303Z" fill="#340C00"/>
<path d="M127.418 100.841C129.646 100.926 131.529 98.9951 131.624 96.528C131.718 94.0609 129.988 91.9917 127.76 91.9064C125.532 91.8211 123.649 93.7519 123.555 96.219C123.46 98.6861 125.19 100.755 127.418 100.841Z" fill="#340C00"/>
<path d="M150.475 118.712C150.448 117.002 150.287 101.922 153.106 97.547L155.363 99.0014C153.347 102.127 153.093 114.257 153.165 118.657L150.475 118.702L150.475 118.712Z" fill="#9C3D28"/>
<path d="M158.08 107.249L151.462 109.128L152.197 111.716L158.815 109.837L158.08 107.249Z" fill="#9C3D28"/>
<path d="M108.462 96.1582C108.777 102.949 109.17 106.81 112.903 114.443L103.891 114.098" stroke="#9C3D28" stroke-width="2.5"/>
<path d="M76.2353 87.8793C76.7601 82.6032 82.0302 80.2762 93.5962 83.3033L76.2353 87.8793Z" fill="#340C00"/>
<path d="M132.834 85.3019C131.59 80.1477 126.05 78.566 115.009 83.1518L132.834 85.3019Z" fill="#340C00"/>
<path class="hair" d="M45.1512 55.8849C70.0164 43.6128 106.065 62.3901 106.065 62.3901C106.065 62.3901 114.145 80.4125 152.773 95.5535C160.929 98.7429 172.304 111.156 177.745 118.806C177.745 118.806 164.883 87.7435 160.231 67.446C155.547 47.1203 137.514 51.369 137.514 51.369C137.514 51.369 124.332 23.5815 82.3658 27.7279C61.2151 29.0623 45.1512 55.8849 45.1512 55.8849Z" fill="#190F0D"/>
</g>
<defs>
<clipPath id="clip0_209_24">
<rect width="215" height="243" fill="white"/>
</clipPath>
</defs>
</svg>
