<svg width="215" height="243" viewBox="0 0 215 243" fill="none" xmlns="http://www.w3.org/2000/svg">
<g clip-path="url(#clip0_209_24)">
<path class="hair" d="M114.457 55.9304C114.457 55.9304 77.9881 31.4948 54.714 46.6573C25.5641 65.666 63.9542 105.409 42.3828 118.591C20.8113 131.773 10.0828 141.764 9.06328 164.944C2.91361 208.906 84.7829 266.128 149.394 223.972C214.006 181.816 186.633 110.489 154.631 97.6568C116.125 82.2097 114.489 55.9589 114.489 55.9589L114.457 55.9304Z" fill="#190F0D"/>
<path class="skin" d="M165.119 110.811C166.073 102.526 161.646 95.2114 155.232 94.4732C148.818 93.7351 142.846 99.8529 141.892 108.138C140.939 116.423 145.365 123.737 151.779 124.475C158.193 125.213 164.166 119.096 165.119 110.811Z" fill="#E98C7B"/>
<path class="skin" d="M49.9375 107.885C49.1476 99.5834 53.7176 92.3576 60.1448 91.7461C66.5719 91.1346 72.4225 97.369 73.2124 105.671C74.0023 113.973 69.4323 121.199 63.0051 121.81C56.5779 122.422 50.7274 116.187 49.9375 107.885Z" fill="#E98C7B"/>
<path class="skin" d="M129.945 168.953C128.105 165.964 127.625 148.729 127.625 148.729L109.767 149.383L91.9618 150.867C91.9618 150.867 93.5425 168.034 92.071 171.229C90.5995 174.415 76.9725 180.131 76.9725 180.131C81.0288 196.742 101.738 206.016 114.261 204.75C129.487 203.22 146.376 190.216 147.814 176.279C147.814 176.279 131.786 171.951 129.935 168.963L129.945 168.953Z" fill="#E98C7B"/>
<path d="M128.294 160.076C128.067 157.654 127.912 155.172 127.812 153.141C125.431 154.238 119.579 156.46 110.233 157.018C98.7555 157.705 93.0499 155.208 92.2835 154.841C92.415 156.712 92.5521 159.034 92.6392 161.355C95.585 164.844 101.671 170.344 110.997 169.786C119.612 169.271 125.276 163.897 128.294 160.086L128.294 160.076Z" fill="#9C3D28"/>
<path class="skin" d="M64.8202 74.9161C64.8202 74.9161 71.1654 41.9671 107.96 41.69C144.761 41.7729 151.277 74.6888 151.277 74.6888C151.277 74.6888 153.813 111.606 142.726 136.557C136.62 150.308 123.414 160.968 108.302 161.069C93.1919 161.05 79.8758 150.458 73.6908 136.737C62.4758 111.845 64.8202 74.9161 64.8202 74.9161Z" fill="#E98C7B"/>
<path d="M133.412 117.916C133.258 118.809 133.519 120.056 134.099 120.836" stroke="#9C3D28" stroke-width="2" stroke-linecap="square"/>
<path d="M111.653 135.879C109.463 135.857 108.05 135.143 107.951 135.082L109.265 132.585L108.613 133.839L109.255 132.585C109.385 132.656 112.54 134.168 116.757 131.439L118.294 133.814C115.757 135.459 113.443 135.897 111.663 135.879L111.653 135.879Z" fill="#9C3D28"/>
<path class="hair" d="M143.924 89.4646L144.191 107.923C144.191 107.923 151.418 101.307 151.033 88.4883L143.924 89.4646Z" fill="#190F0D"/>
<path d="M63.5077 116.027C63.5746 114.308 64.1144 99.1224 61.3784 94.6552L59.0744 96.0625C61.033 99.252 60.9925 111.472 60.8087 115.911L63.5078 116.017L63.5077 116.027Z" fill="#9C3D28"/>
<path d="M56.1345 104.245L62.7529 106.3L61.9495 108.888L55.3311 106.834L56.1345 104.245Z" fill="#9C3D28"/>
<path class="hair" d="M66.4011 110.93C66.4011 110.93 59.4353 106.381 57.5017 86.6619L64.5361 85.3164L66.4011 110.93Z" fill="#190F0D"/>
<path d="M86.3361 103.216C88.5635 103.319 90.4617 101.403 90.5757 98.9372C90.6897 96.4709 88.9765 94.3881 86.749 94.2851C84.5215 94.1821 82.6234 96.0979 82.5094 98.5642C82.3953 101.03 84.1086 103.113 86.3361 103.216Z" fill="#340C00"/>
<path d="M128.204 101.086C130.432 101.189 132.33 99.2736 132.444 96.8073C132.558 94.341 130.845 92.2582 128.617 92.1552C126.39 92.0522 124.492 93.9681 124.378 96.4343C124.263 98.9006 125.977 100.983 128.204 101.086Z" fill="#340C00"/>
<path d="M151.118 119.14C151.105 117.43 151.064 102.348 153.917 97.9964L156.163 99.4686C154.122 102.579 153.772 114.706 153.809 119.106L151.119 119.13L151.118 119.14Z" fill="#9C3D28"/>
<path d="M158.815 107.738L152.182 109.564L152.896 112.158L159.529 110.332L158.815 107.738Z" fill="#9C3D28"/>
<path d="M109.286 96.2535C109.547 103.047 109.909 106.91 113.582 114.573L104.573 114.156" stroke="#9C3D28" stroke-width="2.5"/>
<path d="M110.33 130.018C103.801 131.041 98.9463 130.243 98.5892 130.188L98.8274 127.539C98.9796 127.566 114.512 130.081 127.322 119.835L128.706 122.057C122.515 127.015 115.83 129.156 110.339 130.017L110.33 130.018Z" fill="#9C3D28"/>
<path d="M77.2141 87.1085C77.1725 81.8065 82.1639 78.93 93.987 80.7046L77.2141 87.1085Z" fill="#340C00"/>
<path d="M133.734 85.4243C132.531 80.2604 127.004 78.6348 115.927 83.1328L133.734 85.4243Z" fill="#340C00"/>
<path class="hair" d="M46.2966 55.4783C71.2584 43.4038 107.156 62.4666 107.156 62.4666C107.156 62.4666 115.093 80.5525 153.6 95.9996C161.731 99.2536 173.007 111.757 178.387 119.449C178.387 119.449 165.771 88.286 161.281 67.9522C156.758 47.59 138.693 51.6954 138.693 51.6954C138.693 51.6954 125.732 23.8042 83.7334 27.6175C62.5727 28.784 46.2966 55.4783 46.2966 55.4783Z" fill="#190F0D"/>
</g>
<defs>
<clipPath id="clip0_209_24">
<rect width="215" height="243" fill="white"/>
</clipPath>
</defs>
</svg>
