<svg width="215" height="243" viewBox="0 0 215 243" fill="none" xmlns="http://www.w3.org/2000/svg">
<path d="M207.098 134.34C205.953 138.991 201.905 138.85 199.363 141.864C198.75 142.628 195.475 143.833 196.339 141.713C197.314 139.292 197.505 137.032 197.113 134.883C196.972 137.685 196.179 140.287 194.36 142.186C193.296 143.28 191.347 143.17 190.091 144.335C188.263 146.123 187.891 148.886 185.822 150.553C185.42 150.875 184.998 151.196 184.566 151.488C181.683 153.567 178.016 155.405 174.38 155.787C170.683 156.119 168.102 140.749 168.102 140.749C168.102 140.749 169.98 161.533 158.076 161.955C155.012 162.065 152.923 163.753 150.09 163.271C145.007 162.427 141.351 162.467 136.489 164.667C135.534 165.099 134.65 165.682 133.616 165.893C131.355 166.405 131.225 165.853 129.246 165.632C124.936 165.17 122.546 165.099 118.407 165.812C113.113 166.716 108.06 168.344 102.867 169.348C98.2255 170.252 93.916 166.576 90.3901 163.994C90.3298 163.944 90.2595 163.864 90.1993 163.783C88.5217 165.983 86.0404 167.48 83.1272 167.289C81.2688 167.199 80.5656 166.325 79.099 165.491C78.7374 165.3 78.657 164.677 78.3255 164.507C76.9191 163.753 74.4982 164.255 72.9411 164.366C72.1275 164.436 71.334 163.833 71.2837 162.98C71.2335 162.447 71.2435 161.935 71.2636 161.443C69.4755 162.738 67.3157 163.733 65.0756 163.733C61.0373 163.753 60.2739 161.603 57.883 159.012C54.8192 155.646 50.7709 157.404 46.7728 155.867C46.6623 155.847 46.5117 155.777 46.3911 155.727C43.6688 154.551 42.3629 151.056 40.1328 150.352C37.7922 149.629 36.406 151.598 34.0855 149.76C31.4535 147.721 31.9055 143.843 32.7594 141.07C34.447 135.545 36.8981 134.702 35.2808 127.459C34.7484 125.038 33.9146 123.009 33.774 120.487C33.7137 119.523 33.7741 118.639 33.8444 117.755C32.9805 119.855 32.5987 122.185 32.6288 125.028C32.6589 127.579 33.1914 129.98 32.6489 132.502C31.3631 138.7 25.5468 139.513 27.7769 147.52C28.028 148.434 27.5459 149.107 26.682 149.298C23.3971 150.021 20.1525 149.348 18.284 146.304C16.0539 142.728 18.073 138.961 15.863 135.264C13.7233 131.758 11.7344 129.498 13.1206 125.048C13.2512 124.556 13.4321 124.084 13.643 123.632C12.2567 124.666 10.9307 125.751 9.87597 127.238C7.6057 130.452 7.2239 134.641 9.29326 138.067C9.92612 139.122 8.6604 140.458 7.6659 139.574C5.99836 138.107 4.84313 136.359 4.0194 134.501C-2.05809 127.971 -1.22433 116.389 6.39011 111.316C7.94716 110.291 9.69511 110.11 11.3325 109.367C17.2794 106.615 15.5716 104.354 14.6776 98.8897C13.7836 93.3949 14.1854 88.3922 17.0684 83.5503C20.2026 78.3167 25.3459 76.0665 29.1531 71.6264C33.4425 66.6037 30.3787 59.0395 32.9604 53.0624C34.8489 48.7429 38.3045 45.7895 42.604 44.0316C47.5162 42.0526 51.4741 40.6161 54.1964 35.8245C54.2266 31.7862 54.9297 27.5671 57.3808 24.8749C61.4693 20.4449 67.6673 21.0175 73.0818 20.8367C81.982 20.5453 85.9198 11.6049 95.021 11.0323C101.269 10.6707 106.543 13.3729 110.823 17.6221C116.85 13.835 124.625 11.5447 131.607 13.9254C134.6 14.93 137.152 16.7482 138.98 19.3399C140.306 21.1481 140.557 22.6047 141.973 23.8202C143.661 24.2923 145.449 24.895 147.227 25.7087C148.171 25.7891 149.116 25.8494 149.869 26.0402C159.724 28.5013 166.786 37.6728 169.136 47.668C171.467 49.5064 173.325 49.6771 176.148 50.7018C179.684 52.0277 182.919 54.2679 184.305 57.8943C185.078 59.8431 184.968 61.7618 184.988 63.8311C185.008 69.1452 187.519 70.1095 191.588 72.3898C194.26 73.9067 196.289 76.3176 197.053 79.3413C198.238 84.0124 195.305 86.4032 194.642 90.6726C194.531 91.3054 194.521 91.878 194.511 92.4205C195.576 95.9866 197.324 98.3674 199.785 102.034C201.392 104.395 202.286 106.384 202.296 109.337C202.346 113.024 200.659 116.369 200.358 119.975C200.297 120.889 200.347 121.713 200.468 122.496C200.82 123.23 201.282 123.933 201.904 124.556C204.838 127.449 208.324 129.518 207.108 134.32L207.098 134.34Z" fill="#3E1A00"/>
<path d="M183.512 141.674C183.572 138.851 182.487 135.968 180.508 133.959C178.529 131.89 175.867 131.026 173.094 130.503C170.031 129.901 169.368 130.132 169.036 126.807C168.855 124.808 169.418 122.879 168.835 120.799C168.253 118.72 167.077 116.721 165.209 115.556C164.184 114.913 163.079 114.983 162.105 114.501C158.418 112.673 157.052 110.463 157.002 106.515C156.992 101.944 156.751 95.8767 150.874 95.3543C147.117 95.0128 144.676 97.8757 141.291 98.7496C136.539 100.005 132.32 96.6602 127.609 97.4237C125.399 97.7954 123.601 99.0109 121.571 99.8446C117.292 101.562 113.173 101.854 108.623 101.241C102.575 100.427 96.7892 98.2976 90.6716 97.9762C81.5302 97.494 73.1925 100.809 65.2867 104.908C59.7316 106.997 55.623 111.206 54.4979 117.364C53.8349 121.03 54.4578 124.446 55.7035 127.861C58.3052 134.933 54.2871 136.149 49.4351 139.032C44.8745 141.714 43.9101 145.22 45.5776 150.122C46.5018 152.824 47.5265 153.728 46.753 155.868C50.7611 157.415 54.8093 155.647 57.8631 159.012C60.254 161.614 61.0174 163.754 65.0557 163.734C67.3059 163.734 69.4556 162.739 71.2437 161.443C71.2337 161.925 71.2237 162.438 71.2638 162.98C71.3141 163.824 72.1076 164.437 72.9212 164.366C74.4783 164.256 76.8993 163.754 78.3057 164.507C78.6372 164.678 78.7175 165.291 79.0791 165.492C80.5457 166.325 81.2489 167.199 83.1073 167.29C86.0205 167.481 88.5018 165.974 90.1794 163.784C90.2396 163.864 90.31 163.945 90.3703 163.995C93.8962 166.576 98.2157 170.253 102.847 169.349C108.04 168.334 113.103 166.717 118.387 165.813C122.526 165.1 124.927 165.17 129.226 165.632C131.205 165.853 131.346 166.406 133.596 165.893C134.63 165.682 135.514 165.09 136.469 164.668C141.331 162.468 144.987 162.418 150.07 163.271C152.903 163.754 154.992 162.056 158.056 161.956C169.96 161.534 168.082 140.75 168.082 140.75C168.082 140.75 170.663 156.119 174.36 155.788C177.997 155.406 181.663 153.568 184.546 151.488C180.267 148.203 183.411 145.873 183.491 141.694L183.512 141.674Z" fill="#231000"/>
<path class="skin" d="M130.231 168.947C128.353 165.964 127.7 148.655 127.7 148.655L109.768 149.489L91.8976 151.157C91.8976 151.157 93.6556 168.384 92.2091 171.609C90.7625 174.824 77.1309 180.7 77.1309 180.7C81.37 197.345 102.265 206.457 114.831 205.06C130.111 203.373 146.947 190.143 148.253 176.13C148.253 176.13 132.11 171.941 130.221 168.957L130.231 168.947Z" fill="#FFB784"/>
<path d="M128.483 160.047C128.232 157.616 128.051 155.125 127.93 153.086C125.549 154.211 119.693 156.501 110.311 157.154C98.7884 157.958 93.0323 155.507 92.2588 155.145C92.4095 157.024 92.5702 159.354 92.6807 161.685C95.6743 165.161 101.842 170.625 111.205 169.972C119.854 169.37 125.489 163.915 128.483 160.057V160.047Z" fill="#BA4E00"/>
<path class="skin" d="M63.8909 75.1328C63.8909 75.1328 69.9383 41.9728 106.895 41.3299C143.863 41.0486 150.734 74.0479 150.734 74.0479C150.734 74.0479 153.647 111.106 142.758 136.279C136.761 150.152 123.601 160.991 108.422 161.242C93.2438 161.373 79.7628 150.865 73.4141 137.143C61.902 112.251 63.8909 75.1328 63.8909 75.1328Z" fill="#FFB784"/>
<path class="skin" d="M164.983 110.184C165.859 101.852 161.34 94.5489 154.89 93.871C148.44 93.193 142.501 99.3975 141.626 107.729C140.75 116.06 145.269 123.364 151.719 124.042C158.169 124.72 164.107 118.515 164.983 110.184Z" fill="#FFB784"/>
<path d="M150.622 53.3333C146.202 48.2101 141.159 43.3883 134.811 40.7765C129.105 38.4259 120.817 36.1255 114.639 36.8689C114.408 35.1109 114.609 34.1666 115.212 32.047C115.473 31.1229 114.127 30.2188 113.394 30.8918C112.178 32.0069 111.354 33.3328 110.872 34.7493C110.892 34.3474 110.912 33.9356 110.923 33.584C110.923 32.8507 109.918 32.9411 109.737 33.5338C109.526 34.2269 109.325 34.9502 109.124 35.6835C99.541 32.6196 87.9787 33.152 79.4602 38.3857C69.6659 44.4029 66.6423 59.7825 65.7382 70.9028C64.603 71.9174 63.7492 73.2032 63.1163 74.5995C61.71 74.3182 60.625 73.9365 59.1483 74.5794C58.5958 74.8205 58.3849 75.3529 58.5356 75.9155C58.9575 77.4926 60.2835 78.467 61.9611 78.9793C61.941 79.14 61.9007 79.2907 61.8907 79.4514C61.8103 80.5263 63.1364 80.9884 63.6889 80.024C63.7994 79.8231 63.8898 79.5921 64.0003 79.3811C66.9637 79.6825 70.3189 78.9793 72.0266 77.814C74.1362 76.3775 75.1005 73.8059 76.0046 71.4754C77.7625 71.2544 79.3598 70.9831 81.0575 70.069C85.7085 67.5476 86.4318 64.1422 87.1852 60.0537C87.2253 59.9633 87.2655 59.8729 87.3158 59.7825C88.692 57.1305 90.9722 54.3981 93.9156 53.2128C97.3913 51.8165 101.068 52.9114 104.433 50.7315C106.141 49.6266 107.577 48.0193 108.652 46.1709C109.285 48.1599 110.511 49.9179 112.741 51.2137C114.268 52.1078 116.287 52.2886 117.753 53.2329C126.031 58.5569 121.199 58.5268 121.47 63.1678C121.581 65.0664 122.354 66.5029 123.821 67.7385C125.84 69.4361 128.492 69.0846 130.893 69.6773C133.012 70.1996 134.831 71.827 135.946 73.6653C136.458 74.5091 136.99 75.5739 137.041 76.5684C137.101 77.7136 136.408 78.688 136.297 79.8231C136.167 81.2395 136.036 82.3948 136.378 83.8112C137.673 89.1352 142.736 90.6421 147.508 89.4567C149.959 88.8439 145.981 84.8057 145.459 84.0422C143.651 81.4204 142.626 78.457 142.425 75.2826C142.284 73.0626 142.977 71.0535 142.013 68.8435C139.783 63.6801 133.505 64.6847 130.421 60.8774C128.1 58.0145 129.989 54.0867 128.663 50.6512C129.627 51.0932 130.571 51.5653 131.445 52.1178C134.811 54.2575 134.208 56.7488 136.147 59.451C137.302 61.0683 138.959 61.3596 140.396 62.5048C144.695 65.9504 143.148 69.4462 144.022 73.6854C144.474 75.8753 145.509 76.5584 147.016 78.0752C148.643 79.7227 149.909 81.3098 150.341 83.6203C150.893 86.6138 150.863 89.7179 151.968 92.5909C152.973 95.1927 154.54 97.6036 156.278 99.7734C157.021 100.698 162.857 107.669 164.515 105.76C167.8 101.963 158.447 76.4579 158.136 71.8672C157.614 64.2728 155.605 59.0692 150.642 53.3233L150.622 53.3333ZM68.2596 73.595C67.6669 73.5548 67.245 74.1374 67.3856 74.6095C67.1546 74.6698 66.8834 74.6799 66.6322 74.7201C66.7126 74.6296 66.7829 74.5292 66.8633 74.4488C67.2149 74.4187 67.5062 74.1977 67.6167 73.7758C67.9984 73.4744 68.4102 73.2534 68.8221 73.0425C68.6111 73.3639 68.4203 73.605 68.2596 73.595Z" fill="#3E1A00"/>
<path d="M213.799 121.533C212.996 119.815 211.69 119.655 210.926 118.298C209.249 115.315 209.309 112.231 209.882 109.067C210.354 106.465 211.157 104.898 210.565 102.206C209.048 95.4149 201.463 95.2442 199.505 89.0964C197.767 83.6618 197.476 79.4728 191.177 77.8555C190.132 77.5843 189.7 79.1514 190.614 79.6135C197.877 83.26 193.226 90.7137 197.315 95.5656C201.162 100.136 207.943 97.8359 205.974 107.218C205.261 110.624 202.719 113.065 203.754 116.812C204.417 119.243 205.211 118.921 206.597 120.689C210.735 125.973 209.219 127.239 207.461 131.599C206.928 132.915 208.435 134.441 209.691 133.467C213.187 130.755 215.879 125.973 213.809 121.533H213.799Z" fill="#3E1A00"/>
<path d="M59.2988 24.7338C56.5263 27.4963 54.4468 30.6807 51.9556 33.6743C48.5903 37.7125 45.185 38.5363 40.1121 38.7673C35.8126 38.9682 31.8948 40.2038 28.9816 43.5288C25.6767 47.316 25.6164 51.5752 25.6064 56.3167C25.5662 66.7639 21.4677 70.7018 13.4414 76.0962C10.036 78.3865 7.5849 81.7317 6.79131 85.8403C5.65618 91.7168 9.42327 95.6948 10.1064 101.23C11.3821 111.526 -3.94722 117.524 3.69736 128.885C4.31013 129.799 5.93742 129.247 5.7566 128.121C4.52101 120.155 7.90631 116.429 11.8944 110.16C13.9637 106.916 15.0486 103.801 14.2952 99.944C13.14 93.977 8.41866 89.8283 11.9245 83.4394C14.6669 78.4367 21.2066 77.1308 24.7928 72.7711C27.6859 69.2552 29.3635 64.8453 29.705 60.3248C30.2977 52.4291 29.0521 44.1919 39.3687 42.9261C43.7787 42.3837 47.4753 42.9964 51.1319 40.0129C55.3309 36.5874 58.5555 30.5703 60.8459 25.7284C61.318 24.7238 60.012 24.0206 59.2888 24.7338H59.2988Z" fill="#3E1A00"/>
<path d="M163.741 30.5105C163.942 30.5406 158.558 30.4904 158.829 30.5909C157.151 29.9781 156.247 29.7973 155.685 28.2503C154.469 24.9152 152.932 21.5198 150.009 19.34C143.751 14.699 135.252 15.0908 128.532 18.4258C127.457 18.9583 127.648 20.9272 129.044 20.666C137.904 19.0286 148.392 17.9838 151.566 28.7124C152.32 31.2539 152.048 33.3534 154.72 34.6794C157.232 35.925 160.346 34.5488 162.958 34.8301C168.061 35.3826 172.491 38.7377 174.319 43.5495C176.911 50.3503 172.079 55.2524 172.34 61.6715C172.39 62.8568 173.887 63.1381 174.6 62.3746C184.877 51.4954 178.749 32.3991 163.731 30.5005L163.741 30.5105Z" fill="#3E1A00"/>
<path d="M111.215 21.2991C110.924 20.9173 110.371 20.9776 110.15 21.3995C109.306 22.9967 109.648 24.4031 109.547 26.2012C109.377 29.2751 107.809 30.8021 106.343 33.2933C104.806 35.9152 105.579 39.2603 106.966 41.7616C107.387 42.515 108.483 41.9525 108.442 41.2091C108.272 38.0347 107.669 36.1663 109.557 33.1929C110.291 32.0376 111.074 31.1235 111.536 29.7975C112.4 27.2962 112.892 23.499 111.195 21.2991H111.215Z" fill="#231000"/>
<path d="M75.2413 55.0915C71.9364 60.4859 68.6315 67.8794 61.7403 69.135C58.8171 69.6674 56.1751 69.346 53.503 70.903C48.3597 73.9066 46.5315 79.9439 46.1498 85.5292C46.0995 86.2625 46.1498 88.794 46.0393 89.1355C44.9745 92.8021 42.3525 95.0322 39.4494 96.7499C37.2896 98.0257 35.2504 98.9599 33.623 100.989C30.5391 104.847 29.3136 110.191 31.5537 114.681C32.0861 115.746 33.7436 115.495 33.6733 114.199C33.382 109.136 33.9143 103.953 38.5352 100.848C40.7653 99.3517 43.6283 99.0504 45.8383 97.5134C50.2382 94.4495 48.9423 89.7282 49.4647 85.047C50.1679 78.638 53.1313 73.987 59.8115 72.5505C62.4836 71.9779 65.1958 72.3898 67.657 70.9231C72.5893 67.9899 74.3975 60.5462 76.6276 55.7244C77.0495 54.8102 75.7436 54.2577 75.2413 55.0714V55.0915Z" fill="#231000"/>
<path d="M37.7522 92.3702C30.0976 95.0825 21.1973 100.628 24.9342 110.01C27.5561 116.59 22.3726 118.77 20.6649 124.516C19.4494 128.624 19.9316 133.325 22.6539 136.65C23.0055 137.072 23.7487 136.861 23.6985 136.269C23.136 130.382 22.0712 125.882 25.9287 120.839C27.325 119.011 28.9423 117.614 29.3039 115.234C29.7459 112.391 27.566 110.683 27.0939 108.111C25.6976 100.507 32.6189 96.4085 38.1941 93.204C38.6763 92.9327 38.2444 92.1994 37.7522 92.3702Z" fill="#231000"/>
<path d="M96.9194 16.307C92.6701 16.7591 89.6967 17.6029 86.4018 20.3855C85.347 21.2695 84.5635 22.505 83.4987 23.3488C77.9034 27.809 76.2259 25.1872 71.1529 25.0566C64.0006 24.8758 58.5157 33.2436 55.7632 38.9795C55.492 39.5521 56.2454 40.2855 56.7678 39.8133C59.8517 37.0508 62.1823 32.7715 65.5877 30.5012C70.7711 27.0556 74.0459 29.6875 79.2495 28.9843C81.3188 28.7031 82.8156 27.8593 84.4128 26.5433C88.9132 22.8365 91.2136 19.0092 97.1203 17.181C97.6126 17.0303 97.4216 16.2467 96.9194 16.307Z" fill="#231000"/>
<path d="M124.062 40.4953C122.063 38.4661 119.653 35.3219 116.438 35.9547C115.604 36.1155 115.715 37.2305 116.559 37.2506C119 37.3109 121.39 41.2487 122.847 42.9062C123.701 43.8806 124.464 44.7746 124.957 46.0002C125.409 47.1152 125.509 48.2805 126.051 49.3553C126.473 50.1891 127.729 50.1992 127.94 49.1846C128.663 45.6586 126.363 42.8258 124.062 40.4852V40.4953Z" fill="#231000"/>
<path d="M179.262 106.273C175.304 102.637 169.387 102.898 170 95.7755C170.261 92.6916 170.643 89.909 169.779 86.8552C169.015 84.153 167.619 81.5814 165.288 79.9038C162.817 78.1257 160.005 78.196 157.855 75.5541C155.695 72.9021 155.595 68.914 155.022 65.7296C153.555 57.5928 148.934 52.0679 141.541 48.3912C141.2 48.2205 140.747 48.6825 141.039 49.004C143.791 52.0679 147.166 54.6998 149.427 58.1554C152.069 62.1836 151.978 66.8346 153.053 71.325C153.716 74.0875 154.831 77.0609 157.081 78.9595C160.236 81.6316 163.973 81.4106 166.213 85.6296C169.196 91.245 164.304 99.0504 168.774 103.922C171.346 106.735 175.605 106.012 178.247 109.146C181.894 113.486 180.758 118.348 179.593 123.36C179.342 124.445 180.829 124.747 181.331 123.913C184.867 117.986 184.867 111.426 179.272 106.283L179.262 106.273Z" fill="#231000"/>
<path d="M196.601 120.528C194.983 116.53 190.433 115.988 188.825 112.402C186.917 108.132 188.253 103.371 185.189 99.252C182.929 96.2183 179.965 94.9627 176.289 95.1334C175.545 95.1636 175.485 96.3489 176.229 96.4494C187.6 97.9361 182.426 109.508 186.947 115.666C187.73 116.731 188.494 116.601 189.398 117.485C192.894 120.9 194.772 123.492 194.461 128.253C194.3 130.664 194.059 130.795 193.969 133.196C193.939 133.989 195.094 134.049 195.395 133.447C197.404 129.499 198.308 124.767 196.591 120.528H196.601Z" fill="#231000"/>
<path d="M151.014 118.699C150.984 116.981 150.793 101.833 153.616 97.4326L155.886 98.8892C153.867 102.033 153.636 114.219 153.716 118.639L151.014 118.689V118.699Z" fill="#BA4E00"/>
<path d="M158.64 107.292L151.995 109.192L152.738 111.79L159.383 109.89L158.64 107.292Z" fill="#BA4E00"/>
<path d="M108.09 118.297C106.995 118.137 97.3711 116.6 96.5474 111.045C95.9648 107.087 99.8122 105.138 102.625 103.721C103.619 103.219 105.126 102.456 105.327 102.044C105.99 100.698 106.02 95.5947 105.829 92.4003L108.662 92.2295C108.743 93.6359 109.104 100.798 107.869 103.29C107.246 104.555 105.689 105.339 103.901 106.243C101.068 107.669 99.0789 108.825 99.3501 110.623C99.7921 113.576 106.251 115.163 108.481 115.485L108.08 118.297H108.09Z" fill="#BA4E00"/>
<path d="M109.125 149.298C107.608 149.298 106.623 149.077 106.543 149.057L107.116 146.565C107.116 146.565 110.501 147.299 114.348 145.691L115.333 148.052C112.942 149.057 110.722 149.298 109.115 149.298H109.125Z" fill="#BA4E00"/>
<path d="M125.277 125.912C122.675 123.2 116.487 123.24 108.783 123.24C101.078 123.24 96.0751 124.958 92.8204 126.867C89.4652 128.826 91.6049 143.964 108.783 143.984C125.438 143.994 127.698 128.444 125.277 125.922V125.912Z" fill="#231000"/>
<path d="M108.772 123.23C103.579 123.23 99.4098 124.084 96.2656 125.25C96.346 126.646 96.5669 127.982 97.3404 128.303C98.2546 128.685 104.111 128.534 109.114 128.514C113.624 128.494 120.515 128.012 121.108 127.188C121.349 126.857 121.47 125.45 121.58 124.024C118.406 123.22 113.936 123.24 108.772 123.24V123.23Z" fill="white"/>
<path d="M98.8379 141.714C101.369 143.08 104.624 143.974 108.773 143.974C112.932 143.974 116.196 143.009 118.708 141.513C117.914 140.076 115.403 138.7 108.371 139.182C102.273 139.604 99.742 140.669 98.8379 141.714Z" fill="#A06275"/>
<path d="M80.625 99.1809L82.4834 100.668C82.4834 100.668 83.6587 96.9207 86.0093 96.5892C88.36 96.2577 89.5353 100.226 89.5353 100.226L91.6549 99.2512C91.6549 99.2512 90.2987 92.4404 85.9892 92.782C81.4085 93.1436 80.625 99.1708 80.625 99.1708V99.1809Z" fill="#4D3A37"/>
<path d="M124.032 98.9504L125.821 100.517C125.821 100.517 127.157 96.8208 129.517 96.5998C131.878 96.3788 132.882 100.387 132.882 100.387L135.042 99.5029C135.042 99.5029 133.977 92.6419 129.648 92.8026C125.057 92.9734 124.022 98.9604 124.022 98.9604L124.032 98.9504Z" fill="#4D3A37"/>
<path d="M90.2591 77.7844C84.714 77.8848 78.3452 81.029 75.4622 84.344C74.98 84.9066 74.0257 85.9714 74.4778 86.5741C74.7791 86.9759 75.613 86.976 76.3061 86.8755C81.2987 86.1522 85.367 83.1386 90.5706 83.1989C91.9066 83.219 93.2326 83.4299 94.5787 83.1788C97.7832 82.576 97.4818 79.914 95.5732 78.8994C94.0262 78.0757 92.1979 77.7442 90.2591 77.7743V77.7844Z" fill="#3E1A00"/>
<path d="M141.873 87.5887C141.501 87.9704 140.657 87.89 139.954 87.7293C139.422 87.5987 138.919 87.4781 138.417 87.2973C135.424 86.343 132.832 84.7056 129.868 83.7714C128.753 83.3997 127.538 83.1285 126.242 83.0582C124.866 82.9577 123.48 83.0582 122.164 82.7166C119.049 81.8929 119.863 79.3213 121.993 78.4875C123.59 77.8446 125.368 77.6537 127.196 77.7743C127.337 77.7743 127.447 77.7743 127.588 77.7944C131.184 78.1359 134.901 79.7633 137.714 81.7924C139.241 82.8874 140.486 84.1129 141.3 85.3485C141.682 85.9311 142.445 87.0362 141.873 87.5987V87.5887Z" fill="#3E1A00"/>
</svg>
