<svg width="215" height="243" viewBox="0 0 215 243" fill="none" xmlns="http://www.w3.org/2000/svg">
<path d="M207.098 134.34C205.953 138.991 201.904 138.85 199.363 141.864C198.75 142.628 195.475 143.833 196.339 141.713C197.314 139.292 197.505 137.032 197.113 134.883C196.972 137.685 196.179 140.287 194.36 142.186C193.296 143.281 191.347 143.17 190.091 144.335C188.263 146.123 187.891 148.886 185.822 150.553C185.42 150.875 184.998 151.196 184.566 151.488C181.683 153.567 178.016 155.405 174.38 155.787C170.683 156.119 168.102 140.749 168.102 140.749C168.102 140.749 169.98 161.533 158.076 161.955C155.012 162.065 152.923 163.753 150.09 163.271C145.007 162.427 141.351 162.467 136.489 164.667C135.534 165.099 134.65 165.682 133.616 165.893C131.355 166.405 131.225 165.853 129.246 165.632C124.936 165.17 122.546 165.099 118.407 165.812C113.113 166.717 108.06 168.344 102.866 169.348C98.2254 170.253 93.916 166.576 90.3901 163.994C90.3298 163.944 90.2594 163.864 90.1991 163.783C88.5215 165.983 86.0404 167.48 83.1272 167.289C81.2688 167.199 80.5656 166.325 79.099 165.491C78.7374 165.3 78.657 164.677 78.3255 164.507C76.9191 163.753 74.4982 164.255 72.9411 164.366C72.1275 164.436 71.3338 163.833 71.2836 162.98C71.2334 162.447 71.2434 161.935 71.2635 161.443C69.4754 162.739 67.3156 163.733 65.0755 163.733C61.0372 163.753 60.2739 161.603 57.883 159.012C54.8192 155.646 50.7708 157.404 46.7727 155.867C46.6622 155.847 46.5115 155.777 46.391 155.727C43.6687 154.551 42.3628 151.056 40.1327 150.353C37.7921 149.629 36.4058 151.598 34.0853 149.76C31.4534 147.721 31.9055 143.843 32.7594 141.071C34.447 135.546 36.8981 134.702 35.2808 127.459C34.7484 125.038 33.9146 123.009 33.774 120.487C33.7137 119.523 33.7739 118.639 33.8443 117.755C32.9803 119.855 32.5987 122.185 32.6288 125.028C32.6589 127.579 33.1914 129.98 32.6489 132.502C31.3631 138.7 25.5467 139.513 27.7768 147.52C28.0279 148.434 27.5458 149.107 26.6818 149.298C23.397 150.021 20.1523 149.348 18.2839 146.304C16.0538 142.728 18.0729 138.961 15.8629 135.264C13.7232 131.758 11.7342 129.498 13.1205 125.048C13.2511 124.556 13.4319 124.084 13.6429 123.632C12.2566 124.666 10.9306 125.751 9.87585 127.238C7.60558 130.452 7.2239 134.641 9.29326 138.067C9.92612 139.122 8.6604 140.458 7.6659 139.574C5.99836 138.107 4.84313 136.359 4.0194 134.501C-2.05809 127.971 -1.22433 116.389 6.39011 111.316C7.94716 110.291 9.69498 110.11 11.3324 109.367C17.2793 106.615 15.5716 104.354 14.6776 98.8897C13.7836 93.3949 14.1854 88.3923 17.0684 83.5504C20.2026 78.3167 25.3459 76.0665 29.1531 71.6264C33.4425 66.6037 30.3786 59.0395 32.9602 53.0624C34.8488 48.7429 38.3044 45.7895 42.6038 44.0316C47.5161 42.0526 51.474 40.6161 54.1963 35.8245C54.2265 31.7862 54.9297 27.5671 57.3808 24.8749C61.4693 20.4449 67.6673 21.0175 73.0818 20.8367C81.982 20.5454 85.9198 11.6049 95.021 11.0323C101.269 10.6707 106.543 13.3729 110.822 17.6221C116.85 13.835 124.625 11.5447 131.607 13.9254C134.6 14.93 137.152 16.7482 138.98 19.3399C140.306 21.1481 140.557 22.6047 141.973 23.8202C143.661 24.2923 145.449 24.895 147.227 25.7087C148.171 25.7891 149.116 25.8494 149.869 26.0402C159.724 28.5013 166.786 37.6728 169.136 47.668C171.467 49.5064 173.325 49.6771 176.148 50.7018C179.684 52.0278 182.919 54.2679 184.305 57.8943C185.078 59.8431 184.968 61.7618 184.988 63.8312C185.008 69.1452 187.519 70.1096 191.588 72.3899C194.26 73.9067 196.289 76.3176 197.052 79.3413C198.238 84.0124 195.305 86.4033 194.642 90.6726C194.531 91.3054 194.521 91.878 194.511 92.4205C195.576 95.9866 197.324 98.3674 199.785 102.034C201.392 104.395 202.286 106.384 202.296 109.337C202.346 113.024 200.659 116.369 200.357 119.975C200.297 120.889 200.347 121.713 200.468 122.497C200.82 123.23 201.282 123.933 201.904 124.556C204.838 127.449 208.323 129.518 207.108 134.32L207.098 134.34Z" fill="#3E1A00"/>
<path d="M183.511 141.674C183.572 138.851 182.487 135.968 180.508 133.959C178.529 131.89 175.867 131.026 173.094 130.503C170.03 129.901 169.368 130.132 169.036 126.807C168.855 124.808 169.418 122.879 168.835 120.799C168.252 118.72 167.077 116.721 165.209 115.556C164.184 114.913 163.079 114.983 162.105 114.501C158.418 112.673 157.052 110.463 157.002 106.515C156.991 101.944 156.75 95.8767 150.874 95.3543C147.117 95.0128 144.676 97.8757 141.29 98.7497C136.539 100.005 132.32 96.6602 127.609 97.4237C125.399 97.7954 123.601 99.0108 121.571 99.8446C117.292 101.562 113.173 101.854 108.623 101.241C102.575 100.427 96.7893 98.2976 90.6716 97.9762C81.5303 97.494 73.1925 100.809 65.2868 104.908C59.7316 106.997 55.6231 111.206 54.498 117.364C53.835 121.03 54.4577 124.446 55.7034 127.861C58.3051 134.933 54.287 136.149 49.435 139.032C44.8744 141.714 43.9101 145.22 45.5776 150.122C46.5018 152.824 47.5264 153.728 46.7529 155.868C50.761 157.415 54.8094 155.647 57.8632 159.012C60.254 161.614 61.0175 163.754 65.0557 163.734C67.3059 163.734 69.4556 162.739 71.2436 161.443C71.2336 161.925 71.2236 162.438 71.2637 162.98C71.314 163.824 72.1076 164.437 72.9213 164.366C74.4783 164.256 76.8992 163.754 78.3056 164.507C78.6371 164.678 78.7175 165.291 79.0791 165.492C80.5458 166.325 81.249 167.199 83.1074 167.29C86.0205 167.481 88.5018 165.974 90.1794 163.784C90.2397 163.864 90.3099 163.945 90.3702 163.995C93.8961 166.576 98.2157 170.253 102.847 169.349C108.04 168.334 113.103 166.717 118.387 165.813C122.526 165.1 124.927 165.17 129.226 165.632C131.205 165.853 131.346 166.406 133.596 165.893C134.63 165.682 135.514 165.09 136.469 164.668C141.331 162.468 144.987 162.418 150.07 163.272C152.903 163.754 154.992 162.056 158.056 161.956C169.96 161.534 168.082 140.75 168.082 140.75C168.082 140.75 170.663 156.119 174.36 155.788C177.997 155.406 181.663 153.568 184.546 151.488C180.267 148.203 183.411 145.873 183.491 141.694L183.511 141.674Z" fill="#231000"/>
<path class="skin" d="M130.231 168.947C128.353 165.964 127.7 148.655 127.7 148.655L109.769 149.489L91.8977 151.157C91.8977 151.157 93.6556 168.385 92.2091 171.609C90.7625 174.824 77.1309 180.7 77.1309 180.7C81.37 197.346 102.265 206.457 114.831 205.06C130.111 203.373 146.947 190.143 148.253 176.13C148.253 176.13 132.11 171.941 130.221 168.957L130.231 168.947Z" fill="#FFB784"/>
<path d="M128.483 160.047C128.231 157.616 128.051 155.125 127.93 153.086C125.549 154.211 119.693 156.501 110.31 157.154C98.7883 157.958 93.0323 155.507 92.2588 155.145C92.4095 157.024 92.5702 159.354 92.6807 161.685C95.6743 165.161 101.842 170.625 111.204 169.972C119.854 169.37 125.489 163.915 128.483 160.057V160.047Z" fill="#BA4E00"/>
<path class="skin" d="M63.8909 75.1328C63.8909 75.1328 69.9382 41.9728 106.895 41.3299C143.863 41.0486 150.734 74.0479 150.734 74.0479C150.734 74.0479 153.647 111.106 142.758 136.279C136.761 150.152 123.601 160.991 108.422 161.242C93.2437 161.373 79.7627 150.865 73.414 137.143C61.9019 112.251 63.8909 75.1328 63.8909 75.1328Z" fill="#FFB784"/>
<path class="skin" d="M164.985 110.188C165.861 101.856 161.342 94.5528 154.892 93.8749C148.442 93.1969 142.503 99.4014 141.628 107.733C140.752 116.064 145.271 123.368 151.721 124.046C158.171 124.724 164.109 118.519 164.985 110.188Z" fill="#FFB784"/>
<path d="M150.622 53.3333C146.202 48.2101 141.159 43.3883 134.81 40.7765C129.105 38.4259 120.817 36.1255 114.639 36.8688C114.408 35.1109 114.609 34.1666 115.212 32.047C115.473 31.1229 114.127 30.2188 113.394 30.8918C112.178 32.0069 111.354 33.3329 110.872 34.7493C110.892 34.3474 110.912 33.9356 110.922 33.584C110.922 32.8507 109.918 32.9411 109.737 33.5338C109.526 34.2269 109.325 34.9502 109.124 35.6835C99.541 32.6196 87.9787 33.152 79.4602 38.3857C69.6659 44.4029 66.6421 59.7825 65.7381 70.9028C64.6029 71.9174 63.7491 73.2032 63.1162 74.5995C61.7098 74.3182 60.625 73.9365 59.1483 74.5794C58.5958 74.8205 58.3849 75.3529 58.5356 75.9155C58.9575 77.4926 60.2834 78.467 61.961 78.9793C61.9409 79.14 61.9007 79.2907 61.8907 79.4515C61.8103 80.5263 63.1362 80.9884 63.6887 80.024C63.7992 79.8231 63.8897 79.5921 64.0002 79.3811C66.9636 79.6825 70.3188 78.9793 72.0265 77.814C74.1361 76.3775 75.1004 73.8059 76.0045 71.4754C77.7624 71.2544 79.3597 70.9831 81.0573 70.069C85.7084 67.5476 86.4316 64.1422 87.185 60.0537C87.2252 59.9633 87.2654 59.8729 87.3156 59.7825C88.6919 57.1305 90.9722 54.3981 93.9156 53.2128C97.3913 51.8165 101.068 52.9114 104.433 50.7316C106.141 49.6266 107.577 48.0193 108.652 46.1709C109.285 48.1599 110.511 49.9179 112.741 51.2137C114.268 52.1078 116.287 52.2886 117.753 53.2329C126.031 58.5569 121.199 58.5268 121.47 63.1678C121.581 65.0664 122.354 66.5029 123.821 67.7385C125.84 69.4362 128.492 69.0846 130.893 69.6772C133.012 70.1996 134.831 71.827 135.946 73.6653C136.458 74.5091 136.99 75.5739 137.041 76.5684C137.101 77.7136 136.408 78.688 136.297 79.8231C136.167 81.2395 136.036 82.3948 136.378 83.8112C137.674 89.1353 142.736 90.6421 147.508 89.4567C149.959 88.8439 145.981 84.8057 145.459 84.0422C143.65 81.4204 142.626 78.457 142.425 75.2826C142.284 73.0626 142.977 71.0535 142.013 68.8435C139.783 63.6801 133.505 64.6847 130.421 60.8774C128.1 58.0145 129.989 54.0867 128.663 50.6512C129.627 51.0932 130.571 51.5653 131.445 52.1178C134.811 54.2575 134.208 56.7488 136.146 59.451C137.302 61.0683 138.959 61.3596 140.396 62.5048C144.695 65.9504 143.148 69.4462 144.022 73.6854C144.474 75.8753 145.509 76.5584 147.016 78.0752C148.643 79.7227 149.909 81.3099 150.341 83.6203C150.893 86.6139 150.863 89.7179 151.968 92.5909C152.973 95.1927 154.54 97.6036 156.278 99.7734C157.021 100.698 162.857 107.669 164.515 105.76C167.8 101.963 158.447 76.4579 158.136 71.8671C157.614 64.2728 155.605 59.0693 150.642 53.3233L150.622 53.3333ZM68.2595 73.595C67.6668 73.5548 67.2449 74.1374 67.3855 74.6096C67.1545 74.6698 66.8832 74.6799 66.6321 74.7201C66.7125 74.6296 66.7828 74.5292 66.8631 74.4488C67.2147 74.4187 67.506 74.1977 67.6165 73.7758C67.9983 73.4744 68.4102 73.2534 68.8221 73.0425C68.6111 73.3639 68.4202 73.605 68.2595 73.595Z" fill="#3E1A00"/>
<path d="M213.799 121.533C212.996 119.815 211.69 119.655 210.926 118.298C209.249 115.315 209.309 112.231 209.882 109.067C210.354 106.465 211.157 104.898 210.565 102.206C209.048 95.415 201.464 95.2442 199.505 89.0964C197.767 83.6618 197.475 79.4728 191.177 77.8555C190.132 77.5843 189.7 79.1514 190.614 79.6135C197.877 83.26 193.226 90.7137 197.315 95.5656C201.162 100.136 207.943 97.8359 205.974 107.218C205.261 110.624 202.719 113.065 203.754 116.812C204.417 119.243 205.21 118.921 206.597 120.689C210.735 125.973 209.219 127.239 207.461 131.599C206.928 132.915 208.435 134.441 209.691 133.467C213.187 130.755 215.879 125.973 213.809 121.533H213.799Z" fill="#3E1A00"/>
<path d="M59.2988 24.7338C56.5263 27.4963 54.447 30.6807 51.9557 33.6743C48.5905 37.7126 45.185 38.5363 40.1121 38.7673C35.8126 38.9682 31.895 40.2038 28.9818 43.5289C25.6768 47.316 25.6166 51.5753 25.6065 56.3167C25.5663 66.764 21.4678 70.7018 13.4415 76.0962C10.0361 78.3865 7.58503 81.7317 6.79144 85.8402C5.6563 91.7168 9.42327 95.6948 10.1064 101.23C11.3821 111.526 -3.94722 117.524 3.69736 128.885C4.31013 129.799 5.93754 129.247 5.75673 128.121C4.52114 120.155 7.90644 116.429 11.8945 110.16C13.9638 106.916 15.0488 103.801 14.2953 99.944C13.1401 93.977 8.41878 89.8283 11.9246 83.4394C14.667 78.4368 21.2066 77.1308 24.7928 72.7711C27.6859 69.2552 29.3635 64.8453 29.705 60.3248C30.2977 52.4291 29.0521 44.1919 39.3687 42.9261C43.7787 42.3837 47.4754 42.9965 51.1319 40.013C55.3309 36.5875 58.5555 30.5702 60.8459 25.7283C61.318 24.7238 60.0122 24.0206 59.2889 24.7338H59.2988Z" fill="#3E1A00"/>
<path d="M163.741 30.5105C163.942 30.5406 158.558 30.4904 158.829 30.5909C157.152 29.9781 156.247 29.7973 155.685 28.2503C154.469 24.9152 152.932 21.5198 150.009 19.34C143.751 14.699 135.252 15.0908 128.532 18.4258C127.457 18.9583 127.648 20.9272 129.044 20.666C137.904 19.0286 148.392 17.9838 151.566 28.7124C152.32 31.2539 152.048 33.3534 154.721 34.6794C157.232 35.925 160.346 34.5488 162.958 34.83C168.061 35.3825 172.491 38.7377 174.319 43.5495C176.911 50.3502 172.079 55.2524 172.34 61.6715C172.39 62.8568 173.887 63.1381 174.6 62.3746C184.877 51.4954 178.749 32.3991 163.731 30.5005L163.741 30.5105Z" fill="#3E1A00"/>
<path d="M111.215 21.2991C110.923 20.9173 110.371 20.9776 110.15 21.3995C109.306 22.9967 109.648 24.4031 109.547 26.2012C109.376 29.2751 107.809 30.802 106.343 33.2933C104.806 35.9152 105.579 39.2603 106.966 41.7616C107.387 42.515 108.482 41.9525 108.442 41.2091C108.271 38.0348 107.669 36.1663 109.557 33.1929C110.291 32.0376 111.074 31.1235 111.536 29.7975C112.4 27.2962 112.892 23.499 111.195 21.2991H111.215Z" fill="#231000"/>
<path d="M75.2413 55.0915C71.9363 60.4859 68.6314 67.8794 61.7403 69.135C58.817 69.6674 56.1751 69.346 53.5031 70.903C48.3598 73.9066 46.5315 79.9439 46.1497 85.5292C46.0995 86.2625 46.1497 88.794 46.0392 89.1355C44.9744 92.8021 42.3526 95.0322 39.4495 96.75C37.2897 98.0257 35.2505 98.9599 33.6231 100.989C30.5391 104.847 29.3135 110.191 31.5537 114.681C32.0861 115.746 33.7437 115.495 33.6734 114.199C33.3821 109.136 33.9144 103.953 38.5353 100.848C40.7654 99.3517 43.6284 99.0503 45.8384 97.5134C50.2383 94.4495 48.9424 89.7282 49.4648 85.047C50.168 78.638 53.1313 73.987 59.8115 72.5505C62.4836 71.9779 65.1959 72.3898 67.657 70.9231C72.5894 67.9899 74.3975 60.5462 76.6276 55.7244C77.0495 54.8102 75.7435 54.2577 75.2413 55.0714V55.0915Z" fill="#231000"/>
<path d="M37.7522 92.3702C30.0976 95.0825 21.1973 100.628 24.9342 110.01C27.5561 116.59 22.3726 118.77 20.6649 124.516C19.4494 128.624 19.9316 133.325 22.6539 136.651C23.0055 137.072 23.7489 136.861 23.6986 136.269C23.1361 130.382 22.0712 125.882 25.9287 120.839C27.325 119.011 28.9423 117.614 29.3039 115.234C29.7459 112.391 27.5661 110.683 27.094 108.111C25.6977 100.507 32.619 96.4085 38.1943 93.204C38.6764 92.9328 38.2444 92.1994 37.7522 92.3702Z" fill="#231000"/>
<path d="M96.9194 16.307C92.6701 16.7591 89.6967 17.6029 86.4018 20.3855C85.3471 21.2695 84.5635 22.505 83.4987 23.3489C77.9034 27.809 76.2257 25.1872 71.1528 25.0566C64.0004 24.8758 58.5157 33.2436 55.7632 38.9796C55.492 39.5522 56.2454 40.2855 56.7678 39.8133C59.8517 37.0508 62.1822 32.7715 65.5876 30.5012C70.771 27.0556 74.0459 29.6875 79.2495 28.9844C81.3188 28.7031 82.8155 27.8593 84.4127 26.5433C88.9131 22.8365 91.2135 19.0092 97.1202 17.181C97.6125 17.0303 97.4216 16.2467 96.9194 16.307Z" fill="#231000"/>
<path d="M124.063 40.4953C122.064 38.4661 119.653 35.3219 116.438 35.9547C115.604 36.1155 115.715 37.2305 116.559 37.2506C119 37.3109 121.39 41.2487 122.847 42.9062C123.701 43.8806 124.464 44.7746 124.957 46.0002C125.409 47.1152 125.509 48.2805 126.052 49.3554C126.473 50.1891 127.729 50.1992 127.94 49.1846C128.663 45.6586 126.363 42.8258 124.063 40.4852V40.4953Z" fill="#231000"/>
<path d="M179.262 106.273C175.304 102.637 169.387 102.898 170 95.7756C170.261 92.6916 170.643 89.909 169.779 86.8552C169.015 84.153 167.619 81.5814 165.288 79.9038C162.817 78.1257 160.005 78.196 157.855 75.5541C155.695 72.9021 155.595 68.9141 155.022 65.7297C153.555 57.5929 148.934 52.0679 141.541 48.3912C141.2 48.2205 140.747 48.6826 141.039 49.004C143.791 52.0679 147.167 54.6998 149.427 58.1554C152.069 62.1836 151.978 66.8347 153.053 71.325C153.716 74.0875 154.831 77.0609 157.081 78.9595C160.236 81.6316 163.973 81.4106 166.213 85.6297C169.196 91.2451 164.304 99.0504 168.774 103.922C171.346 106.735 175.605 106.012 178.247 109.146C181.894 113.486 180.758 118.348 179.593 123.36C179.342 124.445 180.829 124.747 181.331 123.913C184.867 117.986 184.867 111.426 179.272 106.283L179.262 106.273Z" fill="#231000"/>
<path d="M196.601 120.528C194.983 116.53 190.433 115.988 188.825 112.402C186.917 108.132 188.253 103.371 185.189 99.2521C182.929 96.2183 179.965 94.9627 176.289 95.1334C175.545 95.1636 175.485 96.3489 176.228 96.4494C187.6 97.9361 182.427 109.508 186.947 115.666C187.731 116.731 188.494 116.601 189.398 117.485C192.894 120.9 194.772 123.492 194.461 128.253C194.3 130.664 194.059 130.795 193.969 133.196C193.939 133.989 195.094 134.049 195.395 133.447C197.404 129.499 198.308 124.767 196.591 120.528H196.601Z" fill="#231000"/>
<path d="M84.5335 102.767C85.5654 102.767 86.402 100.19 86.402 97.0109C86.402 93.8319 85.5654 91.2549 84.5335 91.2549C83.5016 91.2549 82.665 93.8319 82.665 97.0109C82.665 100.19 83.5016 102.767 84.5335 102.767Z" fill="#4D3A37"/>
<path d="M127.97 102.767C129.002 102.767 129.839 100.19 129.839 97.0109C129.839 93.8319 129.002 91.2549 127.97 91.2549C126.938 91.2549 126.102 93.8319 126.102 97.0109C126.102 100.19 126.938 102.767 127.97 102.767Z" fill="#4D3A37"/>
<path d="M107.316 118.398C106.221 118.237 96.5977 116.7 95.774 111.145C95.1913 107.187 99.0388 105.238 101.852 103.822C102.846 103.32 104.353 102.556 104.554 102.144C105.217 100.798 105.247 95.6953 105.056 92.5008L107.889 92.3301C107.969 93.7364 108.321 100.899 107.095 103.39C106.472 104.656 104.915 105.439 103.127 106.343C100.294 107.77 98.3055 108.925 98.5767 110.723C99.0187 113.677 105.478 115.264 107.708 115.585L107.306 118.398H107.316Z" fill="#BA4E00"/>
<path d="M108.361 149.398C106.844 149.398 105.86 149.177 105.779 149.157L106.352 146.666C106.352 146.666 109.737 147.399 113.585 145.792L114.569 148.153C112.178 149.157 109.958 149.398 108.351 149.398H108.361Z" fill="#BA4E00"/>
<path d="M124.504 126.002C121.902 123.29 115.714 123.33 108.009 123.33C100.304 123.33 95.3017 125.048 92.047 126.957C88.6918 128.915 90.8315 144.054 108.009 144.074C124.665 144.084 126.925 128.534 124.504 126.012V126.002Z" fill="#231000"/>
<path d="M108.01 123.33C102.816 123.33 98.6472 124.184 95.5029 125.349C95.5833 126.746 95.8044 128.082 96.5779 128.403C97.492 128.785 103.348 128.634 108.351 128.614C112.861 128.594 119.753 128.112 120.345 127.288C120.586 126.956 120.707 125.55 120.818 124.124C117.643 123.32 113.173 123.34 108.01 123.34V123.33Z" fill="white"/>
<path d="M98.0742 141.803C100.606 143.17 103.86 144.064 108.009 144.064C112.168 144.064 115.433 143.099 117.944 141.603C117.15 140.166 114.639 138.79 107.607 139.272C101.51 139.694 98.9783 140.759 98.0742 141.803Z" fill="#A06275"/>
<path d="M90.481 77.0607C84.9359 77.2515 78.6173 80.5062 75.7946 83.8715C75.3224 84.4441 74.3782 85.5189 74.8504 86.1216C75.1618 86.5235 75.9955 86.5034 76.6886 86.3929C81.6712 85.5792 85.6894 82.4952 90.8929 82.4751C92.2289 82.4751 93.565 82.666 94.901 82.3847C98.0955 81.7318 97.7439 79.0798 95.8152 78.0953C94.2481 77.2917 92.4198 76.9903 90.481 77.0607Z" fill="#3E1A00"/>
<path d="M141.782 88.0507C141.39 88.4123 140.557 88.3018 139.853 88.1109C139.331 87.9603 138.829 87.8196 138.337 87.6087C135.383 86.5238 132.872 84.7759 129.949 83.711C128.844 83.2891 127.648 82.9677 126.362 82.8371C124.986 82.6764 123.6 82.7266 122.304 82.3147C119.23 81.3504 120.154 78.8189 122.324 78.0856C123.941 77.513 125.73 77.4025 127.548 77.6034C127.688 77.6034 127.799 77.6135 127.94 77.6336C131.526 78.1358 135.162 79.9139 137.874 82.0736C139.351 83.2389 140.536 84.5147 141.31 85.7804C141.672 86.3831 142.385 87.5183 141.782 88.0507Z" fill="#3E1A00"/>
</svg>
