<svg width="130" height="210" viewBox="0 0 130 210" fill="none" xmlns="http://www.w3.org/2000/svg">
<g clip-path="url(#clip0_306_2)">
<path d="M25.3535 95.7549H96.721V168.372C96.721 187.192 80.7436 202.5 61.0373 202.5C41.3596 202.5 25.3535 187.219 25.3535 168.372V95.7549Z" class="skin" fill="#D89B77"/>
<path d="M25.3535 126.344C25.3535 126.344 44.9738 161.24 67.434 159.539C102.114 156.905 96.3768 115.782 96.3768 115.782C96.3768 115.782 82.9237 143.216 61.6396 143.216C37.9174 143.243 25.3822 126.316 25.3822 126.316L25.3535 126.344Z" fill="#C1815C"/>
<path d="M30.4873 25.6064C30.4873 25.6064 46.9523 1.87605 79.0792 8.73452C101.74 13.5903 109.055 32.8489 112.267 41.3808C113.501 44.6455 113.816 48.157 113.214 51.5862L106.244 85.4945L73.2562 32.9861L41.3301 35.4002L30.5447 25.6338L30.4873 25.6064Z" class="hair" fill="#664A46"/>
<path d="M106.1 85.4949C106.1 85.4949 110.374 79.1577 118.951 82.2852C127.527 85.4126 123.655 105.33 110.775 107.881C110.775 107.881 106.157 108.841 102.543 105.823C102.543 105.823 105.612 91.0915 106.1 85.5224V85.4949Z" class="skin" fill="#D89B77"/>
<path d="M117.258 89.3082C117.258 89.3082 110.058 87.0038 104.952 97.1543" stroke="#6E4730" stroke-width="2" stroke-linecap="square" stroke-linejoin="round"/>
<path d="M108.452 92.189C108.452 92.189 116.283 96.1943 111.12 102.202" stroke="#6E4730" stroke-width="2" stroke-linecap="square" stroke-linejoin="round"/>
<path d="M18.3253 85.4949C18.3253 85.4949 14.166 79.1577 5.58932 82.2852C-2.9874 85.4126 0.885033 105.33 13.7645 107.881C13.7645 107.881 18.3827 108.841 21.997 105.823C21.997 105.823 18.8416 91.0915 18.3253 85.4949Z" class="skin" fill="#D89B77"/>
<path d="M7.28125 89.3082C7.28125 89.3082 14.4811 87.0038 19.587 97.1543" stroke="#6E4730" stroke-width="2" stroke-linecap="square" stroke-linejoin="round"/>
<path d="M16.0874 92.189C16.0874 92.189 8.25648 96.1943 13.4197 102.202" stroke="#6E4730" stroke-width="2" stroke-linecap="square" stroke-linejoin="round"/>
<path d="M107.075 66.5651C107.075 78.5812 105.842 103.738 98.1258 118.662C90.8686 132.681 78.8784 140.225 63.1305 140.664C47.4113 141.103 35.6792 135.314 26.2993 117.126C16.9194 98.9371 17.3497 66.7846 17.3497 66.7846C17.3497 66.7846 17.3497 23.8506 61.7249 23.8506C108.452 23.8506 107.075 66.5651 107.075 66.5651Z" class="skin" fill="#D89B77"/>
<path d="M18.3253 85.4947L9.60518 50.4343C9.14622 47.3617 9.60518 44.2342 10.9534 41.4085C14.3381 34.358 19.5874 22.1499 30.4876 25.6066L41.2731 35.3731C41.2731 35.3731 24.8081 38.5554 18.1819 59.1582L18.2966 85.4673L18.3253 85.4947Z" class="hair" fill="#664A46"/>
<path d="M110.661 60.0633C110.661 60.0633 105.67 23.686 81.2877 21.1072C56.9057 18.5284 36.5396 28.8161 36.5396 28.8161L31.4624 32.4374C31.4624 32.4374 32.2942 33.3976 33.9293 34.9339C14.5097 36.7171 17.3495 64.3704 17.3495 64.3704C29.1102 55.8111 30.0568 48.2393 33.2121 42.5331C44.6 51.3942 74.432 62.1483 110.661 60.0633Z" class="hair" fill="#664A46"/>
<path d="M111.293 54.2751L104.265 52.2725C105.986 68.1018 104.007 80.6117 102.687 86.5374C101.712 90.3781 97.9237 101.565 86.249 109.274C86.249 109.274 78.7643 102.153 62.2419 102.153C45.7482 102.153 38.2208 109.274 38.2208 109.274C29.0417 103.238 25.0091 96.1392 23.0012 90.241C22.8004 89.61 18.0961 74.1098 20.477 52.2725L13.4492 54.2751L17.9527 85.3577L18.9567 107.469C24.0052 148.949 62.2419 147.002 62.2419 147.002C62.2419 147.002 100.392 149.251 105.584 107.442L106.646 85.3577L111.321 54.2477L111.293 54.2751Z" class="hair" fill="#664A46"/>
<path d="M71.2451 114.026C71.2451 114.026 67.7918 110.557 62.2664 110.557H62.253C56.9288 110.557 53.0463 113.678 53.0061 113.704L52.0137 111.549C52.188 111.406 56.3656 108.026 62.253 108.026H62.2664C68.4757 108.026 72.2509 111.862 72.4119 112.023L71.2518 114.017L71.2451 114.026Z" fill="#C1815C"/>
<path d="M59.0566 75.2622V94.5757C59.0566 95.0146 59.1427 95.3987 59.2861 95.7827C59.8885 97.2642 61.6669 97.95 63.2733 97.566L66.7155 96.6881" stroke="#6E4730" stroke-width="2.5" stroke-linecap="square" stroke-linejoin="round"/>
<path d="M40.3229 82.4043C42.5064 82.4043 44.2766 80.6669 44.2766 78.5237C44.2766 76.3805 42.5064 74.6431 40.3229 74.6431C38.1393 74.6431 36.3691 76.3805 36.3691 78.5237C36.3691 80.6669 38.1393 82.4043 40.3229 82.4043Z" fill="#1A1A1A"/>
<path d="M79.3229 82.4043C81.5064 82.4043 83.2766 80.6669 83.2766 78.5237C83.2766 76.3805 81.5064 74.6431 79.3229 74.6431C77.1393 74.6431 75.3691 76.3805 75.3691 78.5237C75.3691 80.6669 77.1393 82.4043 79.3229 82.4043Z" fill="#1A1A1A"/>
<path d="M63.307 68.2952L95.192 68.2688C95.192 68.2688 97.6515 58.0717 84.784 58.7791C71.944 59.4783 63.2992 68.2689 63.2992 68.2689L63.307 68.2952Z" fill="#1A1A1A"/>
<path d="M57.8215 68.1645L26.3444 67.1059C26.3444 67.1059 29.9008 59.5871 42.7768 60.1196C55.6251 60.6444 57.8289 68.1381 57.8289 68.1381L57.8215 68.1645Z" fill="#1A1A1A"/>
</g>
<defs>
<clipPath id="clip0_306_2">
<rect width="122.541" height="195" fill="white" transform="translate(1 7.5)"/>
</clipPath>
</defs>
</svg>
