<svg width="215" height="243" viewBox="0 0 215 243" fill="none" xmlns="http://www.w3.org/2000/svg">
<path d="M207.098 134.34C205.953 138.991 201.905 138.85 199.363 141.864C198.75 142.628 195.475 143.833 196.339 141.713C197.314 139.292 197.505 137.032 197.113 134.883C196.972 137.685 196.179 140.287 194.36 142.186C193.296 143.281 191.347 143.17 190.091 144.335C188.263 146.123 187.891 148.886 185.822 150.553C185.42 150.875 184.998 151.196 184.566 151.488C181.683 153.567 178.016 155.405 174.38 155.787C170.683 156.119 168.102 140.749 168.102 140.749C168.102 140.749 169.98 161.533 158.076 161.955C155.012 162.065 152.923 163.753 150.09 163.271C145.007 162.427 141.351 162.467 136.489 164.667C135.534 165.099 134.65 165.682 133.616 165.893C131.355 166.405 131.225 165.853 129.246 165.632C124.936 165.17 122.546 165.099 118.407 165.812C113.113 166.717 108.06 168.344 102.867 169.348C98.2256 170.253 93.916 166.576 90.3901 163.994C90.3298 163.944 90.2595 163.864 90.1993 163.783C88.5217 165.983 86.0404 167.48 83.1272 167.289C81.2688 167.199 80.5656 166.325 79.099 165.491C78.7374 165.3 78.657 164.677 78.3255 164.507C76.9191 163.753 74.4982 164.255 72.9411 164.366C72.1275 164.436 71.334 163.834 71.2837 162.98C71.2335 162.447 71.2435 161.935 71.2636 161.443C69.4755 162.739 67.3157 163.733 65.0756 163.733C61.0373 163.753 60.2739 161.603 57.883 159.012C54.8192 155.646 50.7709 157.404 46.7729 155.867C46.6624 155.847 46.5117 155.777 46.3911 155.727C43.6688 154.551 42.3629 151.056 40.1328 150.353C37.7922 149.629 36.406 151.598 34.0855 149.76C31.4536 147.721 31.9055 143.843 32.7594 141.071C34.447 135.546 36.8981 134.702 35.2808 127.459C34.7484 125.038 33.9146 123.009 33.774 120.487C33.7137 119.523 33.7741 118.639 33.8444 117.755C32.9805 119.855 32.5987 122.185 32.6288 125.028C32.6589 127.579 33.1914 129.98 32.6489 132.502C31.3631 138.7 25.5468 139.513 27.7769 147.52C28.028 148.434 27.5459 149.107 26.682 149.298C23.3971 150.021 20.1525 149.348 18.284 146.304C16.0539 142.728 18.073 138.961 15.863 135.264C13.7233 131.758 11.7344 129.498 13.1206 125.048C13.2512 124.556 13.4321 124.084 13.643 123.632C12.2567 124.666 10.9307 125.751 9.87597 127.238C7.6057 130.453 7.2239 134.641 9.29326 138.067C9.92612 139.122 8.6604 140.458 7.6659 139.574C5.99836 138.107 4.84313 136.359 4.0194 134.501C-2.05809 127.971 -1.22433 116.389 6.39011 111.316C7.94716 110.291 9.69511 110.111 11.3325 109.367C17.2794 106.615 15.5716 104.354 14.6776 98.8897C13.7836 93.3949 14.1854 88.3923 17.0684 83.5504C20.2026 78.3167 25.3459 76.0665 29.1531 71.6264C33.4425 66.6037 30.3787 59.0394 32.9604 53.0624C34.8489 48.7429 38.3045 45.7895 42.604 44.0316C47.5162 42.0526 51.4741 40.6161 54.1964 35.8245C54.2266 31.7862 54.9297 27.5671 57.3808 24.8749C61.4693 20.4449 67.6673 21.0175 73.0818 20.8367C81.9821 20.5454 85.9198 11.6049 95.021 11.0323C101.269 10.6707 106.543 13.3729 110.823 17.6221C116.85 13.835 124.625 11.5447 131.607 13.9254C134.6 14.93 137.152 16.7481 138.98 19.3399C140.306 21.148 140.557 22.6047 141.973 23.8202C143.661 24.2923 145.449 24.895 147.227 25.7087C148.172 25.7891 149.116 25.8494 149.869 26.0402C159.724 28.5014 166.786 37.6728 169.136 47.668C171.467 49.5063 173.325 49.6771 176.148 50.7018C179.684 52.0278 182.919 54.2679 184.305 57.8943C185.078 59.8431 184.968 61.7618 184.988 63.8312C185.008 69.1452 187.519 70.1096 191.588 72.3899C194.26 73.9068 196.289 76.3176 197.053 79.3413C198.238 84.0124 195.305 86.4032 194.642 90.6725C194.531 91.3054 194.521 91.878 194.511 92.4204C195.576 95.9866 197.324 98.3673 199.785 102.034C201.392 104.395 202.286 106.384 202.296 109.337C202.347 113.024 200.659 116.369 200.358 119.975C200.297 120.889 200.348 121.713 200.468 122.496C200.82 123.23 201.282 123.933 201.904 124.556C204.838 127.449 208.324 129.518 207.108 134.32L207.098 134.34Z" fill="#3E1A00"/>
<path d="M183.512 141.674C183.572 138.851 182.487 135.968 180.508 133.959C178.529 131.89 175.867 131.026 173.094 130.503C170.031 129.901 169.368 130.132 169.036 126.807C168.855 124.808 169.418 122.879 168.835 120.799C168.253 118.72 167.077 116.721 165.209 115.556C164.184 114.913 163.079 114.983 162.105 114.501C158.418 112.673 157.052 110.463 157.002 106.515C156.992 101.944 156.751 95.8767 150.874 95.3543C147.117 95.0128 144.676 97.8757 141.291 98.7497C136.539 100.005 132.32 96.6602 127.609 97.4237C125.399 97.7954 123.601 99.0108 121.571 99.8446C117.292 101.562 113.173 101.854 108.623 101.241C102.575 100.427 96.7893 98.2976 90.6716 97.9762C81.5302 97.494 73.1925 100.809 65.2867 104.908C59.7316 106.997 55.623 111.206 54.4979 117.364C53.835 121.03 54.4578 124.446 55.7035 127.861C58.3052 134.933 54.2871 136.149 49.4351 139.032C44.8745 141.714 43.9101 145.22 45.5776 150.122C46.5018 152.824 47.5265 153.728 46.753 155.868C50.7611 157.415 54.8093 155.647 57.8631 159.012C60.254 161.614 61.0174 163.754 65.0557 163.734C67.3059 163.734 69.4557 162.739 71.2437 161.443C71.2337 161.925 71.2237 162.438 71.2639 162.98C71.3141 163.824 72.1076 164.437 72.9213 164.367C74.4783 164.256 76.8994 163.754 78.3057 164.507C78.6372 164.678 78.7175 165.291 79.0791 165.492C80.5457 166.325 81.2489 167.199 83.1073 167.29C86.0205 167.481 88.5018 165.974 90.1794 163.784C90.2396 163.864 90.31 163.945 90.3703 163.995C93.8962 166.576 98.2157 170.253 102.847 169.349C108.04 168.334 113.103 166.717 118.387 165.813C122.526 165.1 124.927 165.17 129.226 165.632C131.205 165.853 131.346 166.406 133.596 165.893C134.63 165.682 135.514 165.09 136.469 164.668C141.331 162.468 144.987 162.418 150.07 163.272C152.903 163.754 154.992 162.056 158.056 161.956C169.96 161.534 168.082 140.75 168.082 140.75C168.082 140.75 170.663 156.119 174.36 155.788C177.997 155.406 181.663 153.568 184.546 151.488C180.267 148.203 183.411 145.873 183.491 141.694L183.512 141.674Z" fill="#231000"/>
<path class="skin" d="M130.231 168.947C128.353 165.964 127.7 148.655 127.7 148.655L109.768 149.489L91.8976 151.157C91.8976 151.157 93.6556 168.384 92.2091 171.609C90.7625 174.824 77.1309 180.7 77.1309 180.7C81.37 197.345 102.265 206.457 114.831 205.06C130.111 203.373 146.947 190.143 148.253 176.13C148.253 176.13 132.11 171.941 130.221 168.957L130.231 168.947Z" fill="#FFB784"/>
<path d="M128.483 160.047C128.232 157.616 128.051 155.125 127.93 153.086C125.549 154.211 119.693 156.501 110.311 157.154C98.7884 157.958 93.0323 155.507 92.2588 155.145C92.4095 157.024 92.5702 159.354 92.6807 161.685C95.6743 165.161 101.842 170.625 111.205 169.972C119.854 169.37 125.489 163.915 128.483 160.057V160.047Z" fill="#BA4E00"/>
<path class="skin" d="M63.8909 75.1328C63.8909 75.1328 69.9383 41.9728 106.896 41.3299C143.863 41.0486 150.734 74.0479 150.734 74.0479C150.734 74.0479 153.647 111.106 142.758 136.279C136.761 150.152 123.601 160.991 108.422 161.242C93.2438 161.373 79.7628 150.865 73.4141 137.143C61.902 112.251 63.8909 75.1328 63.8909 75.1328Z" fill="#FFB784"/>
<path class="skin" d="M164.986 110.177C165.862 101.846 161.343 94.542 154.893 93.8641C148.443 93.1862 142.504 99.3906 141.629 107.722C140.753 116.054 145.272 123.357 151.722 124.035C158.172 124.713 164.11 118.509 164.986 110.177Z" fill="#FFB784"/>
<path d="M150.633 53.3333C146.213 48.2102 141.17 43.3884 134.821 40.7765C129.116 38.4259 120.828 36.1255 114.65 36.8689C114.419 35.1109 114.62 34.1666 115.223 32.0471C115.484 31.1229 114.138 30.2188 113.404 30.8918C112.189 32.0069 111.365 33.3329 110.883 34.7493C110.903 34.3475 110.923 33.9356 110.933 33.584C110.933 32.8507 109.929 32.9411 109.748 33.5338C109.537 34.2269 109.336 34.9502 109.135 35.6835C99.5518 32.6196 87.9894 33.1521 79.4709 38.3857C69.6766 44.4029 66.653 59.7825 65.7489 70.9028C64.6138 71.9174 63.7598 73.2032 63.127 74.5995C61.7206 74.3183 60.6357 73.9366 59.1591 74.5795C58.6066 74.8206 58.3956 75.3529 58.5463 75.9155C58.9682 77.4926 60.2942 78.4671 61.9718 78.9794C61.9517 79.1401 61.9115 79.2908 61.9014 79.4515C61.8211 80.5264 63.1471 80.9885 63.6996 80.0241C63.8101 79.8232 63.9005 79.5921 64.011 79.3812C66.9744 79.6825 70.3297 78.9794 72.0374 77.8141C74.1469 76.3776 75.1112 73.806 76.0153 71.4754C77.7733 71.2544 79.3705 70.9832 81.0682 70.069C85.7193 67.5476 86.4425 64.1422 87.1959 60.0537C87.2361 59.9633 87.2763 59.8729 87.3265 59.7825C88.7027 57.1305 90.983 54.3982 93.9263 53.2128C97.402 51.8165 101.079 52.9114 104.444 50.7316C106.152 49.6266 107.588 48.0193 108.663 46.1709C109.296 48.1599 110.521 49.9179 112.751 51.2138C114.278 52.1078 116.297 52.2886 117.764 53.2329C126.042 58.557 121.21 58.5268 121.481 63.1678C121.592 65.0664 122.365 66.5029 123.832 67.7385C125.851 69.4362 128.503 69.0846 130.904 69.6773C133.023 70.1997 134.841 71.827 135.956 73.6653C136.469 74.5091 137.001 75.574 137.051 76.5685C137.112 77.7136 136.419 78.688 136.308 79.8232C136.177 81.2396 136.047 82.3948 136.388 83.8112C137.684 89.1353 142.747 90.6421 147.519 89.4568C149.97 88.844 145.992 84.8057 145.47 84.0423C143.661 81.4204 142.637 78.457 142.436 75.2826C142.295 73.0626 142.988 71.0535 142.024 68.8435C139.794 63.6802 133.515 64.6847 130.431 60.8775C128.111 58.0145 129.999 54.0868 128.673 50.6512C129.638 51.0932 130.582 51.5653 131.456 52.1178C134.821 54.2575 134.219 56.7488 136.157 59.451C137.313 61.0684 138.97 61.3597 140.407 62.5048C144.706 65.9504 143.159 69.4462 144.033 73.6854C144.485 75.8753 145.52 76.5584 147.026 78.0753C148.654 79.7227 149.92 81.3099 150.352 83.6204C150.904 86.6139 150.874 89.7179 151.979 92.5909C152.983 95.1927 154.551 97.6036 156.288 99.7734C157.032 100.698 162.868 107.669 164.526 105.761C167.811 101.963 158.458 76.458 158.147 71.8672C157.624 64.2728 155.615 59.0693 150.653 53.3233L150.633 53.3333ZM68.2703 73.595C67.6777 73.5548 67.2556 74.1374 67.3963 74.6096C67.1652 74.6699 66.894 74.6799 66.6429 74.7201C66.7232 74.6297 66.7936 74.5292 66.874 74.4489C67.2256 74.4187 67.5169 74.1977 67.6274 73.7758C68.0091 73.4744 68.421 73.2535 68.8328 73.0425C68.6219 73.364 68.4311 73.605 68.2703 73.595Z" fill="#3E1A00"/>
<path d="M213.799 121.532C212.996 119.814 211.69 119.654 210.926 118.298C209.249 115.314 209.309 112.23 209.882 109.066C210.354 106.464 211.157 104.897 210.565 102.205C209.048 95.414 201.463 95.2432 199.505 89.0954C197.767 83.6608 197.476 79.4719 191.177 77.8546C190.132 77.5833 189.7 79.1504 190.614 79.6125C197.877 83.259 193.226 90.7127 197.315 95.5647C201.162 100.135 207.943 97.835 205.974 107.217C205.261 110.623 202.719 113.064 203.754 116.811C204.417 119.242 205.211 118.92 206.597 120.688C210.735 125.972 209.219 127.238 207.461 131.598C206.928 132.914 208.435 134.441 209.691 133.466C213.187 130.754 215.879 125.972 213.809 121.532H213.799Z" fill="#3E1A00"/>
<path d="M59.2988 24.7338C56.5263 27.4963 54.4468 30.6807 51.9556 33.6743C48.5904 37.7125 45.185 38.5363 40.1121 38.7673C35.8126 38.9682 31.8948 40.2038 28.9817 43.5288C25.6767 47.316 25.6164 51.5753 25.6064 56.3167C25.5662 66.764 21.4677 70.7017 13.4414 76.0961C10.036 78.3865 7.5849 81.7316 6.79131 85.8402C5.65618 91.7168 9.42327 95.6948 10.1064 101.23C11.3821 111.526 -3.94722 117.524 3.69736 128.885C4.31013 129.799 5.93742 129.247 5.7566 128.122C4.52102 120.155 7.90631 116.429 11.8944 110.16C13.9637 106.916 15.0486 103.802 14.2952 99.9441C13.14 93.9771 8.41866 89.8283 11.9245 83.4394C14.6669 78.4368 21.2066 77.1308 24.7928 72.7711C27.6859 69.2552 29.3635 64.8453 29.705 60.3248C30.2977 52.4291 29.0521 44.1919 39.3687 42.9261C43.7787 42.3837 47.4754 42.9964 51.1319 40.0129C55.3309 36.5874 58.5555 30.5702 60.8459 25.7283C61.318 24.7238 60.0121 24.0206 59.2888 24.7338H59.2988Z" fill="#3E1A00"/>
<path d="M163.741 30.5106C163.942 30.5407 158.558 30.4904 158.829 30.5909C157.151 29.9781 156.247 29.7973 155.685 28.2503C154.469 24.9152 152.932 21.5198 150.009 19.34C143.751 14.699 135.252 15.0908 128.532 18.4259C127.457 18.9583 127.648 20.9272 129.044 20.666C137.904 19.0286 148.392 17.9839 151.566 28.7124C152.32 31.2539 152.048 33.3534 154.72 34.6794C157.232 35.925 160.346 34.5488 162.958 34.8301C168.061 35.3826 172.491 38.7378 174.319 43.5495C176.911 50.3503 172.079 55.2524 172.34 61.6715C172.39 62.8568 173.887 63.1381 174.6 62.3747C184.877 51.4955 178.749 32.3991 163.731 30.5005L163.741 30.5106Z" fill="#3E1A00"/>
<path d="M111.215 21.299C110.924 20.9173 110.371 20.9776 110.15 21.3995C109.306 22.9968 109.648 24.4031 109.547 26.2012C109.377 29.2751 107.809 30.802 106.343 33.2933C104.806 35.9152 105.579 39.2603 106.966 41.7616C107.387 42.515 108.483 41.9525 108.442 41.2091C108.272 38.0348 107.669 36.1663 109.557 33.1929C110.291 32.0376 111.074 31.1235 111.536 29.7975C112.4 27.2962 112.892 23.499 111.195 21.299H111.215Z" fill="#231000"/>
<path d="M75.2413 55.0915C71.9364 60.4859 68.6315 67.8794 61.7403 69.135C58.8171 69.6674 56.1751 69.346 53.503 70.903C48.3597 73.9066 46.5315 79.9439 46.1498 85.5292C46.0995 86.2625 46.1498 88.794 46.0393 89.1355C44.9745 92.8021 42.3525 95.0322 39.4494 96.75C37.2896 98.0258 35.2504 98.96 33.623 100.989C30.5391 104.847 29.3136 110.191 31.5537 114.681C32.0861 115.746 33.7436 115.495 33.6733 114.199C33.382 109.136 33.9143 103.953 38.5352 100.848C40.7653 99.3517 43.6283 99.0504 45.8383 97.5134C50.2382 94.4495 48.9423 89.7282 49.4647 85.047C50.1679 78.6381 53.1313 73.987 59.8115 72.5505C62.4836 71.9779 65.1958 72.3898 67.657 70.9232C72.5893 67.9899 74.3975 60.5462 76.6276 55.7244C77.0495 54.8103 75.7436 54.2577 75.2413 55.0714V55.0915Z" fill="#231000"/>
<path d="M37.7618 92.3702C30.1072 95.0825 21.2071 100.628 24.944 110.01C27.5658 116.59 22.3824 118.77 20.6747 124.516C19.4592 128.624 19.9413 133.325 22.6636 136.651C23.0152 137.072 23.7585 136.861 23.7083 136.269C23.1457 130.382 22.081 125.882 25.9385 120.839C27.3348 119.011 28.9521 117.614 29.3137 115.234C29.7557 112.391 27.5758 110.683 27.1036 108.111C25.7073 100.507 32.6287 96.4085 38.2039 93.204C38.6861 92.9328 38.2541 92.1994 37.7618 92.3702Z" fill="#231000"/>
<path d="M96.9194 16.307C92.6702 16.7591 89.6967 17.6029 86.4018 20.3855C85.3471 21.2695 84.5635 22.5051 83.4987 23.3489C77.9034 27.809 76.2259 25.1871 71.1529 25.0565C64.0006 24.8757 58.5157 33.2436 55.7632 38.9796C55.492 39.5522 56.2454 40.2854 56.7678 39.8133C59.8517 37.0508 62.1823 32.7715 65.5877 30.5012C70.7712 27.0556 74.0459 29.6875 79.2495 28.9843C81.3188 28.7031 82.8156 27.8593 84.4129 26.5433C88.9132 22.8365 91.2136 19.0092 97.1204 17.181C97.6126 17.0303 97.4216 16.2467 96.9194 16.307Z" fill="#231000"/>
<path d="M124.062 40.4953C122.063 38.4661 119.653 35.3219 116.438 35.9547C115.604 36.1155 115.715 37.2305 116.559 37.2506C119 37.3109 121.39 41.2487 122.847 42.9062C123.701 43.8806 124.464 44.7746 124.957 46.0002C125.409 47.1152 125.509 48.2805 126.051 49.3553C126.473 50.1891 127.729 50.1992 127.94 49.1846C128.663 45.6586 126.363 42.8258 124.062 40.4852V40.4953Z" fill="#231000"/>
<path d="M179.262 106.273C175.304 102.637 169.387 102.898 170 95.7756C170.261 92.6916 170.643 89.909 169.779 86.8552C169.015 84.153 167.619 81.5814 165.288 79.9038C162.817 78.1257 160.005 78.196 157.855 75.5541C155.695 72.9021 155.595 68.9141 155.022 65.7297C153.555 57.5929 148.934 52.0679 141.541 48.3912C141.2 48.2205 140.747 48.6825 141.039 49.004C143.791 52.0679 147.166 54.6997 149.427 58.1554C152.069 62.1836 151.978 66.8346 153.053 71.3249C153.716 74.0874 154.831 77.0609 157.081 78.9595C160.236 81.6316 163.973 81.4106 166.213 85.6297C169.196 91.2451 164.304 99.0504 168.774 103.922C171.346 106.735 175.605 106.012 178.247 109.146C181.894 113.486 180.758 118.348 179.593 123.36C179.342 124.445 180.829 124.747 181.331 123.913C184.867 117.986 184.867 111.426 179.272 106.283L179.262 106.273Z" fill="#231000"/>
<path d="M196.601 120.528C194.983 116.53 190.433 115.988 188.825 112.402C186.917 108.132 188.253 103.371 185.189 99.2521C182.929 96.2184 179.965 94.9627 176.289 95.1334C175.545 95.1636 175.485 96.3489 176.229 96.4494C187.6 97.9361 182.426 109.508 186.947 115.666C187.73 116.731 188.494 116.601 189.398 117.485C192.894 120.9 194.772 123.492 194.461 128.253C194.3 130.664 194.059 130.795 193.969 133.196C193.939 133.989 195.094 134.049 195.395 133.447C197.404 129.499 198.308 124.767 196.591 120.528H196.601Z" fill="#231000"/>
<path d="M151.014 118.699C150.984 116.981 150.793 101.833 153.616 97.4326L155.886 98.8892C153.867 102.033 153.636 114.219 153.716 118.639L151.014 118.689V118.699Z" fill="#BA4E00"/>
<path d="M158.615 107.286L151.97 109.187L152.713 111.785L159.358 109.884L158.615 107.286Z" fill="#BA4E00"/>
<path d="M87.3561 96.9309C87.3561 100.105 86.5223 102.687 85.4876 102.687C84.4529 102.687 83.6191 100.115 83.6191 96.9309C83.6191 93.7465 84.4529 91.1748 85.4876 91.1748C86.5223 91.1748 87.3561 93.7565 87.3561 96.9309Z" fill="#4D3A37"/>
<path d="M128.914 102.687C129.946 102.687 130.783 100.11 130.783 96.9309C130.783 93.7519 129.946 91.1748 128.914 91.1748C127.883 91.1748 127.046 93.7519 127.046 96.9309C127.046 100.11 127.883 102.687 128.914 102.687Z" fill="#4D3A37"/>
<path d="M108.271 118.317C107.176 118.156 97.5528 116.619 96.7291 111.064C96.1464 107.106 99.9937 105.157 102.806 103.741C103.801 103.239 105.308 102.475 105.509 102.063C106.172 100.717 106.202 95.6142 106.011 92.4198L108.844 92.249C108.924 93.6554 109.286 100.818 108.05 103.309C107.427 104.575 105.87 105.358 104.082 106.262C101.249 107.689 99.2605 108.844 99.5318 110.642C99.9738 113.596 106.433 115.183 108.663 115.504L108.261 118.317H108.271Z" fill="#BA4E00"/>
<path d="M108.522 153.286C106.915 153.286 105.88 153.055 105.79 153.035L106.403 150.403C106.403 150.403 109.979 151.176 114.047 149.479L115.092 151.97C112.561 153.025 110.22 153.286 108.522 153.286Z" fill="#BA4E00"/>
<path d="M109.094 125.853C114.167 126.053 119.029 131.619 118.938 136.199C118.868 139.856 115.694 146.566 109.094 146.215C102.494 145.863 99.0584 141.333 98.9881 136.963C98.9177 132.603 103.81 125.642 109.094 125.863V125.853Z" fill="#231000"/>
<path d="M113.977 142.739C110.28 140.96 106.232 142.246 102.776 144.085C104.384 145.26 106.493 146.064 109.095 146.204C112.028 146.365 114.288 145.119 115.896 143.371C115.243 143.241 114.6 143.03 113.977 142.739Z" fill="#A06275"/>
<path d="M114.418 127.972C112.841 126.746 110.983 125.933 109.104 125.852C107.035 125.772 105.036 126.776 103.368 128.303C107.055 128.263 110.742 128.153 114.428 127.972H114.418Z" fill="white"/>
<path d="M92.3288 74.891C86.7837 74.8508 80.3346 77.8444 77.3712 81.089C76.8689 81.6415 75.8944 82.6762 76.3264 83.289C76.6177 83.7009 77.4515 83.7209 78.1447 83.6305C83.1573 83.0278 87.2961 80.1146 92.4996 80.3155C93.8357 80.3658 95.1617 80.6169 96.5078 80.3959C99.7223 79.8735 99.4912 77.2115 97.6027 76.1467C96.0758 75.2828 94.2575 74.9011 92.3188 74.891H92.3288Z" fill="#3E1A00"/>
<path d="M139.03 84.6157C138.678 85.0175 137.835 84.9874 137.121 84.8769C136.579 84.7865 136.067 84.6961 135.554 84.5353C132.5 83.7618 129.818 82.2852 126.805 81.5418C125.659 81.2405 124.444 81.0496 123.148 81.0496C121.762 81.0295 120.396 81.2304 119.05 80.9592C115.895 80.3263 116.548 77.7044 118.628 76.7501C120.175 76.0168 121.943 75.7154 123.781 75.7255C123.922 75.7054 124.032 75.7154 124.173 75.7255C127.789 75.846 131.596 77.2424 134.52 79.1008C136.107 80.1053 137.423 81.2505 138.317 82.4258C138.739 82.9884 139.562 84.0431 139.03 84.6358V84.6157Z" fill="#3E1A00"/>
</svg>
