<svg width="130" height="210" viewBox="0 0 130 210" fill="none" xmlns="http://www.w3.org/2000/svg">
<path d="M65.5771 202C49.109 202 35.7695 188.907 35.7695 172.744V110.485H95.3847V172.744C95.3847 188.907 82.0452 202 65.5771 202Z" class="skin"  fill="#F3A396"/>
<path d="M35.7695 130.259C35.7695 130.259 52.1689 160.191 70.906 158.706C99.8885 156.445 95.0753 121.182 95.0753 121.182C95.0753 121.182 83.833 144.702 66.0584 144.702C46.2211 144.702 35.7695 130.226 35.7695 130.226V130.259Z" fill="#D26665"/>
<path d="M21.0893 88.8882L18.1326 59.2944C14.3164 40.3638 29.3405 30.3755 42.5081 30.3755H88.0618C102.02 30.3755 118.626 40.2963 111.543 61.6227L107.487 93.8823L21.1236 88.8882H21.0893Z" class="hair"  fill="#1A1A1A"/>
<path d="M104.358 105.119C113.4 111.666 129.009 81.9033 120.207 74.8508C111.406 67.7982 105.596 80.7223 105.596 80.7223L105.39 91.6554L104.083 101.914L103.567 105.086H104.358V105.119Z" class="skin"  fill="#F3A396"/>
<path d="M116.798 84.2321C116.798 84.2321 111.533 81.0628 107.19 89.9338" stroke="#D26665" stroke-width="2" stroke-linecap="square" stroke-linejoin="round"/>
<path d="M109.851 86.8569C109.851 86.8569 115.962 90.2625 111.555 95.503" stroke="#D26665" stroke-width="2" stroke-linecap="square" stroke-linejoin="round"/>
<path d="M25.5241 105.12C16.4821 111.667 0.873525 81.9041 9.67484 74.8515C18.4762 67.799 24.0114 80.858 24.0114 80.858L24.5271 91.6562L25.8335 101.914L26.3148 105.086H25.5241V105.12Z" class="skin"  fill="#F3A396"/>
<path d="M12.957 84.2335C12.957 84.2335 19.0682 82.2131 23.4104 91.0841" stroke="#D26665" stroke-width="2" stroke-linecap="square" stroke-linejoin="round"/>
<path d="M19.6097 86.8145C19.6097 86.8145 13.7928 90.2638 18.1993 95.5043" stroke="#D26665" stroke-width="2" stroke-linecap="square" stroke-linejoin="round"/>
<path d="M107.348 66.7195C107.348 85.1439 104.839 101.037 102.363 112.342C99.9222 123.376 93.0462 133.027 83.351 139.27L81.5976 140.417C71.318 146.997 58.0816 147.132 47.6301 140.822C37.1098 134.444 29.7524 124.085 27.4833 112.207C23.3577 90.6442 22.9108 66.7532 22.9108 66.7532C22.9108 66.7532 18.9914 20.2198 64.5107 21.1309C110.03 22.042 107.314 66.7532 107.314 66.7532L107.348 66.7195Z" class="skin"  fill="#F3A396"/>
<path d="M107.933 14.01C93.4586 3.95418 64.8888 11.0067 49.3146 17.9918C49.624 13.4363 46.7704 13.9425 46.7704 13.9425C19.3695 21.1638 26.5549 42.3552 26.5549 42.3552C26.5549 42.3552 26.6581 42.4227 26.83 42.4902C23.9764 48.5979 20.2634 61.5895 23.7701 85.1093C23.7701 85.1093 31.0243 59.6661 31.2306 44.4811C43.4012 49.7452 76.7155 62.5343 98.4438 55.3805C100.575 68.3384 106.282 85.1093 106.282 85.1093C108.552 69.8569 107.589 58.9912 106.076 51.6349C107.417 50.7238 108.689 49.6777 109.824 48.4967C109.824 48.4967 128.458 28.2501 107.933 14.01Z" class="hair"  fill="#1A1A1A"/>
<path d="M61.1426 84.5366V99.5528C61.1426 100.059 61.2457 100.531 61.4176 100.97C62.1396 102.725 64.168 103.535 66.0246 103.062L70.0126 102.016" stroke="#D26665" stroke-width="2.5" stroke-linecap="square" stroke-linejoin="round"/>
<path d="M45.9801 84.2319C48.1637 84.2319 49.9338 82.4945 49.9338 80.3513C49.9338 78.2081 48.1637 76.4707 45.9801 76.4707C43.7965 76.4707 42.0264 78.2081 42.0264 80.3513C42.0264 82.4945 43.7965 84.2319 45.9801 84.2319Z" class="hair"  fill="#1A1A1A"/>
<path d="M82.5953 84.2319C84.7789 84.2319 86.549 82.4945 86.549 80.3513C86.549 78.2081 84.7789 76.4707 82.5953 76.4707C80.4117 76.4707 78.6416 78.2081 78.6416 80.3513C78.6416 82.4945 80.4117 84.2319 82.5953 84.2319Z" class="hair"  fill="#1A1A1A"/>
<path d="M56.0193 71.443L56.1568 63.8843L41.8547 64.1205C40.0669 64.1205 38.3136 64.7954 36.9384 65.9427L31.2656 72.3878L40.7202 71.0043L56.0193 71.4768V71.443Z" class="hair"  fill="#1A1A1A"/>
<path d="M72.7625 71.443L72.625 63.8843L86.9271 64.1205C88.7149 64.1205 90.4683 64.7954 91.8435 65.9427L97.5506 72.3878L88.096 71.0043L72.7969 71.4768L72.7625 71.443Z" class="hair"  fill="#1A1A1A"/>
<path d="M63.7236 134.061V139.32" stroke="#D26665" stroke-width="2.5" stroke-linecap="square" stroke-linejoin="round"/>
<path d="M50.3896 107.095C61.3784 112.858 69.5907 112.464 80.3187 107.095" stroke="#D26665" stroke-width="2.5" stroke-linecap="square"/>
<path d="M59.9824 115.646C59.9824 115.646 65.8397 117.694 69.6025 115.646" stroke="#D26665" stroke-width="2.5" stroke-linecap="square"/>
</svg>
