<svg width="130" height="210" viewBox="0 0 130 210" fill="none" xmlns="http://www.w3.org/2000/svg">
<path d="M64.7449 202.159C48.2931 202.159 34.9668 188.469 34.9668 171.568V106.468H94.523V171.568C94.523 188.469 81.1967 202.159 64.7449 202.159Z" class="skin"  fill="#F3A396"/>
<path d="M34.9668 127.142C34.9668 127.142 51.3499 158.439 70.0685 156.887C99.0223 154.523 94.2139 117.65 94.2139 117.65C94.2139 117.65 82.9827 142.244 65.2257 142.244C45.408 142.244 34.9668 127.107 34.9668 127.107V127.142Z" fill="#D26665"/>
<path d="M20.3025 83.8855L17.3488 52.941C13.5363 33.1464 28.5456 22.7021 41.7002 22.7021H87.2088C101.153 22.7021 117.742 33.0758 110.667 55.3756L106.614 89.1076L20.3369 83.8855H20.3025Z" class="hair"  fill="#1A1A1A"/>
<path d="M103.489 100.855C112.522 107.7 128.115 76.5791 119.323 69.2047C110.53 61.8302 104.726 75.3442 104.726 75.3442L104.52 86.7764L103.214 97.5028L102.699 100.82H103.489V100.855Z" class="skin"  fill="#F3A396"/>
<path d="M116.352 78.6333C116.352 78.6333 110.729 75.091 106.093 85.0059" stroke="#D26665" stroke-width="2.13567" stroke-linecap="square" stroke-linejoin="round"/>
<path d="M108.934 81.5669C108.934 81.5669 115.459 85.3733 110.754 91.2305" stroke="#D26665" stroke-width="2.13567" stroke-linecap="square" stroke-linejoin="round"/>
<path d="M24.7334 100.859C15.7003 107.705 0.107197 76.5836 8.8998 69.2091C17.6924 61.8347 23.2221 75.4898 23.2221 75.4898L23.7373 86.7808L25.0425 97.5073L25.5233 100.824H24.7334V100.859Z" class="skin"  fill="#F3A396"/>
<path d="M10.8057 78.6347C10.8057 78.6347 17.3314 76.3765 21.9682 86.2915" stroke="#D26665" stroke-width="2.13567" stroke-linecap="square" stroke-linejoin="round"/>
<path d="M17.9101 81.5215C17.9101 81.5215 11.6986 85.3768 16.404 91.234" stroke="#D26665" stroke-width="2.13567" stroke-linecap="square" stroke-linejoin="round"/>
<path d="M106.477 60.7057C106.477 79.971 103.969 96.59 101.496 108.41C99.0579 119.948 92.1887 130.04 82.5031 136.567L80.7514 137.767C70.4819 144.648 57.2587 144.789 46.8174 138.19C36.3075 131.522 28.9575 120.689 26.6906 108.269C22.5691 85.7224 22.1226 60.7409 22.1226 60.7409C22.1226 60.7409 18.2071 12.0836 63.6814 13.0363C109.156 13.989 106.442 60.7409 106.442 60.7409L106.477 60.7057Z" class="skin"  fill="#F3A396"/>
<path d="M107.06 5.58875C92.6002 -4.92603 64.0586 2.44843 48.4998 9.75233C48.8089 4.98892 45.9582 5.51818 45.9582 5.51818C18.5843 13.0691 25.7627 35.2277 25.7627 35.2277C25.7627 35.2277 25.8657 35.2983 26.0374 35.3689C23.1867 41.7554 19.4773 55.3399 22.9806 79.9332C22.9806 79.9332 30.2277 53.3287 30.4337 37.4507C42.5923 42.9551 75.8736 56.3279 97.5804 48.8476C99.7098 62.3968 105.411 79.9332 105.411 79.9332C107.678 63.9846 106.716 52.623 105.205 44.931C106.545 43.9783 107.816 42.8845 108.949 41.6495C108.949 41.6495 127.565 20.4788 107.06 5.58875Z" class="hair"  fill="#1A1A1A"/>
<path d="M61.6591 77.1265L63.6034 79.6714L61.1721 82.4282L60.3164 91.8505C60.3164 92.3249 60.4194 92.7676 60.5912 93.1787C61.3124 94.8232 63.3389 95.5822 65.1935 95.1394L69.1777 94.1591" stroke="#D26665" stroke-width="2.66959" stroke-linecap="square" stroke-linejoin="round"/>
<path d="M45.1686 76.7551C47.35 76.7551 49.1184 77.4325 49.1184 75.1915C49.1184 72.9505 47.35 71.1338 45.1686 71.1338C42.9871 71.1338 41.2188 72.9505 41.2188 75.1915C41.2188 77.4325 42.9871 76.7551 45.1686 76.7551Z" class="hair"  fill="#1A1A1A"/>
<path d="M81.4752 76.7551C83.6566 76.7551 85.425 77.4325 85.425 75.1915C85.425 72.9505 83.6566 71.1338 81.4752 71.1338C79.2938 71.1338 77.5254 72.9505 77.5254 75.1915C77.5254 77.4325 79.2938 76.7551 81.4752 76.7551Z" class="hair"  fill="#1A1A1A"/>
<path d="M44.9257 103.769L84.9159 101.191C84.9159 101.191 82.5881 120.332 64.5476 120.861C46.507 121.39 44.8931 103.77 44.8931 103.77L44.9257 103.769Z" fill="#AE5655"/>
<path d="M53.6367 118.738C56.4151 120.044 60.2398 121.232 65.0432 121.092C69.8466 120.951 73.5377 119.166 76.1614 117.412C74.8812 115.875 70.4255 114.935 62.8731 115.747C56.3185 116.456 54.5749 117.613 53.6367 118.738Z" fill="#D97F7E"/>
<path d="M55.198 65.641L55.3353 57.7373L41.0474 57.9843C39.2614 57.9843 37.5097 58.69 36.1359 59.8897L30.4688 66.629L39.9139 65.1823L55.198 65.6763V65.641Z" class="hair"  fill="#1A1A1A"/>
<path d="M71.9245 65.641L71.7871 57.7373L86.0751 57.9843C87.8611 57.9843 89.6127 58.69 90.9866 59.8897L96.688 66.629L87.2428 65.1823L71.9588 65.6763L71.9245 65.641Z" class="hair"  fill="#1A1A1A"/>
<path d="M62.8945 131.119V136.618" stroke="#D26665" stroke-width="2.66959" stroke-linecap="square" stroke-linejoin="round"/>
<path d="M35.6406 74.71L37.5677 75.6408L35.6406 77.0371" stroke="#D26665" stroke-width="1.06784" stroke-linecap="square"/>
<path d="M91.0039 74.71L89.0768 75.6408L91.0039 77.0371" stroke="#D26665" stroke-width="1.06784" stroke-linecap="square"/>
<path d="M82.6468 101.653L82.7795 101.256C65.7157 102.315 54.5078 102.643 46.9107 103.425C47.0907 103.728 48.4108 105.634 48.5767 105.946C49.0425 106.762 50.2749 107.325 51.7374 107.385C57.8316 107.651 64.7274 107.671 78.2092 106.233C79.7803 106.067 82.3426 102.594 82.6468 101.653Z" fill="white"/>
</svg>
