<svg width="130" height="210" viewBox="0 0 130 210" fill="none" xmlns="http://www.w3.org/2000/svg">
<path d="M65.3154 202C48.8473 202 35.5078 188.907 35.5078 172.744V110.485H95.123V172.744C95.123 188.907 81.7835 202 65.3154 202Z" class="skin"  fill="#F3A396"/>
<path d="M35.5078 130.259C35.5078 130.259 51.9071 160.191 70.6443 158.706C99.6268 156.445 94.8135 121.182 94.8135 121.182C94.8135 121.182 83.5712 144.702 65.7967 144.702C45.9594 144.702 35.5078 130.226 35.5078 130.226V130.259Z" fill="#D26665"/>
<path d="M20.8275 88.8882L17.8708 59.2944C14.0546 40.3638 29.0788 30.3755 42.2464 30.3755H87.8C101.758 30.3755 118.364 40.2963 111.282 61.6227L107.225 93.8823L20.8619 88.8882H20.8275Z" class="hair"  fill="#1A1A1A"/>
<path d="M104.096 105.119C113.138 111.666 128.747 81.9033 119.946 74.8508C111.144 67.7982 105.334 80.7223 105.334 80.7223L105.128 91.6554L103.821 101.914L103.306 105.086H104.096V105.119Z" class="skin"  fill="#F3A396"/>
<path d="M116.799 84.2321C116.799 84.2321 111.534 81.0628 107.191 89.9338" stroke="#D26665" stroke-width="2" stroke-linecap="square" stroke-linejoin="round"/>
<path d="M109.852 86.8569C109.852 86.8569 115.963 90.2625 111.556 95.503" stroke="#D26665" stroke-width="2" stroke-linecap="square" stroke-linejoin="round"/>
<path d="M25.2624 105.12C16.2204 111.667 0.611806 81.9041 9.41312 74.8515C18.2144 67.799 23.7496 80.858 23.7496 80.858L24.2653 91.6562L25.5718 101.914L26.0531 105.086H25.2624V105.12Z" class="skin"  fill="#F3A396"/>
<path d="M11.958 84.2335C11.958 84.2335 18.0692 82.2131 22.4114 91.0841" stroke="#D26665" stroke-width="2" stroke-linecap="square" stroke-linejoin="round"/>
<path d="M18.6107 86.8145C18.6107 86.8145 12.7938 90.2638 17.2003 95.5043" stroke="#D26665" stroke-width="2" stroke-linecap="square" stroke-linejoin="round"/>
<path d="M107.087 66.7195C107.087 85.1439 104.577 101.037 102.102 112.342C99.6605 123.376 92.7845 133.027 83.0893 139.27L81.3359 140.417C71.0563 146.997 57.8199 147.132 47.3684 140.822C36.848 134.444 29.4907 124.085 27.2216 112.207C23.096 90.6442 22.649 66.7532 22.649 66.7532C22.649 66.7532 18.7297 20.2198 64.249 21.1309C109.768 22.042 107.052 66.7532 107.052 66.7532L107.087 66.7195Z" class="skin"  fill="#F3A396"/>
<path d="M60.0906 119.037L59.8105 116.227C60.0205 116.207 64.9306 115.727 68.3306 116.227L67.9105 119.017C64.8605 118.557 60.1406 119.017 60.0906 119.017V119.037Z" fill="#D26665"/>
<path d="M76.3234 116C76.3234 116 71.9217 112.531 64.8789 112.531H64.8618C58.0755 112.531 53.1268 115.651 53.0755 115.678L51.8105 113.523C52.0328 113.38 57.3576 110 64.8618 110H64.8789C72.7935 110 77.6054 113.836 77.8105 113.997L76.3319 115.991L76.3234 116Z" fill="#D26665"/>
<path d="M107.671 14.01C93.1969 3.95418 64.627 11.0067 49.0528 17.9918C49.3623 13.4363 46.5087 13.9425 46.5087 13.9425C19.1078 21.1638 26.2932 42.3552 26.2932 42.3552C26.2932 42.3552 26.3963 42.4227 26.5682 42.4902C23.7147 48.5979 20.0016 61.5895 23.5084 85.1093C23.5084 85.1093 30.7626 59.6661 30.9689 44.4811C43.1395 49.7452 76.4538 62.5343 98.182 55.3805C100.314 68.3384 106.021 85.1093 106.021 85.1093C108.29 69.8569 107.327 58.9912 105.814 51.6349C107.155 50.7238 108.427 49.6777 109.562 48.4967C109.562 48.4967 128.196 28.2501 107.671 14.01Z" class="hair"  fill="#1A1A1A"/>
<path d="M60.8809 84.5366V99.5528C60.8809 100.059 60.984 100.531 61.1559 100.97C61.8779 102.725 63.9063 103.535 65.7628 103.062L69.7509 102.016" stroke="#D26665" stroke-width="2.5" stroke-linecap="square" stroke-linejoin="round"/>
<path d="M45.7193 84.2319C47.9029 84.2319 49.6731 82.4945 49.6731 80.3513C49.6731 78.2081 47.9029 76.4707 45.7193 76.4707C43.5358 76.4707 41.7656 78.2081 41.7656 80.3513C41.7656 82.4945 43.5358 84.2319 45.7193 84.2319Z" class="hair"  fill="#1A1A1A"/>
<path d="M82.3336 84.2319C84.5172 84.2319 86.2873 82.4945 86.2873 80.3513C86.2873 78.2081 84.5172 76.4707 82.3336 76.4707C80.15 76.4707 78.3799 78.2081 78.3799 80.3513C78.3799 82.4945 80.15 84.2319 82.3336 84.2319Z" class="hair"  fill="#1A1A1A"/>
<path d="M57.7973 67.2398L57.3912 62.7901L41.9618 64.4212C40.0306 64.5974 38.1942 65.4025 36.8068 66.613L31.2299 73.2106L41.3247 70.9824L57.8001 67.2715L57.7973 67.2398Z" class="hair"  fill="#1A1A1A"/>
<path d="M70.7782 67.6859L71.3021 62.7452L86.1063 64.4307C87.9595 64.6138 89.7147 65.4251 91.0342 66.6401L96.3543 73.2586L86.6814 70.9952L70.8107 67.721L70.7782 67.6859Z" class="hair"  fill="#1A1A1A"/>
<path d="M63.4619 134.061V139.32" stroke="#D26665" stroke-width="2.5" stroke-linecap="square" stroke-linejoin="round"/>
</svg>
