<svg width="130" height="210" viewBox="0 0 130 210" fill="none" xmlns="http://www.w3.org/2000/svg">
<path d="M64.6267 202C48.1749 202 34.8486 188.92 34.8486 172.772V110.576H94.4048V172.772C94.4048 188.92 81.0785 202 64.6267 202Z" class="skin"  fill="#F3A396"/>
<path d="M34.8486 130.33C34.8486 130.33 51.2317 160.232 69.9504 158.748C98.9041 156.49 94.0957 121.262 94.0957 121.262C94.0957 121.262 82.8645 144.758 65.1076 144.758C45.2899 144.758 34.8486 130.296 34.8486 130.296V130.33Z" fill="#D26665"/>
<path d="M20.1834 89.0002L17.2296 59.4357C13.4172 40.5238 28.4265 30.5454 41.581 30.5454H87.0896C101.034 30.5454 117.623 40.4564 110.548 61.7618L106.495 93.9894L20.2177 89.0002H20.1834Z" class="hair"  fill="#1A1A1A"/>
<path d="M103.37 105.215C112.403 111.755 127.996 82.0222 119.204 74.9766C110.411 67.931 104.607 80.8423 104.607 80.8423L104.4 91.7647L103.095 102.013L102.58 105.182H103.37V105.215Z" class="skin"  fill="#F3A396"/>
<path d="M116.707 83.9838C116.707 83.9838 111.085 80.5995 106.448 90.0722" stroke="#D26665" stroke-width="2.13567" stroke-linecap="square" stroke-linejoin="round"/>
<path d="M109.289 86.7866C109.289 86.7866 115.815 90.4232 111.109 96.0192" stroke="#D26665" stroke-width="2.13567" stroke-linecap="square" stroke-linejoin="round"/>
<path d="M24.6152 105.216C15.5822 111.756 -0.0109684 82.023 8.78164 74.9774C17.5742 67.9318 23.104 80.9779 23.104 80.9779L23.6192 91.7654L24.9243 102.014L25.4052 105.182H24.6152V105.216Z" class="skin"  fill="#F3A396"/>
<path d="M11.1621 83.9852C11.1621 83.9852 17.6879 81.8277 22.3246 91.3005" stroke="#D26665" stroke-width="2.13567" stroke-linecap="square" stroke-linejoin="round"/>
<path d="M18.2675 86.7412C18.2675 86.7412 12.056 90.4246 16.7614 96.0206" stroke="#D26665" stroke-width="2.13567" stroke-linecap="square" stroke-linejoin="round"/>
<path d="M106.358 66.8531C106.358 85.2592 103.85 101.137 101.377 112.43C98.9387 123.454 92.0695 133.095 82.3839 139.332L80.6323 140.478C70.3628 147.051 57.1395 147.186 46.6983 140.882C36.1884 134.511 28.8383 124.162 26.5715 112.295C22.45 90.7541 22.0034 66.8868 22.0034 66.8868C22.0034 66.8868 18.088 20.3994 63.5623 21.3096C109.037 22.2198 106.323 66.8868 106.323 66.8868L106.358 66.8531Z" class="skin"  fill="#F3A396"/>
<path d="M106.942 14.1959C92.4821 4.15008 63.9404 11.1957 48.3816 18.1738C48.6907 13.6229 45.84 14.1285 45.84 14.1285C18.4662 21.3427 25.6445 42.5131 25.6445 42.5131C25.6445 42.5131 25.7475 42.5806 25.9193 42.648C23.0686 48.7497 19.3592 61.7284 22.8625 85.2249C22.8625 85.2249 30.1095 59.8069 30.3156 44.6369C42.4741 49.8958 75.7555 62.6723 97.4622 55.5256C99.5917 68.4706 105.293 85.2249 105.293 85.2249C107.56 69.9876 106.598 59.1326 105.087 51.7837C106.427 50.8735 107.697 49.8284 108.831 48.6485C108.831 48.6485 127.446 28.422 106.942 14.1959Z" class="hair"  fill="#1A1A1A"/>
<path d="M60.2002 81.9912V96.9926C60.2002 97.4982 60.3032 97.9702 60.475 98.4084C61.1962 100.161 63.2226 100.97 65.0773 100.499L69.0615 99.4535" stroke="#D26665" stroke-width="2.66959" stroke-linecap="square" stroke-linejoin="round"/>
<path d="M45.4713 83.1657C47.9526 83.1657 49.9641 81.036 49.9641 78.3449C49.9641 75.6539 47.9526 78.3449 45.4713 78.3449C42.99 78.3449 40.9785 75.6539 40.9785 78.3449C40.9785 81.036 42.99 83.1657 45.4713 83.1657Z" class="hair"  fill="#1A1A1A"/>
<path d="M80.8029 83.1657C83.2235 83.1657 85.1858 81.036 85.1858 78.3449C85.1858 75.6539 83.2235 78.3449 80.8029 78.3449C78.3822 78.3449 76.4199 75.6539 76.4199 78.3449C76.4199 81.036 78.3822 83.1657 80.8029 83.1657Z" class="hair"  fill="#1A1A1A"/>
<path d="M55.0817 71.5722L55.2191 64.021L40.9312 64.257C39.1452 64.257 37.3935 64.9312 36.0197 66.0774L30.3525 72.5162L39.7977 71.134L55.0817 71.606V71.5722Z" class="hair"  fill="#1A1A1A"/>
<path d="M71.8083 71.5722L71.6709 64.021L85.9589 64.257C87.7449 64.257 89.4965 64.9312 90.8704 66.0774L96.5718 72.5162L87.1266 71.134L71.8426 71.606L71.8083 71.5722Z" class="hair"  fill="#1A1A1A"/>
<path d="M62.7764 134.128V139.382" stroke="#D26665" stroke-width="2.66959" stroke-linecap="square" stroke-linejoin="round"/>
<path d="M49.9609 107.321C60.4253 112.326 66.5255 111.983 77.7247 107.321" stroke="#D26665" stroke-width="2.66959" stroke-linecap="square"/>
<path d="M59.0352 115.33C62.7865 116.54 64.8942 116.692 68.6457 115.33" stroke="#D26665" stroke-width="2.66959" stroke-linecap="square"/>
</svg>
