<svg width="130" height="210" viewBox="0 0 130 210" fill="none" xmlns="http://www.w3.org/2000/svg">
<path d="M65.5029 202.191C49.0348 202.191 35.6953 189.098 35.6953 172.935V110.676H95.3105V172.935C95.3105 189.098 81.971 202.191 65.5029 202.191Z" class="skin"  fill="#F3A396"/>
<path d="M34.1998 130C34.1998 130 46.336 155.275 65.1299 155C94.1978 154.611 95.6015 120.011 95.6015 120.011C95.6015 120.011 82.8675 142.758 65.1299 141.613C45.3338 140.335 40.1998 120.011 40.1998 120.011L34.1998 130Z" fill="#D26665"/>
<path d="M20.4205 86.558L19.1572 56.8437C16.4274 37.7262 31.997 28.6114 45.1432 29.3628L90.6226 31.9621C104.558 32.7586 120.571 43.6107 112.283 64.4983L106.392 96.4738L20.4548 86.5599L20.4205 86.558Z" class="hair"   fill="#1A1A1A"/>
<path d="M102.629 107.514C111.282 114.565 128.564 85.7419 120.179 78.1987C111.795 70.6554 105.256 83.2269 105.256 83.2269L104.427 94.1304L102.537 104.297L101.841 107.435L102.631 107.48L102.629 107.514Z" class="skin"  fill="#F3A396"/>
<path d="M115.998 87.2321C115.998 87.2321 110.733 84.0628 106.391 92.9338" stroke="#D26665" stroke-width="2" stroke-linecap="square" stroke-linejoin="round"/>
<path d="M109.051 89.8569C109.051 89.8569 115.162 93.2625 110.755 98.503" stroke="#D26665" stroke-width="2" stroke-linecap="square" stroke-linejoin="round"/>
<path d="M23.9221 103.016C14.5213 109.036 0.636373 78.4315 9.82577 71.8926C19.0152 65.3538 23.7962 78.7074 23.7962 78.7074L23.6949 89.5174L24.4139 99.8335L24.7134 103.028L23.924 102.983L23.9221 103.016Z" class="skin"  fill="#F3A396"/>
<path d="M12.1562 81.2335C12.1562 81.2335 18.2674 79.2131 22.6096 88.0841" stroke="#D26665" stroke-width="2" stroke-linecap="square" stroke-linejoin="round"/>
<path d="M18.809 83.8145C18.809 83.8145 12.992 87.2638 17.3985 92.5043" stroke="#D26665" stroke-width="2" stroke-linecap="square" stroke-linejoin="round"/>
<path d="M107.806 69.3469C106.755 87.7413 103.342 103.466 100.226 114.61C97.159 125.488 89.7435 134.73 79.7079 140.41L77.8919 141.455C67.2535 147.438 54.0311 146.817 43.9566 139.921C33.8173 132.954 27.0631 122.191 25.4754 110.203C22.5869 88.4401 23.5039 64.5626 23.5039 64.5626C23.5039 64.5626 22.2462 17.8813 67.6393 21.3883C113.032 24.8952 107.77 69.3787 107.77 69.3787L107.806 69.3469Z" class="skin"  fill="#F3A396"/>
<path d="M61.9482 136.492L61.9482 141.412" stroke="#D26665" stroke-width="2.5" stroke-linecap="square" stroke-linejoin="round"/>
<path d="M111.396 16.7571C97.5194 5.89181 68.5936 11.3027 52.6462 17.3877C53.2151 12.8573 50.3373 13.1998 50.3373 13.1998C22.5689 18.8458 28.5335 40.4128 28.5335 40.4128C28.5335 40.4128 28.6326 40.486 28.8004 40.5632C25.603 46.4982 21.1546 59.2567 23.3137 82.9383C23.3137 82.9383 32.0079 57.9504 33.0803 42.802C44.9306 48.752 77.4609 63.4212 99.562 57.5188C100.951 70.5772 105.692 87.6464 105.692 87.6464C108.827 72.5483 108.486 61.6454 107.396 54.2148C108.786 53.3817 110.116 52.4099 111.316 51.2955C111.316 51.2955 131.075 32.1452 111.396 16.7571Z" class="hair"   fill="#1A1A1A"/>
<path d="M60.6562 84.498L59.7994 99.4898C59.7705 99.9951 59.8465 100.473 59.9931 100.92C60.6138 102.713 62.5927 103.638 64.4732 103.272L68.5145 102.455" stroke="#D26665" stroke-width="2.5" stroke-linecap="square" stroke-linejoin="round"/>
<path d="M45.5367 83.3286C47.7167 83.4532 49.5831 81.8197 49.7053 79.68C49.8276 77.5403 48.1595 75.7047 45.9795 75.5801C43.7995 75.4555 41.9331 77.0891 41.8108 79.2288C41.6885 81.3685 43.3566 83.204 45.5367 83.3286Z" class="hair"   fill="#1A1A1A"/>
<path d="M82.0923 85.418C84.2723 85.5426 86.1387 83.909 86.261 81.7693C86.3833 79.6296 84.7152 77.794 82.5352 77.6694C80.3551 77.5449 78.4888 79.1784 78.3665 81.3181C78.2442 83.4578 79.9123 85.2934 82.0923 85.418Z" class="hair"   fill="#1A1A1A"/>
<path d="M71.1942 65.5027L72.9117 61.6236L86.4452 62.7846C88.1626 63.2811 89.6805 64.3441 90.7185 65.7052L95.3321 72.4205L85.5768 67.8565L71.1859 65.5315L71.1942 65.5027Z" class="hair"   fill="#1A1A1A"/>
<path d="M58.2227 69.5623L58.3335 67.6239L44.296 64.9965C42.5111 64.8944 40.7221 65.4682 39.2836 66.5351L33.2181 72.6442L41.3479 70.6012L58.1086 71.5591L58.2227 69.5623Z" class="hair"   fill="#1A1A1A"/>
<path d="M53.0105 111.916C53.0105 111.916 64.6649 110.941 75.3719 115.419" stroke="#D26665" stroke-width="2.5" stroke-linecap="square" stroke-linejoin="round"/>
<path d="M59.5532 118.83C59.5532 118.83 64.8675 118.975 67.869 120.205" stroke="#D26665" stroke-width="2.5" stroke-linecap="square" stroke-linejoin="round"/>
<path fill-rule="evenodd" clip-rule="evenodd" d="M62.7697 65.4234C63.129 65.2174 63.5873 65.3417 63.7933 65.7011C64.9199 67.6664 64.4627 69.5299 63.3985 70.8666C61.2459 72.9771 59.3062 71.8646 59.3062 71.8646C59.3062 71.8646 61.4388 70.9198 62.225 69.9323C62.974 68.9915 63.2621 67.7906 62.492 66.447C62.286 66.0877 62.4103 65.6294 62.7697 65.4234Z" fill="#D26665"/>
</svg>
