<svg width="215" height="243" viewBox="0 0 215 243" fill="none" xmlns="http://www.w3.org/2000/svg">
<path d="M67.1689 161.753C20.8682 86.9856 58.3344 28.2343 104.743 30.8862C191.432 35.8397 150.916 119.688 163.984 161.753H67.1689Z" class="hair" class="hair" fill="black"/>
<path d="M54.616 108.396C53.7443 100.102 58.2427 92.832 64.6636 92.1571C71.0844 91.4822 76.9962 97.6586 77.8679 105.952C78.7396 114.246 74.2412 121.517 67.8203 122.192C61.3995 122.867 55.4877 116.69 54.616 108.396Z" class="hair" fill="black"/>
<path d="M68.2651 119.02C68.3151 117.3 68.7051 102.11 65.9251 97.6699L63.6351 99.0999C65.6251 102.27 65.7051 114.49 65.5651 118.93L68.2651 119.01V119.02Z" class="hair" fill="black"/>
<path d="M60.7776 107.312L67.416 109.301L66.6382 111.897L59.9998 109.908L60.7776 107.312Z" class="hair" fill="black"/>
<path d="M167.567 110.004C168.438 101.71 163.94 94.4394 157.519 93.7645C151.098 93.0897 145.186 99.266 144.315 107.56C143.443 115.854 147.941 123.124 154.362 123.799C160.783 124.474 166.695 118.298 167.567 110.004Z" class="hair" fill="black"/>
<path d="M153.918 118.011C153.868 116.291 153.477 101.101 156.257 96.6611L158.547 98.0911C156.557 101.261 156.477 113.481 156.617 117.921L153.918 118.001V118.011Z" class="hair" fill="black"/>
<path d="M161.406 106.303L154.768 108.292L155.545 110.888L162.184 108.899L161.406 106.303Z" class="hair" fill="black"/>
<path d="M132.967 168.501C131.097 165.531 130.447 148.301 130.447 148.301L112.597 149.131L94.8074 150.791C94.8074 150.791 96.5574 167.941 95.1174 171.151C93.6774 174.351 80.1074 180.201 80.1074 180.201C84.3274 196.771 105.127 205.841 117.637 204.451C132.847 202.771 149.607 189.601 150.907 175.651C150.907 175.651 134.837 171.481 132.957 168.511L132.967 168.501Z" class="hair" fill="black"/>
<path d="M131.228 159.641C130.978 157.221 130.798 154.741 130.678 152.711C128.308 153.831 122.478 156.111 113.138 156.761C101.668 157.561 95.938 155.121 95.168 154.761C95.318 156.631 95.478 158.951 95.588 161.271C98.568 164.731 104.708 170.171 114.028 169.521C122.638 168.921 128.248 163.491 131.228 159.651V159.641Z" class="hair" fill="black"/>
<path d="M66.9275 75.1108C66.9275 75.1108 72.9475 42.1008 109.737 41.4608C146.537 41.1808 153.377 74.0308 153.377 74.0308C153.377 74.0308 156.277 110.921 145.437 135.981C139.467 149.791 126.367 160.581 111.257 160.831C96.1475 160.961 82.7275 150.501 76.4075 136.841C64.9475 112.061 66.9275 75.1108 66.9275 75.1108Z" class="hair" fill="black"/>
<path d="M100.33 89.3782C101.327 87.7642 101.121 86.9523 100.459 85.5301C99.7967 84.1079 87.0786 85.6503 87.0786 85.6503C85.406 85.6503 83.7657 85.9939 82.4791 86.578L76.1475 90.8748L86.0172 89.1548L100.33 89.3953V89.3782Z" class="hair" fill="black"/>
<path d="M119.479 89.3782C118.482 87.7642 118.688 86.9523 119.351 85.5301C120.013 84.1079 132.731 85.6503 132.731 85.6503C134.404 85.6503 136.044 85.9939 137.33 86.578L143.662 90.8748L133.792 89.1548L119.479 89.3953V89.3782Z" class="hair" fill="black"/>
<circle cx="84.0156" cy="108.595" r="10.0146" class="hair" fill="black"/>
<circle cx="136.325" cy="107.846" r="10.0146" class="hair" fill="black"/>
<path d="M112.598 97.9541C113.173 104.728 115.508 107.618 115.508 110.887C115.508 114.157 110.902 113.12 110.902 113.12" stroke="black" stroke-width="2.5"/>
<path d="M111.957 149.281C110.437 149.301 109.447 149.091 109.367 149.071L109.917 146.571C109.917 146.571 113.317 147.261 117.157 145.601L118.177 147.951C115.787 148.981 113.577 149.261 111.957 149.281Z" class="hair" fill="black"/>
<path d="M127.847 125.62C125.207 122.93 119.007 123.05 111.277 123.15C103.867 123.24 98.5572 125.03 95.3272 126.98C91.9872 128.99 94.3272 144.14 111.537 143.93C128.237 143.73 130.297 128.11 127.847 125.62Z" class="hair" fill="black"/>
<path d="M111.278 123.151C106.068 123.211 101.908 124.121 98.7676 125.331C98.8576 126.721 99.0976 128.061 99.8876 128.381C100.808 128.751 106.678 128.531 111.688 128.441C116.208 128.361 123.108 127.801 123.698 126.961C123.938 126.621 124.038 125.211 124.128 123.781C120.928 123.021 116.448 123.091 111.278 123.151Z" class="hair" fill="black"/>
<path d="M101.547 141.791C104.097 143.131 107.377 143.981 111.537 143.931C115.707 143.881 118.967 142.871 121.467 141.341C120.647 139.911 118.117 138.561 111.077 139.131C104.967 139.631 102.447 140.731 101.547 141.791Z" class="hair" fill="black"/>
<path d="M131.992 104.439C129.762 104.439 127.954 102.437 127.954 99.9686C127.954 97.4997 131.245 95.4209 133.474 95.4209C135.515 95.9021 136.029 96.4124 137.325 97.601C136.029 98.5752 136.029 99.0562 136.029 99.9685V99.9686C136.029 102.437 134.222 104.439 131.992 104.439Z" class="hair" fill="black"/>
<path d="M88.2874 104.439C90.5172 104.439 92.3249 102.437 92.3249 99.9686C92.3249 97.4997 89.0346 95.4209 86.8048 95.4209C84.7639 95.9021 84.2499 96.4124 82.9541 97.601C84.2499 98.5752 84.2499 99.0562 84.2499 99.9685V99.9686C84.2499 102.437 86.0575 104.439 88.2874 104.439Z" class="hair" fill="black"/>
<path d="M63.2354 77.5236C66.3274 43.0904 88.8697 33.8473 107.125 33.8473C154.218 31.6819 157.872 74.7697 154.794 89.5623L152.262 111.653L145.99 89.5618L140.407 73.4828V83.1076H124.947L120.653 73.4828V83.1076H107.125V63.3239L98.7509 83.1076H77.0638L75.1313 75.3542L70.7651 91.2384L69.3839 107.911L63.2354 77.5236Z" class="hair" fill="black"/>
<path d="M74.9662 116.963C74.5528 120.683 69.0522 121.958 66.3535 122.131C67.1574 125.805 69.6952 132.913 73.4159 131.949C78.0667 130.743 75.4829 112.312 74.9662 116.963Z" class="hair" fill="black"/>
<path d="M147.596 118.6C148.01 122.321 153.51 123.596 156.209 123.768C155.405 127.443 152.867 134.551 149.147 133.586C144.496 132.381 147.08 113.95 147.596 118.6Z" class="hair" fill="black"/>
<path class="skin" d="M54.616 108.396C53.7443 100.102 58.2427 92.832 64.6636 92.1571C71.0844 91.4822 76.9962 97.6586 77.8679 105.952C78.7396 114.246 74.2412 121.517 67.8203 122.192C61.3995 122.867 55.4877 116.69 54.616 108.396Z" fill="#B2674B"/>
<path d="M65.7452 98.3717L64.3 99.2742C64.729 100.161 65.0463 101.415 65.2887 102.827C65.5781 104.512 65.7717 106.495 65.8979 108.507C66.1325 112.249 66.136 116.124 66.0789 118.445L67.7787 118.495C67.813 117.027 67.8676 113.336 67.6571 109.392C67.5357 107.118 67.3268 104.77 66.9777 102.721C66.6718 100.926 66.2658 99.4088 65.7452 98.3717Z" fill="#773E2A" stroke="#773E2A"/>
<path d="M66.7935 109.636L61.1131 107.934L60.6222 109.572L66.3027 111.274L66.7935 109.636Z" fill="#773E2A" stroke="#773E2A"/>
<path class="skin" d="M167.567 110.004C168.438 101.71 163.94 94.4394 157.519 93.7645C151.098 93.0897 145.186 99.266 144.315 107.56C143.443 115.854 147.941 123.124 154.362 123.799C160.783 124.474 166.695 118.298 167.567 110.004Z" fill="#B2674B"/>
<path d="M156.437 97.363L157.883 98.2654C157.454 99.1524 157.136 100.406 156.894 101.818C156.605 103.503 156.411 105.486 156.285 107.499C156.05 111.24 156.047 115.116 156.104 117.436L154.404 117.487C154.37 116.019 154.315 112.327 154.526 108.383C154.647 106.109 154.856 103.761 155.205 101.712C155.511 99.9172 155.917 98.4 156.437 97.363Z" fill="#773E2A" stroke="#773E2A"/>
<path d="M155.39 108.627L161.071 106.925L161.561 108.563L155.881 110.265L155.39 108.627Z" fill="#773E2A" stroke="#773E2A"/>
<path class="skin" d="M132.967 168.501C131.097 165.531 130.447 148.301 130.447 148.301L112.597 149.131L94.8074 150.791C94.8074 150.791 96.5574 167.941 95.1174 171.151C93.6774 174.351 80.1074 180.201 80.1074 180.201C84.3274 196.771 105.127 205.841 117.637 204.451C132.847 202.771 149.607 189.601 150.907 175.651C150.907 175.651 134.837 171.481 132.957 168.511L132.967 168.501Z" fill="#B2674B"/>
<path d="M131.228 159.641C130.978 157.221 130.798 154.741 130.678 152.711C128.308 153.831 122.478 156.111 113.138 156.761C101.668 157.561 95.938 155.121 95.168 154.761C95.318 156.631 95.478 158.951 95.588 161.271C98.568 164.731 104.708 170.171 114.028 169.521C122.638 168.921 128.248 163.491 131.228 159.651V159.641Z" fill="#773E2A"/>
<path class="skin" d="M66.9275 75.1108C66.9275 75.1108 72.9475 42.1008 109.737 41.4608C146.537 41.1808 153.377 74.0308 153.377 74.0308C153.377 74.0308 156.277 110.921 145.437 135.981C139.467 149.791 126.367 160.581 111.257 160.831C96.1475 160.961 82.7275 150.501 76.4075 136.841C64.9475 112.061 66.9275 75.1108 66.9275 75.1108Z" fill="#B2674B"/>
<path fill-rule="evenodd" clip-rule="evenodd" d="M114.634 84.9453C114.274 84.7393 113.816 84.8637 113.61 85.223C112.483 87.1884 112.941 89.0519 114.005 90.3885C116.157 92.499 118.097 91.3866 118.097 91.3866C118.097 91.3866 115.965 90.4418 115.178 89.4543C114.429 88.5135 114.141 87.3125 114.911 85.969C115.117 85.6096 114.993 85.1513 114.634 84.9453Z" fill="#773E2A"/>
<path d="M99.4707 85.623C100.19 83.8679 99.8544 83.1005 98.9686 81.8057C98.0828 80.5109 85.7879 84.1115 85.7879 84.1115C84.1379 84.385 82.5758 84.9921 81.402 85.7786L75.8579 91.0526L85.3137 87.7424L99.4735 85.64L99.4707 85.623Z" fill="#23120C"/>
<path d="M119.876 91.0468C118.533 89.7074 118.545 88.8698 118.86 87.333C119.175 85.7961 131.905 84.3531 131.905 84.3531C133.532 83.966 135.207 83.9206 136.594 84.191L143.749 86.9057L133.749 87.5168L119.88 91.0635L119.876 91.0468Z" fill="#23120C"/>
<path d="M112.598 97.9541C113.173 104.728 115.508 107.618 115.508 110.887C115.508 114.157 110.902 113.12 110.902 113.12" stroke="#773E2A" stroke-width="2.5"/>
<path d="M103.953 129.066L103.072 127.461C103.964 127.015 106.086 126.033 108.849 125.283C112.27 124.355 116.627 123.796 120.836 125.011L120.273 126.751C116.379 125.645 112.286 126.237 109.147 127.11C106.69 127.794 104.781 128.66 103.953 129.066Z" fill="#773E2A" stroke="#773E2A"/>
<path d="M116.216 129.789L116.384 131.604C113.909 131.876 112.153 132.424 111.355 132.715L110.607 131.051C111.454 130.733 113.425 130.092 116.216 129.789Z" fill="#773E2A" stroke="#773E2A"/>
<circle cx="132.375" cy="100.349" r="4" fill="black"/>
<circle cx="87.375" cy="100.349" r="4" fill="black"/>
<path d="M63.2354 77.5236C66.3274 43.0904 88.8697 33.8473 107.125 33.8473C154.218 31.6819 157.872 74.7697 154.794 89.5623L152.262 111.653L145.99 89.5618L140.407 73.4828V83.1076H124.947L120.653 73.4828V83.1076H107.125V63.3239L98.7509 83.1076H77.0638L75.1313 75.3542L70.7651 91.2384L69.3839 107.911L63.2354 77.5236Z" class="hair" fill="black"/>
<path d="M74.9662 116.963C74.5528 120.683 69.0522 121.958 66.3535 122.131C67.1574 125.805 69.6952 132.913 73.4159 131.949C78.0667 130.743 75.4829 112.312 74.9662 116.963Z" class="hair" fill="black"/>
<path d="M147.596 118.6C148.01 122.321 153.51 123.596 156.209 123.768C155.405 127.443 152.867 134.551 149.147 133.586C144.496 132.381 147.08 113.95 147.596 118.6Z" class="hair" fill="black"/>
</svg>
