<svg width="215" height="243" viewBox="0 0 215 243" fill="none" xmlns="http://www.w3.org/2000/svg">
<path d="M67.3134 161.953C21.0127 87.1858 58.4789 28.4345 104.887 31.0864C191.577 36.0399 151.061 119.888 164.129 161.953H67.3134Z" class="hair" fill="black" class="hair" fill="black"/>
<path d="M54.7605 108.597C53.8888 100.303 58.3873 93.0322 64.8081 92.3573C71.2289 91.6824 77.1407 97.8588 78.0124 106.153C78.8842 114.446 74.3857 121.717 67.9649 122.392C61.544 123.067 55.6322 116.89 54.7605 108.597Z" fill="#976449"/>
<path d="M68.4096 119.22C68.4596 117.5 68.8497 102.31 66.0697 97.8701L63.7797 99.3001C65.7697 102.47 65.8497 114.69 65.7097 119.13L68.4096 119.21V119.22Z" fill="#311911"/>
<path d="M60.9221 107.512L67.5605 109.501L66.7827 112.097L60.1443 110.108L60.9221 107.512Z" fill="#311911"/>
<path d="M167.711 110.204C168.583 101.91 164.084 94.6396 157.664 93.9647C151.243 93.2899 145.331 99.4662 144.459 107.76C143.588 116.054 148.086 123.324 154.507 123.999C160.928 124.674 166.839 118.498 167.711 110.204Z" fill="#976449"/>
<path d="M154.062 118.211C154.012 116.491 153.622 101.301 156.402 96.8613L158.692 98.2913C156.702 101.461 156.622 113.681 156.762 118.121L154.062 118.201V118.211Z" fill="#311911"/>
<path d="M161.551 106.503L154.912 108.492L155.69 111.088L162.328 109.099L161.551 106.503Z" fill="#311911"/>
<path d="M133.112 168.701C131.242 165.731 130.592 148.501 130.592 148.501L112.742 149.331L94.952 150.991C94.952 150.991 96.7019 168.141 95.2619 171.351C93.8219 174.551 80.252 180.401 80.252 180.401C84.472 196.971 105.272 206.041 117.782 204.651C132.992 202.971 149.752 189.801 151.052 175.851C151.052 175.851 134.982 171.681 133.102 168.711L133.112 168.701Z" fill="#976449"/>
<path d="M131.372 159.841C131.122 157.421 130.942 154.941 130.822 152.911C128.452 154.031 122.623 156.311 113.283 156.961C101.813 157.761 96.0825 155.321 95.3125 154.961C95.4625 156.831 95.6225 159.151 95.7325 161.471C98.7125 164.931 104.853 170.371 114.173 169.721C122.783 169.121 128.392 163.691 131.372 159.851V159.841Z" fill="#311911"/>
<path d="M67.072 75.311C67.072 75.311 73.092 42.301 109.882 41.661C146.682 41.381 153.522 74.231 153.522 74.231C153.522 74.231 156.422 111.121 145.582 136.181C139.612 149.991 126.512 160.781 111.402 161.031C96.292 161.161 82.872 150.701 76.552 137.041C65.092 112.261 67.072 75.311 67.072 75.311Z" fill="#976449"/>
<path d="M100.475 89.5784C101.472 87.9644 101.266 87.1525 100.603 85.7303C99.9412 84.3081 87.2231 85.8505 87.2231 85.8505C85.5506 85.8505 83.9102 86.1941 82.6236 86.7782L76.292 91.075L86.1617 89.355L100.475 89.5955V89.5784Z" fill="#311911"/>
<path d="M119.624 89.5784C118.627 87.9644 118.833 87.1525 119.495 85.7303C120.157 84.3081 132.876 85.8505 132.876 85.8505C134.548 85.8505 136.188 86.1941 137.475 86.7782L143.807 91.075L133.937 89.355L119.624 89.5955V89.5784Z" fill="#311911"/>
<circle cx="84.1602" cy="108.795" r="10.0146" fill="#A56B5E"/>
<circle cx="136.47" cy="108.046" r="10.0146" fill="#A56B5E"/>
<path d="M112.743 98.1543C113.317 104.928 115.652 107.818 115.652 111.087C115.652 114.357 111.047 113.321 111.047 113.321" stroke="#311911" stroke-width="2.5"/>
<path d="M112.102 149.481C110.582 149.501 109.592 149.291 109.512 149.271L110.062 146.771C110.062 146.771 113.462 147.461 117.302 145.801L118.322 148.151C115.932 149.181 113.722 149.461 112.102 149.481Z" fill="#311911"/>
<path d="M127.992 125.82C125.352 123.13 119.152 123.25 111.422 123.35C104.012 123.44 98.7017 125.23 95.4717 127.18C92.1317 129.19 94.4717 144.34 111.682 144.13C128.382 143.93 130.442 128.31 127.992 125.82Z" fill="#4D3A37"/>
<path d="M111.422 123.351C106.212 123.411 102.052 124.321 98.9121 125.531C99.0021 126.921 99.2421 128.261 100.032 128.581C100.952 128.951 106.822 128.731 111.832 128.641C116.352 128.561 123.252 128.001 123.842 127.161C124.082 126.821 124.182 125.411 124.272 123.981C121.072 123.221 116.592 123.291 111.422 123.351Z" fill="white"/>
<path d="M101.691 141.991C104.241 143.331 107.521 144.181 111.681 144.131C115.851 144.081 119.111 143.071 121.611 141.541C120.791 140.111 118.261 138.761 111.221 139.331C105.111 139.831 102.591 140.931 101.691 141.991Z" fill="#9E6275"/>
<path d="M132.136 104.639C129.907 104.639 128.099 102.638 128.099 100.169C128.099 97.6999 131.389 95.6211 133.619 95.6211C135.66 96.1023 136.174 96.6126 137.47 97.8012C136.174 98.7754 136.174 99.2564 136.174 100.169V100.169C136.174 102.638 134.366 104.639 132.136 104.639Z" fill="#340C00"/>
<path d="M88.4319 104.639C90.6617 104.639 92.4694 102.638 92.4694 100.169C92.4694 97.6999 89.1792 95.6211 86.9493 95.6211C84.9084 96.1023 84.3944 96.6126 83.0986 97.8012C84.3944 98.7754 84.3944 99.2564 84.3944 100.169V100.169C84.3944 102.638 86.2021 104.639 88.4319 104.639Z" fill="#340C00"/>
<path d="M63.3799 77.7238C66.472 43.2906 89.0143 34.0475 107.27 34.0475C154.362 31.8821 158.016 74.9699 154.938 89.7625L152.406 111.853L146.135 89.762L140.552 73.683V83.3078H125.092L120.797 73.683V83.3078H107.27V63.5241L98.8954 83.3078H77.2083L75.2758 75.5544L70.9096 91.4386L69.5284 108.112L63.3799 77.7238Z" class="hair" fill="black"/>
<path d="M75.1107 117.163C74.6973 120.883 69.1967 122.158 66.498 122.331C67.3019 126.005 69.8398 133.114 73.5604 132.149C78.2112 130.943 75.6274 112.512 75.1107 117.163Z" class="hair" fill="black"/>
<path d="M147.741 118.8C148.154 122.521 153.655 123.796 156.354 123.968C155.55 127.643 153.012 134.751 149.291 133.787C144.64 132.581 147.224 114.15 147.741 118.8Z" class="hair" fill="black"/>
<path d="M67.3134 161.953C21.0127 87.1858 58.4789 28.4345 104.887 31.0864C191.577 36.0399 151.061 119.888 164.129 161.953H67.3134Z" class="hair" fill="black" class="hair" fill="black"/>
<path class="skin" d="M54.7605 108.597C53.8888 100.303 58.3873 93.0322 64.8081 92.3573C71.2289 91.6824 77.1407 97.8588 78.0124 106.153C78.8842 114.446 74.3857 121.717 67.9649 122.392C61.544 123.067 55.6322 116.89 54.7605 108.597Z" fill="#B2674B"/>
<path d="M68.4096 119.22C68.4596 117.5 68.8497 102.31 66.0697 97.8701L63.7797 99.3001C65.7697 102.47 65.8497 114.69 65.7097 119.13L68.4096 119.21V119.22Z" fill="#773E2A"/>
<path d="M60.9221 107.512L67.5605 109.501L66.7827 112.097L60.1443 110.108L60.9221 107.512Z" fill="#773E2A"/>
<path class="skin" d="M167.711 110.204C168.583 101.91 164.084 94.6396 157.664 93.9647C151.243 93.2899 145.331 99.4662 144.459 107.76C143.588 116.054 148.086 123.324 154.507 123.999C160.928 124.674 166.839 118.498 167.711 110.204Z" fill="#B2674B"/>
<path d="M154.062 118.211C154.012 116.491 153.622 101.301 156.402 96.8613L158.692 98.2913C156.702 101.461 156.622 113.681 156.762 118.121L154.062 118.201V118.211Z" fill="#773E2A"/>
<path d="M161.551 106.503L154.912 108.492L155.69 111.088L162.328 109.099L161.551 106.503Z" fill="#773E2A"/>
<path class="skin" d="M133.112 168.701C131.242 165.731 130.592 148.501 130.592 148.501L112.742 149.331L94.952 150.991C94.952 150.991 96.7019 168.141 95.2619 171.351C93.8219 174.551 80.252 180.401 80.252 180.401C84.472 196.971 105.272 206.041 117.782 204.651C132.992 202.971 149.752 189.801 151.052 175.851C151.052 175.851 134.982 171.681 133.102 168.711L133.112 168.701Z" fill="#B2674B"/>
<path d="M131.372 159.841C131.122 157.421 130.942 154.941 130.822 152.911C128.452 154.031 122.623 156.311 113.283 156.961C101.813 157.761 96.0825 155.321 95.3125 154.961C95.4625 156.831 95.6225 159.151 95.7325 161.471C98.7125 164.931 104.853 170.371 114.173 169.721C122.783 169.121 128.392 163.691 131.372 159.851V159.841Z" fill="#773E2A"/>
<path class="skin" d="M67.072 75.311C67.072 75.311 73.092 42.301 109.882 41.661C146.682 41.381 153.522 74.231 153.522 74.231C153.522 74.231 156.422 111.121 145.582 136.181C139.612 149.991 126.512 160.781 111.402 161.031C96.292 161.161 82.872 150.701 76.552 137.041C65.092 112.261 67.072 75.311 67.072 75.311Z" fill="#B2674B"/>
<path d="M112.332 136.013C110.146 135.881 108.771 135.096 108.675 135.03L110.115 132.603L109.4 133.821L110.105 132.602C110.231 132.68 113.305 134.349 117.655 131.839L119.069 134.289C116.453 135.803 114.119 136.122 112.342 136.014L112.332 136.013Z" fill="#311911"/>
<path d="M108.433 129.398C100.767 128.932 95.4405 127.066 95.0479 126.931L95.953 124.402C96.1196 124.462 113.171 130.397 130.184 123.276L131.226 125.753C123.002 129.201 114.891 129.79 108.443 129.398L108.433 129.398Z" fill="#311911"/>
<path d="M99.5237 87.8288C100.53 86.2205 100.328 85.4074 99.6739 83.9815C99.0197 82.5557 86.2931 84.0269 86.2931 84.0269C84.6206 84.0176 82.9783 84.3519 81.6885 84.9288L75.3329 89.1901L85.2121 87.5254L99.5236 87.846L99.5237 87.8288Z" fill="#311911"/>
<path d="M119.358 88.5517C118.363 86.9363 118.57 86.1247 119.235 84.7034C119.899 83.2822 132.615 84.8428 132.615 84.8428C134.287 84.8451 135.927 85.1911 137.213 85.777L143.538 90.0828L133.671 88.3488L119.358 88.5689L119.358 88.5517Z" fill="#311911"/>
<path d="M112.743 98.1543C113.317 104.928 115.652 107.818 115.652 111.087C115.652 114.357 111.047 113.321 111.047 113.321" stroke="#773E2A" stroke-width="2.5"/>
<circle cx="132.375" cy="100.549" r="4" fill="black"/>
<circle cx="87.375" cy="100.549" r="4" fill="black"/>
<path d="M63.3799 77.7238C66.472 43.2906 89.0143 34.0475 107.27 34.0475C154.362 31.8821 158.016 74.9699 154.938 89.7625L152.406 111.853L146.135 89.762L140.552 73.683V83.3078H125.092L120.797 73.683V83.3078H107.27V63.5241L98.8954 83.3078H77.2083L75.2758 75.5544L70.9096 91.4386L69.5284 108.112L63.3799 77.7238Z" class="hair" fill="black"/>
<path d="M75.1107 117.163C74.6973 120.883 69.1967 122.158 66.498 122.331C67.3019 126.005 69.8398 133.114 73.5604 132.149C78.2112 130.943 75.6274 112.512 75.1107 117.163Z" class="hair" fill="black"/>
<path d="M147.741 118.8C148.154 122.521 153.655 123.796 156.354 123.968C155.55 127.643 153.012 134.751 149.291 133.787C144.64 132.581 147.224 114.15 147.741 118.8Z" class="hair" fill="black"/>
</svg>
