<svg width="215" height="243" viewBox="0 0 215 243" fill="none" xmlns="http://www.w3.org/2000/svg">
<path d="M67.4579 161.745C21.1573 86.9768 58.6235 28.2255 105.032 30.8774C191.721 35.8309 151.206 119.679 164.273 161.745H67.4579Z" class="hair" fill="black" class="hair" fill="black"/>
<path d="M54.905 108.388C54.0333 100.094 58.5318 92.8232 64.9526 92.1483C71.3735 91.4735 77.2853 97.6498 78.157 105.944C79.0287 114.237 74.5302 121.508 68.1094 122.183C61.6885 122.858 55.7768 116.681 54.905 108.388Z" fill="#976449"/>
<path d="M68.5542 119.011C68.6042 117.291 68.9942 102.101 66.2142 97.6611L63.9242 99.0911C65.9142 102.261 65.9942 114.481 65.8542 118.921L68.5542 119.001V119.011Z" fill="#311911"/>
<path d="M61.0667 107.303L67.7051 109.292L66.9272 111.888L60.2888 109.899L61.0667 107.303Z" fill="#311911"/>
<path d="M167.856 109.995C168.727 101.701 164.229 94.4306 157.808 93.7557C151.387 93.0809 145.475 99.2573 144.604 107.551C143.732 115.845 148.231 123.115 154.651 123.79C161.072 124.465 166.984 118.289 167.856 109.995Z" fill="#976449"/>
<path d="M154.207 118.002C154.157 116.282 153.767 101.092 156.547 96.6523L158.837 98.0824C156.847 101.252 156.767 113.472 156.907 117.912L154.207 117.992V118.002Z" fill="#311911"/>
<path d="M161.695 106.294L155.057 108.283L155.834 110.879L162.473 108.89L161.695 106.294Z" fill="#311911"/>
<path d="M133.256 168.492C131.386 165.522 130.736 148.292 130.736 148.292L112.886 149.122L95.0965 150.782C95.0965 150.782 96.8465 167.932 95.4065 171.142C93.9665 174.342 80.3965 180.192 80.3965 180.192C84.6165 196.762 105.416 205.832 117.926 204.442C133.136 202.762 149.896 189.592 151.196 175.642C151.196 175.642 135.126 171.472 133.246 168.502L133.256 168.492Z" fill="#976449"/>
<path d="M131.517 159.632C131.267 157.212 131.087 154.732 130.967 152.702C128.597 153.822 122.767 156.102 113.427 156.752C101.957 157.552 96.227 155.112 95.457 154.752C95.607 156.622 95.767 158.942 95.877 161.262C98.857 164.722 104.997 170.162 114.317 169.512C122.927 168.912 128.537 163.482 131.517 159.642V159.632Z" fill="#311911"/>
<path d="M67.2165 75.102C67.2165 75.102 73.2365 42.092 110.027 41.452C146.827 41.172 153.667 74.022 153.667 74.022C153.667 74.022 156.567 110.912 145.727 135.972C139.757 149.782 126.657 160.572 111.547 160.822C96.4365 160.952 83.0165 150.492 76.6965 136.832C65.2365 112.052 67.2165 75.102 67.2165 75.102Z" fill="#976449"/>
<path d="M100.619 89.3694C101.616 87.7555 101.41 86.9435 100.748 85.5213C100.086 84.0991 87.3676 85.6415 87.3676 85.6415C85.6951 85.6415 84.0547 85.9851 82.7682 86.5692L76.4365 90.866L86.3062 89.146L100.619 89.3865V89.3694Z" fill="#311911"/>
<path d="M119.768 89.3694C118.771 87.7555 118.978 86.9435 119.64 85.5213C120.302 84.0991 133.02 85.6415 133.02 85.6415C134.693 85.6415 136.333 85.9851 137.62 86.5692L143.951 90.866L134.081 89.146L119.768 89.3865V89.3694Z" fill="#311911"/>
<circle cx="84.3047" cy="108.586" r="10.0146" fill="#A56B5E"/>
<circle cx="136.614" cy="107.837" r="10.0146" fill="#A56B5E"/>
<path d="M112.887 97.9453C113.462 104.719 115.797 107.609 115.797 110.878C115.797 114.148 111.191 113.112 111.191 113.112" stroke="#311911" stroke-width="2.5"/>
<path d="M112.246 149.272C110.726 149.292 109.736 149.082 109.656 149.062L110.206 146.562C110.206 146.562 113.606 147.252 117.446 145.592L118.466 147.942C116.076 148.972 113.866 149.252 112.246 149.272Z" fill="#311911"/>
<path d="M128.136 125.611C125.496 122.921 119.296 123.041 111.566 123.141C104.156 123.231 98.8463 125.021 95.6163 126.971C92.2763 128.981 94.6163 144.131 111.826 143.921C128.526 143.721 130.586 128.101 128.136 125.611Z" fill="#4D3A37"/>
<path d="M111.567 123.142C106.357 123.202 102.197 124.112 99.0566 125.322C99.1466 126.712 99.3867 128.052 100.177 128.372C101.097 128.742 106.967 128.522 111.977 128.432C116.497 128.352 123.397 127.792 123.987 126.952C124.227 126.612 124.327 125.202 124.417 123.772C121.217 123.012 116.737 123.082 111.567 123.142Z" fill="white"/>
<path d="M101.836 141.782C104.386 143.122 107.666 143.972 111.826 143.922C115.996 143.872 119.256 142.862 121.756 141.332C120.936 139.902 118.406 138.552 111.366 139.122C105.256 139.622 102.736 140.722 101.836 141.782Z" fill="#9E6275"/>
<path d="M132.281 104.43C130.051 104.43 128.243 102.429 128.243 99.9598C128.243 97.4909 131.534 95.4121 133.764 95.4121C135.804 95.8933 136.318 96.4036 137.614 97.5922C136.318 98.5665 136.318 99.0474 136.318 99.9597V99.9598C136.318 102.429 134.511 104.43 132.281 104.43Z" fill="#340C00"/>
<path d="M88.5764 104.43C90.8063 104.43 92.6139 102.429 92.6139 99.9598C92.6139 97.4909 89.3237 95.4121 87.0939 95.4121C85.053 95.8933 84.5389 96.4036 83.2432 97.5922C84.5389 98.5665 84.5389 99.0474 84.5389 99.9597V99.9598C84.5389 102.429 86.3466 104.43 88.5764 104.43Z" fill="#340C00"/>
<path d="M63.5244 77.5148C66.6165 43.0816 89.1588 33.8386 107.414 33.8386C154.507 31.6731 158.161 74.7609 155.083 89.5535L152.551 111.644L146.279 89.553L140.696 73.4741V83.0989H125.236L120.942 73.4741V83.0989H107.414V63.3151L99.0399 83.0989H77.3529L75.4203 75.3454L71.0541 91.2297L69.6729 107.903L63.5244 77.5148Z" class="hair" fill="black"/>
<path d="M75.2552 116.954C74.8419 120.674 69.3412 121.949 66.6426 122.122C67.4464 125.796 69.9843 132.905 73.7049 131.94C78.3558 130.734 75.772 112.303 75.2552 116.954Z" class="hair" fill="black"/>
<path d="M147.885 118.591C148.299 122.312 153.799 123.587 156.498 123.759C155.694 127.434 153.156 134.542 149.436 133.578C144.785 132.372 147.369 113.941 147.885 118.591Z" class="hair" fill="black"/>
<path d="M67.4579 161.745C21.1573 86.9768 58.6235 28.2255 105.032 30.8774C191.721 35.8309 151.206 119.679 164.273 161.745H67.4579Z" class="hair" fill="black" class="hair" fill="black"/>
<path class="skin" d="M54.905 108.388C54.0333 100.094 58.5318 92.8232 64.9526 92.1483C71.3735 91.4735 77.2853 97.6498 78.157 105.944C79.0287 114.237 74.5302 121.508 68.1094 122.183C61.6885 122.858 55.7768 116.681 54.905 108.388Z" fill="#B2674B"/>
<path d="M68.5542 119.011C68.6042 117.291 68.9942 102.101 66.2142 97.6611L63.9242 99.0911C65.9142 102.261 65.9942 114.481 65.8542 118.921L68.5542 119.001V119.011Z" fill="#773E2A"/>
<path d="M61.0667 107.303L67.7051 109.292L66.9272 111.888L60.2888 109.899L61.0667 107.303Z" fill="#773E2A"/>
<path class="skin" d="M167.856 109.995C168.727 101.701 164.229 94.4306 157.808 93.7557C151.387 93.0809 145.475 99.2573 144.604 107.551C143.732 115.845 148.231 123.115 154.651 123.79C161.072 124.465 166.984 118.289 167.856 109.995Z" fill="#B2674B"/>
<path d="M154.207 118.002C154.157 116.282 153.767 101.092 156.547 96.6523L158.837 98.0824C156.847 101.252 156.767 113.472 156.907 117.912L154.207 117.992V118.002Z" fill="#773E2A"/>
<path d="M161.695 106.294L155.057 108.283L155.834 110.879L162.473 108.89L161.695 106.294Z" fill="#773E2A"/>
<path class="skin" d="M133.256 168.492C131.386 165.522 130.736 148.292 130.736 148.292L112.886 149.122L95.0965 150.782C95.0965 150.782 96.8465 167.932 95.4065 171.142C93.9665 174.342 80.3965 180.192 80.3965 180.192C84.6165 196.762 105.416 205.832 117.926 204.442C133.136 202.762 149.896 189.592 151.196 175.642C151.196 175.642 135.126 171.472 133.246 168.502L133.256 168.492Z" fill="#B2674B"/>
<path d="M131.517 159.632C131.267 157.212 131.087 154.732 130.967 152.702C128.597 153.822 122.767 156.102 113.427 156.752C101.957 157.552 96.227 155.112 95.457 154.752C95.607 156.622 95.767 158.942 95.877 161.262C98.857 164.722 104.997 170.162 114.317 169.512C122.927 168.912 128.537 163.482 131.517 159.642V159.632Z" fill="#773E2A"/>
<path class="skin" d="M67.2165 75.102C67.2165 75.102 73.2365 42.092 110.027 41.452C146.827 41.172 153.667 74.022 153.667 74.022C153.667 74.022 156.567 110.912 145.727 135.972C139.757 149.782 126.657 160.572 111.547 160.822C96.4365 160.952 83.0165 150.492 76.6965 136.832C65.2365 112.052 67.2165 75.102 67.2165 75.102Z" fill="#B2674B"/>
<path d="M111.785 121.174C116.835 121.374 121.675 126.914 121.585 131.474C121.515 135.114 118.355 141.794 111.785 141.444C105.215 141.094 101.795 136.584 101.725 132.234C101.655 127.894 106.525 120.964 111.785 121.184V121.174Z" fill="#2D0600"/>
<path d="M116.646 137.984C112.966 136.214 108.936 137.494 105.496 139.324C107.096 140.494 109.196 141.294 111.786 141.434C114.706 141.594 116.956 140.354 118.556 138.614C117.906 138.484 117.266 138.274 116.646 137.984Z" fill="#A06275"/>
<path d="M117.086 123.283C115.516 122.063 113.666 121.253 111.796 121.173C109.736 121.093 107.746 122.093 106.086 123.613C109.756 123.573 113.426 123.463 117.096 123.283H117.086Z" fill="white"/>
<path d="M99.6682 87.6198C100.674 86.0115 100.473 85.1984 99.8184 83.7726C99.1642 82.3467 86.4376 83.8179 86.4376 83.8179C84.7651 83.8086 83.1229 84.143 81.8331 84.7198L75.4775 88.9812L85.3566 87.3164L99.6681 87.637L99.6682 87.6198Z" fill="#311911"/>
<path d="M119.502 88.3427C118.508 86.7274 118.715 85.9157 119.379 84.4944C120.043 83.0732 132.759 84.6338 132.759 84.6338C134.432 84.6362 136.072 84.9821 137.357 85.568L143.683 89.8738L133.816 88.1398L119.502 88.3599L119.502 88.3427Z" fill="#311911"/>
<path d="M112.887 97.9453C113.462 104.719 115.797 107.609 115.797 110.878C115.797 114.148 111.191 113.112 111.191 113.112" stroke="#773E2A" stroke-width="2.5"/>
<ellipse cx="88.1914" cy="99.6638" rx="4" ry="4.75369" fill="black"/>
<path d="M63.5244 77.5148C66.6165 43.0816 89.1588 33.8386 107.414 33.8386C154.507 31.6731 158.161 74.7609 155.083 89.5535L152.551 111.644L146.279 89.553L140.696 73.4741V83.0989H125.236L120.942 73.4741V83.0989H107.414V63.3151L99.0399 83.0989H77.3529L75.4203 75.3454L71.0541 91.2297L69.6729 107.903L63.5244 77.5148Z" class="hair" fill="black"/>
<path d="M75.2552 116.954C74.8419 120.674 69.3412 121.949 66.6426 122.122C67.4464 125.796 69.9843 132.905 73.7049 131.94C78.3558 130.734 75.772 112.303 75.2552 116.954Z" class="hair" fill="black"/>
<path d="M147.885 118.591C148.299 122.312 153.799 123.587 156.498 123.759C155.694 127.434 153.156 134.542 149.436 133.578C144.785 132.372 147.369 113.941 147.885 118.591Z" class="hair" fill="black"/>
<ellipse cx="134.19" cy="100.853" rx="4" ry="4.75369" fill="black"/>
</svg>
