<svg width="215" height="243" viewBox="0 0 215 243" fill="none" xmlns="http://www.w3.org/2000/svg">
<path d="M67.1689 161.753C20.8682 86.9856 58.3344 28.2343 104.743 30.8862C191.432 35.8397 150.916 119.688 163.984 161.753H67.1689Z" class="hair" fill="black" class="hair" class="hair" fill="black"/>
<path d="M54.616 108.396C53.7443 100.102 58.2427 92.832 64.6636 92.1571C71.0844 91.4822 76.9962 97.6586 77.8679 105.952C78.7396 114.246 74.2412 121.517 67.8203 122.192C61.3995 122.867 55.4877 116.69 54.616 108.396Z" fill="#976449"/>
<path d="M68.2651 119.02C68.3151 117.3 68.7051 102.11 65.9251 97.6699L63.6351 99.0999C65.6251 102.27 65.7051 114.49 65.5651 118.93L68.2651 119.01V119.02Z" fill="#311911"/>
<path d="M60.7776 107.312L67.416 109.301L66.6382 111.897L59.9998 109.908L60.7776 107.312Z" fill="#311911"/>
<path d="M167.567 110.004C168.438 101.71 163.94 94.4394 157.519 93.7645C151.098 93.0897 145.186 99.266 144.315 107.56C143.443 115.854 147.941 123.124 154.362 123.799C160.783 124.474 166.695 118.298 167.567 110.004Z" fill="#976449"/>
<path d="M153.918 118.011C153.868 116.291 153.477 101.101 156.257 96.6611L158.547 98.0911C156.557 101.261 156.477 113.481 156.617 117.921L153.918 118.001V118.011Z" fill="#311911"/>
<path d="M161.406 106.303L154.768 108.292L155.545 110.888L162.184 108.899L161.406 106.303Z" fill="#311911"/>
<path d="M132.967 168.501C131.097 165.531 130.447 148.301 130.447 148.301L112.597 149.131L94.8074 150.791C94.8074 150.791 96.5574 167.941 95.1174 171.151C93.6774 174.351 80.1074 180.201 80.1074 180.201C84.3274 196.771 105.127 205.841 117.637 204.451C132.847 202.771 149.607 189.601 150.907 175.651C150.907 175.651 134.837 171.481 132.957 168.511L132.967 168.501Z" fill="#976449"/>
<path d="M131.227 159.641C130.977 157.221 130.797 154.741 130.677 152.711C128.307 153.831 122.477 156.111 113.137 156.761C101.667 157.561 95.937 155.121 95.167 154.761C95.317 156.631 95.477 158.951 95.587 161.271C98.567 164.731 104.707 170.171 114.027 169.521C122.637 168.921 128.247 163.491 131.227 159.651V159.641Z" fill="#311911"/>
<path d="M66.9275 75.1108C66.9275 75.1108 72.9475 42.1008 109.737 41.4608C146.537 41.1808 153.377 74.0308 153.377 74.0308C153.377 74.0308 156.277 110.921 145.437 135.981C139.467 149.791 126.367 160.581 111.257 160.831C96.1475 160.961 82.7275 150.501 76.4075 136.841C64.9475 112.061 66.9275 75.1108 66.9275 75.1108Z" fill="#976449"/>
<path d="M100.33 89.3782C101.327 87.7642 101.121 86.9523 100.459 85.5301C99.7967 84.1079 87.0786 85.6503 87.0786 85.6503C85.406 85.6503 83.7657 85.9939 82.4791 86.578L76.1475 90.8748L86.0172 89.1548L100.33 89.3953V89.3782Z" fill="#311911"/>
<path d="M119.48 89.3782C118.483 87.7642 118.689 86.9523 119.352 85.5301C120.014 84.1079 132.732 85.6503 132.732 85.6503C134.405 85.6503 136.045 85.9939 137.331 86.578L143.663 90.8748L133.793 89.1548L119.48 89.3953V89.3782Z" fill="#311911"/>
<circle cx="84.0156" cy="108.595" r="10.0146" fill="#A56B5E"/>
<circle cx="136.325" cy="107.846" r="10.0146" fill="#A56B5E"/>
<path d="M112.598 97.9541C113.173 104.728 115.508 107.618 115.508 110.887C115.508 114.157 110.902 113.12 110.902 113.12" stroke="#311911" stroke-width="2.5"/>
<path d="M111.957 149.281C110.437 149.301 109.447 149.091 109.367 149.071L109.917 146.571C109.917 146.571 113.317 147.261 117.157 145.601L118.177 147.951C115.787 148.981 113.577 149.261 111.957 149.281Z" fill="#311911"/>
<path d="M127.847 125.62C125.207 122.93 119.007 123.05 111.277 123.15C103.867 123.24 98.5572 125.03 95.3272 126.98C91.9872 128.99 94.3272 144.14 111.537 143.93C128.237 143.73 130.297 128.11 127.847 125.62Z" fill="#4D3A37"/>
<path d="M111.278 123.151C106.068 123.211 101.908 124.121 98.7676 125.331C98.8576 126.721 99.0976 128.061 99.8876 128.381C100.808 128.751 106.678 128.531 111.688 128.441C116.208 128.361 123.108 127.801 123.698 126.961C123.938 126.621 124.038 125.211 124.128 123.781C120.928 123.021 116.448 123.091 111.278 123.151Z" fill="white"/>
<path d="M101.548 141.791C104.098 143.131 107.378 143.981 111.538 143.931C115.708 143.881 118.968 142.871 121.468 141.341C120.648 139.911 118.118 138.561 111.078 139.131C104.968 139.631 102.448 140.731 101.548 141.791Z" fill="#9E6275"/>
<path d="M131.992 104.439C129.762 104.439 127.954 102.437 127.954 99.9686C127.954 97.4997 131.245 95.4209 133.474 95.4209C135.515 95.9021 136.029 96.4124 137.325 97.601C136.029 98.5752 136.029 99.0562 136.029 99.9685V99.9686C136.029 102.437 134.222 104.439 131.992 104.439Z" fill="#340C00"/>
<path d="M88.2874 104.439C90.5172 104.439 92.3249 102.437 92.3249 99.9686C92.3249 97.4997 89.0346 95.4209 86.8048 95.4209C84.7639 95.9021 84.2499 96.4124 82.9541 97.601C84.2499 98.5752 84.2499 99.0562 84.2499 99.9685V99.9686C84.2499 102.437 86.0575 104.439 88.2874 104.439Z" fill="#340C00"/>
<path d="M63.2354 77.5236C66.3274 43.0904 88.8697 33.8473 107.125 33.8473C154.218 31.6819 157.872 74.7697 154.794 89.5623L152.262 111.653L145.99 89.5618L140.407 73.4828V83.1076H124.947L120.653 73.4828V83.1076H107.125V63.3239L98.7509 83.1076H77.0638L75.1313 75.3542L70.7651 91.2384L69.3839 107.911L63.2354 77.5236Z" class="hair" fill="black"/>
<path d="M74.9652 116.963C74.5518 120.683 69.0512 121.958 66.3525 122.131C67.1564 125.805 69.6942 132.913 73.4149 131.949C78.0657 130.743 75.4819 112.312 74.9652 116.963Z" class="hair" fill="black"/>
<path d="M147.596 118.6C148.01 122.321 153.51 123.596 156.209 123.768C155.405 127.443 152.867 134.551 149.147 133.586C144.496 132.381 147.08 113.95 147.596 118.6Z" class="hair" fill="black"/>
<path d="M67.1689 161.753C20.8682 86.9856 58.3344 28.2343 104.743 30.8862C191.432 35.8397 150.916 119.688 163.984 161.753H67.1689Z" class="hair" fill="black" class="hair" class="hair" fill="black"/>
<path class="skin" d="M54.616 108.396C53.7443 100.102 58.2427 92.832 64.6636 92.1571C71.0844 91.4822 76.9962 97.6586 77.8679 105.952C78.7396 114.246 74.2412 121.517 67.8203 122.192C61.3995 122.867 55.4877 116.69 54.616 108.396Z" fill="#B2674B"/>
<path d="M68.2651 119.02C68.3151 117.3 68.7051 102.11 65.9251 97.6699L63.6351 99.0999C65.6251 102.27 65.7051 114.49 65.5651 118.93L68.2651 119.01V119.02Z" fill="#311911"/>
<path d="M60.7776 107.312L67.416 109.301L66.6382 111.897L59.9998 109.908L60.7776 107.312Z" fill="#311911"/>
<path class="skin" d="M167.567 110.004C168.438 101.71 163.94 94.4394 157.519 93.7645C151.098 93.0897 145.186 99.266 144.315 107.56C143.443 115.854 147.941 123.124 154.362 123.799C160.783 124.474 166.695 118.298 167.567 110.004Z" fill="#B2674B"/>
<path d="M153.918 118.011C153.868 116.291 153.477 101.101 156.257 96.6611L158.547 98.0911C156.557 101.261 156.477 113.481 156.617 117.921L153.918 118.001V118.011Z" fill="#311911"/>
<path d="M161.406 106.303L154.768 108.292L155.545 110.888L162.184 108.899L161.406 106.303Z" fill="#311911"/>
<path class="skin" d="M132.967 168.501C131.097 165.531 130.447 148.301 130.447 148.301L112.597 149.131L94.8074 150.791C94.8074 150.791 96.5574 167.941 95.1174 171.151C93.6774 174.351 80.1074 180.201 80.1074 180.201C84.3274 196.771 105.127 205.841 117.637 204.451C132.847 202.771 149.607 189.601 150.907 175.651C150.907 175.651 134.837 171.481 132.957 168.511L132.967 168.501Z" fill="#B2674B"/>
<path d="M131.227 159.641C130.977 157.221 130.797 154.741 130.677 152.711C128.307 153.831 122.477 156.111 113.137 156.761C101.667 157.561 95.937 155.121 95.167 154.761C95.317 156.631 95.477 158.951 95.587 161.271C98.567 164.731 104.707 170.171 114.027 169.521C122.637 168.921 128.247 163.491 131.227 159.651V159.641Z" fill="#773E2A"/>
<path class="skin" d="M66.9275 75.1108C66.9275 75.1108 72.9475 42.1008 109.737 41.4608C146.537 41.1808 153.377 74.0308 153.377 74.0308C153.377 74.0308 156.277 110.921 145.437 135.981C139.467 149.791 126.367 160.581 111.257 160.831C96.1475 160.961 82.7275 150.501 76.4075 136.841C64.9475 112.061 66.9275 75.1108 66.9275 75.1108Z" fill="#B2674B"/>
<path d="M127.89 124.373C125.3 121.673 119.14 121.713 111.47 121.713C103.8 121.713 98.82 123.423 95.58 125.323C92.24 127.273 94.37 142.343 111.47 142.363C128.05 142.373 130.3 126.893 127.89 124.383V124.373Z" fill="#2D0600"/>
<path d="M111.47 121.713C106.3 121.713 102.15 122.563 99.0195 123.723C99.0995 125.113 99.3196 126.443 100.09 126.763C101 127.143 106.83 126.993 111.81 126.973C116.3 126.953 123.16 126.473 123.75 125.653C123.99 125.323 124.11 123.923 124.22 122.503C121.06 121.703 116.61 121.723 111.47 121.723V121.713Z" fill="white"/>
<path d="M101.58 140.103C104.1 141.463 107.34 142.353 111.47 142.353C115.61 142.353 118.86 141.393 121.36 139.903C120.57 138.473 118.07 137.103 111.07 137.583C105 138.003 102.48 139.063 101.58 140.103Z" fill="#A06275"/>
<path d="M99.3792 87.6286C100.385 86.0203 100.184 85.2072 99.5294 83.7813C98.8751 82.3555 86.1486 83.8267 86.1486 83.8267C84.4761 83.8174 82.8338 84.1518 81.544 84.7286L75.1884 88.9899L85.0676 87.3252L99.3791 87.6458L99.3792 87.6286Z" fill="#311911"/>
<path d="M119.213 88.3515C118.219 86.7361 118.426 85.9245 119.09 84.5032C119.754 83.082 132.47 84.6426 132.47 84.6426C134.143 84.6449 135.783 84.9909 137.068 85.5768L143.394 89.8826L133.527 88.1486L119.213 88.3687L119.213 88.3515Z" fill="#311911"/>
<path d="M112.598 97.9541C113.173 104.728 115.508 107.618 115.508 110.887C115.508 114.157 110.902 113.12 110.902 113.12" stroke="#773E2A" stroke-width="2.5"/>
<circle cx="132.798" cy="100.349" r="4" fill="black"/>
<circle cx="87.7979" cy="100.349" r="4" fill="black"/>
<path d="M63.2354 77.5236C66.3274 43.0904 88.8697 33.8473 107.125 33.8473C154.218 31.6819 157.872 74.7697 154.794 89.5623L152.262 111.653L145.99 89.5618L140.407 73.4828V83.1076H124.947L120.653 73.4828V83.1076H107.125V63.3239L98.7509 83.1076H77.0638L75.1313 75.3542L70.7651 91.2384L69.3839 107.911L63.2354 77.5236Z" class="hair" fill="black"/>
<path d="M74.9652 116.963C74.5518 120.683 69.0512 121.958 66.3525 122.131C67.1564 125.805 69.6942 132.913 73.4149 131.949C78.0657 130.743 75.4819 112.312 74.9652 116.963Z" class="hair" fill="black"/>
<path d="M147.596 118.6C148.01 122.321 153.51 123.596 156.209 123.768C155.405 127.443 152.867 134.551 149.147 133.586C144.496 132.381 147.08 113.95 147.596 118.6Z" class="hair" fill="black"/>
</svg>
