<svg width="214" height="194" viewBox="0 0 214 194" fill="none" xmlns="http://www.w3.org/2000/svg">
<path d="M206.161 123.104C205.021 127.734 200.991 127.594 198.461 130.594C197.851 131.354 194.591 132.554 195.451 130.444C196.421 128.034 196.611 125.784 196.221 123.644C196.081 126.434 195.291 129.024 193.481 130.914C192.421 132.004 190.481 131.894 189.231 133.054C187.411 134.834 187.041 137.584 184.981 139.244C184.581 139.564 184.161 139.884 183.731 140.174C180.861 142.244 177.211 144.074 173.591 144.454C169.911 144.784 167.341 129.484 167.341 129.484C167.341 129.484 169.211 150.174 157.361 150.594C154.311 150.704 152.231 152.384 149.411 151.904C144.351 151.064 140.711 151.104 135.871 153.294C134.921 153.724 134.041 154.304 133.011 154.514C130.761 155.024 130.631 154.474 128.661 154.254C124.371 153.794 121.991 153.724 117.871 154.434C112.601 155.334 107.571 156.954 102.401 157.954C97.7812 158.854 93.4912 155.194 89.9812 152.624C89.9212 152.574 89.8513 152.494 89.7913 152.414C88.1213 154.604 85.6512 156.094 82.7512 155.904C80.9012 155.814 80.2012 154.944 78.7412 154.114C78.3812 153.924 78.3012 153.304 77.9712 153.134C76.5712 152.384 74.1612 152.884 72.6112 152.994C71.8012 153.064 71.0112 152.464 70.9612 151.614C70.9112 151.084 70.9213 150.574 70.9413 150.084C69.1613 151.374 67.0113 152.364 64.7812 152.364C60.7612 152.384 60.0012 150.244 57.6212 147.664C54.5712 144.314 50.5413 146.064 46.5613 144.534C46.4513 144.514 46.3013 144.444 46.1813 144.394C43.4713 143.224 42.1712 139.744 39.9512 139.044C37.6212 138.324 36.2413 140.284 33.9313 138.454C31.3113 136.424 31.7612 132.564 32.6112 129.804C34.2912 124.304 36.7312 123.464 35.1212 116.254C34.5912 113.844 33.7612 111.824 33.6212 109.314C33.5612 108.354 33.6213 107.474 33.6913 106.594C32.8313 108.684 32.4512 111.004 32.4812 113.834C32.5112 116.374 33.0412 118.764 32.5012 121.274C31.2212 127.444 25.4312 128.254 27.6512 136.224C27.9012 137.134 27.4213 137.804 26.5613 137.994C23.2913 138.714 20.0612 138.044 18.2012 135.014C15.9812 131.454 17.9913 127.704 15.7913 124.024C13.6613 120.534 11.6813 118.284 13.0613 113.854C13.1913 113.364 13.3712 112.894 13.5812 112.444C12.2012 113.474 10.8812 114.554 9.83118 116.034C7.57118 119.234 7.19122 123.404 9.25122 126.814C9.88122 127.864 8.62123 129.194 7.63123 128.314C5.97123 126.854 4.82122 125.114 4.00122 123.264C-2.04878 116.764 -1.21879 105.234 6.36121 100.184C7.91121 99.1638 9.65125 98.9838 11.2813 98.2438C17.2013 95.5038 15.5012 93.2538 14.6112 87.8138C13.7212 82.3438 14.1212 77.3638 16.9912 72.5438C20.1112 67.3338 25.2312 65.0938 29.0212 60.6738C33.2912 55.6738 30.2413 48.1438 32.8113 42.1938C34.6913 37.8938 38.1313 34.9538 42.4113 33.2038C47.3013 31.2338 51.2412 29.8038 53.9512 25.0338C53.9812 21.0138 54.6812 16.8138 57.1212 14.1338C61.1912 9.72378 67.3612 10.2938 72.7512 10.1138C81.6112 9.82378 85.5312 0.92378 94.5912 0.35378C100.811 -0.00621954 106.061 2.68378 110.321 6.91378C116.321 3.14378 124.061 0.863781 131.011 3.23378C133.991 4.23378 136.531 6.04378 138.351 8.62378C139.671 10.4238 139.921 11.8738 141.331 13.0838C143.011 13.5538 144.791 14.1538 146.561 14.9638C147.501 15.0438 148.441 15.1038 149.191 15.2938C159.001 17.7438 166.031 26.8738 168.371 36.8238C170.691 38.6538 172.541 38.8238 175.351 39.8438C178.871 41.1638 182.091 43.3938 183.471 47.0038C184.241 48.9438 184.131 50.8538 184.151 52.9138C184.171 58.2038 186.671 59.1638 190.721 61.4338C193.381 62.9438 195.401 65.3438 196.161 68.3538C197.341 73.0038 194.421 75.3838 193.761 79.6338C193.651 80.2638 193.641 80.8338 193.631 81.3738C194.691 84.9238 196.431 87.2938 198.881 90.9438C200.481 93.2938 201.371 95.2738 201.381 98.2138C201.431 101.884 199.751 105.214 199.451 108.804C199.391 109.714 199.441 110.534 199.561 111.314C199.911 112.044 200.371 112.744 200.991 113.364C203.911 116.244 207.381 118.304 206.171 123.084L206.161 123.104Z" fill="#4F312C"/>
<path d="M182.681 130.404C182.741 127.594 181.661 124.724 179.691 122.724C177.721 120.664 175.071 119.804 172.311 119.284C169.261 118.684 168.601 118.914 168.271 115.604C168.091 113.614 168.651 111.694 168.071 109.624C167.491 107.554 166.321 105.564 164.461 104.404C163.441 103.764 162.341 103.834 161.371 103.354C157.701 101.534 156.341 99.3338 156.291 95.4038C156.281 90.8538 156.041 84.8138 150.191 84.2938C146.451 83.9538 144.021 86.8038 140.651 87.6738C135.921 88.9238 131.721 85.5938 127.031 86.3538C124.831 86.7238 123.041 87.9338 121.021 88.7638C116.761 90.4738 112.661 90.7638 108.131 90.1538C102.111 89.3438 96.3513 87.2238 90.2613 86.9038C81.1613 86.4238 72.8613 89.7238 64.9913 93.8038C59.4613 95.8838 55.3713 100.074 54.2513 106.204C53.5913 109.854 54.2112 113.254 55.4512 116.654C58.0412 123.694 54.0412 124.904 49.2112 127.774C44.6712 130.444 43.7113 133.934 45.3713 138.814C46.2913 141.504 47.3113 142.404 46.5413 144.534C50.5313 146.074 54.5613 144.314 57.6013 147.664C59.9813 150.254 60.7413 152.384 64.7613 152.364C67.0013 152.364 69.1413 151.374 70.9213 150.084C70.9113 150.564 70.9014 151.074 70.9414 151.614C70.9914 152.454 71.7813 153.064 72.5913 152.994C74.1413 152.884 76.5512 152.384 77.9512 153.134C78.2812 153.304 78.3613 153.914 78.7213 154.114C80.1813 154.944 80.8813 155.814 82.7313 155.904C85.6313 156.094 88.1013 154.594 89.7713 152.414C89.8313 152.494 89.9012 152.574 89.9613 152.624C93.4712 155.194 97.7713 158.854 102.381 157.954C107.551 156.944 112.591 155.334 117.851 154.434C121.971 153.724 124.361 153.794 128.641 154.254C130.611 154.474 130.751 155.024 132.991 154.514C134.021 154.304 134.901 153.714 135.851 153.294C140.691 151.104 144.331 151.054 149.391 151.904C152.211 152.384 154.291 150.694 157.341 150.594C169.191 150.174 167.321 129.484 167.321 129.484C167.321 129.484 169.891 144.784 173.571 144.454C177.191 144.074 180.841 142.244 183.711 140.174C179.451 136.904 182.581 134.584 182.661 130.424L182.681 130.404Z" fill="#331F1D"/>
<path d="M129.652 157.554C127.782 154.584 127.132 137.354 127.132 137.354L109.282 138.184L91.4917 139.844C91.4917 139.844 93.2418 156.994 91.8018 160.204C90.3618 163.404 76.7917 169.254 76.7917 169.254C81.0117 185.824 101.812 194.894 114.322 193.504C129.532 191.824 146.292 178.654 147.592 164.704C147.592 164.704 131.522 160.534 129.642 157.564L129.652 157.554Z" fill="#F59673"/>
<path d="M127.912 148.694C127.662 146.274 127.482 143.794 127.362 141.764C124.992 142.884 119.162 145.164 109.822 145.814C98.3517 146.614 92.6216 144.174 91.8516 143.814C92.0016 145.684 92.1616 148.004 92.2716 150.324C95.2516 153.784 101.392 159.224 110.712 158.574C119.322 157.974 124.932 152.544 127.912 148.704V148.694Z" fill="#C3704E"/>
<path d="M63.6015 64.1638C63.6015 64.1638 69.6216 31.1538 106.412 30.5138C143.212 30.2338 150.052 63.0838 150.052 63.0838C150.052 63.0838 152.952 99.9738 142.112 125.034C136.142 138.844 123.042 149.634 107.932 149.884C92.8216 150.014 79.4015 139.554 73.0815 125.894C61.6215 101.114 63.6015 64.1638 63.6015 64.1638Z" fill="#F59673"/>
<path d="M164.24 99.0622C165.112 90.7684 160.614 83.4979 154.193 82.823C147.772 82.1482 141.86 88.3245 140.989 96.6184C140.117 104.912 144.615 112.183 151.036 112.858C157.457 113.532 163.369 107.356 164.24 99.0622Z" fill="#F59673"/>
<path d="M149.951 42.4638C145.551 37.3638 140.531 32.5638 134.211 29.9638C128.531 27.6238 120.281 25.3338 114.131 26.0738C113.901 24.3238 114.101 23.3838 114.701 21.2738C114.961 20.3538 113.621 19.4538 112.891 20.1238C111.681 21.2338 110.861 22.5538 110.381 23.9638C110.401 23.5638 110.421 23.1538 110.431 22.8038C110.431 22.0738 109.431 22.1638 109.251 22.7538C109.041 23.4438 108.841 24.1638 108.641 24.8938C99.1012 21.8438 87.5911 22.3738 79.1111 27.5838C69.3611 33.5738 66.3511 48.8838 65.4511 59.9538C64.3211 60.9638 63.4711 62.2438 62.8411 63.6338C61.4411 63.3538 60.3612 62.9738 58.8912 63.6138C58.3412 63.8538 58.1312 64.3838 58.2812 64.9438C58.7012 66.5138 60.0212 67.4838 61.6912 67.9938C61.6712 68.1538 61.6312 68.3038 61.6212 68.4638C61.5412 69.5338 62.8612 69.9938 63.4112 69.0338C63.5212 68.8338 63.6111 68.6038 63.7211 68.3938C66.6711 68.6938 70.0111 67.9938 71.7111 66.8338C73.8111 65.4038 74.7712 62.8438 75.6712 60.5238C77.4212 60.3038 79.0111 60.0338 80.7011 59.1238C85.3311 56.6138 86.0512 53.2238 86.8012 49.1538C86.8412 49.0638 86.8812 48.9738 86.9312 48.8838C88.3012 46.2438 90.5712 43.5238 93.5012 42.3438C96.9612 40.9538 100.621 42.0438 103.971 39.8738C105.671 38.7738 107.101 37.1738 108.171 35.3338C108.801 37.3138 110.021 39.0638 112.241 40.3538C113.761 41.2438 115.771 41.4238 117.231 42.3638C125.471 47.6638 120.661 47.6338 120.931 52.2538C121.041 54.1438 121.811 55.5738 123.271 56.8038C125.281 58.4938 127.921 58.1438 130.311 58.7338C132.421 59.2538 134.231 60.8738 135.341 62.7038C135.851 63.5438 136.381 64.6038 136.431 65.5938C136.491 66.7338 135.801 67.7038 135.691 68.8338C135.561 70.2438 135.431 71.3938 135.771 72.8038C137.061 78.1038 142.101 79.6038 146.851 78.4238C149.291 77.8138 145.331 73.7938 144.811 73.0338C143.011 70.4238 141.991 67.4738 141.791 64.3138C141.651 62.1038 142.341 60.1038 141.381 57.9038C139.161 52.7638 132.911 53.7638 129.841 49.9738C127.531 47.1238 129.411 43.2138 128.091 39.7938C129.051 40.2338 129.991 40.7038 130.861 41.2538C134.211 43.3838 133.611 45.8638 135.541 48.5538C136.691 50.1638 138.341 50.4538 139.771 51.5938C144.051 55.0238 142.511 58.5038 143.381 62.7238C143.831 64.9038 144.861 65.5838 146.361 67.0938C147.981 68.7338 149.241 70.3138 149.671 72.6138C150.221 75.5938 150.191 78.6838 151.291 81.5438C152.291 84.1338 153.851 86.5338 155.581 88.6938C156.321 89.6138 162.131 96.5538 163.781 94.6538C167.051 90.8738 157.741 65.4838 157.431 60.9138C156.911 53.3538 154.911 48.1738 149.971 42.4538L149.951 42.4638ZM67.9611 62.6338C67.3711 62.5938 66.9511 63.1738 67.0911 63.6438C66.8611 63.7038 66.5911 63.7138 66.3411 63.7538C66.4211 63.6638 66.4912 63.5638 66.5712 63.4838C66.9212 63.4538 67.2112 63.2338 67.3212 62.8138C67.7012 62.5138 68.1112 62.2938 68.5212 62.0838C68.3112 62.4038 68.1211 62.6438 67.9611 62.6338Z" fill="#4F312C"/>
<path d="M212.831 110.354C212.031 108.644 210.731 108.484 209.971 107.134C208.301 104.164 208.361 101.094 208.931 97.9438C209.401 95.3538 210.201 93.7938 209.611 91.1138C208.101 84.3538 200.551 84.1838 198.601 78.0638C196.871 72.6538 196.581 68.4838 190.311 66.8738C189.271 66.6038 188.841 68.1638 189.751 68.6238C196.981 72.2538 192.351 79.6738 196.421 84.5038C200.251 89.0538 207.001 86.7638 205.041 96.1038C204.331 99.4938 201.801 101.924 202.831 105.654C203.491 108.074 204.281 107.754 205.661 109.514C209.781 114.774 208.271 116.034 206.521 120.374C205.991 121.684 207.491 123.204 208.741 122.234C212.221 119.534 214.901 114.774 212.841 110.354H212.831Z" fill="#4F312C"/>
<path d="M59.0313 13.9938C56.2713 16.7438 54.2012 19.9138 51.7212 22.8938C48.3712 26.9138 44.9813 27.7338 39.9313 27.9638C35.6513 28.1638 31.7512 29.3938 28.8512 32.7038C25.5612 36.4738 25.5012 40.7138 25.4912 45.4338C25.4512 55.8338 21.3713 59.7538 13.3813 65.1238C9.99126 67.4038 7.55126 70.7338 6.76126 74.8238C5.63126 80.6738 9.38131 84.6338 10.0613 90.1438C11.3313 100.394 -3.92869 106.364 3.68131 117.674C4.29131 118.584 5.91123 118.034 5.73123 116.914C4.50123 108.984 7.87122 105.274 11.8412 99.0338C13.9012 95.8038 14.9812 92.7038 14.2312 88.8638C13.0812 82.9238 8.38125 78.7938 11.8712 72.4338C14.6012 67.4538 21.1113 66.1538 24.6813 61.8138C27.5613 58.3138 29.2313 53.9238 29.5713 49.4238C30.1613 41.5638 28.9213 33.3638 39.1913 32.1038C43.5813 31.5638 47.2613 32.1738 50.9013 29.2038C55.0813 25.7938 58.2913 19.8038 60.5713 14.9838C61.0413 13.9838 59.7413 13.2838 59.0213 13.9938H59.0313Z" fill="#4F312C"/>
<path d="M163.011 19.7437C163.211 19.7737 157.851 19.7238 158.121 19.8238C156.451 19.2138 155.551 19.0338 154.991 17.4938C153.781 14.1738 152.251 10.7938 149.341 8.62375C143.111 4.00375 134.651 4.39375 127.961 7.71375C126.891 8.24375 127.081 10.2038 128.471 9.94375C137.291 8.31375 147.731 7.27375 150.891 17.9538C151.641 20.4838 151.371 22.5738 154.031 23.8938C156.531 25.1338 159.631 23.7638 162.231 24.0438C167.311 24.5938 171.721 27.9338 173.541 32.7238C176.121 39.4938 171.311 44.3738 171.571 50.7638C171.621 51.9438 173.111 52.2238 173.821 51.4638C184.051 40.6338 177.951 21.6238 163.001 19.7338L163.011 19.7437Z" fill="#4F312C"/>
<path d="M110.711 10.5738C110.421 10.1938 109.871 10.2538 109.651 10.6738C108.811 12.2638 109.151 13.6638 109.051 15.4538C108.881 18.5138 107.321 20.0338 105.861 22.5138C104.331 25.1238 105.101 28.4538 106.481 30.9438C106.901 31.6938 107.991 31.1338 107.951 30.3938C107.781 27.2338 107.181 25.3738 109.061 22.4138C109.791 21.2638 110.571 20.3538 111.031 19.0338C111.891 16.5438 112.381 12.7638 110.691 10.5738H110.711Z" fill="#331F1D"/>
<path d="M74.9113 44.2138C71.6213 49.5838 68.3313 56.9438 61.4713 58.1938C58.5613 58.7238 55.9313 58.4038 53.2713 59.9538C48.1513 62.9438 46.3312 68.9538 45.9512 74.5138C45.9012 75.2438 45.9512 77.7638 45.8412 78.1038C44.7812 81.7538 42.1713 83.9738 39.2813 85.6838C37.1313 86.9538 35.1013 87.8838 33.4813 89.9038C30.4113 93.7438 29.1913 99.0638 31.4213 103.534C31.9513 104.594 33.6013 104.344 33.5313 103.054C33.2413 98.0138 33.7713 92.8538 38.3713 89.7638C40.5913 88.2738 43.4413 87.9738 45.6413 86.4438C50.0213 83.3938 48.7313 78.6938 49.2513 74.0338C49.9513 67.6538 52.9013 63.0238 59.5513 61.5938C62.2113 61.0238 64.9113 61.4338 67.3613 59.9738C72.2713 57.0538 74.0713 49.6438 76.2913 44.8438C76.7113 43.9338 75.4113 43.3838 74.9113 44.1938V44.2138Z" fill="#331F1D"/>
<path d="M37.5912 81.3238C29.9712 84.0238 21.1112 89.5438 24.8312 98.8838C27.4412 105.434 22.2812 107.604 20.5812 113.324C19.3712 117.414 19.8513 122.094 22.5613 125.404C22.9113 125.824 23.6512 125.614 23.6012 125.024C23.0412 119.164 21.9813 114.684 25.8213 109.664C27.2113 107.844 28.8213 106.454 29.1813 104.084C29.6213 101.254 27.4512 99.5538 26.9812 96.9938C25.5912 89.4238 32.4813 85.3438 38.0313 82.1538C38.5113 81.8838 38.0812 81.1538 37.5912 81.3238Z" fill="#331F1D"/>
<path d="M96.4912 5.60381C92.2612 6.05381 89.3013 6.89381 86.0213 9.66381C84.9713 10.5438 84.1913 11.7738 83.1313 12.6138C77.5613 17.0538 75.8912 14.4438 70.8412 14.3138C63.7212 14.1338 58.2613 22.4638 55.5213 28.1738C55.2513 28.7438 56.0013 29.4738 56.5213 29.0038C59.5913 26.2538 61.9113 21.9938 65.3013 19.7338C70.4613 16.3038 73.7213 18.9238 78.9013 18.2238C80.9613 17.9438 82.4513 17.1038 84.0413 15.7938C88.5213 12.1038 90.8113 8.29381 96.6913 6.47381C97.1813 6.32381 96.9912 5.54381 96.4912 5.60381Z" fill="#331F1D"/>
<path d="M123.511 29.6838C121.521 27.6638 119.121 24.5338 115.921 25.1638C115.091 25.3238 115.201 26.4338 116.041 26.4538C118.471 26.5138 120.851 30.4338 122.301 32.0838C123.151 33.0538 123.911 33.9438 124.401 35.1638C124.851 36.2738 124.951 37.4338 125.491 38.5038C125.911 39.3338 127.161 39.3438 127.371 38.3338C128.091 34.8238 125.801 32.0038 123.511 29.6738V29.6838Z" fill="#331F1D"/>
<path d="M178.461 95.1638C174.521 91.5438 168.631 91.8038 169.241 84.7138C169.501 81.6438 169.881 78.8738 169.021 75.8338C168.261 73.1438 166.871 70.5838 164.551 68.9138C162.091 67.1438 159.291 67.2138 157.151 64.5838C155.001 61.9438 154.901 57.9738 154.331 54.8038C152.871 46.7038 148.271 41.2038 140.911 37.5438C140.571 37.3738 140.121 37.8338 140.411 38.1538C143.151 41.2038 146.511 43.8238 148.761 47.2638C151.391 51.2738 151.301 55.9038 152.371 60.3738C153.031 63.1238 154.141 66.0838 156.381 67.9738C159.521 70.6338 163.241 70.4138 165.471 74.6138C168.441 80.2038 163.571 87.9738 168.021 92.8238C170.581 95.6238 174.821 94.9038 177.451 98.0238C181.081 102.344 179.951 107.184 178.791 112.174C178.541 113.254 180.021 113.554 180.521 112.724C184.041 106.824 184.041 100.294 178.471 95.1738L178.461 95.1638Z" fill="#331F1D"/>
<path d="M195.711 109.354C194.101 105.374 189.571 104.834 187.971 101.264C186.071 97.0138 187.401 92.2738 184.351 88.1738C182.101 85.1538 179.151 83.9038 175.491 84.0738C174.751 84.1038 174.691 85.2838 175.431 85.3838C186.751 86.8638 181.601 98.3838 186.101 104.514C186.881 105.574 187.641 105.444 188.541 106.324C192.021 109.724 193.891 112.304 193.581 117.044C193.421 119.444 193.181 119.574 193.091 121.964C193.061 122.754 194.211 122.814 194.511 122.214C196.511 118.284 197.411 113.574 195.701 109.354H195.711Z" fill="#331F1D"/>
<path class="skin" d="M150.331 107.534C150.301 105.824 150.111 90.7438 152.921 86.3638L155.181 87.8138C153.171 90.9438 152.941 103.074 153.021 107.474L150.331 107.524V107.534Z" fill="#C3704E"/>
<path class="skin" d="M157.945 96.1646L151.33 98.0564L152.07 100.643L158.685 98.7509L157.945 96.1646Z" fill="#C3704E"/>
<path d="M84.1813 81.7138C83.8013 82.7638 83.5613 84.2838 83.5613 85.9838C83.5613 89.1438 84.3913 91.7138 85.4213 91.7138C86.4513 91.7138 87.2812 89.1538 87.2812 85.9838C87.2812 84.4538 87.0812 83.0738 86.7712 82.0538C85.9112 81.9438 85.0513 81.8338 84.1913 81.7138H84.1813Z" fill="#4D3A37"/>
<path d="M126.391 81.7738C126.021 82.8238 125.791 84.3238 125.791 85.9838C125.791 89.1438 126.621 91.7138 127.651 91.7138C128.681 91.7138 129.511 89.1538 129.511 85.9838C129.511 84.1938 129.241 82.6038 128.831 81.5538C128.021 81.6238 127.201 81.6938 126.391 81.7738Z" fill="#4D3A37"/>
<path d="M107.101 107.274C106.011 107.114 96.4313 105.584 95.6113 100.054C95.0313 96.1138 98.8614 94.1738 101.661 92.7638C102.651 92.2638 104.151 91.5038 104.351 91.0938C105.011 89.7538 105.041 84.6738 104.851 81.4938L107.671 81.3238C107.751 82.7238 108.101 89.8538 106.881 92.3338C106.261 93.5938 104.711 94.3738 102.931 95.2738C100.111 96.6938 98.1314 97.8438 98.4014 99.6338C98.8414 102.574 105.271 104.154 107.491 104.474L107.091 107.274H107.101Z" fill="#C3704E"/>
<path class="skin" d="M107.651 135.054C106.051 135.054 105.021 134.824 104.931 134.804L105.541 132.184C105.541 132.184 109.101 132.954 113.151 131.264L114.191 133.744C111.671 134.794 109.341 135.054 107.651 135.054Z" fill="#C3704E"/>
<path d="M124.621 115.544C121.881 112.694 115.371 112.734 107.271 112.734C99.1709 112.734 93.9009 114.544 90.4809 116.544C86.9509 118.604 89.2009 128.084 107.271 128.094C124.791 128.104 127.161 118.194 124.631 115.544H124.621Z" fill="#4D3A37"/>
<path d="M107.261 112.734C101.791 112.734 97.4208 113.634 94.1008 114.854C94.1808 116.314 94.4108 117.724 95.2308 118.064C96.1908 118.464 102.361 118.304 107.621 118.284C112.361 118.264 119.611 117.754 120.241 116.884C120.501 116.534 120.621 115.054 120.731 113.554C117.391 112.714 112.681 112.724 107.261 112.724V112.734Z" fill="white"/>
<path d="M106.851 124.534C101.201 124.924 98.471 125.844 97.241 126.804C99.841 127.594 103.131 128.094 107.261 128.094C111.501 128.094 114.851 127.514 117.461 126.594C116.391 125.234 113.611 124.064 106.851 124.534Z" fill="#A06275"/>
<path d="M91.3611 65.7838C86.1411 63.9938 79.1111 64.7638 75.2811 66.8938C74.6311 67.2538 73.3811 67.9238 73.6011 68.6438C73.7511 69.1238 74.5311 69.4038 75.2111 69.5438C80.1311 70.5638 84.9611 69.1238 89.8011 70.9638C91.0511 71.4338 92.2112 72.0938 93.5612 72.3138C96.7612 72.8438 97.3812 70.2538 95.9412 68.6538C94.7712 67.3538 93.1711 66.4138 91.3511 65.7938L91.3611 65.7838Z" fill="#4F312C"/>
<path d="M140.511 68.8338C140.351 69.3338 139.571 69.6538 138.871 69.8338C138.341 69.9638 137.841 70.0838 137.311 70.1538C134.221 70.6738 131.181 70.3938 128.131 70.9138C126.971 71.0938 125.781 71.4038 124.601 71.9238C123.331 72.4538 122.161 73.1838 120.831 73.4738C117.701 74.1538 117.251 71.5038 118.761 69.8038C119.881 68.5138 121.371 67.5338 123.051 66.8138C123.171 66.7438 123.281 66.7038 123.411 66.6438C126.761 65.3138 130.791 65.0638 134.191 65.5938C136.041 65.8738 137.701 66.3938 138.991 67.1138C139.591 67.4538 140.781 68.0838 140.521 68.8438L140.511 68.8338Z" fill="#4F312C"/>
</svg>
