<svg width="215" height="243" viewBox="0 0 215 243" fill="none" xmlns="http://www.w3.org/2000/svg">
<path class="hair" d="M117.41 56.1672C117.41 56.1672 82.2295 29.7884 58.2152 43.8139C28.1373 61.3987 64.4589 103.234 42.2457 115.359C20.0325 127.485 8.81033 136.962 6.61456 160.167C-1.76041 203.963 77.0964 265.555 143.766 226.555C210.436 187.555 186.721 114.592 155.413 100.084C117.741 82.6197 117.44 56.1974 117.44 56.1974L117.41 56.1672Z" fill="#190F0D"/>
<path class="skin" d="M164.535 110.284C165.407 101.952 160.909 94.6474 154.488 93.9694C148.067 93.2914 142.155 99.4965 141.283 107.829C140.412 116.161 144.91 123.466 151.331 124.144C157.752 124.822 163.664 118.617 164.535 110.284Z" fill="#E98C7B"/>
<path class="skin" d="M49.3313 108.485C48.4596 100.153 52.9581 92.8486 59.3789 92.1706C65.7997 91.4926 71.7115 97.6977 72.5832 106.03C73.455 114.362 68.9565 121.667 62.5357 122.345C56.1148 123.023 50.203 116.818 49.3313 108.485Z" fill="#E98C7B"/>
<path class="skin" d="M129.937 169.042C128.067 166.058 127.417 148.748 127.417 148.748L109.567 149.582L91.7771 151.25C91.7771 151.25 93.5271 168.479 92.0871 171.704C90.6471 174.919 77.0771 180.796 77.0771 180.796C81.2971 197.443 102.097 206.556 114.607 205.159C129.817 203.471 146.577 190.24 147.877 176.225C147.877 176.225 131.807 172.036 129.927 169.052L129.937 169.042Z" fill="#E98C7B"/>
<path d="M128.197 160.14C127.947 157.709 127.767 155.217 127.647 153.178C125.277 154.303 119.447 156.594 110.107 157.247C98.6374 158.05 92.9075 155.599 92.1375 155.237C92.2875 157.116 92.4474 159.447 92.5574 161.778C95.5374 165.254 101.677 170.719 110.997 170.066C119.607 169.463 125.217 164.008 128.197 160.15V160.14Z" fill="#9C3D28"/>
<path class="skin" d="M63.8874 75.2185C63.8874 75.2185 69.9074 42.0549 106.697 41.4119C143.497 41.1306 150.337 74.1334 150.337 74.1334C150.337 74.1334 153.237 111.195 142.397 136.372C136.427 150.246 123.327 161.086 108.217 161.337C93.1074 161.468 79.6874 150.959 73.3674 137.236C61.9074 112.34 63.8874 75.2185 63.8874 75.2185Z" fill="#E98C7B"/>
<path fill-rule="evenodd" clip-rule="evenodd" d="M110.694 74.5948C110.335 74.3888 109.876 74.5131 109.67 74.8725C108.544 76.8378 109.001 78.7013 110.065 80.038C112.218 82.1485 114.157 81.036 114.157 81.036C114.157 81.036 112.025 80.0912 111.239 79.1037C110.49 78.1629 110.202 76.962 110.972 75.6184C111.178 75.2591 111.053 74.8008 110.694 74.5948Z" fill="#9C3D28"/>
<path class="hair" d="M145.135 91.3178L144.465 109.852C144.465 109.852 152.018 103.582 152.285 90.701L145.135 91.3178Z" fill="#190F0D"/>
<path d="M62.9804 116.529C63.0304 114.801 63.4205 99.5407 60.6405 95.0801L58.3505 96.5167C60.3405 99.7015 60.4205 111.978 60.2805 116.439L62.9804 116.519V116.529Z" fill="#9C3D28"/>
<path d="M55.492 104.767L62.1304 106.766L61.3525 109.374L54.7141 107.375L55.492 104.767Z" fill="#9C3D28"/>
<path class="hair" d="M65.9166 107.61C65.9166 107.61 59.2248 102.368 56.8375 86.3608L63.7568 84.5039L65.9166 107.61Z" fill="#190F0D"/>
<path d="M85.6026 102.156C87.8309 102.237 89.7105 100.293 89.8006 97.8147C89.8907 95.336 88.1573 93.2609 85.9289 93.1799C83.7005 93.0989 81.821 95.0426 81.7309 97.5214C81.6408 100 83.3742 102.075 85.6026 102.156Z" fill="#340C00"/>
<path d="M127.603 102.156C129.831 102.237 131.71 100.293 131.801 97.8147C131.891 95.336 130.157 93.2609 127.929 93.1799C125.701 93.0989 123.821 95.0426 123.731 97.5214C123.641 100 125.374 102.075 127.603 102.156Z" fill="#340C00"/>
<path d="M150.617 118.79C150.587 117.072 150.397 101.922 153.207 97.5215L155.467 98.9782C153.457 102.123 153.227 114.309 153.307 118.73L150.617 118.78V118.79Z" fill="#9C3D28"/>
<path d="M158.201 107.258L151.586 109.158L152.326 111.757L158.941 109.856L158.201 107.258Z" fill="#9C3D28"/>
<path d="M108.561 96.212C108.889 103.034 109.29 106.911 113.037 114.573L104.025 114.244" stroke="#9C3D28" stroke-width="2.5"/>
<path d="M99.8571 132.08L98.4971 129.588C98.9071 129.367 108.607 124.103 117.577 127.006L116.707 129.709C108.907 127.187 99.9471 132.029 99.8571 132.08Z" fill="#9C3D28"/>
<path d="M107.207 135.727L106.047 133.135C106.157 133.085 108.677 131.96 112.777 131.588L113.037 134.411C109.407 134.742 107.227 135.707 107.207 135.717V135.727Z" fill="#9C3D28"/>
<path d="M77.2866 84.0987C77.009 78.7791 81.8675 75.6689 93.7579 76.9213L77.2866 84.0987Z" fill="#340C00"/>
<path d="M133.299 83.4054C132.045 78.2296 126.502 76.6513 115.47 81.2798L133.299 83.4054Z" fill="#340C00"/>
<path class="hair" d="M49.3598 52.2361C74.9027 41.395 109.786 62.3538 109.786 62.3538C109.786 62.3538 116.794 80.9055 154.466 98.3696C162.421 102.049 173.047 115.17 178.03 123.163C178.03 123.163 167.014 91.2512 163.562 70.6201C160.08 49.9588 141.829 53.156 141.829 53.156C141.829 53.156 130.301 24.5097 88.1636 26.1924C66.971 26.2829 49.3598 52.2361 49.3598 52.2361Z" fill="#190F0D"/>
</svg>
