<svg width="215" height="243" viewBox="0 0 215 243" fill="none" xmlns="http://www.w3.org/2000/svg">
<path d="M67.1689 160.953C20.8682 86.1858 58.3344 27.4345 104.743 30.0864C191.432 35.0399 150.916 118.888 163.984 160.953H67.1689Z" fill="#23120C"/>
<path d="M54.6162 108.099C53.7445 99.7662 58.243 92.4618 64.6638 91.7838C71.0847 91.1058 76.9964 97.3109 77.8682 105.643C78.7399 113.976 74.2414 121.28 67.8206 121.958C61.3997 122.636 55.4879 116.431 54.6162 108.099Z" fill="#976449"/>
<path d="M68.2654 118.772C68.3154 117.044 68.7054 101.783 65.9254 97.3223L63.6354 98.7589C65.6254 101.944 65.7054 114.22 65.5654 118.681L68.2654 118.762V118.772Z" fill="#311911"/>
<path d="M60.7771 107.008L67.4155 109.006L66.6377 111.614L59.9993 109.616L60.7771 107.008Z" fill="#311911"/>
<path d="M167.566 109.712C168.438 101.379 163.939 94.0751 157.518 93.3971C151.097 92.7191 145.186 98.9242 144.314 107.257C143.442 115.589 147.941 122.893 154.362 123.571C160.782 124.249 166.694 118.044 167.566 109.712Z" fill="#976449"/>
<path d="M153.917 117.758C153.867 116.03 153.477 100.769 156.257 96.3086L158.547 97.7453C156.557 100.93 156.477 113.207 156.617 117.667L153.917 117.748V117.758Z" fill="#311911"/>
<path d="M161.405 105.994L154.767 107.992L155.544 110.6L162.183 108.602L161.405 105.994Z" fill="#311911"/>
<path d="M132.967 168.481C131.097 165.498 130.447 148.188 130.447 148.188L112.597 149.021L94.8067 150.689C94.8067 150.689 96.5567 167.919 95.1167 171.144C93.6767 174.359 80.1067 180.236 80.1067 180.236C84.3267 196.883 105.127 205.995 117.637 204.599C132.847 202.911 149.607 189.68 150.907 175.665C150.907 175.665 134.837 171.475 132.957 168.491L132.967 168.481Z" fill="#976449"/>
<path d="M131.227 159.581C130.977 157.15 130.797 154.659 130.677 152.619C128.307 153.744 122.477 156.035 113.137 156.688C101.667 157.492 95.9367 155.04 95.1667 154.679C95.3167 156.557 95.4767 158.888 95.5867 161.219C98.5667 164.695 104.707 170.16 114.027 169.507C122.637 168.905 128.247 163.449 131.227 159.591V159.581Z" fill="#311911"/>
<path d="M66.9267 74.6579C66.9267 74.6579 72.9467 41.4944 109.737 40.8514C146.537 40.5701 153.377 73.5729 153.377 73.5729C153.377 73.5729 156.277 110.634 145.437 135.811C139.467 149.685 126.367 160.525 111.257 160.777C96.1467 160.907 82.7267 150.399 76.4067 136.675C64.9467 111.78 66.9267 74.6579 66.9267 74.6579Z" fill="#976449"/>
<path d="M100.329 88.9926C101.326 87.3712 101.12 86.5554 100.458 85.1266C99.796 83.6978 87.0779 85.2474 87.0779 85.2474C85.4053 85.2474 83.7649 85.5926 82.4784 86.1794L76.1467 90.4962L86.0164 88.7682L100.329 89.0099V88.9926Z" fill="#311911"/>
<path d="M119.479 88.9926C118.482 87.3712 118.688 86.5554 119.35 85.1266C120.013 83.6978 132.731 85.2474 132.731 85.2474C134.403 85.2474 136.044 85.5926 137.33 86.1794L143.662 90.4962L133.792 88.7682L119.479 89.0099V88.9926Z" fill="#311911"/>
<circle cx="84.0151" cy="107.796" r="10.0146" fill="#A56B5E"/>
<circle cx="136.324" cy="107.046" r="10.0146" fill="#A56B5E"/>
<path d="M112.597 97.1562C113.171 103.93 115.507 106.82 115.507 110.089C115.507 113.359 110.901 112.323 110.901 112.323" stroke="#311911" stroke-width="2.5"/>
<path d="M111.957 149.174C110.437 149.194 109.447 148.983 109.367 148.963L109.917 146.451C109.917 146.451 113.317 147.144 117.157 145.477L118.177 147.837C115.787 148.872 113.577 149.154 111.957 149.174Z" fill="#311911"/>
<path d="M127.847 125.402C125.207 122.7 119.007 122.82 111.277 122.921C103.867 123.011 98.5567 124.81 95.3267 126.769C91.9867 128.788 94.3267 144.008 111.537 143.797C128.237 143.597 130.297 127.904 127.847 125.402Z" fill="#4D3A37"/>
<path d="M111.277 122.921C106.067 122.981 101.907 123.896 98.7668 125.111C98.8568 126.508 99.0969 127.854 99.8869 128.175C100.807 128.547 106.677 128.326 111.687 128.236C116.207 128.155 123.107 127.593 123.697 126.749C123.937 126.407 124.037 124.991 124.127 123.554C120.927 122.791 116.447 122.861 111.277 122.921Z" fill="white"/>
<path d="M101.547 141.648C104.097 142.995 107.377 143.849 111.537 143.798C115.707 143.748 118.967 142.734 121.467 141.196C120.647 139.76 118.117 138.403 111.077 138.976C104.967 139.478 102.447 140.584 101.547 141.648Z" fill="#9E6275"/>
<path d="M131.991 104.122C129.761 104.122 127.953 102.112 127.953 99.6313C127.953 97.1509 131.244 95.0625 133.474 95.0625C135.514 95.5459 136.028 96.0586 137.324 97.2527C136.028 98.2315 136.028 98.7147 136.028 99.6313V99.6313C136.028 102.112 134.221 104.122 131.991 104.122Z" fill="#340C00"/>
<path d="M88.2866 104.122C90.5165 104.122 92.3241 102.112 92.3241 99.6313C92.3241 97.1509 89.0339 95.0625 86.8041 95.0625C84.7632 95.5459 84.2492 96.0586 82.9534 97.2527C84.2492 98.2315 84.2492 98.7147 84.2492 99.6313V99.6313C84.2492 102.112 86.0568 104.122 88.2866 104.122Z" fill="#340C00"/>
<path d="M63.2354 76.7238C66.3274 42.2906 88.8697 33.0475 107.125 33.0475C154.218 30.8821 157.872 73.9699 154.794 88.7625L152.262 110.853L145.99 88.762L140.407 72.683V82.3078H124.947L120.653 72.683V82.3078H107.125V62.5241L98.7509 82.3078H77.0638L75.1313 74.5544L70.7651 90.4386L69.3839 107.112L63.2354 76.7238Z" fill="black"/>
<path d="M74.9657 116.163C74.5523 119.883 69.0517 121.158 66.353 121.331C67.1569 125.005 69.6947 132.114 73.4154 131.149C78.0662 129.943 75.4824 111.512 74.9657 116.163Z" fill="black"/>
<path d="M147.596 117.799C148.009 121.52 153.51 122.795 156.208 122.967C155.405 126.642 152.867 133.75 149.146 132.786C144.495 131.58 147.079 113.149 147.596 117.799Z" fill="black"/>
<path class="skin" d="M54.6162 108.099C53.7445 99.7662 58.243 92.4618 64.6638 91.7838C71.0847 91.1058 76.9964 97.3109 77.8682 105.643C78.7399 113.976 74.2414 121.28 67.8206 121.958C61.3997 122.636 55.4879 116.431 54.6162 108.099Z" fill="#FFB784"/>
<path d="M65.8981 108.21C66.1328 111.97 66.1363 115.865 66.0791 118.196L67.7789 118.247C67.8132 116.774 67.8679 113.063 67.6573 109.098C67.536 106.813 67.327 104.455 66.9779 102.396C66.672 100.593 66.2659 99.068 65.7451 98.0256L64.2992 98.9327C64.7287 99.8236 65.0463 101.084 65.289 102.504C65.5784 104.197 65.772 106.189 65.8981 108.21Z" fill="#FFB784" stroke="#773E2A"/>
<path d="M66.7938 109.341L61.113 107.631L60.621 109.281L66.3018 110.991L66.7938 109.341Z" fill="#773E2A" stroke="#773E2A"/>
<path class="skin" d="M167.566 109.712C168.438 101.379 163.939 94.0751 157.518 93.3971C151.097 92.7191 145.186 98.9242 144.314 107.257C143.442 115.589 147.941 122.893 154.362 123.571C160.782 124.249 166.694 118.044 167.566 109.712Z" fill="#FFB784"/>
<path d="M156.284 107.197C156.049 110.957 156.046 114.852 156.103 117.183L154.403 117.233C154.369 115.76 154.314 112.049 154.525 108.085C154.646 105.8 154.855 103.441 155.204 101.382C155.51 99.579 155.916 98.0543 156.437 97.0119L157.883 97.919C157.453 98.8099 157.136 100.07 156.893 101.49C156.604 103.183 156.41 105.175 156.284 107.197Z" fill="#773E2A" stroke="#773E2A"/>
<path d="M155.388 108.327L161.069 106.617L161.561 108.267L155.88 109.977L155.388 108.327Z" fill="#773E2A" stroke="#773E2A"/>
<path class="skin" d="M132.967 168.481C131.097 165.498 130.447 148.188 130.447 148.188L112.597 149.021L94.8067 150.689C94.8067 150.689 96.5567 167.919 95.1167 171.144C93.6767 174.359 80.1067 180.236 80.1067 180.236C84.3267 196.883 105.127 205.995 117.637 204.599C132.847 202.911 149.607 189.68 150.907 175.665C150.907 175.665 134.837 171.475 132.957 168.491L132.967 168.481Z" fill="#FFB784"/>
<path d="M131.227 159.581C130.977 157.15 130.797 154.659 130.677 152.619C128.307 153.744 122.477 156.035 113.137 156.688C101.667 157.492 95.9367 155.04 95.1667 154.679C95.3167 156.557 95.4767 158.888 95.5867 161.219C98.5667 164.695 104.707 170.16 114.027 169.507C122.637 168.905 128.247 163.449 131.227 159.591V159.581Z" fill="#773E2A"/>
<path class="skin" d="M66.9267 74.6579C66.9267 74.6579 72.9467 41.4944 109.737 40.8514C146.537 40.5701 153.377 73.5729 153.377 73.5729C153.377 73.5729 156.277 110.634 145.437 135.811C139.467 149.685 126.367 160.525 111.257 160.777C96.1467 160.907 82.7267 150.399 76.4067 136.675C64.9467 111.78 66.9267 74.6579 66.9267 74.6579Z" fill="#FFB784"/>
<path fill-rule="evenodd" clip-rule="evenodd" d="M114.633 84.1455C114.274 83.9395 113.815 84.0639 113.609 84.4232C112.483 86.3886 112.94 88.2521 114.004 89.5887C116.157 91.6992 118.096 90.5868 118.096 90.5868C118.096 90.5868 115.964 89.642 115.178 88.6544C114.429 87.7137 114.14 86.5127 114.911 85.1692C115.117 84.8098 114.992 84.3515 114.633 84.1455Z" fill="#773E2A"/>
<path d="M99.4702 85.2188C100.19 83.4555 99.8539 82.6845 98.9681 81.3837C98.0824 80.0829 85.7875 83.7003 85.7875 83.7003C84.1374 83.975 82.5753 84.5849 81.4015 85.3751L75.8574 90.6737L85.3132 87.3481L99.473 85.2358L99.4702 85.2188Z" fill="#23120C"/>
<path d="M119.875 90.6681C118.532 89.3226 118.544 88.481 118.859 86.9371C119.174 85.3931 131.904 83.9433 131.904 83.9433C133.531 83.5544 135.207 83.5088 136.593 83.7805L143.748 86.5078L133.748 87.1217L119.879 90.6849L119.875 90.6681Z" fill="#23120C"/>
<path d="M112.597 97.1562C113.171 103.93 115.507 106.82 115.507 110.089C115.507 113.359 110.901 112.323 110.901 112.323" stroke="#773E2A" stroke-width="2.5"/>
<path d="M120.272 126.54C116.377 125.43 112.284 126.024 109.146 126.901C106.689 127.588 104.781 128.458 103.952 128.866L103.07 127.25C103.961 126.803 106.083 125.815 108.848 125.061C112.27 124.128 116.627 123.567 120.835 124.789L120.272 126.54Z" fill="#773E2A" stroke="#773E2A"/>
<path d="M116.383 131.416C113.91 131.69 112.153 132.239 111.354 132.531L110.605 130.857C111.451 130.537 113.422 129.892 116.215 129.589L116.383 131.416Z" fill="#773E2A" stroke="#773E2A"/>
<ellipse cx="132.374" cy="100.013" rx="4" ry="4.0186" fill="black"/>
<ellipse cx="87.374" cy="100.013" rx="4" ry="4.0186" fill="black"/>
<path d="M63.2354 76.7238C66.3274 42.2906 88.8697 33.0475 107.125 33.0475C154.218 30.8821 157.872 73.9699 154.794 88.7625L152.262 110.853L145.99 88.762L140.407 72.683V82.3078H124.947L120.653 72.683V82.3078H107.125V62.5241L98.7509 82.3078H77.0638L75.1313 74.5544L70.7651 90.4386L69.3839 107.112L63.2354 76.7238Z" fill="#23120C"/>
<path d="M74.9657 116.163C74.5523 119.883 69.0517 121.158 66.353 121.331C67.1569 125.005 69.6947 132.114 73.4154 131.149C78.0662 129.943 75.4824 111.512 74.9657 116.163Z" fill="#23120C"/>
<path d="M147.596 117.799C148.009 121.52 153.51 122.795 156.208 122.967C155.405 126.642 152.867 133.75 149.146 132.786C144.495 131.58 147.079 113.149 147.596 117.799Z" fill="#23120C"/>
</svg>
