<svg width="125" height="175" viewBox="0 0 125 175" fill="none" xmlns="http://www.w3.org/2000/svg">
<path d="M22.2621 131.928C-24.0385 57.1604 13.4277 -1.59087 59.8359 1.06097C146.526 6.01454 106.01 89.8627 119.078 131.928H22.2621Z" fill="black" stroke="black"/>
<path d="M9.70937 78.5716C8.83765 70.2778 13.3361 63.0073 19.7569 62.3324C26.1778 61.6575 32.0896 67.8339 32.9613 76.1277C33.833 84.4215 29.3346 91.6921 22.9137 92.367C16.4929 93.0418 10.5811 86.8654 9.70937 78.5716Z" fill="#976449"/>
<path d="M23.3585 89.1947C23.4085 87.4747 23.7985 72.2847 21.0185 67.8447L18.7285 69.2747C20.7185 72.4447 20.7985 84.6647 20.6585 89.1047L23.3585 89.1847V89.1947Z" fill="#311911"/>
<path d="M15.8703 77.4865L22.5087 79.4756L21.7308 82.0716L15.0924 80.0825L15.8703 77.4865Z" fill="#311911"/>
<path d="M122.659 80.1785C123.531 71.8847 119.032 64.6142 112.612 63.9393C106.191 63.2645 100.279 69.4409 99.4072 77.7347C98.5355 86.0285 103.034 93.299 109.455 93.9739C115.876 94.6487 121.787 88.4724 122.659 80.1785Z" fill="#976449"/>
<path d="M109.01 88.1859C108.96 86.4659 108.57 71.2759 111.35 66.8359L113.64 68.2659C111.65 71.4359 111.57 83.6559 111.71 88.0959L109.01 88.1759V88.1859Z" fill="#311911"/>
<path d="M116.498 76.4777L109.86 78.4668L110.638 81.0628L117.276 79.0737L116.498 76.4777Z" fill="#311911"/>
<path d="M88.0599 138.676C86.1899 135.706 85.5399 118.476 85.5399 118.476L67.6899 119.306L49.8999 120.966C49.8999 120.966 51.6499 138.116 50.2099 141.326C48.7699 144.526 35.2 150.376 35.2 150.376C39.42 166.946 60.2199 176.016 72.7299 174.626C87.9399 172.946 104.7 159.776 106 145.826C106 145.826 89.9299 141.656 88.0499 138.686L88.0599 138.676Z" fill="#976449"/>
<path d="M86.32 129.816C86.07 127.396 85.89 124.916 85.77 122.886C83.4 124.006 77.57 126.286 68.23 126.936C56.76 127.736 51.03 125.296 50.26 124.936C50.41 126.806 50.57 129.126 50.68 131.446C53.66 134.906 59.8 140.346 69.12 139.696C77.73 139.096 83.34 133.666 86.32 129.826V129.816Z" fill="#311911"/>
<path d="M22.02 45.2861C22.02 45.2861 28.04 12.2761 64.83 11.6361C101.63 11.3561 108.47 44.2061 108.47 44.2061C108.47 44.2061 111.37 81.096 100.53 106.156C94.56 119.966 81.46 130.756 66.35 131.006C51.24 131.136 37.82 120.676 31.5 107.016C20.04 82.2361 22.02 45.2861 22.02 45.2861Z" fill="#976449"/>
<path d="M55.4228 59.5535C56.4197 57.9395 56.2136 57.1276 55.5514 55.7054C54.8892 54.2832 42.1711 55.8256 42.1711 55.8256C40.4986 55.8256 38.8582 56.1692 37.5716 56.7533L31.24 61.0501L41.1097 59.3301L55.4228 59.5706V59.5535Z" fill="#311911"/>
<path d="M74.5724 59.5535C73.5754 57.9395 73.7815 57.1276 74.4437 55.7054C75.1059 54.2832 87.824 55.8256 87.824 55.8256C89.4965 55.8256 91.1369 56.1692 92.4235 56.7533L98.7551 61.0501L88.8854 59.3301L74.5724 59.5706V59.5535Z" fill="#311911"/>
<circle cx="39.1084" cy="78.77" r="10.0146" fill="#A56B5E"/>
<circle cx="91.4174" cy="78.0205" r="10.0146" fill="#A56B5E"/>
<path d="M67.6901 68.1294C68.2648 74.9035 70.6 77.7932 70.6 81.0625C70.6 84.3319 65.9945 83.2957 65.9945 83.2957" stroke="#311911" stroke-width="2.5"/>
<path d="M67.05 119.456C65.53 119.476 64.54 119.266 64.46 119.246L65.01 116.746C65.01 116.746 68.41 117.436 72.25 115.776L73.27 118.126C70.88 119.156 68.67 119.436 67.05 119.456Z" fill="#311911"/>
<path d="M82.94 95.7959C80.3 93.1059 74.1 93.2259 66.37 93.3259C58.96 93.4159 53.65 95.2059 50.42 97.1559C47.08 99.1659 49.42 114.316 66.63 114.106C83.33 113.906 85.39 98.2859 82.94 95.7959Z" fill="#4D3A37"/>
<path d="M66.3701 93.3258C61.1601 93.3858 57.0001 94.2958 53.8601 95.5058C53.9501 96.8958 54.1901 98.2358 54.9801 98.5558C55.9001 98.9258 61.7701 98.7058 66.7801 98.6158C71.3001 98.5358 78.2001 97.9758 78.7901 97.1358C79.0301 96.7958 79.1301 95.3858 79.2201 93.9558C76.0201 93.1958 71.5401 93.2658 66.3701 93.3258Z" fill="white"/>
<path d="M56.6399 111.966C59.1899 113.306 62.4699 114.156 66.6299 114.106C70.7999 114.056 74.0599 113.046 76.5599 111.516C75.7399 110.086 73.2099 108.736 66.1699 109.306C60.0599 109.806 57.5399 110.906 56.6399 111.966Z" fill="#9E6275"/>
<path d="M87.0841 74.6142C84.8542 74.6142 83.0466 72.6128 83.0466 70.1439C83.0466 67.675 86.3368 65.5962 88.5667 65.5962C90.6075 66.0774 91.1216 66.5877 92.4174 67.7763C91.1216 68.7505 91.1216 69.2315 91.1216 70.1438V70.1439C91.1216 72.6128 89.3139 74.6142 87.0841 74.6142Z" fill="#340C00"/>
<path d="M43.3799 74.6142C45.6097 74.6142 47.4174 72.6128 47.4174 70.1439C47.4174 67.675 44.1272 65.5962 41.8973 65.5962C39.8564 66.0774 39.3424 66.5877 38.0466 67.7763C39.3424 68.7505 39.3424 69.2315 39.3424 70.1438V70.1439C39.3424 72.6128 41.1501 74.6142 43.3799 74.6142Z" fill="#340C00"/>
<path d="M18.3286 47.6984C21.4207 13.2652 43.963 4.02215 62.2185 4.02215C109.311 1.85673 112.965 44.9445 109.887 59.7371L107.355 81.8273L101.083 59.7366L95.5005 43.6576V53.2824H80.0404L75.746 43.6576V53.2824H62.2184V33.4987L53.8441 53.2824H32.1571L30.2245 45.529L25.8583 61.4132L24.4771 78.0862L18.3286 47.6984Z" fill="black"/>
<path d="M30.059 87.1369C29.6456 90.8574 24.1449 92.1324 21.4463 92.3048C22.2501 95.9795 24.788 103.088 28.5087 102.123C33.1595 100.917 30.5757 82.4862 30.059 87.1369Z" fill="black"/>
<path d="M102.689 88.7746C103.103 92.4951 108.603 93.7701 111.302 93.9425C110.498 97.6172 107.96 104.725 104.24 103.761C99.5887 102.555 102.172 84.1239 102.689 88.7746Z" fill="black"/>
<path d="M22.2621 131.928C-24.0385 57.1604 13.4277 -1.59087 59.8359 1.06097C146.526 6.01454 106.01 89.8627 119.078 131.928H22.2621Z" fill="black" stroke="black"/>
<path d="M9.70937 78.5716C8.83765 70.2778 13.3361 63.0073 19.7569 62.3324C26.1778 61.6575 32.0896 67.8339 32.9613 76.1277C33.833 84.4215 29.3346 91.6921 22.9137 92.367C16.4929 93.0418 10.5811 86.8654 9.70937 78.5716Z" fill="#B2674B"/>
<path d="M23.3585 89.1947C23.4085 87.4747 23.7985 72.2847 21.0185 67.8447L18.7285 69.2747C20.7185 72.4447 20.7985 84.6647 20.6585 89.1047L23.3585 89.1847V89.1947Z" fill="#773E2A"/>
<path d="M15.8703 77.4865L22.5087 79.4756L21.7308 82.0716L15.0924 80.0825L15.8703 77.4865Z" fill="#773E2A"/>
<path d="M122.659 80.1785C123.531 71.8847 119.032 64.6142 112.612 63.9393C106.191 63.2645 100.279 69.4409 99.4072 77.7347C98.5355 86.0285 103.034 93.299 109.455 93.9739C115.876 94.6487 121.787 88.4724 122.659 80.1785Z" fill="#B2674B"/>
<path d="M109.01 88.1859C108.96 86.4659 108.57 71.2759 111.35 66.8359L113.64 68.2659C111.65 71.4359 111.57 83.6559 111.71 88.0959L109.01 88.1759V88.1859Z" fill="#773E2A"/>
<path d="M116.498 76.4777L109.86 78.4668L110.638 81.0628L117.276 79.0737L116.498 76.4777Z" fill="#773E2A"/>
<path d="M88.0599 138.676C86.1899 135.706 85.5399 118.476 85.5399 118.476L67.6899 119.306L49.8999 120.966C49.8999 120.966 51.6499 138.116 50.2099 141.326C48.7699 144.526 35.2 150.376 35.2 150.376C39.42 166.946 60.2199 176.016 72.7299 174.626C87.9399 172.946 104.7 159.776 106 145.826C106 145.826 89.9299 141.656 88.0499 138.686L88.0599 138.676Z" fill="#B2674B"/>
<path d="M86.32 129.816C86.07 127.396 85.89 124.916 85.77 122.886C83.4 124.006 77.57 126.286 68.23 126.936C56.76 127.736 51.03 125.296 50.26 124.936C50.41 126.806 50.57 129.126 50.68 131.446C53.66 134.906 59.8 140.346 69.12 139.696C77.73 139.096 83.34 133.666 86.32 129.826V129.816Z" fill="#773E2A"/>
<path d="M22.02 45.2861C22.02 45.2861 28.04 12.2761 64.83 11.6361C101.63 11.3561 108.47 44.2061 108.47 44.2061C108.47 44.2061 111.37 81.096 100.53 106.156C94.56 119.966 81.46 130.756 66.35 131.006C51.24 131.136 37.82 120.676 31.5 107.016C20.04 82.2361 22.02 45.2861 22.02 45.2861Z" fill="#B2674B"/>
<path d="M85.1946 93.8979C82.4546 91.0479 75.9446 91.0879 67.8446 91.0879C59.7446 91.0879 54.4746 92.8979 51.0546 94.8979C47.5246 96.9579 49.7746 106.438 67.8446 106.448C85.3646 106.458 87.7346 96.5479 85.2046 93.8979H85.1946Z" fill="#2D0600"/>
<path d="M67.8346 91.0881C62.3646 91.0881 57.9946 91.9881 54.6746 93.2081C54.7546 94.6681 54.9846 96.0781 55.8046 96.4181C56.7646 96.8181 62.9346 96.6581 68.1946 96.6381C72.9346 96.6181 80.1846 96.1081 80.8146 95.2381C81.0746 94.8881 81.1946 93.4081 81.3046 91.9081C77.9646 91.0681 73.2546 91.0781 67.8346 91.0781V91.0881Z" fill="white"/>
<path d="M67.4247 102.888C61.7747 103.278 59.0447 104.198 57.8147 105.158C60.4147 105.948 63.7047 106.448 67.8347 106.448C72.0747 106.448 75.4247 105.868 78.0347 104.948C76.9647 103.588 74.1847 102.418 67.4247 102.888Z" fill="#A06275"/>
<path d="M54.4717 60.4641C55.4776 58.8558 55.2761 58.0427 54.6219 56.6168C53.9677 55.1909 41.2411 56.6622 41.2411 56.6622C39.5686 56.6528 37.9263 56.9872 36.6365 57.5641L30.2809 61.8254L40.1601 60.1607L54.4716 60.4813L54.4717 60.4641Z" fill="#311911"/>
<path d="M74.3053 61.1869C73.3107 59.5716 73.5179 58.7599 74.1821 57.3387C74.8463 55.9174 87.5622 57.478 87.5622 57.478C89.2348 57.4804 90.8747 57.8263 92.1604 58.4122L98.4859 62.7181L88.6187 60.984L74.3053 61.2041L74.3053 61.1869Z" fill="#311911"/>
<path d="M67.6901 68.1294C68.2648 74.9035 70.6 77.7932 70.6 81.0625C70.6 84.3319 65.9945 83.2957 65.9945 83.2957" stroke="#773E2A" stroke-width="2.5"/>
<path fill-rule="evenodd" clip-rule="evenodd" d="M84.034 66.9624C83.6662 67.6127 83.4568 68.3613 83.4568 69.1578C83.4568 71.6598 85.5232 73.688 88.0723 73.688C90.6214 73.688 92.6879 71.6598 92.6879 69.1578C92.6879 68.3613 92.4784 67.6127 92.1106 66.9624H84.034Z" fill="black"/>
<path fill-rule="evenodd" clip-rule="evenodd" d="M40.5622 67.0034C40.1944 67.6538 39.985 68.4023 39.985 69.1988C39.985 71.7008 42.0514 73.729 44.6005 73.729C47.1496 73.729 49.2161 71.7008 49.2161 69.1988C49.2161 68.4023 49.0066 67.6538 48.6388 67.0034H40.5622Z" fill="black"/>
<path d="M18.3286 47.6984C21.4207 13.2652 43.963 4.02215 62.2185 4.02215C109.311 1.85673 112.965 44.9445 109.887 59.7371L107.355 81.8273L101.083 59.7366L95.5005 43.6576V53.2824H80.0404L75.746 43.6576V53.2824H62.2184V33.4987L53.8441 53.2824H32.1571L30.2245 45.529L25.8583 61.4132L24.4771 78.0862L18.3286 47.6984Z" fill="black"/>
<path d="M30.059 87.1369C29.6456 90.8574 24.1449 92.1324 21.4463 92.3048C22.2501 95.9795 24.788 103.088 28.5087 102.123C33.1595 100.917 30.5757 82.4862 30.059 87.1369Z" fill="black"/>
<path d="M102.689 88.7746C103.103 92.4951 108.603 93.7701 111.302 93.9425C110.498 97.6172 107.96 104.725 104.24 103.761C99.5887 102.555 102.172 84.1239 102.689 88.7746Z" fill="black"/>
</svg>
