<svg width="189" height="471" viewBox="0 0 189 471" fill="none" xmlns="http://www.w3.org/2000/svg">
<path class="skin" d="M126.489 391.26C126.489 391.26 117.969 426.01 118.479 427.66C118.989 429.31 133.599 456.34 133.599 456.34L82.1094 432.65C82.1094 432.65 89.3393 422.31 90.3193 420.86C91.2893 419.42 98.3393 386.62 99.3293 386.1C100.319 385.58 126.489 391.26 126.489 391.26Z" fill="#F59673"/>
<path d="M88.0896 421.29C88.0896 421.29 90.2996 420.49 90.4196 420.67C90.5396 420.85 89.0396 422.88 89.2296 423.23C91.3196 426.96 96.8396 438.29 98.2896 437.95C99.9996 437.55 108.49 423.67 115.1 424.61C121.7 425.55 131.96 446.77 132.9 447.45C133.84 448.13 142.77 452.4 146.81 454.61C150.85 456.82 149.46 461.81 149.46 461.81C149.46 461.81 151.61 462.58 152.02 463.21C152.43 463.83 152.69 470.3 152.02 470.44C151.35 470.57 116.1 471.03 114.05 470.44C112 469.85 69.3697 449.78 69.0297 447.65C68.6897 445.52 72.4097 438.35 73.4997 438.35C74.5897 438.35 76.5396 438.69 76.5396 438.69C76.5396 438.69 86.2296 421.96 88.0896 421.31V421.29Z" fill="#CFC5BB"/>
<path d="M115.76 465.05H152.34C152.26 464.12 152.15 463.38 152.03 463.19C151.63 462.57 149.47 461.79 149.47 461.79C149.47 461.79 149.48 461.74 149.5 461.67C141.43 462.12 119.31 463.56 116.13 463.35C112.72 463.13 81.9397 443.06 74.1097 438.36C73.8997 438.34 73.6898 438.33 73.5198 438.33C73.1398 438.33 72.4597 439.18 71.7397 440.38C81.4397 446.06 114.02 465.06 115.77 465.06L115.76 465.05Z" fill="#2B241D"/>
<path d="M122.73 427.06C122.22 426.79 119.97 425.19 115.33 426.17C110.69 427.16 106.25 435.44 106.45 435.74C106.65 436.04 116.06 451.21 118.33 451.21C120.6 451.21 124.8 447.38 128.25 447.28C131.7 447.18 136.97 449.57 136.97 449.57C136.97 449.57 137.52 446.69 136.54 443.93C135.55 441.17 123.85 427.65 122.73 427.06Z" fill="#E7E0DA"/>
<path d="M131.3 436.63C128.31 436.1 124.85 436.01 121.66 437.21C117.02 438.96 114.13 442.37 112.53 444.88C113.15 445.74 113.76 446.58 114.35 447.34C115.54 445.22 118.16 441.54 122.65 439.85C126.51 438.39 131.06 439.28 134.15 440.24C133.32 439.13 132.33 437.89 131.3 436.62V436.63Z" fill="#D9D1C7"/>
<path d="M107.86 437.95C108.42 438.82 109.11 439.87 109.87 441.02C110.27 439.29 112.26 432.38 118.8 431.7C122.36 431.33 125.4 431.77 127.71 432.37C126.57 431.05 125.5 429.86 124.64 428.94C122.8 428.72 120.74 428.67 118.5 428.9C112.61 429.51 109.34 434.14 107.85 437.96L107.86 437.95Z" fill="#D9D1C7"/>
<path class="skin" d="M48.45 392.95C48.45 392.95 50.31 430.56 49.22 431.89C48.13 433.23 24.5 452.86 24.5 452.86L81.11 450.08C81.11 450.08 78.87 435.4 78.51 433.7C78.15 432 78.1399 395.78 77.4099 394.93C76.6799 394.08 48.45 392.95 48.45 392.95Z" fill="#F59673"/>
<path d="M78.51 433.7L78.1899 437.46L74.5699 438.34C74.5699 438.34 71.2799 429.4 59.0399 427.61C46.8099 425.82 16.69 450.22 15.38 455.19C14.07 460.16 15.38 461.76 15.38 461.76C15.38 461.76 13.7799 462.51 13.5899 462.8C13.3999 463.08 14.3599 470.21 14.9299 470.21C14.9299 470.21 38.9399 470.23 59.4899 470.23C60.1099 470.23 60.7299 468.35 61.3399 468.35C74.2699 468.35 84.7199 468.35 84.7399 468.33C85.4999 467.63 84.9099 459.58 84.7399 458.85C84.5599 458.12 82.8699 457.94 82.8699 457.94C82.8699 457.94 83.53 443.4 83.15 441.95C82.78 440.5 78.52 433.68 78.52 433.68L78.51 433.7Z" fill="#D9D1C7"/>
<path d="M13.5897 462.81C13.7797 462.53 15.3798 461.78 15.3798 461.78C15.3798 461.78 15.3597 461.76 15.3297 461.7L60.0198 461.64L63.2197 458.77L82.8698 457.64C82.8698 457.84 82.8598 457.96 82.8598 457.96C82.8598 457.96 84.5498 458.15 84.7298 458.87C84.7598 458.99 84.7998 459.39 84.8498 459.96L63.2997 461.17L59.8498 464.05L13.6398 464.11C13.5598 463.41 13.5397 462.88 13.5897 462.81Z" fill="#2B241D"/>
<path d="M50.5297 429.09C62.3997 428.98 69.9895 437.53 68.9095 439.61C67.8295 441.69 53.8796 450.49 51.7296 450.13C49.5796 449.77 46.0797 440.61 40.7797 439.46C35.4797 438.31 28.9696 443.47 28.9696 443.47L27.8796 442.75C27.8796 442.75 27.8296 441.75 29.1896 439.46C30.5496 437.17 44.5396 429.14 50.5196 429.09H50.5297Z" fill="#E7E0DA"/>
<path d="M44.9696 438.34C42.3496 436.8 38.9296 435.22 35.5796 434.83C36.7696 434.15 38.0396 433.46 39.3496 432.81C41.4596 433.41 43.5096 434.3 45.3596 435.31C48.2696 436.89 50.9396 438.88 53.4496 441.02C55.4796 442.74 57.5796 444.55 59.1396 446.74C58.2896 447.24 57.4596 447.72 56.6696 448.15C55.3296 446.36 53.5795 444.87 51.9095 443.41C49.7395 441.53 47.4496 439.79 44.9696 438.34Z" fill="#D9D1C7"/>
<path d="M63.6094 443.92C60.3694 440.24 56.5294 437.11 52.1394 434.88C49.6394 433.61 46.9694 432.68 44.2194 432.12C43.3894 431.95 42.5194 431.82 41.6494 431.73C43.4294 430.93 45.1894 430.25 46.7794 429.77C48.8194 430.34 50.7793 431.11 52.5693 431.95C57.7093 434.35 62.2293 437.99 65.9193 442.29C65.2193 442.81 64.4394 443.36 63.5994 443.92H63.6094Z" fill="#D9D1C7"/>
<path d="M135.86 395.17C136.12 395.21 138.53 398.61 138.81 399.89C139.09 401.17 136.29 414.94 135.05 415.84C133.81 416.74 77.6997 406.45 77.4397 405.99C77.1797 405.53 79.0897 389.2 79.8797 388.29C80.6797 387.39 84.5496 386.11 84.5496 386.11C84.5496 386.11 130.31 394.24 135.86 395.18V395.17Z" fill="#2B241D"/>
<path class="pant" d="M24.3097 0.0500488C24.3097 0.0500488 3.56974 33.59 0.769744 57.8C-1.76026 79.73 24.5697 331.65 26.6497 384.34C26.8697 389.81 37.7197 393.58 37.7197 393.58L87.1797 396.93L95.0897 389.32L82.4697 100.68L83.8897 100.64C83.8897 100.64 107.03 179.93 112.87 215.14C113.18 216.99 108.5 222.5 108.7 224.08C109.19 227.86 114.31 227.07 114.12 229.03C114 230.19 108.35 231.19 107.46 234.85C107.16 236.09 111.93 239.01 111.56 240.48C111 242.7 110.37 245.18 109.68 247.88C100.8 282.51 81.9496 352.92 84.1596 373.48C84.4596 376.32 87.5497 389.35 89.2297 390.25C91.6197 391.53 130.51 395.78 130.51 395.78C130.51 395.78 140.4 391.57 142.19 388.4C146.8 380.25 187.24 258.84 188.3 230.65C189.65 194.8 166.4 65.37 166.26 59.63C165.79 40.56 141.38 0.0300293 141.38 0.0300293H24.3097V0.0500488Z" fill="#514537"/>
<path d="M17.4597 12.2C17.0397 12.99 16.6097 13.82 16.1797 14.67H149.55C149.1 13.82 148.66 13 148.24 12.2H17.4697H17.4597Z" fill="#3E342A"/>
<path d="M34.0296 391.26C33.7696 391.26 30.7395 394.12 30.2195 395.32C29.6995 396.52 29.7795 410.57 30.8195 411.69C31.8595 412.81 90.7896 413.58 91.1296 413.18C91.4696 412.78 92.7695 396.39 92.1595 395.34C91.5495 394.3 87.9996 392.3 87.9996 392.3C87.9996 392.3 39.6496 391.42 34.0196 391.26H34.0296Z" fill="#2B241D"/>
<path d="M80.2896 81.4V13.03H82.9796V78.16C86.6796 77.41 91.2996 76.24 92.7496 75.36C93.2196 73.46 93.3595 63 89.6595 16.57C89.4195 13.54 89.3896 13.17 89.3896 13.03H92.0796H90.7396L92.0796 12.9901C92.0796 13.1601 92.1996 14.57 92.3396 16.35C97.0396 75.42 95.6496 76.52 94.6296 77.32C92.3396 79.12 83.6096 80.79 81.8796 81.11L80.2896 81.4Z" fill="#3E342A"/>
<path d="M144.03 35.9301C140.04 35.9301 133.18 35.5 130.07 32.78C125.63 28.9 128.32 14.7 128.64 13.09L131.28 13.62C130.19 19.1 129.37 28.6 131.84 30.76C134.76 33.32 143.63 33.37 146.8 33.17L146.97 35.85C146.62 35.87 145.53 35.9301 144.03 35.9301Z" fill="#3E342A"/>
<path d="M20.4595 36.37C18.9595 36.37 17.8695 36.31 17.5195 36.29L17.6895 33.61C20.8595 33.81 29.7295 33.76 32.6495 31.2C35.1195 29.04 34.3095 19.54 33.2095 14.06L35.8495 13.53C36.1695 15.14 38.8594 29.34 34.4194 33.22C31.3094 35.94 24.4595 36.37 20.4595 36.37Z" fill="#3E342A"/>
<path d="M81.8196 100.73C80.6696 100.73 78.6497 99.9 77.7797 99.54C76.4897 99.01 70.1996 95.69 63.8696 91.92L65.2797 89.63C73.2897 94.44 78.8296 97.69 79.6896 97.95C80.3296 98.1 83.2496 98.0601 85.8096 97.9301L100.28 89.36L101.65 91.67L86.6096 100.58L86.2797 100.6C85.6897 100.63 83.6396 100.73 81.8096 100.73H81.8196Z" fill="#3E342A"/>
<path d="M41.2595 240.51C46.3695 240.51 51.6294 237.84 56.9094 232.56L55.0095 230.66C52.9995 232.67 45.0294 238.12 40.4094 237.79C34.8094 237.39 31.4694 233.01 31.4294 232.96L29.2695 234.56C29.4295 234.78 33.3394 239.95 40.1694 240.46C40.5294 240.49 40.8895 240.5 41.2495 240.5L41.2595 240.51Z" fill="#3E342A"/>
<path d="M93.3396 391.14C94.3996 391.31 95.6196 391.5 96.9596 391.69C97.3396 391.3 97.6496 390.92 97.8396 390.58C98.1096 390.11 98.9296 388.69 94.6096 308C93.8196 311.37 93.0496 314.72 92.3096 318.04C93.8996 348.71 95.6396 385.67 95.2896 389.33C94.9596 389.76 94.2296 390.43 93.3396 391.14Z" fill="#3E342A"/>
<path d="M167.85 241.43C159.95 241.43 155.6 236.59 155.54 236.51L157.67 234.65L156.6 235.58L157.66 234.65C157.99 235.02 165.87 243.62 180.46 234.39L181.97 236.78C176.47 240.26 171.73 241.43 167.85 241.43Z" fill="#3E342A"/>
<path d="M91.8099 392.48L90.4199 393.82C90.6599 394.27 92.26 396.47 93.2 398.55C93.83 399.94 92.4599 406.14 91.6799 408.86C92.5699 409.03 93.67 409.23 94.6 409.4C95.41 406.35 96.74 399.9 95.77 397.39C94.72 394.68 93.3299 393.3 91.8099 392.49V392.48Z" fill="#2B241D"/>
</svg>
