<svg width="153" height="42" viewBox="0 0 153 42" fill="none" xmlns="http://www.w3.org/2000/svg">
<circle cx="18.0957" cy="21.3663" r="18.0957" fill="#FF0C1C"/>
<path d="M42.8865 28.1279C42.5831 29.05 41.7673 28.9589 41.2071 29.5285C41.0715 29.6733 40.3911 29.8661 40.5985 29.4512C40.8329 28.9771 40.9064 28.5234 40.8605 28.083C40.7887 28.6471 40.5881 29.1605 40.1913 29.516C39.9592 29.7207 39.5672 29.6683 39.2954 29.8843C38.8983 30.2173 38.7804 30.7697 38.3365 31.0746C38.2503 31.1333 38.1601 31.1917 38.0683 31.2439C37.4536 31.6194 36.6843 31.9341 35.9436 31.955C35.1915 31.9647 34.9078 28.8192 34.9078 28.8192C34.9078 28.8192 34.9656 33.0479 32.5538 32.9488C31.933 32.9237 31.4847 33.2324 30.9198 33.0911C29.9058 32.8419 29.1663 32.7934 28.1498 33.1627C27.9503 33.2352 27.7627 33.3392 27.5504 33.3658C27.0857 33.4344 27.0679 33.3207 26.6715 33.2454C25.8078 33.0853 25.3259 33.0341 24.4786 33.1141C23.3949 33.2149 22.3487 33.4655 21.2838 33.588C20.332 33.6989 19.5182 32.8893 18.8457 32.313C18.8343 32.3019 18.8213 32.2846 18.8104 32.2674C18.4374 32.686 17.9128 32.95 17.3272 32.8663C16.9531 32.8193 16.8245 32.6318 16.5411 32.4407C16.471 32.3965 16.4644 32.2694 16.4 32.2298C16.1275 32.0558 15.6306 32.1198 15.3143 32.118C15.1488 32.1196 14.9977 31.9855 15.0008 31.8122C14.9989 31.7039 15.0089 31.6005 15.0205 31.5014C14.6392 31.7355 14.1874 31.903 13.7347 31.8684C12.9185 31.8099 12.7975 31.3637 12.3545 30.803C11.7876 30.0756 10.9423 30.3682 10.1583 29.9957C10.1363 29.9899 10.1069 29.9734 10.0833 29.9614C9.55147 29.6818 9.34172 28.9552 8.902 28.7786C8.44026 28.5962 8.12967 28.9726 7.68926 28.5652C7.18903 28.1124 7.3404 27.3359 7.55585 26.7889C7.98238 25.6987 8.49071 25.5661 8.27604 24.0776C8.20595 23.5802 8.06889 23.1573 8.07951 22.6457C8.08226 22.4499 8.10812 22.2722 8.13602 22.0947C7.92895 22.5055 7.81574 22.9705 7.77782 23.5454C7.74441 24.0614 7.81482 24.5548 7.66618 25.0558C7.31042 26.2883 6.12259 26.3627 6.44925 28.0149C6.48584 28.2035 6.37799 28.332 6.20048 28.3572C5.52555 28.4525 4.88036 28.2663 4.54994 27.6223C4.1547 26.8652 4.621 26.1353 4.23168 25.3542C3.85362 24.6126 3.48672 24.1251 3.83572 23.2474C3.86972 23.15 3.91357 23.0574 3.96319 22.9693C3.66707 23.1569 3.38234 23.3556 3.1462 23.6397C2.63771 24.2541 2.49573 25.0946 2.86083 25.8187C2.97238 26.0417 2.69594 26.292 2.50868 26.098C2.19445 25.7759 1.98809 25.4048 1.85042 25.0165C0.723496 23.6031 1.07127 21.2757 2.68837 20.3686C3.01884 20.1856 3.37482 20.1761 3.71718 20.0513C4.96141 19.5872 4.65134 19.1041 4.55529 17.986C4.45971 16.8619 4.61834 15.8573 5.27584 14.9236C5.99015 13.9146 7.06422 13.5396 7.90224 12.7014C8.8467 11.7529 8.34473 10.177 8.95891 9.00931C9.40738 8.16575 10.1513 7.6225 11.0473 7.33385C12.0705 7.01003 12.8924 6.78105 13.5167 5.855C13.5853 5.0395 13.7927 4.19789 14.3296 3.69186C15.2243 2.86003 16.4678 3.07168 17.5647 3.11897C19.3675 3.19789 20.3016 1.45236 22.1494 1.47756C23.4175 1.50122 24.4413 2.12887 25.2402 3.05371C26.5167 2.3818 28.1232 2.03938 29.497 2.62852C30.0864 2.87784 30.5738 3.28472 30.9031 3.83671C31.143 4.22259 31.1712 4.52079 31.4386 4.78832C31.7723 4.90985 32.1242 5.05932 32.4709 5.25125C32.6604 5.28211 32.8503 5.30891 32.9996 5.35914C34.9527 6.00899 36.2376 7.97148 36.5578 10.0275C37.0003 10.435 37.3731 10.4983 37.9276 10.749C38.6216 11.0717 39.2405 11.5744 39.4645 12.3286C39.5906 12.7344 39.5386 13.1203 39.5106 13.5388C39.4324 14.6128 39.9249 14.8466 40.7116 15.3703C41.2281 15.7182 41.6008 16.2367 41.7082 16.8595C41.8754 17.8217 41.2457 18.2594 41.0456 19.1117C41.0135 19.2379 41.0026 19.3534 40.9922 19.4629C41.1521 20.1999 41.4685 20.7081 41.909 21.487C42.1972 21.9889 42.3471 22.4046 42.3034 23.0015C42.2565 23.7472 41.8637 24.397 41.7469 25.121C41.7206 25.3048 41.718 25.472 41.7302 25.6322C41.7899 25.7858 41.8724 25.9351 41.9886 26.0706C42.5365 26.7005 43.2088 27.1726 42.8889 28.124L42.8865 28.1279Z" fill="#3E1A00"/>
<path d="M38.0067 29.2445C38.0626 28.6751 37.888 28.0758 37.5193 27.6392C37.1514 27.1904 36.6269 26.9746 36.0748 26.8262C35.4651 26.657 35.3275 26.6934 35.312 26.0164C35.3064 25.6097 35.4499 25.2287 35.3644 24.7995C35.2789 24.3703 35.0723 23.9482 34.7128 23.6838C34.5158 23.538 34.2914 23.5351 34.102 23.4226C33.3854 22.9961 33.1435 22.5284 33.1945 21.73C33.2632 20.8063 33.3084 19.5766 32.1291 19.38C31.3753 19.2529 30.8377 19.7936 30.1402 19.9177C29.1607 20.0979 28.3599 19.3567 27.3962 19.438C26.9439 19.4789 26.5617 19.6966 26.1388 19.8337C25.2475 20.1145 24.4108 20.1097 23.5008 19.9154C22.2915 19.6574 21.1553 19.1375 19.9242 18.9778C18.0846 18.7389 16.3485 19.2796 14.6877 19.9854C13.5329 20.3215 12.6375 21.1084 12.3149 22.3352C12.1241 23.0658 12.1971 23.7656 12.3959 24.475C12.8122 25.9442 11.9814 26.1276 10.9564 26.635C9.9934 27.1064 9.74427 27.7998 10.0053 28.8162C10.1502 29.3765 10.3433 29.575 10.1538 29.9954C10.9398 30.37 11.7851 30.0755 12.3501 30.8027C12.7929 31.3654 12.914 31.8096 13.7303 31.8681C14.185 31.9029 14.6347 31.7352 15.0161 31.5011C15.0066 31.5983 14.9966 31.7017 14.9964 31.8119C14.9934 31.9832 15.1443 32.1193 15.3098 32.1177C15.6261 32.1195 16.1231 32.0555 16.3956 32.2295C16.4599 32.2691 16.4667 32.3942 16.5366 32.4404C16.8201 32.6315 16.9486 32.819 17.3227 32.866C17.9084 32.9497 18.4331 32.6837 18.8059 32.2671C18.8169 32.2843 18.8298 32.3016 18.8412 32.3127C19.5137 32.889 20.3296 33.6987 21.2793 33.5877C22.3444 33.4631 23.3925 33.2147 24.4741 33.1138C25.3214 33.0338 25.8054 33.0852 26.667 33.2451C27.0635 33.3204 27.0833 33.4342 27.5459 33.3655C27.7582 33.3389 27.946 33.2328 28.1454 33.1624C29.1619 32.7931 29.9015 32.8396 30.9153 33.0908C31.4802 33.2321 31.9287 32.9214 32.5493 32.9485C34.9611 33.0476 34.9033 28.8189 34.9033 28.8189C34.9033 28.8189 35.187 31.9644 35.9391 31.9547C36.6798 31.9338 37.4491 31.6191 38.0639 31.2436C37.25 30.5136 37.9214 30.0914 38.0024 29.2483L38.0067 29.2445Z" fill="#231000"/>
<path d="M28.1408 33.2923C27.8074 32.6604 27.9434 29.153 27.9434 29.153L24.3074 29.0439L20.6706 29.1041C20.6706 29.1041 20.7591 32.6124 20.4169 33.2415C20.0749 33.8687 17.2295 34.845 17.2295 34.845C17.8284 38.274 21.9092 40.4385 24.4701 40.3509C27.5835 40.2464 31.1901 37.8339 31.671 35.0226C31.671 35.0226 28.474 33.9262 28.1386 33.2942L28.1408 33.2923Z" fill="#FFB784"/>
<path d="M27.9254 31.4674C27.9123 30.9723 27.9143 30.4661 27.9215 30.0522C27.4231 30.2427 26.2043 30.6148 24.2984 30.6015C21.9578 30.5855 20.8327 30.0011 20.682 29.9161C20.6834 30.298 20.6797 30.7714 20.666 31.244C21.2171 31.9926 22.3787 33.1923 24.2806 33.2053C26.0375 33.2174 27.2607 32.2025 27.9253 31.4694L27.9254 31.4674Z" fill="#BA4E00"/>
<path d="M16.1887 13.3091C16.1887 13.3091 17.924 6.70248 25.4014 7.14471C32.8753 7.66017 33.7528 14.4343 33.7528 14.4343C33.7528 14.4343 33.7677 21.9672 31.1777 26.8852C29.7512 29.5954 26.9244 31.5818 23.8536 31.3976C20.7846 31.189 18.2233 28.8572 17.1529 25.9862C15.2122 20.7783 16.1887 13.3091 16.1887 13.3091Z" fill="#FFB784"/>
<path d="M36.0744 21.9561C36.3803 20.2862 35.5803 18.7405 34.2875 18.5037C32.9947 18.2669 31.6987 19.4286 31.3928 21.0985C31.0869 22.7684 31.8869 24.3141 33.1797 24.5509C34.4724 24.7877 35.7684 23.626 36.0744 21.9561Z" fill="#FFB784"/>
<path d="M33.1784 23.3694C33.195 23.0195 33.352 19.9302 33.9854 19.0723L34.4279 19.3981C33.9747 20.0106 33.7684 22.4897 33.7278 23.3931L33.1785 23.3674L33.1784 23.3694Z" fill="#BA4E00"/>
<path d="M34.8813 21.1097L33.5029 21.4102L33.6204 21.9492L34.9988 21.6487L34.8813 21.1097Z" fill="#BA4E00"/>
<path d="M24.3681 22.7343C24.147 22.6888 22.2085 22.2483 22.1123 21.1058C22.044 20.292 22.8545 19.9458 23.4455 19.693C23.6546 19.6028 23.9712 19.4678 24.0183 19.3857C24.1712 19.1218 24.2427 18.0819 24.2478 17.429L24.8274 17.4326C24.8258 17.7203 24.8056 19.1827 24.5228 19.6755C24.3791 19.9258 24.0521 20.0641 23.6743 20.225C23.079 20.4795 22.6588 20.6883 22.6898 21.0561C22.7413 21.6623 24.0372 22.0699 24.4872 22.1656L24.3683 22.7323L24.3681 22.7343Z" fill="#BA4E00"/>
<path d="M24.1755 29.0636C23.8667 29.044 23.669 28.986 23.6531 28.9807L23.8036 28.4818C23.8036 28.4818 24.483 28.6747 25.2882 28.3975L25.4587 28.8904C24.9576 29.0623 24.5046 29.0847 24.1755 29.0636Z" fill="#BA4E00"/>
<path d="M27.7693 24.509C27.2753 23.9219 26.015 23.8498 24.4444 23.7499C22.939 23.653 21.8333 23.9337 21.1474 24.2793C20.4382 24.6353 20.6776 27.7468 24.174 27.9718C27.5669 28.1909 28.2279 25.0525 27.7693 24.509Z" fill="#4D3A37"/>
<path d="M24.444 23.7494C23.3855 23.6805 22.527 23.8005 21.8708 23.9973C21.8675 24.2808 21.8954 24.5566 22.0507 24.6338C22.2317 24.7232 23.4266 24.7698 24.4449 24.8295C25.3636 24.8835 26.7729 24.8772 26.9057 24.7159C26.9597 24.6506 27.0019 24.3659 27.0424 24.0771C26.4047 23.8731 25.4943 23.8176 24.444 23.7494Z" fill="white"/>
<path d="M22.1782 27.3815C22.675 27.6931 23.3275 27.9167 24.1727 27.9712C25.0199 28.0259 25.6973 27.8716 26.2285 27.6C26.0843 27.2969 25.5918 26.9836 24.154 26.9898C22.906 26.9963 22.3774 27.1803 22.1782 27.3815Z" fill="#9E6275"/>
<path d="M20.0815 19.4198C20.3326 19.4391 20.5762 18.9321 20.6256 18.2876C20.675 17.643 20.5114 17.1049 20.2603 17.0856C20.0092 17.0664 19.7656 17.5733 19.7162 18.2179C19.6669 18.8625 19.8304 19.4006 20.0815 19.4198Z" fill="#4D3A37"/>
<path d="M29.4576 18.9643C29.4082 19.6098 29.1632 20.1157 28.9135 20.0966C28.6639 20.0775 28.4988 19.5401 28.5483 18.8947C28.5977 18.2492 28.8427 17.7432 29.0924 17.7624C29.342 17.7815 29.5071 18.3189 29.4576 18.9643Z" fill="#4D3A37"/>
<path d="M20.1847 14.9629C19.0927 14.6935 17.6826 14.9774 16.9439 15.4782C16.819 15.5626 16.5761 15.7216 16.6347 15.8629C16.6744 15.9578 16.8365 16.0008 16.9781 16.0178C17.9941 16.1344 18.9478 15.7583 19.9632 16.0423C20.225 16.1155 20.4738 16.2264 20.7498 16.2476C21.4075 16.298 21.4874 15.761 21.1674 15.4609C20.9063 15.2183 20.5654 15.0574 20.1868 14.9631L20.1847 14.9629Z" fill="#3E1A00"/>
<path d="M30.2306 17.5214C30.1609 17.6039 29.9897 17.6009 29.8443 17.5796C29.7353 17.5631 29.6306 17.5448 29.5266 17.5165C28.907 17.3689 28.3598 17.0759 27.744 16.9328C27.5116 16.8741 27.2632 16.8388 27.0015 16.8432C26.7219 16.8422 26.4429 16.8862 26.1712 16.8347C25.5292 16.7141 25.6556 16.1827 26.0732 15.982C26.3851 15.8282 26.7414 15.7616 27.1132 15.7595C27.142 15.7556 27.1645 15.7552 27.1929 15.7574C27.9268 15.7728 28.7022 16.0445 29.2987 16.4128C29.6245 16.6113 29.8948 16.8403 30.0788 17.0769C30.1641 17.1896 30.3358 17.4008 30.2285 17.5212L30.2306 17.5214Z" fill="#3E1A00"/>
<path d="M32.7311 10.8879C31.9174 9.7843 30.9731 8.73195 29.7307 8.10592C28.6142 7.54263 26.9752 6.94951 25.7154 7.00407C25.696 6.64529 25.7512 6.4576 25.9058 6.03865C25.9729 5.85596 25.7149 5.65244 25.5563 5.77708C25.2934 5.98357 25.1064 6.23874 24.9871 6.51748C24.9974 6.4366 25.0078 6.35369 25.0153 6.2828C25.0266 6.13463 24.8222 6.13734 24.7765 6.2543C24.7232 6.39109 24.6714 6.53412 24.6194 6.67918C22.7305 5.91175 20.386 5.84032 18.5837 6.76595C16.5116 7.83015 15.6625 10.8909 15.3077 13.1239C15.0626 13.3113 14.8702 13.5579 14.7207 13.8302C14.4409 13.7516 14.2276 13.6577 13.9192 13.7647C13.8039 13.8049 13.753 13.9092 13.7747 14.0252C13.8356 14.3504 14.0884 14.5678 14.4195 14.6973C14.4129 14.7295 14.4025 14.7593 14.3979 14.7916C14.3651 15.0076 14.6258 15.1215 14.7524 14.9352C14.7778 14.8963 14.7997 14.851 14.8253 14.8101C15.4194 14.9168 16.1082 14.8267 16.4713 14.6177C16.9198 14.3601 17.1545 13.8554 17.3732 13.3985C17.7319 13.381 18.0588 13.351 18.416 13.1925C19.3948 12.7551 19.5936 12.0782 19.8092 11.2637C19.8187 11.2461 19.8282 11.2284 19.8398 11.211C20.1589 10.6964 20.6619 10.1796 21.275 9.98567C21.9989 9.75734 22.7249 10.0355 23.4386 9.64714C23.8008 9.4503 24.1159 9.14778 24.3617 8.79094C24.4588 9.20263 24.6792 9.57681 25.1097 9.87318C25.4044 10.0775 25.8096 10.1453 26.0913 10.3588C27.6814 11.5627 26.7056 11.4818 26.6885 12.4237C26.6815 12.8091 26.8155 13.1113 27.0927 13.3837C27.4744 13.758 28.0157 13.728 28.4917 13.8849C28.9119 14.0233 29.2541 14.3802 29.4509 14.7689C29.5414 14.9474 29.6324 15.1708 29.6272 15.3725C29.6217 15.6048 29.4665 15.791 29.4266 16.0186C29.3783 16.3028 29.334 16.5342 29.3811 16.8257C29.5605 17.9215 30.5602 18.3044 31.5427 18.1387C32.0474 18.0528 31.3062 17.1753 31.2124 17.0129C30.8877 16.4552 30.7265 15.8405 30.7351 15.196C30.741 14.7453 30.9122 14.3501 30.7515 13.8886C30.3809 12.8108 29.0967 12.9165 28.5325 12.0995C28.108 11.4851 28.5504 10.7207 28.3356 10.006C28.5236 10.1102 28.7071 10.2203 28.8751 10.3454C29.522 10.8299 29.3616 11.3239 29.7116 11.8999C29.9199 12.2446 30.2503 12.3291 30.5229 12.5828C31.3383 13.3455 30.9716 14.0279 31.0825 14.898C31.14 15.3475 31.3384 15.5016 31.6194 15.8314C31.9227 16.1894 32.1539 16.5297 32.2054 17.0033C32.2707 17.6167 32.2166 18.2434 32.3954 18.841C32.5581 19.3823 32.8374 19.8937 33.155 20.359C33.2908 20.5573 34.3622 22.0563 34.7267 21.6963C35.4492 20.9799 33.9543 15.6816 33.9625 14.7491C33.9745 13.2065 33.6491 12.124 32.7354 10.8862L32.7311 10.8879ZM15.7755 13.7069C15.6563 13.6896 15.5621 13.8008 15.5832 13.8983C15.5356 13.9069 15.4806 13.9048 15.4292 13.909C15.4469 13.892 15.4626 13.8728 15.4801 13.8578C15.5516 13.8571 15.6139 13.817 15.6428 13.7334C15.7246 13.6785 15.8112 13.6402 15.8977 13.6039C15.8501 13.6656 15.8078 13.7114 15.7755 13.7069Z" fill="#3E1A00"/>
<path d="M44.438 25.6456C44.3022 25.2861 44.0408 25.2334 43.9076 24.9476C43.6148 24.3188 43.6747 23.6966 43.8394 23.0661C43.9751 22.5477 44.1617 22.2435 44.0836 21.6903C43.8823 20.2947 42.3524 20.1428 42.0518 18.8703C41.7848 17.7452 41.7908 16.8943 40.5432 16.47C40.3363 16.3991 40.2247 16.709 40.4023 16.8165C41.8133 17.6658 40.7582 19.0998 41.5092 20.1435C42.2158 21.1266 43.6215 20.7668 43.0784 22.6321C42.8816 23.3091 42.3303 23.763 42.4813 24.5361C42.5777 25.0376 42.743 24.9849 42.9957 25.3636C43.7502 26.4954 43.4241 26.7276 43.0014 27.5813C42.8734 27.839 43.1543 28.1708 43.4231 27.9934C44.1714 27.4995 44.7894 26.575 44.44 25.6458L44.438 25.6456Z" fill="#3E1A00"/>
<path d="M14.7196 3.69391C14.1166 4.20917 13.6472 4.82041 13.0975 5.38671C12.355 6.15058 11.6541 6.2643 10.6255 6.23245C9.75368 6.20649 8.94294 6.3955 8.30284 7.02225C7.57642 7.7363 7.4983 8.59599 7.42287 9.55388C7.25301 11.6642 6.36391 12.3964 4.65862 13.3621C3.93508 13.7722 3.38803 14.4102 3.16407 15.2281C2.84373 16.3979 3.54331 17.26 3.59564 18.389C3.69402 20.4892 0.503766 21.4637 1.87253 23.8777C1.98219 24.0719 2.31956 23.9854 2.30044 23.7553C2.17411 22.1266 2.91583 21.4259 3.81869 20.2211C4.28705 19.5975 4.55447 18.9851 4.46196 18.194C4.32091 16.9705 3.43115 16.0591 4.23845 14.8224C4.87002 13.8541 6.21161 13.6914 7.00373 12.866C7.64273 12.2004 8.04997 11.3353 8.18896 10.4272C8.43095 8.84099 8.30678 7.1573 10.4109 7.06126C11.3104 7.01993 12.0479 7.20097 12.8329 6.65474C13.7344 6.0276 14.4791 4.86169 15.0168 3.9188C15.1278 3.72314 14.8748 3.56084 14.7176 3.69376L14.7196 3.69391Z" fill="#3E1A00"/>
<path d="M35.7352 6.47896C35.7754 6.48816 34.6882 6.39465 34.7414 6.41915C34.4119 6.26936 34.2321 6.21883 34.1423 5.89754C33.9484 5.20484 33.6904 4.49499 33.1335 4.00928C31.9408 2.97464 30.2175 2.92224 28.808 3.49208C28.5826 3.58301 28.5907 3.9838 28.8768 3.95264C30.6924 3.75896 32.8277 3.71022 33.303 5.92715C33.4159 6.45234 33.3286 6.87236 33.848 7.18166C34.3361 7.47223 34.9867 7.24236 35.51 7.33962C36.5326 7.53026 37.3758 8.27678 37.6707 9.27734C38.0891 10.6916 37.0369 11.6073 36.9903 12.9084C36.9821 13.1487 37.2802 13.2287 37.4361 13.0855C39.681 11.0463 38.7384 7.09289 35.7333 6.47677L35.7352 6.47896Z" fill="#3E1A00"/>
<path d="M25.2625 3.80489C25.2096 3.72325 25.097 3.72688 25.0458 3.80871C24.8506 4.11837 24.8978 4.40783 24.8497 4.7696C24.7676 5.38806 24.4273 5.67232 24.0924 6.153C23.7412 6.65897 23.8458 7.34686 24.0871 7.87373C24.1607 8.03249 24.3907 7.93578 24.3941 7.78495C24.4087 7.14091 24.3158 6.75404 24.7435 6.18247C24.9095 5.9604 25.082 5.78782 25.1959 5.52705C25.4092 5.03501 25.5674 4.27538 25.2584 3.80458L25.2625 3.80489Z" fill="#231000"/>
<path d="M17.4728 10.074C16.7215 11.1128 15.9392 12.5556 14.5274 12.7026C13.9285 12.7649 13.3996 12.6591 12.8356 12.9323C11.7498 13.4596 11.287 14.6512 11.1234 15.7738C11.1019 15.9212 11.0728 16.4335 11.0452 16.5008C10.7733 17.2252 10.209 17.6352 9.59581 17.9373C9.13966 18.1617 8.71316 18.3189 8.35292 18.7037C7.67007 19.4354 7.3397 20.4962 7.72282 21.4382C7.81392 21.6616 8.15272 21.6365 8.15857 21.3736C8.17808 20.3461 8.36591 19.307 9.34765 18.7513C9.82143 18.4834 10.4046 18.4668 10.8749 18.1905C11.8114 17.6395 11.6226 16.6655 11.8007 15.7277C12.042 14.4436 12.7127 13.5497 14.0848 13.3628C14.6335 13.2885 15.1752 13.4137 15.6952 13.1555C16.7372 12.6392 17.2178 11.1631 17.7431 10.2233C17.8425 10.0452 17.5872 9.9133 17.4731 10.0699L17.4728 10.074Z" fill="#231000"/>
<path d="M9.32068 17.0275C7.73201 17.457 5.8478 18.4397 6.45762 20.3933C6.88553 21.7634 5.80443 22.1236 5.37041 23.2582C5.06121 24.0695 5.08585 25.0269 5.58444 25.7409C5.64895 25.8316 5.80242 25.8005 5.80145 25.68C5.77891 24.4818 5.63343 23.556 6.49092 22.5968C6.80136 22.249 7.14977 21.9919 7.2597 21.5164C7.39302 20.9488 6.979 20.57 6.92341 20.0431C6.759 18.485 8.22096 17.764 9.39708 17.2028C9.49871 17.1555 9.42278 17.0006 9.32068 17.0275Z" fill="#231000"/>
<path d="M22.4515 2.57327C21.5859 2.59882 20.972 2.72329 20.2632 3.23452C20.0363 3.39681 19.8589 3.63434 19.6307 3.78836C18.4311 4.60295 18.1327 4.04721 17.1097 3.94229C15.6673 3.79503 14.4295 5.40091 13.7845 6.51729C13.7209 6.62879 13.8617 6.78862 13.9746 6.70131C14.6405 6.19087 15.1777 5.36227 15.9009 4.95626C17.0016 4.3403 17.6225 4.9228 18.6848 4.86127C19.1073 4.83647 19.4228 4.68915 19.7659 4.44798C20.7327 3.76866 21.2567 3.03094 22.4785 2.75296C22.5803 2.73014 22.5539 2.56886 22.4515 2.57327Z" fill="#231000"/>
<path d="M27.5611 7.88233C27.1886 7.44137 26.7501 6.76873 26.0908 6.84684C25.9199 6.86641 25.9249 7.09343 26.0951 7.11055C26.5874 7.16052 27.0095 7.9932 27.2782 8.35066C27.4356 8.56076 27.5761 8.75323 27.6565 9.00848C27.7306 9.24078 27.7329 9.47779 27.8258 9.70337C27.8982 9.87837 28.1517 9.89984 28.2101 9.6981C28.4108 8.99685 27.9898 8.38885 27.5613 7.8803L27.5611 7.88233Z" fill="#231000"/>
<path d="M37.697 22.0265C36.9536 21.2305 35.754 21.1917 35.9881 19.7621C36.0886 19.143 36.2088 18.5866 36.0816 17.9562C35.9691 17.3984 35.7268 16.8572 35.2819 16.4821C34.8101 16.0846 34.2407 16.0552 33.8472 15.4881C33.4518 14.9188 33.4933 14.1115 33.4269 13.4592C33.2565 11.7924 32.4084 10.6045 30.9714 9.74712C30.905 9.70732 30.8065 9.79369 30.8604 9.86316C31.3691 10.5248 32.0104 11.1089 32.4136 11.8421C32.885 12.697 32.7948 13.6353 32.9424 14.5593C33.0336 15.1277 33.2129 15.7458 33.6382 16.1643C34.2342 16.753 34.9926 16.7662 35.38 17.6534C35.8959 18.8342 34.7865 20.3356 35.6144 21.3892C36.0904 21.9974 36.9622 21.9172 37.4476 22.5914C38.1172 23.5247 37.8125 24.4895 37.4995 25.4843C37.432 25.6996 37.7277 25.7835 37.8421 25.6228C38.6483 24.48 38.7499 23.1546 37.6989 22.0287L37.697 22.0265Z" fill="#231000"/>
<path d="M40.9791 25.1766C40.7142 24.3437 39.8032 24.1637 39.5339 23.4142C39.2144 22.522 39.558 21.5806 39.0027 20.7009C38.593 20.053 38.0136 19.7534 37.2681 19.7309C37.1174 19.7255 37.0869 19.9641 37.2356 19.9959C39.5102 20.4724 38.2857 22.7306 39.1038 24.0448C39.2456 24.2721 39.4019 24.2575 39.5709 24.4501C40.2244 25.1943 40.5638 25.7471 40.4272 26.7044C40.3574 27.189 40.3067 27.2117 40.2512 27.6954C40.2329 27.8553 40.4654 27.8854 40.5356 27.7682C41.0026 27.0016 41.2586 26.0596 40.9771 25.1765L40.9791 25.1766Z" fill="#231000"/>
<path d="M51.9651 24.1454C52.4086 24.6488 52.8521 25.0384 53.2956 25.3141C53.7391 25.5778 54.2246 25.7096 54.752 25.7096C55.0876 25.7096 55.3693 25.6617 55.597 25.5658C55.8248 25.4579 55.9986 25.3081 56.1184 25.1163C56.2383 24.9125 56.2982 24.6728 56.2982 24.3971C56.2982 24.1334 56.2383 23.9236 56.1184 23.7678C56.0105 23.612 55.8307 23.4861 55.579 23.3902C55.3393 23.2824 55.0157 23.1805 54.6081 23.0846C53.8889 22.9048 53.2597 22.689 52.7203 22.4373C52.1809 22.1856 51.7314 21.8919 51.3718 21.5563C51.0122 21.2087 50.7425 20.8251 50.5627 20.4056C50.3949 19.9861 50.311 19.5186 50.311 19.0032C50.311 18.1642 50.4908 17.439 50.8504 16.8277C51.21 16.2164 51.7254 15.7489 52.3966 15.4252C53.0799 15.0896 53.8889 14.9218 54.8239 14.9218C55.9626 14.9218 56.9395 15.1436 57.7546 15.5871C58.5697 16.0186 59.2109 16.522 59.6784 17.0974L57.7726 19.0032C57.3291 18.4998 56.8915 18.1162 56.46 17.8525C56.0285 17.5768 55.591 17.439 55.1475 17.439C54.8359 17.439 54.5722 17.4989 54.3564 17.6188C54.1526 17.7386 53.9968 17.9064 53.8889 18.1222C53.7811 18.338 53.7271 18.5837 53.7271 18.8594C53.7271 19.147 53.793 19.3868 53.9249 19.5786C54.0568 19.7584 54.2845 19.9262 54.6081 20.082C54.9437 20.2258 55.4052 20.3757 55.9926 20.5315C56.6398 20.7113 57.1972 20.915 57.6647 21.1428C58.1321 21.3585 58.5157 21.6163 58.8154 21.9159C59.115 22.2036 59.3368 22.5272 59.4806 22.8868C59.6364 23.2464 59.7144 23.6539 59.7144 24.1094C59.7144 24.9964 59.5286 25.7456 59.157 26.3569C58.7854 26.9682 58.252 27.4357 57.5568 27.7593C56.8616 28.071 56.0285 28.2268 55.0576 28.2268C53.847 28.2268 52.8281 28.011 52.0011 27.5795C51.174 27.136 50.5267 26.6266 50.0593 26.0512L51.9651 24.1454ZM61.1637 14.3824H64.5798V27.8672H61.1637V14.3824ZM62.2065 22.0598H65.4429L66.8453 18.8773H70.4232L68.2477 23.1385L70.657 27.8672H66.8453L65.1911 24.469H62.2425L62.2065 22.0598ZM75.893 28.2268C74.9341 28.2268 74.089 28.035 73.3578 27.6514C72.6387 27.2559 72.0753 26.6985 71.6678 25.9793C71.2602 25.2481 71.0564 24.3731 71.0564 23.3543C71.0564 21.844 71.458 20.6633 72.2611 19.8123C73.0762 18.9493 74.1729 18.5178 75.5514 18.5178C76.6781 18.5178 77.619 18.7575 78.3742 19.2369C79.1293 19.7164 79.6687 20.3757 79.9923 21.2147C80.328 22.0538 80.4179 23.0187 80.262 24.1094H74.4186C74.4186 24.6608 74.5445 25.0743 74.7962 25.35C75.0599 25.6257 75.4675 25.7636 76.0188 25.7636C76.4264 25.7636 76.8159 25.6976 77.1875 25.5658C77.5711 25.4339 77.8887 25.2541 78.1404 25.0264L79.7226 26.6086C79.2312 27.112 78.6798 27.5076 78.0685 27.7953C77.4572 28.0829 76.732 28.2268 75.893 28.2268ZM74.4186 22.3115H76.8998C76.8639 21.796 76.744 21.4185 76.5402 21.1787C76.3485 20.927 76.0668 20.8012 75.6952 20.8012C75.3356 20.8012 75.0419 20.927 74.8142 21.1787C74.5865 21.4185 74.4546 21.796 74.4186 22.3115ZM87.5942 27.6874C87.1507 27.8672 86.7252 27.999 86.3177 28.0829C85.9101 28.1788 85.4726 28.2268 85.0052 28.2268C83.9623 28.2268 83.2012 28.011 82.7217 27.5795C82.2543 27.136 82.0205 26.4348 82.0205 25.4759V16.7018H85.4367V24.1094C85.4367 24.6968 85.4846 25.1043 85.5805 25.3321C85.6884 25.5598 85.8562 25.6737 86.0839 25.6737C86.1798 25.6737 86.3177 25.6557 86.4975 25.6197C86.6893 25.5718 86.8571 25.5178 87.0009 25.4579L87.5942 27.6874ZM80.6361 18.8773H87.5043V21.2147H80.6361V18.8773ZM96.4001 26.6086C95.8966 27.112 95.3213 27.5076 94.674 27.7953C94.0387 28.0829 93.2716 28.2268 92.3726 28.2268C90.9822 28.2268 89.8794 27.8013 89.0644 26.9502C88.2613 26.0872 87.8597 24.8646 87.8597 23.2824C87.8597 21.7841 88.2613 20.6154 89.0644 19.7763C89.8675 18.9373 90.9702 18.5178 92.3726 18.5178C93.1877 18.5178 93.9129 18.6496 94.5482 18.9133C95.1954 19.177 95.7948 19.5845 96.3461 20.1359L94.5841 21.8979C94.2725 21.5983 93.9908 21.3825 93.7391 21.2507C93.4874 21.1068 93.1817 21.0349 92.8221 21.0349C92.2348 21.0349 91.8272 21.2267 91.5995 21.6103C91.3837 21.9938 91.2759 22.5752 91.2759 23.3543C91.2759 24.1454 91.3897 24.7387 91.6175 25.1343C91.8572 25.5178 92.2348 25.7096 92.7502 25.7096C93.0978 25.7096 93.4334 25.6377 93.7571 25.4939C94.0807 25.338 94.3744 25.1223 94.6381 24.8466L96.4001 26.6086ZM97.4588 14.3824H100.875V27.8672H97.4588V14.3824ZM103.338 23.0666C103.338 22.3714 103.242 21.862 103.05 21.5383C102.859 21.2027 102.583 21.0349 102.223 21.0349C101.732 21.0349 101.384 21.3106 101.181 21.862C100.977 22.4014 100.875 23.1026 100.875 23.9656L100.587 22.7969L100.551 21.3945C100.719 20.7832 100.959 20.2678 101.27 19.8483C101.594 19.4167 101.978 19.0871 102.421 18.8594C102.877 18.6316 103.374 18.5178 103.913 18.5178C104.765 18.5178 105.448 18.8114 105.963 19.3988C106.491 19.9861 106.754 20.927 106.754 22.2216V27.8672H103.338V23.0666ZM109.855 24.1454C110.298 24.6488 110.742 25.0384 111.185 25.3141C111.629 25.5778 112.114 25.7096 112.642 25.7096C112.977 25.7096 113.259 25.6617 113.487 25.5658C113.714 25.4579 113.888 25.3081 114.008 25.1163C114.128 24.9125 114.188 24.6728 114.188 24.3971C114.188 24.1334 114.128 23.9236 114.008 23.7678C113.9 23.612 113.72 23.4861 113.469 23.3902C113.229 23.2824 112.905 23.1805 112.498 23.0846C111.779 22.9048 111.149 22.689 110.61 22.4373C110.071 22.1856 109.621 21.8919 109.261 21.5563C108.902 21.2087 108.632 20.8251 108.452 20.4056C108.285 19.9861 108.201 19.5186 108.201 19.0032C108.201 18.1642 108.38 17.439 108.74 16.8277C109.1 16.2164 109.615 15.7489 110.286 15.4252C110.97 15.0896 111.779 14.9218 112.714 14.9218C113.852 14.9218 114.829 15.1436 115.644 15.5871C116.459 16.0186 117.101 16.522 117.568 17.0974L115.662 19.0032C115.219 18.4998 114.781 18.1162 114.35 17.8525C113.918 17.5768 113.481 17.439 113.037 17.439C112.726 17.439 112.462 17.4989 112.246 17.6188C112.042 17.7386 111.886 17.9064 111.779 18.1222C111.671 18.338 111.617 18.5837 111.617 18.8594C111.617 19.147 111.683 19.3868 111.815 19.5786C111.946 19.7584 112.174 19.9262 112.498 20.082C112.833 20.2258 113.295 20.3757 113.882 20.5315C114.529 20.7113 115.087 20.915 115.554 21.1428C116.022 21.3585 116.405 21.6163 116.705 21.9159C117.005 22.2036 117.226 22.5272 117.37 22.8868C117.526 23.2464 117.604 23.6539 117.604 24.1094C117.604 24.9964 117.418 25.7456 117.047 26.3569C116.675 26.9682 116.142 27.4357 115.446 27.7593C114.751 28.071 113.918 28.2268 112.947 28.2268C111.737 28.2268 110.718 28.011 109.891 27.5795C109.064 27.136 108.416 26.6266 107.949 26.0512L109.855 24.1454ZM125.274 27.6874C124.831 27.8672 124.405 27.999 123.998 28.0829C123.59 28.1788 123.153 28.2268 122.685 28.2268C121.642 28.2268 120.881 28.011 120.402 27.5795C119.934 27.136 119.701 26.4348 119.701 25.4759V16.7018H123.117V24.1094C123.117 24.6968 123.165 25.1043 123.261 25.3321C123.368 25.5598 123.536 25.6737 123.764 25.6737C123.86 25.6737 123.998 25.6557 124.178 25.6197C124.369 25.5718 124.537 25.5178 124.681 25.4579L125.274 27.6874ZM118.316 18.8773H125.184V21.2147H118.316V18.8773ZM130.376 28.2268C129.405 28.2268 128.554 28.035 127.823 27.6514C127.104 27.2679 126.541 26.7105 126.133 25.9793C125.738 25.2362 125.54 24.3372 125.54 23.2824C125.54 22.2875 125.738 21.4365 126.133 20.7293C126.541 20.0101 127.104 19.4647 127.823 19.0931C128.554 18.7095 129.405 18.5178 130.376 18.5178C131.935 18.5178 133.127 18.9373 133.954 19.7763C134.793 20.6154 135.213 21.7841 135.213 23.2824C135.213 24.8646 134.799 26.0872 133.972 26.9502C133.145 27.8013 131.947 28.2268 130.376 28.2268ZM130.376 25.7096C130.844 25.7096 131.197 25.5118 131.437 25.1163C131.677 24.7207 131.797 24.1274 131.797 23.3363C131.797 22.5572 131.677 21.9818 131.437 21.6103C131.197 21.2267 130.844 21.0349 130.376 21.0349C129.897 21.0349 129.537 21.2267 129.298 21.6103C129.07 21.9938 128.956 22.5752 128.956 23.3543C128.956 24.1454 129.07 24.7387 129.298 25.1343C129.537 25.5178 129.897 25.7096 130.376 25.7096ZM136.384 18.8773H139.8V20.6034C140.04 20.1719 140.285 19.8003 140.537 19.4887C140.789 19.177 141.094 18.9373 141.454 18.7695C141.826 18.6017 142.293 18.5178 142.856 18.5178V21.0349C142.341 21.0349 141.886 21.1068 141.49 21.2507C141.106 21.3945 140.789 21.6103 140.537 21.8979C140.297 22.1736 140.112 22.5272 139.98 22.9587C139.86 23.3783 139.8 23.8757 139.8 24.451V27.8672H136.384V18.8773ZM143.543 29.1797C143.71 29.2636 143.896 29.3175 144.1 29.3415C144.316 29.3775 144.489 29.3955 144.621 29.3955C144.861 29.3955 145.107 29.3595 145.358 29.2876C145.622 29.2276 145.856 29.1078 146.06 28.928C146.275 28.7602 146.425 28.5145 146.509 28.1908L148.954 18.8773H152.568L148.99 29.2696C148.811 29.809 148.589 30.2705 148.325 30.654C148.061 31.0376 147.708 31.3313 147.264 31.535C146.833 31.7388 146.257 31.8407 145.538 31.8407C145.107 31.8407 144.747 31.8227 144.459 31.7868C144.172 31.7508 143.908 31.7029 143.668 31.6429C143.429 31.583 143.165 31.5111 142.877 31.4272L143.543 29.1797ZM142.787 18.8773H146.401L148.577 27.8672H145.754L142.787 18.8773Z" fill="#363D60"/>
</svg>
