<svg width="110" height="248" viewBox="0 0 110 248" fill="none" xmlns="http://www.w3.org/2000/svg">
<path d="M0.425935 141.798C-1.57405 113.798 3.55822 100.448 12.0012 95.1365C53.3033 129.543 68.4303 173.582 68.6681 173.272C69.3816 172.272 55.8372 78.9294 56.0012 78.6365C56.1026 79.13 78.0012 76.6365 78.0012 76.6365C78.0012 76.6365 115.878 219.683 108.133 238.309C106.245 242.846 95.1714 248.862 89.1959 247.637C67.2263 243.114 5.42595 163.298 0.425935 141.798Z" class="skin" fill="#F3A396"/>
<path d="M69.5222 173.76C69.5222 173.76 68.5472 172.777 67.001 171.136C71.038 186.363 72.0967 190.836 72.1424 191.136L73.0717 191.086L74.001 191.04C73.9705 190.78 72.8813 186.18 69.507 173.439C69.5298 173.628 69.5298 173.74 69.5146 173.76H69.5222Z" fill="#D26665"/>
<path d="M56.0911 79.1656L54.8021 72.1589C54.8021 72.1589 47.7709 69.5679 42.9524 63.3412C38.1324 57.1032 41.2104 43.2109 40.638 41.8728C40.1699 40.7717 34.4715 38.9904 36.311 35.6748C38.1491 32.348 43.904 32.9846 45.4556 34.5173C46.7289 35.7781 48.4759 40.9489 48.4759 40.9489C48.4759 40.9489 45.1315 9.24786 49.5024 7.32954C54.7041 4.29759 54.7425 29.3718 55.8233 28.6093C56.9027 27.8357 54.2232 1.67222 59.2826 2.39457C62.1735 1.68739 63.0779 5.81597 63.0779 5.81597C63.0779 5.81597 64.1359 2.75897 66.5299 3.59307C69.8752 5.0547 70.8017 19.6606 70.8017 19.6606C70.8017 19.6606 70.0323 7.38144 73.2081 7.08184C77.8129 5.81597 80.433 25.4488 81.2738 35.6941C82.1145 45.9394 82.8938 60.8109 81.4289 63.8175C80.1254 66.5078 76.7785 69.0587 76.7785 69.0587L77.9883 76.6521L56.1148 79.1853L56.0911 79.1656Z" class="skin" fill="#F3A396"/>
<path d="M60.5727 51.9508C61.497 54.3933 61.2655 55.162 61.2565 55.1745C61.2565 55.1745 61.3153 55.7675 61.5315 55.9084L62.4247 56.4905L63.1017 56.9316C63.6623 56.417 64.3677 54.9513 62.8692 50.9889C61.5332 47.4724 56.0252 48.0331 52.0052 48.4509C51.4088 48.515 50.7065 48.5811 50.243 48.6057C49.8012 46.8756 49.1265 41.7966 48.7414 38.9218C48.216 34.9386 48.0379 33.6985 47.8133 33.1809C48.1372 37.6674 48.4841 40.911 48.4841 40.911C48.4841 40.911 46.8906 36.1985 45.637 34.6736C45.7921 35.564 46.0477 37.4996 46.2792 39.2449C47.6074 49.2351 47.9337 50.3882 48.748 50.9562C49.3755 51.3887 50.2239 51.3041 52.2861 51.0886C54.3796 50.8691 59.9502 50.3005 60.5727 51.9508Z" fill="#D26665"/>
<path d="M76.2801 35.9367C65.9976 34.7243 51.9865 38.1586 51.8417 38.1883L51.2387 35.6028C51.8252 35.4603 65.8065 32.0411 76.5089 33.3028L76.2816 35.948L76.2801 35.9367Z" fill="#D26665"/>
<path d="M56.4123 18.9083C56.4167 18.6916 56.3804 18.3208 56.2762 17.1623C56.2375 16.6894 56.1913 16.2402 56.1569 15.801C56.0357 22.0501 56.3578 28.1976 55.8233 28.5837C55.2499 28.9976 54.7326 22.397 53.712 16.4289C53.7399 16.7325 53.7691 17.0474 53.7879 17.3635C53.8492 18.0155 53.903 18.6912 53.9067 18.8045C53.892 19.6937 55.0931 32.0319 55.4634 35.7958L57.937 35.5624C57.3444 29.5401 56.3938 19.6841 56.39 18.8997L56.4123 18.9083Z" fill="#D26665"/>
<path d="M61.6816 3.05501C61.6816 3.05501 61.6859 3.0886 61.6887 3.11099C61.5375 3.67616 61.2796 5.07386 61.2148 8.16483C61.1253 12.0666 63.3998 33.4717 63.4937 34.3813L65.9644 34.1254C65.9361 33.9015 63.6187 11.9899 63.6995 8.27121C63.7529 6.0121 63.9083 4.80937 63.9983 4.26333C63.374 4.94526 63.0974 5.77657 63.0974 5.77657C63.0974 5.77657 62.724 4.08338 61.6921 3.05369L61.6816 3.05501Z" fill="#D26665"/>
<path d="M72.9739 33.534C72.2632 25.7407 71.41 13.3015 71.6925 8.57907C70.3251 11.9373 70.7982 19.6128 70.7982 19.6128C70.7982 19.6128 70.3674 13.4449 69.2195 8.73282C68.8778 15.6696 70.307 31.6533 70.4961 33.7339L72.9725 33.5228L72.9739 33.534Z" fill="#D26665"/>
</svg>
