<svg width="458" height="526" viewBox="0 0 458 526" fill="none" xmlns="http://www.w3.org/2000/svg">
<path d="M206.672 344.829L209.744 258.881H179.826L181.175 343.36L206.672 344.829Z" fill="#F3A396"/>
<path d="M189.099 339.642C189.099 339.642 192.846 328.471 184.36 323.174C175.873 317.876 171.527 320.032 170.927 326.891C170.328 333.75 170.141 337.858 170.141 337.858L189.099 339.623V339.642Z" fill="#001141"/>
<path d="M175.405 332.672C175.405 332.672 155.772 346.26 140.372 345.962C140.372 345.962 113.901 346.427 115.512 369.642L222.671 369.531C222.671 369.531 229.153 350.274 216.845 334.959C216.845 334.959 223.327 314.754 207.665 316.762L207.309 328.174C207.309 328.174 205.436 332.747 199.384 330.962C193.333 329.178 185.39 329.066 175.386 332.672H175.405Z" fill="#001141"/>
<path d="M115.456 381.501H222.689V369.549H115.456V381.501Z" fill="#D0E2FF"/>
<path d="M184.172 343.545C184.172 343.545 177.971 335.014 169.054 336.538" stroke="#D0E2FF" stroke-width="2.64376" stroke-linecap="round" stroke-linejoin="round"/>
<path d="M176.622 347.746C176.622 347.746 170.421 339.215 161.504 340.739" stroke="#D0E2FF" stroke-width="2.64376" stroke-linecap="round" stroke-linejoin="round"/>
<path d="M167.874 350.311C167.874 350.311 161.673 341.78 152.756 343.304" stroke="#D0E2FF" stroke-width="2.64376" stroke-linecap="round" stroke-linejoin="round"/>
<path d="M221.715 344.977C221.715 344.977 196.349 348.248 194.832 369.103" stroke="#ECECEB" stroke-width="1.98282" stroke-linecap="round" stroke-linejoin="round"/>
<path d="M142.059 346.278C142.059 346.278 158.507 345.757 157.758 368.638" stroke="#ECECEB" stroke-width="1.98282" stroke-linecap="round" stroke-linejoin="round"/>
<path d="M88.169 346.091L91.1127 263.095H62.4482L63.7406 344.673L88.169 346.091Z" fill="#F3A396"/>
<path d="M71.3323 341.083C71.3323 341.083 74.9221 330.296 66.7912 325.18C58.6603 320.065 54.4962 322.147 53.9218 328.77C53.3475 335.393 53.168 339.36 53.168 339.36L71.3323 341.065V341.083Z" fill="#001141"/>
<path d="M58.2121 334.352C58.2121 334.352 39.4016 347.473 24.6476 347.186C24.6476 347.186 -0.71418 347.635 0.829427 370.053L103.497 369.945C103.497 369.945 109.708 351.35 97.9151 336.56C97.9151 336.56 104.125 317.05 89.1201 318.988L88.7791 330.009C88.7791 330.009 86.9842 334.424 81.1867 332.701C75.3892 330.978 67.7789 330.87 58.1942 334.352H58.2121Z" fill="#001141"/>
<path d="M0.77507 381.504H103.515V369.963H0.77507V381.504Z" fill="#D0E2FF"/>
<path d="M66.6117 344.852C66.6117 344.852 60.6706 336.614 52.127 338.086" stroke="#D0E2FF" stroke-width="2.64376" stroke-linecap="round" stroke-linejoin="round"/>
<path d="M59.3783 348.909C59.3783 348.909 53.4372 340.671 44.8936 342.143" stroke="#D0E2FF" stroke-width="2.64376" stroke-linecap="round" stroke-linejoin="round"/>
<path d="M50.9965 351.386C50.9965 351.386 45.0554 343.147 36.5117 344.619" stroke="#D0E2FF" stroke-width="2.64376" stroke-linecap="round" stroke-linejoin="round"/>
<path d="M102.582 346.235C102.582 346.235 78.2791 349.394 76.8252 369.532" stroke="#ECECEB" stroke-width="1.98282" stroke-linecap="round" stroke-linejoin="round"/>
<path d="M26.2627 347.491C26.2627 347.491 42.0218 346.989 41.3039 369.084" stroke="#ECECEB" stroke-width="1.98282" stroke-linecap="round" stroke-linejoin="round"/>
<path d="M341.498 44.6828C343.082 44.6828 344.232 44.6071 344.602 44.5819L344.422 41.204C341.076 41.4561 331.713 41.3931 328.631 38.1664C326.023 35.4438 326.878 23.4696 328.04 16.5624L325.253 15.8944C324.915 17.9237 322.075 35.8219 326.762 40.7124C330.045 44.1408 337.276 44.6828 341.498 44.6828Z" fill="#85B3B9"/>
<path d="M352.534 0.723698C352.534 0.723698 352.957 28.529 352.534 32.096C352.1 35.663 346.48 96.1306 337.392 100.29C328.305 104.45 247.644 101.41 245.019 104.208C242.393 107.007 232.349 285.469 230.414 287.763C228.479 290.07 218.857 292.843 218.334 292.843C217.811 292.843 163.62 289.25 163.62 289.25C163.62 289.25 156.624 281.94 155.756 278.083C154.877 274.226 168.681 104.208 168.681 104.208C168.681 104.208 133.732 101.309 131.63 104.876C129.528 108.443 116.002 273.029 114.667 275.814C113.333 278.6 104.523 285.923 103.477 285.923C102.432 285.923 44.9145 281.373 44.3917 281.171C43.8689 280.969 36.3275 269.222 36.4387 267.294C36.5611 265.365 56.2378 54.9855 67.561 44.2088C78.8843 33.432 212.662 32.096 212.662 32.096C212.662 32.096 211.672 19.2396 212.839 17.3363C214.007 15.4205 222.116 0.194336 222.116 0.194336L352.534 0.761548V0.723698Z" fill="#001141"/>
<path d="M212.154 29.2952C220.8 29.0683 232.042 28.8667 246.682 28.7029C277.052 28.3751 307.547 28.4255 307.843 28.4255V31.9926C278.076 31.9296 238.523 32.1564 212.334 32.8623C212.281 31.98 212.207 30.7069 212.154 29.3078V29.2952Z" fill="#0043CE"/>
<path d="M181.821 32.8971C179.847 39.6026 172.468 87.0707 167.412 121.254C167.064 121.229 165.987 121.14 164.414 121.014C168.299 94.772 175.741 45.5141 178.76 32.9853C179.794 32.9601 180.818 32.9223 181.821 32.8971Z" fill="#0043CE"/>
<path d="M220.847 291.098C221.618 291.863 220.267 306.66 217.828 307.355C215.379 308.039 163.571 305.02 162.41 302.966C161.26 300.903 162.41 287.203 163.561 286.639C164.711 286.075 218.989 289.256 220.847 291.098Z" fill="#0043CE"/>
<path d="M107.218 285.4C107.218 285.4 107.218 301.156 104.727 303.207C102.236 305.246 45.2345 299.598 43.6511 297.794C42.0677 295.99 43.7672 279.753 45.5723 279.024C47.3773 278.296 105.656 284.033 107.218 285.4Z" fill="#0043CE"/>
</svg>
