<svg width="146" height="223" viewBox="0 0 146 223" fill="none" xmlns="http://www.w3.org/2000/svg">
<path d="M91.0514 191.563C91.0514 191.563 93.2027 194.923 94.7657 194.821C96.3288 194.719 107.142 184.901 107.142 184.901C107.142 184.901 109.031 177.847 120.532 178.727C128.721 179.359 147.349 185.352 144.923 190.397C142.497 195.442 125.245 185.871 124.125 186.673C124.125 186.673 145.191 195.679 145.623 200.802C146.054 205.926 139.021 204.132 139.021 204.132C139.021 204.132 141.925 207.45 139.196 209.854C136.466 212.269 133.585 209.854 133.585 209.854C133.585 209.854 133.632 213.431 131.824 214.312C127.601 216.366 114.752 210.27 109.468 212.222C107.579 212.922 96.7668 224.143 91.0512 222.551C85.3473 220.96 74.2129 208.09 74.2129 208.09L89.4727 193.113L91.0514 191.563Z" fill="#F3A396"/>
<path d="M141.423 191.876C140.77 191.548 140.058 191.199 139.288 190.815C135.591 188.998 128.86 185.815 125.244 184.811C119.96 183.344 114.338 183.423 111.48 183.592C111.352 184.213 111.212 184.833 111.084 185.454C111.002 185.827 110.921 186.188 110.839 186.56C113.043 186.38 119.004 186.097 124.416 187.61C126.877 188.298 131.24 190.217 135.474 192.237C129.91 189.145 124.136 186.673 124.136 186.673C124.999 186.052 135.614 191.684 141.435 191.864L141.423 191.876Z" fill="#D26665"/>
<path d="M143.616 204.155C143.021 204.2 142.415 204.222 141.82 204.222C140 202.417 133.142 196.04 124.218 193.095C119.331 191.481 112.857 191.368 109.731 191.424C109.498 192.406 109.265 193.388 109.031 194.359C111.539 194.291 118.409 194.257 123.239 195.86C132.722 198.997 139.989 206.592 140.059 206.671L140.35 206.976C140.152 205.43 139.032 204.155 139.032 204.155C139.032 204.155 141.668 204.821 143.616 204.166V204.155Z" fill="#D26665"/>
<path d="M135.322 210.746C131.94 206.795 121.523 199.132 107.631 199.922C107.375 200.916 107.106 201.909 106.85 202.913C120.964 201.683 130.843 210.147 133.118 212.709C133.619 211.4 133.596 209.865 133.596 209.865C133.596 209.865 134.296 210.452 135.322 210.757V210.746Z" fill="#D26665"/>
<path d="M39.4691 117.597L29.2273 120.98L30.2167 123.402L40.1759 119.774C39.5748 118.774 39.1969 118.067 39.2621 117.878C39.2792 117.836 39.3821 117.73 39.4589 117.609L39.4691 117.597Z" fill="#D26665"/>
<path d="M74.0572 13.3774C78.2797 8.69379 89.4659 -3.11119 96.313 0.985561C102.845 4.89046 102.032 59.1263 95.5 65.8527C90.5426 70.9539 40.0134 116.245 39.2669 117.881C38.5203 119.518 83.5184 180.611 92.5 193.353C95.3957 198.276 78.9483 210.673 74.2125 208.09C68.6369 203.328 8 148.853 0.0471365 112.738C-1.11931 104.725 19.5617 76.8662 40.0094 54.1817L74.0572 13.3774Z" fill="#F3A396"/>
</svg>
