<svg width="289" height="527" viewBox="0 0 289 527" fill="none" xmlns="http://www.w3.org/2000/svg">
<path d="M221.128 101.287H73.752L78.5766 0.965576H214.695L221.128 101.287Z" class="pant"  fill="#001141"/>
<path d="M75.1643 69.6538C75.1643 69.6538 70.2309 140.057 69.3767 173.135C68.5226 206.212 67.359 244.57 67.359 244.57C66.8444 259.881 81.3417 270.8 96.9414 270.8C111.061 270.8 122.898 260.319 124.377 246.555C124.377 246.555 131.758 185.918 133.65 167.026C135.542 148.135 141.714 78.0375 141.714 78.0375C143.837 58.2751 128.044 41.0698 107.813 41.0698C89.4149 41.0698 75.7754 51.6278 75.1321 69.6854L75.1643 69.6538Z" class="pant"  fill="#001141"/>
<path d="M99.1374 486.421L102.444 393.201H70.248L71.6996 484.829L99.1374 486.421Z" class="skin" fill="#F3A396"/>
<path d="M80.2271 480.796C80.2271 480.796 84.2591 468.68 75.1267 462.934C65.9942 457.189 61.317 459.527 60.6719 466.966C60.0268 474.405 59.8252 478.861 59.8252 478.861L80.2271 480.776V480.796Z" class="shoeSoleColor"  fill="#001141"/>
<path d="M65.4905 473.236C65.4905 473.236 44.3628 487.973 27.7913 487.651C27.7913 487.651 -0.694823 488.155 1.03894 513.335L116.354 513.214C116.354 513.214 123.33 492.328 110.085 475.716C110.085 475.716 117.06 453.802 100.206 455.979L99.8231 468.358C99.8231 468.358 97.8071 473.317 91.2954 471.382C84.7837 469.446 76.2358 469.325 65.4704 473.236H65.4905Z" class="shoeSoleColor"  fill="#001141"/>
<path d="M0.97802 526.196H116.374V513.233H0.97802V526.196Z" fill="#ECECEB"/>
<path d="M74.9254 485.03C74.9254 485.03 68.2524 475.776 58.6562 477.429" stroke="white" stroke-width="2.64376" stroke-linecap="round" stroke-linejoin="round"/>
<path d="M66.8014 489.586C66.8014 489.586 60.1284 480.333 50.5322 481.986" stroke="white" stroke-width="2.64376" stroke-linecap="round" stroke-linejoin="round"/>
<path d="M57.3863 492.368C57.3863 492.368 50.7134 483.114 41.1172 484.768" stroke="white" stroke-width="2.64376" stroke-linecap="round" stroke-linejoin="round"/>
<path d="M115.326 486.582C115.326 486.582 88.0294 490.13 86.3965 512.75" stroke="white" stroke-width="1.98282" stroke-linecap="round" stroke-linejoin="round"/>
<path d="M29.6055 487.994C29.6055 487.994 47.306 487.429 46.4996 512.246" stroke="white" stroke-width="1.98282" stroke-linecap="round" stroke-linejoin="round"/>
<path d="M126.586 226.572C126.586 226.572 111.745 422.087 114.421 427.871C117.098 433.656 114.114 435.066 114.139 435.105C115.29 436.945 114.042 437.546 114.042 437.546H62.2275L68.3592 222.784C68.8367 207.662 82.6177 195.824 98.9563 196.55C115.807 197.308 128.462 211.072 126.552 226.572H126.586Z" class="pant"  fill="#001141"/>
<path d="M218.349 71.7289C218.349 71.7289 225.277 147.137 225.277 170.137C225.277 193.137 225.277 242.798 225.277 242.798C225.791 258.109 213.312 270.8 197.712 270.8C183.592 270.8 171.756 260.319 170.276 246.555C170.276 246.555 163 196.137 160 170.137C157 144.137 152.94 78.0375 152.94 78.0375C150.817 58.2751 166.609 41.0698 186.841 41.0698C205.239 41.0698 218.349 55.4687 218.381 71.7605L218.349 71.7289Z" class="pant"  fill="#001141"/>
<path d="M192.336 487.18L189.091 395.691H220.669L219.264 485.616L192.336 487.18Z" class="skin" fill="#F3A396"/>
<path d="M210.895 481.659C210.895 481.659 206.937 469.768 215.9 464.129C224.863 458.49 229.454 460.785 230.087 468.086C230.72 475.387 230.918 479.759 230.918 479.759L210.895 481.639V481.659Z" class="shoeSoleColor"  fill="#001141"/>
<path d="M225.358 474.24C225.358 474.24 246.094 488.703 262.357 488.386C262.357 488.386 290.315 488.881 288.613 513.593L175.439 513.475C175.439 513.475 168.593 492.977 181.592 476.673C181.592 476.673 174.747 455.166 191.287 457.303L191.663 469.451C191.663 469.451 193.642 474.319 200.033 472.419C206.423 470.52 214.813 470.401 225.378 474.24H225.358Z" class="shoeSoleColor"  fill="#001141"/>
<path d="M288.672 513.474H175.419V526.196H288.672V513.474Z" fill="#ECECEB"/>
<path d="M216.079 485.814C216.079 485.814 222.628 476.732 232.046 478.355" stroke="white" stroke-width="2.64376" stroke-linecap="round" stroke-linejoin="round"/>
<path d="M224.072 490.286C224.072 490.286 230.621 481.204 240.039 482.827" stroke="white" stroke-width="2.64376" stroke-linecap="round" stroke-linejoin="round"/>
<path d="M233.312 493.016C233.312 493.016 239.862 483.934 249.28 485.557" stroke="white" stroke-width="2.64376" stroke-linecap="round" stroke-linejoin="round"/>
<path d="M176.369 487.337C176.369 487.337 203.278 490.523 204.88 512.742" stroke="white" stroke-width="1.98282" stroke-linecap="round" stroke-linejoin="round"/>
<path d="M260.557 488.821C260.557 488.821 243.66 488.505 244.135 512.742" stroke="white" stroke-width="1.98282" stroke-linecap="round" stroke-linejoin="round"/>
<path d="M170.308 247.47C170.308 247.47 185.702 411.013 181.791 419.996C177.88 428.978 181.791 436.593 181.791 436.593L230.577 438.163L225.18 243.681C224.73 228.56 211.735 216.721 196.329 217.447C180.44 218.205 168.507 231.969 170.308 247.47Z" class="pant"  fill="#001141"/>
<path d="M80.9701 265.79C84.3935 266.733 88.0617 267.364 92.7068 264.313L91.836 262.516C90.0714 263.677 83.9972 264.667 80.9751 263.565C77.3094 262.229 75.582 259.963 75.5704 259.927L73.7917 260.75C73.8522 260.946 75.7935 263.915 80.2605 265.562C80.4935 265.651 80.7374 265.726 80.9767 265.792L80.9701 265.79Z" class="pantOutlineColor"  fill="#0043CE"/>
<path d="M209.107 266.282C205.684 267.225 202.015 267.856 197.37 264.805L198.241 263.008C200.006 264.169 206.08 265.159 209.102 264.057C212.768 262.721 214.495 260.455 214.507 260.419L216.285 261.242C216.225 261.438 214.284 264.407 209.817 266.054C209.584 266.142 209.34 266.218 209.1 266.284L209.107 266.282Z" class="pantOutlineColor"  fill="#0043CE"/>
<path d="M148.931 19.7095L151.147 76.0105C151.147 76.0105 142.368 71.5806 142.562 52.7062" class="pantOutlineStrokeColor" stroke="#0043CE" stroke-width="2" stroke-miterlimit="10"/>
<path d="M215.47 35.3618H181.746C181.746 35.3618 194.204 78.867 220.669 75.07" class="pantOutlineStrokeColor" stroke="#0043CE" stroke-width="2" stroke-miterlimit="10"/>
<path d="M73.752 75.4839C73.752 75.4839 93.4823 83.6865 110.954 35.3618" class="pantOutlineStrokeColor" stroke="#0043CE" stroke-width="2" stroke-miterlimit="10"/>
<path fill-rule="evenodd" clip-rule="evenodd" d="M136.439 100.287C136.439 99.7343 136.752 99.2866 137.138 99.2866H157.741C158.127 99.2866 158.439 99.7343 158.439 100.287C158.439 100.839 158.127 101.287 157.741 101.287H137.138C136.752 101.287 136.439 100.839 136.439 100.287Z" class="pantOutlineColor"  fill="#0043CE"/>
<path d="M181.791 436.595C175.953 445.339 179.795 451.308 183.073 452.737H231.185C238.161 447.559 233.566 441.437 230.568 438.147L181.791 436.595Z" class="pantOutlineColor"  fill="#0043CE"/>
<path d="M62.6312 452.747C58.0355 445.525 60.507 438.922 63.7852 437.494H112.643C119.619 442.671 113.479 451.574 111.583 452.029C111.583 452.029 67.2269 459.968 62.6312 452.747Z" class="pantOutlineColor"  fill="#0043CE"/>
</svg>
