<svg width="256" height="296" viewBox="0 0 256 296" fill="none" xmlns="http://www.w3.org/2000/svg">
<path class="skin" d="M87.9818 55.8628C88.2607 56.2171 126.425 116.005 129.138 117.755C131.841 119.494 161.199 14.1506 177.246 19.1741C193.292 24.2084 152.146 160.798 131.841 154.809C111.547 148.808 74.4238 72.8762 74.4238 72.8762L87.9818 55.8736L87.9818 55.8628Z" fill="#FFB784"/>
<path class="skin" d="M86.0831 52.922C85.7613 52.1706 81.4494 45.054 69.4574 39.644C57.4547 34.2341 33.3851 38.8712 34.1573 42.993C34.9296 47.1149 58.034 46.1166 58.034 46.1166C58.034 46.1166 43.4463 58.6432 39.2845 56.8399C35.112 55.0473 31.508 42.3383 26.4666 41.6406C21.4253 40.9429 26.1234 52.1169 26.1234 52.1169C26.1234 52.1169 23.828 54.2208 24.0103 60.0064C24.1283 63.6345 42.674 86.6481 53.368 84.7697C64.0621 82.8912 73.4047 71.9211 73.4047 71.9211L78.5104 77.6423C78.5104 77.6423 92.8943 63.9779 92.7119 63.4842C92.5296 62.9904 86.0938 52.9327 86.0938 52.9327L86.0831 52.922Z" fill="#FFB784"/>
<path d="M54.0974 79.3378L53.7435 76.343C52.392 76.504 51.0512 74.003 49.7533 71.5772C47.8762 68.0564 45.5272 63.6769 41.0758 64.0634C40.9256 64.0741 40.7862 64.1063 40.636 64.1278C40.3356 63.5911 37.7506 59.1901 34.0072 58.3099C33.975 58.2455 33.9535 58.1919 33.9214 58.1275C32.9667 56.0558 30.9931 51.7622 27.668 50.7103C26.9493 50.4849 26.2306 50.4205 25.5013 50.5171C25.8338 51.4724 26.1019 52.1057 26.1019 52.1057C26.1019 52.1057 25.5656 52.6102 25.0293 53.7802C25.8445 53.3938 26.4023 53.4797 26.7562 53.587C28.6226 54.1774 30.1564 57.2043 30.9609 58.911C30.5855 59.2438 30.2101 59.7161 29.8883 60.3816C29.0624 62.0991 28.7191 64.9328 28.9337 68.0135C30.0706 69.4303 31.3578 70.9224 32.7522 72.4251C31.8941 69.4948 31.6581 66.1994 32.0443 63.7091C32.3124 62.0239 32.7629 61.337 32.9453 61.1867C35.0369 61.3584 37.2143 64.4068 38.0081 65.7271C37.6648 66.2102 37.3859 66.7791 37.2143 67.4446C36.4957 70.2139 37.5361 74.6149 39.2952 78.6186C41.183 80.1643 43.103 81.549 44.9908 82.6117C42.1484 78.8118 39.2738 71.4805 40.1319 68.2067C40.3571 67.3265 40.7647 67.1118 41.3225 67.0689C43.6179 66.8542 45.1517 69.3982 47.0717 72.994C48.8416 76.3108 50.6758 79.735 54.076 79.3378L54.0974 79.3378Z" fill="#B17861"/>
<path d="M54.0224 49.3478C55.0092 48.7789 56.94 47.4264 61.2626 44.2276L59.4714 41.8018C57.2081 43.4763 54.6982 45.2903 53.3359 46.2242C56.1033 46.2027 58.034 46.1168 58.034 46.1168C58.034 46.1168 56.3822 47.5337 54.0224 49.3478Z" fill="#B17861"/>
<path d="M79.0892 70.7298L76.9761 68.583C75.6032 69.9355 74.5627 70.8049 73.3936 71.9105L75.1098 74.6584C76.0966 73.7246 77.2765 72.5224 79.0892 70.7405L79.0892 70.7298Z" fill="#B17861"/>
<path d="M129.128 117.755C129.396 117.927 129.932 117.025 130.694 115.286C136.411 123.573 138.534 126.535 138.77 126.836L137.515 127.544L136.271 128.263C136.046 128.006 133.718 124.753 128.205 116.767C128.645 117.315 128.956 117.658 129.128 117.766L129.128 117.755Z" fill="#B17861"/>
</svg>
