<svg width="140" height="164" viewBox="0 0 140 164" fill="none" xmlns="http://www.w3.org/2000/svg">
<mask id="mask0_2319_5" style="mask-type:luminance" maskUnits="userSpaceOnUse" x="0" y="0" width="140" height="164">
<path d="M31.3954 4.53C31.3954 4.53 43.3254 28.94 68.6454 27.17C93.9654 25.4 100.525 0 100.525 0C100.525 0 128.585 7.14 133.885 11.25C137.355 13.94 141.075 139.94 138.955 144.39C136.825 148.84 131.985 155.33 131.985 155.33L26.5253 163.85C26.5253 163.85 17.5354 159.1 12.7254 153.91C7.91535 148.71 -4.01465 25.1 1.36535 20.51C7.15535 15.57 31.4054 4.54001 31.4054 4.54001L31.3954 4.53Z" fill="white"/>
</mask>
<g mask="url(#mask0_2319_5)">
<path class="top" d="M31.3954 4.53C31.3954 4.53 43.3254 28.94 68.6454 27.17C93.9654 25.4 100.525 0 100.525 0C100.525 0 128.585 7.14 133.885 11.25C137.355 13.94 141.075 139.94 138.955 144.39C136.825 148.84 131.985 155.33 131.985 155.33L26.5253 163.85C26.5253 163.85 17.5354 159.1 12.7254 153.91C7.91535 148.71 -4.01465 25.1 1.36535 20.51C7.15535 15.57 31.4054 4.54001 31.4054 4.54001L31.3954 4.53Z" fill="#F3BB9D"/>
</g>
</svg>
