<svg width="182" height="212" viewBox="0 0 182 212" fill="none" xmlns="http://www.w3.org/2000/svg">
<path d="M112.023 29.953C112.023 29.953 76.8424 3.69636 52.8281 17.657C22.7503 35.1603 59.0718 76.802 36.8586 88.8712C14.6454 100.94 3.42325 110.373 1.22748 133.472C-7.14749 177.065 71.7093 238.372 138.379 199.552C205.048 160.733 181.334 88.1073 150.026 73.6663C112.353 56.2831 112.053 29.9831 112.053 29.9831L112.023 29.953Z" fill="#190F0D"/>
<path d="M159.831 87.3356C161.204 79.11 157.155 71.5799 150.787 70.5169C144.419 69.4539 138.144 75.2604 136.77 83.4861C135.397 91.7118 139.447 99.2418 145.815 100.305C152.183 101.368 158.458 95.5613 159.831 87.3356Z" fill="#E98C7B"/>
<path d="M44.9478 78.5631C44.5807 70.2317 49.5118 63.2474 55.9618 62.9632C62.4117 62.6789 67.9381 69.2025 68.3052 77.5339C68.6723 85.8653 63.7412 92.8497 57.2912 93.1339C50.8413 93.4181 45.315 86.8945 44.9478 78.5631Z" fill="#E98C7B"/>
<path d="M121.75 143.616C120.063 140.539 120.459 123.301 120.459 123.301L102.592 123.047L84.734 123.625C84.734 123.625 85.4407 140.849 83.8087 143.966C82.1773 147.073 68.2775 152.089 68.2775 152.089C71.4848 168.885 91.6965 179.199 104.268 178.571C119.552 177.816 137.08 165.687 139.223 151.841C139.223 151.841 123.436 146.704 121.739 143.626L121.75 143.616Z" fill="#E98C7B"/>
<path d="M120.551 134.667C120.448 132.237 120.419 129.75 120.422 127.717C117.988 128.691 112.031 130.613 102.669 130.696C91.1712 130.799 85.5997 128.016 84.853 127.61C84.8893 129.485 84.9083 131.811 84.8774 134.133C87.642 137.767 93.4408 143.57 102.783 143.486C111.414 143.409 117.343 138.33 120.55 134.677L120.551 134.667Z" fill="#9C3D28"/>
<path d="M61.4855 46.3927C61.4855 46.3927 69.4963 13.8085 106.257 15.4009C143.007 17.3532 147.842 50.5576 147.842 50.5576C147.842 50.5576 148.499 87.5556 136.159 111.912C129.363 125.335 115.633 135.31 100.535 134.643C85.4451 133.857 72.6842 122.602 67.2043 108.584C57.2682 83.1546 61.4855 46.3927 61.4855 46.3927Z" fill="#E98C7B"/>
<path d="M120.915 98.6627C118.175 95.8127 111.666 95.8528 103.566 95.8528C95.4655 95.8528 90.1955 97.6627 86.7755 99.6627C83.2455 101.723 85.4955 111.203 103.566 111.213C121.086 111.223 123.455 101.313 120.925 98.6627H120.915Z" fill="#190F0D"/>
<path d="M103.555 95.8528C98.0855 95.8528 93.7154 96.7528 90.3954 97.9728C90.4754 99.4328 90.7055 100.843 91.5255 101.183C92.4855 101.583 98.6555 101.423 103.915 101.403C108.655 101.383 115.905 100.873 116.535 100.003C116.795 99.6528 116.915 98.1728 117.025 96.6728C113.685 95.8328 108.975 95.8428 103.555 95.8428V95.8528Z" fill="white"/>
<path d="M103.146 107.653C97.4956 108.043 94.7656 108.963 93.5356 109.923C96.1356 110.713 99.4256 111.213 103.556 111.213C107.796 111.213 111.146 110.633 113.756 109.713C112.686 108.353 109.906 107.183 103.146 107.653Z" fill="#A06275"/>
<path d="M139.748 64.9407L139.078 83.3892C139.078 83.3892 146.631 77.1485 146.898 64.3268L139.748 64.9407Z" fill="#190F0D"/>
<path d="M58.0862 87.3836C58.2405 85.6698 59.551 70.5314 57.0454 65.931L54.6729 67.2195C56.4669 70.5043 55.8057 82.7066 55.3967 87.13L58.0868 87.3736L58.0862 87.3836Z" fill="#9C3D28"/>
<path d="M51.3216 75.2427L57.8271 77.6307L56.8933 80.1748L50.3878 77.7867L51.3216 75.2427Z" fill="#9C3D28"/>
<path d="M61.2348 82.4404C61.2348 82.4404 54.509 77.5434 53.5796 57.7519L60.6733 56.7654L61.2348 82.4404Z" fill="#190F0D"/>
<path fill-rule="evenodd" clip-rule="evenodd" d="M77.6865 68.2819C77.3187 68.9322 77.1093 69.6807 77.1093 70.4773C77.1093 72.9792 79.1757 75.0074 81.7248 75.0074C84.2739 75.0074 86.3403 72.9792 86.3403 70.4773C86.3403 69.6807 86.1309 68.9322 85.7631 68.2819H77.6865Z" fill="#340C00"/>
<path fill-rule="evenodd" clip-rule="evenodd" d="M119.686 68.2819C119.319 68.9322 119.109 69.6807 119.109 70.4773C119.109 72.9792 121.176 75.0074 123.725 75.0074C126.274 75.0074 128.34 72.9792 128.34 70.4773C128.34 69.6807 128.131 68.9322 127.763 68.2819H119.686Z" fill="#340C00"/>
<path d="M145.425 94.9431C145.499 93.2345 146.224 78.1707 149.294 73.9692L151.462 75.5536C149.266 78.5559 148.301 90.6496 148.114 95.0464L145.426 94.9332L145.425 94.9431Z" fill="#9C3D28"/>
<path d="M153.691 83.9471L146.974 85.4342L147.556 88.0606L154.273 86.5735L153.691 83.9471Z" fill="#9C3D28"/>
<path d="M104.809 69.9616C104.725 76.7596 104.891 80.6361 108.169 88.4753L99.1932 87.6017" stroke="#9C3D28" stroke-width="2.5"/>
<path d="M77.2857 59.6166C78.788 54.5316 84.4003 53.2312 95.1961 58.3679L77.2857 59.6166Z" fill="#340C00"/>
<path d="M132.831 59.3301C131.17 54.2951 125.519 53.1721 114.89 58.6464L132.831 59.3301Z" fill="#340C00"/>
<path d="M43.9728 26.0395C69.5157 15.2487 104.399 36.1105 104.399 36.1105C104.399 36.1105 111.407 54.5762 149.079 71.9595C157.034 75.6222 167.66 88.6822 172.643 96.6382C172.643 96.6382 161.627 64.8741 158.175 44.3384C154.693 23.7728 136.442 26.9552 136.442 26.9552C136.442 26.9552 124.914 -1.55843 82.7766 0.116472C61.584 0.206541 43.9728 26.0395 43.9728 26.0395Z" fill="#190F0D"/>
</svg>
