<svg width="47" height="277" viewBox="0 0 47 277" fill="none" xmlns="http://www.w3.org/2000/svg">
<path d="M11.4419 199.92C11.4419 199.92 9.16198 213.38 7.74198 215.71C6.32198 218.04 2.05194 219.39 0.321938 228.23C-1.39806 237.07 4.37195 245.63 3.58195 246.81C2.79195 247.98 -0.157979 250.35 0.532021 252.28C1.22202 254.21 5.24198 257.88 10.492 252.78C10.492 252.78 15.6919 269.28 20.4419 271.64C25.1919 274 25.912 270.99 25.912 270.99C25.912 270.99 26.872 276.43 31.232 276.83C35.592 277.23 35.032 272.6 35.032 272.6C35.032 272.6 35.862 273.95 38.022 271.46C40.182 268.97 39.852 265.21 39.852 265.21C39.852 265.21 41.682 267.45 44.042 263.82C46.402 260.19 38.4519 245.94 38.3219 243.94C38.1919 241.94 41.352 235.33 40.462 227.71C39.172 216.66 32.4319 212.77 32.1919 211.64C31.7419 209.52 33.782 200.63 33.782 200.63L11.432 199.92H11.4419Z" fill="#F59673"/>
<path d="M8.0022 254.63H7.99219C12.6122 250.63 10.2822 242.4 9.51221 239.7C9.26221 238.83 9.19225 238.56 9.30225 238.16C9.55225 237.22 10.3822 237.1 11.5322 236.94C13.1822 236.71 16.2522 236.28 18.0322 234.36C19.9322 232.31 18.1522 226.59 17.3822 224.74L19.7622 223.74C20.1322 224.62 23.2923 232.48 19.9323 236.11C17.6323 238.59 14.0422 239.19 12.1322 239.46C13.0022 242.57 14.8222 249.93 11.2122 254.9C10.7622 253.6 10.5022 252.78 10.5022 252.78C9.6322 253.62 8.80221 254.22 8.01221 254.63H8.0022Z" fill="#B17861"/>
<path d="M15.9414 248.38L18.4814 247.96C19.3714 253.31 22.1114 258.12 24.3214 261.98C25.9914 264.9 27.3115 267.2 27.5115 269.12C27.6915 270.77 27.3915 272.13 26.6515 273.19C26.1015 272 25.9215 270.99 25.9215 270.99C25.9215 270.99 25.5115 272.71 23.2715 272.53C23.4115 272.5 24.0314 272.37 24.4614 271.84C24.9014 271.3 25.0714 270.48 24.9514 269.39C24.8014 268.01 23.5414 265.81 22.0814 263.25C19.7714 259.21 16.9014 254.19 15.9414 248.37V248.38Z" fill="#B17861"/>
<path d="M26.0917 249.22C31.0117 248.63 34.9816 247.54 35.3116 247.39L34.7617 246.22L34.3317 245.01C34.2317 245.04 22.8917 248.24 14.8417 246.51L14.3018 249.03C17.9918 249.82 22.3217 249.67 26.0917 249.22Z" fill="#B17861"/>
<path d="M26.542 247.98C26.542 247.98 26.6919 251.96 28.2419 255.7C28.9219 257.33 30.1019 258.75 31.3419 260.24C32.9919 262.22 34.7019 264.27 35.5919 267.14C36.3519 269.58 36.5119 271.46 36.4519 272.79C35.4519 273.26 35.042 272.6 35.042 272.6C35.042 272.6 35.312 274.84 34.012 276.07C34.082 275.18 34.262 271.53 33.132 267.91C32.392 265.53 30.9219 263.76 29.3619 261.89C28.0519 260.31 26.6919 258.68 25.8619 256.69C24.1219 252.5 23.9719 248.24 23.9619 248.06L26.542 247.98Z" fill="#B17861"/>
<path d="M34.8521 257.57C33.4721 253.69 31.9421 247.66 31.8721 247.4L34.3721 246.76C34.3921 246.82 35.9421 252.93 37.2821 256.7C37.7421 257.99 38.5321 259.23 39.2921 260.42C40.3821 262.14 41.5021 263.9 41.6521 265.85C40.5621 266.05 39.8621 265.2 39.8621 265.2C39.8621 265.2 39.9821 266.55 39.6121 268.16C39.5421 266.34 38.1821 263.49 37.1121 261.81C36.2721 260.49 35.4021 259.13 34.8521 257.56V257.57Z" fill="#B17861"/>
<path d="M19.6923 0.00999451C20.7023 -0.610005 25.2723 42.83 25.2723 42.83C25.2723 42.83 44.0724 84.67 45.9324 128.37C47.5124 165.5 28.6824 205.13 32.4124 214.13C34.9824 220.32 8.10231 216.3 8.10231 216.3C8.10231 216.3 20.4423 163.53 17.5223 126.81C14.5623 89.67 -6.55773 16.05 19.6923 0V0.00999451Z" fill="#F59673"/>
</svg>
