<svg width="215" height="243" viewBox="0 0 215 243" fill="none" xmlns="http://www.w3.org/2000/svg">
<path d="M120.346 56.9074C120.346 56.9074 85.1655 30.6507 61.1512 44.6113C31.0734 62.1147 67.3949 103.756 45.1817 115.826C22.9685 127.895 11.7464 137.328 9.5506 160.426C1.17563 204.019 80.0324 265.326 146.702 226.507C213.372 187.687 189.658 115.062 158.349 100.621C120.677 83.2374 120.376 56.9374 120.376 56.9374L120.346 56.9074Z" fill="#190F0D"/>
<path d="M168.155 114.29C169.528 106.064 165.478 98.5339 159.11 97.4709C152.742 96.4079 146.467 102.214 145.094 110.44C143.721 118.666 147.77 126.196 154.138 127.259C160.506 128.322 166.781 122.515 168.155 114.29Z" fill="#E98C7B"/>
<path d="M53.2719 105.517C52.9048 97.1857 57.8359 90.2013 64.2858 89.9171C70.7358 89.6329 76.2621 96.1565 76.6292 104.488C76.9963 112.819 72.0652 119.804 65.6153 120.088C59.1653 120.372 53.639 113.849 53.2719 105.517Z" fill="#E98C7B"/>
<path d="M130.074 170.571C128.387 167.493 128.783 150.255 128.783 150.255L110.916 150.001L93.058 150.579C93.058 150.579 93.7647 167.804 92.1327 170.92C90.5013 174.027 76.6015 179.043 76.6015 179.043C79.8088 195.839 100.02 206.154 112.592 205.525C127.876 204.77 145.403 192.641 147.547 178.796C147.547 178.796 131.76 173.659 130.063 170.58L130.074 170.571Z" fill="#E98C7B"/>
<path d="M128.874 161.622C128.771 159.191 128.742 156.705 128.745 154.671C126.312 155.645 120.354 157.568 110.992 157.65C99.4947 157.753 93.9232 154.97 93.1765 154.564C93.2128 156.439 93.2318 158.765 93.2009 161.087C95.9655 164.722 101.764 170.524 111.107 170.44C119.737 170.364 125.666 165.284 128.874 161.632L128.874 161.622Z" fill="#9C3D28"/>
<path d="M69.8092 73.3468C69.8092 73.3468 77.8201 40.7626 114.581 42.355C151.33 44.3073 156.166 77.5117 156.166 77.5117C156.166 77.5117 156.823 114.51 144.483 138.866C137.687 152.289 123.956 162.264 108.859 161.597C93.7688 160.811 81.0079 149.556 75.528 135.538C65.5919 110.109 69.8092 73.3468 69.8092 73.3468Z" fill="#E98C7B"/>
<path d="M136.129 119.775C135.93 120.659 136.127 121.918 136.667 122.727" stroke="#9C3D28" stroke-width="2" stroke-linecap="square"/>
<path d="M113.485 136.61C111.299 136.477 109.924 135.692 109.827 135.626L111.267 133.199L110.552 134.418L111.257 133.199C111.383 133.276 114.457 134.946 118.808 132.435L120.222 134.885C117.605 136.4 115.271 136.719 113.495 136.611L113.485 136.61Z" fill="#9C3D28"/>
<path d="M148.072 91.895L147.401 110.344C147.401 110.344 154.955 104.103 155.222 91.2811L148.072 91.895Z" fill="#190F0D"/>
<path d="M66.4098 114.337C66.5641 112.623 67.8746 97.485 65.369 92.8846L62.9965 94.1731C64.7905 97.4579 64.1293 109.66 63.7203 114.084L66.4105 114.327L66.4098 114.337Z" fill="#9C3D28"/>
<path d="M59.6448 102.197L66.1504 104.585L65.2165 107.129L58.711 104.741L59.6448 102.197Z" fill="#9C3D28"/>
<path d="M69.5585 109.395C69.5585 109.395 62.8328 104.498 61.9034 84.7061L68.9971 83.7197L69.5585 109.395Z" fill="#190F0D"/>
<path d="M89.8594 102.704C92.0788 102.92 94.0718 101.103 94.311 98.6456C94.5502 96.1883 92.9449 94.0212 90.7255 93.8052C88.5062 93.5892 86.5131 95.4061 86.274 97.8634C86.0348 100.321 87.6401 102.488 89.8594 102.704Z" fill="#340C00"/>
<path d="M131.782 102.704C134.002 102.92 135.995 101.103 136.234 98.6456C136.473 96.1883 134.868 94.0212 132.648 93.8052C130.429 93.5892 128.436 95.4061 128.197 97.8634C127.958 100.321 129.563 102.488 131.782 102.704Z" fill="#340C00"/>
<path d="M153.749 121.897C153.823 120.189 154.548 105.125 157.619 100.924L159.786 102.508C157.59 105.51 156.625 117.604 156.438 122.001L153.75 121.888L153.749 121.897Z" fill="#9C3D28"/>
<path d="M162.015 110.902L155.298 112.389L155.879 115.015L162.597 113.528L162.015 110.902Z" fill="#9C3D28"/>
<path d="M113.133 96.916C113.049 103.714 113.215 107.59 116.493 115.43L107.517 114.556" stroke="#9C3D28" stroke-width="2.5"/>
<path d="M112.461 130.69C105.888 131.38 101.08 130.336 100.727 130.263L101.099 127.63C101.25 127.664 116.634 130.966 129.948 121.383L131.218 123.673C124.783 128.31 117.998 130.108 112.47 130.689L112.461 130.69Z" fill="#9C3D28"/>
<path d="M81.5675 86.1533C81.7952 80.856 86.9263 78.2368 98.644 80.6097L81.5675 86.1533Z" fill="#340C00"/>
<path d="M138.099 87.3425C137.16 82.1242 131.723 80.2199 120.432 84.1494L138.099 87.3425Z" fill="#340C00"/>
<path d="M52.2963 52.9941C77.8392 42.2032 112.723 63.065 112.723 63.065C112.723 63.065 119.73 81.5308 157.403 98.914C165.358 102.577 175.984 115.637 180.967 123.593C180.967 123.593 169.95 91.8286 166.498 71.293C163.016 50.7273 144.765 53.9097 144.765 53.9097C144.765 53.9097 133.238 25.3961 91.1001 27.071C69.9075 27.1611 52.2963 52.9941 52.2963 52.9941Z" fill="#190F0D"/>
</svg>
