<svg width="215" height="243" viewBox="0 0 215 243" fill="none" xmlns="http://www.w3.org/2000/svg">
<path d="M118.346 56.7541C118.346 56.7541 83.1655 30.4974 59.1512 44.458C29.0734 61.9613 65.3949 103.603 43.1817 115.672C20.9685 127.741 9.74637 137.174 7.5506 160.273C-0.824373 203.866 78.0324 265.173 144.702 226.353C211.372 187.534 187.658 114.908 156.349 100.467C118.677 83.0841 118.376 56.7841 118.376 56.7841L118.346 56.7541Z" fill="#190F0D"/>
<path d="M166.155 114.136C167.528 105.911 163.478 98.3806 157.11 97.3176C150.742 96.2546 144.467 102.061 143.094 110.287C141.721 118.512 145.77 126.042 152.138 127.105C158.506 128.168 164.781 122.362 166.155 114.136Z" fill="#E98C7B"/>
<path d="M51.2719 105.364C50.9048 97.0324 55.8359 90.048 62.2858 89.7638C68.7358 89.4796 74.2621 96.0031 74.6292 104.335C74.9963 112.666 70.0652 119.65 63.6153 119.935C57.1653 120.219 51.639 113.695 51.2719 105.364Z" fill="#E98C7B"/>
<path d="M128.074 170.417C126.387 167.339 126.783 150.102 126.783 150.102L108.916 149.848L91.058 150.426C91.058 150.426 91.7647 167.65 90.1327 170.767C88.5013 173.874 74.6015 178.89 74.6015 178.89C77.8088 195.686 98.0204 206 110.592 205.372C125.876 204.617 143.403 192.488 145.547 178.642C145.547 178.642 129.76 173.505 128.063 170.427L128.074 170.417Z" fill="#E98C7B"/>
<path d="M126.874 161.468C126.771 159.038 126.742 156.551 126.745 154.518C124.312 155.492 118.354 157.414 108.992 157.497C97.4947 157.6 91.9232 154.817 91.1765 154.41C91.2128 156.286 91.2318 158.612 91.2009 160.934C93.9655 164.568 99.7643 170.371 109.107 170.287C117.737 170.21 123.666 165.131 126.874 161.478L126.874 161.468Z" fill="#9C3D28"/>
<path d="M67.8092 73.1935C67.8092 73.1935 75.8201 40.6093 112.581 42.2017C149.33 44.154 154.166 77.3584 154.166 77.3584C154.166 77.3584 154.823 114.356 142.483 138.713C135.687 152.135 121.956 162.111 106.859 161.444C91.7688 160.658 79.0079 149.403 73.528 135.385C63.5919 109.955 67.8092 73.1935 67.8092 73.1935Z" fill="#E98C7B"/>
<path d="M111.011 122.043C116.061 122.243 120.901 127.783 120.811 132.343C120.741 135.983 117.581 142.663 111.011 142.313C104.441 141.963 101.021 137.453 100.951 133.103C100.881 128.763 105.751 121.833 111.011 122.053V122.043Z" fill="#190F0D"/>
<path d="M115.871 138.853C112.191 137.083 108.161 138.363 104.721 140.193C106.321 141.363 108.421 142.163 111.011 142.303C113.931 142.463 116.181 141.223 117.781 139.483C117.131 139.353 116.491 139.143 115.871 138.853Z" fill="#A06275"/>
<path d="M116.311 124.153C114.741 122.933 112.891 122.123 111.021 122.043C108.961 121.963 106.971 122.963 105.311 124.483C108.981 124.443 112.651 124.333 116.321 124.153H116.311Z" fill="white"/>
<path d="M146.072 91.7417L145.401 110.19C145.401 110.19 152.955 103.949 153.222 91.1278L146.072 91.7417Z" fill="#190F0D"/>
<path d="M64.4098 114.184C64.5641 112.47 65.8746 97.3317 63.369 92.7312L60.9965 94.0197C62.7905 97.3046 62.1293 109.507 61.7203 113.93L64.4105 114.174L64.4098 114.184Z" fill="#9C3D28"/>
<path d="M57.6448 102.044L64.1504 104.432L63.2165 106.976L56.711 104.588L57.6448 102.044Z" fill="#9C3D28"/>
<path d="M67.5585 109.241C67.5585 109.241 60.8328 104.344 59.9034 84.5528L66.9971 83.5664L67.5585 109.241Z" fill="#190F0D"/>
<path d="M87.5281 104.512C89.8158 104.512 91.6704 102.318 91.6704 99.612C91.6704 96.9057 89.8158 94.7119 87.5281 94.7119C85.2403 94.7119 83.3857 96.9057 83.3857 99.612C83.3857 102.318 85.2403 104.512 87.5281 104.512Z" fill="#340C00"/>
<path d="M129.914 104.783C132.202 104.783 134.056 102.589 134.056 99.8825C134.056 97.1762 132.202 94.9824 129.914 94.9824C127.626 94.9824 125.771 97.1762 125.771 99.8825C125.771 102.589 127.626 104.783 129.914 104.783Z" fill="#340C00"/>
<path d="M151.748 121.745C151.822 120.036 152.547 104.973 155.618 100.771L157.785 102.356C155.589 105.358 154.624 117.452 154.437 121.848L151.749 121.735L151.748 121.745Z" fill="#9C3D28"/>
<path d="M160.014 110.748L153.297 112.235L153.878 114.862L160.596 113.375L160.014 110.748Z" fill="#9C3D28"/>
<path d="M111.132 96.7627C111.048 103.561 111.214 107.437 114.492 115.276L105.516 114.403" stroke="#9C3D28" stroke-width="2.5"/>
<path d="M81.2235 80.23C82.7258 75.145 88.3381 73.8446 99.1339 78.9813L81.2235 80.23Z" fill="#340C00"/>
<path d="M139.155 80.2138C137.494 75.1787 131.843 74.0558 121.214 79.53L139.155 80.2138Z" fill="#340C00"/>
<path d="M50.2963 52.8407C75.8392 42.0499 110.723 62.9117 110.723 62.9117C110.723 62.9117 117.73 81.3774 155.403 98.7607C163.358 102.423 173.984 115.483 178.967 123.439C178.967 123.439 167.95 91.6753 164.498 71.1396C161.016 50.574 142.765 53.7564 142.765 53.7564C142.765 53.7564 131.238 25.2428 89.1001 26.9177C67.9075 27.0077 50.2963 52.8407 50.2963 52.8407Z" fill="#190F0D"/>
<path d="M118.814 56.7541C118.814 56.7541 83.6333 30.4974 59.619 44.458C29.5411 61.9613 65.8627 103.603 43.6495 115.672C21.4363 127.741 10.2141 137.174 8.01837 160.273C-0.3566 203.866 78.5002 265.173 145.17 226.353C211.839 187.534 188.125 114.908 156.817 100.467C119.144 83.0841 118.844 56.7841 118.844 56.7841L118.814 56.7541Z" fill="#190F0D"/>
<path d="M166.622 114.136C167.995 105.911 163.946 98.3806 157.578 97.3176C151.21 96.2546 144.935 102.061 143.561 110.287C142.188 118.512 146.238 126.042 152.606 127.105C158.974 128.168 165.249 122.362 166.622 114.136Z" fill="#E98C7B"/>
<path d="M51.7397 105.364C51.3725 97.0324 56.3037 90.048 62.7536 89.7638C69.2036 89.4796 74.7299 96.0031 75.097 104.335C75.4641 112.666 70.533 119.65 64.083 119.935C57.6331 120.219 52.1068 113.695 51.7397 105.364Z" fill="#E98C7B"/>
<path d="M128.542 170.417C126.855 167.339 127.251 150.102 127.251 150.102L109.384 149.848L91.5258 150.426C91.5258 150.426 92.2325 167.65 90.6004 170.767C88.969 173.874 75.0693 178.89 75.0693 178.89C78.2766 195.686 98.4882 206 111.059 205.372C126.343 204.617 143.871 192.488 146.015 178.642C146.015 178.642 130.227 173.505 128.531 170.427L128.542 170.417Z" fill="#E98C7B"/>
<path d="M127.342 161.468C127.239 159.038 127.21 156.551 127.213 154.518C124.78 155.492 118.822 157.414 109.46 157.497C97.9624 157.6 92.391 154.817 91.6442 154.41C91.6805 156.286 91.6995 158.612 91.6686 160.934C94.4333 164.568 100.232 170.371 109.574 170.287C118.205 170.21 124.134 165.131 127.341 161.478L127.342 161.468Z" fill="#9C3D28"/>
<path d="M68.277 73.1935C68.277 73.1935 76.2878 40.6093 113.049 42.2017C149.798 44.154 154.633 77.3584 154.633 77.3584C154.633 77.3584 155.291 114.356 142.951 138.713C136.154 152.135 122.424 162.111 107.327 161.444C92.2366 160.658 79.4757 149.403 73.9958 135.385C64.0597 109.955 68.277 73.1935 68.277 73.1935Z" fill="#E98C7B"/>
<path d="M109.804 135.3C107.618 135.168 106.243 134.383 106.147 134.317L107.587 131.89L106.871 133.109L107.577 131.889C107.702 131.967 110.777 133.636 115.127 131.126L116.541 133.576C113.924 135.09 111.591 135.409 109.814 135.301L109.804 135.3Z" fill="#9C3D28"/>
<path d="M146.54 91.7417L145.869 110.19C145.869 110.19 153.422 103.949 153.689 91.1278L146.54 91.7417Z" fill="#190F0D"/>
<path d="M64.8776 114.184C65.0318 112.47 66.3423 97.3317 63.8367 92.7312L61.4642 94.0197C63.2583 97.3046 62.5971 109.507 62.188 113.93L64.8782 114.174L64.8776 114.184Z" fill="#9C3D28"/>
<path d="M58.1126 102.044L64.6182 104.432L63.6843 106.976L57.1788 104.588L58.1126 102.044Z" fill="#9C3D28"/>
<path d="M68.0827 109.646C68.0827 109.646 61.3441 104.658 60.3712 84.5528L67.4648 83.5664L68.0827 109.646Z" fill="#190F0D"/>
<path d="M89.2634 102.044C92.4864 102.044 95.0991 99.7891 95.0991 96.9401C95.0991 94.091 92.4864 96.9401 89.2634 96.9401C86.0405 96.9401 83.4277 94.091 83.4277 96.9401C83.4277 99.7891 86.0405 102.044 89.2634 102.044Z" fill="#340C00"/>
<path d="M130.262 102.044C133.485 102.044 136.098 99.7891 136.098 96.9401C136.098 94.091 133.485 96.9401 130.262 96.9401C127.039 96.9401 124.427 94.091 124.427 96.9401C124.427 99.7891 127.039 102.044 130.262 102.044Z" fill="#340C00"/>
<path d="M152.217 121.744C152.291 120.035 153.016 104.972 156.086 100.77L158.254 102.355C156.058 105.357 155.093 117.451 154.906 121.847L152.218 121.734L152.217 121.744Z" fill="#9C3D28"/>
<path d="M160.483 110.748L153.766 112.235L154.347 114.862L161.064 113.375L160.483 110.748Z" fill="#9C3D28"/>
<path d="M111.601 96.7627C111.517 103.561 111.682 107.437 114.961 115.276L105.985 114.403" stroke="#9C3D28" stroke-width="2.5"/>
<path d="M105.905 128.685C98.2388 128.219 92.9122 126.353 92.5196 126.219L93.4247 123.689C93.5913 123.749 110.643 129.684 127.656 122.563L128.698 125.04C120.473 128.488 112.363 129.077 105.915 128.685L105.905 128.685Z" fill="#9C3D28"/>
<path d="M79.2149 83.0966C81.1388 78.1557 86.8405 77.3311 97.1669 83.356L79.2149 83.0966Z" fill="#340C00"/>
<path d="M138.911 87.3738C137.972 82.1554 132.535 80.2511 121.243 84.1807L138.911 87.3738Z" fill="#340C00"/>
<path d="M50.7641 52.8407C76.307 42.0499 111.19 62.9117 111.19 62.9117C111.19 62.9117 118.198 81.3774 155.871 98.7607C163.825 102.423 174.452 115.483 179.435 123.439C179.435 123.439 168.418 91.6753 164.966 71.1396C161.484 50.574 143.233 53.7564 143.233 53.7564C143.233 53.7564 131.706 25.2428 89.5679 26.9177C68.3753 27.0077 50.7641 52.8407 50.7641 52.8407Z" fill="#190F0D"/>
</svg>
