<svg width="215" height="243" viewBox="0 0 215 243" fill="none" xmlns="http://www.w3.org/2000/svg">
<path d="M118.346 56.7541C118.346 56.7541 83.1655 30.4974 59.1512 44.458C29.0734 61.9613 65.3949 103.603 43.1817 115.672C20.9685 127.741 9.74637 137.174 7.5506 160.273C-0.824373 203.866 78.0324 265.173 144.702 226.353C211.372 187.534 187.658 114.908 156.349 100.467C118.677 83.0841 118.376 56.7841 118.376 56.7841L118.346 56.7541Z" fill="#190F0D"/>
<path d="M166.155 114.136C167.528 105.911 163.478 98.3806 157.11 97.3176C150.742 96.2546 144.467 102.061 143.094 110.287C141.721 118.512 145.77 126.042 152.138 127.105C158.506 128.168 164.781 122.362 166.155 114.136Z" fill="#E98C7B"/>
<path d="M51.2719 105.364C50.9048 97.0324 55.8359 90.048 62.2858 89.7638C68.7358 89.4796 74.2621 96.0031 74.6292 104.335C74.9963 112.666 70.0652 119.65 63.6153 119.935C57.1653 120.219 51.639 113.695 51.2719 105.364Z" fill="#E98C7B"/>
<path d="M128.074 170.417C126.387 167.339 126.783 150.102 126.783 150.102L108.916 149.848L91.058 150.426C91.058 150.426 91.7647 167.65 90.1327 170.767C88.5013 173.874 74.6015 178.89 74.6015 178.89C77.8088 195.686 98.0204 206 110.592 205.372C125.876 204.617 143.403 192.488 145.547 178.642C145.547 178.642 129.76 173.505 128.063 170.427L128.074 170.417Z" fill="#E98C7B"/>
<path d="M126.874 161.468C126.771 159.038 126.742 156.551 126.745 154.518C124.312 155.492 118.354 157.414 108.992 157.497C97.4947 157.6 91.9232 154.817 91.1765 154.41C91.2128 156.286 91.2318 158.612 91.2009 160.934C93.9655 164.568 99.7643 170.371 109.107 170.287C117.737 170.21 123.666 165.131 126.874 161.478L126.874 161.468Z" fill="#9C3D28"/>
<path d="M67.8092 73.1935C67.8092 73.1935 75.8201 40.6093 112.581 42.2017C149.33 44.154 154.166 77.3584 154.166 77.3584C154.166 77.3584 154.823 114.356 142.483 138.713C135.687 152.135 121.956 162.111 106.859 161.444C91.7688 160.658 79.0079 149.403 73.528 135.385C63.5919 109.955 67.8092 73.1935 67.8092 73.1935Z" fill="#E98C7B"/>
<path d="M111.011 122.043C116.061 122.243 120.901 127.783 120.811 132.343C120.741 135.983 117.581 142.663 111.011 142.313C104.441 141.963 101.021 137.453 100.951 133.103C100.881 128.763 105.751 121.833 111.011 122.053V122.043Z" fill="#190F0D"/>
<path d="M115.871 138.853C112.191 137.083 108.161 138.363 104.721 140.193C106.321 141.363 108.421 142.163 111.011 142.303C113.931 142.463 116.181 141.223 117.781 139.483C117.131 139.353 116.491 139.143 115.871 138.853Z" fill="#A06275"/>
<path d="M116.311 124.153C114.741 122.933 112.891 122.123 111.021 122.043C108.961 121.963 106.971 122.963 105.311 124.483C108.981 124.443 112.651 124.333 116.321 124.153H116.311Z" fill="white"/>
<path d="M146.072 91.7417L145.401 110.19C145.401 110.19 152.955 103.949 153.222 91.1278L146.072 91.7417Z" fill="#190F0D"/>
<path d="M64.4098 114.184C64.5641 112.47 65.8746 97.3317 63.369 92.7312L60.9965 94.0197C62.7905 97.3046 62.1293 109.507 61.7203 113.93L64.4105 114.174L64.4098 114.184Z" fill="#9C3D28"/>
<path d="M57.6448 102.044L64.1504 104.432L63.2165 106.976L56.711 104.588L57.6448 102.044Z" fill="#9C3D28"/>
<path d="M67.5585 109.241C67.5585 109.241 60.8328 104.344 59.9034 84.5528L66.9971 83.5664L67.5585 109.241Z" fill="#190F0D"/>
<path d="M87.5281 104.512C89.8158 104.512 91.6704 102.318 91.6704 99.612C91.6704 96.9057 89.8158 94.7119 87.5281 94.7119C85.2403 94.7119 83.3857 96.9057 83.3857 99.612C83.3857 102.318 85.2403 104.512 87.5281 104.512Z" fill="#340C00"/>
<path d="M129.914 104.783C132.202 104.783 134.056 102.589 134.056 99.8825C134.056 97.1762 132.202 94.9824 129.914 94.9824C127.626 94.9824 125.771 97.1762 125.771 99.8825C125.771 102.589 127.626 104.783 129.914 104.783Z" fill="#340C00"/>
<path d="M151.748 121.745C151.822 120.036 152.547 104.973 155.618 100.771L157.785 102.356C155.589 105.358 154.624 117.452 154.437 121.848L151.749 121.735L151.748 121.745Z" fill="#9C3D28"/>
<path d="M160.014 110.748L153.297 112.235L153.878 114.862L160.596 113.375L160.014 110.748Z" fill="#9C3D28"/>
<path d="M111.132 96.7627C111.048 103.561 111.214 107.437 114.492 115.276L105.516 114.403" stroke="#9C3D28" stroke-width="2.5"/>
<path d="M81.2235 80.23C82.7258 75.145 88.3381 73.8446 99.1339 78.9813L81.2235 80.23Z" fill="#340C00"/>
<path d="M139.155 80.2138C137.494 75.1787 131.843 74.0558 121.214 79.53L139.155 80.2138Z" fill="#340C00"/>
<path d="M50.2963 52.8407C75.8392 42.0499 110.723 62.9117 110.723 62.9117C110.723 62.9117 117.73 81.3774 155.403 98.7607C163.358 102.423 173.984 115.483 178.967 123.439C178.967 123.439 167.95 91.6753 164.498 71.1396C161.016 50.574 142.765 53.7564 142.765 53.7564C142.765 53.7564 131.238 25.2428 89.1001 26.9177C67.9075 27.0077 50.2963 52.8407 50.2963 52.8407Z" fill="#190F0D"/>
</svg>
