<svg width="215" height="243" viewBox="0 0 215 243" fill="none" xmlns="http://www.w3.org/2000/svg">
<path d="M120.283 56.9074C120.283 56.9074 85.102 30.6507 61.0878 44.6113C31.0099 62.1147 67.3314 103.756 45.1183 115.826C22.9051 127.895 11.6829 137.328 9.48712 160.426C1.11215 204.019 79.969 265.326 146.639 226.507C213.308 187.687 189.594 115.062 158.285 100.621C120.613 83.2374 120.313 56.9374 120.313 56.9374L120.283 56.9074Z" fill="#190F0D"/>
<path d="M168.091 114.29C169.464 106.064 165.415 98.5339 159.047 97.4709C152.679 96.4079 146.403 102.214 145.03 110.44C143.657 118.666 147.706 126.196 154.074 127.259C160.442 128.322 166.718 122.515 168.091 114.29Z" fill="#E98C7B"/>
<path d="M53.2084 105.517C52.8413 97.1857 57.7724 90.2013 64.2224 89.9171C70.6723 89.6329 76.1986 96.1565 76.5657 104.488C76.9329 112.819 72.0017 119.804 65.5518 120.088C59.1018 120.372 53.5755 113.849 53.2084 105.517Z" fill="#E98C7B"/>
<path d="M130.01 170.571C128.324 167.493 128.72 150.255 128.72 150.255L110.853 150.001L92.9945 150.579C92.9945 150.579 93.7012 167.804 92.0692 170.92C90.4378 174.027 76.538 179.043 76.538 179.043C79.7453 195.839 99.957 206.154 112.528 205.525C127.812 204.77 145.34 192.641 147.484 178.796C147.484 178.796 131.696 173.659 130 170.58L130.01 170.571Z" fill="#E98C7B"/>
<path d="M128.811 161.622C128.708 159.191 128.679 156.705 128.682 154.671C126.248 155.645 120.291 157.568 110.929 157.65C99.4312 157.753 93.8597 154.97 93.113 154.564C93.1493 156.439 93.1683 158.765 93.1374 161.087C95.9021 164.722 101.701 170.524 111.043 170.44C119.674 170.364 125.603 165.284 128.81 161.632L128.811 161.622Z" fill="#9C3D28"/>
<path d="M69.7457 73.3468C69.7457 73.3468 77.7566 40.7626 114.518 42.355C151.267 44.3073 156.102 77.5117 156.102 77.5117C156.102 77.5117 156.76 114.51 144.42 138.866C137.623 152.289 123.893 162.264 108.795 161.597C93.7054 160.811 80.9445 149.556 75.4645 135.538C65.5284 110.109 69.7457 73.3468 69.7457 73.3468Z" fill="#E98C7B"/>
<path d="M128.514 124.851C125.924 122.151 119.764 122.191 112.094 122.191C104.424 122.191 99.444 123.901 96.204 125.801C92.864 127.751 94.994 142.821 112.094 142.841C128.674 142.851 130.924 127.371 128.514 124.861V124.851Z" fill="#190F0D"/>
<path d="M112.094 122.191C106.924 122.191 102.774 123.041 99.6436 124.201C99.7236 125.591 99.9436 126.921 100.714 127.241C101.624 127.621 107.454 127.471 112.434 127.451C116.924 127.431 123.784 126.951 124.374 126.131C124.614 125.801 124.734 124.401 124.844 122.981C121.684 122.181 117.234 122.201 112.094 122.201V122.191Z" fill="white"/>
<path d="M102.204 140.582C104.724 141.942 107.964 142.832 112.094 142.832C116.234 142.832 119.484 141.872 121.984 140.382C121.194 138.952 118.694 137.582 111.694 138.062C105.624 138.482 103.104 139.542 102.204 140.582Z" fill="#A06275"/>
<path d="M148.008 91.895L147.338 110.344C147.338 110.344 154.891 104.103 155.158 91.2811L148.008 91.895Z" fill="#190F0D"/>
<path d="M66.3464 114.337C66.5006 112.623 67.8111 97.485 65.3055 92.8846L62.933 94.1731C64.7271 97.4579 64.0658 109.66 63.6568 114.084L66.347 114.327L66.3464 114.337Z" fill="#9C3D28"/>
<path d="M59.5814 102.197L66.0869 104.585L65.1531 107.129L58.6475 104.741L59.5814 102.197Z" fill="#9C3D28"/>
<path d="M69.4951 109.395C69.4951 109.395 62.7693 104.498 61.8399 84.7061L68.9336 83.7197L69.4951 109.395Z" fill="#190F0D"/>
<path d="M89.796 102.704C92.0153 102.92 94.0083 101.103 94.2475 98.6456C94.4867 96.1883 92.8814 94.0212 90.6621 93.8052C88.4427 93.5892 86.4497 95.4061 86.2105 97.8634C85.9713 100.321 87.5766 102.488 89.796 102.704Z" fill="#340C00"/>
<path d="M131.719 102.704C133.938 102.92 135.931 101.103 136.17 98.6456C136.41 96.1883 134.804 94.0212 132.585 93.8052C130.366 93.5892 128.373 95.4061 128.133 97.8634C127.894 100.321 129.499 102.488 131.719 102.704Z" fill="#340C00"/>
<path d="M153.686 121.897C153.76 120.189 154.485 105.125 157.555 100.924L159.723 102.508C157.527 105.51 156.562 117.604 156.375 122.001L153.686 121.888L153.686 121.897Z" fill="#9C3D28"/>
<path d="M161.952 110.902L155.234 112.389L155.816 115.015L162.533 113.528L161.952 110.902Z" fill="#9C3D28"/>
<path d="M113.07 96.916C112.985 103.714 113.151 107.59 116.429 115.43L107.454 114.556" stroke="#9C3D28" stroke-width="2.5"/>
<path d="M77.5442 88.0744C77.6153 82.7727 82.6668 80.003 94.4495 82.0285L77.5442 88.0744Z" fill="#340C00"/>
<path d="M142.544 88.0746C142.093 82.7916 136.856 80.3911 125.249 83.2562L142.544 88.0746Z" fill="#340C00"/>
<path d="M52.2328 52.9941C77.7758 42.2032 112.659 63.065 112.659 63.065C112.659 63.065 119.667 81.5308 157.339 98.914C165.294 102.577 175.92 115.637 180.903 123.593C180.903 123.593 169.887 91.8286 166.435 71.293C162.953 50.7273 144.702 53.9097 144.702 53.9097C144.702 53.9097 133.174 25.3961 91.0366 27.071C69.844 27.1611 52.2328 52.9941 52.2328 52.9941Z" fill="#190F0D"/>
</svg>
