<svg width="215" height="243" viewBox="0 0 215 243" fill="none" xmlns="http://www.w3.org/2000/svg">
<path d="M207.098 134.34C205.953 138.991 201.904 138.85 199.363 141.864C198.75 142.628 195.475 143.833 196.339 141.713C197.314 139.292 197.505 137.032 197.113 134.883C196.972 137.685 196.179 140.287 194.36 142.186C193.296 143.281 191.347 143.17 190.091 144.335C188.263 146.123 187.891 148.886 185.822 150.553C185.42 150.875 184.998 151.196 184.566 151.488C181.683 153.567 178.016 155.405 174.38 155.787C170.683 156.119 168.102 140.749 168.102 140.749C168.102 140.749 169.98 161.533 158.076 161.955C155.012 162.065 152.923 163.753 150.09 163.271C145.007 162.427 141.351 162.467 136.489 164.667C135.534 165.099 134.65 165.682 133.616 165.893C131.355 166.405 131.225 165.853 129.246 165.632C124.936 165.17 122.546 165.099 118.407 165.812C113.113 166.717 108.06 168.344 102.866 169.348C98.2254 170.253 93.916 166.576 90.3901 163.994C90.3298 163.944 90.2594 163.864 90.1992 163.783C88.5216 165.983 86.0404 167.48 83.1272 167.289C81.2688 167.199 80.5656 166.325 79.099 165.491C78.7374 165.3 78.657 164.677 78.3255 164.507C76.9191 163.753 74.4982 164.255 72.9412 164.366C72.1275 164.436 71.3339 163.834 71.2836 162.98C71.2334 162.447 71.2434 161.935 71.2635 161.443C69.4754 162.739 67.3156 163.733 65.0755 163.733C61.0372 163.753 60.2739 161.603 57.8831 159.012C54.8192 155.646 50.7708 157.404 46.7727 155.867C46.6622 155.847 46.5115 155.777 46.391 155.727C43.6687 154.551 42.3628 151.056 40.1327 150.353C37.7921 149.629 36.4058 151.598 34.0853 149.76C31.4534 147.721 31.9055 143.843 32.7594 141.071C34.447 135.546 36.8981 134.702 35.2808 127.459C34.7484 125.038 33.9146 123.009 33.774 120.487C33.7137 119.523 33.7739 118.639 33.8443 117.755C32.9804 119.855 32.5987 122.185 32.6288 125.028C32.6589 127.579 33.1914 129.98 32.6489 132.502C31.3631 138.7 25.5467 139.513 27.7768 147.52C28.0279 148.434 27.5458 149.107 26.6819 149.298C23.397 150.021 20.1523 149.348 18.2839 146.304C16.0538 142.728 18.0729 138.961 15.8629 135.264C13.7232 131.758 11.7342 129.498 13.1205 125.048C13.2511 124.556 13.4319 124.084 13.6429 123.632C12.2566 124.666 10.9306 125.751 9.87585 127.238C7.60558 130.453 7.2239 134.641 9.29326 138.067C9.92612 139.122 8.6604 140.458 7.6659 139.574C5.99836 138.107 4.84313 136.359 4.01941 134.501C-2.05809 127.971 -1.22433 116.389 6.39011 111.316C7.94716 110.291 9.69499 110.111 11.3324 109.367C17.2793 106.615 15.5716 104.354 14.6776 98.8897C13.7836 93.3949 14.1854 88.3923 17.0684 83.5504C20.2026 78.3167 25.3458 76.0665 29.153 71.6264C33.4424 66.6037 30.3786 59.0394 32.9603 53.0624C34.8488 48.7429 38.3044 45.7895 42.6039 44.0316C47.5161 42.0526 51.474 40.6161 54.1963 35.8245C54.2265 31.7862 54.9297 27.5671 57.3808 24.8749C61.4693 20.4449 67.6673 21.0175 73.0818 20.8367C81.9821 20.5454 85.9198 11.6049 95.021 11.0323C101.269 10.6707 106.543 13.3729 110.822 17.6221C116.85 13.835 124.625 11.5447 131.607 13.9254C134.6 14.93 137.152 16.7482 138.98 19.3399C140.306 21.1481 140.557 22.6047 141.973 23.8202C143.661 24.2923 145.449 24.895 147.227 25.7087C148.171 25.7891 149.116 25.8494 149.869 26.0402C159.724 28.5014 166.786 37.6728 169.136 47.668C171.467 49.5063 173.325 49.6771 176.148 50.7018C179.684 52.0278 182.919 54.2679 184.305 57.8943C185.078 59.8431 184.968 61.7618 184.988 63.8312C185.008 69.1452 187.519 70.1096 191.588 72.3899C194.26 73.9068 196.289 76.3176 197.052 79.3413C198.238 84.0124 195.305 86.4032 194.642 90.6725C194.531 91.3054 194.521 91.878 194.511 92.4205C195.576 95.9866 197.324 98.3673 199.785 102.034C201.392 104.395 202.286 106.384 202.296 109.337C202.347 113.024 200.659 116.369 200.357 119.975C200.297 120.889 200.347 121.713 200.468 122.496C200.82 123.23 201.282 123.933 201.905 124.556C204.838 127.449 208.323 129.518 207.108 134.32L207.098 134.34Z" fill="#3E1A00"/>
<path d="M183.511 141.674C183.572 138.851 182.487 135.968 180.508 133.959C178.529 131.89 175.867 131.026 173.094 130.503C170.031 129.901 169.367 130.132 169.036 126.807C168.855 124.808 169.418 122.879 168.835 120.799C168.252 118.72 167.077 116.721 165.209 115.556C164.184 114.913 163.079 114.983 162.105 114.501C158.418 112.673 157.052 110.463 157.002 106.515C156.992 101.944 156.75 95.8767 150.874 95.3543C147.117 95.0128 144.676 97.8757 141.29 98.7497C136.539 100.005 132.32 96.6602 127.609 97.4237C125.399 97.7954 123.6 99.0108 121.571 99.8446C117.292 101.562 113.173 101.854 108.623 101.241C102.575 100.427 96.7893 98.2976 90.6716 97.9762C81.5303 97.494 73.1925 100.809 65.2868 104.908C59.7316 106.997 55.6231 111.206 54.498 117.364C53.835 121.03 54.4577 124.446 55.7034 127.861C58.3051 134.933 54.287 136.149 49.435 139.032C44.8744 141.714 43.9101 145.22 45.5776 150.122C46.5018 152.824 47.5264 153.728 46.7529 155.868C50.761 157.415 54.8094 155.647 57.8632 159.012C60.254 161.614 61.0175 163.754 65.0557 163.734C67.3059 163.734 69.4556 162.739 71.2436 161.443C71.2336 161.925 71.2236 162.438 71.2638 162.98C71.314 163.824 72.1076 164.437 72.9213 164.367C74.4783 164.256 76.8993 163.754 78.3056 164.507C78.6371 164.678 78.7175 165.291 79.0791 165.492C80.5458 166.325 81.249 167.199 83.1074 167.29C86.0205 167.481 88.5017 165.974 90.1793 163.784C90.2395 163.864 90.3099 163.945 90.3702 163.995C93.8961 166.577 98.2157 170.253 102.847 169.349C108.04 168.334 113.103 166.717 118.387 165.813C122.526 165.1 124.926 165.17 129.226 165.632C131.205 165.853 131.346 166.406 133.596 165.893C134.63 165.682 135.514 165.09 136.469 164.668C141.331 162.468 144.987 162.418 150.07 163.272C152.903 163.754 154.993 162.056 158.056 161.956C169.96 161.534 168.082 140.75 168.082 140.75C168.082 140.75 170.663 156.119 174.36 155.788C177.997 155.406 181.663 153.568 184.546 151.488C180.267 148.203 183.411 145.873 183.491 141.694L183.511 141.674Z" fill="#231000"/>
<path class="skin" d="M130.241 168.947C128.362 165.964 127.709 148.655 127.709 148.655L109.778 149.489L91.9075 151.157C91.9075 151.157 93.6654 168.384 92.2188 171.609C90.7723 174.824 77.1406 180.7 77.1406 180.7C81.3798 197.345 102.274 206.457 114.841 205.06C130.12 203.373 146.956 190.143 148.262 176.13C148.262 176.13 132.119 171.941 130.231 168.957L130.241 168.947Z" fill="#FFB784"/>
<path d="M128.484 160.047C128.232 157.616 128.052 155.125 127.931 153.086C125.55 154.211 119.694 156.501 110.311 157.154C98.7893 157.958 93.0333 155.507 92.2598 155.145C92.4104 157.024 92.5712 159.354 92.6817 161.685C95.6753 165.161 101.843 170.625 111.205 169.972C119.855 169.37 125.49 163.915 128.484 160.057V160.047Z" fill="#BA4E00"/>
<path class="skin" d="M63.8909 75.1328C63.8909 75.1328 69.9382 41.9728 106.895 41.3299C143.863 41.0486 150.734 74.0479 150.734 74.0479C150.734 74.0479 153.647 111.106 142.758 136.279C136.761 150.152 123.601 160.991 108.422 161.242C93.2437 161.373 79.7627 150.865 73.414 137.143C61.9019 112.251 63.8909 75.1328 63.8909 75.1328Z" fill="#FFB784"/>
<path class="skin" d="M164.987 110.184C165.863 101.852 161.344 94.5488 154.894 93.8708C148.444 93.1929 142.505 99.3973 141.63 107.729C140.754 116.06 145.273 123.364 151.723 124.042C158.173 124.72 164.111 118.515 164.987 110.184Z" fill="#FFB784"/>
<path d="M150.633 53.3333C146.213 48.2101 141.17 43.3883 134.821 40.7765C129.116 38.4259 120.828 36.1254 114.65 36.8688C114.419 35.1109 114.62 34.1666 115.223 32.047C115.484 31.1228 114.138 30.2188 113.404 30.8918C112.189 32.0069 111.365 33.3328 110.883 34.7492C110.903 34.3474 110.923 33.9356 110.933 33.584C110.933 32.8507 109.929 32.941 109.748 33.5337C109.537 34.2268 109.336 34.9501 109.135 35.6834C99.5518 32.6196 87.9896 33.152 79.471 38.3857C69.6767 44.4029 66.653 59.7825 65.7489 70.9028C64.6138 71.9173 63.7599 73.2032 63.1271 74.5995C61.7207 74.3182 60.6357 73.9365 59.1591 74.5794C58.6066 74.8205 58.3956 75.3529 58.5463 75.9154C58.9682 77.4926 60.2942 78.467 61.9718 78.9793C61.9517 79.1401 61.9116 79.2907 61.9016 79.4514C61.8212 80.5263 63.1471 80.9884 63.6996 80.024C63.8101 79.8231 63.9006 79.5921 64.0111 79.3811C66.9745 79.6825 70.3297 78.9793 72.0374 77.814C74.1469 76.3775 75.1112 73.8059 76.0153 71.4754C77.7733 71.2544 79.3705 70.9832 81.0682 70.069C85.7193 67.5476 86.4425 64.1422 87.1959 60.0537C87.2361 59.9633 87.2763 59.8729 87.3265 59.7825C88.7027 57.1305 90.9831 54.3981 93.9264 53.2128C97.4022 51.8164 101.079 52.9114 104.444 50.7316C106.152 49.6266 107.588 48.0193 108.663 46.1709C109.296 48.1599 110.521 49.9179 112.752 51.2137C114.278 52.1078 116.298 52.2886 117.764 53.2329C126.042 58.5569 121.21 58.5268 121.481 63.1678C121.592 65.0663 122.365 66.5029 123.832 67.7385C125.851 69.4362 128.503 69.0846 130.904 69.6772C133.023 70.1996 134.841 71.8269 135.957 73.6653C136.469 74.5091 137.001 75.5739 137.051 76.5684C137.112 77.7136 136.419 78.688 136.308 79.8231C136.177 81.2395 136.047 82.3948 136.388 83.8112C137.684 89.1353 142.747 90.6421 147.519 89.4567C149.97 88.8439 145.992 84.8057 145.47 84.0422C143.661 81.4204 142.637 78.4569 142.436 75.2826C142.295 73.0625 142.988 71.0535 142.024 68.8435C139.794 63.6801 133.515 64.6847 130.432 60.8774C128.111 58.0145 130 54.0867 128.674 50.6512C129.638 51.0932 130.582 51.5653 131.456 52.1178C134.821 54.2575 134.219 56.7488 136.157 59.451C137.313 61.0683 138.97 61.3596 140.407 62.5048C144.706 65.9504 143.159 69.4462 144.033 73.6854C144.485 75.8753 145.52 76.5584 147.027 78.0752C148.654 79.7227 149.92 81.3099 150.352 83.6203C150.904 86.6139 150.874 89.7179 151.979 92.5909C152.983 95.1927 154.551 97.6035 156.288 99.7733C157.032 100.698 162.868 107.669 164.526 105.76C167.811 101.963 158.458 76.4579 158.147 71.8671C157.624 64.2728 155.615 59.0692 150.653 53.3232L150.633 53.3333ZM68.2703 73.5949C67.6777 73.5547 67.2558 74.1374 67.3964 74.6095C67.1653 74.6698 66.8941 74.6798 66.643 74.72C66.7233 74.6296 66.7936 74.5292 66.874 74.4488C67.2256 74.4187 67.5169 74.1976 67.6274 73.7757C68.0091 73.4744 68.421 73.2534 68.8328 73.0424C68.6219 73.3639 68.4311 73.605 68.2703 73.5949Z" fill="#3E1A00"/>
<path d="M213.798 121.533C212.995 119.815 211.689 119.655 210.925 118.298C209.248 115.315 209.308 112.231 209.881 109.067C210.353 106.465 211.156 104.898 210.564 102.206C209.047 95.415 201.463 95.2441 199.504 89.0963C197.766 83.6617 197.474 79.4728 191.176 77.8555C190.131 77.5843 189.699 79.1514 190.614 79.6135C197.876 83.26 193.225 90.7136 197.314 95.5656C201.161 100.136 207.942 97.8359 205.973 107.218C205.26 110.624 202.718 113.065 203.753 116.812C204.416 119.243 205.209 118.921 206.596 120.689C210.734 125.973 209.218 127.239 207.46 131.599C206.927 132.915 208.434 134.441 209.69 133.467C213.186 130.755 215.878 125.973 213.808 121.533H213.798Z" fill="#3E1A00"/>
<path d="M59.2998 24.7338C56.5273 27.4963 54.4479 30.6807 51.9567 33.6743C48.5915 37.7125 45.186 38.5363 40.1131 38.7673C35.8136 38.9682 31.8959 40.2038 28.9828 43.5288C25.6778 47.316 25.6175 51.5753 25.6075 56.3167C25.5673 66.764 21.4688 70.7018 13.4425 76.0962C10.0371 78.3865 7.586 81.7316 6.79241 85.8402C5.65728 91.7168 9.42425 95.6948 10.1073 101.23C11.3831 111.526 -3.94624 117.524 3.69834 128.885C4.31111 129.799 5.93852 129.247 5.7577 128.122C4.52211 120.155 7.90741 116.429 11.8955 110.16C13.9648 106.916 15.0497 103.802 14.2963 99.9441C13.1411 93.9771 8.41976 89.8283 11.9256 83.4394C14.668 78.4368 21.2075 77.1308 24.7938 72.7711C27.6869 69.2552 29.3645 64.8453 29.706 60.3248C30.2987 52.4291 29.053 44.1919 39.3697 42.9261C43.7797 42.3837 47.4763 42.9964 51.1329 40.0129C55.3319 36.5874 58.5565 30.5702 60.8469 25.7283C61.319 24.7238 60.013 24.0206 59.2898 24.7338H59.2998Z" fill="#3E1A00"/>
<path d="M163.752 30.5105C163.953 30.5407 158.569 30.4904 158.84 30.5908C157.162 29.9781 156.258 29.7973 155.696 28.2503C154.48 24.9152 152.943 21.5199 150.02 19.34C143.762 14.699 135.263 15.0907 128.543 18.4258C127.468 18.9582 127.659 20.9271 129.055 20.6659C137.915 19.0285 148.403 17.9838 151.577 28.7124C152.33 31.2539 152.059 33.3534 154.731 34.6793C157.243 35.925 160.357 34.5488 162.969 34.8301C168.072 35.3826 172.502 38.7377 174.33 43.5495C176.922 50.3503 172.09 55.2524 172.351 61.6714C172.401 62.8568 173.898 63.1381 174.611 62.3746C184.888 51.4954 178.76 32.3991 163.742 30.5005L163.752 30.5105Z" fill="#3E1A00"/>
<path d="M111.215 21.3088C110.923 20.9271 110.371 20.9874 110.15 21.4093C109.306 23.0065 109.648 24.4129 109.547 26.211C109.376 29.2849 107.809 30.8118 106.343 33.3031C104.806 35.9249 105.579 39.2701 106.966 41.7714C107.387 42.5248 108.482 41.9622 108.442 41.2189C108.271 38.0445 107.669 36.1761 109.557 33.2026C110.291 32.0474 111.074 31.1333 111.536 29.8073C112.4 27.306 112.892 23.5088 111.195 21.3088H111.215Z" fill="#231000"/>
<path d="M75.252 55.0915C71.9471 60.4859 68.6422 67.8794 61.751 69.135C58.8278 69.6674 56.1858 69.346 53.5137 70.903C48.3704 73.9066 46.5422 79.9439 46.1605 85.5292C46.1102 86.2625 46.1605 88.794 46.05 89.1355C44.9852 92.8021 42.3633 95.0322 39.4601 96.75C37.3004 98.0258 35.2612 98.96 33.6338 100.989C30.5499 104.847 29.3243 110.191 31.5644 114.681C32.0968 115.746 33.7543 115.495 33.684 114.199C33.3927 109.136 33.9252 103.953 38.5461 100.848C40.7762 99.3517 43.639 99.0504 45.849 97.5134C50.2489 94.4495 48.9532 89.7282 49.4755 85.047C50.1787 78.6381 53.142 73.987 59.8223 72.5505C62.4943 71.9779 65.2067 72.3898 67.6678 70.9232C72.6001 67.9899 74.4082 60.5462 76.6383 55.7244C77.0602 54.8103 75.7543 54.2577 75.252 55.0714V55.0915Z" fill="#231000"/>
<path d="M37.762 92.3702C30.1073 95.0825 21.2071 100.628 24.944 110.01C27.5658 116.59 22.3824 118.77 20.6747 124.516C19.4592 128.624 19.9413 133.325 22.6636 136.651C23.0152 137.072 23.7586 136.861 23.7084 136.269C23.1459 130.382 22.081 125.882 25.9385 120.839C27.3348 119.011 28.9521 117.614 29.3137 115.234C29.7557 112.391 27.5759 110.683 27.1038 108.111C25.7075 100.507 32.6287 96.4085 38.2039 93.204C38.6861 92.9328 38.2542 92.1994 37.762 92.3702Z" fill="#231000"/>
<path d="M96.9194 16.307C92.6701 16.7591 89.6967 17.6029 86.4018 20.3855C85.3471 21.2695 84.5635 22.5051 83.4987 23.3489C77.9034 27.809 76.2257 25.1871 71.1528 25.0565C64.0004 24.8757 58.5157 33.2436 55.7632 38.9796C55.492 39.5522 56.2454 40.2854 56.7678 39.8133C59.8517 37.0508 62.1822 32.7715 65.5876 30.5012C70.771 27.0556 74.0458 29.6875 79.2494 28.9843C81.3187 28.7031 82.8155 27.8593 84.4127 26.5433C88.9131 22.8365 91.2135 19.0092 97.1202 17.181C97.6125 17.0303 97.4216 16.2467 96.9194 16.307Z" fill="#231000"/>
<path d="M124.072 40.4953C122.073 38.4661 119.662 35.3219 116.448 35.9547C115.614 36.1155 115.724 37.2305 116.568 37.2506C119.009 37.3109 121.4 41.2487 122.857 42.9062C123.711 43.8806 124.474 44.7746 124.966 46.0002C125.418 47.1152 125.519 48.2805 126.061 49.3553C126.483 50.1891 127.739 50.1992 127.95 49.1846C128.673 45.6586 126.373 42.8258 124.072 40.4852V40.4953Z" fill="#231000"/>
<path d="M179.263 106.273C175.305 102.637 169.388 102.898 170.001 95.7756C170.262 92.6916 170.644 89.909 169.78 86.8552C169.016 84.153 167.62 81.5814 165.289 79.9038C162.818 78.1257 160.006 78.196 157.856 75.5541C155.696 72.9021 155.596 68.9141 155.023 65.7297C153.556 57.5929 148.935 52.0679 141.542 48.3912C141.2 48.2205 140.748 48.6825 141.04 49.004C143.792 52.0679 147.168 54.6997 149.428 58.1554C152.07 62.1836 151.979 66.8347 153.054 71.325C153.717 74.0875 154.832 77.0609 157.082 78.9595C160.237 81.6316 163.974 81.4106 166.214 85.6297C169.197 91.2451 164.305 99.0504 168.775 103.922C171.347 106.735 175.606 106.012 178.248 109.146C181.895 113.486 180.759 118.348 179.594 123.36C179.343 124.445 180.83 124.747 181.332 123.913C184.868 117.986 184.868 111.426 179.273 106.283L179.263 106.273Z" fill="#231000"/>
<path d="M196.601 120.528C194.983 116.53 190.433 115.988 188.825 112.402C186.917 108.132 188.253 103.371 185.189 99.2521C182.929 96.2184 179.965 94.9627 176.289 95.1334C175.545 95.1636 175.485 96.3489 176.228 96.4494C187.6 97.9361 182.427 109.508 186.947 115.666C187.731 116.731 188.494 116.601 189.398 117.485C192.894 120.9 194.772 123.492 194.461 128.253C194.3 130.664 194.059 130.795 193.969 133.196C193.939 133.989 195.094 134.049 195.395 133.447C197.404 129.499 198.308 124.767 196.591 120.528H196.601Z" fill="#231000"/>
<path d="M151.014 118.709C150.984 116.991 150.793 101.842 153.616 97.4424L155.886 98.8989C153.867 102.043 153.636 114.228 153.716 118.648L151.014 118.699V118.709Z" fill="#BA4E00"/>
<path d="M158.606 107.309L151.961 109.209L152.704 111.807L159.349 109.907L158.606 107.309Z" fill="#BA4E00"/>
<path d="M103.459 129.647C95.7442 129.647 90.2895 128.1 89.8877 127.99L90.6411 125.398C90.8119 125.448 108.271 130.361 124.896 122.184L126.091 124.605C118.055 128.562 109.959 129.647 103.469 129.647H103.459Z" fill="#BA4E00"/>
<path d="M107.779 118.367C106.684 118.206 97.0606 116.669 96.2369 111.114C95.6542 107.156 99.5017 105.207 102.314 103.791C103.309 103.289 104.816 102.525 105.017 102.113C105.68 100.767 105.71 95.6641 105.519 92.4696L108.352 92.2988C108.432 93.7052 108.794 100.868 107.558 103.359C106.935 104.625 105.378 105.408 103.59 106.312C100.757 107.739 98.7684 108.894 99.0396 110.692C99.4816 113.645 105.941 115.233 108.171 115.554L107.769 118.367H107.779Z" fill="#BA4E00"/>
<path d="M107.548 136.479C105.348 136.479 103.922 135.776 103.821 135.716L105.117 133.194L104.474 134.46L105.107 133.194C105.238 133.265 108.422 134.751 112.631 131.969L114.198 134.339C111.667 136.017 109.346 136.479 107.558 136.479H107.548Z" fill="#BA4E00"/>
<path d="M81.2588 94.7701L83.3383 94.6094C83.3383 94.6094 83.6396 97.4723 85.0459 97.7134C86.4523 97.9545 86.9044 94.6094 86.9044 94.6094H89.3957C89.3957 94.6094 88.2002 101.701 84.6743 101.49C81.1383 101.269 81.2688 94.7801 81.2688 94.7801L81.2588 94.7701Z" fill="#4D3A37"/>
<path d="M124.645 94.7701L126.724 94.6094C126.724 94.6094 127.025 97.4723 128.432 97.7134C129.838 97.9545 130.29 94.6094 130.29 94.6094H132.781C132.781 94.6094 131.586 101.701 128.06 101.49C124.524 101.269 124.655 94.7801 124.655 94.7801L124.645 94.7701Z" fill="#4D3A37"/>
<path d="M92.3893 76.5989C86.9145 75.735 80.0936 77.734 76.6782 80.4965C76.1056 80.9686 74.9805 81.8426 75.3221 82.5257C75.5531 82.9777 76.3769 83.1184 77.07 83.1384C82.1128 83.2891 86.6433 81.0289 91.7564 81.9933C93.0724 82.2444 94.338 82.6864 95.7042 82.6663C98.9589 82.6262 99.1298 79.954 97.4221 78.628C96.0358 77.5431 94.2979 76.9003 92.3893 76.5989Z" fill="#3E1A00"/>
<path d="M139.201 83.5908C138.92 84.0429 138.086 84.1634 137.363 84.1735C136.81 84.1735 136.298 84.1735 135.765 84.1132C132.631 83.8721 129.738 82.8776 126.634 82.6466C125.459 82.5361 124.223 82.5562 122.947 82.7872C121.581 83.0082 120.265 83.4301 118.899 83.3899C115.685 83.2995 115.875 80.6073 117.764 79.3115C119.17 78.317 120.858 77.7243 122.666 77.4229C122.797 77.3827 122.917 77.3627 123.058 77.3426C126.644 76.8403 130.632 77.5736 133.827 78.8996C135.565 79.6129 137.061 80.527 138.136 81.5315C138.638 82.0137 139.643 82.9077 139.211 83.5808L139.201 83.5908Z" fill="#3E1A00"/>
</svg>
