<svg width="215" height="243" viewBox="0 0 215 243" fill="none" xmlns="http://www.w3.org/2000/svg">
<path d="M196.406 112.538C194.787 108.538 190.234 107.995 188.626 104.407C186.716 100.135 188.053 95.3705 184.987 91.2495C182.726 88.2141 179.761 86.9577 176.082 87.1285C175.338 87.1587 175.278 88.3447 176.022 88.4453C187.4 89.9328 182.223 101.512 186.746 107.673C187.53 108.739 188.294 108.608 189.199 109.492C192.697 112.91 194.576 115.503 194.265 120.267C194.104 122.68 193.863 122.81 193.772 125.213C193.742 126.007 194.898 126.067 195.199 125.464C197.21 121.514 198.114 116.78 196.395 112.538H196.406Z" fill="#231000"/>
<path d="M213.924 117.102C213.12 115.333 211.813 115.152 211.039 113.754C209.351 110.669 209.401 107.483 209.964 104.216C210.426 101.532 211.23 99.914 210.627 97.1399C209.089 90.1241 201.501 89.9332 199.521 83.5808C197.762 77.9722 197.46 73.6402 191.158 71.9516C190.113 71.6701 189.691 73.2884 190.605 73.7608C197.882 77.54 193.249 85.2191 197.35 90.2447C201.209 94.9789 207.994 92.6168 206.044 102.296C205.34 105.814 202.797 108.317 203.843 112.186C204.516 114.689 205.3 114.368 206.697 116.197C210.858 121.655 209.341 122.961 207.592 127.454C207.059 128.811 208.577 130.389 209.833 129.384C213.321 126.6 216.005 121.665 213.924 117.081V117.102Z" fill="#3E1A00"/>
<path d="M207.281 138.591C206.145 143.385 202.094 143.224 199.562 146.33C198.948 147.114 195.682 148.351 196.536 146.159C197.501 143.667 197.692 141.335 197.29 139.103C197.149 141.988 196.375 144.672 194.556 146.632C193.491 147.758 191.551 147.637 190.294 148.833C188.465 150.672 188.103 153.517 186.033 155.236C185.641 155.567 185.208 155.899 184.786 156.201C181.912 158.341 178.243 160.221 174.604 160.613C170.906 160.945 168.282 145.074 168.282 145.074C168.282 145.074 170.222 166.523 158.311 166.925C155.246 167.026 153.155 168.775 150.331 168.262C145.245 167.367 141.576 167.408 136.721 169.669C135.767 170.111 134.882 170.714 133.847 170.926C131.595 171.448 131.455 170.875 129.475 170.644C125.163 170.152 122.77 170.081 118.619 170.805C113.322 171.72 108.277 173.378 103.07 174.413C98.4365 175.328 94.1044 171.529 90.5664 168.855C90.5061 168.805 90.4357 168.724 90.3754 168.634C88.7069 170.895 86.2243 172.443 83.3095 172.232C81.45 172.132 80.7464 171.227 79.2689 170.363C78.907 170.162 78.8266 169.518 78.4949 169.348C77.0878 168.564 74.6554 169.076 73.1075 169.187C72.2934 169.257 71.4893 168.624 71.439 167.749C71.3888 167.197 71.3988 166.664 71.4089 166.171C69.6197 167.508 67.4688 168.523 65.2173 168.523C61.1768 168.533 60.4128 166.312 58.0106 163.628C54.9349 160.151 50.8944 161.95 46.8739 160.352C46.7533 160.332 46.6126 160.261 46.492 160.211C43.7681 158.995 42.4413 155.386 40.22 154.643C37.8781 153.889 36.491 155.919 34.1591 154.019C31.5257 151.909 31.9579 147.908 32.8123 145.044C34.4908 139.345 36.9433 138.48 35.2949 131.002C34.7522 128.499 33.9079 126.399 33.7671 123.806C33.7068 122.81 33.7671 121.896 33.8274 120.981C32.9731 123.142 32.5911 125.554 32.6313 128.479C32.6716 131.113 33.2043 133.595 32.6716 136.189C31.4051 142.581 25.5855 143.405 27.847 151.678C28.0983 152.622 27.6259 153.316 26.7615 153.507C23.4748 154.241 20.2182 153.537 18.3486 150.391C16.1072 146.692 18.1175 142.812 15.8962 138.993C13.7452 135.374 11.745 133.033 13.122 128.449C13.2426 127.937 13.4336 127.454 13.6447 126.992C12.2576 128.057 10.9409 129.173 9.8855 130.711C7.62399 134.028 7.2521 138.34 9.3327 141.878C9.97598 142.963 8.69949 144.34 7.71447 143.436C6.04598 141.918 4.88002 140.109 4.05583 138.189C-2.04525 131.434 -1.25116 119.474 6.35759 114.267C7.91552 113.222 9.65435 113.031 11.2927 112.267C17.2329 109.442 15.5142 107.1 14.6096 101.462C13.6949 95.7929 14.0869 90.6266 16.9616 85.6412C20.0875 80.2538 25.2237 77.942 29.023 73.3687C33.3048 68.2024 30.209 60.3826 32.7821 54.2212C34.6517 49.7685 38.1093 46.723 42.4112 44.9339C47.3162 42.9035 51.2864 41.4361 53.9901 36.4909C54.0102 32.3196 54.7038 27.9775 57.1462 25.2034C61.227 20.6402 67.4286 21.2533 72.8462 21.0824C81.7515 20.801 85.6715 11.5941 94.7779 11.0312C101.03 10.6694 106.317 13.4837 110.608 17.8761C116.629 13.9863 124.409 11.6443 131.404 14.1169C134.4 15.1623 136.963 17.0519 138.792 19.7255C140.129 21.6051 140.38 23.1027 141.797 24.349C143.496 24.8416 145.285 25.4748 147.064 26.309C148.009 26.3995 148.954 26.4598 149.708 26.6608C159.578 29.2339 166.664 38.7122 169.046 49.0348C171.378 50.9344 173.247 51.1154 176.072 52.1808C179.61 53.5679 182.866 55.8796 184.254 59.6287C185.038 61.639 184.927 63.619 184.947 65.7599C184.987 71.2479 187.5 72.253 191.581 74.605C194.254 76.183 196.295 78.6657 197.069 81.8016C198.275 86.6262 195.34 89.0888 194.687 93.4912C194.576 94.1445 194.576 94.7375 194.566 95.2903C195.642 98.9791 197.4 101.432 199.873 105.231C201.491 107.663 202.386 109.724 202.406 112.779C202.466 116.589 200.788 120.026 200.496 123.745C200.436 124.69 200.496 125.534 200.617 126.349C200.969 127.112 201.431 127.826 202.064 128.479C205.009 131.475 208.497 133.616 207.301 138.571L207.281 138.591Z" fill="#3E1A00"/>
<path d="M183.701 146.089C183.751 143.184 182.655 140.199 180.675 138.118C178.685 135.978 176.022 135.073 173.237 134.54C170.162 133.907 169.508 134.148 169.167 130.711C168.976 128.64 169.538 126.66 168.945 124.509C168.352 122.358 167.166 120.298 165.297 119.092C164.272 118.418 163.166 118.488 162.181 117.996C158.482 116.096 157.115 113.815 157.055 109.744C157.025 105.02 156.773 98.768 150.894 98.2152C147.134 97.8534 144.702 100.798 141.315 101.693C136.571 102.969 132.329 99.5118 127.625 100.286C125.414 100.658 123.615 101.914 121.594 102.768C117.313 104.537 113.192 104.819 108.638 104.176C102.587 103.311 96.788 101.11 90.6668 100.748C81.5202 100.225 73.1778 103.623 65.2775 107.824C59.7293 109.965 55.6284 114.297 54.5228 120.649C53.8694 124.439 54.5026 127.957 55.759 131.485C58.3824 138.792 54.3719 140.028 49.5172 142.993C44.964 145.757 44.0092 149.356 45.6877 154.431C46.6225 157.226 47.6478 158.16 46.8738 160.372C50.8842 161.98 54.9348 160.171 58.0105 163.648C60.4127 166.332 61.1867 168.553 65.2172 168.543C67.4687 168.543 69.6196 167.528 71.4087 166.191C71.3987 166.694 71.3887 167.217 71.4389 167.769C71.4892 168.644 72.2832 169.277 73.1074 169.207C74.6653 169.096 77.0876 168.584 78.4948 169.368C78.8265 169.538 78.9069 170.182 79.2688 170.383C80.7362 171.247 81.4499 172.152 83.3094 172.252C86.2242 172.453 88.7068 170.915 90.3753 168.654C90.4356 168.734 90.506 168.815 90.5663 168.875C94.1043 171.549 98.4364 175.358 103.07 174.433C108.266 173.408 113.322 171.75 118.619 170.825C122.76 170.101 125.163 170.172 129.474 170.664C131.455 170.895 131.595 171.468 133.847 170.946C134.882 170.735 135.766 170.131 136.721 169.689C141.576 167.428 145.245 167.398 150.331 168.282C153.165 168.785 155.256 167.046 158.311 166.945C170.222 166.543 168.282 145.094 168.282 145.094C168.282 145.094 170.915 160.965 174.604 160.633C178.243 160.241 181.911 158.362 184.786 156.221C180.494 152.823 183.64 150.431 183.701 146.109V146.089Z" fill="#231000"/>
<path class="skin" d="M129.998 169.026C128.118 166.041 127.465 148.723 127.465 148.723L109.523 149.557L91.6424 151.225C91.6424 151.225 93.4014 168.463 91.954 171.69C90.5067 174.906 76.8672 180.786 76.8672 180.786C81.1088 197.441 102.015 206.557 114.589 205.16C129.877 203.471 146.723 190.234 148.03 176.213C148.03 176.213 131.877 172.021 129.988 169.036L129.998 169.026Z" fill="#FFB784"/>
<path d="M128.249 160.121C127.998 157.688 127.817 155.196 127.697 153.155C125.315 154.281 119.455 156.573 110.067 157.226C98.5382 158.03 92.7788 155.578 92.0049 155.216C92.1557 157.095 92.3165 159.427 92.427 161.759C95.4223 165.237 101.594 170.705 110.961 170.051C119.615 169.448 125.254 163.99 128.249 160.131V160.121Z" fill="#BA4E00"/>
<path class="skin" d="M63.6195 75.158C63.6195 75.158 69.6703 41.979 106.649 41.3358C143.637 41.0543 150.512 74.0725 150.512 74.0725C150.512 74.0725 153.427 111.151 142.531 136.34C136.531 150.22 123.364 161.066 108.176 161.317C92.9891 161.447 79.5004 150.934 73.148 137.204C61.6294 112.297 63.6195 75.158 63.6195 75.158Z" fill="#FFB784"/>
<path class="skin" d="M164.769 110.231C165.645 101.895 161.124 94.5873 154.67 93.909C148.216 93.2307 142.274 99.4387 141.398 107.775C140.522 116.111 145.043 123.419 151.497 124.097C157.951 124.776 163.893 118.568 164.769 110.231Z" fill="#FFB784"/>
<path d="M150.401 53.3473C145.979 48.2212 140.933 43.3966 134.581 40.7833C128.872 38.4313 120.58 36.1296 114.398 36.8734C114.167 35.1144 114.368 34.1696 114.971 32.0488C115.232 31.1241 113.885 30.2195 113.152 30.8929C111.936 32.0086 111.111 33.3354 110.629 34.7526C110.649 34.3505 110.669 33.9384 110.679 33.5866C110.679 32.8529 109.674 32.9434 109.493 33.5364C109.282 34.2299 109.081 34.9536 108.88 35.6873C99.2911 32.6217 87.7222 33.1544 79.1988 38.3911C69.3989 44.4118 66.3735 59.8001 65.4689 70.9268C64.3331 71.942 63.4787 73.2285 62.8455 74.6256C61.4383 74.3442 60.3528 73.9623 58.8753 74.6055C58.3225 74.8468 58.1114 75.3795 58.2621 75.9423C58.6843 77.5204 60.0111 78.4953 61.6896 79.008C61.6695 79.1688 61.6293 79.3195 61.6193 79.4804C61.5389 80.5558 62.8656 81.0182 63.4184 80.0533C63.529 79.8523 63.6194 79.6211 63.73 79.41C66.6951 79.7115 70.0522 79.008 71.7609 77.842C73.8716 76.4047 74.8366 73.8316 75.7412 71.4997C77.5001 71.2786 79.0983 71.0072 80.7969 70.0926C85.4506 67.5697 86.1743 64.1624 86.9281 60.0715C86.9684 59.9811 87.0086 59.8906 87.0588 59.8001C88.4358 57.1466 90.7175 54.4127 93.6625 53.2267C97.1402 51.8295 100.819 52.9251 104.186 50.744C105.895 49.6384 107.332 48.0302 108.408 46.1808C109.041 48.1709 110.267 49.9299 112.498 51.2265C114.026 52.121 116.046 52.302 117.514 53.2468C125.796 58.5739 120.961 58.5437 121.233 63.1874C121.343 65.0871 122.117 66.5244 123.585 67.7607C125.605 69.4593 128.259 69.1075 130.661 69.7006C132.782 70.2232 134.601 71.8515 135.717 73.6909C136.229 74.5352 136.762 75.6006 136.812 76.5957C136.873 77.7415 136.179 78.7165 136.068 79.8523C135.938 81.2695 135.807 82.4254 136.149 83.8426C137.445 89.1697 142.511 90.6774 147.286 89.4913C149.738 88.8782 145.758 84.8377 145.235 84.0738C143.426 81.4504 142.401 78.4853 142.2 75.3091C142.059 73.0878 142.752 71.0776 141.788 68.8663C139.556 63.7 133.274 64.7051 130.188 60.8957C127.867 58.0311 129.756 54.1011 128.429 50.6636C129.394 51.1059 130.339 51.5783 131.214 52.1311C134.581 54.272 133.978 56.7647 135.918 59.4685C137.074 61.0867 138.732 61.3782 140.169 62.524C144.471 65.9716 142.923 69.4694 143.798 73.711C144.25 75.9021 145.285 76.5856 146.793 78.1034C148.421 79.7517 149.688 81.3398 150.12 83.6516C150.673 86.6469 150.643 89.7527 151.748 92.6273C152.753 95.2306 154.321 97.6429 156.06 99.8139C156.804 100.739 162.644 107.714 164.302 105.804C167.589 102.005 158.231 76.4851 157.92 71.8917C157.397 64.293 155.387 59.0865 150.421 53.3372L150.401 53.3473ZM67.9917 73.6205C67.3987 73.5803 66.9765 74.1633 67.1172 74.6357C66.8861 74.696 66.6147 74.7061 66.3634 74.7463C66.4438 74.6558 66.5142 74.5553 66.5946 74.4749C66.9464 74.4447 67.2379 74.2236 67.3485 73.8014C67.7304 73.4999 68.1424 73.2788 68.5545 73.0677C68.3435 73.3893 68.1525 73.6306 67.9917 73.6205Z" fill="#3E1A00"/>
<path d="M59.0155 24.7311C56.2414 27.4952 54.1608 30.6814 51.6681 33.6766C48.3009 37.7172 44.8936 38.5414 39.8177 38.7726C35.5158 38.9736 31.5959 40.2099 28.681 43.5369C25.3742 47.3262 25.3139 51.5879 25.3038 56.332C25.2636 66.7853 21.1628 70.7253 13.1319 76.1228C9.7245 78.4145 7.27201 81.7615 6.47797 85.8725C5.34218 91.7524 9.11137 95.7327 9.79485 101.271C11.0713 111.573 -4.26677 117.574 3.38219 128.942C3.99531 129.856 5.62359 129.304 5.44267 128.178C4.20637 120.207 7.59361 116.478 11.5839 110.206C13.6545 106.96 14.74 103.844 13.9862 99.9843C12.8303 94.0139 8.10625 89.8628 11.6141 83.4702C14.3581 78.4647 20.9014 77.1581 24.4897 72.7959C27.3844 69.278 29.063 64.8655 29.4047 60.3424C29.9977 52.4422 28.7514 44.2002 39.074 42.9338C43.4864 42.391 47.1852 43.0041 50.8439 40.0189C55.0453 36.5915 58.2717 30.5708 60.5634 25.7261C61.0358 24.721 59.7291 24.0174 59.0054 24.7311H59.0155Z" fill="#3E1A00"/>
<path d="M163.528 30.5101C163.729 30.5402 158.341 30.49 158.612 30.5905C156.934 29.9774 156.029 29.7965 155.466 28.2486C154.25 24.9116 152.712 21.5143 149.788 19.3332C143.526 14.6895 135.022 15.0815 128.298 18.4185C127.223 18.9512 127.414 20.9213 128.811 20.6599C137.676 19.0216 148.169 17.9763 151.345 28.7109C152.099 31.2539 151.828 33.3546 154.502 34.6813C157.014 35.9277 160.13 34.5507 162.744 34.8321C167.85 35.3849 172.282 38.742 174.111 43.5565C176.705 50.3612 171.87 55.2662 172.131 61.6889C172.182 62.8749 173.679 63.1564 174.393 62.3925C184.675 51.507 178.544 32.3997 163.517 30.5L163.528 30.5101Z" fill="#3E1A00"/>
<path d="M110.96 21.2933C110.669 20.9114 110.116 20.9717 109.895 21.3939C109.051 22.992 109.392 24.3992 109.292 26.1983C109.121 29.274 107.553 30.8018 106.085 33.2945C104.548 35.9178 105.322 39.2649 106.709 41.7676C107.131 42.5215 108.226 41.9586 108.186 41.2148C108.015 38.0386 107.412 36.1691 109.302 33.194C110.036 32.0381 110.82 31.1234 111.282 29.7967C112.146 27.2939 112.639 23.4946 110.94 21.2933H110.96Z" fill="#231000"/>
<path d="M74.9769 55.1054C71.6701 60.5029 68.3632 67.9006 61.4681 69.157C58.5432 69.6897 55.8998 69.3681 53.2261 70.926C48.0799 73.9313 46.2507 79.9721 45.8687 85.5605C45.8185 86.2943 45.8687 88.8272 45.7581 89.1689C44.6927 92.8376 42.0693 95.069 39.1645 96.7877C37.0035 98.0642 34.9632 98.999 33.3349 101.029C30.2491 104.889 29.0229 110.236 31.2643 114.729C31.797 115.795 33.4555 115.543 33.3851 114.247C33.0936 109.181 33.6264 103.994 38.2499 100.889C40.4813 99.391 43.3459 99.0894 45.5571 97.5516C49.9596 94.486 48.6629 89.7619 49.1856 85.0781C49.8892 78.6654 52.8543 74.0117 59.5383 72.5744C62.2119 72.0015 64.9257 72.4136 67.3883 70.9461C72.3234 68.0112 74.1326 60.5632 76.364 55.7387C76.7861 54.824 75.4795 54.2712 74.9769 55.0853V55.1054Z" fill="#231000"/>
<path d="M37.4654 92.4054C29.8064 95.1192 20.9011 100.667 24.6401 110.055C27.2635 116.639 22.0771 118.82 20.3684 124.569C19.1522 128.68 19.6347 133.384 22.3585 136.711C22.7103 137.133 23.4541 136.922 23.4038 136.329C22.841 130.439 21.7756 125.936 25.6352 120.89C27.0324 119.061 28.6506 117.664 29.0124 115.282C29.4547 112.437 27.2736 110.729 26.8011 108.156C25.404 100.547 32.3293 96.446 37.9077 93.2396C38.3902 92.9683 37.958 92.2345 37.4654 92.4054Z" fill="#231000"/>
<path d="M96.6676 16.2982C92.416 16.7505 89.4408 17.5948 86.144 20.379C85.0886 21.2635 84.3047 22.4998 83.2393 23.3441C77.6407 27.8068 75.9622 25.1835 70.8863 25.0528C63.7299 24.8719 58.2419 33.2445 55.4879 38.9838C55.2165 39.5567 55.9703 40.2904 56.493 39.818C59.5787 37.0539 61.9106 32.7721 65.318 30.5006C70.5044 27.053 73.781 29.6864 78.9876 28.9828C81.0581 28.7014 82.5558 27.8571 84.1539 26.5404C88.6568 22.8315 90.9586 19.002 96.8687 17.1727C97.3612 17.0219 97.1702 16.2379 96.6676 16.2982Z" fill="#231000"/>
<path d="M123.826 40.5018C121.826 38.4715 119.414 35.3255 116.197 35.9587C115.363 36.1195 115.473 37.2352 116.318 37.2553C118.76 37.3156 121.152 41.2557 122.61 42.9141C123.464 43.8891 124.228 44.7836 124.721 46.0099C125.173 47.1256 125.273 48.2915 125.816 49.367C126.238 50.2012 127.495 50.2113 127.706 49.1961C128.429 45.6681 126.128 42.8337 123.826 40.4918V40.5018Z" fill="#231000"/>
<path d="M179.057 106.317C175.097 102.678 169.177 102.94 169.79 95.8135C170.051 92.7277 170.433 89.9436 169.569 86.888C168.805 84.1842 167.408 81.6111 165.076 79.9326C162.603 78.1535 159.789 78.2239 157.638 75.5804C155.477 72.9269 155.376 68.9366 154.804 65.7504C153.336 57.6089 148.713 52.0807 141.315 48.402C140.973 48.2311 140.521 48.6935 140.812 49.0151C143.566 52.0807 146.944 54.7141 149.205 58.1718C151.849 62.2023 151.758 66.856 152.834 71.3489C153.497 74.1129 154.613 77.0881 156.864 78.9878C160.02 81.6614 163.759 81.4403 166.001 85.6618C168.986 91.2804 164.091 99.0901 168.564 103.965C171.137 106.779 175.398 106.056 178.042 109.192C181.69 113.534 180.555 118.398 179.389 123.414C179.137 124.5 180.625 124.801 181.128 123.967C184.666 118.037 184.666 111.473 179.067 106.327L179.057 106.317Z" fill="#231000"/>
<path d="M86.2839 94.9683C86.2839 98.1445 85.4497 100.728 84.4144 100.728C83.3792 100.728 82.5449 98.1445 82.5449 94.9683C82.5449 91.7921 83.3792 89.209 84.4144 89.209C85.4497 89.209 86.2839 91.7821 86.2839 94.9683Z" fill="#4D3A37"/>
<path d="M129.746 94.9683C129.746 98.1445 128.912 100.728 127.876 100.728C126.841 100.728 126.007 98.1445 126.007 94.9683C126.007 91.7921 126.841 89.209 127.876 89.209C128.912 89.209 129.746 91.7821 129.746 94.9683Z" fill="#4D3A37"/>
<path d="M152.392 115.102L157.94 113.514L157.196 110.921L152.562 112.248C152.864 108.197 153.427 104.287 154.452 102.689L152.181 101.231C149.356 105.624 149.547 120.791 149.577 122.51L152.281 122.46C152.251 120.801 152.261 118.057 152.402 115.112L152.392 115.102Z" fill="#BA4E00"/>
<path d="M102.89 127.664C95.1704 127.664 89.7126 126.116 89.3105 126.006L90.0644 123.413C90.2353 123.463 107.704 128.378 124.339 120.196L125.535 122.619C117.494 126.579 109.393 127.664 102.9 127.664H102.89Z" fill="#BA4E00"/>
<path d="M107.221 116.367C106.126 116.206 96.4966 114.668 95.6724 109.11C95.0895 105.15 98.9391 103.2 101.753 101.783C102.748 101.28 104.256 100.516 104.457 100.104C105.121 98.7573 105.151 93.6513 104.96 90.455L107.794 90.2842C107.875 91.6913 108.236 98.8578 107 101.351C106.377 102.617 104.819 103.401 103.03 104.306C100.195 105.733 98.2053 106.889 98.4767 108.688C98.919 111.643 105.382 113.231 107.613 113.553L107.211 116.367H107.221Z" fill="#BA4E00"/>
<path d="M106.98 134.5C104.779 134.5 103.351 133.797 103.251 133.736L104.548 131.214L103.904 132.48L104.538 131.214C104.668 131.284 107.854 132.771 112.066 129.987L113.634 132.359C111.101 134.038 108.779 134.5 106.99 134.5H106.98Z" fill="#BA4E00"/>
<path d="M88.3145 73.6295C82.7763 73.2878 76.1727 75.9212 73.0367 78.9969C72.504 79.5195 71.4687 80.5046 71.8808 81.1378C72.1522 81.57 72.9864 81.6303 73.68 81.58C78.7156 81.2483 83.0175 78.5747 88.204 79.0572C89.5408 79.1778 90.8474 79.4994 92.2043 79.3587C95.4508 79.017 95.3604 76.3333 93.5311 75.1674C92.0535 74.2226 90.2544 73.7401 88.3246 73.6195L88.3145 73.6295Z" fill="#3E1A00"/>
<path d="M139.094 84.0025C138.782 84.4347 137.938 84.485 137.214 84.4347C136.671 84.3945 136.149 84.3443 135.626 84.2438C132.52 83.7513 129.716 82.515 126.63 82.0426C125.464 81.8415 124.228 81.7611 122.941 81.8817C121.564 81.9823 120.207 82.3039 118.851 82.1531C115.644 81.8013 116.066 79.1378 118.046 77.9919C119.524 77.1175 121.253 76.6551 123.082 76.5044C123.223 76.4742 123.333 76.4642 123.474 76.4642C127.093 76.2631 131.012 77.3085 134.088 78.8965C135.767 79.7509 137.184 80.7761 138.179 81.8717C138.641 82.3944 139.566 83.3693 139.084 84.0025H139.094Z" fill="#3E1A00"/>
</svg>
