<svg width="215" height="243" viewBox="0 0 215 243" fill="none" xmlns="http://www.w3.org/2000/svg">
<path d="M37.3674 92.3575C29.712 95.0701 20.8107 100.616 24.548 109.999C27.1702 116.58 21.9862 118.76 20.2782 124.506C19.0626 128.616 19.5448 133.317 22.2674 136.643C22.6191 137.065 23.3626 136.854 23.3123 136.261C22.7497 130.374 21.6848 125.873 25.5426 120.829C26.9391 119.001 28.5566 117.605 28.9183 115.223C29.3603 112.38 27.1803 110.672 26.7081 108.1C25.3116 100.495 32.2336 96.3962 37.8094 93.1914C38.2917 92.9201 37.8597 92.1867 37.3674 92.3575Z" fill="#231000"/>
<path d="M207.235 139.998C206.109 144.841 202.061 144.68 199.529 147.815C198.916 148.608 195.651 149.854 196.505 147.644C197.469 145.122 197.66 142.771 197.258 140.521C197.128 143.434 196.344 146.147 194.536 148.116C193.471 149.251 191.532 149.131 190.276 150.336C188.458 152.195 188.086 155.068 186.026 156.796C185.634 157.128 185.202 157.459 184.781 157.771C181.907 159.931 178.24 161.83 174.603 162.221C170.906 162.553 168.264 146.519 168.264 146.519C168.264 146.519 170.223 168.189 158.318 168.581C155.254 168.681 153.174 170.44 150.341 169.927C145.257 169.023 141.59 169.053 136.738 171.334C135.784 171.776 134.899 172.389 133.865 172.6C131.614 173.132 131.473 172.549 129.484 172.308C125.174 171.806 122.783 171.725 118.634 172.459C113.35 173.383 108.296 175.051 103.102 176.086C98.4707 177.01 94.1405 173.162 90.5941 170.46C90.5338 170.409 90.4636 170.319 90.4033 170.239C88.7356 172.519 86.254 174.086 83.3405 173.875C81.4819 173.775 80.7786 172.861 79.3018 171.987C78.9401 171.786 78.8597 171.133 78.5282 170.962C77.1217 170.168 74.6904 170.691 73.1433 170.801C72.3295 170.872 71.5257 170.239 71.4755 169.355C71.4253 168.792 71.4354 168.259 71.4454 167.757C69.6672 169.103 67.5072 170.128 65.2668 170.128C61.2281 170.128 60.4544 167.898 58.0533 165.175C54.9791 161.659 50.9304 163.477 46.9218 161.85C46.8012 161.83 46.6606 161.759 46.54 161.709C43.8174 160.473 42.4912 156.826 40.2609 156.083C37.9201 155.319 36.5437 157.369 34.2028 155.44C31.5606 153.31 31.9926 149.261 32.8466 146.368C34.5143 140.611 36.9656 139.737 35.318 132.182C34.7754 129.651 33.9316 127.531 33.7809 124.909C33.7207 123.904 33.7809 122.98 33.8311 122.055C32.9771 124.235 32.5954 126.677 32.6356 129.63C32.6758 132.293 33.2182 134.794 32.6858 137.427C31.4199 143.887 25.6131 144.71 27.8736 153.069C28.1348 154.023 27.6525 154.717 26.7885 154.918C23.5032 155.661 20.2481 154.948 18.3694 151.763C16.1291 148.026 18.1284 144.108 15.9081 140.25C13.7581 136.593 11.7488 134.222 13.1252 129.59C13.2457 129.078 13.4366 128.586 13.6476 128.123C12.2712 129.198 10.9451 130.324 9.89021 131.871C7.62973 135.216 7.25797 139.577 9.34765 143.153C9.99063 144.248 8.71474 145.645 7.73017 144.72C6.0524 143.183 4.89702 141.355 4.06316 139.416C-2.04514 132.584 -1.25145 120.508 6.34375 115.254C7.90096 114.199 9.63905 114.008 11.2766 113.234C17.2141 110.381 15.4961 108.02 14.5819 102.324C13.6676 96.5974 14.0495 91.3732 16.9228 86.3399C20.0372 80.8946 25.181 78.5638 28.9686 73.9525C33.2484 68.7383 30.144 60.8317 32.7059 54.6128C34.5745 50.112 38.0206 47.0478 42.3205 45.2394C47.2232 43.2 51.1814 41.7131 53.884 36.7199C53.9041 32.5104 54.5872 28.1201 57.0285 25.3171C61.1074 20.7057 67.2961 21.3387 72.7213 21.1679C81.6225 20.8966 85.5307 11.5935 94.6328 11.0309C100.882 10.6692 106.176 13.5124 110.466 17.963C116.484 14.0449 124.25 11.6739 131.252 14.1855C134.246 15.2505 136.808 17.1493 138.647 19.8618C139.983 21.7606 140.234 23.2777 141.661 24.5435C143.359 25.0458 145.147 25.6788 146.925 26.5327C147.87 26.6232 148.814 26.6834 149.567 26.8844C159.443 29.4864 166.536 39.0809 168.927 49.5092C171.258 51.4281 173.126 51.619 175.95 52.694C179.486 54.0904 182.741 56.4413 184.138 60.2289C184.921 62.2583 184.811 64.2575 184.841 66.4175C184.891 71.9532 187.393 72.9779 191.482 75.369C194.154 76.9664 196.203 79.4781 196.967 82.6427C198.173 87.5153 195.249 90.0068 194.596 94.4474C194.486 95.1105 194.486 95.7032 194.475 96.2658C195.55 99.9931 197.309 102.475 199.79 106.312C201.408 108.774 202.302 110.863 202.332 113.938C202.392 117.786 200.714 121.262 200.433 125.019C200.373 125.973 200.433 126.827 200.554 127.651C200.905 128.415 201.367 129.148 202 129.801C204.944 132.825 208.44 135.005 207.245 139.998H207.235Z" fill="#3E1A00"/>
<path d="M183.676 147.554C183.726 144.61 182.631 141.596 180.642 139.496C178.652 137.336 175.99 136.422 173.207 135.87C170.133 135.227 169.47 135.468 169.128 132.002C168.937 129.912 169.5 127.903 168.907 125.733C168.315 123.563 167.129 121.473 165.26 120.247C164.236 119.574 163.13 119.634 162.146 119.132C158.449 117.213 157.072 114.902 157.012 110.793C156.982 106.021 156.721 99.702 150.843 99.1394C147.086 98.7677 144.655 101.741 141.269 102.646C136.527 103.932 132.288 100.435 127.576 101.219C125.366 101.601 123.577 102.857 121.548 103.721C117.278 105.499 113.149 105.78 108.598 105.127C102.55 104.253 96.7429 102.013 90.6245 101.651C81.4821 101.109 73.1435 104.534 65.257 108.774C59.7113 110.934 55.6122 115.304 54.5171 121.724C53.8641 125.552 54.4972 129.108 55.763 132.675C58.3952 140.059 54.3866 141.305 49.5341 144.299C44.983 147.082 44.0287 150.728 45.7165 155.852C46.6508 158.675 47.6755 159.62 46.912 161.85C50.9205 163.478 54.9692 161.659 58.0435 165.175C60.4547 167.898 61.2183 170.138 65.257 170.128C67.5074 170.128 69.6574 169.104 71.4356 167.757C71.4256 168.26 71.4154 168.792 71.4657 169.355C71.5159 170.239 72.3096 170.882 73.1334 170.801C74.6906 170.691 77.1118 170.179 78.5184 170.962C78.8499 171.143 78.9303 171.786 79.292 171.987C80.7688 172.861 81.4721 173.775 83.3307 173.876C86.2542 174.087 88.7257 172.529 90.3935 170.239C90.4537 170.319 90.524 170.41 90.5843 170.46C94.1307 173.162 98.4508 177.01 103.092 176.086C108.286 175.051 113.34 173.383 118.624 172.459C122.763 171.726 125.165 171.806 129.475 172.308C131.454 172.539 131.594 173.122 133.855 172.6C134.89 172.389 135.774 171.776 136.728 171.334C141.581 169.053 145.248 169.023 150.331 169.927C153.164 170.44 155.254 168.682 158.308 168.581C170.213 168.189 168.254 146.519 168.254 146.519C168.254 146.519 170.896 162.553 174.594 162.222C178.23 161.83 181.887 159.931 184.771 157.771C180.481 154.335 183.615 151.914 183.676 147.554Z" fill="#231000"/>
<path class="skin" d="M129.855 168.942C127.976 165.959 127.323 148.648 127.323 148.648L109.39 149.482L91.5175 151.15C91.5175 151.15 93.2756 168.38 91.8289 171.605C90.3822 174.82 76.749 180.697 76.749 180.697C80.9887 197.344 101.886 206.456 114.454 205.06C129.735 203.372 146.573 190.141 147.879 176.126C147.879 176.126 131.734 171.936 129.845 168.953L129.855 168.942Z" fill="#FFB784"/>
<path d="M128.108 160.041C127.857 157.61 127.676 155.119 127.555 153.079C125.174 154.204 119.317 156.495 109.934 157.148C98.4101 157.952 92.6535 155.5 91.8799 155.139C92.0306 157.017 92.1914 159.348 92.3019 161.679C95.2958 165.155 101.464 170.62 110.828 169.967C119.478 169.365 125.114 163.909 128.108 160.051V160.041Z" fill="#BA4E00"/>
<path class="skin" d="M63.5081 75.118C63.5081 75.118 69.5561 41.9543 106.517 41.3114C143.489 41.0301 150.361 74.033 150.361 74.033C150.361 74.033 153.274 111.095 142.384 136.271C136.386 150.146 123.225 160.986 108.044 161.237C92.8641 161.368 79.3817 150.859 73.0323 137.135C61.5189 112.24 63.5081 75.118 63.5081 75.118Z" fill="#FFB784"/>
<path class="skin" d="M164.607 110.169C165.483 101.836 160.963 94.532 154.513 93.854C148.062 93.176 142.123 99.3811 141.247 107.713C140.371 116.046 144.89 123.35 151.341 124.028C157.792 124.706 163.731 118.501 164.607 110.169Z" fill="#FFB784"/>
<path d="M150.251 53.3163C145.831 48.1926 140.788 43.3702 134.438 40.7581C128.732 38.4072 120.443 36.1066 114.265 36.85C114.034 35.0919 114.235 34.1475 114.837 32.0277C115.099 31.1034 113.752 30.1992 113.019 30.8723C111.803 31.9875 110.98 33.3136 110.497 34.7302C110.517 34.3283 110.537 33.9164 110.547 33.5648C110.547 32.8314 109.543 32.9218 109.362 33.5145C109.151 34.2078 108.95 34.9311 108.749 35.6645C99.1648 32.6003 87.6012 33.1328 79.0817 38.367C69.2863 44.3849 66.2623 59.7662 65.3581 70.8877C64.2228 71.9024 63.3689 73.1884 62.736 74.5848C61.3295 74.3035 60.2445 73.9218 58.7676 74.5647C58.2151 74.8059 58.004 75.3383 58.1547 75.9009C58.5766 77.4783 59.9028 78.4528 61.5806 78.9651C61.5605 79.1259 61.5204 79.2766 61.5103 79.4373C61.43 80.5123 62.756 80.9744 63.3086 80.01C63.4191 79.809 63.5096 79.578 63.6201 79.367C66.5838 79.6684 69.9393 78.9651 71.6473 77.7997C73.757 76.3631 74.7215 73.7912 75.6257 71.4604C77.3838 71.2393 78.9812 70.9681 80.6791 70.0539C85.3307 67.5322 86.054 64.1264 86.8075 60.0374C86.8477 59.947 86.8878 59.8566 86.9381 59.7662C88.3145 57.1139 90.5951 54.3812 93.5387 53.1957C97.0148 51.7993 100.692 52.8943 104.057 50.7142C105.765 49.6091 107.202 48.0017 108.277 46.1531C108.91 48.1423 110.136 49.9005 112.366 51.1965C113.893 52.0906 115.912 52.2715 117.379 53.2158C125.658 58.5405 120.825 58.5104 121.096 63.1519C121.207 65.0507 121.981 66.4873 123.447 67.7231C125.467 69.4209 128.119 69.0693 130.52 69.662C132.64 70.1845 134.458 71.812 135.573 73.6505C136.086 74.4944 136.618 75.5594 136.669 76.554C136.729 77.6993 136.036 78.6738 135.925 79.8091C135.794 81.2256 135.664 82.381 136.006 83.7975C137.302 89.1222 142.365 90.6292 147.137 89.4437C149.588 88.8308 145.61 84.7921 145.088 84.0286C143.279 81.4064 142.254 78.4427 142.053 75.268C141.913 73.0477 142.606 71.0384 141.642 68.8282C139.411 63.6642 133.132 64.6689 130.048 60.8613C127.727 57.998 129.616 54.0698 128.29 50.6339C129.254 51.0759 130.199 51.5481 131.073 52.1007C134.438 54.2406 133.835 56.7321 135.774 59.4346C136.93 61.0521 138.587 61.3435 140.024 62.4888C144.324 65.9348 142.777 69.431 143.651 73.6706C144.103 75.8608 145.138 76.5439 146.645 78.061C148.272 79.7086 149.538 81.2959 149.97 83.6066C150.523 86.6005 150.493 89.7049 151.598 92.5782C152.602 95.1803 154.17 97.5914 155.908 99.7615C156.651 100.686 162.488 107.658 164.146 105.749C167.431 101.952 158.078 76.4435 157.766 71.8522C157.244 64.257 155.235 59.0529 150.272 53.3063L150.251 53.3163ZM67.8798 73.5802C67.2871 73.54 66.8651 74.1227 67.0058 74.5949C66.7747 74.6552 66.5034 74.6652 66.2523 74.7054C66.3326 74.615 66.4029 74.5145 66.4833 74.4341C66.8349 74.404 67.1263 74.183 67.2368 73.761C67.6186 73.4596 68.0306 73.2386 68.4425 73.0276C68.2315 73.3491 68.0405 73.5902 67.8798 73.5802Z" fill="#3E1A00"/>
<path d="M213.896 126.677C213.092 124.888 211.786 124.707 211.012 123.291C209.325 120.176 209.365 116.952 209.927 113.656C210.389 110.954 211.193 109.316 210.58 106.513C209.043 99.4303 201.448 99.2193 199.459 92.7996C197.701 87.1333 197.389 82.7631 191.09 81.0451C190.035 80.7638 189.623 82.3914 190.537 82.8736C197.821 86.7013 193.19 94.4573 197.299 99.5308C201.157 104.313 207.938 101.942 205.999 111.717C205.296 115.274 202.764 117.795 203.809 121.714C204.482 124.245 205.266 123.924 206.662 125.772C210.821 131.298 209.304 132.614 207.566 137.145C207.044 138.521 208.551 140.109 209.807 139.094C213.293 136.281 215.965 131.298 213.886 126.667L213.896 126.677Z" fill="#3E1A00"/>
<path d="M58.9068 24.7143C56.134 27.4771 54.0544 30.6619 51.5628 33.6558C48.1972 37.6945 44.7914 38.5183 39.7179 38.7494C35.418 38.9503 31.4999 40.186 28.5864 43.5114C25.2811 47.299 25.2208 51.5587 25.2107 56.3007C25.1706 66.7491 21.0716 70.6874 13.0444 76.0824C9.63861 78.373 7.18726 81.7185 6.39358 85.8275C5.25832 91.7047 9.0257 95.6832 9.70887 101.219C10.9848 111.517 -4.34626 117.514 3.29916 128.877C3.912 129.791 5.53959 129.239 5.35876 128.113C4.12303 120.147 7.5087 116.419 11.4972 110.15C13.5668 106.905 14.6518 103.791 13.8983 99.9329C12.743 93.9652 8.02111 89.816 11.5274 83.4264C14.2701 78.4232 20.8103 77.1172 24.3969 72.757C27.2903 69.2407 28.9681 64.8302 29.3097 60.3093C29.9024 52.4127 28.6567 44.1745 38.9745 42.9087C43.3849 42.3661 47.0821 42.979 50.7391 39.9951C54.9385 36.5693 58.1634 30.5514 60.454 25.709C60.9262 24.7043 59.6202 24.001 58.8969 24.7143H58.9068Z" fill="#3E1A00"/>
<path d="M163.371 30.4906C163.572 30.5208 158.187 30.4706 158.459 30.571C156.781 29.9582 155.877 29.7773 155.314 28.2302C154.098 24.8947 152.561 21.499 149.638 19.3189C143.379 14.6774 134.879 15.0692 128.158 18.4046C127.083 18.9371 127.274 20.9062 128.67 20.645C137.532 19.0074 148.02 17.9626 151.195 28.6923C151.948 31.2341 151.677 33.3338 154.349 34.66C156.861 35.9057 159.976 34.5294 162.588 34.8107C167.691 35.3632 172.122 38.7188 173.95 43.5311C176.542 50.3326 171.71 55.2353 171.971 61.655C172.021 62.8405 173.518 63.1218 174.232 62.3583C184.509 51.4779 178.381 32.3794 163.361 30.4806L163.371 30.4906Z" fill="#3E1A00"/>
<path d="M110.828 21.2786C110.536 20.8968 109.984 20.9571 109.763 21.379C108.919 22.9764 109.26 24.383 109.16 26.1813C108.989 29.2555 107.422 30.7826 105.955 33.2742C104.418 35.8963 105.192 39.2418 106.578 41.7434C107 42.4969 108.095 41.9343 108.055 41.1908C107.884 38.0161 107.281 36.1475 109.17 33.1737C109.903 32.0183 110.687 31.1041 111.149 29.778C112.013 27.2764 112.505 23.4788 110.808 21.2786H110.828Z" fill="#231000"/>
<path d="M74.8605 55.0652C71.5552 60.4602 68.2499 67.8545 61.358 69.1103C58.4345 69.6427 55.7923 69.3213 53.1199 70.8785C47.976 73.8824 46.1475 79.9204 45.7657 85.5062C45.7155 86.2396 45.7657 88.7714 45.6552 89.113C44.5903 92.7799 41.9681 95.0103 39.0646 96.7282C36.9046 98.0041 34.8653 98.9385 33.2377 100.968C30.1534 104.826 28.9277 110.171 31.1681 114.661C31.7005 115.726 33.3582 115.475 33.2879 114.179C32.9965 109.116 33.5291 103.932 38.1505 100.827C40.3808 99.3303 43.2441 99.0289 45.4544 97.4918C49.8547 94.4276 48.5587 89.7057 49.0811 85.024C49.7844 78.6143 52.7481 73.9628 59.429 72.5261C62.1014 71.9534 64.814 72.3654 67.2754 70.8986C72.2083 67.965 74.0166 60.5205 76.2469 55.6981C76.6689 54.7839 75.3628 54.2313 74.8605 55.0451V55.0652Z" fill="#231000"/>
<path d="M96.5411 16.2855C92.2914 16.7376 89.3177 17.5815 86.0224 20.3644C84.9675 21.2485 84.1839 22.4842 83.1189 23.3282C77.523 27.7888 75.8452 25.1667 70.7717 25.0361C63.6186 24.8552 58.1332 33.224 55.3804 38.9606C55.1092 39.5332 55.8627 40.2666 56.3851 39.7945C59.4694 37.0317 61.8001 32.7518 65.2059 30.4813C70.3899 27.0353 73.6652 29.6675 78.8693 28.9643C80.9389 28.683 82.4357 27.8391 84.0331 26.523C88.5339 22.8158 90.8346 18.988 96.742 17.1596C97.2343 17.0089 97.0434 16.2252 96.5411 16.2855Z" fill="#231000"/>
<path d="M123.688 40.4772C121.688 38.4478 119.277 35.3033 116.062 35.9362C115.228 36.0969 115.339 37.2121 116.183 37.2322C118.624 37.2925 121.015 41.2307 122.472 42.8884C123.326 43.8629 124.089 44.7571 124.582 45.9827C125.034 47.0979 125.134 48.2633 125.677 49.3383C126.099 50.1722 127.354 50.1822 127.565 49.1675C128.289 45.6412 125.988 42.808 123.688 40.4672V40.4772Z" fill="#231000"/>
<path d="M178.894 106.252C174.936 102.615 169.018 102.876 169.631 95.7535C169.892 92.6692 170.274 89.8863 169.41 86.8321C168.646 84.1296 167.25 81.5577 164.919 79.8799C162.448 78.1017 159.635 78.172 157.485 75.5298C155.325 72.8775 155.224 68.889 154.652 65.7042C153.185 57.5665 148.563 52.0409 141.169 48.3639C140.827 48.1931 140.375 48.6552 140.667 48.9767C143.419 52.0409 146.795 54.6731 149.056 58.1291C151.698 62.1578 151.607 66.8094 152.682 71.3002C153.346 74.063 154.461 77.0367 156.711 78.9355C159.866 81.6079 163.603 81.3869 165.843 85.6065C168.827 91.2225 163.935 99.0287 168.405 103.901C170.977 106.714 175.237 105.991 177.879 109.125C181.526 113.466 180.391 118.328 179.225 123.341C178.974 124.426 180.461 124.728 180.964 123.894C184.5 117.966 184.5 111.406 178.904 106.262L178.894 106.252Z" fill="#231000"/>
<path d="M196.234 120.518C194.616 116.52 190.065 115.977 188.458 112.391C186.549 108.121 187.885 103.359 184.821 99.2398C182.56 96.2058 179.597 94.9499 175.92 95.1207C175.176 95.1509 175.116 96.3364 175.859 96.4368C187.232 97.9237 182.058 109.497 186.579 115.656C187.363 116.721 188.126 116.59 189.03 117.474C192.527 120.89 194.405 123.482 194.094 128.244C193.933 130.655 193.692 130.786 193.602 133.187C193.571 133.981 194.727 134.041 195.028 133.438C197.038 129.49 197.942 124.758 196.224 120.518H196.234Z" fill="#231000"/>
<path d="M84.5249 102.696C85.5569 102.696 86.3937 100.119 86.3937 96.9393C86.3937 93.76 85.5569 91.1826 84.5249 91.1826C83.4929 91.1826 82.6562 93.76 82.6562 96.9393C82.6562 100.119 83.4929 102.696 84.5249 102.696Z" fill="#4D3A37"/>
<path d="M129.835 96.9393C129.835 100.114 129.001 102.696 127.966 102.696C126.932 102.696 126.098 100.114 126.098 96.9393C126.098 93.7646 126.932 91.1826 127.966 91.1826C129.001 91.1826 129.835 93.7545 129.835 96.9393Z" fill="#4D3A37"/>
<path d="M150.591 118.671C150.561 116.953 150.37 101.803 153.193 97.4023L155.464 98.8591C153.444 102.004 153.213 114.19 153.294 118.611L150.591 118.661V118.671Z" fill="#BA4E00"/>
<path d="M158.227 107.204L151.581 109.104L152.324 111.703L158.97 109.802L158.227 107.204Z" fill="#BA4E00"/>
<path d="M107.31 118.329C106.215 118.168 96.5908 116.631 95.767 111.075C95.1742 107.117 99.0322 105.168 101.845 103.751C102.84 103.249 104.347 102.485 104.548 102.073C105.211 100.727 105.241 95.6234 105.05 92.4286L107.883 92.2578C107.963 93.6643 108.325 100.828 107.089 103.319C106.467 104.585 104.909 105.369 103.121 106.273C100.288 107.699 98.2988 108.855 98.57 110.653C99.0121 113.607 105.472 115.194 107.702 115.516L107.3 118.329H107.31Z" fill="#BA4E00"/>
<path d="M121.024 132.956C121.024 132.956 115.85 129.058 107.571 129.058H107.551C99.5741 129.058 93.7571 132.564 93.6968 132.594L92.21 130.173C92.4712 130.012 98.7302 126.215 107.551 126.215H107.571C116.874 126.215 122.53 130.525 122.772 130.706L121.034 132.946L121.024 132.956Z" fill="#BA4E00"/>
<path d="M104.568 135.95L104.287 133.127C104.498 133.107 109.431 132.625 112.847 133.127L112.425 135.93C109.361 135.468 104.619 135.93 104.568 135.93V135.95Z" fill="#BA4E00"/>
<path d="M90.0603 76.4543C84.5849 75.5401 77.7533 77.4691 74.3074 80.2118C73.7247 80.6739 72.5894 81.548 72.931 82.2211C73.1621 82.6732 73.9758 82.8239 74.6791 82.854C79.7225 83.0449 84.2736 80.8346 89.3772 81.8493C90.6933 82.1106 91.9591 82.5627 93.3254 82.5627C96.5805 82.5627 96.7714 79.8903 95.0836 78.534C93.7072 77.4389 91.9692 76.7758 90.0704 76.4543H90.0603Z" fill="#3E1A00"/>
<path d="M142.453 86.25C142.142 86.682 141.298 86.7323 140.575 86.682C140.032 86.6418 139.51 86.5916 138.987 86.4912C135.883 85.9989 133.08 84.7631 129.996 84.291C128.83 84.09 127.595 84.0097 126.309 84.1302C124.932 84.2307 123.576 84.5522 122.22 84.4015C119.015 84.0498 119.437 81.3875 121.416 80.2422C122.893 79.3681 124.621 78.906 126.449 78.7553C126.59 78.7252 126.7 78.7151 126.841 78.7151C130.458 78.5142 134.376 79.559 137.45 81.1464C139.128 82.0003 140.544 83.0251 141.539 84.1202C142.001 84.6426 142.926 85.6171 142.443 86.25H142.453Z" fill="#3E1A00"/>
</svg>
