<svg width="279" height="251" viewBox="0 0 279 251" fill="none" xmlns="http://www.w3.org/2000/svg">
<path d="M151.859 174.481L194.485 168.53L213.924 184.415C213.924 184.415 143.532 214.065 116.234 195.498C107.949 189.863 137.56 43.3089 180.377 34.3597C223.194 25.4104 151.873 174.481 151.873 174.481H151.859Z" class="skin" fill="#F3A396"/>
<path d="M151.914 174.265C151.754 174.219 151.845 173.464 152.125 172.16L140.734 175.039L140.645 177.349L152.934 174.2C152.434 174.284 152.074 174.312 151.914 174.265Z" fill="#D26665"/>
<path d="M204.636 117.792C204.636 117.792 276.866 118.025 277.776 118.714C278.666 119.385 276.986 195.101 275.946 195.474C274.906 195.846 214.056 194.635 213.046 194.188C212.036 193.741 202.456 120.167 202.696 119.562C202.936 118.956 204.636 117.792 204.636 117.792Z" fill="#736F77"/>
<path d="M203.326 118.834L277.946 120.584C277.966 121.254 277.986 122.084 277.996 123.064L202.826 121.304C202.726 120.274 202.676 119.694 202.696 119.634C202.776 119.414 203.036 119.124 203.326 118.834Z" fill="#A8A5AB"/>
<path d="M194.746 165.738C195.476 162.403 199.906 160.158 199.906 160.158C199.906 160.158 198.356 157.764 199.696 155.547C201.036 153.33 206.186 152.613 206.846 152.454C206.846 152.454 208.116 161.099 208.486 161.257C208.856 161.416 234.836 161.025 234.996 165.189C235.146 168.98 211.816 169.679 211.816 169.679C211.816 169.679 237.336 170.638 239.116 175.1C240.896 179.572 234.186 179.581 234.186 179.581C234.186 179.581 236.866 182.199 236.216 183.81C235.566 185.422 232.986 186.568 232.986 186.568C232.986 186.568 234.316 188.692 232.766 191.356C231.226 194.02 208.346 199.004 205.596 197.374C202.846 195.743 203.456 192.11 203.456 192.11C203.456 192.11 200.486 190.108 199.346 187.732C198.206 185.357 200.736 182.012 200.736 182.012C200.736 182.012 199.216 180.792 196.836 177.709C194.456 174.635 196.976 171.97 196.976 171.97C196.976 171.97 194.006 169.055 194.726 165.72L194.746 165.738Z" class="skin" fill="#F3A396"/>
<path d="M211.826 169.679C211.826 169.679 222.186 169.372 229.056 168.039C219.456 167.741 205.986 168.906 205.836 168.924L206.036 170.061L206.196 171.207C207.096 171.104 215.066 170.573 221.396 170.34C216.176 169.837 211.836 169.67 211.836 169.67L211.826 169.679Z" fill="#D26665"/>
<path d="M234.196 179.591C234.196 179.591 236.896 179.591 238.416 178.435C232.536 178.296 213.366 177.904 208.496 178.519L208.826 180.811C212.796 180.308 227.396 180.522 235.146 180.671C234.656 180.038 234.206 179.591 234.206 179.591H234.196Z" fill="#D26665"/>
<path d="M209.896 186.596L210.026 188.906C215.016 188.664 225.836 188.254 233.516 188.356C233.436 187.267 233.006 186.577 233.006 186.577C233.006 186.577 233.436 186.391 233.976 186.056C224.476 185.888 210.686 186.559 209.896 186.596Z" fill="#D26665"/>
<path d="M208.486 161.267C208.366 161.211 208.156 160.261 207.916 158.994C206.476 159.041 204.836 159.115 204.836 159.115L205.096 161.565L209.366 161.304C208.846 161.295 208.536 161.286 208.496 161.267H208.486Z" fill="#D26665"/>
<path d="M194.096 177.122C194.626 178.035 195.356 178.789 196.226 179.432C196.706 179.786 197.226 180.075 197.736 180.373C197.906 180.475 198.106 180.569 198.296 180.68C198.176 180.885 198.056 181.081 197.946 181.295C197.716 181.752 197.506 182.208 197.376 182.692C197.096 183.689 197.046 184.695 197.226 185.711C197.516 187.294 198.466 188.459 199.656 189.465C200.486 189.12 201.326 188.766 202.156 188.421C201.476 187.937 200.756 187.425 200.276 186.754C199.796 186.083 199.576 185.264 199.596 184.453C199.616 183.596 199.886 182.748 200.336 182.003C200.456 181.798 200.616 181.603 200.756 181.398L199.846 178.864C198.616 178.035 197.186 177.504 196.376 176.19C196.046 175.65 195.826 175.072 195.706 174.476C195.026 174.728 194.226 175.016 193.366 175.333C193.526 175.957 193.766 176.572 194.096 177.14V177.122Z" fill="#D26665"/>
<path d="M226.473 71.6819C236.287 56.7455 231.41 36.229 215.631 25.861C201.6 16.6411 183.701 18.519 172.993 29.4858L119.702 86.0955L169.741 135.757L219.858 78.9374C222.361 76.9448 224.604 74.527 226.456 71.7074L226.473 71.6819Z" class="top" fill="#EDF5FF"/>
<path d="M176.809 88.8705L172.917 133.142L180.452 124.961L176.809 88.8705Z" fill="#D0E2FF"/>
<path d="M186.391 22.8802C173.661 39.8531 175.55 98.0266 180.368 115.547" stroke="#D0E2FF"/>
</svg>
