<svg width="279" height="251" viewBox="0 0 279 251" fill="none" xmlns="http://www.w3.org/2000/svg">
<g clip-path="url(#clip0_334_9926)">
<path d="M68.6061 87.0844C68.8334 87.3731 114.213 140.668 116.425 142.094C118.628 143.511 157.433 29.2463 176.77 33.3733C182.736 51.6287 190.585 80.4709 187.712 98.5428C164.173 155.871 128.972 193.956 116.425 190.255C99.8854 185.365 54.0879 100.752 54.0879 100.752L68.6061 87.0931V87.0844Z" class="skin" fill="#F3A396"/>
<path d="M116.413 142.049C116.632 142.189 117.141 141.443 117.761 140.024C122.42 146.778 124.078 149.203 124.271 149.448L123.248 150.025L122.234 150.611C122.05 150.401 120.001 147.7 115.508 141.192C115.866 141.638 116.273 141.97 116.413 142.057V142.049Z" fill="#D26665"/>
<path d="M226.372 72.7454C236.624 57.1426 232.143 36.1135 216.414 25.7786C202.427 16.5881 184.286 18.9153 173.217 30.4482L118.087 89.9364L167.597 140L219.524 80.3651C222.098 78.2573 224.419 75.7174 226.355 72.7719L226.372 72.7454Z" class="top" fill="#EDF5FF"/>
<path d="M63.0373 77.0575C62.7628 76.2983 58.9161 69.0354 47.3992 63.0181C35.8718 57.0002 11.8734 60.2023 12.4003 64.3107C12.9272 68.4191 35.7664 68.7501 35.7664 68.7501C35.7664 68.7501 20.6688 80.2716 16.6677 78.2565C12.6554 76.2513 9.82511 63.5142 4.89374 62.5392C-0.0376288 61.5642 3.95883 72.85 3.95883 72.85C3.95883 72.85 1.57562 74.7939 1.42603 80.5093C1.33582 84.0935 18.3129 107.842 28.9649 106.599C39.6169 105.356 49.4538 95.0701 49.4538 95.0701L54.1627 101.002C54.1627 101.002 69.1241 88.3473 68.9724 87.85C68.8207 87.3527 63.0473 77.0688 63.0473 77.0688L63.0373 77.0575Z" class="skin" fill="#F3A396"/>
<path d="M29.9934 101.285L29.8149 98.3115C28.4731 98.3933 27.2933 95.8508 26.1517 93.3848C24.5012 89.8063 22.4342 85.3541 18.0228 85.4817C17.8741 85.4837 17.7348 85.5075 17.5855 85.5202C17.3199 84.9738 15.0215 80.487 11.3803 79.406C11.3522 79.3407 11.3341 79.2865 11.306 79.2212C10.4827 77.124 8.78097 72.7779 5.56205 71.5513C4.86624 71.2881 4.16126 71.1837 3.43654 71.2375C3.71003 72.1984 3.93839 72.8381 3.93839 72.8381C3.93839 72.8381 3.38083 73.3051 2.78538 74.4282C3.61122 74.0936 4.15632 74.21 4.49924 74.336C6.30599 75.0244 7.64614 78.0966 8.34223 79.8253C7.9531 80.132 7.55602 80.5764 7.20083 81.2143C6.28864 82.8608 5.78885 85.6355 5.82499 88.6855C6.86546 90.1473 8.04973 91.6919 9.33916 93.2531C8.65985 90.3147 8.61478 87.0518 9.13732 84.6182C9.49769 82.9717 9.98102 82.32 10.1694 82.1822C12.2221 82.4706 14.1956 85.6005 14.9031 86.9476C14.5372 87.4044 14.2298 87.9495 14.0227 88.5959C13.1564 91.2858 13.9317 95.6846 15.4384 99.7328C17.2119 101.364 19.0263 102.839 20.8273 103.994C18.2408 100.086 15.8236 92.6929 16.8562 89.5135C17.1284 88.6584 17.5425 88.4699 18.095 88.4594C20.3706 88.3784 21.7383 90.9742 23.4268 94.6293C24.9831 98.0006 26.5968 101.482 29.9723 101.283L29.9934 101.285Z" fill="#D26665"/>
<path d="M31.6262 71.7077C32.6317 71.2029 34.6125 69.9792 39.057 67.0711L37.4288 64.5771C35.1018 66.0994 32.5235 67.7453 31.1271 68.5886C33.8572 68.725 35.7659 68.7502 35.7659 68.7502C35.7659 68.7502 34.0564 70.0533 31.6262 71.7077Z" fill="#D26665"/>
<path d="M55.1269 94.219L53.1655 91.9818C51.7346 93.2373 50.6592 94.0354 49.4434 95.059L50.9792 97.8663C52.0054 97.0017 53.2373 95.8834 55.1263 94.2296L55.1269 94.219Z" fill="#D26665"/>
</g>
<defs>
<clipPath id="clip0_334_9926">
<rect width="279" height="251" fill="white"/>
</clipPath>
</defs>
</svg>
