<svg width="279" height="251" viewBox="0 0 279 251" fill="none" xmlns="http://www.w3.org/2000/svg">
<path d="M184.051 218.886C184.051 218.886 186.203 222.245 187.766 222.143C189.329 222.042 200.142 212.223 200.142 212.223C200.142 212.223 202.031 205.169 213.532 206.05C221.721 206.682 240.349 212.675 237.923 217.719C235.497 222.764 218.245 213.194 217.125 213.995C217.125 213.995 238.191 223.001 238.623 228.125C239.054 233.249 232.021 231.454 232.021 231.454C232.021 231.454 234.925 234.772 232.196 237.176C229.466 239.591 226.585 237.176 226.585 237.176C226.585 237.176 226.632 240.754 224.824 241.634C220.601 243.688 207.752 237.592 202.468 239.544C200.579 240.244 189.767 251.465 184.051 249.874C178.347 248.282 167.213 235.413 167.213 235.413L182.473 220.435L184.051 218.886Z" class="skin" fill="#F3A396"/>
<path d="M234.423 219.198C233.77 218.871 233.058 218.521 232.288 218.137C228.591 216.32 221.86 213.137 218.244 212.133C212.96 210.666 207.338 210.745 204.48 210.914C204.352 211.535 204.212 212.156 204.084 212.776C204.002 213.149 203.921 213.51 203.839 213.882C206.043 213.702 212.004 213.42 217.416 214.932C219.877 215.62 224.24 217.539 228.474 219.559C222.91 216.467 217.136 213.995 217.136 213.995C217.999 213.374 228.614 219.006 234.435 219.187L234.423 219.198Z" fill="#D26665"/>
<path d="M236.616 231.477C236.021 231.522 235.415 231.545 234.82 231.545C233 229.739 226.142 223.362 217.218 220.417C212.331 218.803 205.857 218.69 202.731 218.746C202.498 219.728 202.265 220.71 202.031 221.681C204.539 221.613 211.409 221.579 216.239 223.182C225.722 226.319 232.989 233.915 233.059 233.994L233.35 234.298C233.152 232.752 232.032 231.477 232.032 231.477C232.032 231.477 234.668 232.143 236.616 231.488V231.477Z" fill="#D26665"/>
<path d="M228.322 238.068C224.94 234.118 214.523 226.455 200.631 227.245C200.375 228.238 200.106 229.231 199.85 230.235C213.964 229.005 223.843 237.47 226.118 240.032C226.619 238.722 226.596 237.187 226.596 237.187C226.596 237.187 227.296 237.774 228.322 238.079V238.068Z" fill="#D26665"/>
<path d="M132.469 144.919L122.227 148.302L123.217 150.724L133.176 147.096C132.575 146.096 132.197 145.39 132.262 145.201C132.279 145.158 132.382 145.053 132.459 144.931L132.469 144.919Z" fill="#D26665"/>
<path d="M167.057 40.6997C171.28 36.0161 182.466 24.2111 189.313 28.3078C195.845 32.2127 195.032 86.4486 188.5 93.1749C183.543 98.2761 133.013 143.567 132.267 145.203C131.52 146.84 176.518 207.933 185.5 220.675C188.396 225.598 171.948 237.995 167.212 235.412C161.637 230.65 101 176.175 93.0471 140.06C91.8807 132.047 112.562 104.188 133.009 81.504L167.057 40.6997Z" class="skin" fill="#F3A396"/>
<path d="M225.971 72.7261C236.164 57.2126 231.594 36.229 215.815 25.861C201.783 16.6411 183.643 18.887 172.616 30.3395L117.701 89.4215L164.905 138.533L219.15 80.2946C221.717 78.2038 224.029 75.681 225.953 72.7525L225.971 72.7261Z" class="top" fill="#EDF5FF"/>
<path d="M157.305 182.174C157.305 182.174 183.701 221.742 185.265 221.64C186.828 221.539 198.116 210.455 198.116 210.455C198.116 210.455 202.031 205.169 213.532 206.05C221.721 206.682 240.349 212.675 237.922 217.719C235.496 222.764 218.245 213.194 217.125 213.995C217.125 213.995 238.191 223.001 238.622 228.125C239.054 233.249 232.02 231.454 232.02 231.454C232.02 231.454 234.925 234.772 232.195 237.176C229.466 239.591 226.585 237.176 226.585 237.176C226.585 237.176 226.631 240.754 224.823 241.634C220.601 243.688 207.752 237.592 202.468 239.544C200.578 240.244 189.766 251.465 184.051 249.874C178.347 248.282 135.428 203.628 135.428 203.628L155.726 183.723L157.305 182.174Z" class="skin" fill="#F3A396"/>
<path d="M234.423 219.198C233.77 218.871 233.058 218.521 232.288 218.137C228.591 216.32 221.86 213.137 218.244 212.133C212.96 210.666 207.338 210.745 204.48 210.914C204.352 211.535 204.212 212.156 204.084 212.776C204.002 213.149 203.921 213.51 203.839 213.882C206.043 213.702 212.004 213.42 217.416 214.932C219.877 215.62 224.24 217.539 228.474 219.559C222.91 216.467 217.136 213.995 217.136 213.995C217.999 213.374 228.614 219.006 234.435 219.187L234.423 219.198Z" fill="#D26665"/>
<path d="M236.616 231.477C236.021 231.522 235.415 231.545 234.82 231.545C233 229.739 226.142 223.362 217.218 220.417C212.331 218.803 205.857 218.69 202.731 218.746C202.498 219.728 202.265 220.71 202.031 221.681C204.539 221.613 211.409 221.579 216.239 223.182C225.722 226.319 232.989 233.915 233.059 233.994L233.35 234.298C233.152 232.752 232.032 231.477 232.032 231.477C232.032 231.477 234.668 232.143 236.616 231.488V231.477Z" fill="#D26665"/>
<path d="M228.322 238.068C224.94 234.118 214.523 226.455 200.631 227.245C200.375 228.238 200.106 229.231 199.85 230.235C213.964 229.005 223.843 237.47 226.118 240.032C226.619 238.722 226.596 237.187 226.596 237.187C226.596 237.187 227.296 237.774 228.322 238.079V238.068Z" fill="#D26665"/>
</svg>
