<svg width="228" height="357" viewBox="0 0 228 357" fill="none" xmlns="http://www.w3.org/2000/svg">
<path class="skin" d="M113.182 73.0581L112.572 66.0381C112.572 66.0381 104.771 62.7181 100.651 56.1881C96.5315 49.6581 100.542 36.7681 100.122 35.4281C99.7816 34.3281 94.1816 31.9381 96.4916 28.9881C98.8016 26.0381 104.612 27.3381 105.992 28.9881C107.122 30.3381 108.242 35.4881 108.242 35.4881C108.242 35.4881 109.392 4.90808 114.132 3.66808C117.982 2.65808 116.162 25.2081 117.362 24.6081C118.562 24.0081 119.232 0.558054 124.302 0.0180535C127.352 -0.301946 127.742 3.73805 127.742 3.73805C127.742 3.73805 129.132 0.988063 131.562 2.02806C134.732 3.38806 133.852 17.8681 133.852 17.8681C133.852 17.8681 134.652 6.05807 137.942 6.15807C141.082 6.25807 142.962 24.5481 142.482 34.4281C142.012 44.3081 140.882 58.5881 138.992 61.2781C137.302 63.6881 133.552 65.7181 133.552 65.7181L135.002 73.6781L113.172 73.0681L113.182 73.0581Z" fill="#FFB784"/>
<path d="M119.192 47.1581C119.402 47.9581 119.492 48.5581 119.542 49.0281C120.402 49.1081 121.262 49.1681 122.122 49.2281C122.092 48.4981 121.952 47.6181 121.672 46.5181C120.762 42.9981 115.052 42.8781 110.882 42.7881C110.262 42.7781 109.542 42.7581 109.052 42.7281C108.822 41.0281 108.792 36.0981 108.772 33.3081C108.752 30.3981 108.741 29.0081 108.661 28.2681C108.361 32.4581 108.242 35.4981 108.242 35.4981C108.242 35.4981 107.231 30.8481 106.151 29.2281C106.181 30.1881 106.192 31.8281 106.202 33.3281C106.272 43.0181 106.452 44.1581 107.212 44.7981C107.792 45.2881 108.682 45.3081 110.812 45.3581C112.982 45.4081 118.762 45.5281 119.182 47.1781L119.192 47.1581Z" fill="#BA4E00"/>
<path d="M137.342 34.098C126.972 31.698 112.192 33.278 112.042 33.298L111.762 30.758C112.382 30.688 127.131 29.118 137.911 31.608L137.332 34.098H137.342Z" fill="#BA4E00"/>
<path d="M119.211 14.6178C119.241 14.4078 119.261 14.0478 119.301 12.9278C119.301 12.8678 119.301 12.8178 119.301 12.7578C118.401 18.5978 117.941 24.2978 117.351 24.5878C116.731 24.8978 116.911 19.0478 116.711 13.4478C116.691 13.8278 116.681 14.1378 116.671 14.2178C116.541 15.0678 116.171 26.9878 116.071 30.6178L118.631 30.6978C118.801 24.8778 119.111 15.3578 119.201 14.6178H119.211Z" fill="#BA4E00"/>
<path d="M126.661 0.958008C126.661 0.958008 126.661 0.998026 126.661 1.00803C126.431 1.52803 125.991 2.82801 125.521 5.76801C124.921 9.47801 124.481 30.178 124.461 31.058L127.021 31.108C127.021 30.898 127.481 9.70801 128.051 6.17801C128.401 4.02801 128.711 2.89803 128.881 2.38803C128.151 2.95803 127.761 3.72803 127.761 3.72803C127.761 3.72803 127.601 2.06801 126.671 0.958008H126.661Z" fill="#BA4E00"/>
<path d="M134.262 31.3981C134.542 23.8781 135.282 11.9081 136.182 7.43808C134.342 10.4781 133.842 17.8581 133.842 17.8581C133.842 17.8581 134.202 11.9181 133.632 7.28809C132.392 13.8581 131.772 29.2881 131.702 31.2981L134.262 31.3981Z" fill="#BA4E00"/>
<path class="skin" d="M77.0412 118.428C74.8212 108.688 75.9812 82.298 82.1712 78.788C85.0512 77.158 117.481 139.588 117.661 139.358C118.211 138.658 112.251 65.688 112.221 65.298C112.191 64.908 133.951 64.938 133.951 64.938C133.951 64.938 151.801 177.858 145.421 191.218C143.871 194.468 134.871 203.288 130.751 202.088C115.621 197.678 80.4812 133.568 77.0312 118.418L77.0412 118.428Z" fill="#FFB784"/>
<path d="M117.661 139.358C117.661 139.358 116.472 137.258 114.602 133.768C117.942 165.218 118.752 174.438 118.762 175.058L120.042 175.038H121.322C121.322 174.508 120.482 165.018 117.702 138.708C117.702 139.098 117.702 139.328 117.672 139.358H117.661Z" fill="#BA4E00"/>
</svg>
