<svg width="228" height="357" viewBox="0 0 228 357" fill="none" xmlns="http://www.w3.org/2000/svg">
<path class="skin" d="M73.3323 115.09C73.8023 118.35 102.322 191.75 113.592 199.12C116.632 201.11 129.932 196.79 132.362 195.12C141.302 188.97 128.202 98.02 128.202 98.02L105.822 99.27L108.282 141.43C108.282 141.43 86.3423 80.41 82.2323 79.8C77.2023 79.05 71.5623 102.89 73.3323 115.09Z" fill="#FFB784"/>
<path class="skin" d="M134.452 55.0901C134.582 55.0201 137.302 51.3701 137.602 48.6501C137.902 45.9301 135.082 44.2101 132.632 46.0301C130.182 47.8501 129.812 49.8801 129.812 49.8801L130.212 56.4101L134.452 55.0801V55.0901Z" fill="#FFB784"/>
<path class="skin" d="M137.082 64.6202C137.082 64.6202 140.122 61.4602 137.292 57.0402C134.892 53.3102 132.262 55.1002 132.262 55.1002L129.392 62.2302L129.952 68.2302L137.082 64.6202Z" fill="#FFB784"/>
<path class="skin" d="M105.712 97.3797C105.712 97.3797 105.942 102.46 106.062 103.33L128.962 103.91C128.962 103.79 128.762 98.0297 128.792 98.0097C130.102 96.8297 131.552 95.8297 135.032 92.7897C140.972 87.6097 141.862 83.1397 141.862 83.1397C143.402 75.4797 137.592 73.3997 137.592 73.3997L92.5823 64.4697C91.4823 73.2197 96.5323 89.1498 105.722 97.3698L105.712 97.3797Z" fill="#FFB784"/>
<path d="M130.672 84.8002C128.542 84.8002 127.152 84.1302 127.052 84.0802L127.812 82.5402C127.962 82.6102 131.482 84.2702 135.982 81.4302L136.902 82.8802C134.532 84.3802 132.362 84.8002 130.672 84.8002Z" fill="#BA4E00"/>
<path class="skin" d="M138.952 75.0902C138.952 75.0902 142.822 69.7402 141.212 67.2202C139.602 64.7002 136.782 64.0002 135.342 64.7902C133.912 65.5702 130.602 75.8302 130.602 75.8302L138.942 75.0902H138.952Z" fill="#FFB784"/>
<path d="M103.692 84.45H128.732C131.012 84.45 132.872 82.6 132.872 80.31V32.14C132.872 29.86 131.022 28 128.732 28H103.692C101.412 28 99.5523 29.85 99.5523 32.14V80.31C99.5523 82.59 101.402 84.45 103.692 84.45Z" fill="#3F3B43"/>
<path d="M103.702 29.98H128.692C129.812 29.98 130.712 30.88 130.712 32V79.36C130.712 80.53 129.762 81.48 128.592 81.48H103.732C102.612 81.48 101.702 80.57 101.702 79.45V31.98C101.702 30.87 102.602 29.98 103.702 29.98Z" fill="#62607A"/>
<path class="skin" d="M141.602 77.6598C141.602 77.6598 141.602 81.6398 139.252 80.1298C137.482 78.9998 132.202 84.4698 128.942 83.0898C125.682 81.7098 126.202 78.6498 126.492 78.1298C127.682 76.0498 132.332 72.9698 135.802 73.2298C138.552 73.4398 140.312 74.4498 141.602 77.6498V77.6598Z" fill="#FFB784"/>
<path class="skin" d="M139.332 70.1601C139.332 70.1601 133.202 75.4401 130.032 75.2201C126.862 75.0001 125.682 72.0901 126.602 70.1601C127.512 68.2301 132.602 62.9701 137.552 63.6601C142.502 64.3601 141.542 69.4101 141.542 69.4101L139.332 70.1501V70.1601Z" fill="#FFB784"/>
<path class="skin" d="M137.372 60.3301C137.372 60.3301 135.052 63.8101 130.942 63.3101C126.832 62.8101 126.792 58.8001 128.492 56.9401C130.182 55.0801 132.822 54.2901 135.212 55.0801C137.602 55.8701 138.322 59.8601 138.322 59.8601L137.382 60.3201L137.372 60.3301Z" fill="#FFB784"/>
<path class="skin" d="M99.5622 70.9698C99.5622 70.9698 99.6623 66.7898 100.172 65.2298C100.672 63.6698 102.662 61.9998 102.672 59.0698C102.682 55.2398 99.9923 53.0098 98.0823 53.0098C96.1723 53.0098 95.6522 55.9598 94.5122 58.2998C93.4322 60.5298 91.9223 62.5798 92.4223 68.4598C92.6923 71.6698 93.6822 72.1498 93.6822 72.1498L99.5622 70.9598V70.9698Z" fill="#FFB784"/>
<path d="M138.342 62.1101C136.392 62.2401 133.642 62.5101 131.172 63.3301C132.162 63.7201 132.872 64.5201 132.872 64.5201C134.632 64.1301 136.992 63.9101 138.362 63.8201C137.982 63.5101 138.162 62.9601 138.342 62.1001V62.1101Z" fill="#BA4E00"/>
<path d="M132.872 53.06C132.882 53.63 132.882 54.21 132.872 54.78C133.502 54.74 133.912 54.68 134.712 54.78C135.122 54.28 135.332 53.93 135.692 53.34C134.502 53.03 133.802 53.01 132.882 53.06H132.872Z" fill="#BA4E00"/>
<path d="M140.322 72.83C136.592 71.38 131.452 73.07 127.982 74.58C128.442 75.01 129.062 75.44 128.782 75.79C131.872 74.51 136.472 73.42 139.402 74.45C139.712 73.98 140.042 73.39 140.322 72.83Z" fill="#BA4E00"/>
<path d="M108.272 141.42C108.272 141.42 107.382 138.93 105.922 134.96C108.012 165.41 109.042 178.46 109.042 178.46H111.092L108.142 139.09L108.282 141.41L108.272 141.42Z" fill="#BA4E00"/>
<path d="M114.002 99.0602C110.472 99.6902 106.992 98.1101 105.712 97.3901L105.852 99.9001C110.272 102.12 114.192 101.05 114.192 101.05L114.002 99.0602Z" fill="#BA4E00"/>
</svg>
