<svg width="228" height="357" viewBox="0 0 228 357" fill="none" xmlns="http://www.w3.org/2000/svg">
<path d="M75.9009 217.1C75.9009 217.1 62.1009 227.23 61.4309 230.94C60.7509 234.65 80.3409 351.81 92.1509 355.52C103.971 359.23 175.541 327.84 175.541 322.77C175.541 317.7 164.401 292.72 164.401 292.72C164.401 292.72 172.841 286.27 172.501 286.46C172.161 286.65 126.731 210.54 118.471 206.9C110.211 203.26 75.8909 217.1 75.8909 217.1H75.9009Z" fill="#767F9A"/>
<path d="M75.9009 217.1C75.9009 217.1 62.1009 227.23 61.4309 230.94C60.7509 234.65 80.3409 351.81 92.1509 355.52C103.971 359.23 175.541 327.84 175.541 322.77C175.541 317.7 164.401 292.72 164.401 292.72C164.401 292.72 172.841 286.27 172.501 286.46C172.161 286.65 126.731 210.54 118.471 206.9C110.211 203.26 75.8909 217.1 75.8909 217.1H75.9009Z" fill="#767F9A"/>
<path class="skin" d="M63.8109 113.07C63.8109 113.07 64.0709 102.75 58.3409 100.34C52.6109 97.93 49.551 107.89 49.881 107.89C50.211 107.89 63.8109 113.07 63.8109 113.07Z" fill="#FFB784"/>
<path d="M50.0809 106.92C53.0109 107.11 58.8509 107.84 63.6909 110.53C63.5909 109.52 63.411 108.32 63.101 107.07C58.861 105.16 54.3309 104.4 51.2909 104.14C50.7109 105.18 50.3109 106.2 50.0809 106.91V106.92Z" fill="#B17861"/>
<path d="M74.3908 77.1001C74.3908 77.1001 74.2209 74.6201 72.5809 73.7601C70.9409 72.9001 57.5909 68.1001 56.8309 68.0001C56.0709 67.9001 29.6509 121.48 35.2409 160.57C40.8209 199.66 82.2309 237.81 82.2309 237.81C82.2309 237.81 96.3909 230.74 95.6209 230.35C94.8509 229.96 47.3709 177.9 47.1909 151.93C46.9909 122.08 69.5108 75.6901 70.1608 75.7501C70.8108 75.8101 74.3908 77.1001 74.3908 77.1001Z" fill="#767F9A"/>
<path d="M101.291 237.51C137.831 302.54 138.321 302.54 139.771 302.54C141.221 302.54 153.961 296.81 166.841 290.87C169.311 288.98 172.721 286.35 172.511 286.47C172.491 286.48 172.241 286.12 171.811 285.45C160.481 290.71 143.901 298.26 140.221 299.55C136.621 294.61 116.181 258.24 103.751 236.13C95.911 222.18 92.0509 215.34 90.0909 211.94C89.1609 212.25 88.241 212.56 87.361 212.87C89.921 217.3 95.4809 227.19 101.291 237.52V237.51Z" fill="#636D80"/>
<path class="skin" d="M67.481 115.45C67.481 115.45 63.1409 138.72 63.8209 141.41C64.4909 144.1 79.111 164.45 79.111 164.45C79.111 164.45 68.3209 80.84 78.3209 80.68C88.9909 80.51 102.271 160.57 105.911 193.58C107.451 207.55 106.911 212.68 100.751 214.56C94.271 216.54 89.3709 212.25 83.1609 205.69C66.2109 187.81 47.891 153.23 47.211 151.92C46.281 150.13 47.211 143.97 47.211 143.97C47.211 143.97 36.7709 144.7 34.0509 139.05C33.5209 137.96 34.1509 133.25 34.1509 133.25C31.3109 127.72 34.621 124.52 34.621 124.52C33.831 118.75 37.461 115.5 37.461 115.5C37.041 109.6 40.2509 108.15 42.0209 107.3C46.9509 104.94 67.651 107.91 67.481 115.46V115.45Z" fill="#FFB784"/>
<path d="M79.111 164.45C79.111 164.45 78.581 163.72 77.731 162.51L94.361 186.95L96.5909 185.19L78.371 158.43C78.811 162.19 79.101 164.46 79.101 164.46L79.111 164.45Z" fill="#B17861"/>
<path d="M50.8607 139.77L48.2706 138.64C47.4106 140.6 46.4207 142.54 45.5507 144C46.5607 144.02 47.2007 143.97 47.2007 143.97C47.2007 143.97 46.9807 145.43 46.8607 147.14C48.4107 145.06 49.9207 141.92 50.8607 139.77Z" fill="#B17861"/>
<path d="M34.1409 133.25C34.1409 133.25 34.0909 133.6 34.0409 134.12C37.2109 131.63 42.951 133.68 43.241 133.78L44.2209 131.13C41.5209 130.13 36.7909 129.35 33.3309 131.21C33.5109 131.85 33.7709 132.52 34.1409 133.24V133.25Z" fill="#B17861"/>
<path d="M34.5309 122.16C34.4809 122.89 34.501 123.67 34.611 124.51C34.611 124.51 34.3609 124.76 34.0509 125.23C36.7809 124.34 40.9409 123.69 45.8009 125.33L46.7109 122.65C41.8809 121.02 37.6409 121.35 34.5309 122.15V122.16Z" fill="#B17861"/>
<path d="M36.8009 116.21C40.3209 113.9 46.8809 115.66 49.3309 116.64L50.3909 114.02C50.0209 113.87 42.9909 111.1 37.5509 112.77C37.4209 113.56 37.3809 114.46 37.4609 115.5C37.4609 115.5 37.1909 115.75 36.8109 116.22L36.8009 116.21Z" fill="#B17861"/>
<path d="M90.2909 226.58C88.6009 228.55 80.901 233.59 78.861 234.44C77.371 233.4 72.6409 228.36 68.1609 223.28C67.4409 223.9 66.7309 224.54 66.0509 225.17C76.2009 236.75 77.9409 237.36 78.7009 237.36C78.7509 237.36 78.7909 237.36 78.8309 237.36C80.7209 237.27 92.0409 229.97 93.1609 227.3C93.4509 226.6 93.3609 225.88 92.9009 225.36C92.2709 224.64 88.3009 218.76 84.9409 213.71C83.9709 214.06 83.0609 214.39 82.2009 214.7C84.6509 218.39 88.7209 224.46 90.2809 226.58H90.2909Z" fill="#636D80"/>
<path d="M98.1409 343.11C96.9909 343.11 96.6109 342.85 96.3409 342.67C93.7409 340.9 85.381 309.96 80.631 291.68L80.3009 290.42L115.711 278.12L116.251 279.27C116.301 279.38 121.481 290.4 126.321 301.84C136.341 325.52 135.191 327.82 134.631 328.93C132.481 333.23 113.061 339.81 105.321 341.82C101.491 342.82 99.371 343.11 98.131 343.11H98.1409ZM97.9409 340.29C102.051 340.88 130.241 331.39 132.101 327.66C133.061 324.78 123.861 302.21 114.231 281.62L83.6909 292.23C88.3009 309.88 95.8709 337.14 97.9409 340.29Z" fill="#636D80"/>
</svg>
