<svg width="228" height="357" viewBox="0 0 228 357" fill="none" xmlns="http://www.w3.org/2000/svg">
<path class="skin" d="M166.062 114.317C165.792 114.657 129.192 171.947 126.602 173.617C124.002 175.287 95.8624 74.3473 80.4824 79.1673C65.0924 83.9873 104.552 214.867 124.012 209.127C143.472 203.377 179.062 130.617 179.062 130.617L166.062 114.327V114.317Z" fill="#FFB784"/>
<path class="skin" d="M167.882 111.497C168.192 110.777 172.322 103.957 183.822 98.7775C195.322 93.5875 218.412 98.0375 217.672 101.987C216.932 105.937 194.782 104.978 194.782 104.978C194.782 104.978 208.772 116.978 212.762 115.258C216.762 113.538 220.222 101.367 225.052 100.687C229.882 100.017 225.382 110.728 225.382 110.728C225.382 110.728 227.582 112.748 227.402 118.288C227.292 121.768 209.512 143.817 199.252 142.017C189.002 140.217 180.042 129.707 180.042 129.707L175.142 135.188C175.142 135.188 161.352 122.097 161.522 121.617C161.692 121.137 167.872 111.508 167.872 111.508L167.882 111.497Z" fill="#FFB784"/>
<path d="M198.552 136.808L198.892 133.938C200.192 134.098 201.482 131.688 202.722 129.368C204.522 125.998 206.772 121.798 211.042 122.168C211.192 122.178 211.322 122.208 211.462 122.238C211.752 121.718 214.232 117.508 217.822 116.668C217.852 116.608 217.872 116.548 217.902 116.488C218.812 114.508 220.712 110.388 223.902 109.378C224.582 109.158 225.282 109.098 225.972 109.188C225.652 110.108 225.392 110.718 225.392 110.718C225.392 110.718 225.912 111.198 226.422 112.318C225.642 111.948 225.112 112.028 224.772 112.138C222.992 112.698 221.512 115.608 220.742 117.248C221.102 117.568 221.462 118.018 221.772 118.658C222.562 120.308 222.892 123.018 222.682 125.968C221.592 127.328 220.352 128.758 219.022 130.188C219.852 127.378 220.072 124.218 219.702 121.838C219.452 120.218 219.012 119.568 218.842 119.418C216.832 119.588 214.752 122.508 213.992 123.778C214.322 124.238 214.592 124.778 214.752 125.418C215.442 128.068 214.442 132.288 212.752 136.128C210.942 137.618 209.102 138.928 207.292 139.948C210.012 136.308 212.772 129.278 211.952 126.148C211.732 125.298 211.352 125.098 210.802 125.058C208.602 124.858 207.132 127.288 205.282 130.738C203.582 133.918 201.832 137.198 198.562 136.818L198.552 136.808Z" fill="#B17861"/>
<path d="M198.622 108.067C197.672 107.527 195.832 106.227 191.682 103.157L193.402 100.837C195.572 102.437 197.982 104.177 199.282 105.067C196.632 105.047 194.772 104.967 194.772 104.967C194.772 104.967 196.362 106.327 198.612 108.067H198.622Z" fill="#B17861"/>
<path d="M174.592 128.558L176.622 126.498C177.942 127.798 178.932 128.628 180.052 129.688L178.412 132.318C177.462 131.418 176.332 130.268 174.592 128.558Z" fill="#B17861"/>
<path d="M126.602 173.617C126.342 173.787 125.832 172.917 125.102 171.257C119.622 179.197 117.592 182.037 117.362 182.317L118.562 182.997L119.752 183.687C119.962 183.447 122.202 180.317 127.492 172.667C127.072 173.187 126.772 173.517 126.612 173.627L126.602 173.617Z" fill="#B17861"/>
</svg>
