<svg width="440" height="246" viewBox="0 0 440 246" fill="none" xmlns="http://www.w3.org/2000/svg">
<g clip-path="url(#clip0_351_11638)">
<path d="M238.877 80.1174C238.571 114.347 213.537 227.198 204.075 231.761C194.613 236.323 81.3434 219.372 81.3434 219.372L84.5597 197.501C84.5597 197.501 171.553 208.272 173.87 204.883C176.198 201.496 202.949 72.2702 202.949 72.2702C202.949 72.2702 205.525 41.7405 220.779 43.982C235.114 46.0886 238.954 72.3662 238.877 80.1174Z" class="skin" fill="#F3A396"/>
<path d="M150.017 161.954C150.239 162.089 150.73 161.331 151.315 159.897C156.139 166.533 157.857 168.917 158.056 169.157L157.047 169.759L156.048 170.37C155.859 170.165 153.744 167.515 149.091 161.12C149.461 161.557 149.876 161.879 150.018 161.963L150.017 161.954Z" fill="#D26665"/>
<path d="M263.619 78.8837C266.148 60.3862 253.043 43.3401 234.397 40.7904C215.42 35.4022 200.118 50.4254 195.098 65.6021L173.307 141.053L239.556 164.899L260.722 88.7105C262.137 85.6993 263.137 82.4071 263.615 78.9152L263.619 78.8837Z" class="top" fill="#EDF5FF"/>
<path d="M388.456 82.9918C393.966 116.776 411.047 214.666 402.498 220.769C393.948 226.872 279.445 229.4 279.445 229.4L278.9 207.301C278.9 207.301 366.459 203.144 368.167 199.411C369.887 195.677 351.717 81.3593 351.717 81.3593C351.717 81.3593 349.072 50.8354 364.485 50.4544C378.969 50.0963 387.216 75.3402 388.456 82.9918Z" class="skin" fill="#F3A396"/>
<path d="M221.511 220.738C222.589 214.982 227.848 195.471 249.328 197.597C268.57 199.5 282.54 206.997 282.54 206.997L285.531 229.249L253.079 229.59C252.212 229.715 247.874 225.399 247.139 225.602C246.513 225.779 246.068 225.986 246.004 226.23C245.959 226.416 245.904 226.614 245.839 226.823C245.291 228.546 244.164 230.688 241.912 230.628C238.148 230.536 237.695 227.983 237.695 227.983C237.695 227.983 237.273 231.159 235.144 230.795C233.014 230.432 231.922 228.334 231.922 228.334C231.922 228.334 230.772 230.765 229.098 230.621C227.424 230.478 225.955 227.303 225.955 227.303C225.955 227.303 224.791 231.225 222.073 230.506C219.354 229.788 221.521 220.737 221.521 220.737L221.511 220.738Z" class="skin" fill="#F3A396"/>
<path d="M244.57 228.717C244.73 225.872 244.964 221.974 245.677 220.074C247.16 216.121 255.929 217.187 256.009 217.208C257.044 217.39 257.662 218.53 258.512 220.114C259.403 221.755 260.618 224.001 262.785 226.246C265.936 229.506 272.052 229.655 274.064 229.709C274.414 229.723 274.784 229.726 275.087 229.845C274.206 229.809 273.365 229.772 272.564 229.735L264.082 229.748C263.149 229.251 262.283 228.626 261.534 227.859C259.163 225.4 257.863 223.006 256.919 221.251C256.489 220.453 255.955 219.473 255.732 219.351C253.873 219.028 248.066 219.194 247.399 220.955C247.024 221.958 246.793 223.961 246.641 225.894C246.214 226.043 245.909 226.212 245.863 226.398C245.818 226.584 245.763 226.782 245.698 226.991C245.447 227.771 245.068 228.636 244.536 229.353C244.551 229.145 244.565 228.925 244.57 228.717Z" fill="#D26665"/>
<path d="M241.015 211.538C245.084 207.834 253.998 207.856 254.368 207.847L254.371 210.018C254.291 210.02 245.738 210.001 242.187 213.241C239.37 215.806 238.513 226.049 238.41 229.597C237.693 228.899 237.554 228.152 237.554 228.152C237.554 228.152 237.351 229.646 236.541 230.463C236.537 227.461 237.111 215.076 241.014 211.526L241.015 211.538Z" fill="#D26665"/>
<path d="M219.325 228.441L221.201 228.279C221.197 228.094 220.199 211.21 232.768 202.098C232.816 201.242 232.858 200.49 232.896 199.588C218.178 209.158 219.309 228.233 219.324 228.429L219.325 228.441Z" fill="#D26665"/>
<path d="M233.729 211.014C237.105 205.952 245.104 205.015 245.443 204.972L245.637 207.139C245.557 207.141 238.106 208.018 235.222 212.351C232.801 215.98 232.701 226.1 232.752 229.76C232.106 229.13 231.771 228.514 231.771 228.514C231.771 228.514 231.428 229.216 230.863 229.842C230.803 225.789 230.932 215.206 233.719 211.026L233.729 211.014Z" fill="#D26665"/>
<path d="M238.775 202.273L239.198 204.399C239.128 204.412 231.973 206.333 228.768 211.402C226.255 215.38 226.586 225.12 226.858 229.225C226.226 228.374 225.814 227.483 225.814 227.483C225.814 227.483 225.547 228.391 224.968 229.248C224.679 224.843 224.377 214.652 227.245 210.111C230.865 204.374 238.457 202.361 238.775 202.273Z" fill="#D26665"/>
<path d="M320.193 86.9779C312.191 69.2246 319.7 48.5483 336.913 40.7899C352.219 33.8906 370.02 39.49 379.425 53.2327L411.348 125.088L354.863 153.993L325.942 95.9751C323.672 93.3655 321.717 90.3596 320.206 87.0081L320.193 86.9779Z" class="top" fill="#EDF5FF"/>
<path d="M251.359 239.263L179.651 241.035L179.367 229.547L251.075 227.775C254.253 227.696 256.883 230.199 256.961 233.377C257.04 236.554 254.537 239.184 251.359 239.263Z" fill="#292728"/>
<path d="M193.033 240.705L49.4331 244.255C41.6725 244.447 34.7308 239.422 32.4375 231.988L3.79492 138.137C1.26666 129.854 7.3253 121.419 16.0024 121.204L148.604 117.926C153.798 117.798 158.406 121.169 159.844 126.178L193.003 240.706L193.033 240.705Z" fill="#686266"/>
<path d="M103.701 186.264C103.876 193.322 98.3038 199.177 91.246 199.351C84.1882 199.526 78.3335 193.953 78.159 186.896C77.9845 179.838 83.5567 173.983 90.6145 173.809C97.6723 173.634 103.527 179.206 103.701 186.264Z" fill="white"/>
</g>
<defs>
<clipPath id="clip0_351_11638">
<rect width="439.013" height="244.359" fill="white" transform="translate(0.166992 0.971191)"/>
</clipPath>
</defs>
</svg>
