<svg width="440" height="246" viewBox="0 0 440 246" fill="none" xmlns="http://www.w3.org/2000/svg">
<path d="M230.203 187.235L311.542 180.209L336.013 203.039C336.013 203.039 228.538 241.956 204.007 225.15C196.562 220.05 177.738 61.5643 216.213 47.5455C227.474 43.4425 230.215 187.235 230.215 187.235H230.203Z" class="skin" fill="#F3A396"/>
<path d="M358.473 165.592L356.325 176.612C356.325 176.612 253.803 165.524 243.991 168.1C237.861 169.709 229.954 187 229.954 187C229.954 187 352.229 226.588 384.155 218.68C393.139 216.455 409.455 67.9121 368.684 45.1523C355.239 40.8639 358.473 165.607 358.473 165.607V165.592Z" class="skin" fill="#F3A396"/>
<path d="M231.341 186.958L231.196 184.4C230.412 185.981 229.954 186.986 229.954 186.986V182.561L229.181 186.469L215.088 188.926L215.341 191.828L229.543 189.846L304.786 212.944C307.537 212.327 311.067 210.83 313.516 210.269L231.329 186.958H231.341Z" fill="#D26665"/>
<path d="M262.994 84.111C268.112 66.2676 257.507 47.5931 239.359 42.3878C223.22 37.7589 206.568 45.2989 199.447 59.5131L170.947 119.104L230.623 151.951L258.734 93.3657C260.562 90.606 262.019 87.5097 262.985 84.1414L262.994 84.111Z" class="top" fill="#EDF5FF"/>
<path d="M316.186 80.6183C311.068 62.775 321.673 44.1005 339.821 38.8951C355.96 34.2662 372.611 41.8062 379.733 56.0205L408.233 115.611L348.557 148.459L320.446 89.873C318.617 87.1133 317.16 84.0171 316.194 80.6487L316.186 80.6183Z" class="top" fill="#EDF5FF"/>
<path d="M327.653 174.083C327.788 173.449 328.509 162.844 334.979 152.107C341.858 140.702 357.222 134.098 358.669 137.371C360.49 141.482 346.908 150.93 346.908 150.93C346.908 150.93 361.233 143.111 369.276 145.929C375.303 148.049 372.736 153.286 372.736 153.286C372.736 153.286 374.948 156.633 374.162 159.054C373.376 161.474 369.897 162.272 369.897 162.272C369.897 162.272 372.559 164.289 371.101 167.568C369.643 170.848 362.95 168.487 361.196 170.996C359.828 172.936 359.127 176.829 359.127 176.829L327.653 174.083Z" class="skin" fill="#F3A396"/>
<path d="M372.736 152.995C372.736 152.995 373.109 152.244 373.232 151.196C371.444 150.26 366.741 148.403 360.815 150.602C353.962 153.143 345.77 160.237 342.912 168.846C343.704 169.004 344.498 169.174 345.3 169.332C348.018 161.809 355.345 155.601 361.51 153.31C367.366 151.141 371.919 153.572 372.705 154.036C373.112 154.518 373.52 155.011 373.927 155.493C373.459 154.099 372.726 152.995 372.726 152.995L372.736 152.995Z" fill="#D26665"/>
<path d="M369.897 161.981C369.897 161.981 371.228 161.669 372.438 160.865C369.84 159.015 363.484 157.422 358.28 161.373C354.637 164.14 352.246 168.091 351.061 170.397C351.925 170.549 352.779 170.702 353.642 170.843C354.823 168.758 356.792 165.841 359.546 163.768C363.723 160.606 368.712 161.792 370.845 163.068C370.401 162.381 369.899 162.005 369.899 162.005L369.897 161.981Z" fill="#D26665"/>
<path d="M335.955 167.96L338.732 168.293C338.793 167.628 340.448 152.036 359.67 145.79L359.666 145.741C353.122 147.255 346.909 150.638 346.909 150.638C346.909 150.638 351.31 147.58 354.77 144.181C337.561 151.87 336.023 167.258 335.955 167.96Z" fill="#D26665"/>
<path d="M359.8 145.912C364.349 145.469 373.876 145.487 374.248 147.345C374.443 148.305 374.424 149.056 374.183 149.573C373.866 150.262 373.206 150.484 373.206 150.484L370.089 151.333L372.713 153.548C372.713 153.548 374.573 155.148 373.894 157.043C373.122 159.197 371.178 159.197 371.075 159.209L365.968 159.074L370.359 162.372C370.359 162.372 372.061 163.701 371.847 165.338C371.754 166.04 371.019 167.11 369.912 167.233C369.578 167.27 369.177 167.27 368.75 167.27C366.061 167.27 361.158 167.27 360.042 175.787L362.544 176.255C363.224 171.061 365.484 170.63 368.61 170.63H368.666C369.159 170.63 369.624 170.63 370.043 170.581C372.173 170.347 374.024 168.304 374.35 165.806C374.555 164.231 374.192 162.864 373.615 161.781C374.564 161.191 375.55 160.182 376.183 158.422C377.039 156.046 376.443 153.942 375.578 152.477C375.848 152.17 376.099 151.788 376.322 151.32C376.974 149.954 377.104 148.293 376.713 146.385C375.718 141.499 361.558 142.355 358.172 142.602C358.097 143.734 358.088 145.358 358.069 146.318C357.958 146.331 359.809 145.925 359.809 145.925L359.8 145.912Z" fill="#D26665"/>
</svg>
