<svg width="130" height="210" viewBox="0 0 130 210" fill="none" xmlns="http://www.w3.org/2000/svg">
<path d="M65.9248 201.882C49.4567 201.882 36.1172 188.79 36.1172 172.626V110.368H95.7323V172.626C95.7323 188.79 82.3928 201.882 65.9248 201.882Z" class="skin" fill="#FCCBAE"/>
<path d="M36.1172 130.142C36.1172 130.142 52.5165 160.073 71.2537 158.588C100.236 156.327 95.4229 121.064 95.4229 121.064C95.4229 121.064 84.1806 144.584 66.4061 144.584C46.5688 144.584 36.1172 130.108 36.1172 130.108V130.142Z" fill="#DFB095"/>
<path d="M21.4369 88.771L18.4802 59.1772C14.664 40.2466 29.6881 30.2583 42.8557 30.2583H88.4094C102.368 30.2583 118.973 40.1791 111.891 61.5056L107.834 93.7651L21.4713 88.771H21.4369Z" class="hair" fill="#684B47"/>
<path d="M104.706 105.002C113.748 111.548 129.356 81.7856 120.555 74.7331C111.754 67.6805 105.943 80.6046 105.943 80.6046L105.737 91.5378L104.431 101.796L103.915 104.968H104.706V105.002Z" class="skin" fill="#FCCBAE"/>
<path d="M117.408 84.1144C117.408 84.1144 112.143 80.9451 107.801 89.8161" stroke="#BA754D" stroke-width="2" stroke-linecap="square" stroke-linejoin="round"/>
<path d="M110.461 86.7393C110.461 86.7393 116.572 90.1448 112.166 95.3854" stroke="#BA754D" stroke-width="2" stroke-linecap="square" stroke-linejoin="round"/>
<path d="M25.8717 105.003C16.8298 111.549 1.22118 81.7864 10.0225 74.7339C18.8238 67.6813 24.359 80.7403 24.359 80.7403L24.8747 91.5385L26.1812 101.797L26.6625 104.969H25.8717V105.003Z" class="skin" fill="#FCCBAE"/>
<path d="M12.5674 84.1159C12.5674 84.1159 18.6786 82.0954 23.0207 90.9664" stroke="#BA754D" stroke-width="2" stroke-linecap="square" stroke-linejoin="round"/>
<path d="M19.2201 86.6968C19.2201 86.6968 13.4032 90.1461 17.8097 95.3866" stroke="#BA754D" stroke-width="2" stroke-linecap="square" stroke-linejoin="round"/>
<path d="M107.695 66.6018C107.695 85.0262 105.185 100.92 102.71 112.224C100.269 123.259 93.3929 132.909 83.6977 139.152L81.9443 140.299C71.6647 146.88 58.4283 147.015 47.9768 140.704C37.4564 134.327 30.0991 123.967 27.83 112.089C23.7044 90.5265 23.2574 66.6355 23.2574 66.6355C23.2574 66.6355 19.3381 20.1021 64.8574 21.0132C110.377 21.9243 107.661 66.6355 107.661 66.6355L107.695 66.6018Z" class="skin" fill="#FCCBAE"/>
<path d="M60.7 118.919L60.4199 116.109C60.6299 116.089 65.5399 115.609 68.9399 116.109L68.5199 118.899C65.4699 118.439 60.75 118.899 60.7 118.899V118.919Z" fill="#BA754D"/>
<path d="M76.9328 115.882C76.9328 115.882 72.531 112.413 65.4883 112.413H65.4712C58.6849 112.413 53.7361 115.534 53.6849 115.56L52.4199 113.405C52.6421 113.262 57.9669 109.882 65.4712 109.882H65.4883C73.4028 109.882 78.2148 113.718 78.4199 113.879L76.9413 115.873L76.9328 115.882Z" fill="#BA754D"/>
<path d="M62.1572 85.0205C62.1572 85.0205 63.8216 89.3176 63.7954 92.1892C63.7703 94.9509 62.1572 99.0689 62.1572 99.0689C62.1572 99.5424 62.2537 99.9844 62.4145 100.395C63.09 102.036 64.9877 102.794 66.7245 102.352L70.4556 101.373" stroke="#CA8A64" stroke-width="2.5" stroke-linecap="square" stroke-linejoin="round"/>
<path d="M46.3287 84.1142C48.5123 84.1142 50.2824 82.3768 50.2824 80.2336C50.2824 78.0904 48.5123 76.353 46.3287 76.353C44.1451 76.353 42.375 78.0904 42.375 80.2336C42.375 82.3768 44.1451 84.1142 46.3287 84.1142Z" class="hair" fill="#684B47"/>
<path d="M82.943 84.1142C85.1265 84.1142 86.8967 82.3768 86.8967 80.2336C86.8967 78.0904 85.1265 76.353 82.943 76.353C80.7594 76.353 78.9893 78.0904 78.9893 80.2336C78.9893 82.3768 80.7594 84.1142 82.943 84.1142Z" class="hair" fill="#684B47"/>
<path d="M58.4066 67.1222L58.0006 62.6724L42.5712 64.3035C40.64 64.4797 38.8036 65.2848 37.4161 66.4953L31.8393 73.0929L41.9341 70.8647L58.4095 67.1538L58.4066 67.1222Z" class="hair" fill="#684B47"/>
<path d="M71.3876 67.5682L71.9115 62.6275L86.7156 64.313C88.5689 64.4961 90.3241 65.3075 91.6436 66.5224L96.9637 73.1409L87.2908 70.8776L71.4201 67.6033L71.3876 67.5682Z" class="hair" fill="#684B47"/>
</svg>
