<svg width="130" height="210" viewBox="0 0 130 210" fill="none" xmlns="http://www.w3.org/2000/svg">
<path d="M64.54 201.976C48.0719 201.976 34.7324 188.883 34.7324 172.719V110.461H94.3476V172.719C94.3476 188.883 81.0081 201.976 64.54 201.976Z" class="skin" fill="#FCCBAE"/>
<path d="M34.7324 130.235C34.7324 130.235 51.1317 160.166 69.8689 158.681C98.8514 156.421 94.0382 121.158 94.0382 121.158C94.0382 121.158 82.7958 144.678 65.0213 144.678C45.184 144.678 34.7324 130.201 34.7324 130.201V130.235Z" fill="#DFB095"/>
<path d="M20.0521 88.8642L17.0955 59.2705C13.2793 40.3399 28.3034 30.3516 41.471 30.3516H87.0246C100.983 30.3516 117.589 40.2724 110.506 61.5988L106.449 93.8584L20.0865 88.8642H20.0521Z" class="hair" fill="#684B47"/>
<path d="M103.321 105.095C112.363 111.641 127.972 81.8789 119.17 74.8263C110.369 67.7738 104.559 80.6979 104.559 80.6979L104.352 91.631L103.046 101.889L102.53 105.061H103.321V105.095Z" class="skin" fill="#FCCBAE"/>
<path d="M116.263 84.0168C116.263 84.0168 110.997 80.8474 106.655 89.7184" stroke="#BA754D" stroke-width="2" stroke-linecap="square" stroke-linejoin="round"/>
<path d="M109.315 86.6416C109.315 86.6416 115.427 90.0472 111.02 95.2877" stroke="#BA754D" stroke-width="2" stroke-linecap="square" stroke-linejoin="round"/>
<path d="M24.487 105.096C15.445 111.642 -0.163585 81.8797 8.63773 74.8271C17.439 67.7746 22.9742 80.8336 22.9742 80.8336L23.4899 91.6318L24.7964 101.89L25.2777 105.062H24.487V105.096Z" class="skin" fill="#FCCBAE"/>
<path d="M11.4219 84.0182C11.4219 84.0182 17.5331 81.9978 21.8752 90.8688" stroke="#BA754D" stroke-width="2" stroke-linecap="square" stroke-linejoin="round"/>
<path d="M18.0746 86.5991C18.0746 86.5991 12.2577 90.0485 16.6642 95.289" stroke="#BA754D" stroke-width="2" stroke-linecap="square" stroke-linejoin="round"/>
<path d="M106.311 66.6951C106.311 85.1195 103.801 101.013 101.326 112.317C98.8851 123.352 92.0091 133.003 82.3139 139.245L80.5605 140.393C70.2809 146.973 57.0445 147.108 46.593 140.798C36.0726 134.42 28.7153 124.06 26.4462 112.182C22.3206 90.6198 21.8736 66.7288 21.8736 66.7288C21.8736 66.7288 17.9543 20.1954 63.4736 21.1065C108.993 22.0176 106.277 66.7288 106.277 66.7288L106.311 66.6951Z" class="skin" fill="#FCCBAE"/>
<path d="M59.3152 119.012L59.0352 116.202C59.2452 116.182 64.1552 115.702 67.5552 116.202L67.1351 118.992C64.0851 118.532 59.3652 118.992 59.3152 118.992V119.012Z" fill="#BA754D"/>
<path d="M75.548 115.976C75.548 115.976 71.1463 112.506 64.1035 112.506H64.0864C57.3001 112.506 52.3514 115.627 52.3001 115.654L51.0352 113.499C51.2574 113.356 56.5822 109.976 64.0864 109.976H64.1035C72.0181 109.976 76.83 113.812 77.0352 113.973L75.5565 115.967L75.548 115.976Z" fill="#BA754D"/>
<path d="M60.3203 85.021C60.3203 85.021 61.9846 89.3181 61.9585 92.1897C61.9334 94.9514 60.3203 99.0694 60.3203 99.0694C60.3203 99.5429 60.4168 99.9849 60.5776 100.395C61.2531 102.037 63.1508 102.795 64.8876 102.353L68.6187 101.374" stroke="#CA8A64" stroke-width="2.5" stroke-linecap="square" stroke-linejoin="round"/>
<path d="M44.943 84.2075C47.1266 84.2075 48.8967 82.4701 48.8967 80.3269C48.8967 78.1837 47.1266 76.4463 44.943 76.4463C42.7594 76.4463 40.9893 78.1837 40.9893 80.3269C40.9893 82.4701 42.7594 84.2075 44.943 84.2075Z" class="hair" fill="#684B47"/>
<path d="M81.5582 84.2075C83.7418 84.2075 85.5119 82.4701 85.5119 80.3269C85.5119 78.1837 83.7418 76.4463 81.5582 76.4463C79.3746 76.4463 77.6045 78.1837 77.6045 80.3269C77.6045 82.4701 79.3746 84.2075 81.5582 84.2075Z" class="hair" fill="#684B47"/>
<path d="M56.5351 74.3136L57.0351 69.5517L41.368 64.9009C39.4288 64.9009 37.5269 65.5358 36.0352 66.6152L29.8818 72.6787L40.1374 71.3771L56.5351 74.3453V74.3136Z" class="hair" fill="#684B47"/>
<path d="M69.499 74.2819L69.5348 69.3137L85.5348 65.6152C87.3971 65.6152 89.2235 66.2502 90.656 67.3295L96.6009 73.393L86.7524 72.0914L69.5348 74.3137L69.499 74.2819Z" class="hair" fill="#684B47"/>
</svg>
