<svg width="130" height="210" viewBox="0 0 130 210" fill="none" xmlns="http://www.w3.org/2000/svg">
<path d="M65.7959 202.093C49.3278 202.093 35.9883 189 35.9883 172.837V110.578H95.6034V172.837C95.6034 189 82.2639 202.093 65.7959 202.093Z" class="skin" fill="#FCCBAE"/>
<path d="M34.4928 129.902C34.4928 129.902 46.629 155.177 65.4229 154.902C94.4908 154.513 95.8944 119.913 95.8944 119.913C95.8944 119.913 83.1605 142.66 65.4229 141.515C45.6268 140.237 40.4927 119.913 40.4927 119.913L34.4928 129.902Z" fill="#CA8A64"/>
<path d="M20.7135 86.4601L19.4502 56.7458C16.7204 37.6283 32.29 28.5135 45.4361 29.2649L90.9156 31.8642C104.851 32.6607 120.864 43.5128 112.576 64.4004L106.685 96.3759L20.7478 86.462L20.7135 86.4601Z" class="hair" fill="#684B47"/>
<path d="M102.922 107.416C111.575 114.468 128.857 85.6443 120.472 78.101C112.088 70.5577 105.549 83.1292 105.549 83.1292L104.72 94.0328L102.83 104.2L102.134 107.337L102.924 107.382L102.922 107.416Z" class="skin" fill="#FCCBAE"/>
<path d="M116.291 87.1344C116.291 87.1344 111.026 83.9651 106.684 92.8361" stroke="#BA754D" stroke-width="2" stroke-linecap="square" stroke-linejoin="round"/>
<path d="M109.344 89.759C109.344 89.759 115.455 93.1646 111.048 98.4051" stroke="#BA754D" stroke-width="2" stroke-linecap="square" stroke-linejoin="round"/>
<path d="M24.215 102.919C14.8142 108.938 0.929341 78.3338 10.1187 71.795C19.3081 65.2561 24.0892 78.6097 24.0892 78.6097L23.9879 89.4197L24.7069 99.7358L25.0064 102.93L24.2169 102.885L24.215 102.919Z" class="skin" fill="#FCCBAE"/>
<path d="M12.4492 81.1359C12.4492 81.1359 18.5604 79.1154 22.9026 87.9864" stroke="#BA754D" stroke-width="2" stroke-linecap="square" stroke-linejoin="round"/>
<path d="M19.1019 83.7166C19.1019 83.7166 13.285 87.1659 17.6915 92.4064" stroke="#BA754D" stroke-width="2" stroke-linecap="square" stroke-linejoin="round"/>
<path d="M108.099 69.2493C107.048 87.6437 103.635 103.368 100.519 114.513C97.452 125.39 90.0365 134.633 80.0009 140.312L78.1849 141.357C67.5465 147.34 54.324 146.72 44.2496 139.824C34.1103 132.856 27.356 122.094 25.7684 110.105C22.8799 88.3425 23.7969 64.4649 23.7969 64.4649C23.7969 64.4649 22.5391 17.7837 67.9323 21.2906C113.325 24.7976 108.063 69.281 108.063 69.281L108.099 69.2493Z" class="skin" fill="#FCCBAE"/>
<path d="M60.3477 85.0203C60.3477 85.0203 62.012 89.3174 61.9858 92.189C61.9607 94.9506 60.3477 99.0686 60.3477 99.0686C60.3477 99.5422 60.4441 99.9841 60.605 100.395C61.2804 102.036 63.1781 102.794 64.915 102.352L68.646 101.373" stroke="#CA8A64" stroke-width="2.5" stroke-linecap="square" stroke-linejoin="round"/>
<path d="M45.8296 83.2315C48.0096 83.3561 49.876 81.7225 49.9983 79.5828C50.1206 77.4431 48.4525 75.6075 46.2725 75.4829C44.0925 75.3583 42.2261 76.9919 42.1038 79.1316C41.9815 81.2713 43.6496 83.1069 45.8296 83.2315Z" fill="#684B47"/>
<path d="M82.3853 85.3208C84.5653 85.4454 86.4317 83.8119 86.554 81.6722C86.6763 79.5324 85.0081 77.6969 82.8281 77.5723C80.6481 77.4477 78.7817 79.0813 78.6594 81.221C78.5371 83.3607 80.2053 85.1962 82.3853 85.3208Z"  fill="#684B47"/>
<path d="M71.4872 65.4053L73.2046 61.5262L86.7382 62.6872C88.4556 63.1837 89.9734 64.2467 91.0114 65.6078L95.6251 72.3231L85.8698 67.759L71.4788 65.4341L71.4872 65.4053Z" class="hair" fill="#684B47"/>
<path d="M58.5157 69.4649L58.6265 67.5265L44.5889 64.899C42.8041 64.797 41.015 65.3708 39.5766 66.4377L33.5111 72.5468L41.6409 70.5037L58.4016 71.4617L58.5157 69.4649Z" class="hair" fill="#684B47"/>
<path d="M53.3035 111.819C53.3035 111.819 64.9578 110.843 75.6649 115.321" stroke="#BA754D" stroke-width="2.5" stroke-linecap="square" stroke-linejoin="round"/>
<path d="M59.8462 118.732C59.8462 118.732 65.1605 118.877 68.1619 120.108" stroke="#BA754D" stroke-width="2.5" stroke-linecap="square" stroke-linejoin="round"/>
<path fill-rule="evenodd" clip-rule="evenodd" d="M63.0626 65.3255C63.422 65.1195 63.8803 65.2438 64.0863 65.6032C65.2129 67.5685 64.7557 69.432 63.6915 70.7687C61.5389 72.8792 59.5992 71.7667 59.5992 71.7667C59.5992 71.7667 61.7318 70.8219 62.518 69.8344C63.267 68.8936 63.5551 67.6927 62.7849 66.3491C62.5789 65.9898 62.7033 65.5315 63.0626 65.3255Z" fill="#BA754D"/>
</svg>
