<svg width="130" height="210" viewBox="0 0 130 210" fill="none" xmlns="http://www.w3.org/2000/svg">
<path d="M64.7834 202.042C48.3092 202.042 34.9648 188.945 34.9648 172.775V110.494H94.6019V172.775C94.6019 188.945 81.2575 202.042 64.7834 202.042Z" class="skin" fill="#FCCBAE"/>
<path d="M34.9648 130.275C34.9648 130.275 51.3702 160.218 70.1143 158.732C99.1074 156.471 94.2924 121.195 94.2924 121.195C94.2924 121.195 83.0459 144.723 65.2649 144.723C45.4203 144.723 34.9648 130.242 34.9648 130.242V130.275Z" fill="#DFB095"/>
<path d="M20.2781 88.8887L17.3203 59.284C13.5027 40.3465 28.5323 30.3545 41.7048 30.3545H87.2752C101.239 30.3545 117.85 40.279 110.765 61.6132L106.707 93.8847L20.3125 88.8887H20.2781Z" class="hair" fill="#684B47"/>
<path d="M103.576 105.126C112.622 111.675 128.236 81.9013 119.431 74.8462C110.627 67.791 104.814 80.7198 104.814 80.7198L104.608 91.657L103.301 101.919L102.785 105.092H103.576V105.126Z" class="skin" fill="#FCCBAE"/>
<path d="M116.932 83.8655C116.932 83.8655 111.302 80.4765 106.659 89.9622" stroke="#BA754D" stroke-width="2" stroke-linecap="square" stroke-linejoin="round"/>
<path d="M109.504 86.6724C109.504 86.6724 116.039 90.3139 111.327 95.9175" stroke="#BA754D" stroke-width="2" stroke-linecap="square" stroke-linejoin="round"/>
<path d="M24.7145 105.127C15.6692 111.676 0.0548391 81.9021 8.85939 74.8469C17.6639 67.7918 23.2012 80.8556 23.2012 80.8556L23.7171 91.6578L25.024 101.92L25.5055 105.093H24.7145V105.127Z" class="skin" fill="#FCCBAE"/>
<path d="M11.2441 83.8674C11.2441 83.8674 17.7788 81.7069 22.4218 91.1926" stroke="#BA754D" stroke-width="2" stroke-linecap="square" stroke-linejoin="round"/>
<path d="M18.3589 86.627C18.3589 86.627 12.1389 90.3153 16.8507 95.9189" stroke="#BA754D" stroke-width="2" stroke-linecap="square" stroke-linejoin="round"/>
<path d="M106.569 66.7118C106.569 85.143 104.058 101.042 101.582 112.351C99.14 123.389 92.2615 133.044 82.5627 139.289L80.8087 140.437C70.5253 147.019 57.2841 147.154 46.8287 140.842C36.3045 134.462 28.9444 124.098 26.6745 112.216C22.5474 90.6453 22.1002 66.7456 22.1002 66.7456C22.1002 66.7456 18.1795 20.195 63.7155 21.1065C109.252 22.0179 106.534 66.7456 106.534 66.7456L106.569 66.7118Z" class="skin" fill="#FCCBAE"/>
<path d="M60.3242 81.9653C60.3242 81.9653 62.1039 86.5602 62.0759 89.6307C62.049 92.5838 60.3242 96.9871 60.3242 96.9871C60.3242 97.4934 60.4274 97.966 60.5994 98.4049C61.3216 100.16 63.3508 100.97 65.208 100.498L69.1975 99.4513" stroke="#CA8A64" stroke-width="2.5" stroke-linecap="square" stroke-linejoin="round"/>
<path d="M45.5985 83.046C48.0832 83.046 50.0974 80.9133 50.0974 78.2186C50.0974 75.524 48.0832 78.2186 45.5985 78.2186C43.1138 78.2186 41.0996 75.524 41.0996 78.2186C41.0996 80.9133 43.1138 83.046 45.5985 83.046Z" class="hair" fill="#684B47"/>
<path d="M80.9778 83.046C83.4017 83.046 85.3667 80.9133 85.3667 78.2186C85.3667 75.524 83.4017 78.2186 80.9778 78.2186C78.5538 78.2186 76.5889 75.524 76.5889 78.2186C76.5889 80.9133 78.5538 83.046 80.9778 83.046Z" class="hair" fill="#684B47"/>
<path d="M55.2218 71.4365L55.3594 63.875L41.052 64.1113C39.2635 64.1113 37.5095 64.7864 36.1338 65.9342L30.459 72.3817L39.917 70.9977L55.2218 71.4703V71.4365Z" class="hair" fill="#684B47"/>
<path d="M71.9706 71.4365L71.833 63.875L86.1404 64.1113C87.9288 64.1113 89.6829 64.7864 91.0586 65.9342L96.7678 72.3817L87.3097 70.9977L72.005 71.4703L71.9706 71.4365Z" class="hair" fill="#684B47"/>
<path d="M50.0967 107.234C60.5753 112.246 66.6838 111.903 77.8982 107.234" stroke="#BA754D" stroke-width="2" stroke-linecap="square"/>
<path d="M59.1855 115.254C62.942 116.466 65.0525 116.618 68.8091 115.254" stroke="#BA754D" stroke-width="2" stroke-linecap="square"/>
</svg>
