<svg width="130" height="210" viewBox="0 0 130 210" fill="none" xmlns="http://www.w3.org/2000/svg">
<path d="M65.0041 202.042C48.5299 202.042 35.1855 188.945 35.1855 172.775V110.494H94.8226V172.775C94.8226 188.945 81.4782 202.042 65.0041 202.042Z" class="skin" fill="#FCCBAE"/>
<path d="M35.1855 130.275C35.1855 130.275 51.5909 160.218 70.335 158.732C99.3281 156.471 94.5131 121.195 94.5131 121.195C94.5131 121.195 83.2666 144.723 65.4856 144.723C45.641 144.723 35.1855 130.242 35.1855 130.242V130.275Z" fill="#DFB095"/>
<path d="M20.4988 88.8887L17.541 59.284C13.7234 40.3465 28.753 30.3545 41.9255 30.3545H87.4959C101.459 30.3545 118.071 40.279 110.986 61.6132L106.928 93.8847L20.5332 88.8887H20.4988Z" class="hair" fill="#684B47"/>
<path d="M103.797 105.126C112.842 111.675 128.457 81.9013 119.652 74.8462C110.847 67.791 105.035 80.7198 105.035 80.7198L104.829 91.657L103.522 101.919L103.006 105.092H103.797V105.126Z" class="skin" fill="#FCCBAE"/>
<path d="M117.768 83.6682C117.768 83.6682 112.138 80.2792 107.495 89.7649" stroke="#BA754D" stroke-width="2" stroke-linecap="square" stroke-linejoin="round"/>
<path d="M110.34 86.4751C110.34 86.4751 116.874 90.1166 112.163 95.7203" stroke="#BA754D" stroke-width="2" stroke-linecap="square" stroke-linejoin="round"/>
<path d="M24.9352 105.127C15.8899 111.676 0.275542 81.9021 9.08009 74.8469C17.8846 67.7918 23.4219 80.8556 23.4219 80.8556L23.9378 91.6578L25.2447 101.92L25.7262 105.093H24.9352V105.127Z" class="skin" fill="#FCCBAE"/>
<path d="M11.7607 83.8674C11.7607 83.8674 18.2954 81.7069 22.9384 91.1926" stroke="#BA754D" stroke-width="2" stroke-linecap="square" stroke-linejoin="round"/>
<path d="M18.8755 86.627C18.8755 86.627 12.6555 90.3153 17.3673 95.9189" stroke="#BA754D" stroke-width="2" stroke-linecap="square" stroke-linejoin="round"/>
<path d="M106.79 66.7118C106.79 85.143 104.279 101.042 101.803 112.351C99.3607 123.389 92.4822 133.044 82.7834 139.289L81.0294 140.437C70.746 147.019 57.5048 147.154 47.0494 140.842C36.5252 134.462 29.1651 124.098 26.8952 112.216C22.7681 90.6453 22.3209 66.7456 22.3209 66.7456C22.3209 66.7456 18.4002 20.195 63.9362 21.1065C109.472 22.0179 106.755 66.7456 106.755 66.7456L106.79 66.7118Z" class="skin" fill="#FCCBAE"/>
<path d="M64.5825 107.787C69.9824 108.001 77.803 110.146 77.803 119.62C77.7282 123.513 71.6078 129.836 64.5825 129.462C57.5573 129.088 50.7741 124.272 50.6992 119.62C50.6995 109.784 58.9581 107.563 64.5825 107.798V107.787Z" fill="#AE5655"/>
<path d="M69.8484 125.772C67.5091 125.193 61.0543 125.422 57.376 127.379C59.0868 128.63 61.8821 129.311 64.6516 129.461C67.421 129.611 70.2698 128.741 72.9581 126.808C71.0638 126.157 70.5083 125.967 69.8484 125.772Z" fill="#D97F7E"/>
<path d="M72.9155 110.054C71.2367 108.749 68.3914 107.889 63.8231 107.713C58.6676 107.951 56.8461 108.861 54.8994 110.339C58.8237 110.296 66.4053 110.246 70.3296 110.054H72.9155Z" fill="white"/>
<path d="M60.8408 81.9653C60.8408 81.9653 62.6205 86.5602 62.5925 89.6307C62.5656 92.5838 60.8408 96.9871 60.8408 96.9871C60.8408 97.4934 60.944 97.966 61.116 98.4049C61.8382 100.16 63.8674 100.97 65.7246 100.498L69.7141 99.4513" stroke="#CA8A64" stroke-width="2.5" stroke-linecap="square" stroke-linejoin="round"/>
<path d="M45.672 84.231C47.8563 84.231 49.6271 82.0465 49.6271 79.3518C49.6271 76.6571 47.8563 74.4727 45.672 74.4727C43.4876 74.4727 41.7168 76.6571 41.7168 79.3518C41.7168 82.0465 43.4876 84.231 45.672 84.231Z" class="hair" fill="#684B47"/>
<path d="M82.0284 84.231C84.2128 84.231 85.9836 82.0465 85.9836 79.3518C85.9836 76.6571 84.2128 74.4727 82.0284 74.4727C79.844 74.4727 78.0732 76.6571 78.0732 79.3518C78.0732 82.0465 79.844 84.231 82.0284 84.231Z" class="hair" fill="#684B47"/>
<path d="M55.777 66.508L54.9852 60.8999L40.8076 62.837C39.0318 63.0498 37.3706 63.9288 36.1412 65.2321L31.2739 72.3091L40.5001 69.8095L55.781 66.5415L55.777 66.508Z" class="hair" fill="#684B47"/>
<path d="M71.9392 66.4919L72.7508 60.6886L86.8919 62.8761C88.6636 63.1203 90.309 64.0286 91.5151 65.3534L96.2906 72.52L87.1101 69.8576L71.9687 66.5301L71.9392 66.4919Z" class="hair" fill="#684B47"/>
</svg>
