<svg width="245" height="254" viewBox="0 0 245 254" fill="none" xmlns="http://www.w3.org/2000/svg">
<path d="M58.2902 141.69C56.2902 113.69 61.4225 100.34 69.8655 95.0284C111.168 129.435 126.295 173.474 126.532 173.164C127.246 172.164 113.701 78.8214 113.865 78.5284C113.967 79.022 135.865 76.5284 135.865 76.5284C135.865 76.5284 173.742 219.575 165.997 238.201C164.11 242.738 153.036 248.754 147.06 247.529C125.091 243.006 63.2902 163.19 58.2902 141.69Z" class="skin" fill="#F3A396"/>
<path d="M127.386 173.652C127.386 173.652 126.411 172.669 124.865 171.028C128.902 186.255 129.961 190.728 130.007 191.028L130.936 190.977L131.865 190.932C131.835 190.672 130.746 186.072 127.371 173.331C127.394 173.52 127.394 173.632 127.379 173.652H127.386Z" fill="#D26665"/>
<path d="M113.956 79.057L112.667 72.0503C112.667 72.0503 105.636 69.4594 100.818 63.2326C95.9976 56.9947 99.0757 43.1024 98.5033 41.7643C98.0351 40.6632 92.3367 38.8819 94.1762 35.5663C96.0143 32.2395 101.769 32.8761 103.321 34.4088C104.594 35.6696 106.341 40.8404 106.341 40.8404C106.341 40.8404 102.997 9.13934 107.368 7.22102C112.569 4.18907 112.608 29.2632 113.689 28.5008C114.768 27.7271 112.088 1.5637 117.148 2.28605C120.039 1.57887 120.943 5.70744 120.943 5.70744C120.943 5.70744 122.001 2.65045 124.395 3.48455C127.74 4.94618 128.667 19.5521 128.667 19.5521C128.667 19.5521 127.898 7.27292 131.073 6.97332C135.678 5.70744 138.298 25.3403 139.139 35.5856C139.98 45.8309 140.759 60.7024 139.294 63.7089C137.991 66.3993 134.644 68.9501 134.644 68.9501L135.854 76.5436L113.98 79.0768L113.956 79.057Z" class="skin" fill="#F3A396"/>
<path d="M118.438 51.8421C119.362 54.2846 119.131 55.0533 119.122 55.0658C119.122 55.0658 119.181 55.6588 119.397 55.7998L120.29 56.3818L120.967 56.823C121.528 56.3084 122.233 54.8427 120.734 50.8803C119.398 47.3637 113.89 47.9244 109.87 48.3422C109.274 48.4064 108.572 48.4725 108.108 48.497C107.666 46.767 106.992 41.6879 106.607 38.8132C106.081 34.83 105.903 33.5899 105.678 33.0723C106.002 37.5587 106.349 40.8023 106.349 40.8023C106.349 40.8023 104.756 36.0898 103.502 34.5649C103.657 35.4553 103.913 37.3909 104.144 39.1362C105.473 49.1264 105.799 50.2795 106.613 50.8476C107.241 51.2801 108.089 51.1955 110.151 50.9799C112.245 50.7605 117.815 50.1918 118.438 51.8421Z" fill="#D26665"/>
<path d="M134.145 35.8281C123.863 34.6156 109.852 38.05 109.707 38.0796L109.104 35.4941C109.69 35.3516 123.672 31.9325 134.374 33.1942L134.147 35.8393L134.145 35.8281Z" fill="#D26665"/>
<path d="M114.278 18.8C114.282 18.5833 114.246 18.2125 114.141 17.054C114.103 16.5811 114.056 16.132 114.022 15.6927C113.901 21.9418 114.223 28.0893 113.689 28.4755C113.115 28.8893 112.598 22.2887 111.577 16.3206C111.605 16.6243 111.634 16.9391 111.653 17.2552C111.714 17.9072 111.768 18.583 111.772 18.6963C111.757 19.5854 112.958 31.9237 113.329 35.6876L115.802 35.4541C115.21 29.4319 114.259 19.5759 114.255 18.7914L114.278 18.8Z" fill="#D26665"/>
<path d="M119.547 2.94673C119.547 2.94673 119.551 2.98033 119.554 3.00272C119.403 3.56788 119.145 4.96559 119.08 8.05655C118.991 11.9583 121.265 33.3635 121.359 34.273L123.83 34.0172C123.801 33.7932 121.484 11.8816 121.565 8.16293C121.618 5.90382 121.774 4.7011 121.864 4.15506C121.239 4.83698 120.963 5.66829 120.963 5.66829C120.963 5.66829 120.589 3.9751 119.557 2.94541L119.547 2.94673Z" fill="#D26665"/>
<path d="M130.839 33.4254C130.128 25.6322 129.275 13.193 129.558 8.47054C128.19 11.8288 128.663 19.5042 128.663 19.5042C128.663 19.5042 128.233 13.3363 127.085 8.6243C126.743 15.5611 128.172 31.5448 128.361 33.6253L130.838 33.4143L130.839 33.4254Z" fill="#D26665"/>
<path d="M21.4455 138.296C11.2519 122.782 15.822 101.799 31.601 91.4307C45.6326 82.2108 63.7729 84.4567 74.8004 95.9092L122.976 142.636L75.7718 191.747L28.2659 145.864C25.699 143.774 23.3871 141.251 21.4628 138.322L21.4455 138.296Z" class="top" fill="#EDF5FF"/>
</svg>
