<svg width="245" height="254" viewBox="0 0 245 254" fill="none" xmlns="http://www.w3.org/2000/svg">
<path d="M176.039 150.005C175.812 150.294 130.433 203.589 128.221 205.014C126.018 206.432 87.2127 92.1672 67.8759 96.2942C61.9091 114.55 54.0603 143.392 56.9335 161.464C81.4649 215.458 115.674 256.877 128.221 253.176C144.76 248.286 190.558 163.673 190.558 163.673L176.039 150.014V150.005Z" class="skin" fill="#F3A396"/>
<path d="M128.232 204.97C128.014 205.11 127.505 204.364 126.885 202.945C122.226 209.699 120.567 212.124 120.375 212.369L121.398 212.946L122.412 213.532C122.595 213.322 124.644 210.621 129.138 204.113C128.779 204.559 128.372 204.891 128.232 204.978V204.97Z" fill="#D26665"/>
<path d="M181.608 139.978C181.883 139.219 185.729 131.956 197.246 125.939C208.774 119.921 232.772 123.123 232.245 127.231C231.718 131.34 208.879 131.671 208.879 131.671C208.879 131.671 223.977 143.192 227.978 141.177C231.99 139.172 234.82 126.435 239.752 125.46C244.683 124.485 240.687 135.771 240.687 135.771C240.687 135.771 243.07 137.715 243.219 143.43C243.31 147.014 226.333 170.763 215.681 169.52C205.029 168.276 195.192 157.991 195.192 157.991L190.483 163.923C190.483 163.923 175.521 151.268 175.673 150.771C175.825 150.274 181.598 139.99 181.598 139.99L181.608 139.978Z" class="skin" fill="#F3A396"/>
<path d="M214.652 164.205L214.831 161.232C216.172 161.314 217.352 158.772 218.494 156.306C220.144 152.727 222.211 148.275 226.623 148.402C226.771 148.405 226.911 148.428 227.06 148.441C227.326 147.895 229.624 143.408 233.265 142.327C233.293 142.261 233.311 142.207 233.339 142.142C234.163 140.045 235.865 135.699 239.083 134.472C239.779 134.209 240.484 134.105 241.209 134.158C240.935 135.119 240.707 135.759 240.707 135.759C240.707 135.759 241.265 136.226 241.86 137.349C241.034 137.014 240.489 137.131 240.146 137.257C238.34 137.945 236.999 141.017 236.303 142.746C236.692 143.053 237.089 143.497 237.445 144.135C238.357 145.782 238.857 148.556 238.821 151.606C237.78 153.068 236.596 154.613 235.306 156.174C235.986 153.235 236.031 149.973 235.508 147.539C235.148 145.892 234.664 145.241 234.476 145.103C232.423 145.391 230.45 148.521 229.742 149.868C230.108 150.325 230.416 150.87 230.623 151.517C231.489 154.207 230.714 158.605 229.207 162.654C227.434 164.285 225.619 165.76 223.818 166.915C226.405 163.007 228.822 155.614 227.789 152.434C227.517 151.579 227.103 151.391 226.551 151.38C224.275 151.299 222.907 153.895 221.219 157.55C219.662 160.921 218.049 164.402 214.673 164.204L214.652 164.205Z" fill="#D26665"/>
<path d="M213.019 134.629C212.014 134.124 210.033 132.9 205.588 129.992L207.217 127.498C209.544 129.02 212.122 130.666 213.518 131.509C210.788 131.646 208.88 131.671 208.88 131.671C208.88 131.671 210.589 132.974 213.019 134.629Z" fill="#D26665"/>
<path d="M189.519 157.14L191.48 154.903C192.911 156.158 193.986 156.956 195.202 157.98L193.666 160.787C192.64 159.922 191.408 158.804 189.519 157.15L189.519 157.14Z" fill="#D26665"/>
<path d="M21.4455 138.359C11.2519 122.846 15.822 101.862 31.601 91.494C45.6326 82.2741 63.7729 84.52 74.8004 95.9725L122.976 142.699L73.1836 193.566L28.2659 145.928C25.699 143.837 23.3871 141.314 21.4628 138.385L21.4455 138.359Z" class="top" fill="#EDF5FF"/>
</svg>
