<svg width="245" height="254" viewBox="0 0 245 254" fill="none" xmlns="http://www.w3.org/2000/svg">
<path d="M167.431 142.517C167.204 142.806 121.824 196.1 119.612 197.526C117.41 198.943 78.6043 84.679 59.2675 88.8059C53.3007 107.061 45.4519 135.904 48.3251 153.975C72.8565 207.97 107.065 249.389 119.612 245.687C136.152 240.797 181.949 156.185 181.949 156.185L167.431 142.526V142.517Z" class="skin" fill="#F3A396"/>
<path d="M119.624 197.482C119.406 197.622 118.896 196.876 118.277 195.458C113.617 202.211 111.959 204.636 111.766 204.881L112.789 205.458L113.803 206.045C113.987 205.835 116.036 203.133 120.529 196.625C120.171 197.071 119.764 197.403 119.624 197.491V197.482Z" fill="#D26665"/>
<path d="M165.322 140.102C165.322 140.102 166.986 123.798 181.281 118.699C188.5 116.129 200.033 118.848 200.033 118.848C200.033 118.848 235.873 119.027 236.316 124.216C236.75 129.405 213.703 126.955 213.703 126.955C213.703 126.955 217.393 128.877 217.01 132.015C216.617 135.152 214.278 135.291 214.278 135.291C214.278 135.291 216.95 136.307 217.01 138.797C217.071 141.297 213.411 142.273 213.411 142.273C213.411 142.273 217 145.49 215.165 149.533C213.32 153.587 202.634 159.513 195.567 159.593C188.5 159.672 172.692 156.844 172.692 156.844L165.332 140.102H165.322Z" class="skin" fill="#F3A396"/>
<path d="M198.017 139.449C197.701 139.548 197.394 139.637 197.088 139.707C196.534 139.826 196.011 139.885 195.526 139.885C194.252 139.885 193.244 139.468 192.611 138.655C190.941 136.482 192.275 132.871 193.244 130.877L190.17 129.557C190.091 133.01 188.767 137.673 184.044 139.082L183.322 136.641C188.5 135.093 187.581 128.069 187.542 127.771L187.226 125.529L196.841 129.646L196.11 130.897C195.023 132.762 193.797 136.016 194.627 137.107C194.766 137.286 195.408 137.474 196.544 137.226C198.906 136.71 202.592 134.419 203.393 130.936C204.282 127.087 199.094 120.569 197.088 118.594C199.084 118.902 200.388 119.219 200.388 119.219C200.388 119.219 200.626 119.219 201.07 119.219C201.13 119.279 201.179 119.338 201.238 119.398C202.039 120.291 203.877 122.503 205.033 125.202C207.869 124.944 216.674 126.978 219.322 127.702C216.15 127.533 213.788 127.275 213.788 127.275C213.788 127.275 215.577 128.228 216.506 129.885C213.531 129.091 207.889 127.672 205.833 127.672C206.1 128.922 206.15 130.212 205.863 131.492C205.784 131.829 205.685 132.157 205.567 132.484C206.851 132.98 211.654 133.694 216.387 134.23C215.577 135.5 214.352 135.579 214.352 135.579C214.352 135.579 215.29 135.946 216.051 136.77C208.551 135.946 205.626 135.252 204.4 134.726C203.659 135.788 202.74 136.73 201.722 137.494C201.505 137.712 200.092 139.22 200.715 140.272C201.258 141.205 202.029 141.473 202.464 141.552C207.306 140.52 214.075 141.244 215.715 141.453C214.717 142.217 213.512 142.544 213.512 142.544C213.512 142.544 214.055 143.04 214.609 143.893C211.654 143.586 206.426 143.298 202.958 144.032V144.131C202.898 144.131 202.829 144.131 202.76 144.131C202.691 144.131 202.622 144.131 202.543 144.131C201.614 144.36 200.833 144.677 200.299 145.094C199.835 145.461 199.746 145.788 199.726 145.997C199.667 146.503 199.805 146.919 200.161 147.326C201.811 149.211 207.355 149.995 210.458 150.044L210.419 152.594C209.48 152.584 201.179 152.366 198.244 149.013C197.414 148.07 197.048 146.919 197.187 145.709C197.305 144.687 197.829 143.784 198.718 143.09C198.906 142.941 199.124 142.802 199.341 142.673C199.035 142.365 198.748 142.008 198.501 141.582C198.086 140.877 197.957 140.153 197.997 139.459L198.017 139.449Z" fill="#D26665"/>
<path d="M21.0266 137.275C11.4925 121.348 16.9385 100.574 33.1382 90.877C47.5442 82.2536 65.4359 86.3073 76.1119 97.163L115.801 152.043L69.7543 194.51L27.5236 145.123C25.0467 142.926 22.8426 140.309 21.0428 137.302L21.0266 137.275Z" class="top" fill="#EDF5FF"/>
</svg>
