<svg width="215" height="243" viewBox="0 0 215 243" fill="none" xmlns="http://www.w3.org/2000/svg">
<path d="M67.3134 161.745C21.0127 86.9768 58.4789 28.2255 104.887 30.8774C191.577 35.8309 151.061 119.679 164.129 161.745H67.3134Z" class="hair" fill="black" class="hair" class="hair" fill="black"/>
<path d="M54.7605 108.388C53.8888 100.094 58.3873 92.8232 64.8081 92.1483C71.2289 91.4735 77.1407 97.6498 78.0124 105.944C78.8842 114.237 74.3857 121.508 67.9649 122.183C61.544 122.858 55.6322 116.681 54.7605 108.388Z" fill="#976449"/>
<path d="M68.4096 119.011C68.4596 117.291 68.8497 102.101 66.0697 97.6611L63.7797 99.0911C65.7697 102.261 65.8497 114.481 65.7097 118.921L68.4096 119.001V119.011Z" fill="#311911"/>
<path d="M60.9221 107.303L67.5605 109.292L66.7827 111.888L60.1443 109.899L60.9221 107.303Z" fill="#311911"/>
<path d="M167.711 109.995C168.583 101.701 164.084 94.4306 157.664 93.7557C151.243 93.0809 145.331 99.2573 144.459 107.551C143.588 115.845 148.086 123.115 154.507 123.79C160.928 124.465 166.839 118.289 167.711 109.995Z" fill="#976449"/>
<path d="M154.062 118.002C154.012 116.282 153.622 101.092 156.402 96.6523L158.692 98.0824C156.702 101.252 156.622 113.472 156.762 117.912L154.062 117.992V118.002Z" fill="#311911"/>
<path d="M161.551 106.294L154.912 108.283L155.69 110.879L162.328 108.89L161.551 106.294Z" fill="#311911"/>
<path d="M133.112 168.492C131.242 165.522 130.592 148.292 130.592 148.292L112.742 149.122L94.952 150.782C94.952 150.782 96.7019 167.932 95.2619 171.142C93.8219 174.342 80.252 180.192 80.252 180.192C84.472 196.762 105.272 205.832 117.782 204.442C132.992 202.762 149.752 189.592 151.052 175.642C151.052 175.642 134.982 171.472 133.102 168.502L133.112 168.492Z" fill="#976449"/>
<path d="M131.372 159.632C131.122 157.212 130.942 154.732 130.822 152.702C128.452 153.822 122.623 156.102 113.283 156.752C101.813 157.552 96.0825 155.112 95.3125 154.752C95.4625 156.622 95.6225 158.942 95.7325 161.262C98.7125 164.722 104.853 170.162 114.173 169.512C122.783 168.912 128.392 163.482 131.372 159.642V159.632Z" fill="#311911"/>
<path d="M67.072 75.102C67.072 75.102 73.092 42.092 109.882 41.452C146.682 41.172 153.522 74.022 153.522 74.022C153.522 74.022 156.422 110.912 145.582 135.972C139.612 149.782 126.512 160.572 111.402 160.822C96.292 160.952 82.872 150.492 76.552 136.832C65.092 112.052 67.072 75.102 67.072 75.102Z" fill="#976449"/>
<path d="M100.475 89.3694C101.472 87.7555 101.266 86.9435 100.603 85.5213C99.9412 84.0991 87.2231 85.6415 87.2231 85.6415C85.5506 85.6415 83.9102 85.9851 82.6236 86.5692L76.292 90.866L86.1617 89.146L100.475 89.3865V89.3694Z" fill="#311911"/>
<path d="M119.624 89.3694C118.627 87.7555 118.833 86.9435 119.495 85.5213C120.157 84.0991 132.876 85.6415 132.876 85.6415C134.548 85.6415 136.188 85.9851 137.475 86.5692L143.807 90.866L133.937 89.146L119.624 89.3865V89.3694Z" fill="#311911"/>
<circle cx="84.1602" cy="108.586" r="10.0146" fill="#A56B5E"/>
<circle cx="136.47" cy="107.837" r="10.0146" fill="#A56B5E"/>
<path d="M112.743 97.9453C113.317 104.719 115.652 107.609 115.652 110.878C115.652 114.148 111.047 113.112 111.047 113.112" stroke="#311911" stroke-width="2.5"/>
<path d="M112.102 149.272C110.582 149.292 109.592 149.082 109.512 149.062L110.062 146.562C110.062 146.562 113.462 147.252 117.302 145.592L118.322 147.942C115.932 148.972 113.722 149.252 112.102 149.272Z" fill="#311911"/>
<path d="M127.992 125.611C125.352 122.921 119.152 123.041 111.422 123.141C104.012 123.231 98.7017 125.021 95.4717 126.971C92.1317 128.981 94.4717 144.131 111.682 143.921C128.382 143.721 130.442 128.101 127.992 125.611Z" fill="#4D3A37"/>
<path d="M111.422 123.142C106.212 123.202 102.052 124.112 98.9121 125.322C99.0021 126.712 99.2421 128.052 100.032 128.372C100.952 128.742 106.822 128.522 111.832 128.432C116.352 128.352 123.252 127.792 123.842 126.952C124.082 126.612 124.182 125.202 124.272 123.772C121.072 123.012 116.592 123.082 111.422 123.142Z" fill="white"/>
<path d="M101.691 141.782C104.241 143.122 107.521 143.972 111.681 143.922C115.851 143.872 119.111 142.862 121.611 141.332C120.791 139.902 118.261 138.552 111.221 139.122C105.111 139.622 102.591 140.722 101.691 141.782Z" fill="#9E6275"/>
<path d="M132.136 104.43C129.907 104.43 128.099 102.429 128.099 99.9598C128.099 97.4909 131.389 95.4121 133.619 95.4121C135.66 95.8933 136.174 96.4036 137.47 97.5922C136.174 98.5665 136.174 99.0474 136.174 99.9597V99.9598C136.174 102.429 134.366 104.43 132.136 104.43Z" fill="#340C00"/>
<path d="M88.4319 104.43C90.6617 104.43 92.4694 102.429 92.4694 99.9598C92.4694 97.4909 89.1792 95.4121 86.9493 95.4121C84.9084 95.8933 84.3944 96.4036 83.0986 97.5922C84.3944 98.5665 84.3944 99.0474 84.3944 99.9597V99.9598C84.3944 102.429 86.2021 104.43 88.4319 104.43Z" fill="#340C00"/>
<path d="M63.3799 77.5148C66.472 43.0816 89.0143 33.8386 107.27 33.8386C154.362 31.6731 158.016 74.7609 154.938 89.5535L152.406 111.644L146.135 89.553L140.552 73.4741V83.0989H125.092L120.797 73.4741V83.0989H107.27V63.3151L98.8954 83.0989H77.2083L75.2758 75.3454L70.9096 91.2297L69.5284 107.903L63.3799 77.5148Z" class="hair" fill="black"/>
<path d="M75.1107 116.954C74.6973 120.674 69.1967 121.949 66.498 122.122C67.3019 125.796 69.8398 132.905 73.5604 131.94C78.2112 130.734 75.6274 112.303 75.1107 116.954Z" class="hair" fill="black"/>
<path d="M147.741 118.591C148.154 122.312 153.655 123.587 156.354 123.759C155.55 127.434 153.012 134.542 149.291 133.578C144.64 132.372 147.224 113.941 147.741 118.591Z" class="hair" fill="black"/>
<path d="M67.3134 161.745C21.0127 86.9768 58.4789 28.2255 104.887 30.8774C191.577 35.8309 151.061 119.679 164.129 161.745H67.3134Z" class="hair" fill="black" class="hair" class="hair" fill="black"/>
<path class="skin" d="M54.7605 108.388C53.8888 100.094 58.3873 92.8232 64.8081 92.1483C71.2289 91.4735 77.1407 97.6498 78.0124 105.944C78.8842 114.237 74.3857 121.508 67.9649 122.183C61.544 122.858 55.6322 116.681 54.7605 108.388Z" fill="#B2674B"/>
<path d="M68.4096 119.011C68.4596 117.291 68.8497 102.101 66.0697 97.6611L63.7797 99.0911C65.7697 102.261 65.8497 114.481 65.7097 118.921L68.4096 119.001V119.011Z" fill="#773E2A"/>
<path d="M60.9221 107.303L67.5605 109.292L66.7827 111.888L60.1443 109.899L60.9221 107.303Z" fill="#773E2A"/>
<path class="skin" d="M167.711 109.995C168.583 101.701 164.084 94.4306 157.664 93.7557C151.243 93.0809 145.331 99.2573 144.459 107.551C143.588 115.845 148.086 123.115 154.507 123.79C160.928 124.465 166.839 118.289 167.711 109.995Z" fill="#B2674B"/>
<path d="M154.062 118.002C154.012 116.282 153.622 101.092 156.402 96.6523L158.692 98.0824C156.702 101.252 156.622 113.472 156.762 117.912L154.062 117.992V118.002Z" fill="#773E2A"/>
<path d="M161.551 106.294L154.912 108.283L155.69 110.879L162.328 108.89L161.551 106.294Z" fill="#773E2A"/>
<path class="skin" d="M133.112 168.492C131.242 165.522 130.592 148.292 130.592 148.292L112.742 149.122L94.952 150.782C94.952 150.782 96.7019 167.932 95.2619 171.142C93.8219 174.342 80.252 180.192 80.252 180.192C84.472 196.762 105.272 205.832 117.782 204.442C132.992 202.762 149.752 189.592 151.052 175.642C151.052 175.642 134.982 171.472 133.102 168.502L133.112 168.492Z" fill="#B2674B"/>
<path d="M131.372 159.632C131.122 157.212 130.942 154.732 130.822 152.702C128.452 153.822 122.623 156.102 113.283 156.752C101.813 157.552 96.0825 155.112 95.3125 154.752C95.4625 156.622 95.6225 158.942 95.7325 161.262C98.7125 164.722 104.853 170.162 114.173 169.512C122.783 168.912 128.392 163.482 131.372 159.642V159.632Z" fill="#773E2A"/>
<path class="skin" d="M67.072 75.102C67.072 75.102 73.092 42.092 109.882 41.452C146.682 41.172 153.522 74.022 153.522 74.022C153.522 74.022 156.422 110.912 145.582 135.972C139.612 149.782 126.512 160.572 111.402 160.822C96.292 160.952 82.872 150.492 76.552 136.832C65.092 112.052 67.072 75.102 67.072 75.102Z" fill="#B2674B"/>
<path d="M128.034 124.364C125.444 121.664 119.285 121.704 111.615 121.704C103.945 121.704 98.9645 123.414 95.7245 125.314C92.3845 127.264 94.5145 142.334 111.615 142.354C128.195 142.364 130.444 126.884 128.034 124.374V124.364Z" fill="#2D0600"/>
<path d="M111.614 121.704C106.444 121.704 102.294 122.554 99.1641 123.714C99.2441 125.104 99.4641 126.434 100.234 126.754C101.144 127.134 106.974 126.984 111.954 126.964C116.444 126.944 123.304 126.464 123.894 125.644C124.134 125.314 124.254 123.914 124.364 122.494C121.204 121.694 116.754 121.714 111.614 121.714V121.704Z" fill="white"/>
<path d="M101.725 140.094C104.245 141.454 107.485 142.344 111.615 142.344C115.755 142.344 119.005 141.384 121.505 139.894C120.715 138.464 118.215 137.094 111.215 137.574C105.145 137.994 102.625 139.054 101.725 140.094Z" fill="#A06275"/>
<path d="M99.5237 87.6198C100.53 86.0115 100.328 85.1984 99.6739 83.7726C99.0197 82.3467 86.2931 83.8179 86.2931 83.8179C84.6206 83.8086 82.9783 84.143 81.6885 84.7198L75.3329 88.9812L85.2121 87.3164L99.5236 87.637L99.5237 87.6198Z" fill="#311911"/>
<path d="M119.358 88.3427C118.363 86.7274 118.57 85.9157 119.235 84.4944C119.899 83.0732 132.615 84.6338 132.615 84.6338C134.287 84.6362 135.927 84.9821 137.213 85.568L143.538 89.8738L133.671 88.1398L119.358 88.3599L119.358 88.3427Z" fill="#311911"/>
<path d="M112.743 97.9453C113.317 104.719 115.652 107.609 115.652 110.878C115.652 114.148 111.047 113.112 111.047 113.112" stroke="#773E2A" stroke-width="2.5"/>
<path d="M132.915 102.952C135.536 102.952 137.661 103.726 137.661 101.166C137.661 98.6063 135.536 96.5312 132.915 96.5312C130.294 96.5312 128.17 98.6063 128.17 101.166C128.17 103.726 130.294 102.952 132.915 102.952Z" fill="black"/>
<path d="M87.9153 102.952C90.5361 102.952 92.6606 103.726 92.6606 101.166C92.6606 98.6063 90.5361 96.5312 87.9153 96.5312C85.2945 96.5312 83.1699 98.6063 83.1699 101.166C83.1699 103.726 85.2945 102.952 87.9153 102.952Z" fill="black"/>
<path d="M63.3799 77.5148C66.472 43.0816 89.0143 33.8386 107.27 33.8386C154.362 31.6731 158.016 74.7609 154.938 89.5535L152.406 111.644L146.135 89.553L140.552 73.4741V83.0989H125.092L120.797 73.4741V83.0989H107.27V63.3151L98.8954 83.0989H77.2083L75.2758 75.3454L70.9096 91.2297L69.5284 107.903L63.3799 77.5148Z" class="hair" fill="black"/>
<path d="M75.1107 116.954C74.6973 120.674 69.1967 121.949 66.498 122.122C67.3019 125.796 69.8398 132.905 73.5604 131.94C78.2112 130.734 75.6274 112.303 75.1107 116.954Z" class="hair" fill="black"/>
<path d="M147.741 118.591C148.154 122.312 153.655 123.587 156.354 123.759C155.55 127.434 153.012 134.542 149.291 133.578C144.64 132.372 147.224 113.941 147.741 118.591Z" class="hair" fill="black"/>
</svg>
