<svg width="215" height="243" viewBox="0 0 215 243" fill="none" xmlns="http://www.w3.org/2000/svg">
<path d="M67.1689 161.953C20.8682 87.1858 58.3344 28.4345 104.743 31.0864C191.432 36.0399 150.916 119.888 163.984 161.953H67.1689Z" class="hair" fill="black" class="hair" fill="black"/>
<path d="M54.616 108.597C53.7443 100.303 58.2427 93.0322 64.6636 92.3573C71.0844 91.6824 76.9962 97.8588 77.8679 106.153C78.7396 114.446 74.2412 121.717 67.8203 122.392C61.3995 123.067 55.4877 116.89 54.616 108.597Z" fill="#976449"/>
<path d="M68.2651 119.22C68.3151 117.5 68.7051 102.31 65.9251 97.8701L63.6351 99.3001C65.6251 102.47 65.7051 114.69 65.5651 119.13L68.2651 119.21V119.22Z" fill="#311911"/>
<path d="M60.7776 107.512L67.416 109.501L66.6382 112.097L59.9998 110.108L60.7776 107.512Z" fill="#311911"/>
<path d="M167.567 110.204C168.438 101.91 163.94 94.6396 157.519 93.9647C151.098 93.2899 145.186 99.4662 144.315 107.76C143.443 116.054 147.941 123.324 154.362 123.999C160.783 124.674 166.695 118.498 167.567 110.204Z" fill="#976449"/>
<path d="M153.918 118.211C153.868 116.491 153.477 101.301 156.257 96.8613L158.547 98.2913C156.557 101.461 156.477 113.681 156.617 118.121L153.918 118.201V118.211Z" fill="#311911"/>
<path d="M161.406 106.503L154.768 108.492L155.545 111.088L162.184 109.099L161.406 106.503Z" fill="#311911"/>
<path d="M132.967 168.701C131.097 165.731 130.447 148.501 130.447 148.501L112.597 149.331L94.8074 150.991C94.8074 150.991 96.5574 168.141 95.1174 171.351C93.6774 174.551 80.1074 180.401 80.1074 180.401C84.3274 196.971 105.127 206.041 117.637 204.651C132.847 202.971 149.607 189.801 150.907 175.851C150.907 175.851 134.837 171.681 132.957 168.711L132.967 168.701Z" fill="#976449"/>
<path d="M131.227 159.841C130.977 157.421 130.797 154.941 130.677 152.911C128.307 154.031 122.477 156.311 113.137 156.961C101.667 157.761 95.937 155.321 95.167 154.961C95.317 156.831 95.477 159.151 95.587 161.471C98.567 164.931 104.707 170.371 114.027 169.721C122.637 169.121 128.247 163.691 131.227 159.851V159.841Z" fill="#311911"/>
<path d="M66.9275 75.311C66.9275 75.311 72.9475 42.301 109.737 41.661C146.537 41.381 153.377 74.231 153.377 74.231C153.377 74.231 156.277 111.121 145.437 136.181C139.467 149.991 126.367 160.781 111.257 161.031C96.1475 161.161 82.7275 150.701 76.4075 137.041C64.9475 112.261 66.9275 75.311 66.9275 75.311Z" fill="#976449"/>
<path d="M100.33 89.5784C101.327 87.9644 101.121 87.1525 100.459 85.7303C99.7967 84.3081 87.0786 85.8505 87.0786 85.8505C85.406 85.8505 83.7657 86.1941 82.4791 86.7782L76.1475 91.075L86.0172 89.355L100.33 89.5955V89.5784Z" fill="#311911"/>
<path d="M119.48 89.5784C118.483 87.9644 118.689 87.1525 119.352 85.7303C120.014 84.3081 132.732 85.8505 132.732 85.8505C134.405 85.8505 136.045 86.1941 137.331 86.7782L143.663 91.075L133.793 89.355L119.48 89.5955V89.5784Z" fill="#311911"/>
<circle cx="84.0156" cy="108.795" r="10.0146" fill="#A56B5E"/>
<circle cx="136.325" cy="108.046" r="10.0146" fill="#A56B5E"/>
<path d="M112.598 98.1543C113.173 104.928 115.508 107.818 115.508 111.087C115.508 114.357 110.902 113.321 110.902 113.321" stroke="#311911" stroke-width="2.5"/>
<path d="M111.957 149.481C110.437 149.501 109.447 149.291 109.367 149.271L109.917 146.771C109.917 146.771 113.317 147.461 117.157 145.801L118.177 148.151C115.787 149.181 113.577 149.461 111.957 149.481Z" fill="#311911"/>
<path d="M127.847 125.82C125.207 123.13 119.007 123.25 111.277 123.35C103.867 123.44 98.5572 125.23 95.3272 127.18C91.9872 129.19 94.3272 144.34 111.537 144.13C128.237 143.93 130.297 128.31 127.847 125.82Z" fill="#4D3A37"/>
<path d="M111.278 123.351C106.068 123.411 101.908 124.321 98.7676 125.531C98.8576 126.921 99.0976 128.261 99.8876 128.581C100.808 128.951 106.678 128.731 111.688 128.641C116.208 128.561 123.108 128.001 123.698 127.161C123.938 126.821 124.038 125.411 124.128 123.981C120.928 123.221 116.448 123.291 111.278 123.351Z" fill="white"/>
<path d="M101.548 141.991C104.098 143.331 107.378 144.181 111.538 144.131C115.708 144.081 118.968 143.071 121.468 141.541C120.648 140.111 118.118 138.761 111.078 139.331C104.968 139.831 102.448 140.931 101.548 141.991Z" fill="#9E6275"/>
<path d="M131.992 104.639C129.762 104.639 127.954 102.638 127.954 100.169C127.954 97.6999 131.245 95.6211 133.474 95.6211C135.515 96.1023 136.029 96.6126 137.325 97.8012C136.029 98.7754 136.029 99.2564 136.029 100.169V100.169C136.029 102.638 134.222 104.639 131.992 104.639Z" fill="#340C00"/>
<path d="M88.2874 104.639C90.5172 104.639 92.3249 102.638 92.3249 100.169C92.3249 97.6999 89.0346 95.6211 86.8048 95.6211C84.7639 96.1023 84.2499 96.6126 82.9541 97.8012C84.2499 98.7754 84.2499 99.2564 84.2499 100.169V100.169C84.2499 102.638 86.0575 104.639 88.2874 104.639Z" fill="#340C00"/>
<path d="M63.2354 77.7238C66.3274 43.2906 88.8697 34.0475 107.125 34.0475C154.218 31.8821 157.872 74.9699 154.794 89.7625L152.262 111.853L145.99 89.762L140.407 73.683V83.3078H124.947L120.653 73.683V83.3078H107.125V63.5241L98.7509 83.3078H77.0638L75.1313 75.5544L70.7651 91.4386L69.3839 108.112L63.2354 77.7238Z" class="hair" fill="black"/>
<path d="M74.9652 117.163C74.5518 120.883 69.0512 122.158 66.3525 122.331C67.1564 126.005 69.6942 133.114 73.4149 132.149C78.0657 130.943 75.4819 112.512 74.9652 117.163Z" class="hair" fill="black"/>
<path d="M147.596 118.8C148.01 122.521 153.51 123.796 156.209 123.968C155.405 127.643 152.867 134.751 149.147 133.787C144.496 132.581 147.08 114.15 147.596 118.8Z" class="hair" fill="black"/>
<path d="M67.1689 161.953C20.8682 87.1858 58.3344 28.4345 104.743 31.0864C191.432 36.0399 150.916 119.888 163.984 161.953H67.1689Z" class="hair" fill="black" class="hair" fill="black"/>
<path class="skin" d="M54.616 108.597C53.7443 100.303 58.2427 93.0322 64.6636 92.3573C71.0844 91.6824 76.9962 97.8588 77.8679 106.153C78.7396 114.446 74.2412 121.717 67.8203 122.392C61.3995 123.067 55.4877 116.89 54.616 108.597Z" fill="#B2674B"/>
<path d="M68.2651 119.22C68.3151 117.5 68.7051 102.31 65.9251 97.8701L63.6351 99.3001C65.6251 102.47 65.7051 114.69 65.5651 119.13L68.2651 119.21V119.22Z" fill="#773E2A"/>
<path d="M60.7776 107.512L67.416 109.501L66.6382 112.097L59.9998 110.108L60.7776 107.512Z" fill="#773E2A"/>
<path class="skin" d="M167.567 110.204C168.438 101.91 163.94 94.6396 157.519 93.9647C151.098 93.2899 145.186 99.4662 144.315 107.76C143.443 116.054 147.941 123.324 154.362 123.999C160.783 124.674 166.695 118.498 167.567 110.204Z" fill="#B2674B"/>
<path d="M153.918 118.211C153.868 116.491 153.477 101.301 156.257 96.8613L158.547 98.2913C156.557 101.461 156.477 113.681 156.617 118.121L153.918 118.201V118.211Z" fill="#773E2A"/>
<path d="M161.406 106.503L154.768 108.492L155.545 111.088L162.184 109.099L161.406 106.503Z" fill="#773E2A"/>
<path class="skin" d="M132.967 168.701C131.097 165.731 130.447 148.501 130.447 148.501L112.597 149.331L94.8074 150.991C94.8074 150.991 96.5574 168.141 95.1174 171.351C93.6774 174.551 80.1074 180.401 80.1074 180.401C84.3274 196.971 105.127 206.041 117.637 204.651C132.847 202.971 149.607 189.801 150.907 175.851C150.907 175.851 134.837 171.681 132.957 168.711L132.967 168.701Z" fill="#B2674B"/>
<path d="M131.227 159.841C130.977 157.421 130.797 154.941 130.677 152.911C128.307 154.031 122.477 156.311 113.137 156.961C101.667 157.761 95.937 155.321 95.167 154.961C95.317 156.831 95.477 159.151 95.587 161.471C98.567 164.931 104.707 170.371 114.027 169.721C122.637 169.121 128.247 163.691 131.227 159.851V159.841Z" fill="#773E2A"/>
<path class="skin" d="M66.9275 75.311C66.9275 75.311 72.9475 42.301 109.737 41.661C146.537 41.381 153.377 74.231 153.377 74.231C153.377 74.231 156.277 111.121 145.437 136.181C139.467 149.991 126.367 160.781 111.257 161.031C96.1475 161.161 82.7275 150.701 76.4075 137.041C64.9475 112.261 66.9275 75.311 66.9275 75.311Z" fill="#B2674B"/>
<path d="M126.214 129.258C126.214 129.258 121.064 125.378 112.824 125.378H112.804C104.864 125.378 99.0742 128.868 99.0142 128.898L97.5342 126.488C97.7942 126.328 104.024 122.548 112.804 122.548H112.824C122.084 122.548 127.714 126.838 127.954 127.018L126.224 129.248L126.214 129.258Z" fill="#311911"/>
<path d="M109.835 132.238L109.555 129.428C109.765 129.408 114.675 128.928 118.075 129.428L117.655 132.218C114.605 131.758 109.885 132.218 109.835 132.218V132.238Z" fill="#311911"/>
<path d="M97.7752 87.4598C98.4018 85.6693 98.0259 84.9206 97.0734 83.6741C96.1209 82.4276 84.032 86.6687 84.032 86.6687C82.3986 87.0283 80.8704 87.7166 79.7396 88.5636L74.48 94.1214L83.7489 90.3194L97.7789 87.4766L97.7752 87.4598Z" fill="#311911"/>
<path d="M120.845 87.0558C120.213 85.2673 120.586 84.5174 121.535 83.2678C122.483 82.0181 134.586 86.2197 134.586 86.2197C136.22 86.574 137.751 87.2573 138.884 88.1006L144.162 93.6412L134.881 89.8695L120.842 87.0725L120.845 87.0558Z" fill="#311911"/>
<path d="M112.598 98.1543C113.173 104.928 115.508 107.818 115.508 111.087C115.508 114.357 110.902 113.321 110.902 113.321" stroke="#773E2A" stroke-width="2.5"/>
<circle cx="132.942" cy="100.549" r="4" fill="black"/>
<circle cx="87.9424" cy="100.549" r="4" fill="black"/>
<path d="M63.2354 77.7238C66.3274 43.2906 88.8697 34.0475 107.125 34.0475C154.218 31.8821 157.872 74.9699 154.794 89.7625L152.262 111.853L145.99 89.762L140.407 73.683V83.3078H124.947L120.653 73.683V83.3078H107.125V63.5241L98.7509 83.3078H77.0638L75.1313 75.5544L70.7651 91.4386L69.3839 108.112L63.2354 77.7238Z" class="hair" fill="black"/>
<path d="M74.9652 117.163C74.5518 120.883 69.0512 122.158 66.3525 122.331C67.1564 126.005 69.6942 133.114 73.4149 132.149C78.0657 130.943 75.4819 112.512 74.9652 117.163Z" class="hair" fill="black"/>
<path d="M147.596 118.8C148.01 122.521 153.51 123.796 156.209 123.968C155.405 127.643 152.867 134.751 149.147 133.787C144.496 132.581 147.08 114.15 147.596 118.8Z" class="hair" fill="black"/>
</svg>
