<svg width="215" height="243" viewBox="0 0 215 243" fill="none" xmlns="http://www.w3.org/2000/svg">
<path d="M66.9687 161.745C20.668 86.9768 58.1342 28.2255 104.542 30.8774C191.232 35.8309 150.716 119.679 163.784 161.745H66.9687Z" class="hair" fill="black" class="hair" class="hair" fill="black"/>
<path d="M54.4158 108.388C53.5441 100.094 58.0425 92.8232 64.4634 92.1483C70.8842 91.4735 76.796 97.6498 77.6677 105.944C78.5394 114.237 74.041 121.508 67.6201 122.183C61.1993 122.858 55.2875 116.681 54.4158 108.388Z" fill="#976449"/>
<path d="M68.0649 119.011C68.1149 117.291 68.5049 102.101 65.7249 97.6611L63.4349 99.0911C65.4249 102.261 65.5049 114.481 65.3649 118.921L68.0649 119.001V119.011Z" fill="#311911"/>
<path d="M60.5774 107.303L67.2158 109.292L66.438 111.888L59.7996 109.899L60.5774 107.303Z" fill="#311911"/>
<path d="M167.366 109.995C168.238 101.701 163.74 94.4306 157.319 93.7557C150.898 93.0809 144.986 99.2573 144.115 107.551C143.243 115.845 147.741 123.115 154.162 123.79C160.583 124.465 166.495 118.289 167.366 109.995Z" fill="#976449"/>
<path d="M153.717 118.002C153.667 116.282 153.277 101.092 156.057 96.6523L158.347 98.0824C156.357 101.252 156.277 113.472 156.417 117.912L153.717 117.992V118.002Z" fill="#311911"/>
<path d="M161.206 106.294L154.567 108.283L155.345 110.879L161.984 108.89L161.206 106.294Z" fill="#311911"/>
<path d="M132.767 168.492C130.897 165.522 130.247 148.292 130.247 148.292L112.397 149.122L94.6072 150.782C94.6072 150.782 96.3572 167.932 94.9172 171.142C93.4772 174.342 79.9072 180.192 79.9072 180.192C84.1272 196.762 104.927 205.832 117.437 204.442C132.647 202.762 149.407 189.592 150.707 175.642C150.707 175.642 134.637 171.472 132.757 168.502L132.767 168.492Z" fill="#976449"/>
<path d="M131.027 159.632C130.777 157.212 130.597 154.732 130.477 152.702C128.107 153.822 122.277 156.102 112.937 156.752C101.467 157.552 95.7368 155.112 94.9668 154.752C95.1168 156.622 95.2768 158.942 95.3868 161.262C98.3668 164.722 104.507 170.162 113.827 169.512C122.437 168.912 128.047 163.482 131.027 159.642V159.632Z" fill="#311911"/>
<path d="M66.7273 75.102C66.7273 75.102 72.7473 42.092 109.537 41.452C146.337 41.172 153.177 74.022 153.177 74.022C153.177 74.022 156.077 110.912 145.237 135.972C139.267 149.782 126.167 160.572 111.057 160.822C95.9473 160.952 82.5273 150.492 76.2073 136.832C64.7473 112.052 66.7273 75.102 66.7273 75.102Z" fill="#976449"/>
<path d="M100.13 89.3694C101.127 87.7555 100.921 86.9435 100.259 85.5213C99.5965 84.0991 86.8784 85.6415 86.8784 85.6415C85.2058 85.6415 83.5655 85.9851 82.2789 86.5692L75.9473 90.866L85.817 89.146L100.13 89.3865V89.3694Z" fill="#311911"/>
<path d="M119.28 89.3694C118.283 87.7555 118.489 86.9435 119.151 85.5213C119.814 84.0991 132.532 85.6415 132.532 85.6415C134.204 85.6415 135.845 85.9851 137.131 86.5692L143.463 90.866L133.593 89.146L119.28 89.3865V89.3694Z" fill="#311911"/>
<circle cx="83.8154" cy="108.586" r="10.0146" fill="#A56B5E"/>
<circle cx="136.125" cy="107.837" r="10.0146" fill="#A56B5E"/>
<path d="M112.398 97.9453C112.972 104.719 115.308 107.609 115.308 110.878C115.308 114.148 110.702 113.112 110.702 113.112" stroke="#311911" stroke-width="2.5"/>
<path d="M111.757 149.272C110.237 149.292 109.247 149.082 109.167 149.062L109.717 146.562C109.717 146.562 113.117 147.252 116.957 145.592L117.977 147.942C115.587 148.972 113.377 149.252 111.757 149.272Z" fill="#311911"/>
<path d="M127.647 125.611C125.007 122.921 118.807 123.041 111.077 123.141C103.667 123.231 98.357 125.021 95.127 126.971C91.787 128.981 94.127 144.131 111.337 143.921C128.037 143.721 130.097 128.101 127.647 125.611Z" fill="#4D3A37"/>
<path d="M111.077 123.142C105.867 123.202 101.707 124.112 98.5674 125.322C98.6574 126.712 98.8974 128.052 99.6874 128.372C100.607 128.742 106.477 128.522 111.487 128.432C116.007 128.352 122.907 127.792 123.497 126.952C123.737 126.612 123.837 125.202 123.927 123.772C120.727 123.012 116.247 123.082 111.077 123.142Z" fill="white"/>
<path d="M101.348 141.782C103.898 143.122 107.178 143.972 111.338 143.922C115.508 143.872 118.768 142.862 121.268 141.332C120.448 139.902 117.918 138.552 110.878 139.122C104.768 139.622 102.248 140.722 101.348 141.782Z" fill="#9E6275"/>
<path d="M131.792 104.43C129.562 104.43 127.754 102.429 127.754 99.9598C127.754 97.4909 131.044 95.4121 133.274 95.4121C135.315 95.8933 135.829 96.4036 137.125 97.5922C135.829 98.5665 135.829 99.0474 135.829 99.9597V99.9598C135.829 102.429 134.022 104.43 131.792 104.43Z" fill="#340C00"/>
<path d="M88.0872 104.43C90.317 104.43 92.1247 102.429 92.1247 99.9598C92.1247 97.4909 88.8344 95.4121 86.6046 95.4121C84.5637 95.8933 84.0497 96.4036 82.7539 97.5922C84.0497 98.5665 84.0497 99.0474 84.0497 99.9597V99.9598C84.0497 102.429 85.8573 104.43 88.0872 104.43Z" fill="#340C00"/>
<path d="M63.0352 77.5148C66.1272 43.0816 88.6695 33.8386 106.925 33.8386C154.018 31.6731 157.671 74.7609 154.594 89.5535L152.062 111.644L145.79 89.553L140.207 73.4741V83.0989H124.747L120.453 73.4741V83.0989H106.925V63.3151L98.5507 83.0989H76.8636L74.9311 75.3454L70.5649 91.2297L69.1837 107.903L63.0352 77.5148Z" fill="black"/>
<path d="M74.765 116.954C74.3516 120.674 68.851 121.949 66.1523 122.122C66.9562 125.796 69.494 132.905 73.2147 131.94C77.8655 130.734 75.2817 112.303 74.765 116.954Z" class="hair" fill="black"/>
<path d="M147.396 118.591C147.81 122.312 153.31 123.587 156.009 123.759C155.205 127.434 152.667 134.542 148.946 133.578C144.296 132.372 146.879 113.941 147.396 118.591Z" class="hair" fill="black"/>
<path d="M66.9687 161.745C20.668 86.9768 58.1342 28.2255 104.542 30.8774C191.232 35.8309 150.716 119.679 163.784 161.745H66.9687Z" class="hair" fill="black" class="hair" class="hair" fill="black"/>
<path class="skin" d="M54.4158 108.388C53.5441 100.094 58.0425 92.8232 64.4634 92.1483C70.8842 91.4735 76.796 97.6498 77.6677 105.944C78.5394 114.237 74.041 121.508 67.6201 122.183C61.1993 122.858 55.2875 116.681 54.4158 108.388Z" fill="#B2674B"/>
<path d="M68.0649 119.011C68.1149 117.291 68.5049 102.101 65.7249 97.6611L63.4349 99.0911C65.4249 102.261 65.5049 114.481 65.3649 118.921L68.0649 119.001V119.011Z" fill="#773E2A"/>
<path d="M60.5764 107.303L67.2148 109.292L66.437 111.888L59.7986 109.899L60.5764 107.303Z" fill="#773E2A"/>
<path class="skin" d="M167.365 109.995C168.237 101.701 163.739 94.4306 157.318 93.7557C150.897 93.0809 144.985 99.2573 144.114 107.551C143.242 115.845 147.74 123.115 154.161 123.79C160.582 124.465 166.494 118.289 167.365 109.995Z" fill="#B2674B"/>
<path d="M153.716 118.002C153.666 116.282 153.276 101.092 156.056 96.6523L158.346 98.0824C156.356 101.252 156.276 113.472 156.416 117.912L153.716 117.992V118.002Z" fill="#773E2A"/>
<path d="M161.205 106.294L154.566 108.283L155.344 110.879L161.983 108.89L161.205 106.294Z" fill="#773E2A"/>
<path class="skin" d="M132.766 168.492C130.896 165.522 130.246 148.292 130.246 148.292L112.396 149.122L94.6062 150.782C94.6062 150.782 96.3562 167.932 94.9162 171.142C93.4762 174.342 79.9062 180.192 79.9062 180.192C84.1262 196.762 104.926 205.832 117.436 204.442C132.646 202.762 149.406 189.592 150.706 175.642C150.706 175.642 134.636 171.472 132.756 168.502L132.766 168.492Z" fill="#B2674B"/>
<path d="M131.027 159.632C130.777 157.212 130.597 154.732 130.477 152.702C128.107 153.822 122.277 156.102 112.937 156.752C101.467 157.552 95.7368 155.112 94.9668 154.752C95.1168 156.622 95.2768 158.942 95.3868 161.262C98.3668 164.722 104.507 170.162 113.827 169.512C122.437 168.912 128.047 163.482 131.027 159.642V159.632Z" fill="#773E2A"/>
<path class="skin" d="M66.7263 75.102C66.7263 75.102 72.7463 42.092 109.536 41.452C146.336 41.172 153.176 74.022 153.176 74.022C153.176 74.022 156.076 110.912 145.236 135.972C139.266 149.782 126.166 160.572 111.056 160.822C95.9463 160.952 82.5263 150.492 76.2063 136.832C64.7463 112.052 66.7263 75.102 66.7263 75.102Z" fill="#B2674B"/>
<path d="M112.922 135.819C110.736 135.686 109.361 134.901 109.265 134.835L110.705 132.408L109.99 133.627L110.695 132.408C110.82 132.485 113.895 134.155 118.245 131.644L119.659 134.094C117.042 135.609 114.709 135.928 112.932 135.82L112.922 135.819Z" fill="black"/>
<path d="M106.864 129.796C99.1978 129.33 93.8712 127.464 93.4786 127.33L94.3837 124.8C94.5503 124.86 111.602 130.795 128.615 123.674L129.657 126.152C121.432 129.599 113.322 130.189 106.874 129.797L106.864 129.796Z" fill="black"/>
<path d="M99.178 87.6198C100.184 86.0115 99.9824 85.1984 99.3282 83.7726C98.674 82.3467 85.9474 83.8179 85.9474 83.8179C84.2749 83.8086 82.6326 84.143 81.3428 84.7198L74.9872 88.9812L84.8664 87.3164L99.1779 87.637L99.178 87.6198Z" fill="#311911"/>
<path d="M119.012 88.3427C118.017 86.7274 118.225 85.9157 118.889 84.4944C119.553 83.0732 132.269 84.6338 132.269 84.6338C133.942 84.6362 135.581 84.9821 136.867 85.568L143.193 89.8738L133.325 88.1398L119.012 88.3599L119.012 88.3427Z" fill="#311911"/>
<path d="M112.397 97.9453C112.971 104.719 115.307 107.609 115.307 110.878C115.307 114.148 110.701 113.112 110.701 113.112" stroke="#773E2A" stroke-width="2.5"/>
<path d="M89.0193 104.43C92.2422 104.43 94.855 102.175 94.855 99.3258C94.855 96.4768 92.2422 99.3258 89.0193 99.3258C85.7963 99.3258 83.1836 96.4768 83.1836 99.3258C83.1836 102.175 85.7963 104.43 89.0193 104.43Z" fill="black"/>
<path d="M63.0352 77.5148C66.1272 43.0816 88.6695 33.8386 106.925 33.8386C154.018 31.6731 157.671 74.7609 154.594 89.5535L152.062 111.644L145.79 89.553L140.207 73.4741V83.0989H124.747L120.453 73.4741V83.0989H106.925V63.3151L98.5507 83.0989H76.8636L74.9311 75.3454L70.5649 91.2297L69.1837 107.903L63.0352 77.5148Z" class="hair" fill="black"/>
<path d="M74.765 116.954C74.3516 120.674 68.851 121.949 66.1523 122.122C66.9562 125.796 69.494 132.905 73.2147 131.94C77.8655 130.734 75.2817 112.303 74.765 116.954Z" class="hair" fill="black"/>
<path d="M147.395 118.591C147.809 122.312 153.309 123.587 156.008 123.759C155.204 127.434 152.666 134.542 148.945 133.578C144.295 132.372 146.878 113.941 147.395 118.591Z" class="hair" fill="black"/>
<path d="M134.05 104.43C130.827 104.43 128.214 102.175 128.214 99.3258C128.214 96.4768 130.827 99.3258 134.05 99.3258C137.273 99.3258 139.886 96.4768 139.886 99.3258C139.886 102.175 137.273 104.43 134.05 104.43Z" fill="black"/>
</svg>
