<svg width="215" height="243" viewBox="0 0 215 243" fill="none" xmlns="http://www.w3.org/2000/svg">
<path d="M67.1689 161.745C20.8682 86.9768 58.3344 28.2255 104.743 30.8774C191.432 35.8309 150.916 119.679 163.984 161.745H67.1689Z" class="hair" fill="black" class="hair" fill="black"/>
<path d="M54.616 108.388C53.7443 100.094 58.2427 92.8232 64.6636 92.1483C71.0844 91.4735 76.9962 97.6498 77.8679 105.944C78.7396 114.237 74.2412 121.508 67.8203 122.183C61.3995 122.858 55.4877 116.681 54.616 108.388Z" fill="#976449"/>
<path d="M68.2651 119.011C68.3151 117.291 68.7051 102.101 65.9251 97.6611L63.6351 99.0911C65.6251 102.261 65.7051 114.481 65.5651 118.921L68.2651 119.001V119.011Z" fill="#311911"/>
<path d="M60.7776 107.303L67.416 109.292L66.6382 111.888L59.9998 109.899L60.7776 107.303Z" fill="#311911"/>
<path d="M167.567 109.995C168.438 101.701 163.94 94.4306 157.519 93.7557C151.098 93.0809 145.186 99.2573 144.315 107.551C143.443 115.845 147.941 123.115 154.362 123.79C160.783 124.465 166.695 118.289 167.567 109.995Z" fill="#976449"/>
<path d="M153.918 118.002C153.868 116.282 153.477 101.092 156.257 96.6523L158.547 98.0824C156.557 101.252 156.477 113.472 156.617 117.912L153.918 117.992V118.002Z" fill="#311911"/>
<path d="M161.406 106.294L154.768 108.283L155.545 110.879L162.184 108.89L161.406 106.294Z" fill="#311911"/>
<path d="M132.967 168.492C131.097 165.522 130.447 148.292 130.447 148.292L112.597 149.122L94.8074 150.782C94.8074 150.782 96.5574 167.932 95.1174 171.142C93.6774 174.342 80.1074 180.192 80.1074 180.192C84.3274 196.762 105.127 205.832 117.637 204.442C132.847 202.762 149.607 189.592 150.907 175.642C150.907 175.642 134.837 171.472 132.957 168.502L132.967 168.492Z" fill="#976449"/>
<path d="M131.228 159.632C130.978 157.212 130.798 154.732 130.678 152.702C128.308 153.822 122.478 156.102 113.138 156.752C101.668 157.552 95.938 155.112 95.168 154.752C95.318 156.622 95.478 158.942 95.588 161.262C98.568 164.722 104.708 170.162 114.028 169.512C122.638 168.912 128.248 163.482 131.228 159.642V159.632Z" fill="#311911"/>
<path d="M66.9275 75.102C66.9275 75.102 72.9475 42.092 109.737 41.452C146.537 41.172 153.377 74.022 153.377 74.022C153.377 74.022 156.277 110.912 145.437 135.972C139.467 149.782 126.367 160.572 111.257 160.822C96.1475 160.952 82.7275 150.492 76.4075 136.832C64.9475 112.052 66.9275 75.102 66.9275 75.102Z" fill="#976449"/>
<path d="M100.33 89.3694C101.327 87.7555 101.121 86.9435 100.459 85.5213C99.7967 84.0991 87.0786 85.6415 87.0786 85.6415C85.406 85.6415 83.7657 85.9851 82.4791 86.5692L76.1475 90.866L86.0172 89.146L100.33 89.3865V89.3694Z" fill="#311911"/>
<path d="M119.479 89.3694C118.482 87.7555 118.688 86.9435 119.351 85.5213C120.013 84.0991 132.731 85.6415 132.731 85.6415C134.404 85.6415 136.044 85.9851 137.33 86.5692L143.662 90.866L133.792 89.146L119.479 89.3865V89.3694Z" fill="#311911"/>
<circle cx="84.0156" cy="108.586" r="10.0146" fill="#A56B5E"/>
<circle cx="136.325" cy="107.837" r="10.0146" fill="#A56B5E"/>
<path d="M112.598 97.9453C113.173 104.719 115.508 107.609 115.508 110.878C115.508 114.148 110.902 113.112 110.902 113.112" stroke="#311911" stroke-width="2.5"/>
<path d="M111.957 149.272C110.437 149.292 109.447 149.082 109.367 149.062L109.917 146.562C109.917 146.562 113.317 147.252 117.157 145.592L118.177 147.942C115.787 148.972 113.577 149.252 111.957 149.272Z" fill="#311911"/>
<path d="M127.847 125.611C125.207 122.921 119.007 123.041 111.277 123.141C103.867 123.231 98.5572 125.021 95.3272 126.971C91.9872 128.981 94.3272 144.131 111.537 143.921C128.237 143.721 130.297 128.101 127.847 125.611Z" fill="#4D3A37"/>
<path d="M111.278 123.142C106.068 123.202 101.908 124.112 98.7676 125.322C98.8576 126.712 99.0976 128.052 99.8876 128.372C100.808 128.742 106.678 128.522 111.688 128.432C116.208 128.352 123.108 127.792 123.698 126.952C123.938 126.612 124.038 125.202 124.128 123.772C120.928 123.012 116.448 123.082 111.278 123.142Z" fill="white"/>
<path d="M101.547 141.782C104.097 143.122 107.377 143.972 111.537 143.922C115.707 143.872 118.967 142.862 121.467 141.332C120.647 139.902 118.117 138.552 111.077 139.122C104.967 139.622 102.447 140.722 101.547 141.782Z" fill="#9E6275"/>
<path d="M131.992 104.43C129.762 104.43 127.954 102.429 127.954 99.9598C127.954 97.4909 131.245 95.4121 133.474 95.4121C135.515 95.8933 136.029 96.4036 137.325 97.5922C136.029 98.5665 136.029 99.0474 136.029 99.9597V99.9598C136.029 102.429 134.222 104.43 131.992 104.43Z" fill="#340C00"/>
<path d="M88.2874 104.43C90.5172 104.43 92.3249 102.429 92.3249 99.9598C92.3249 97.4909 89.0346 95.4121 86.8048 95.4121C84.7639 95.8933 84.2499 96.4036 82.9541 97.5922C84.2499 98.5665 84.2499 99.0474 84.2499 99.9597V99.9598C84.2499 102.429 86.0575 104.43 88.2874 104.43Z" fill="#340C00"/>
<path d="M63.2354 77.5148C66.3274 43.0816 88.8697 33.8386 107.125 33.8386C154.218 31.6731 157.872 74.7609 154.794 89.5535L152.262 111.644L145.99 89.553L140.407 73.4741V83.0989H124.947L120.653 73.4741V83.0989H107.125V63.3151L98.7509 83.0989H77.0638L75.1313 75.3454L70.7651 91.2297L69.3839 107.903L63.2354 77.5148Z" class="hair" fill="black"/>
<path d="M74.9662 116.954C74.5528 120.674 69.0522 121.949 66.3535 122.122C67.1574 125.796 69.6952 132.905 73.4159 131.94C78.0667 130.734 75.4829 112.303 74.9662 116.954Z" class="hair" fill="black"/>
<path d="M147.596 118.591C148.01 122.312 153.51 123.587 156.209 123.759C155.405 127.434 152.867 134.542 149.147 133.578C144.496 132.372 147.08 113.941 147.596 118.591Z" class="hair" fill="black"/>
<path d="M67.1689 161.745C20.8682 86.9768 58.3344 28.2255 104.743 30.8774C191.432 35.8309 150.916 119.679 163.984 161.745H67.1689Z" class="hair" fill="black" class="hair" fill="black"/>
<path class="skin" d="M54.616 108.388C53.7443 100.094 58.2427 92.8232 64.6636 92.1483C71.0844 91.4735 76.9962 97.6498 77.8679 105.944C78.7396 114.237 74.2412 121.508 67.8203 122.183C61.3995 122.858 55.4877 116.681 54.616 108.388Z" fill="#B2674B"/>
<path d="M68.2651 119.011C68.3151 117.291 68.7051 102.101 65.9251 97.6611L63.6351 99.0911C65.6251 102.261 65.7051 114.481 65.5651 118.921L68.2651 119.001V119.011Z" fill="#773E2A"/>
<path d="M60.7776 107.303L67.416 109.292L66.6382 111.888L59.9998 109.899L60.7776 107.303Z" fill="#773E2A"/>
<path class="skin" d="M167.567 109.995C168.438 101.701 163.94 94.4306 157.519 93.7557C151.098 93.0809 145.186 99.2573 144.315 107.551C143.443 115.845 147.941 123.115 154.362 123.79C160.783 124.465 166.695 118.289 167.567 109.995Z" fill="#B2674B"/>
<path d="M153.918 118.002C153.868 116.282 153.477 101.092 156.257 96.6523L158.547 98.0824C156.557 101.252 156.477 113.472 156.617 117.912L153.918 117.992V118.002Z" fill="#773E2A"/>
<path d="M161.406 106.294L154.768 108.283L155.545 110.879L162.184 108.89L161.406 106.294Z" fill="#773E2A"/>
<path class="skin" d="M132.967 168.492C131.097 165.522 130.447 148.292 130.447 148.292L112.597 149.122L94.8074 150.782C94.8074 150.782 96.5574 167.932 95.1174 171.142C93.6774 174.342 80.1074 180.192 80.1074 180.192C84.3274 196.762 105.127 205.832 117.637 204.442C132.847 202.762 149.607 189.592 150.907 175.642C150.907 175.642 134.837 171.472 132.957 168.502L132.967 168.492Z" fill="#B2674B"/>
<path d="M131.228 159.632C130.978 157.212 130.798 154.732 130.678 152.702C128.308 153.822 122.478 156.102 113.138 156.752C101.668 157.552 95.938 155.112 95.168 154.752C95.318 156.622 95.478 158.942 95.588 161.262C98.568 164.722 104.708 170.162 114.028 169.512C122.638 168.912 128.248 163.482 131.228 159.642V159.632Z" fill="#773E2A"/>
<path class="skin" d="M66.9275 75.102C66.9275 75.102 72.9475 42.092 109.737 41.452C146.537 41.172 153.377 74.022 153.377 74.022C153.377 74.022 156.277 110.912 145.437 135.972C139.467 149.782 126.367 160.572 111.257 160.822C96.1475 160.952 82.7275 150.492 76.4075 136.832C64.9475 112.052 66.9275 75.102 66.9275 75.102Z" fill="#B2674B"/>
<path d="M130.102 123.714C127.362 120.864 120.852 120.904 112.752 120.904C104.652 120.904 99.3816 122.714 95.9616 124.714C92.4316 126.774 94.6816 136.254 112.752 136.264C130.272 136.274 132.642 126.364 130.112 123.714H130.102Z" fill="#2D0600"/>
<path d="M112.742 120.905C107.272 120.905 102.902 121.805 99.582 123.025C99.662 124.485 99.892 125.895 100.712 126.235C101.672 126.635 107.842 126.475 113.102 126.455C117.842 126.435 125.092 125.925 125.722 125.055C125.982 124.705 126.102 123.225 126.212 121.725C122.872 120.885 118.162 120.895 112.742 120.895V120.905Z" fill="white"/>
<path d="M112.332 132.704C106.682 133.094 103.952 134.014 102.722 134.974C105.322 135.764 108.612 136.264 112.742 136.264C116.982 136.264 120.332 135.684 122.942 134.764C121.872 133.404 119.092 132.234 112.332 132.704Z" fill="#A06275"/>
<path d="M99.3792 90.28C100.385 88.6717 100.184 87.8586 99.5294 86.4327C98.8751 85.0068 86.1486 86.4781 86.1486 86.4781C84.4761 86.4687 82.8338 86.8031 81.544 87.38L75.1884 91.6413L85.0676 89.9766L99.3791 90.2972L99.3792 90.28Z" fill="#311911"/>
<path d="M119.213 91.0028C118.219 89.3875 118.426 88.5758 119.09 87.1546C119.754 85.7333 132.47 87.2939 132.47 87.2939C134.143 87.2963 135.783 87.6422 137.068 88.2281L143.394 92.534L133.527 90.7999L119.213 91.02L119.213 91.0028Z" fill="#311911"/>
<path d="M112.598 97.9453C113.173 104.719 115.508 107.609 115.508 110.878C115.508 114.148 110.902 113.112 110.902 113.112" stroke="#773E2A" stroke-width="2.5"/>
<path fill-rule="evenodd" clip-rule="evenodd" d="M128.941 96.7783C128.574 97.4287 128.364 98.1772 128.364 98.9737C128.364 101.476 130.431 103.504 132.98 103.504C135.529 103.504 137.595 101.476 137.595 98.9737C137.595 98.1772 137.386 97.4287 137.018 96.7783H128.941Z" fill="black"/>
<path fill-rule="evenodd" clip-rule="evenodd" d="M85.4698 96.8193C85.102 97.4697 84.8926 98.2182 84.8926 99.0147C84.8926 101.517 86.959 103.545 89.5081 103.545C92.0572 103.545 94.1237 101.517 94.1237 99.0147C94.1237 98.2182 93.9142 97.4697 93.5464 96.8193H85.4698Z" fill="black"/>
<path d="M63.2354 77.5148C66.3274 43.0816 88.8697 33.8386 107.125 33.8386C154.218 31.6731 157.872 74.7609 154.794 89.5535L152.262 111.644L145.99 89.553L140.407 73.4741V83.0989H124.947L120.653 73.4741V83.0989H107.125V63.3151L98.7509 83.0989H77.0638L75.1313 75.3454L70.7651 91.2297L69.3839 107.903L63.2354 77.5148Z" class="hair" fill="black"/>
<path d="M74.9662 116.954C74.5528 120.674 69.0522 121.949 66.3535 122.122C67.1574 125.796 69.6952 132.905 73.4159 131.94C78.0667 130.734 75.4829 112.303 74.9662 116.954Z" class="hair" fill="black"/>
<path d="M147.596 118.591C148.01 122.312 153.51 123.587 156.209 123.759C155.405 127.434 152.867 134.542 149.147 133.578C144.496 132.372 147.08 113.941 147.596 118.591Z" class="hair" fill="black"/>
</svg>
