<svg width="215" height="243" viewBox="0 0 215 243" fill="none" xmlns="http://www.w3.org/2000/svg">
<path d="M67.4579 161.953C21.1573 87.1858 58.6235 28.4345 105.032 31.0864C191.721 36.0399 151.206 119.888 164.273 161.953H67.4579Z" class="hair" fill="black" class="hair" class="hair" fill="black"/>
<path d="M54.905 108.597C54.0333 100.303 58.5318 93.0322 64.9526 92.3573C71.3735 91.6824 77.2853 97.8588 78.157 106.153C79.0287 114.446 74.5302 121.717 68.1094 122.392C61.6885 123.067 55.7768 116.89 54.905 108.597Z" fill="#976449"/>
<path d="M68.5542 119.22C68.6042 117.5 68.9942 102.31 66.2142 97.8701L63.9242 99.3001C65.9142 102.47 65.9942 114.69 65.8542 119.13L68.5542 119.21V119.22Z" fill="#311911"/>
<path d="M61.0667 107.512L67.7051 109.501L66.9272 112.097L60.2888 110.108L61.0667 107.512Z" fill="#311911"/>
<path d="M167.856 110.204C168.727 101.91 164.229 94.6396 157.808 93.9647C151.387 93.2899 145.475 99.4662 144.604 107.76C143.732 116.054 148.231 123.324 154.651 123.999C161.072 124.674 166.984 118.498 167.856 110.204Z" fill="#976449"/>
<path d="M154.207 118.211C154.157 116.491 153.767 101.301 156.547 96.8613L158.837 98.2913C156.847 101.461 156.767 113.681 156.907 118.121L154.207 118.201V118.211Z" fill="#311911"/>
<path d="M161.695 106.503L155.057 108.492L155.834 111.088L162.473 109.099L161.695 106.503Z" fill="#311911"/>
<path d="M133.256 168.701C131.386 165.731 130.736 148.501 130.736 148.501L112.886 149.331L95.0965 150.991C95.0965 150.991 96.8465 168.141 95.4065 171.351C93.9665 174.551 80.3965 180.401 80.3965 180.401C84.6165 196.971 105.416 206.041 117.926 204.651C133.136 202.971 149.896 189.801 151.196 175.851C151.196 175.851 135.126 171.681 133.246 168.711L133.256 168.701Z" fill="#976449"/>
<path d="M131.517 159.841C131.267 157.421 131.087 154.941 130.967 152.911C128.597 154.031 122.767 156.311 113.427 156.961C101.957 157.761 96.227 155.321 95.457 154.961C95.607 156.831 95.767 159.151 95.877 161.471C98.857 164.931 104.997 170.371 114.317 169.721C122.927 169.121 128.537 163.691 131.517 159.851V159.841Z" fill="#311911"/>
<path d="M67.2165 75.311C67.2165 75.311 73.2365 42.301 110.027 41.661C146.827 41.381 153.667 74.231 153.667 74.231C153.667 74.231 156.567 111.121 145.727 136.181C139.757 149.991 126.657 160.781 111.547 161.031C96.4365 161.161 83.0165 150.701 76.6965 137.041C65.2365 112.261 67.2165 75.311 67.2165 75.311Z" fill="#976449"/>
<path d="M100.619 89.5784C101.616 87.9644 101.41 87.1525 100.748 85.7303C100.086 84.3081 87.3676 85.8505 87.3676 85.8505C85.6951 85.8505 84.0547 86.1941 82.7682 86.7782L76.4365 91.075L86.3062 89.355L100.619 89.5955V89.5784Z" fill="#311911"/>
<path d="M119.768 89.5784C118.771 87.9644 118.978 87.1525 119.64 85.7303C120.302 84.3081 133.02 85.8505 133.02 85.8505C134.693 85.8505 136.333 86.1941 137.62 86.7782L143.951 91.075L134.081 89.355L119.768 89.5955V89.5784Z" fill="#311911"/>
<circle cx="84.3047" cy="108.795" r="10.0146" fill="#A56B5E"/>
<circle cx="136.614" cy="108.046" r="10.0146" fill="#A56B5E"/>
<path d="M112.887 98.1543C113.462 104.928 115.797 107.818 115.797 111.087C115.797 114.357 111.191 113.321 111.191 113.321" stroke="#311911" stroke-width="2.5"/>
<path d="M112.246 149.481C110.726 149.501 109.736 149.291 109.656 149.271L110.206 146.771C110.206 146.771 113.606 147.461 117.446 145.801L118.466 148.151C116.076 149.181 113.866 149.461 112.246 149.481Z" fill="#311911"/>
<path d="M128.136 125.82C125.496 123.13 119.296 123.25 111.566 123.35C104.156 123.44 98.8463 125.23 95.6163 127.18C92.2763 129.19 94.6163 144.34 111.826 144.13C128.526 143.93 130.586 128.31 128.136 125.82Z" fill="#4D3A37"/>
<path d="M111.567 123.351C106.357 123.411 102.197 124.321 99.0566 125.531C99.1466 126.921 99.3867 128.261 100.177 128.581C101.097 128.951 106.967 128.731 111.977 128.641C116.497 128.561 123.397 128.001 123.987 127.161C124.227 126.821 124.327 125.411 124.417 123.981C121.217 123.221 116.737 123.291 111.567 123.351Z" fill="white"/>
<path d="M101.836 141.991C104.386 143.331 107.666 144.181 111.826 144.131C115.996 144.081 119.256 143.071 121.756 141.541C120.936 140.111 118.406 138.761 111.366 139.331C105.256 139.831 102.736 140.931 101.836 141.991Z" fill="#9E6275"/>
<path d="M132.281 104.639C130.051 104.639 128.243 102.638 128.243 100.169C128.243 97.6999 131.534 95.6211 133.764 95.6211C135.804 96.1023 136.318 96.6126 137.614 97.8012C136.318 98.7754 136.318 99.2564 136.318 100.169V100.169C136.318 102.638 134.511 104.639 132.281 104.639Z" fill="#340C00"/>
<path d="M88.5764 104.639C90.8063 104.639 92.6139 102.638 92.6139 100.169C92.6139 97.6999 89.3237 95.6211 87.0939 95.6211C85.053 96.1023 84.5389 96.6126 83.2432 97.8012C84.5389 98.7754 84.5389 99.2564 84.5389 100.169V100.169C84.5389 102.638 86.3466 104.639 88.5764 104.639Z" fill="#340C00"/>
<path d="M63.5244 77.7238C66.6165 43.2906 89.1588 34.0475 107.414 34.0475C154.507 31.8821 158.161 74.9699 155.083 89.7625L152.551 111.853L146.279 89.762L140.696 73.683V83.3078H125.236L120.942 73.683V83.3078H107.414V63.5241L99.0399 83.3078H77.3529L75.4203 75.5544L71.0541 91.4386L69.6729 108.112L63.5244 77.7238Z" class="hair" fill="black"/>
<path d="M75.2552 117.163C74.8419 120.883 69.3412 122.158 66.6426 122.331C67.4464 126.005 69.9843 133.114 73.7049 132.149C78.3558 130.943 75.772 112.512 75.2552 117.163Z" class="hair" fill="black"/>
<path d="M147.885 118.8C148.299 122.521 153.799 123.796 156.498 123.968C155.694 127.643 153.156 134.751 149.436 133.787C144.785 132.581 147.369 114.15 147.885 118.8Z" class="hair" fill="black"/>
<path d="M67.4579 161.953C21.1573 87.1858 58.6235 28.4345 105.032 31.0864C191.721 36.0399 151.206 119.888 164.273 161.953H67.4579Z" class="hair" fill="black" class="hair" class="hair" fill="black"/>
<path class="skin" d="M54.905 108.597C54.0333 100.303 58.5318 93.0322 64.9526 92.3573C71.3735 91.6824 77.2853 97.8588 78.157 106.153C79.0287 114.446 74.5302 121.717 68.1094 122.392C61.6885 123.067 55.7768 116.89 54.905 108.597Z" fill="#B2674B"/>
<path d="M68.5542 119.22C68.6042 117.5 68.9942 102.31 66.2142 97.8701L63.9242 99.3001C65.9142 102.47 65.9942 114.69 65.8542 119.13L68.5542 119.21V119.22Z" fill="#773E2A"/>
<path d="M61.0667 107.512L67.7051 109.501L66.9272 112.097L60.2888 110.108L61.0667 107.512Z" fill="#773E2A"/>
<path class="skin" d="M167.856 110.204C168.727 101.91 164.229 94.6396 157.808 93.9647C151.387 93.2899 145.475 99.4662 144.604 107.76C143.732 116.054 148.231 123.324 154.651 123.999C161.072 124.674 166.984 118.498 167.856 110.204Z" fill="#B2674B"/>
<path d="M154.207 118.211C154.157 116.491 153.767 101.301 156.547 96.8613L158.837 98.2913C156.847 101.461 156.767 113.681 156.907 118.121L154.207 118.201V118.211Z" fill="#773E2A"/>
<path d="M161.695 106.503L155.057 108.492L155.834 111.088L162.473 109.099L161.695 106.503Z" fill="#773E2A"/>
<path class="skin" d="M133.256 168.701C131.386 165.731 130.736 148.501 130.736 148.501L112.886 149.331L95.0965 150.991C95.0965 150.991 96.8465 168.141 95.4065 171.351C93.9665 174.551 80.3965 180.401 80.3965 180.401C84.6165 196.971 105.416 206.041 117.926 204.651C133.136 202.971 149.896 189.801 151.196 175.851C151.196 175.851 135.126 171.681 133.246 168.711L133.256 168.701Z" fill="#B2674B"/>
<path d="M131.517 159.841C131.267 157.421 131.087 154.941 130.967 152.911C128.597 154.031 122.767 156.311 113.427 156.961C101.957 157.761 96.227 155.321 95.457 154.961C95.607 156.831 95.767 159.151 95.877 161.471C98.857 164.931 104.997 170.371 114.317 169.721C122.927 169.121 128.537 163.691 131.517 159.851V159.841Z" fill="#773E2A"/>
<path class="skin" d="M67.2165 75.311C67.2165 75.311 73.2365 42.301 110.027 41.661C146.827 41.381 153.667 74.231 153.667 74.231C153.667 74.231 156.567 111.121 145.727 136.181C139.757 149.991 126.657 160.781 111.547 161.031C96.4365 161.161 83.0165 150.701 76.6965 137.041C65.2365 112.261 67.2165 75.311 67.2165 75.311Z" fill="#B2674B"/>
<path d="M133.53 118.81C133.331 119.693 133.528 120.952 134.068 121.761" stroke="#773E2A" stroke-width="2" stroke-linecap="square"/>
<path d="M110.887 135.644C108.701 135.511 107.326 134.727 107.23 134.661L108.67 132.233L107.954 133.452L108.66 132.233C108.785 132.311 111.86 133.98 116.21 131.469L117.624 133.92C115.007 135.434 112.674 135.753 110.897 135.645L110.887 135.644Z" fill="#311911"/>
<path d="M109.862 129.724C103.29 130.414 98.4819 129.371 98.128 129.297L98.5005 126.664C98.6512 126.698 114.036 130 127.349 120.417L128.619 122.707C122.184 127.344 115.399 129.143 109.871 129.723L109.862 129.724Z" fill="#311911"/>
<path d="M98.0643 87.4598C98.6909 85.6693 98.315 84.9206 97.3625 83.6741C96.41 82.4276 84.321 86.6687 84.321 86.6687C82.6876 87.0283 81.1595 87.7166 80.0286 88.5636L74.769 94.1214L84.038 90.3194L98.068 87.4766L98.0643 87.4598Z" fill="#311911"/>
<path d="M121.134 87.0558C120.502 85.2673 120.875 84.5174 121.824 83.2678C122.772 82.0181 134.875 86.2197 134.875 86.2197C136.509 86.574 138.04 87.2573 139.173 88.1006L144.451 93.6412L135.17 89.8695L121.131 87.0725L121.134 87.0558Z" fill="#311911"/>
<path d="M112.887 98.1543C113.462 104.928 115.797 107.818 115.797 111.087C115.797 114.357 111.191 113.321 111.191 113.321" stroke="#773E2A" stroke-width="2.5"/>
<circle cx="133.375" cy="100.549" r="4" fill="black"/>
<circle cx="88.375" cy="100.549" r="4" fill="black"/>
<path d="M63.5244 77.7238C66.6165 43.2906 89.1588 34.0475 107.414 34.0475C154.507 31.8821 158.161 74.9699 155.083 89.7625L152.551 111.853L146.279 89.762L140.696 73.683V83.3078H125.236L120.942 73.683V83.3078H107.414V63.5241L99.0399 83.3078H77.3529L75.4203 75.5544L71.0541 91.4386L69.6729 108.112L63.5244 77.7238Z" class="hair" fill="black"/>
<path d="M75.2552 117.163C74.8419 120.883 69.3412 122.158 66.6426 122.331C67.4464 126.005 69.9843 133.114 73.7049 132.149C78.3558 130.943 75.772 112.512 75.2552 117.163Z" class="hair" fill="black"/>
<path d="M147.885 118.8C148.299 122.521 153.799 123.796 156.498 123.968C155.694 127.643 153.156 134.751 149.436 133.787C144.785 132.581 147.369 114.15 147.885 118.8Z" class="hair" fill="black"/>
</svg>
