<svg width="455" height="472" viewBox="0 0 455 472" fill="none" xmlns="http://www.w3.org/2000/svg">
<path class="skin" d="M170.638 229.32C170.638 229.32 166.698 266.72 165.598 268.05C164.508 269.39 140.878 289.02 140.878 289.02L197.488 286.24C197.488 286.24 195.288 270.2 194.918 268.5C194.558 266.8 198.278 233.01 197.548 232.16C196.818 231.31 170.638 229.31 170.638 229.31V229.32Z" fill="#FFB784"/>
<path d="M116.498 291.63C125.118 279.63 149.398 269.29 164.828 263.45C180.258 257.61 187.508 276.7 187.508 276.7C187.508 276.7 194.018 272.1 194.558 271.29C195.098 270.48 194.878 267.53 194.878 267.53C194.878 267.53 198.158 268.39 198.858 269.2C199.558 270.01 202.798 291.46 202.798 291.46C202.798 291.46 204.488 292.51 204.928 293.46C205.368 294.41 205.168 304.92 204.908 304.99C204.658 305.05 114.588 304.99 114.588 304.99C114.588 304.99 114.428 298.01 114.498 297.52C114.588 296.94 115.918 296.27 115.918 296.27C115.918 296.27 115.008 293.69 116.478 291.64L116.498 291.63Z" fill="#D9D1C7"/>
<path d="M115.938 296.259C115.938 296.259 114.598 296.929 114.518 297.509C114.508 297.609 114.498 297.989 114.498 298.519L170.098 297.479L204.948 293.449C204.508 292.499 202.818 291.449 202.818 291.449C202.818 291.449 202.798 291.329 202.768 291.109L169.788 294.809L115.908 296.099C115.938 296.199 115.958 296.249 115.958 296.249L115.938 296.259Z" fill="#2B241D"/>
<path d="M163.418 262.62C176.468 266.46 179.148 277.83 178.158 278.45C177.168 279.07 153.078 287.47 153.078 287.47C153.078 287.47 148.638 277.63 144.148 275.88C140.508 274.46 135.128 276.87 135.128 276.87C135.128 276.87 134.738 274.75 135.448 273.76C136.158 272.77 160.068 261.64 163.428 262.63L163.418 262.62Z" fill="#E7E0DA"/>
<path d="M156.628 269.9C154.868 268.17 152.688 267.13 150.578 266.55C149.008 267.2 147.428 267.88 145.908 268.56C148.308 268.61 152.108 269.22 154.748 271.82C158.098 275.12 159.558 282.23 160.018 285.04C160.838 284.75 161.708 284.45 162.598 284.13C162.018 280.78 160.388 273.59 156.628 269.9Z" fill="#D9D1C7"/>
<path d="M158.449 263.57C156.839 264.09 154.979 264.78 153.019 265.55C156.459 265.75 161.689 266.51 164.239 269.23C167.399 272.6 169.239 278.74 169.939 281.51C170.829 281.19 171.679 280.88 172.479 280.59C171.669 277.47 169.689 271.12 166.189 267.38C164.269 265.33 161.329 264.18 158.439 263.55L158.449 263.57Z" fill="#D9D1C7"/>
<path class="skin" d="M73.1879 227.74C73.1879 227.74 69.1179 266.71 68.0179 268.05C66.9279 269.39 43.2979 289.02 43.2979 289.02L99.9078 286.24C99.9078 286.24 97.7078 270.2 97.3378 268.5C96.9778 266.8 102.238 230.17 101.508 229.32C100.778 228.47 73.1879 227.74 73.1879 227.74Z" fill="#FFB784"/>
<path d="M6.01772 291.631C14.6377 279.631 42.5877 269.331 58.0177 263.491C73.4477 257.651 79.2977 277.011 79.2977 277.011C79.2977 277.011 96.4377 272.09 96.9777 271.28C97.5177 270.47 97.2977 267.52 97.2977 267.52C97.2977 267.52 99.2677 267.59 100.378 268.95C101.768 270.67 104.678 291.45 104.678 291.45C104.678 291.45 106.368 292.5 106.808 293.45C107.248 294.4 107.048 304.91 106.788 304.98C106.528 305.05 4.10772 304.98 4.10772 304.98C4.10772 304.98 3.94772 298.001 4.01772 297.511C4.10772 296.931 5.43773 296.261 5.43773 296.261C5.43773 296.261 4.52773 293.681 5.99773 291.631H6.01772Z" fill="#D9D1C7"/>
<path d="M54.6779 261.63C67.7279 265.47 70.4079 276.84 69.4179 277.46C68.4279 278.08 44.3379 286.48 44.3379 286.48C44.3379 286.48 39.8979 276.64 35.4079 274.89C31.7679 273.47 26.9979 276.47 26.9979 276.47C26.9979 276.47 26.8779 274.16 27.5879 273.17C28.2979 272.18 51.3179 260.65 54.6779 261.63Z" fill="#E7E0DA"/>
<path d="M42.2776 265.69C44.2476 266.29 46.2377 267.3 47.8777 268.91C51.6377 272.6 53.2677 279.79 53.8477 283.14C52.9877 283.44 52.1576 283.74 51.3576 284.02C51.3276 284.03 51.2976 284.04 51.2676 284.05C50.8076 281.23 49.3477 274.12 45.9977 270.83C43.6777 268.55 40.4677 267.8 38.0977 267.62C39.4677 266.97 40.8776 266.32 42.2776 265.7V265.69Z" fill="#D9D1C7"/>
<path d="M49.8581 262.62C52.6881 263.26 55.5681 264.4 57.4481 266.41C60.9481 270.15 62.9281 276.5 63.7381 279.62C63.7381 279.62 63.7381 279.62 63.7281 279.62C63.3481 279.76 62.9481 279.9 62.5381 280.05C62.5081 280.06 62.4781 280.07 62.4381 280.08C62.0281 280.23 61.6181 280.38 61.1881 280.53C60.4781 277.76 58.6381 271.62 55.4881 268.25C53.0581 265.66 48.2181 264.84 44.7881 264.6C46.6081 263.83 48.3481 263.14 49.8581 262.62Z" fill="#D9D1C7"/>
<path d="M329.588 34.8996C331.088 34.8996 332.178 34.8396 332.528 34.8196L332.358 32.1396C329.188 32.3396 320.318 32.2896 317.398 29.7296C314.928 27.5696 315.738 18.0696 316.838 12.5896L314.198 12.0596C313.878 13.6696 311.188 27.8696 315.628 31.7496C318.738 34.4696 325.588 34.8996 329.588 34.8996Z" fill="#85B3B9"/>
<path class="pant" d="M332.928 0.419983C332.928 0.419983 346.738 15.27 346.358 18.1C345.968 20.93 343.198 85.85 335.028 89.15C326.858 92.45 240.728 93.36 238.368 95.58C236.008 97.8 224.878 226.33 223.138 228.15C221.398 229.98 212.748 232.18 212.278 232.18C211.808 232.18 163.088 229.33 163.088 229.33C163.088 229.33 156.798 223.53 156.018 220.47C155.228 217.41 167.638 95.86 167.638 95.86C167.638 95.86 136.218 93.56 134.328 96.39C132.438 99.22 120.278 216.46 119.078 218.67C117.878 220.88 109.958 226.69 109.018 226.69C108.078 226.69 56.3682 223.08 55.8982 222.92C55.4282 222.76 48.6482 213.44 48.7482 211.91C48.8582 210.38 66.5481 43.47 76.7281 34.92C86.9081 26.37 207.178 25.31 207.178 25.31C207.178 25.31 206.288 15.11 207.338 13.6C208.388 12.08 215.678 0 215.678 0L332.928 0.450012V0.419983Z" fill="#001141"/>
<path d="M332.448 35.25L332.598 32.43C326.908 32.12 318.238 30.54 316.808 28.02C315.198 25.18 316.058 15.46 316.968 10.01L314.178 9.54004C313.918 11.09 311.708 24.77 314.338 29.41C317.038 34.18 329.888 35.11 332.428 35.25H332.448Z" fill="#0043CE"/>
<path d="M250.318 9.82007L251.708 9.97009C251.658 10.4501 251.548 14.4701 251.458 17.6901C251.408 19.5901 251.368 20.9701 251.338 21.9901H248.508C248.548 20.6801 248.588 19.06 248.628 17.61C248.678 15.67 248.728 13.7001 248.778 12.2001C248.878 9.01007 248.898 8.43008 250.198 8.33008L251.708 9.50006L250.318 9.76007V9.81006V9.82007Z" fill="#0043CE"/>
<path d="M261.848 21.9997H259.018C259.128 19.1397 259.228 14.4897 259.288 10.2197L262.118 10.2597C262.118 10.2597 262.068 13.9697 261.978 17.6797C261.938 19.2097 261.898 20.7297 261.848 21.9997Z" fill="#0043CE"/>
<path d="M206.918 21.4305C215.108 21.2505 225.758 21.0905 239.628 20.9605C268.398 20.7005 297.288 20.7405 297.568 20.7405V23.5705C269.368 23.5205 231.898 23.7005 207.088 24.2605C207.038 23.5605 206.968 22.5505 206.918 21.4405V21.4305Z" fill="#0043CE"/>
<path d="M181.158 25.7402C179.288 31.0602 172.298 68.7203 167.508 95.8403C167.178 95.8203 166.158 95.7503 164.668 95.6503C168.348 74.8303 175.398 35.7502 178.258 25.8102C179.238 25.7902 180.208 25.7602 181.158 25.7402Z" fill="#0043CE"/>
<path d="M214.468 229.32C215.198 230.08 213.918 244.78 211.608 245.47C209.288 246.15 160.208 243.15 159.108 241.11C158.018 239.06 159.108 225.45 160.198 224.89C161.288 224.33 212.708 227.49 214.468 229.32Z" fill="#2B241D"/>
<path d="M111.758 222.81C111.758 222.81 111.758 236.87 109.398 238.7C107.038 240.52 53.038 235.48 51.538 233.87C50.038 232.26 51.648 217.77 53.358 217.12C55.068 216.47 110.278 221.59 111.758 222.81Z" fill="#2B241D"/>
<path d="M341.558 10.3596L208.648 11.4996C209.158 10.6796 209.758 9.69961 210.398 8.65961L339.238 7.55957C340.018 8.47957 340.798 9.42957 341.558 10.3696V10.3596Z" fill="#0043CE"/>
<path d="M5.45801 296.26C5.45801 296.26 5.24802 295.65 5.18802 294.79H63.448L66.598 292.52L104.638 291.13C104.668 291.34 104.688 291.46 104.688 291.46C104.688 291.46 106.378 292.51 106.818 293.46L66.478 294.9L63.448 297.16H4.20801C4.58801 296.69 5.448 296.26 5.448 296.26H5.45801Z" fill="#2B241D"/>
</svg>
