<svg width="455" height="471" viewBox="0 0 455 471" fill="none" xmlns="http://www.w3.org/2000/svg">
<g clip-path="url(#clip0_140_110)">
<path class="skin" d="M319.489 391.26C319.489 391.26 310.969 426.01 311.479 427.66C311.989 429.31 326.599 456.34 326.599 456.34L275.109 432.65C275.109 432.65 282.339 422.31 283.319 420.86C284.289 419.42 291.339 386.62 292.329 386.1C293.319 385.58 319.489 391.26 319.489 391.26Z" fill="#F59673"/>
<path d="M281.09 421.29C281.09 421.29 283.3 420.49 283.42 420.67C283.54 420.85 282.04 422.88 282.23 423.23C284.32 426.96 289.84 438.29 291.29 437.95C293 437.55 301.49 423.67 308.1 424.61C314.7 425.55 324.96 446.77 325.9 447.45C326.84 448.13 335.77 452.4 339.81 454.61C343.85 456.82 342.46 461.81 342.46 461.81C342.46 461.81 344.61 462.58 345.02 463.21C345.43 463.83 345.69 470.3 345.02 470.44C344.35 470.57 309.1 471.03 307.05 470.44C305 469.85 262.37 449.78 262.03 447.65C261.69 445.52 265.41 438.35 266.5 438.35C267.59 438.35 269.54 438.69 269.54 438.69C269.54 438.69 279.23 421.96 281.09 421.31V421.29Z" fill="#CFC5BB"/>
<path d="M308.76 465.05H345.34C345.26 464.12 345.15 463.38 345.03 463.19C344.63 462.57 342.47 461.79 342.47 461.79C342.47 461.79 342.48 461.74 342.5 461.67C334.43 462.12 312.31 463.56 309.13 463.35C305.72 463.13 274.939 443.06 267.109 438.36C266.899 438.34 266.689 438.33 266.519 438.33C266.139 438.33 265.459 439.18 264.739 440.38C274.439 446.06 307.02 465.06 308.77 465.06L308.76 465.05Z" fill="#2B241D"/>
<path d="M315.73 427.06C315.22 426.79 312.97 425.19 308.33 426.17C303.69 427.16 299.25 435.44 299.45 435.74C299.65 436.04 309.06 451.21 311.33 451.21C313.6 451.21 317.8 447.38 321.25 447.28C324.7 447.18 329.97 449.57 329.97 449.57C329.97 449.57 330.52 446.69 329.54 443.93C328.55 441.17 316.85 427.65 315.73 427.06Z" fill="#E7E0DA"/>
<path d="M324.3 436.63C321.31 436.1 317.85 436.01 314.66 437.21C310.02 438.96 307.13 442.37 305.53 444.88C306.15 445.74 306.76 446.58 307.35 447.34C308.54 445.22 311.16 441.54 315.65 439.85C319.51 438.39 324.06 439.28 327.15 440.24C326.32 439.13 325.33 437.89 324.3 436.62V436.63Z" fill="#D9D1C7"/>
<path d="M300.86 437.95C301.42 438.82 302.11 439.87 302.87 441.02C303.27 439.29 305.26 432.38 311.8 431.7C315.36 431.33 318.4 431.77 320.71 432.37C319.57 431.05 318.5 429.86 317.64 428.94C315.8 428.72 313.74 428.67 311.5 428.9C305.61 429.51 302.34 434.14 300.85 437.96L300.86 437.95Z" fill="#D9D1C7"/>
<path class="skin" d="M241.45 392.95C241.45 392.95 243.31 430.56 242.22 431.89C241.13 433.23 217.5 452.86 217.5 452.86L274.11 450.08C274.11 450.08 271.87 435.4 271.51 433.7C271.15 432 271.14 395.78 270.41 394.93C269.68 394.08 241.45 392.95 241.45 392.95Z" fill="#F59673"/>
<path d="M271.51 433.7L271.19 437.46L267.57 438.34C267.57 438.34 264.28 429.4 252.04 427.61C239.81 425.82 209.69 450.22 208.38 455.19C207.07 460.16 208.38 461.76 208.38 461.76C208.38 461.76 206.78 462.51 206.59 462.8C206.4 463.08 207.36 470.21 207.93 470.21C207.93 470.21 231.94 470.23 252.49 470.23C253.11 470.23 253.73 468.35 254.34 468.35C267.27 468.35 277.72 468.35 277.74 468.33C278.5 467.63 277.91 459.58 277.74 458.85C277.56 458.12 275.87 457.94 275.87 457.94C275.87 457.94 276.53 443.4 276.15 441.95C275.78 440.5 271.52 433.68 271.52 433.68L271.51 433.7Z" fill="#D9D1C7"/>
<path d="M206.59 462.81C206.78 462.53 208.38 461.78 208.38 461.78C208.38 461.78 208.36 461.76 208.33 461.7L253.02 461.64L256.22 458.77L275.87 457.64C275.87 457.84 275.86 457.96 275.86 457.96C275.86 457.96 277.55 458.15 277.73 458.87C277.76 458.99 277.8 459.39 277.85 459.96L256.3 461.17L252.85 464.05L206.64 464.11C206.56 463.41 206.54 462.88 206.59 462.81Z" fill="#2B241D"/>
<path d="M243.529 429.09C255.399 428.98 262.989 437.53 261.909 439.61C260.829 441.69 246.879 450.49 244.729 450.13C242.579 449.77 239.079 440.61 233.779 439.46C228.479 438.31 221.969 443.47 221.969 443.47L220.879 442.75C220.879 442.75 220.829 441.75 222.189 439.46C223.549 437.17 237.539 429.14 243.519 429.09H243.529Z" fill="#E7E0DA"/>
<path d="M237.97 438.34C235.35 436.8 231.93 435.22 228.58 434.83C229.77 434.15 231.04 433.46 232.35 432.81C234.46 433.41 236.51 434.3 238.36 435.31C241.27 436.89 243.94 438.88 246.45 441.02C248.48 442.74 250.58 444.55 252.14 446.74C251.29 447.24 250.46 447.72 249.67 448.15C248.33 446.36 246.58 444.87 244.91 443.41C242.74 441.53 240.45 439.79 237.97 438.34Z" fill="#D9D1C7"/>
<path d="M256.609 443.92C253.369 440.24 249.529 437.11 245.139 434.88C242.639 433.61 239.969 432.68 237.219 432.12C236.389 431.95 235.519 431.82 234.649 431.73C236.429 430.93 238.189 430.25 239.779 429.77C241.819 430.34 243.779 431.11 245.569 431.95C250.709 434.35 255.229 437.99 258.919 442.29C258.219 442.81 257.439 443.36 256.599 443.92H256.609Z" fill="#D9D1C7"/>
<path d="M328.86 395.17C329.12 395.21 331.53 398.61 331.81 399.89C332.09 401.17 329.29 414.94 328.05 415.84C326.81 416.74 270.7 406.45 270.44 405.99C270.18 405.53 272.09 389.2 272.88 388.29C273.68 387.39 277.55 386.11 277.55 386.11C277.55 386.11 323.31 394.24 328.86 395.18V395.17Z" fill="#2B241D"/>
<path class="pant" d="M217.31 0.0502929C217.31 0.0502929 196.57 33.5902 193.77 57.8002C191.24 79.7302 217.57 331.65 219.65 384.34C219.87 389.81 230.72 393.58 230.72 393.58L280.18 396.93L288.09 389.32L275.47 100.68L276.89 100.64C276.89 100.64 300.03 179.93 305.87 215.14C306.18 216.99 301.5 222.5 301.7 224.08C302.19 227.86 307.31 227.07 307.12 229.03C307 230.19 301.35 231.19 300.46 234.85C300.16 236.09 304.93 239.01 304.56 240.48C304 242.7 303.37 245.18 302.68 247.88C293.8 282.51 274.95 352.92 277.16 373.48C277.46 376.32 280.55 389.35 282.23 390.25C284.62 391.53 323.51 395.78 323.51 395.78C323.51 395.78 333.4 391.57 335.19 388.4C339.8 380.25 380.24 258.84 381.3 230.65C382.65 194.8 359.4 65.3702 359.26 59.6302C358.79 40.5602 334.38 0.0302734 334.38 0.0302734H217.31V0.0502929Z" fill="#001141"/>
<path d="M210.46 12.2002C210.04 12.9902 209.61 13.8202 209.18 14.6702H342.55C342.1 13.8202 341.66 13.0002 341.24 12.2002H210.47H210.46Z" fill="#0043CE"/>
<path d="M227.03 391.26C226.77 391.26 223.74 394.12 223.22 395.32C222.7 396.52 222.78 410.57 223.82 411.69C224.86 412.81 283.79 413.58 284.13 413.18C284.47 412.78 285.77 396.39 285.16 395.34C284.55 394.3 281 392.3 281 392.3C281 392.3 232.65 391.42 227.02 391.26H227.03Z" fill="#2B241D"/>
<path d="M273.29 81.4001V13.0301H275.98V78.1601C279.68 77.4101 284.3 76.2401 285.75 75.3601C286.22 73.4601 286.36 63.0001 282.66 16.5701C282.42 13.5401 282.39 13.1701 282.39 13.0301H285.08H283.74L285.08 12.9902C285.08 13.1602 285.2 14.5701 285.34 16.3501C290.04 75.4201 288.65 76.5201 287.63 77.3201C285.34 79.1201 276.61 80.7901 274.88 81.1101L273.29 81.4001Z" fill="#0043CE"/>
<path d="M337.03 35.9299C333.04 35.9299 326.18 35.4998 323.07 32.7798C318.63 28.8998 321.32 14.6998 321.64 13.0898L324.28 13.6198C323.19 19.0998 322.37 28.5998 324.84 30.7598C327.76 33.3198 336.63 33.3698 339.8 33.1698L339.97 35.8498C339.62 35.8698 338.53 35.9299 337.03 35.9299Z" fill="#0043CE"/>
<path d="M213.46 36.3703C211.96 36.3703 210.87 36.3103 210.52 36.2903L210.69 33.6103C213.86 33.8103 222.73 33.7603 225.65 31.2003C228.12 29.0403 227.31 19.5403 226.21 14.0603L228.85 13.5303C229.17 15.1403 231.859 29.3403 227.419 33.2203C224.309 35.9403 217.46 36.3703 213.46 36.3703Z" fill="#0043CE"/>
<path d="M274.819 100.73C273.669 100.73 271.649 99.9004 270.779 99.5404C269.489 99.0104 263.199 95.6903 256.869 91.9203L258.279 89.6303C266.289 94.4403 271.829 97.6903 272.689 97.9503C273.329 98.1003 276.249 98.0605 278.809 97.9305L293.28 89.3604L294.65 91.6703L279.609 100.58L279.279 100.6C278.689 100.63 276.639 100.73 274.809 100.73H274.819Z" fill="#0043CE"/>
<path d="M234.26 240.51C239.37 240.51 244.629 237.84 249.909 232.56L248.01 230.66C246 232.67 238.029 238.12 233.409 237.79C227.809 237.39 224.469 233.01 224.429 232.96L222.27 234.56C222.43 234.78 226.339 239.95 233.169 240.46C233.529 240.49 233.89 240.5 234.25 240.5L234.26 240.51Z" fill="#0043CE"/>
<path d="M286.34 391.14C287.4 391.31 288.62 391.5 289.96 391.69C290.34 391.3 290.65 390.92 290.84 390.58C291.11 390.11 291.93 388.69 287.61 308C286.82 311.37 286.05 314.72 285.31 318.04C286.9 348.71 288.64 385.67 288.29 389.33C287.96 389.76 287.23 390.43 286.34 391.14Z" fill="#0043CE"/>
<path d="M360.85 241.43C352.95 241.43 348.6 236.59 348.54 236.51L350.67 234.65L349.6 235.58L350.66 234.65C350.99 235.02 358.87 243.62 373.46 234.39L374.97 236.78C369.47 240.26 364.73 241.43 360.85 241.43Z" fill="#0043CE"/>
<path d="M284.81 392.48L283.42 393.82C283.66 394.27 285.26 396.47 286.2 398.55C286.83 399.94 285.46 406.14 284.68 408.86C285.57 409.03 286.67 409.23 287.6 409.4C288.41 406.35 289.74 399.9 288.77 397.39C287.72 394.68 286.33 393.3 284.81 392.49V392.48Z" fill="#2B241D"/>
</g>
<defs>
<clipPath id="clip0_140_110">
<rect width="189" height="471" fill="white" transform="translate(193)"/>
</clipPath>
</defs>
</svg>
