<svg width="456" height="472" viewBox="0 0 456 472" fill="none" xmlns="http://www.w3.org/2000/svg">
<path class="skin" d="M384.156 374.909C384.556 375.729 402.306 393.479 402.466 395.779C402.626 398.079 394.906 421.419 395.066 421.909C395.226 422.399 409.206 430.289 410.356 430.459C411.506 430.619 445.206 397.089 442.906 390.349C440.606 383.609 422.356 379.829 421.206 378.679C420.056 377.529 405.756 355.999 403.456 355.339C401.156 354.679 384.156 374.899 384.156 374.899V374.909Z" fill="#FFB784"/>
<path class="pant" d="M201.496 19.1195C201.496 19.1195 176.416 144.669 168.496 187.699C160.586 230.729 140.686 385.149 144.546 387.809C148.396 390.479 197.486 401.729 200.346 399.659C203.206 397.589 222.286 266.899 224.666 266.029C227.056 265.159 232.256 262.559 232.906 260.169C233.556 257.779 228.886 252.649 228.976 252.169C229.076 251.689 236.686 250.919 236.396 248.119C236.106 245.319 232.056 243.489 232.056 243.489C232.056 243.489 272.246 136.779 274.036 139.459C275.826 142.139 281.196 251.929 286.566 263.569C291.096 273.389 342.586 347.929 360.226 376.019C361.296 377.719 367.576 377.919 369.396 378.199C381.036 379.989 411.166 359.319 409.376 344.099C409.116 341.849 409.976 337.219 409.426 335.879C399.046 310.349 361.016 258.429 359.906 255.089C358.596 251.169 365.616 250.519 364.476 246.439C363.336 242.359 358.046 244.829 358.146 243.279C358.246 241.729 363.106 240.699 363.106 237.909C363.106 235.119 357.526 233.359 357.526 233.359C357.526 233.359 357.756 44.1295 354.586 22.0695C353.586 15.0895 336.296 2.24947 334.306 1.12947C330.256 -1.13053 218.766 0.699476 218.766 0.699476L201.476 19.0994L201.496 19.1195Z" fill="#001141"/>
<path d="M391.506 414.299C391.506 414.299 395.956 395.599 404.186 394.689C412.426 393.769 425.996 394.599 426.916 392.899C427.836 391.199 427.076 380.809 427.076 380.809L421.606 378.929C421.606 378.929 422.386 377.449 422.996 377.449C423.606 377.449 435.076 377.619 436.686 378.619C436.686 378.619 438.896 377.209 440.706 377.949C442.516 378.689 451.546 384.269 452.776 390.119C454.006 395.969 426.996 445.879 419.416 449.869C411.836 453.859 371.056 453.849 369.356 451.639C368.716 450.809 368.696 447.239 368.696 447.239L369.526 445.229C369.526 445.229 368.886 434.899 373.996 431.099C379.106 427.289 389.926 425.099 389.926 424.299C389.926 423.499 391.496 414.289 391.496 414.289L391.506 414.299Z" class="shoeSoleColor" fill="#D9D1C7"/>
<path d="M387.496 425.4C387.496 425.4 391.646 423.25 397.286 423.53C402.926 423.81 410.406 428.15 411.796 427.5C413.186 426.85 421.596 403.89 418.446 401.9C415.296 399.91 398.386 397.27 394.696 400.69C390.996 404.11 387.496 425.39 387.496 425.39V425.4Z" class="shoeTongueColor"  fill="#E7E0DA"/>
<path d="M369.546 445.239C369.546 445.239 368.686 446.089 368.436 446.169C368.186 446.249 366.946 452.059 369.076 452.899C371.206 453.739 410.876 455.199 418.536 451.249C426.196 447.289 457.926 397.199 454.796 389.649C451.666 382.099 440.436 376.949 439.376 377.049C438.316 377.149 436.706 378.619 436.706 378.619C436.706 378.619 450.416 385.719 450.566 388.239C450.716 390.759 424.046 439.709 415.916 443.209C407.796 446.709 369.556 445.239 369.556 445.239H369.546Z" class="shoeSoleColor" fill="#D9D1C7"/>
<path d="M261.116 79.6298C259.356 79.3098 250.476 77.6398 248.146 75.8398C247.106 75.0398 245.686 73.9398 250.476 14.8698C250.616 13.0898 250.736 11.6798 250.746 11.5098L252.116 11.5497H250.746H253.476C253.476 11.6897 253.446 12.0498 253.206 15.0898C249.446 61.5198 249.576 71.9798 250.066 73.8798C251.546 74.7598 256.236 75.9297 260.006 76.6797V11.5497H262.736V79.9197L261.126 79.6298H261.116Z" class="pantOutlineColor"  fill="#0043CE"/>
<path d="M331.756 34.3898C333.276 34.3898 334.396 34.3298 334.746 34.3098L334.576 31.6298C331.356 31.8298 322.326 31.7798 319.356 29.2198C316.846 27.0598 317.666 17.5598 318.786 12.0798L316.106 11.5498C315.776 13.1598 313.046 27.3598 317.556 31.2398C320.716 33.9598 327.686 34.3898 331.756 34.3898Z" class="pantOutlineColor"  fill="#0043CE"/>
<path d="M199.157 31.8198C201.067 31.4398 203.577 30.6297 205.127 28.9297C207.177 26.6897 207.527 17.8797 207.257 12.8597L209.987 12.7197C210.067 14.1597 210.637 26.9297 207.157 30.7297C204.917 33.1697 201.417 34.1698 199.057 34.5698C199.087 33.5998 199.117 32.6798 199.147 31.8198H199.157Z" class="pantOutlineColor"  fill="#0043CE"/>
<path d="M345.706 10.209H209.876L207.346 12.899H348.476C347.586 11.989 346.656 11.089 345.706 10.209Z" class="pantOutlineColor"  fill="#0043CE"/>
<path d="M252.616 95.9297L252.896 93.2598C267.586 94.8198 268.236 95.1398 268.486 95.2598C269.08 95.5598 269.886 100.69 270.906 110.65C271.636 117.76 272.586 127.5 273.736 139.61C273.306 140.13 272.536 141.83 271.496 144.46C269.346 121.84 267.356 101.73 266.746 97.5997C264.606 97.2597 258.286 96.5297 252.606 95.9297H252.616Z" class="pantOutlineColor"  fill="#0043CE"/>
<path d="M203.757 379.72C203.757 379.72 206.327 382.95 206.517 384C206.707 385.05 202.857 401.92 200.527 402.53C190.817 405.04 146.797 393.99 142.047 388.76C140.307 386.85 143.187 369.62 144.037 368.6C144.887 367.58 148.797 367.36 148.797 367.36C148.797 367.36 171.717 365.94 203.757 379.72Z" class="pantBottomColor"  fill="#2B241D"/>
<path class="skin" d="M158.306 384.95C157.446 385.1 154.846 406.81 154.196 407.62C153.546 408.43 125.246 411.85 122.796 414.29C120.356 416.73 175.056 439.45 176.356 436.69C177.656 433.92 179.406 417.54 180.216 413.64C181.026 409.74 185.506 392.22 183.386 390.91C181.276 389.61 170.736 382.77 158.296 384.94L158.306 384.95Z" fill="#FFB784"/>
<path d="M86.7869 411.39C87.1469 411.15 89.1869 405.39 96.3769 404.56C103.567 403.72 119.637 406.96 120.717 406.48C121.797 406 150.887 398.53 155.767 401.54C160.647 404.55 162.567 424.34 165.807 423.14C169.047 421.94 178.927 413.1 180.077 414.37C183.407 418.06 177.057 445.19 177.177 445.79C177.297 446.39 178.577 445.9 179.167 447.34C179.767 448.78 176.947 457.19 175.277 458.15C173.597 459.11 101.317 436.37 86.4469 417.19C83.4269 413.3 86.7869 411.39 86.7869 411.39Z" class="shoeSoleColor" fill="#D9D1C7"/>
<path d="M86.6561 409.919C93.4061 407.309 120.836 426.399 136.716 433.559C152.596 440.719 178.646 444.399 179.716 446.529C180.786 448.659 177.426 458.169 175.416 459.059C173.406 459.949 146.006 451.229 119.726 440.829C93.4461 430.429 83.4161 415.459 84.0261 413.679C84.6361 411.909 86.6561 409.919 86.6561 409.919Z" class="shoeSoleColor" fill="#D9D1C7"/>
<path d="M84.0261 413.68C84.2261 413.09 84.5961 412.48 84.9861 411.92C92.0061 412.28 122.836 436.05 139.066 441.03C154.356 445.72 173.136 451.57 177.706 455.78C176.936 457.44 176.106 458.75 175.416 459.06C173.406 459.95 146.006 451.23 119.726 440.83C93.4461 430.43 83.4161 415.46 84.0261 413.68Z" fill="#9E968F"/>
<path d="M121.547 406.219C130.617 406.219 131.737 413.649 133.577 414.159C135.407 414.669 154.757 412.309 155.267 409.669C155.777 407.029 151.997 401.329 146.187 399.699C140.377 398.069 117.407 402.459 117.107 402.879C116.807 403.309 115.717 406.029 115.717 406.029L120.477 406.649L121.547 406.219Z" class="shoeTongueColor"  fill="#E7E0DA"/>
<path d="M89.5063 407.709C96.1363 409.559 113.306 418.909 131.136 428.899C133.996 430.499 136.246 431.759 136.766 432.009C138.576 432.879 160.556 436.269 177.796 442.449C177.526 443.799 177.326 444.829 177.236 445.359C162.666 440.309 138.196 435.819 135.536 434.549C134.936 434.259 132.986 433.169 129.746 431.349C119.846 425.799 93.7164 410.799 87.8164 409.709C88.2264 409.099 88.7763 408.389 89.5063 407.689V407.709Z" class="pantBottomColor"  fill="#2B241D"/>
<path d="M129.227 400.569C130.837 400.329 132.487 400.109 134.107 399.919C134.667 400.329 135.197 400.779 135.717 401.299C137.677 403.289 139.257 405.669 140.437 408.189C141.237 409.899 141.937 411.669 142.257 413.489C141.307 413.619 140.387 413.739 139.517 413.839C139.197 412.189 138.457 410.539 137.767 409.139C136.717 406.999 135.387 404.989 133.717 403.299C132.377 401.939 130.857 401.069 129.227 400.569Z" class="shoelaceColor" fill="#D9D1C7"/>
<path d="M151.256 411.749C150.426 411.979 149.496 412.199 148.526 412.409C148.046 410.619 146.916 408.819 146.026 407.369C144.816 405.409 143.316 403.609 141.516 402.159C140.126 401.049 138.516 400.179 136.816 399.629C138.856 399.439 140.766 399.329 142.406 399.329C142.586 399.459 142.766 399.579 142.946 399.719C145.116 401.379 146.916 403.469 148.366 405.779C149.466 407.529 150.686 409.619 151.266 411.749H151.256Z" class="shoelaceColor" fill="#D9D1C7"/>
<path d="M166.666 252.809C170.396 256.799 176.106 258.749 181.486 257.719C183.266 257.379 184.026 260.099 182.236 260.439C175.866 261.659 169.106 259.559 164.666 254.799C163.426 253.469 165.416 251.469 166.666 252.799V252.809Z" class="pantOutlineColor"  fill="#0043CE"/>
<path d="M300.957 269.499C305.927 270.109 311.757 270.389 315.607 266.589C316.907 265.309 318.907 267.309 317.607 268.589C313.187 272.949 306.737 273.039 300.957 272.329C300.197 272.239 299.547 271.749 299.547 270.919C299.547 270.229 300.197 269.409 300.957 269.509V269.499Z" class="pantOutlineColor"  fill="#0043CE"/>
<path d="M409.256 339.8C409.256 339.8 409.147 357.32 393.957 366.92C378.767 376.52 363.886 377.46 363.886 377.46C363.886 377.46 362.937 382.22 362.937 382.54C362.937 382.86 371.696 392.04 373.376 392.46C375.056 392.88 391.097 392.35 408.197 379.38C425.287 366.4 422.177 354.07 421.937 353.58C421.697 353.1 413.847 341.11 412.817 340.6C411.847 340.12 409.256 339.82 409.256 339.82V339.8Z" class="pantBottomColor"  fill="#2B241D"/>
<path d="M368.427 446.169C368.677 446.089 369.536 445.24 369.536 445.24C369.536 445.24 369.516 444.959 369.516 444.479C385.576 445.199 409.557 445.879 412.207 444.879C416.027 442.979 447.166 397.359 448.506 389.889C449.486 384.419 438.426 379.339 434.656 378.109C435.616 378.249 436.357 378.42 436.687 378.62C436.687 378.62 437.846 377.569 438.846 377.189C443.236 378.879 452.557 383.329 451.297 390.389C449.917 398.119 418.256 445.629 413.236 447.509C411.906 448.009 407.326 448.189 401.536 448.189C389.826 448.189 373.146 447.47 368.106 447.24C368.226 446.62 368.367 446.189 368.437 446.169H368.427Z" class="pantBottomColor"  fill="#2B241D"/>
<path d="M391.106 408.89C391.426 407.79 391.756 406.74 392.096 405.77C396.806 404.76 401.627 404.38 406.427 405.06C410.357 405.62 415.056 406.9 418.366 409.56C418.136 410.56 417.867 411.6 417.567 412.66C414.567 409.47 409.227 408.19 405.197 407.73C400.447 407.19 395.706 407.74 391.106 408.89Z" class="shoelaceColor" fill="#D9D1C7"/>
<path d="M400.466 415.16C396.926 414.8 393.097 414.82 389.437 415.5C389.657 414.52 389.896 413.52 390.136 412.52C393.746 411.98 397.466 411.98 400.906 412.38C406.316 413 411.517 414.82 415.927 417.92C415.607 418.87 415.277 419.81 414.947 420.69C410.767 417.54 405.677 415.7 400.457 415.16H400.466Z" class="shoelaceColor" fill="#D9D1C7"/>
</svg>
