<svg width="245" height="254" viewBox="0 0 245 254" fill="none" xmlns="http://www.w3.org/2000/svg">
<path d="M54.8625 141.579C52.8625 113.579 57.9947 100.229 66.4377 94.9171C107.74 129.323 122.867 173.363 123.105 173.053C123.818 172.052 110.274 78.7101 110.438 78.4171C110.539 78.9106 132.438 76.4171 132.438 76.4171C132.438 76.4171 170.314 219.464 162.57 238.09C160.682 242.627 149.608 248.643 143.632 247.417C121.663 242.895 59.8625 163.079 54.8625 141.579Z" class="skin" fill="#F3A396"/>
<path d="M123.959 173.541C123.959 173.541 122.984 172.557 121.438 170.917C125.474 186.144 126.533 190.617 126.579 190.917L127.508 190.866L128.437 190.82C128.407 190.561 127.318 185.96 123.943 173.22C123.966 173.408 123.966 173.52 123.951 173.541H123.959Z" fill="#D26665"/>
<path d="M110.631 79.9843L109.526 70.5831C104.608 68.4248 99.7783 64.8518 97.2063 56.5709C94.9259 49.2211 97.9601 37.7189 97.9601 37.7189C97.9601 37.7189 99.3119 1.6966 104.404 1.43139C109.487 1.16661 106.34 24.2553 106.34 24.2553C106.34 24.2553 108.337 20.6044 111.393 21.1092C114.448 21.6139 114.505 23.9663 114.505 23.9663C114.505 23.9663 115.587 21.32 118.028 21.3444C120.468 21.3687 121.313 25.0871 121.313 25.0871C121.313 25.0871 124.575 21.5834 128.472 23.5837C132.368 25.5739 137.833 37.5539 138.589 44.6156C140.147 59.133 133.111 67.7462 132.715 69.0224C132.438 69.8872 132.715 78.432 132.715 78.432L110.621 79.9746L110.631 79.9843Z" class="skin" fill="#F3A396"/>
<path d="M117.761 40.8652C117.852 41.186 117.934 41.5173 117.985 41.8297C118.087 42.4038 118.128 42.9399 118.109 43.4381C118.065 44.7495 117.619 45.774 116.805 46.3784C114.608 48.0181 111.112 46.5279 109.185 45.4558L107.79 48.5624C111.184 48.768 115.705 50.284 116.939 55.1728L114.516 55.8278C113.175 50.4666 106.237 51.1584 105.945 51.1915L103.741 51.441L108.106 41.7173L109.309 42.5067C111.104 43.6862 114.263 45.0593 115.352 44.25C115.532 44.1202 115.739 43.4614 115.535 42.2829C115.104 39.8455 112.975 35.9808 109.581 35.0444C105.83 34.0019 99.2561 39.093 97.249 41.0796C97.6246 39.0431 97.9702 37.7083 97.9702 37.7083C97.9702 37.7083 97.9797 37.4643 98.0005 37.0168C98.0666 36.9631 98.1231 36.9099 98.1892 36.8562C99.0937 36.0652 101.323 34.2616 104.02 33.1682C103.862 30.2519 106.161 21.2892 106.959 18.5947C106.681 21.8449 106.36 24.2545 106.36 24.2545C106.36 24.2545 107.36 22.4544 109.011 21.5493C108.129 24.5723 106.548 30.306 106.478 32.4203C107.718 32.1931 108.986 32.1778 110.229 32.5289C110.555 32.6161 110.882 32.7438 111.19 32.8723C111.713 31.5703 112.586 26.6697 113.267 21.8284C114.483 22.6985 114.515 23.9659 114.515 23.9659C114.515 23.9659 114.906 23.0249 115.734 22.2678C114.681 29.9371 113.895 32.9154 113.34 34.1478C114.358 34.9453 115.247 35.9212 115.973 36.9955C116.178 37.2199 117.615 38.7299 118.674 38.1351C119.609 37.6066 119.899 36.8325 119.988 36.382C119.131 31.3852 120.078 24.4615 120.331 22.7857C121.048 23.8402 121.333 25.0862 121.333 25.0862C121.333 25.0862 121.838 24.5463 122.694 24.001C122.29 27.0233 121.835 32.3723 122.439 35.949L122.536 35.9448C122.539 36.0157 122.542 36.0866 122.545 36.1576C122.548 36.2285 122.541 36.2998 122.535 36.3813C122.73 37.3471 123.007 38.1469 123.4 38.7082C123.743 39.2006 124.059 39.2983 124.275 39.3294C124.776 39.4088 125.181 39.2894 125.595 38.926C127.51 37.2987 128.459 31.6335 128.603 28.4502L131.106 28.5732C131.057 29.5295 130.574 38.0365 127.179 40.9268C126.227 41.7403 125.089 42.0746 123.901 41.8936C122.909 41.7343 122.037 41.1638 121.374 40.2287C121.23 40.0321 121.103 39.8042 120.987 39.5759C120.677 39.8738 120.317 40.1535 119.889 40.4059C119.183 40.8024 118.475 40.9149 117.789 40.8436L117.761 40.8652Z" fill="#D26665"/>
<path d="M21.4455 138.258C11.2519 122.744 15.822 101.761 31.601 91.3929C45.6326 82.173 63.7729 84.4189 74.8004 95.8714L122.976 142.598L73.1836 193.465L28.2659 145.826C25.699 143.736 23.3871 141.213 21.4628 138.284L21.4455 138.258Z" class="top" fill="#EDF5FF"/>
</svg>
