<svg width="228" height="357" viewBox="0 0 228 357" fill="none" xmlns="http://www.w3.org/2000/svg">
<path class="skin" d="M81.8461 79.1712C81.4161 78.7712 73.9762 77.5312 67.4962 97.1312C61.1362 116.361 63.5361 138.911 63.5361 138.911C63.5361 138.911 80.0561 174.141 69.4161 216.571C60.3761 252.621 30.5361 286.161 25.0561 294.221C21.2961 299.771 48.0461 301.501 48.0461 301.501C48.0461 301.501 85.7061 259.391 95.9861 224.021C106.376 188.241 104.316 100.201 81.8461 79.1712Z" fill="#FFB784"/>
<path class="skin" d="M36.5762 279.061C29.9062 288.221 24.4762 294.501 24.4762 294.501C24.4762 294.501 15.8562 293.661 13.0962 297.731C10.3362 301.801 7.52616 314.451 7.52616 314.451C7.52616 314.451 1.85622 314.591 0.216223 318.101C-1.42378 321.611 6.67617 324.941 10.6562 323.301C14.6362 321.661 17.0262 315.431 17.0262 315.431C17.0262 315.431 13.3162 326.811 11.1162 331.441C8.91625 336.071 5.03623 341.061 5.34623 344.431C5.65623 347.811 11.5063 348.321 11.5063 348.321C11.5063 348.321 9.5062 353.931 13.3162 355.851C17.1262 357.771 20.9262 352.631 20.9262 352.631C20.9262 352.631 22.3362 355.461 25.5962 353.531C28.8562 351.601 29.5462 348.771 29.5462 348.771C29.5462 348.771 32.2762 349.611 35.9562 346.001C39.6462 342.391 49.1762 328.691 50.9062 319.191C52.6362 309.691 48.0362 301.491 48.0362 301.491C48.0362 301.491 57.1362 290.741 57.7362 289.821C57.9862 289.451 36.5562 279.051 36.5562 279.051L36.5762 279.061Z" fill="#FFB784"/>
<path d="M21.5261 305.061C20.6261 309.471 15.7661 320.451 13.7861 324.801C15.4761 320.191 17.0261 315.431 17.0261 315.431C17.0261 315.431 15.1562 320.301 11.9762 322.561C14.1362 317.731 18.2362 308.321 19.0062 304.541L21.5261 305.051V305.061Z" fill="#B17861"/>
<path d="M20.9359 352.641C20.9359 352.641 19.436 354.671 17.376 355.701L19.4659 353.361C20.3759 351.851 31.1159 333.841 34.5259 323.031L36.976 323.801C33.756 334.031 24.5259 349.881 22.1459 353.871C21.3159 353.411 20.9259 352.641 20.9259 352.641H20.9359Z" fill="#B17861"/>
<path d="M9.16614 347.141C13.5561 347.551 21.1862 330.831 25.1962 318.831L27.6362 319.641C27.6162 319.721 25.0761 327.261 21.6661 334.621C17.7961 342.971 14.3662 347.801 11.2562 349.241C11.3862 348.671 11.5161 348.311 11.5161 348.311C11.5161 348.311 9.18623 348.111 7.38623 347.101C8.12623 347.031 8.80615 347.101 9.17615 347.131L9.16614 347.141Z" fill="#B17861"/>
<path d="M41.6862 325.761L44.0862 326.661C41.5762 333.341 36.1962 342.851 33.1062 348.101C31.3662 348.981 30.2661 349.051 29.5361 348.771C32.1361 344.431 38.9061 333.131 41.6761 325.751L41.6862 325.761Z" fill="#B17861"/>
</svg>
