<svg width="130" height="210" viewBox="0 0 130 210" fill="none" xmlns="http://www.w3.org/2000/svg">
<path d="M65.6836 202.435C49.2155 202.435 35.876 189.342 35.876 173.178V110.92H95.4911V173.178C95.4911 189.342 82.1516 202.435 65.6836 202.435Z" class="skin" fill="#FCCBAE"/>
<path d="M115.094 40.1835C112.701 32.0001 107.062 20.4242 86.9018 11.8005C53.6217 -2.46875 31.1782 27.8048 31.1782 27.8048C22.2119 26.8984 17.3436 30.1355 15.3908 37.7492C13.7406 44.2494 15.9684 56.9648 17.1786 61.8334L23.8071 94.9556L30.2156 65.5625C36.5141 46.2434 46.0855 38.3707 46.0855 38.3707L76.5052 36.0918L108.768 92.1328L115.039 58.9588C115.836 54.7635 116.166 50.4646 115.919 46.1916C115.781 43.7314 115.506 41.582 115.094 40.1576L115.094 40.1835Z" class="hair" fill="#E94B36"/>
<path d="M102.631 110.852C111.284 117.904 128.566 89.0803 120.181 81.537C111.797 73.9938 105.258 86.5652 105.258 86.5652L104.429 97.4688L102.539 107.636L101.843 110.773L102.633 110.818L102.631 110.852Z" class="skin" fill="#FCCBAE"/>
<path d="M116 90.5705C116 90.5705 110.735 87.4011 106.393 96.2721" stroke="#864B1D" stroke-width="2" stroke-linecap="square" stroke-linejoin="round"/>
<path d="M109.053 93.1951C109.053 93.1951 115.164 96.6007 110.757 101.841" stroke="#864B1D" stroke-width="2" stroke-linecap="square" stroke-linejoin="round"/>
<path d="M23.925 106.355C14.5242 112.375 0.639302 81.7699 9.8287 75.231C19.0181 68.6921 23.7991 82.0457 23.7991 82.0457L23.6978 92.8558L24.4168 103.172L24.7164 106.366L23.9269 106.321L23.925 106.355Z" class="skin" fill="#FCCBAE"/>
<path d="M12.1592 84.5719C12.1592 84.5719 18.2704 82.5515 22.6125 91.4225" stroke="#864B1D" stroke-width="2" stroke-linecap="square" stroke-linejoin="round"/>
<path d="M18.8119 87.1526C18.8119 87.1526 12.995 90.6019 17.4015 95.8424" stroke="#864B1D" stroke-width="2" stroke-linecap="square" stroke-linejoin="round"/>
<path d="M107.808 72.6853C106.757 91.0797 103.344 106.804 100.228 117.949C97.161 128.826 89.7455 138.069 79.7099 143.748L77.8939 144.793C67.2555 150.776 54.033 150.156 43.9585 143.26C33.8193 136.292 27.065 125.53 25.4774 113.541C22.5889 91.7785 23.5059 67.901 23.5059 67.901C23.5059 67.901 22.2481 21.2197 67.6413 24.7267C113.034 28.2336 107.772 72.717 107.772 72.717L107.808 72.6853Z" class="skin" fill="#FCCBAE"/>
<path d="M69.5769 131.283L56.9861 131.283L59.5969 140.827L55.8494 146.27L42.9798 139.178L25.8564 112.844C31.0118 136.729 40.893 149.769 63.4013 150.396C84.253 150.977 98.4233 132.357 100.446 112.845L84.4894 139.178L70.6862 146.904L66.6689 140.827L69.5769 131.283Z" class="hair" fill="#E94B36"/>
<path d="M60.6592 82.929L59.8024 97.9207C59.7735 98.4261 59.8495 98.9036 59.9961 99.3514C60.6168 101.144 62.5957 102.069 64.4761 101.703L68.5174 100.886" stroke="#864B1D" stroke-width="2.5" stroke-linecap="square" stroke-linejoin="round"/>
<path d="M45.5396 81.7595C47.7196 81.8841 49.586 80.2506 49.7083 78.1109C49.8306 75.9712 48.1625 74.1356 45.9824 74.011C43.8024 73.8864 41.936 75.52 41.8137 77.6597C41.6914 79.7994 43.3596 81.635 45.5396 81.7595Z" fill="#001D6C"/>
<path d="M82.0952 83.8489C84.2753 83.9735 86.1416 82.3399 86.2639 80.2002C86.3862 78.0605 84.7181 76.225 82.5381 76.1004C80.3581 75.9758 78.4917 77.6093 78.3694 79.749C78.2471 81.8887 79.9152 83.7243 82.0952 83.8489Z" fill="#001D6C"/>
<path d="M71.1971 63.9334L72.9146 60.0543L86.4481 61.2152C88.1655 61.7118 89.6834 62.7748 90.7214 64.1359L95.335 70.8512L85.5797 66.2871L71.1888 63.9622L71.1971 63.9334Z" class="hair" fill="#E94B36"/>
<path d="M58.2256 67.993L58.3364 66.0546L44.2989 63.4271C42.514 63.3251 40.725 63.8988 39.2866 64.9658L33.221 71.0748L41.3508 69.0318L58.1115 69.9898L58.2256 67.993Z" class="hair" fill="#E94B36"/>
<path d="M53.1912 112.16C53.1912 112.16 64.8455 111.184 75.5526 115.663" stroke="#864B1D" stroke-width="2.5" stroke-linecap="square" stroke-linejoin="round"/>
<path d="M59.7339 119.074C59.7339 119.074 65.0482 119.219 68.0496 120.449" stroke="#864B1D" stroke-width="2.5" stroke-linecap="square" stroke-linejoin="round"/>
<path d="M101.107 28.7765C100.059 29.1131 66.2103 19.842 66.2103 19.842L36.5011 28.7765C36.5011 28.7765 36.5011 28.7765 36.5011 28.8283C10.3811 35.8205 21.8823 60.2672 21.8823 60.2672C32.6237 54.8029 31.8377 43.6154 33.8812 35.5874C38.6232 41.7509 56.8312 53.016 79.231 52.5758C102.155 52.1355 104.748 43.3047 104.748 43.3047C104.748 43.3047 102.129 28.4398 101.081 28.7765H101.107Z" class="hair" fill="#E94B36"/>
<path fill-rule="evenodd" clip-rule="evenodd" d="M63.9728 64.4441C64.3321 64.2381 64.7905 64.3625 64.9965 64.7218C66.123 66.6872 65.6658 68.5507 64.6016 69.8873C62.4491 71.9978 60.5094 70.8853 60.5094 70.8853C60.5094 70.8853 62.6419 69.9405 63.4281 68.953C64.1771 68.0123 64.4652 66.8113 63.6951 65.4678C63.4891 65.1084 63.6134 64.6501 63.9728 64.4441Z" fill="#864B1D"/>
</svg>
