<svg width="130" height="210" viewBox="0 0 130 210" fill="none" xmlns="http://www.w3.org/2000/svg">
<path d="M65.4343 202.39C48.9858 202.39 35.6621 189.313 35.6621 173.168V110.984H95.2065V173.168C95.2065 189.313 81.8828 202.39 65.4343 202.39Z" class="skin" fill="#FCCBAE"/>
<path d="M112.594 45.6023C110.317 37.4286 104.953 25.8664 85.7718 17.253C54.1092 3.00068 32.7565 33.2383 32.7565 33.2383C24.2259 32.333 19.5942 35.5662 17.7363 43.1709C16.1663 49.6633 18.2858 62.3636 19.4372 67.2265L25.7436 100.309L31.8406 70.9512C37.833 51.655 46.9393 43.7917 46.9393 43.7917L75.8805 41.5155L106.575 97.4899L112.541 64.3553C113.3 60.165 113.614 55.8712 113.379 51.6033C113.248 49.146 112.986 46.9991 112.594 45.5765V45.6023Z" class="hair" fill="#E94B36"/>
<path d="M104.17 105.624C113.201 112.163 128.791 82.4354 120 75.3912C111.209 68.347 105.406 81.2558 105.406 81.2558L105.2 92.1759L103.895 102.422L103.38 105.59H104.17V105.624Z" class="skin" fill="#FCCBAE"/>
<path d="M117.096 84.5708C117.096 84.5708 111.837 81.4052 107.5 90.2657" stroke="#864B1D" stroke-width="2" stroke-linecap="square" stroke-linejoin="round"/>
<path d="M110.157 87.1924C110.157 87.1924 116.261 90.5939 111.86 95.8282" stroke="#864B1D" stroke-width="2" stroke-linecap="square" stroke-linejoin="round"/>
<path d="M25.4299 105.625C16.3987 112.163 0.80862 82.4362 9.59948 75.392C18.3903 68.3478 23.919 81.3914 23.919 81.3914L24.4341 92.1767L25.739 102.423L26.2197 105.591H25.4299V105.625Z" class="skin" fill="#FCCBAE"/>
<path d="M12.3799 84.5722C12.3799 84.5722 18.4838 82.5541 22.8208 91.4146" stroke="#864B1D" stroke-width="2" stroke-linecap="square" stroke-linejoin="round"/>
<path d="M19.026 87.1497C19.026 87.1497 13.216 90.5949 17.6173 95.8292" stroke="#864B1D" stroke-width="2" stroke-linecap="square" stroke-linejoin="round"/>
<path d="M107.157 67.2698C107.157 85.6723 104.65 101.547 102.178 112.838C99.7399 123.859 92.872 133.499 83.1883 139.734L81.437 140.88C71.1696 147.452 57.9489 147.587 47.5098 141.284C37.002 134.914 29.6534 124.567 27.387 112.703C23.2663 91.1661 22.8198 67.3035 22.8198 67.3035C22.8198 67.3035 18.9052 20.8253 64.3704 21.7354C109.836 22.6454 107.123 67.3035 107.123 67.3035L107.157 67.2698Z" class="skin" fill="#FCCBAE"/>
<path d="M71.3492 129.401H58.7733L61.381 138.934L57.638 144.37L44.7837 137.287L27.6807 110.984C32.8299 134.841 42.6994 147.865 65.181 148.492C86.0079 149.072 100.161 130.474 102.182 110.985L86.244 137.287L72.4572 145.004L68.4446 138.934L71.3492 129.401Z" class="hair" fill="#E94B36"/>
<path d="M60.2172 119.525L59.9375 116.718C60.1473 116.698 65.0514 116.219 68.4474 116.718L68.0279 119.505C64.9815 119.046 60.2671 119.505 60.2172 119.505V119.525Z" fill="#864B1D"/>
<path d="M76.43 116.492C76.43 116.492 72.0335 113.027 64.9992 113.027H64.9821C58.2038 113.027 53.2609 116.144 53.2097 116.17L51.9463 114.018C52.1682 113.875 57.4867 110.499 64.9821 110.499H64.9992C72.9043 110.499 77.7105 114.331 77.9154 114.491L76.4386 116.483L76.43 116.492Z" fill="#864B1D"/>
<path d="M104.033 29.3692C89.6247 22.9303 74.1714 19.0898 74.1714 19.0898L49.9655 20.4453L39.5041 25.9964C39.5041 25.9964 38.0411 28.8205 38.0411 28.8723C11.9521 35.8561 23.0625 61.5377 23.0625 61.5377C33.7912 56.0799 34.8463 44.1905 36.8873 36.172C41.6237 42.3281 59.8101 53.5799 82.1833 53.1402C105.08 52.7005 107.67 43.8801 107.67 43.8801C107.67 43.8801 105.054 29.0329 104.007 29.3692H104.033Z" class="hair" fill="#E94B36"/>
<path d="M61.0049 85.0657V100.064C61.0049 100.57 61.1079 101.041 61.2796 101.48C62.0007 103.232 64.0267 104.041 65.8811 103.569L69.8644 102.524" stroke="#864B1D" stroke-width="2.5" stroke-linecap="square" stroke-linejoin="round"/>
<path d="M45.8611 84.7613C48.0421 84.7613 49.8101 83.0259 49.8101 80.8853C49.8101 78.7446 48.0421 77.0093 45.8611 77.0093C43.6802 77.0093 41.9121 78.7446 41.9121 80.8853C41.9121 83.0259 43.6802 84.7613 45.8611 84.7613Z" fill="#001D6C"/>
<path d="M82.4334 84.7613C84.6144 84.7613 86.3824 83.0259 86.3824 80.8853C86.3824 78.7446 84.6144 77.0093 82.4334 77.0093C80.2524 77.0093 78.4844 78.7446 78.4844 80.8853C78.4844 83.0259 80.2524 84.7613 82.4334 84.7613Z" fill="#001D6C"/>
<path d="M57.4399 74.8788L57.9393 70.1226L42.2909 65.4773C40.354 65.4773 38.4543 66.1115 36.9644 67.1896L30.8184 73.2458L41.0617 71.9458L57.4399 74.9105V74.8788Z" class="hair" fill="#E94B36"/>
<path d="M70.3887 74.8473L70.4244 69.885L86.4054 66.1909C88.2654 66.1909 90.0897 66.8251 91.5205 67.9032L97.4584 73.9595L87.6216 72.6594L70.4244 74.879L70.3887 74.8473Z" class="hair" fill="#E94B36"/>
<path d="M40.3408 110.146C51.5763 102.863 60.3285 105.175 65.0637 106.629C77.0677 102.535 86.1603 106.541 90.5296 108.484L89.0133 111.613L86.1671 118.009C85.8486 115.301 85.0823 110.686 85.0823 110.686C78.3971 108.653 70.2532 108.802 65.0637 109.13C58.8474 108.876 49.9721 109.843 45.4066 111.878L43.7086 118.008L41.2477 112.173L40.3408 110.146Z" class="hair" fill="#E94B36"/>
</svg>
