<svg width="130" height="210" viewBox="0 0 130 210" fill="none" xmlns="http://www.w3.org/2000/svg">
<path d="M65.695 202.338C49.2465 202.338 35.9229 189.261 35.9229 173.116V110.932H95.4672V173.116C95.4672 189.261 82.1436 202.338 65.695 202.338Z" class="skin" fill="#FCCBAE"/>
<path d="M111.605 39.6262C109.329 31.4525 103.964 19.8903 84.7836 11.2768C53.1209 -2.97543 33.8505 22.9602 33.8505 22.9602C25.3199 22.0548 18.6059 29.5901 16.748 37.1948C15.178 43.6872 17.2976 56.3875 18.4489 61.2504L24.7553 94.3332L30.8523 64.9751C36.8447 45.6789 45.951 37.8156 45.951 37.8156L74.8922 35.5393L105.587 91.5138L111.553 58.3792C112.312 54.1889 112.626 49.8951 112.39 45.6272C112.259 43.1699 111.998 41.023 111.605 39.6003V39.6262Z" class="hair" fill="#E94B36"/>
<path d="M104.429 105.573C113.461 112.111 129.051 82.3841 120.26 75.34C111.469 68.2958 105.666 81.2045 105.666 81.2045L105.46 92.1247L104.155 102.371L103.64 105.539H104.429V105.573Z" class="skin" fill="#FCCBAE"/>
<path d="M116.591 84.7102C116.591 84.7102 111.332 81.5446 106.995 90.4051" stroke="#864B1D" stroke-width="2" stroke-linecap="square" stroke-linejoin="round"/>
<path d="M109.652 87.3318C109.652 87.3318 115.756 90.7333 111.355 95.9676" stroke="#864B1D" stroke-width="2" stroke-linecap="square" stroke-linejoin="round"/>
<path d="M25.6897 105.573C16.6584 112.112 1.06839 82.3847 9.85925 75.3405C18.6501 68.2963 24.1787 81.3399 24.1787 81.3399L24.6938 92.1252L25.9987 102.371L26.4795 105.54H25.6897V105.573Z" class="skin" fill="#FCCBAE"/>
<path d="M12.875 84.7116C12.875 84.7116 18.9789 82.6935 23.3159 91.554" stroke="#864B1D" stroke-width="2" stroke-linecap="square" stroke-linejoin="round"/>
<path d="M19.5202 87.2891C19.5202 87.2891 13.7102 90.7343 18.1114 95.9686" stroke="#864B1D" stroke-width="2" stroke-linecap="square" stroke-linejoin="round"/>
<path d="M107.417 67.2181C107.417 85.6206 104.91 101.495 102.438 112.786C99.9996 123.807 93.1318 133.447 83.4481 139.682L81.6968 140.828C71.4293 147.4 58.2087 147.535 47.7696 141.233C37.2617 134.862 29.9131 124.515 27.6467 112.651C23.526 91.1144 23.0796 67.2518 23.0796 67.2518C23.0796 67.2518 19.1649 20.7736 64.6302 21.6836C110.095 22.5936 107.383 67.2518 107.383 67.2518L107.417 67.2181Z" class="skin" fill="#FCCBAE"/>
<path d="M71.4996 126.756H58.9237L61.5314 136.289L57.7884 141.726L44.9341 134.642L27.8311 108.339C32.9802 132.196 42.8498 145.22 65.3313 145.847C86.1583 146.428 100.312 127.829 102.332 108.34L86.3944 134.642L72.6076 142.359L68.595 136.289L71.4996 126.756Z" class="hair" fill="#E94B36"/>
<path d="M103.334 24.063C102.287 24.3993 68.4789 15.1392 68.4789 15.1392L38.8049 24.063C38.8049 24.063 38.8049 24.063 38.8049 24.1147C12.716 31.0986 24.2035 55.5163 24.2035 55.5163C34.9322 50.0585 34.1471 38.8843 36.1882 30.8658C40.9245 37.022 59.1109 48.2738 81.4841 47.834C104.381 47.3943 106.971 38.5739 106.971 38.5739C106.971 38.5739 104.355 23.7267 103.308 24.063H103.334Z" class="hair" fill="#E94B36"/>
<path d="M60.6514 79.0251V94.0235C60.6514 94.5291 60.7544 95.001 60.9261 95.4391C61.6472 97.1917 63.6732 98.0006 65.5275 97.5288L69.5109 96.484" stroke="#864B1D" stroke-width="2.5" stroke-linecap="square" stroke-linejoin="round"/>
<path d="M45.5086 78.721C47.6896 78.721 49.4576 76.9856 49.4576 74.845C49.4576 72.7043 47.6896 70.969 45.5086 70.969C43.3276 70.969 41.5596 72.7043 41.5596 74.845C41.5596 76.9856 43.3276 78.721 45.5086 78.721Z" fill="#001D6C"/>
<path d="M82.0789 78.721C84.2599 78.721 86.0279 76.9856 86.0279 74.845C86.0279 72.7043 84.2599 70.969 82.0789 70.969C79.8979 70.969 78.1299 72.7043 78.1299 74.845C78.1299 76.9856 79.8979 78.721 82.0789 78.721Z" fill="#001D6C"/>
<path d="M56.2755 62.9761L55.103 55.5166L41.0747 58.2234C39.316 58.5327 37.708 59.4999 36.5537 60.8665L32.0884 68.1881L41.1496 65.1914L56.2813 63.0093L56.2755 62.9761Z" class="hair" fill="#E94B36"/>
<path d="M70.7067 66.0627L70.5693 58.5129L84.8545 58.7489C86.6401 58.7489 88.3914 59.423 89.765 60.5689L95.4653 67.0064L86.022 65.6245L70.741 66.0964L70.7067 66.0627Z" class="hair" fill="#E94B36"/>
<path d="M64.9227 113.61C58.1117 113.61 53.2961 112.368 52.9414 112.28L53.6065 110.199C53.7573 110.239 66.3451 113.664 81.0225 107.098L82.0778 109.042C74.983 112.22 70.5864 113.195 64.9316 113.61H64.9227Z" fill="#864B1D"/>
<path d="M65.0644 118.688C63.1587 118.688 61.923 118.065 61.8359 118.012L62.9585 115.778L62.4016 116.899L62.9498 115.778C63.063 115.84 65.8215 117.157 69.4677 114.693L70.8252 116.793C68.6323 118.279 66.6221 118.688 65.0732 118.688H65.0644Z" fill="#864B1D"/>
<path d="M39.9863 105.813C51.2218 98.5303 59.974 100.842 64.7092 102.296C76.7132 98.2026 85.8058 102.208 90.1751 104.151L88.6588 107.28L85.8126 113.676C85.4941 110.969 84.7278 106.353 84.7278 106.353C78.0426 104.32 69.8987 104.469 64.7092 104.797C58.4929 104.543 49.6176 105.51 45.0522 107.545L43.3541 113.676L40.8932 107.84L39.9863 105.813Z" class="hair" fill="#E94B36"/>
</svg>
