<svg width="130" height="210" viewBox="0 0 130 210" fill="none" xmlns="http://www.w3.org/2000/svg">
<path d="M65.4343 202.194C48.9858 202.194 35.6621 189.117 35.6621 172.972V110.788H95.2065V172.972C95.2065 189.117 81.8828 202.194 65.4343 202.194Z" class="skin" fill="#FCCBAE"/>
<path d="M115.964 46.5668C113.531 37.8299 107.797 25.4712 87.2945 16.2643C53.4504 1.03014 29.6477 26.7054 29.6477 26.7054C20.5294 25.7377 16.5576 35.8393 14.5717 43.9679C12.8935 50.9076 15.1591 64.4829 16.3898 69.6807L23.1306 105.043L29.6477 73.6621C36.0529 53.0365 45.7865 44.6314 45.7865 44.6314L76.7217 42.1984L109.531 102.029L115.908 66.6118C116.719 62.1328 117.055 57.5431 116.803 52.9812C116.663 50.3546 116.384 48.0598 115.964 46.5391V46.5668Z" class="hair" fill="#E94B36"/>
<path d="M104.17 105.402C113.201 111.941 128.791 82.2135 120 75.1693C111.209 68.1251 105.406 81.0338 105.406 81.0338L105.2 91.954L103.895 102.2L103.38 105.368H104.17V105.402Z" class="skin" fill="#FCCBAE"/>
<path d="M117.505 84.1744C117.505 84.1744 111.884 80.7907 107.248 90.2616" stroke="#864B1D" stroke-width="2" stroke-linecap="square" stroke-linejoin="round"/>
<path d="M110.088 86.9763C110.088 86.9763 116.612 90.6122 111.908 96.2071" stroke="#864B1D" stroke-width="2" stroke-linecap="square" stroke-linejoin="round"/>
<path d="M25.4299 105.403C16.3987 111.941 0.80862 82.2143 9.59948 75.1701C18.3903 68.1259 23.919 81.1694 23.919 81.1694L24.4341 91.9548L25.739 102.201L26.2197 105.369H25.4299V105.403Z" class="skin" fill="#FCCBAE"/>
<path d="M11.9805 84.1764C11.9805 84.1764 18.5049 82.0193 23.1407 91.4902" stroke="#864B1D" stroke-width="2" stroke-linecap="square" stroke-linejoin="round"/>
<path d="M19.0842 86.9316C19.0842 86.9316 12.874 90.6142 17.5784 96.2092" stroke="#864B1D" stroke-width="2" stroke-linecap="square" stroke-linejoin="round"/>
<path d="M107.157 67.0474C107.157 85.4499 104.65 101.325 102.178 112.616C99.7399 123.637 92.872 133.276 83.1883 139.512L81.437 140.657C71.1696 147.23 57.949 147.365 47.5098 141.062C37.002 134.692 29.6534 124.345 27.387 112.481C23.2663 90.9437 22.8198 67.0811 22.8198 67.0811C22.8198 67.0811 18.9052 20.6029 64.3704 21.5129C109.836 22.423 107.123 67.0811 107.123 67.0811L107.157 67.0474Z" class="skin" fill="#FCCBAE"/>
<path d="M71.8079 126.021H58.3657L61.153 136.21L57.1521 142.021L43.4122 134.45L25.1309 106.335C30.6348 131.836 41.1843 145.757 65.2147 146.427C87.4765 147.047 102.605 127.168 104.765 106.336L87.7289 134.45L72.9923 142.698L68.7033 136.21L71.8079 126.021Z" class="hair" fill="#E94B36"/>
<path d="M106.2 29.8305C90.7991 22.948 74.2812 18.843 74.2812 18.843L48.4077 20.2919L37.2255 26.2254C37.2255 26.2254 35.6617 29.2441 35.6617 29.2994C7.77531 36.7644 19.6512 64.2153 19.6512 64.2153C31.1191 58.3815 32.2468 45.673 34.4285 37.102C39.4911 43.6823 58.9305 55.7093 82.8451 55.2393C107.319 54.7692 110.088 45.3412 110.088 45.3412C110.088 45.3412 107.291 29.4711 106.172 29.8305H106.2Z" class="hair" fill="#E94B36"/>
<path d="M61.0068 82.1826V97.181C61.0068 97.6866 61.1098 98.1584 61.2815 98.5966C62.0027 100.349 64.0287 101.158 65.883 100.686L69.8664 99.6414" stroke="#864B1D" stroke-width="2.5" stroke-linecap="square" stroke-linejoin="round"/>
<path d="M46.281 83.3567C48.7618 83.3567 50.7729 81.2273 50.7729 78.5368C50.7729 75.8463 48.7618 78.5368 46.281 78.5368C43.8002 78.5368 41.7891 75.8463 41.7891 78.5368C41.7891 81.2273 43.8002 83.3567 46.281 83.3567Z" fill="#001D6C"/>
<path d="M81.6047 83.3567C84.0249 83.3567 85.9868 81.2273 85.9868 78.5368C85.9868 75.8463 84.0249 78.5368 81.6047 78.5368C79.1846 78.5368 77.2227 75.8463 77.2227 78.5368C77.2227 81.2273 79.1846 83.3567 81.6047 83.3567Z" fill="#001D6C"/>
<path d="M55.8893 71.7656L56.0267 64.2158L41.7416 64.4517C39.9559 64.4517 38.2046 65.1258 36.831 66.2718L31.165 72.7093L40.6083 71.3274L55.8893 71.7993V71.7656Z" class="hair" fill="#E94B36"/>
<path d="M72.612 71.7656L72.4746 64.2158L86.7598 64.4517C88.5454 64.4517 90.2967 65.1258 91.6703 66.2718L97.3706 72.7093L87.9273 71.3274L72.6463 71.7993L72.612 71.7656Z" class="hair" fill="#E94B36"/>
<path d="M50.7725 107.53C61.2348 112.534 67.3337 112.192 78.5307 107.53" stroke="#864B1D" stroke-width="2.5" stroke-linecap="square"/>
<path d="M59.8477 115.571C63.5982 116.781 65.7055 116.933 69.4563 115.571" stroke="#864B1D" stroke-width="2.5" stroke-linecap="square"/>
<path d="M37.8281 106.476C49.8376 98.6913 59.1929 101.162 64.2542 102.716C77.0853 98.3409 86.8043 102.623 91.4746 104.699L89.8539 108.044L86.8116 114.88C86.4711 111.986 85.6521 107.053 85.6521 107.053C78.5063 104.88 69.8013 105.039 64.2542 105.39C57.6097 105.118 48.123 106.152 43.243 108.328L41.428 114.88L38.7975 108.643L37.8281 106.476Z" class="hair" fill="#E94B36"/>
</svg>
