<svg width="256" height="296" viewBox="0 0 256 296" fill="none" xmlns="http://www.w3.org/2000/svg">
<path class="skin" d="M158.372 30.0111C158.372 30.0111 172.192 15.9911 178.022 19.5911C183.582 23.0311 178.022 49.0211 172.462 54.9411C168.242 59.4311 122.962 111.611 122.322 113.061C121.692 114.501 146.682 160.321 154.342 171.531C157.152 175.651 144.352 189.271 140.482 185.861C135.732 181.671 96.5115 125.481 95.0115 114.901C94.0115 107.851 158.372 30.0111 158.372 30.0111Z" fill="#FFB784"/>
<path class="skin" d="M153.052 169.581C153.052 169.581 155.152 172.681 156.492 172.591C157.822 172.501 167.022 163.861 167.022 163.861C167.022 163.861 168.632 157.651 178.422 158.431C185.392 158.981 201.252 164.261 199.192 168.701C197.132 173.141 182.442 164.721 181.492 165.431C181.492 165.431 199.422 173.351 199.792 177.861C200.162 182.361 194.172 180.791 194.172 180.791C194.172 180.791 196.642 183.711 194.322 185.831C191.992 187.951 189.552 185.831 189.552 185.831C189.552 185.831 189.592 188.981 188.052 189.751C184.452 191.561 172.512 184.791 168.012 186.511C166.412 187.121 156.852 197.371 152.002 195.961C147.142 194.561 139.012 184.051 139.012 184.051L153.062 169.591L153.052 169.581Z" fill="#FFB784"/>
<path d="M196.212 169.991C195.652 169.701 195.052 169.391 194.392 169.061C191.242 167.461 185.512 164.661 182.442 163.771C177.942 162.481 173.162 162.551 170.722 162.701C170.612 163.251 170.502 163.801 170.382 164.341C170.312 164.671 170.242 164.991 170.172 165.311C172.052 165.151 177.132 164.911 181.732 166.231C183.832 166.831 187.532 168.521 191.142 170.301C186.402 167.581 181.492 165.411 181.492 165.411C182.232 164.861 191.262 169.821 196.222 169.981L196.212 169.991Z" fill="#BA4E00"/>
<path d="M198.072 180.791C197.562 180.831 197.042 180.851 196.542 180.851C194.992 179.261 189.152 173.651 181.552 171.061C177.382 169.641 171.882 169.541 169.222 169.591C169.022 170.451 168.832 171.311 168.622 172.181C170.752 172.121 176.602 172.091 180.722 173.501C188.792 176.261 194.982 182.941 195.042 183.011L195.282 183.281C195.112 181.921 194.162 180.791 194.162 180.791C194.162 180.791 196.412 181.381 198.072 180.801V180.791Z" fill="#BA4E00"/>
<path d="M191.012 186.601C188.132 183.121 179.262 176.381 167.432 177.071C167.212 177.951 166.992 178.821 166.762 179.701C178.782 178.621 187.192 186.061 189.132 188.321C189.552 187.171 189.542 185.821 189.542 185.821C189.542 185.821 190.132 186.341 191.012 186.611V186.601Z" fill="#BA4E00"/>
<path d="M122.472 112.831L113.682 114.441L114.152 117.031L123.172 115.471C122.552 114.101 122.242 113.251 122.322 113.071C122.342 113.031 122.392 112.951 122.472 112.841V112.831Z" fill="#BA4E00"/>
</svg>
