<svg width="256" height="296" viewBox="0 0 256 296" fill="none" xmlns="http://www.w3.org/2000/svg">
<path class="skin" d="M54.0359 39.8991C54.0359 39.8991 115.116 121.239 123.996 121.219C128.326 121.219 177.596 57.3591 178.566 55.2791C181.416 49.1391 181.696 40.7491 181.106 34.4191C180.086 23.5991 176.136 19.1591 175.546 19.2691C174.886 19.3991 121.636 86.7791 121.636 86.7791C121.636 86.7791 72.056 25.6791 71.206 25.2891C70.356 24.8991 54.0359 39.9091 54.0359 39.9091V39.8991Z" fill="#FFB784"/>
<path class="skin" d="M73.416 28.5991C73.416 28.5991 71.766 12.229 57.586 7.10903C50.426 4.52903 38.986 7.25902 38.986 7.25902C38.986 7.25902 3.43599 7.43904 3.00599 12.649C2.57599 17.859 25.436 15.399 25.436 15.399C25.436 15.399 21.776 17.329 22.156 20.479C22.546 23.629 24.866 23.769 24.866 23.769C24.866 23.769 22.216 24.789 22.156 27.289C22.096 29.799 25.726 30.779 25.726 30.779C25.726 30.779 22.166 34.0091 23.986 38.0691C25.816 42.1391 36.416 48.089 43.426 48.169C50.436 48.249 66.116 45.409 66.116 45.409L73.416 28.5991Z" fill="#FFB784"/>
<path d="M41.396 27.6592C41.716 27.7592 42.026 27.8492 42.336 27.9192C42.896 28.0392 43.4259 28.0992 43.9159 28.0992C45.2059 28.0992 46.2259 27.6792 46.8659 26.8592C48.5559 24.6692 47.2059 21.0292 46.2259 19.0192L49.336 17.6892C49.416 21.1692 50.7559 25.8692 55.5359 27.2892L56.266 24.8292C51.026 23.2692 51.9559 16.1892 51.9959 15.8892L52.3159 13.6292L42.586 17.7792L43.326 19.0392C44.426 20.9192 45.666 24.1992 44.826 25.2992C44.686 25.4792 44.036 25.6692 42.886 25.4192C40.496 24.8992 36.766 22.5892 35.956 19.0792C35.056 15.1992 40.306 8.62916 42.336 6.63916C40.316 6.94916 38.9959 7.26917 38.9959 7.26917C38.9959 7.26917 38.7559 7.26917 38.3059 7.26917C38.2459 7.32917 38.196 7.38916 38.136 7.44916C37.326 8.34916 35.4659 10.5792 34.2959 13.2992C31.4259 13.0392 22.5159 15.0892 19.8359 15.8192C23.0459 15.6492 25.4359 15.3892 25.4359 15.3892C25.4359 15.3892 23.6259 16.3492 22.6859 18.0192C25.6959 17.2192 31.4059 15.7892 33.4859 15.7892C33.2159 17.0492 33.166 18.3492 33.456 19.6392C33.536 19.9792 33.636 20.3092 33.756 20.6392C32.456 21.1392 27.5959 21.8592 22.8059 22.3992C23.6259 23.6792 24.8659 23.7592 24.8659 23.7592C24.8659 23.7592 23.9159 24.1292 23.1459 24.9592C30.7359 24.1292 33.6959 23.4292 34.9359 22.8992C35.6859 23.9692 36.616 24.9192 37.646 25.6892C37.866 25.9092 39.2959 27.4292 38.6659 28.4892C38.1159 29.4292 37.336 29.6992 36.896 29.7792C31.996 28.7392 25.1459 29.4692 23.4859 29.6792C24.4959 30.4492 25.7159 30.7792 25.7159 30.7792C25.7159 30.7792 25.166 31.2792 24.606 32.1392C27.596 31.8292 32.886 31.5392 36.396 32.2792V32.3792C36.456 32.3792 36.5259 32.3792 36.5959 32.3792C36.6659 32.3792 36.7359 32.3792 36.8159 32.3792C37.7559 32.6092 38.546 32.9292 39.086 33.3492C39.556 33.7192 39.6459 34.0492 39.6659 34.2592C39.7259 34.7692 39.5859 35.1892 39.2259 35.5992C37.5559 37.4992 31.9459 38.2892 28.8059 38.3392L28.8459 40.9092C29.7959 40.8992 38.1959 40.6792 41.1659 37.2992C42.0059 36.3492 42.3759 35.1892 42.2359 33.9692C42.1159 32.9392 41.5859 32.0292 40.6859 31.3292C40.4959 31.1792 40.2759 31.0392 40.0559 30.9092C40.3659 30.5992 40.6559 30.2392 40.9059 29.8092C41.3259 29.0992 41.4559 28.3692 41.4159 27.6692L41.396 27.6592Z" fill="#BA4E00"/>
<path d="M33.756 20.779C33.756 20.779 33.776 20.749 33.796 20.729C33.806 20.759 33.816 20.789 33.836 20.829L33.766 20.779H33.756Z" fill="#BA4E00"/>
<path d="M121.696 86.689L130.576 97.5389L132.566 95.9089L123.396 84.709C122.616 85.589 121.906 86.439 121.696 86.689Z" fill="#BA4E00"/>
</svg>
