<svg width="256" height="296" viewBox="0 0 256 296" fill="none" xmlns="http://www.w3.org/2000/svg">
<path d="M177.028 77.2312C177.028 77.2312 249.258 77.4812 250.168 78.2212C251.058 78.9412 249.378 160.221 248.338 160.621C247.298 161.021 186.448 159.721 185.438 159.241C184.428 158.761 174.848 79.7812 175.088 79.1312C175.328 78.4812 177.028 77.2312 177.028 77.2312Z" fill="#3F3B43"/>
<path class="skin" d="M167.138 128.701C167.868 125.121 172.298 122.711 172.298 122.711C172.298 122.711 170.748 120.141 172.088 117.761C173.428 115.381 178.578 114.611 179.238 114.441C179.238 114.441 180.508 123.721 180.878 123.891C181.248 124.061 207.228 123.641 207.388 128.111C207.538 132.181 184.208 132.931 184.208 132.931C184.208 132.931 209.728 133.961 211.508 138.751C213.288 143.551 206.578 143.561 206.578 143.561C206.578 143.561 209.258 146.371 208.608 148.101C207.958 149.831 205.378 151.061 205.378 151.061C205.378 151.061 206.708 153.341 205.158 156.201C203.618 159.061 180.738 164.411 177.988 162.661C175.238 160.911 175.848 157.011 175.848 157.011C175.848 157.011 172.878 154.861 171.738 152.311C170.598 149.761 173.128 146.171 173.128 146.171C173.128 146.171 171.608 144.861 169.228 141.551C166.848 138.251 169.368 135.391 169.368 135.391C169.368 135.391 166.398 132.261 167.118 128.681L167.138 128.701Z" fill="#FFB784"/>
<path d="M184.218 132.931C184.218 132.931 194.578 132.601 201.448 131.171C191.848 130.851 178.378 132.101 178.228 132.121L178.428 133.341L178.588 134.571C179.488 134.461 187.458 133.891 193.788 133.641C188.568 133.101 184.228 132.921 184.228 132.921L184.218 132.931Z" fill="#B17861"/>
<path d="M206.588 143.571C206.588 143.571 209.288 143.571 210.808 142.331C204.928 142.181 185.758 141.761 180.888 142.421L181.218 144.881C185.188 144.341 199.788 144.571 207.538 144.731C207.048 144.051 206.598 143.571 206.598 143.571H206.588Z" fill="#B17861"/>
<path d="M182.288 151.091L182.418 153.571C187.408 153.311 198.228 152.871 205.908 152.981C205.828 151.811 205.398 151.071 205.398 151.071C205.398 151.071 205.828 150.871 206.368 150.511C196.868 150.331 183.078 151.051 182.288 151.091Z" fill="#B17861"/>
<path d="M175.728 78.3311L250.348 80.0811C250.368 80.7511 250.388 81.5811 250.398 82.5611L175.228 80.8011C175.128 79.7711 175.078 79.191 175.098 79.131C175.178 78.911 175.438 78.6211 175.728 78.3311Z" fill="#4C4950"/>
<path d="M180.878 123.901C180.758 123.841 180.548 122.821 180.308 121.461C178.868 121.511 177.228 121.591 177.228 121.591L177.488 124.221L181.758 123.941C181.238 123.931 180.928 123.921 180.888 123.901H180.878Z" fill="#B17861"/>
<path class="skin" d="M178.388 158.081C178.388 158.081 124.388 177.161 117.638 168.211C110.888 159.261 159.498 10.2912 176.838 19.4012C184.568 23.4612 171.138 66.0612 171.138 66.0612C171.138 66.0612 147.288 143.481 148.938 144.001C150.588 144.521 170.608 137.251 170.608 137.251L178.378 158.081H178.388Z" fill="#FFB784"/>
<path d="M166.488 140.921C167.018 141.901 167.748 142.711 168.618 143.401C169.098 143.781 169.618 144.091 170.128 144.411C170.298 144.521 170.498 144.621 170.688 144.741C170.568 144.961 170.448 145.171 170.338 145.401C170.108 145.891 169.898 146.381 169.768 146.901C169.488 147.971 169.438 149.051 169.618 150.141C169.908 151.841 170.858 153.091 172.048 154.171C172.878 153.801 173.718 153.421 174.548 153.051C173.868 152.531 173.148 151.981 172.668 151.261C172.188 150.541 171.968 149.661 171.988 148.791C172.008 147.871 172.278 146.961 172.728 146.161C172.848 145.941 173.008 145.731 173.148 145.511L172.238 142.791C171.008 141.901 169.578 141.331 168.768 139.921C168.438 139.341 168.218 138.721 168.098 138.081C167.418 138.351 166.618 138.661 165.758 139.001C165.918 139.671 166.158 140.331 166.488 140.941V140.921Z" fill="#B17861"/>
<path d="M148.949 144.001C148.789 143.951 148.879 143.141 149.159 141.741L137.769 144.831L137.679 147.311L149.969 143.931C149.469 144.021 149.109 144.051 148.949 144.001Z" fill="#B17861"/>
</svg>
