<svg width="256" height="296" viewBox="0 0 256 296" fill="none" xmlns="http://www.w3.org/2000/svg">
<g clip-path="url(#clip0_9_26)">
<path class="skin" d="M170.442 216.92C170.442 216.92 168.162 230.38 166.742 232.71C165.322 235.04 161.052 236.39 159.322 245.23C157.602 254.07 163.372 262.63 162.582 263.81C161.792 264.98 158.842 267.35 159.532 269.28C160.222 271.21 164.242 274.88 169.492 269.78C169.492 269.78 174.692 286.28 179.442 288.64C184.192 291 184.912 287.99 184.912 287.99C184.912 287.99 185.872 293.43 190.232 293.83C194.592 294.23 194.032 289.6 194.032 289.6C194.032 289.6 194.862 290.95 197.022 288.46C199.182 285.97 198.852 282.21 198.852 282.21C198.852 282.21 200.682 284.45 203.042 280.82C205.402 277.19 197.452 262.94 197.322 260.94C197.192 258.94 200.352 252.33 199.462 244.71C198.172 233.66 191.432 229.77 191.192 228.64C190.742 226.52 192.782 217.63 192.782 217.63L170.432 216.92H170.442Z" fill="#F59673"/>
<path d="M167.002 271.63H166.992C171.612 267.63 169.282 259.4 168.512 256.7C168.262 255.83 168.192 255.56 168.302 255.16C168.552 254.22 169.382 254.1 170.532 253.94C172.182 253.71 175.252 253.28 177.032 251.36C178.932 249.31 177.152 243.59 176.382 241.74L178.762 240.74C179.132 241.62 182.292 249.48 178.932 253.11C176.632 255.59 173.042 256.19 171.132 256.46C172.002 259.57 173.822 266.93 170.212 271.9C169.762 270.6 169.502 269.78 169.502 269.78C168.632 270.62 167.802 271.22 167.012 271.63H167.002Z" fill="#B17861"/>
<path d="M174.941 265.38L177.481 264.96C178.371 270.31 181.111 275.12 183.321 278.98C184.991 281.9 186.312 284.2 186.512 286.12C186.692 287.77 186.392 289.13 185.652 290.19C185.102 289 184.922 287.99 184.922 287.99C184.922 287.99 184.512 289.71 182.272 289.53C182.412 289.5 183.031 289.37 183.461 288.84C183.901 288.3 184.071 287.48 183.951 286.39C183.801 285.01 182.541 282.81 181.081 280.25C178.771 276.21 175.901 271.19 174.941 265.37V265.38Z" fill="#B17861"/>
<path d="M185.092 266.22C190.012 265.63 193.982 264.54 194.312 264.39L193.762 263.22L193.332 262.01C193.232 262.04 181.892 265.24 173.842 263.51L173.302 266.03C176.992 266.82 181.322 266.67 185.092 266.22Z" fill="#B17861"/>
<path d="M185.542 264.98C185.542 264.98 185.692 268.96 187.242 272.7C187.922 274.33 189.102 275.75 190.342 277.24C191.992 279.22 193.702 281.27 194.592 284.14C195.352 286.58 195.512 288.46 195.452 289.79C194.452 290.26 194.042 289.6 194.042 289.6C194.042 289.6 194.312 291.84 193.012 293.07C193.082 292.18 193.262 288.53 192.132 284.91C191.392 282.53 189.922 280.76 188.362 278.89C187.052 277.31 185.692 275.68 184.862 273.69C183.122 269.5 182.972 265.24 182.962 265.06L185.542 264.98Z" fill="#B17861"/>
<path d="M193.852 274.57C192.472 270.69 190.942 264.66 190.872 264.4L193.372 263.76C193.392 263.82 194.942 269.93 196.282 273.7C196.742 274.99 197.532 276.23 198.292 277.42C199.382 279.14 200.502 280.9 200.652 282.85C199.562 283.05 198.862 282.2 198.862 282.2C198.862 282.2 198.982 283.55 198.612 285.16C198.542 283.34 197.182 280.49 196.112 278.81C195.272 277.49 194.402 276.13 193.852 274.56V274.57Z" fill="#B17861"/>
<path class="skin" d="M178.692 17.01C179.702 16.39 184.272 59.83 184.272 59.83C184.272 59.83 203.072 101.67 204.932 145.37C206.512 182.5 187.682 222.13 191.412 231.13C193.982 237.32 167.102 233.3 167.102 233.3C167.102 233.3 179.442 180.53 176.522 143.81C173.562 106.67 152.442 33.05 178.692 17V17.01Z" fill="#F59673"/>
</g>
<defs>
<clipPath id="clip0_9_26">
<rect width="47" height="277" fill="white" transform="translate(159 17)"/>
</clipPath>
</defs>
</svg>
