<svg width="215" height="243" viewBox="0 0 215 243" fill="none" xmlns="http://www.w3.org/2000/svg">
<path d="M207.217 137.819C206.087 142.591 202.057 142.43 199.537 145.515C198.927 146.298 195.667 147.524 196.527 145.354C197.497 142.872 197.677 140.552 197.287 138.341C197.147 141.215 196.367 143.877 194.567 145.826C193.507 146.941 191.577 146.831 190.317 148.016C188.497 149.845 188.137 152.678 186.077 154.376C185.677 154.707 185.257 155.029 184.837 155.33C181.977 157.46 178.317 159.339 174.707 159.72C171.027 160.052 168.427 144.279 168.427 144.279C168.427 144.279 170.347 165.598 158.497 166.009C155.447 166.11 153.367 167.848 150.547 167.346C145.487 166.462 141.837 166.502 137.007 168.752C136.057 169.184 135.177 169.797 134.147 170.008C131.897 170.53 131.767 169.958 129.797 169.737C125.507 169.254 123.127 169.174 118.997 169.897C113.727 170.812 108.697 172.469 103.527 173.484C98.9069 174.398 94.6069 170.621 91.0869 167.958C91.0269 167.908 90.9569 167.828 90.8969 167.747C89.2269 169.998 86.7669 171.535 83.8669 171.334C82.0169 171.244 81.3169 170.339 79.8569 169.486C79.4969 169.285 79.4169 168.652 79.0869 168.481C77.6869 167.707 75.2669 168.22 73.7269 168.33C72.9169 168.401 72.1169 167.778 72.0669 166.904C72.0169 166.351 72.0269 165.829 72.0369 165.326C70.2569 166.652 68.1169 167.667 65.8769 167.667C61.8569 167.677 61.0969 165.477 58.7069 162.805C55.6469 159.349 51.6269 161.147 47.6369 159.55C47.5269 159.529 47.3769 159.459 47.2569 159.409C44.5469 158.193 43.2269 154.617 41.0169 153.883C38.6869 153.13 37.3069 155.149 34.9869 153.26C32.3669 151.161 32.7969 147.192 33.6469 144.339C35.3169 138.673 37.7569 137.809 36.1269 130.374C35.5969 127.883 34.7569 125.803 34.6069 123.221C34.5469 122.237 34.6069 121.323 34.6669 120.418C33.8169 122.568 33.4369 124.959 33.4669 127.873C33.5069 130.495 34.0369 132.956 33.5069 135.538C32.2369 141.898 26.4569 142.712 28.6969 150.94C28.9469 151.884 28.4769 152.567 27.6169 152.758C24.3469 153.491 21.1169 152.798 19.2469 149.664C17.0169 145.987 19.0269 142.129 16.8169 138.331C14.6869 134.735 12.6869 132.404 14.0669 127.853C14.1869 127.35 14.3769 126.858 14.5869 126.406C13.2069 127.461 11.8969 128.576 10.8469 130.103C8.59689 133.398 8.2169 137.688 10.2869 141.205C10.9169 142.28 9.6569 143.656 8.6669 142.752C7.0069 141.245 5.84692 139.446 5.02692 137.538C-1.03308 130.827 -0.243096 118.942 7.3269 113.758C8.8769 112.713 10.6069 112.522 12.2369 111.768C18.1569 108.955 16.4469 106.635 15.5469 101.029C14.6469 95.3925 15.0269 90.2587 17.8969 85.2958C21.0069 79.941 26.1269 77.6403 29.8969 73.0893C34.1569 67.9454 31.0869 60.1795 33.6469 54.0511C35.5169 49.6206 38.9469 46.5966 43.2269 44.8083C48.1069 42.789 52.0569 41.3222 54.7569 36.4094C54.7769 32.2703 55.4669 27.9402 57.9069 25.1875C61.9669 20.6465 68.1369 21.2593 73.5269 21.0885C82.3869 20.8072 86.2869 11.6448 95.3469 11.0822C101.567 10.7205 106.827 13.5134 111.097 17.8736C117.087 14.0057 124.827 11.6649 131.787 14.1263C134.767 15.1711 137.317 17.0398 139.137 19.7021C140.467 21.5607 140.717 23.0576 142.127 24.3034C143.817 24.7957 145.597 25.4186 147.367 26.2524C148.307 26.3428 149.247 26.4031 149.997 26.594C159.817 29.1458 166.867 38.5694 169.227 48.8269C171.547 50.7157 173.407 50.8965 176.217 51.9514C179.737 53.3278 182.967 55.6284 184.357 59.3456C185.127 61.3449 185.027 63.314 185.047 65.4338C185.087 70.8891 187.577 71.8837 191.637 74.2245C194.297 75.7918 196.327 78.2632 197.087 81.3676C198.287 86.1598 195.357 88.6111 194.707 92.9914C194.597 93.6444 194.587 94.2271 194.587 94.7797C195.657 98.4466 197.397 100.878 199.857 104.655C201.457 107.077 202.357 109.126 202.367 112.16C202.427 115.948 200.747 119.363 200.457 123.071C200.397 124.005 200.457 124.849 200.577 125.653C200.927 126.406 201.387 127.129 202.017 127.772C204.947 130.746 208.417 132.876 207.217 137.799V137.819Z" fill="#3E1A00"/>
<path d="M183.757 145.283C183.807 142.39 182.717 139.426 180.757 137.356C178.787 135.227 176.127 134.332 173.367 133.8C170.307 133.177 169.657 133.408 169.317 129.992C169.137 127.943 169.687 125.964 169.107 123.824C168.517 121.694 167.347 119.634 165.477 118.439C164.457 117.776 163.357 117.846 162.377 117.354C158.697 115.475 157.337 113.205 157.277 109.156C157.247 104.464 157.007 98.2454 151.157 97.6928C147.417 97.3312 144.997 100.265 141.617 101.159C136.897 102.435 132.677 98.9989 127.997 99.7725C125.797 100.144 124.007 101.39 121.997 102.244C117.737 104.002 113.637 104.283 109.107 103.65C103.087 102.796 97.317 100.606 91.227 100.255C82.127 99.7423 73.8269 103.118 65.9669 107.297C60.4469 109.427 56.3569 113.737 55.2569 120.056C54.6069 123.824 55.2269 127.32 56.4769 130.826C59.0869 138.09 55.0869 139.326 50.2669 142.269C45.7269 145.012 44.7769 148.599 46.4469 153.642C47.3769 156.415 48.3969 157.349 47.6269 159.539C51.6169 161.127 55.6469 159.338 58.6969 162.794C61.0869 165.467 61.8569 167.667 65.8669 167.657C68.1069 167.657 70.2469 166.642 72.0269 165.316C72.0169 165.808 72.0069 166.341 72.0569 166.893C72.1069 167.767 72.8969 168.39 73.7169 168.32C75.2669 168.209 77.6769 167.697 79.0769 168.471C79.4069 168.641 79.487 169.274 79.847 169.475C81.307 170.329 82.017 171.233 83.857 171.324C86.757 171.525 89.2269 169.988 90.8869 167.737C90.9469 167.817 91.0169 167.898 91.0769 167.948C94.5969 170.6 98.8969 174.388 103.517 173.474C108.687 172.449 113.717 170.801 118.987 169.887C123.107 169.164 125.497 169.234 129.787 169.726C131.757 169.957 131.897 170.53 134.137 169.998C135.167 169.787 136.047 169.184 136.997 168.742C141.827 166.491 145.477 166.451 150.537 167.335C153.357 167.838 155.437 166.1 158.487 165.999C170.337 165.597 168.417 144.268 168.417 144.268C168.417 144.268 171.027 160.041 174.697 159.71C178.317 159.328 181.967 157.449 184.827 155.32C180.567 151.944 183.687 149.563 183.757 145.263V145.283Z" fill="#231000"/>
<path class="skin" d="M130.397 168.993C128.527 166.009 127.877 148.699 127.877 148.699L110.027 149.533L92.2368 151.201C92.2368 151.201 93.9868 168.431 92.5468 171.655C91.1068 174.87 77.5369 180.748 77.5369 180.748C81.7569 197.395 102.557 206.507 115.067 205.11C130.277 203.423 147.037 190.191 148.337 176.176C148.337 176.176 132.267 171.987 130.387 169.003L130.397 168.993Z" fill="#FFB784"/>
<path d="M128.657 160.093C128.407 157.662 128.227 155.17 128.107 153.131C125.737 154.256 119.907 156.547 110.567 157.2C99.0969 158.003 93.3669 155.552 92.5969 155.19C92.7469 157.069 92.9069 159.4 93.0169 161.731C95.9969 165.207 102.137 170.672 111.457 170.019C120.067 169.416 125.677 163.961 128.657 160.103V160.093Z" fill="#BA4E00"/>
<path class="skin" d="M64.3469 75.1696C64.3469 75.1696 70.3669 42.0061 107.157 41.3631C143.957 41.0818 150.797 74.0846 150.797 74.0846C150.797 74.0846 153.697 111.146 142.857 136.323C136.887 150.197 123.787 161.037 108.677 161.288C93.5668 161.419 80.1469 150.91 73.8269 137.187C62.3669 112.291 64.3469 75.1696 64.3469 75.1696Z" fill="#FFB784"/>
<path class="skin" d="M164.995 110.235C165.867 101.903 161.368 94.5985 154.947 93.9205C148.526 93.2425 142.615 99.4477 141.743 107.78C140.871 116.112 145.37 123.417 151.791 124.095C158.211 124.773 164.123 118.568 164.995 110.235Z" fill="#FFB784"/>
<path d="M150.697 53.367C146.297 48.2433 141.277 43.4209 134.957 40.8089C129.277 38.458 121.027 36.1573 114.877 36.9008C114.647 35.1426 114.847 34.1982 115.447 32.0784C115.707 31.1542 114.367 30.25 113.637 30.9231C112.427 32.0382 111.607 33.3644 111.127 34.7809C111.147 34.3791 111.167 33.9672 111.177 33.6156C111.177 32.8822 110.177 32.9726 109.997 33.5653C109.787 34.2585 109.587 34.9819 109.387 35.7153C99.847 32.6511 88.3371 33.1836 79.8571 38.4178C70.1071 44.4356 67.097 59.8169 66.197 70.9383C65.067 71.953 64.217 73.239 63.587 74.6355C62.187 74.3542 61.107 73.9724 59.637 74.6154C59.087 74.8565 58.877 75.3889 59.027 75.9516C59.447 77.5289 60.767 78.5034 62.437 79.0157C62.417 79.1765 62.377 79.3272 62.367 79.4879C62.287 80.5629 63.607 81.025 64.157 80.0606C64.267 79.8596 64.357 79.6286 64.467 79.4176C67.417 79.719 70.757 79.0157 72.457 77.8503C74.557 76.4137 75.5171 73.8418 76.4171 71.511C78.1671 71.29 79.757 71.0187 81.447 70.1045C86.077 67.5828 86.797 64.177 87.547 60.0881C87.587 59.9977 87.627 59.9073 87.677 59.8169C89.047 57.1646 91.317 54.4319 94.247 53.2464C97.707 51.85 101.367 52.945 104.717 50.7649C106.417 49.6598 107.847 48.0524 108.917 46.2038C109.547 48.193 110.767 49.9512 112.987 51.2472C114.507 52.1413 116.517 52.3222 117.977 53.2665C126.217 58.5912 121.407 58.561 121.677 63.2025C121.787 65.1013 122.557 66.538 124.017 67.7737C126.027 69.4716 128.667 69.1199 131.057 69.7127C133.167 70.2351 134.977 71.8626 136.087 73.7011C136.597 74.545 137.127 75.61 137.177 76.6046C137.237 77.7499 136.547 78.7244 136.437 79.8596C136.307 81.2762 136.177 82.4316 136.517 83.8481C137.807 89.1728 142.847 90.6797 147.597 89.4943C150.037 88.8814 146.077 84.8427 145.557 84.0792C143.757 81.457 142.737 78.4933 142.537 75.3186C142.397 73.0983 143.087 71.089 142.127 68.8788C139.907 63.7149 133.657 64.7196 130.587 60.9119C128.277 58.0487 130.157 54.1205 128.837 50.6846C129.797 51.1266 130.737 51.5988 131.607 52.1514C134.957 54.2913 134.357 56.7828 136.287 59.4853C137.437 61.1028 139.087 61.3942 140.517 62.5395C144.797 65.9854 143.257 69.4816 144.127 73.7212C144.577 75.9114 145.607 76.5945 147.107 78.1116C148.727 79.7592 149.987 81.3465 150.417 83.6572C150.967 86.6511 150.937 89.7555 152.037 92.6288C153.037 95.2308 154.597 97.642 156.327 99.812C157.067 100.736 162.877 107.709 164.527 105.8C167.797 102.002 158.487 76.4941 158.177 71.9028C157.657 64.3076 155.657 59.1035 150.717 53.3569L150.697 53.367ZM68.707 73.6308C68.117 73.5906 67.697 74.1733 67.837 74.6455C67.607 74.7058 67.337 74.7158 67.087 74.756C67.167 74.6656 67.237 74.5651 67.317 74.4848C67.667 74.4546 67.957 74.2336 68.067 73.8116C68.447 73.5103 68.857 73.2892 69.267 73.0782C69.057 73.3997 68.867 73.6409 68.707 73.6308Z" fill="#3E1A00"/>
<path d="M213.867 127.762C213.067 126.003 211.767 125.833 211.007 124.436C209.337 121.372 209.377 118.207 209.947 114.962C210.417 112.3 211.207 110.683 210.607 107.93C209.087 100.957 201.537 100.767 199.557 94.4574C197.817 88.8816 197.517 84.5817 191.237 82.9039C190.197 82.6226 189.777 84.23 190.687 84.7022C197.927 88.4596 193.317 96.095 197.387 101.088C201.227 105.79 207.977 103.449 206.027 113.064C205.317 116.56 202.797 119.051 203.837 122.899C204.507 125.391 205.287 125.069 206.677 126.888C210.817 132.313 209.297 133.609 207.557 138.079C207.027 139.426 208.537 140.993 209.787 139.998C213.257 137.225 215.927 132.323 213.867 127.762Z" fill="#3E1A00"/>
<path d="M59.7769 24.7651C57.0169 27.5279 54.9469 30.7127 52.4669 33.7065C49.1169 37.7452 45.7269 38.569 40.6769 38.8001C36.3969 39.001 32.4969 40.2368 29.5969 43.5621C26.3069 47.3497 26.2469 51.6094 26.2369 56.3514C26.1969 66.7997 22.1169 70.738 14.1269 76.1329C10.7369 78.4235 8.2969 81.769 7.5069 85.8781C6.3769 91.7553 10.1269 95.7337 10.8069 101.269C12.0769 111.567 -3.18309 117.565 4.42691 128.927C5.03691 129.842 6.6569 129.289 6.4769 128.164C5.2469 120.197 8.61691 116.47 12.5869 110.201C14.6469 106.956 15.7269 103.841 14.9769 99.9834C13.8269 94.0157 9.12691 89.8665 12.6169 83.4769C15.3469 78.4738 21.8569 77.1677 25.4269 72.8075C28.3069 69.2913 29.9769 64.8808 30.3169 60.3599C30.9069 52.4634 29.6669 44.2252 39.9369 42.9594C44.3269 42.4168 48.0069 43.0297 51.6469 40.0459C55.8269 36.62 59.0369 30.6022 61.3169 25.7597C61.7869 24.7551 60.4869 24.0518 59.7669 24.7651H59.7769Z" fill="#3E1A00"/>
<path d="M163.757 30.5414C163.957 30.5715 158.597 30.5213 158.867 30.6217C157.197 30.0089 156.297 29.8281 155.737 28.2809C154.527 24.9455 152.997 21.5497 150.087 19.3697C143.857 14.7282 135.397 15.12 128.707 18.4554C127.637 18.9879 127.827 20.957 129.217 20.6958C138.037 19.0582 148.477 18.0134 151.637 28.743C152.387 31.2848 152.117 33.3845 154.777 34.7107C157.277 35.9564 160.377 34.5801 162.977 34.8614C168.057 35.4139 172.467 38.7695 174.287 43.5817C176.867 50.3832 172.057 55.2859 172.317 61.7057C172.367 62.8911 173.857 63.1724 174.567 62.4089C184.797 51.5285 178.697 32.4301 163.747 30.5313L163.757 30.5414Z" fill="#3E1A00"/>
<path d="M111.457 21.3303C111.167 20.9486 110.617 21.0088 110.397 21.4308C109.557 23.0282 109.897 24.4347 109.797 26.233C109.627 29.3073 108.067 30.8343 106.607 33.3259C105.077 35.948 105.847 39.2935 107.227 41.7951C107.647 42.5486 108.737 41.986 108.697 41.2425C108.527 38.0678 107.927 36.1992 109.807 33.2254C110.537 32.0701 111.317 31.1558 111.777 29.8297C112.637 27.3281 113.127 23.5305 111.437 21.3303H111.457Z" fill="#231000"/>
<path d="M75.6567 55.1267C72.3667 60.5217 69.0767 67.9159 62.2167 69.1717C59.3067 69.7042 56.6767 69.3827 54.0167 70.9399C48.8967 73.9438 47.0767 79.9818 46.6967 85.5676C46.6467 86.301 46.6967 88.8328 46.5867 89.1744C45.5267 92.8413 42.9167 95.0716 40.0267 96.7896C37.8767 98.0655 35.8467 98.9998 34.2267 101.029C31.1567 104.887 29.9367 110.232 32.1667 114.723C32.6967 115.788 34.3467 115.536 34.2767 114.24C33.9867 109.177 34.5167 103.993 39.1167 100.889C41.3367 99.3916 44.1867 99.0903 46.3867 97.5531C50.7667 94.489 49.4767 89.7671 49.9967 85.0854C50.6967 78.6757 53.6467 74.0242 60.2967 72.5876C62.9567 72.0149 65.6567 72.4268 68.1067 70.96C73.0167 68.0264 74.8167 60.582 77.0367 55.7597C77.4567 54.8454 76.1567 54.2929 75.6567 55.1066V55.1267Z" fill="#231000"/>
<path d="M38.3371 92.4083C30.7171 95.1209 21.8571 100.667 25.5771 110.05C28.1871 116.63 23.0271 118.811 21.3271 124.557C20.1171 128.666 20.5971 133.368 23.3071 136.693C23.6571 137.115 24.3971 136.904 24.3471 136.312C23.7871 130.424 22.7271 125.923 26.5671 120.88C27.9571 119.052 29.5671 117.655 29.9271 115.274C30.3671 112.431 28.1971 110.723 27.7271 108.151C26.3371 100.546 33.2271 96.447 38.7771 93.2422C39.2571 92.9709 38.8271 92.2375 38.3371 92.4083Z" fill="#231000"/>
<path d="M97.2369 16.3373C93.0069 16.7894 90.0469 17.6333 86.7669 20.4162C85.7169 21.3003 84.9369 22.536 83.8769 23.3799C78.3069 27.8405 76.6369 25.2184 71.5869 25.0878C64.4669 24.907 59.0069 33.2757 56.2669 39.0123C55.9969 39.5849 56.7469 40.3183 57.2669 39.8461C60.3369 37.0833 62.6569 32.8035 66.0469 30.533C71.2069 27.0871 74.4669 29.7192 79.6469 29.016C81.7069 28.7347 83.1969 27.8908 84.7869 26.5747C89.2669 22.8675 91.5569 19.0398 97.4369 17.2113C97.9269 17.0606 97.7369 16.277 97.2369 16.3373Z" fill="#231000"/>
<path d="M124.257 40.528C122.267 38.4986 119.867 35.354 116.667 35.987C115.837 36.1477 115.947 37.2629 116.787 37.283C119.217 37.3433 121.597 41.2815 123.047 42.9392C123.897 43.9137 124.657 44.8078 125.147 46.0335C125.597 47.1487 125.697 48.314 126.237 49.389C126.657 50.2229 127.907 50.2329 128.117 49.2182C128.837 45.6919 126.547 42.8588 124.257 40.518V40.528Z" fill="#231000"/>
<path d="M179.207 106.313C175.267 102.677 169.377 102.938 169.987 95.8148C170.247 92.7305 170.627 89.9477 169.767 86.8935C169.007 84.191 167.617 81.6191 165.297 79.9413C162.837 78.1631 160.037 78.2334 157.897 75.5912C155.747 72.9389 155.647 68.9504 155.077 65.7657C153.617 57.628 149.017 52.1024 141.657 48.4254C141.317 48.2546 140.867 48.7168 141.157 49.0383C143.897 52.1024 147.257 54.7346 149.507 58.1906C152.137 62.2193 152.047 66.8708 153.117 71.3616C153.777 74.1244 154.887 77.0982 157.127 78.997C160.267 81.6693 163.987 81.4483 166.217 85.6678C169.187 91.2838 164.317 99.09 168.767 103.963C171.327 106.776 175.567 106.052 178.197 109.187C181.827 113.527 180.697 118.389 179.537 123.403C179.287 124.488 180.767 124.789 181.267 123.955C184.787 118.028 184.787 111.467 179.217 106.323L179.207 106.313Z" fill="#231000"/>
<path d="M196.457 120.569C194.847 116.571 190.317 116.028 188.717 112.441C186.817 108.172 188.147 103.41 185.097 99.2906C182.847 96.2565 179.897 95.0007 176.237 95.1715C175.497 95.2016 175.437 96.3871 176.177 96.4876C187.497 97.9745 182.347 109.548 186.847 115.707C187.627 116.772 188.387 116.641 189.287 117.525C192.767 120.941 194.637 123.533 194.327 128.295C194.167 130.706 193.927 130.837 193.837 133.238C193.807 134.031 194.957 134.092 195.257 133.489C197.257 129.541 198.157 124.809 196.447 120.569H196.457Z" fill="#231000"/>
<path d="M87.9669 96.4671C87.9669 99.9432 87.1369 102.766 86.1069 102.766C85.0769 102.766 84.2468 99.9432 84.2468 96.4671C84.2468 92.991 85.0769 90.168 86.1069 90.168C87.1369 90.168 87.9669 92.991 87.9669 96.4671Z" fill="#4D3A37"/>
<path d="M127.077 93.5039C126.837 94.4784 126.687 95.684 126.687 97.0101C126.687 100.185 127.517 102.767 128.547 102.767C129.577 102.767 130.407 100.185 130.407 97.0101C130.407 95.7342 130.267 94.5588 130.037 93.6044C129.047 93.5742 128.057 93.534 127.067 93.514L127.077 93.5039Z" fill="#4D3A37"/>
<path d="M151.077 118.741C151.047 117.023 150.857 101.873 153.667 97.4727L155.927 98.9294C153.917 102.074 153.687 114.26 153.767 118.681L151.077 118.731V118.741Z" fill="#BA4E00"/>
<path d="M158.661 107.209L152.046 109.109L152.786 111.708L159.401 109.807L158.661 107.209Z" fill="#BA4E00"/>
<path d="M107.997 118.399C106.907 118.238 97.3269 116.701 96.5069 111.145C95.9169 107.187 99.7569 105.238 102.557 103.821C103.547 103.319 105.047 102.555 105.247 102.144C105.907 100.797 105.937 95.6937 105.747 92.4989L108.567 92.3281C108.647 93.7346 109.007 100.898 107.777 103.389C107.157 104.655 105.607 105.439 103.827 106.343C101.007 107.77 99.0269 108.925 99.2969 110.723C99.7369 113.677 106.167 115.264 108.387 115.586L107.987 118.399H107.997Z" fill="#BA4E00"/>
<path d="M100.317 132.033L98.9568 129.541C99.3668 129.32 109.067 124.056 118.037 126.959L117.167 129.662C109.367 127.14 100.407 131.982 100.317 132.033Z" fill="#BA4E00"/>
<path d="M107.667 135.678L106.507 133.086C106.617 133.036 109.137 131.911 113.237 131.539L113.497 134.362C109.867 134.694 107.687 135.658 107.667 135.668V135.678Z" fill="#BA4E00"/>
<path d="M89.1869 73.6427C83.8369 75.0391 78.4069 79.5802 76.3869 83.4782C76.0469 84.1413 75.3669 85.3971 75.9469 85.8793C76.3369 86.2008 77.1469 85.9999 77.7869 85.7487C82.4569 83.87 85.6869 79.9921 90.7369 78.8468C92.0369 78.5554 93.3669 78.4549 94.6169 77.8923C97.5769 76.5562 96.6669 74.0445 94.5869 73.502C92.8969 73.06 91.0469 73.1604 89.1869 73.6527V73.6427Z" fill="#3E1A00"/>
<path d="M142.077 84.2813C141.877 84.7736 141.067 85.0248 140.367 85.1453C139.827 85.2357 139.317 85.3061 138.787 85.3262C135.667 85.5773 132.667 85.0448 129.577 85.3061C128.407 85.3864 127.197 85.5974 125.967 86.0194C124.657 86.4514 123.427 87.0742 122.077 87.245C118.897 87.6569 118.677 84.9745 120.327 83.3972C121.547 82.2017 123.117 81.3477 124.847 80.765C124.977 80.7048 125.077 80.6746 125.217 80.6344C128.667 79.5796 132.697 79.68 136.047 80.4938C137.867 80.9258 139.477 81.5889 140.697 82.4227C141.267 82.8145 142.397 83.5479 142.077 84.2813Z" fill="#3E1A00"/>
</svg>
