<svg width="105" height="178" viewBox="0 0 105 178" fill="none" xmlns="http://www.w3.org/2000/svg">
<path d="M63.3716 11.0111C63.3716 11.0111 77.1915 -3.00889 83.0215 0.591109C88.5815 4.03111 83.0215 30.0211 77.4615 35.9411C73.2415 40.4311 27.9615 92.6111 27.3215 94.0611C26.6915 95.5011 51.6815 141.321 59.3415 152.531C62.1516 156.651 49.3516 170.271 45.4816 166.861C40.7316 162.671 1.51153 106.481 0.0115336 95.9011C-0.988466 88.8511 63.3716 11.0111 63.3716 11.0111Z" fill="#FFB784"/>
<path d="M58.0516 150.581C58.0516 150.581 60.1516 153.681 61.4916 153.591C62.8216 153.501 72.0215 144.861 72.0215 144.861C72.0215 144.861 73.6316 138.651 83.4216 139.431C90.3916 139.981 106.252 145.261 104.192 149.701C102.132 154.141 87.4416 145.721 86.4916 146.431C86.4916 146.431 104.422 154.351 104.792 158.861C105.162 163.361 99.1716 161.791 99.1716 161.791C99.1716 161.791 101.642 164.711 99.3215 166.831C96.9915 168.951 94.5516 166.831 94.5516 166.831C94.5516 166.831 94.5916 169.981 93.0516 170.751C89.4516 172.561 77.5115 165.791 73.0115 167.511C71.4115 168.121 61.8516 178.371 57.0016 176.961C52.1416 175.561 44.0115 165.051 44.0115 165.051L58.0616 150.591L58.0516 150.581Z" fill="#FFB784"/>
<path d="M101.212 150.991C100.652 150.701 100.052 150.391 99.3915 150.061C96.2415 148.461 90.5115 145.661 87.4415 144.771C82.9415 143.481 78.1616 143.551 75.7216 143.701C75.6116 144.251 75.5015 144.801 75.3815 145.341C75.3115 145.671 75.2416 145.991 75.1716 146.311C77.0516 146.151 82.1316 145.911 86.7316 147.231C88.8316 147.831 92.5315 149.521 96.1415 151.301C91.4015 148.581 86.4916 146.411 86.4916 146.411C87.2316 145.861 96.2616 150.821 101.222 150.981L101.212 150.991Z" fill="#BA4E00"/>
<path d="M103.072 161.791C102.562 161.831 102.042 161.851 101.542 161.851C99.9916 160.261 94.1516 154.651 86.5516 152.061C82.3816 150.641 76.8816 150.541 74.2216 150.591C74.0216 151.451 73.8316 152.311 73.6216 153.181C75.7516 153.121 81.6016 153.091 85.7216 154.501C93.7916 157.261 99.9816 163.941 100.042 164.011L100.282 164.281C100.112 162.921 99.1616 161.791 99.1616 161.791C99.1616 161.791 101.412 162.381 103.072 161.801V161.791Z" fill="#BA4E00"/>
<path d="M96.0115 167.601C93.1315 164.121 84.2616 157.381 72.4316 158.071C72.2116 158.951 71.9915 159.821 71.7615 160.701C83.7815 159.621 92.1915 167.061 94.1315 169.321C94.5515 168.171 94.5416 166.821 94.5416 166.821C94.5416 166.821 95.1315 167.341 96.0115 167.611V167.601Z" fill="#BA4E00"/>
<path d="M27.4716 93.8311L18.6816 95.441L19.1516 98.031L28.1716 96.471C27.5516 95.101 27.2415 94.251 27.3215 94.071C27.3415 94.031 27.3916 93.951 27.4716 93.841V93.8311Z" fill="#BA4E00"/>
</svg>
