<svg width="103" height="278" viewBox="0 0 103 278" fill="none" xmlns="http://www.w3.org/2000/svg">
<path class="skin" d="M82.3925 0.18C81.9625 -0.22 74.5225 -1.46001 68.0425 18.14C61.6825 37.37 64.0825 59.92 64.0825 59.92C64.0825 59.92 80.6025 95.15 69.9625 137.58C60.9225 173.63 31.0825 207.17 25.6025 215.23C21.8425 220.78 48.5925 222.51 48.5925 222.51C48.5925 222.51 86.2525 180.4 96.5325 145.03C106.923 109.25 104.863 21.21 82.3925 0.18Z" fill="#F59673"/>
<path class="skin" d="M37.1221 200.07C30.4521 209.23 25.0221 215.51 25.0221 215.51C25.0221 215.51 16.4021 214.67 13.6421 218.74C10.8821 222.81 8.07206 235.46 8.07206 235.46C8.07206 235.46 2.40212 235.6 0.762122 239.11C-0.877878 242.62 7.22206 245.95 11.2021 244.31C15.1821 242.67 17.5721 236.44 17.5721 236.44C17.5721 236.44 13.8621 247.82 11.6621 252.45C9.46215 257.08 5.58213 262.07 5.89213 265.44C6.20213 268.82 12.0522 269.33 12.0522 269.33C12.0522 269.33 10.0521 274.94 13.8621 276.86C17.6721 278.78 21.4721 273.64 21.4721 273.64C21.4721 273.64 22.8821 276.47 26.1421 274.54C29.4021 272.61 30.0921 269.78 30.0921 269.78C30.0921 269.78 32.8221 270.62 36.5021 267.01C40.1921 263.4 49.7221 249.7 51.4521 240.2C53.1821 230.7 48.5821 222.5 48.5821 222.5C48.5821 222.5 57.6821 211.75 58.2821 210.83C58.5321 210.46 37.1021 200.06 37.1021 200.06L37.1221 200.07Z" fill="#F59673"/>
<path d="M22.0724 226.07C21.1724 230.48 16.3124 241.46 14.3324 245.81C16.0224 241.2 17.5724 236.44 17.5724 236.44C17.5724 236.44 15.7025 241.31 12.5225 243.57C14.6825 238.74 18.7825 229.33 19.5525 225.55L22.0724 226.06V226.07Z" fill="#B17861"/>
<path d="M21.4818 273.65C21.4818 273.65 19.9819 275.68 17.9219 276.71L20.0118 274.37C20.9218 272.86 31.6618 254.85 35.0718 244.04L37.5219 244.81C34.3019 255.04 25.0718 270.89 22.6918 274.88C21.8618 274.42 21.4718 273.65 21.4718 273.65H21.4818Z" fill="#B17861"/>
<path d="M9.71155 268.15C14.1015 268.56 21.7316 251.84 25.7416 239.84L28.1816 240.65C28.1616 240.73 25.6215 248.27 22.2115 255.63C18.3415 263.98 14.9116 268.81 11.8016 270.25C11.9316 269.68 12.0615 269.32 12.0615 269.32C12.0615 269.32 9.73164 269.12 7.93164 268.11C8.67164 268.04 9.35156 268.11 9.72156 268.14L9.71155 268.15Z" fill="#B17861"/>
<path d="M42.2321 246.77L44.6321 247.67C42.1221 254.35 36.7421 263.86 33.6521 269.11C31.9121 269.99 30.812 270.06 30.082 269.78C32.682 265.44 39.452 254.14 42.222 246.76L42.2321 246.77Z" fill="#B17861"/>
</svg>
