<svg width="458" height="526" viewBox="0 0 458 526" fill="none" xmlns="http://www.w3.org/2000/svg">
<path d="M376.058 415.47C376.507 416.343 396.451 435.24 396.63 437.688C396.81 440.137 388.136 464.984 388.316 465.506C388.496 466.028 404.203 474.427 405.496 474.608C406.788 474.779 444.653 439.083 442.068 431.908C439.484 424.732 418.979 420.708 417.687 419.484C416.394 418.26 400.327 395.339 397.743 394.636C395.159 393.934 376.058 415.46 376.058 415.46V415.47Z" fill="#F3A396"/>
<path d="M386.948 459.597C386.948 459.597 391.901 439.234 401.062 438.243C410.233 437.241 425.337 438.145 426.361 436.294C427.385 434.443 426.539 423.129 426.539 423.129L418.17 421.089C416.784 420.751 416.171 419.091 417.17 418.072C417.569 417.666 417.933 417.369 418.146 417.369C418.825 417.369 435.444 419.656 437.236 420.744C437.236 420.744 439.695 419.209 441.71 420.015C443.725 420.821 453.775 426.897 455.144 433.267C456.514 439.637 426.45 493.985 418.013 498.33C409.576 502.674 364.186 502.663 362.294 500.257C361.582 499.353 361.56 495.466 361.56 495.466L362.483 493.277C362.483 493.277 361.771 482.028 367.459 477.891C373.146 473.742 385.19 471.357 385.19 470.486C385.19 469.615 386.937 459.586 386.937 459.586L386.948 459.597Z" fill="#001141"/>
<path d="M423.473 413.192C421.681 411.102 417 412.831 414.823 415.754L416.749 418.555L426.326 422.887L431.194 426.588V420.804C427.649 421.364 425.712 415.804 423.473 413.192Z" fill="#001141"/>
<path d="M423.162 454.137C423.162 454.137 435.668 433.803 414.462 434.173C402.23 434.389 395.988 431.292 391.345 433.235C384.126 436.287 385.828 446.293 388.746 450.178C391.665 454.063 407.043 463.688 407.043 463.688L423.162 454.137Z" fill="#001141"/>
<path d="M409.157 452.315C409.157 452.315 397.541 458.767 387.817 454.158" stroke="#D0E2FF" stroke-width="2.64376" stroke-linecap="round" stroke-linejoin="round"/>
<path d="M408.009 459.109C408.009 459.109 396.393 465.561 386.669 460.953" stroke="#D0E2FF" stroke-width="2.64376" stroke-linecap="round" stroke-linejoin="round"/>
<path d="M406.859 465.902C406.859 465.902 395.243 472.355 385.52 467.746" stroke="#D0E2FF" stroke-width="2.64376" stroke-linecap="round" stroke-linejoin="round"/>
<path d="M362.506 493.288C362.506 493.288 361.548 494.213 361.27 494.301C360.992 494.388 359.612 500.714 361.982 501.629C364.353 502.544 408.508 504.133 417.034 499.832C425.56 495.52 460.877 440.976 457.393 432.755C453.909 424.534 441.409 418.926 440.23 419.035C439.05 419.144 437.258 420.745 437.258 420.745C437.258 420.745 452.518 428.476 452.685 431.22C452.852 433.964 423.167 487.266 414.118 491.077C405.08 494.889 362.517 493.288 362.517 493.288H362.506Z" fill="#D0E2FF"/>
<path d="M177.918 436.974C176.912 437.15 173.871 462.544 173.11 463.492C172.35 464.439 139.247 468.44 136.381 471.294C133.527 474.148 197.511 500.724 199.031 497.496C200.552 494.256 202.599 475.095 203.546 470.534C204.494 465.972 209.734 445.478 207.255 443.946C204.786 442.425 192.458 434.424 177.906 436.962L177.918 436.974Z" fill="#F3A396"/>
<path d="M94.2585 467.902C94.6796 467.621 97.0658 460.883 105.476 459.913C113.887 458.93 132.684 462.72 133.947 462.159C135.211 461.597 169.238 452.859 174.946 456.38C180.655 459.901 182.901 483.05 186.69 481.646C197.768 481.646 204.961 458.427 206.306 459.913C210.179 471.431 199.85 507.439 199.99 508.14C200.131 508.842 201.628 508.269 202.318 509.954C203.02 511.638 199.721 521.475 197.768 522.598C195.803 523.721 111.255 497.122 93.8609 474.686C90.3283 470.136 94.2585 467.902 94.2585 467.902Z" fill="#001141"/>
<path d="M212.783 460.761C210.878 457.973 205.755 459.846 205.755 459.846L206.063 479.495C211.501 468.67 214.689 463.549 212.783 460.761Z" fill="#001141"/>
<path d="M181.539 469.899C181.539 469.899 196.18 460.284 182.792 453.913C175.068 450.24 172.202 446.234 168.647 446.077C163.108 445.853 160.817 453.036 161.339 456.529C161.862 460.022 168.254 471.219 168.254 471.219L181.539 469.899Z" fill="#001141"/>
<path d="M91.0305 470.58C91.2645 469.89 91.6972 469.177 92.1534 468.521C100.365 468.943 136.428 496.747 155.412 502.572C173.298 508.058 195.265 514.901 200.611 519.826C199.71 521.767 198.739 523.3 197.932 523.662C195.581 524.704 163.53 514.504 132.79 502.338C102.049 490.173 90.317 472.662 91.0305 470.58Z" fill="#9E968F"/>
<path d="M169.448 465.253C169.448 465.253 161.679 454.63 150.506 456.528" stroke="#D0E2FF" stroke-width="2.64376" stroke-linecap="round" stroke-linejoin="round"/>
<path d="M163.614 467.118C163.614 467.118 155.845 456.495 144.672 458.393" stroke="#D0E2FF" stroke-width="2.64376" stroke-linecap="round" stroke-linejoin="round"/>
<path d="M157.562 468.521C157.562 468.521 149.792 457.898 138.619 459.796" stroke="#D0E2FF" stroke-width="2.64376" stroke-linecap="round" stroke-linejoin="round"/>
<path d="M97.4422 463.6C105.197 466.03 125.282 478.315 146.138 491.44C149.483 493.543 152.115 495.198 152.724 495.526C154.841 496.669 182.187 502.051 202.353 510.171C202.649 513.201 200.198 518.302 200.092 518.999C183.05 512.364 154.215 502.716 151.104 501.048C150.402 500.667 144.577 498.266 140.787 495.875C128.835 489.986 98.6991 469.462 93.3341 468.593C93.8137 467.792 96.1755 464.208 97.4422 463.574V463.6Z" fill="#D0E2FF"/>
<path d="M222.334 21.037C222.334 21.037 200.258 159.179 193.286 206.525C186.323 253.87 168.806 423.778 172.204 426.705C175.593 429.642 218.804 442.021 221.322 439.743C223.839 437.465 240.634 293.668 242.729 292.711C244.833 291.753 249.41 288.893 249.983 286.263C250.555 283.633 246.444 277.989 246.523 277.461C246.611 276.932 253.31 276.085 253.055 273.004C252.799 269.924 249.234 267.91 249.234 267.91C249.234 267.91 290.087 89.8336 291.663 92.7824C293.238 95.7312 292.49 277.197 297.217 290.004C301.204 300.809 346.528 382.825 362.055 413.732C362.997 415.603 368.525 415.823 370.127 416.131C380.373 418.1 406.895 395.357 405.32 378.611C405.091 376.135 405.848 371.041 405.364 369.566C396.227 341.476 362.751 284.348 361.774 280.674C360.621 276.36 366.8 275.645 365.797 271.156C364.793 266.667 360.137 269.384 360.225 267.679C360.313 265.974 364.591 264.84 364.591 261.77C364.591 258.701 359.679 256.764 359.679 256.764C359.679 256.764 359.881 48.5554 357.091 24.2829C356.211 16.6029 340.991 2.47508 339.24 1.24275C335.675 -1.24392 237.536 0.76963 237.536 0.76963L222.316 21.015L222.334 21.037Z" fill="#001141"/>
<path d="M225.333 430.777C225.333 430.777 227.903 433.074 228.093 433.821C228.283 434.567 224.433 446.565 222.103 446.999C212.393 448.784 168.373 440.925 163.623 437.206C161.883 435.848 164.763 423.594 165.613 422.869C166.463 422.143 170.373 421.987 170.373 421.987C170.373 421.987 193.293 420.977 225.333 430.777Z" fill="#0043CE"/>
<path d="M405.466 373.15C405.466 373.15 405.357 390.67 390.167 400.27C374.977 409.87 360.096 410.81 360.096 410.81C360.096 410.81 359.146 415.57 359.146 415.89C359.146 416.21 367.906 425.39 369.586 425.81C371.266 426.23 387.306 425.7 404.406 412.73C421.496 399.75 418.386 387.42 418.146 386.93C417.906 386.45 410.056 374.46 409.026 373.95C408.056 373.47 405.466 373.17 405.466 373.17V373.15Z" fill="#0043CE"/>
<path d="M201.03 291.555C204.502 292.498 208.223 293.129 212.934 290.079L212.05 288.281C210.261 289.442 204.1 290.432 201.035 289.33C197.317 287.994 195.566 285.728 195.554 285.693L193.75 286.515C193.811 286.712 195.78 289.681 200.311 291.327C200.547 291.416 200.794 291.491 201.037 291.557L201.03 291.555Z" fill="#0043CE"/>
<path d="M321.399 297.38C317.926 298.323 314.206 298.955 309.495 295.904L310.378 294.106C312.168 295.268 318.328 296.257 321.393 295.155C325.111 293.819 326.863 291.554 326.875 291.518L328.679 292.341C328.618 292.537 326.649 295.506 322.118 297.152C321.882 297.241 321.635 297.316 321.392 297.382L321.399 297.38Z" fill="#0043CE"/>
</svg>
