<svg width="458" height="526" viewBox="0 0 458 526" fill="none" xmlns="http://www.w3.org/2000/svg">
<path d="M359.165 100.321H211.789L216.614 0H352.733L359.165 100.321Z" fill="#001141"/>
<path d="M213.201 68.6882C213.201 68.6882 208.268 139.092 207.414 172.169C206.56 205.247 205.396 243.604 205.396 243.604C204.882 258.915 219.379 269.834 234.978 269.834C249.099 269.834 260.935 259.353 262.415 245.589C262.415 245.589 269.795 184.953 271.687 166.061C273.579 147.169 279.751 77.0719 279.751 77.0719C281.874 57.3095 266.081 40.1042 245.85 40.1042C227.452 40.1042 213.813 50.6621 213.169 68.7198L213.201 68.6882Z" fill="#001141"/>
<path d="M237.174 485.456L240.481 392.236H208.285L209.737 483.863L237.174 485.456Z" fill="#F3A396"/>
<path d="M218.264 479.831C218.264 479.831 222.296 467.714 213.164 461.969C204.031 456.223 199.354 458.562 198.709 466.001C198.064 473.44 197.862 477.895 197.862 477.895L218.264 479.81V479.831Z" fill="#001141"/>
<path d="M203.528 472.271C203.528 472.271 182.4 487.008 165.828 486.685C165.828 486.685 137.342 487.189 139.076 512.369L254.391 512.248C254.391 512.248 261.367 491.362 248.122 474.75C248.122 474.75 255.097 452.837 238.243 455.014L237.86 467.392C237.86 467.392 235.844 472.351 229.333 470.416C222.821 468.481 214.273 468.36 203.508 472.271H203.528Z" fill="#001141"/>
<path d="M139.015 525.231H254.411V512.268H139.015V525.231Z" fill="#ECECEB"/>
<path d="M212.963 484.064C212.963 484.064 206.29 474.811 196.693 476.464" stroke="#ECECEB" stroke-width="2.64376" stroke-linecap="round" stroke-linejoin="round"/>
<path d="M204.838 488.621C204.838 488.621 198.166 479.367 188.569 481.021" stroke="#ECECEB" stroke-width="2.64376" stroke-linecap="round" stroke-linejoin="round"/>
<path d="M195.423 491.403C195.423 491.403 188.75 482.149 179.154 483.802" stroke="#ECECEB" stroke-width="2.64376" stroke-linecap="round" stroke-linejoin="round"/>
<path d="M253.363 485.617C253.363 485.617 226.067 489.165 224.434 511.784" stroke="#ECECEB" stroke-width="1.98282" stroke-linecap="round" stroke-linejoin="round"/>
<path d="M167.643 487.028C167.643 487.028 185.343 486.464 184.537 511.281" stroke="#ECECEB" stroke-width="1.98282" stroke-linecap="round" stroke-linejoin="round"/>
<path d="M264.623 225.607C264.623 225.607 249.782 421.121 252.459 426.906C255.136 432.69 252.151 434.1 252.176 434.14C253.328 435.979 252.08 436.58 252.08 436.58H200.265L206.396 221.819C206.874 206.697 220.655 194.858 236.993 195.584C253.844 196.342 266.499 210.106 264.589 225.607H264.623Z" fill="#001141"/>
<path d="M356.386 70.7634C356.386 70.7634 363.314 146.171 363.314 169.171C363.314 192.171 363.314 241.833 363.314 241.833C363.829 257.144 351.349 269.835 335.749 269.835C321.629 269.835 309.793 259.354 308.313 245.589C308.313 245.589 301.037 195.171 298.037 169.171C295.037 143.171 290.977 77.072 290.977 77.072C288.854 57.3095 304.646 40.1042 324.878 40.1042C343.276 40.1042 356.386 54.5031 356.419 70.795L356.386 70.7634Z" fill="#001141"/>
<path d="M330.373 486.214L327.128 394.725H358.706L357.301 484.651L330.373 486.214Z" fill="#F3A396"/>
<path d="M348.932 480.693C348.932 480.693 344.975 468.802 353.937 463.163C362.9 457.524 367.491 459.819 368.124 467.12C368.757 474.421 368.955 478.794 368.955 478.794L348.932 480.674V480.693Z" fill="#001141"/>
<path d="M363.395 473.274C363.395 473.274 384.131 487.737 400.395 487.421C400.395 487.421 428.352 487.915 426.65 512.628L313.476 512.509C313.476 512.509 306.63 492.011 319.63 475.708C319.63 475.708 312.784 454.201 329.325 456.338L329.7 468.486C329.7 468.486 331.679 473.353 338.07 471.454C344.461 469.554 352.85 469.436 363.415 473.274H363.395Z" fill="#001141"/>
<path d="M426.709 512.509H313.456V525.231H426.709V512.509Z" fill="#ECECEB"/>
<path d="M354.116 484.848C354.116 484.848 360.665 475.767 370.083 477.389" stroke="#ECECEB" stroke-width="2.64376" stroke-linecap="round" stroke-linejoin="round"/>
<path d="M362.109 489.32C362.109 489.32 368.658 480.239 378.076 481.861" stroke="#ECECEB" stroke-width="2.64376" stroke-linecap="round" stroke-linejoin="round"/>
<path d="M371.35 492.05C371.35 492.05 377.899 482.969 387.317 484.591" stroke="#ECECEB" stroke-width="2.64376" stroke-linecap="round" stroke-linejoin="round"/>
<path d="M314.406 486.372C314.406 486.372 341.315 489.557 342.917 511.777" stroke="#ECECEB" stroke-width="1.98282" stroke-linecap="round" stroke-linejoin="round"/>
<path d="M398.594 487.856C398.594 487.856 381.697 487.539 382.172 511.777" stroke="#ECECEB" stroke-width="1.98282" stroke-linecap="round" stroke-linejoin="round"/>
<path d="M308.345 246.504C308.345 246.504 323.739 410.048 319.828 419.03C315.918 428.013 319.828 435.627 319.828 435.627L368.614 437.197L363.217 242.716C362.767 227.594 349.773 215.756 334.366 216.482C318.477 217.239 306.544 231.004 308.345 246.504Z" fill="#001141"/>
<path d="M219.007 264.824C222.431 265.768 226.099 266.399 230.744 263.348L229.873 261.55C228.109 262.712 222.034 263.701 219.012 262.6C215.346 261.264 213.619 258.998 213.608 258.962L211.829 259.785C211.889 259.981 213.831 262.95 218.298 264.596C218.531 264.685 218.775 264.76 219.014 264.826L219.007 264.824Z" fill="#0043CE"/>
<path d="M347.144 265.316C343.721 266.259 340.053 266.89 335.407 263.84L336.278 262.042C338.043 263.203 344.117 264.193 347.139 263.091C350.805 261.755 352.532 259.489 352.544 259.454L354.323 260.277C354.262 260.473 352.321 263.442 347.854 265.088C347.621 265.177 347.377 265.252 347.138 265.318L347.144 265.316Z" fill="#0043CE"/>
<path d="M286.968 18.7439L289.184 75.045C289.184 75.045 280.405 70.615 280.599 51.7406" stroke="#0043CE" stroke-width="2" stroke-miterlimit="10"/>
<path d="M353.507 34.3961H319.783C319.783 34.3961 332.241 77.9014 358.706 74.1043" stroke="#0043CE" stroke-width="2" stroke-miterlimit="10"/>
<path d="M211.789 74.5182C211.789 74.5182 231.519 82.7208 248.991 34.3961" stroke="#0043CE" stroke-width="2" stroke-miterlimit="10"/>
<path fill-rule="evenodd" clip-rule="evenodd" d="M274.477 99.3213C274.477 98.769 274.789 98.3213 275.175 98.3213H295.778C296.164 98.3213 296.477 98.769 296.477 99.3213C296.477 99.8736 296.164 100.321 295.778 100.321H275.175C274.789 100.321 274.477 99.8736 274.477 99.3213Z" fill="#0043CE"/>
<path d="M319.906 435.263C314.069 444.007 317.91 449.976 321.188 451.405H369.3C376.276 446.227 371.682 440.105 368.683 436.815L319.906 435.263Z" fill="#0043CE"/>
<path d="M200.102 451.828C195.506 444.606 197.978 438.004 201.256 436.575H250.114C257.089 441.753 250.95 450.656 249.053 451.111C249.053 451.111 204.698 459.05 200.102 451.828Z" fill="#0043CE"/>
</svg>
