<svg class="menu__icon" width="24" height="24" viewBox="0 0 24 24" fill="none" xmlns="http://www.w3.org/2000/svg"><path fill-rule="evenodd" clip-rule="evenodd" d="M21.25 2.75H12.5V4.75H17.8183L12.6337 9.93463C12.1435 9.5761 11.608 9.29519 11.0279 9.09216C10.376 8.86398 9.69958 8.75 9 8.75C7.87778 8.75 6.83413 9.03512 5.87378 9.60451C4.91506 10.1573 4.15019 10.9144 3.58184 11.8724L3.58027 11.8752C3.02684 12.8355 2.75 13.8787 2.75 15C2.75 16.1213 3.02682 17.1645 3.58025 18.1248L3.58186 18.1276C4.1501 19.0854 4.91455 19.8499 5.87244 20.4182L5.87518 20.4197C6.83554 20.9732 7.87867 21.25 9 21.25C10.1213 21.25 11.1645 20.9732 12.1248 20.4198L12.1276 20.4181C13.0856 19.8498 13.8427 19.0849 14.3955 18.1262C14.9649 17.1659 15.25 16.1222 15.25 15C15.25 14.3004 15.136 13.624 14.9078 12.9721C14.7048 12.392 14.4239 11.8565 14.0654 11.3663L19.25 6.18168V11.5H21.25V2.75ZM9 10.75C9.76858 10.75 10.4745 10.9415 11.1228 11.3246C11.774 11.7094 12.2906 12.226 12.6754 12.8772C13.0585 13.5255 13.25 14.2314 13.25 15C13.25 15.7686 13.0585 16.4745 12.6754 17.1228C12.2906 17.774 11.774 18.2906 11.1228 18.6754C10.4745 19.0585 9.76858 19.25 9 19.25C8.23142 19.25 7.52546 19.0585 6.87718 18.6754C6.22599 18.2906 5.7094 17.774 5.32461 17.1228C4.94153 16.4745 4.75 15.7686 4.75 15C4.75 14.2314 4.94153 13.5255 5.32461 12.8772C5.7094 12.226 6.22599 11.7094 6.87718 11.3246C7.52546 10.9415 8.23142 10.75 9 10.75Z" fill="#363D61"></path></svg>