<svg width="130" height="210" viewBox="0 0 130 210" fill="none" xmlns="http://www.w3.org/2000/svg">
<g clip-path="url(#clip0_310_2518)">
<g clip-path="url(#clip1_310_2518)">
<path d="M38.2959 140.013H89.8041V176.645C89.8041 190.913 78.2626 202.5 64.05 202.5C49.8374 202.5 38.2959 190.913 38.2959 176.645V140.013Z" class="skin" fill="#B77261"/>
<path d="M38.2957 143.276C38.2957 143.276 44.5452 159.037 57.5483 166.475C66.9982 171.863 79.1948 169.789 85.5955 160.96C88.7959 156.558 89.7787 151.043 89.7787 141.531C89.7787 141.531 80.8076 154.357 65.2846 155.015C49.7616 155.672 38.2705 143.276 38.2705 143.276H38.2957Z" fill="#844E3F"/>
<path d="M101.093 120.33C109.434 126.503 123.849 98.422 115.709 91.7685C107.595 85.115 100.363 97.9666 100.363 97.9666L98.3465 107.201L94.7178 115.701L97.6661 118.104L101.068 120.356L101.093 120.33Z" class="skin" fill="#B77261"/>
<path d="M113.467 100.218C113.467 100.218 107.419 98.1942 103.135 107.125" stroke="#844E3F" stroke-width="2.5" stroke-linecap="square" stroke-linejoin="round"/>
<path d="M106.083 102.773C106.083 102.773 112.66 106.315 108.326 111.602" stroke="#844E3F" stroke-width="2.5" stroke-linecap="square" stroke-linejoin="round"/>
<path d="M27.535 120.331C19.1939 126.503 4.77963 98.4221 12.9191 91.7686C21.0334 85.1151 27.6862 98.751 27.6862 98.751L26.6278 107.656L27.8122 117.32L30.1053 118.939L27.5602 120.331H27.535Z" class="skin" fill="#B77261"/>
<path d="M15.1621 100.218C15.1621 100.218 21.21 98.1945 25.494 107.125" stroke="#844E3F" stroke-width="2.5" stroke-linecap="square" stroke-linejoin="round"/>
<path d="M22.5452 102.773C22.5452 102.773 15.9681 106.315 20.3024 111.603" stroke="#844E3F" stroke-width="2.5" stroke-linecap="square" stroke-linejoin="round"/>
<path d="M103.033 84.0778C103.033 101.483 100.74 116.485 98.4215 127.161C96.1787 137.584 89.8284 143.226 80.8825 149.095L79.2445 150.157C69.7695 156.356 57.5224 156.507 47.8961 150.537C38.1942 144.491 31.3903 138.191 29.2987 127.009C25.4936 106.644 25.0904 84.1031 25.0904 84.1031C25.0904 84.1031 21.4616 40.185 63.4947 41.0198C105.528 41.88 103.008 84.1031 103.008 84.1031L103.033 84.0778Z" class="skin" fill="#B77261"/>
<path d="M59.3982 128.873L59.1182 126.063C59.3282 126.043 64.2382 125.563 67.6382 126.063L67.2181 128.853C64.1681 128.393 59.4482 128.853 59.3982 128.853V128.873Z" fill="#844E3F"/>
<path d="M59.8916 102.773V111.426C59.8916 111.931 59.9924 112.412 60.1688 112.868C60.8744 114.613 62.8652 115.448 64.6795 114.967L70.0219 113.424" stroke="#844E3F" stroke-width="2.5" stroke-linecap="square" stroke-linejoin="round"/>
<path d="M45.027 98.0671C47.2105 98.0671 48.9807 96.3297 48.9807 94.1865C48.9807 92.0433 47.2105 90.3059 45.027 90.3059C42.8434 90.3059 41.0732 92.0433 41.0732 94.1865C41.0732 96.3297 42.8434 98.0671 45.027 98.0671Z" class="hair" fill="#1A1A1A"/>
<path d="M80.027 98.0671C82.2105 98.0671 83.9807 96.3297 83.9807 94.1865C83.9807 92.0433 82.2105 90.3059 80.027 90.3059C77.8434 90.3059 76.0732 92.0433 76.0732 94.1865C76.0732 96.3297 77.8434 98.0671 80.027 98.0671Z" class="hair" fill="#1A1A1A"/>
<path d="M74.631 125.835C74.631 125.835 70.2293 122.366 63.1866 122.366H63.1694C56.3831 122.366 51.4344 125.486 51.3831 125.513L50.1182 123.358C50.3404 123.215 55.6652 119.835 63.1694 119.835H63.1866C71.1011 119.835 75.913 123.671 76.1182 123.832L74.6395 125.826L74.631 125.835Z" fill="#844E3F"/>
<path d="M53.1598 84.5871L55.1351 82.6773C55.7307 82.0892 55.541 81.1547 54.7024 80.5183C52.3963 78.7683 47.6693 75.5764 43.219 75.1064C38.1254 74.5587 33.2412 77.2746 31.6339 78.2686C31.2829 78.4888 31.118 78.8594 31.1921 79.2379C31.3138 80.0662 32.3502 80.7492 33.3652 80.6954L39.4466 80.3962C41.5239 80.3062 43.7315 80.8047 45.7213 81.8159C47.1619 82.5686 48.8831 83.5068 50.3712 84.4931C51.3219 85.1172 52.573 85.1514 53.201 84.5484L53.1598 84.5871Z" class="hair" fill="#1A1A1A"/>
<path d="M72.8518 85.8272L70.721 84.0926C70.0775 83.5574 70.1869 82.6101 70.9683 81.9046C73.117 79.9645 77.5551 76.3817 81.9491 75.5345C86.9776 74.555 92.0753 76.8452 93.7614 77.6987C94.1299 77.8882 94.3257 78.2434 94.2842 78.6269C94.2334 79.4625 93.259 80.2313 92.2431 80.2641L86.1583 80.4839C84.0809 80.5711 81.9237 81.2557 80.0273 82.4327C78.656 83.3053 77.021 84.3867 75.6223 85.4961C74.7282 86.199 73.4844 86.3395 72.8074 85.7922L72.8518 85.8272Z" class="hair" fill="#1A1A1A"/>
<path d="M25.6194 95.437C25.6194 95.437 24.561 71.9853 35.4473 68.6965L38.2948 57.7676H22.545C22.545 57.7676 21.9906 66.4703 25.6194 95.437Z" class="hair" fill="#1A1A1A"/>
<path d="M102.605 95.4369C102.605 95.4369 102.378 71.9852 91.4919 68.6964L88.3672 56.9326L103.059 55.6677C103.059 55.6677 106.234 66.4702 102.58 95.4369H102.605Z" class="hair" fill="#1A1A1A"/>
<path d="M95.3729 59.5384C95.3729 59.5384 85.0914 62.7766 71.1056 63.3078C57.1197 63.8391 62.9409 76.5642 62.9409 76.5642C62.9409 76.5642 47.7958 78.2845 48.073 56.6796C48.073 56.6796 43.7135 70.1131 30.3072 71.7322C30.3072 71.7322 33.558 66.0401 32.9532 59.5131C32.9532 59.5131 18.9926 62.4983 16.3466 68.747C16.3466 68.747 9.2907 55.9966 22.6969 41.3235C22.6969 41.3235 18.6146 37.5034 13.373 43.4738C13.373 43.4738 19.1942 26.9033 49.5094 29.6103C49.5094 29.6103 57.3717 32.3172 64.9568 27.4346C72.5419 22.552 82.3446 23.8928 86.2254 30.1415C88.8209 34.3411 89.7281 37.3769 89.7281 37.3769C89.7281 37.3769 94.3901 37.9082 94.6925 29.7621C94.6925 29.7621 101.27 36.7191 94.6925 44.1569C94.6925 44.1569 113.466 48.2046 104.344 70.0625L95.3477 59.4878L95.3729 59.5384Z" class="hair" fill="#1A1A1A"/>
</g>
</g>
<defs>
<clipPath id="clip0_310_2518">
<rect width="107.628" height="178" fill="white" transform="translate(10.5 24.5)"/>
</clipPath>
<clipPath id="clip1_310_2518">
<rect width="107.628" height="178" fill="white" transform="translate(10.5 24.5)"/>
</clipPath>
</defs>
</svg>
