<svg width="130" height="210" viewBox="0 0 130 210" fill="none" xmlns="http://www.w3.org/2000/svg">
<g clip-path="url(#clip0_310_2518)">
<path d="M38.2959 140.013H89.8041V176.645C89.8041 190.913 78.2626 202.5 64.05 202.5C49.8374 202.5 38.2959 190.913 38.2959 176.645V140.013Z" class="skin" fill="#B77261"/>
<path d="M38.2957 143.276C38.2957 143.276 44.5452 159.037 57.5483 166.475C66.9982 171.863 79.1948 169.789 85.5955 160.96C88.7959 156.558 89.7787 151.043 89.7787 141.531C89.7787 141.531 80.8076 154.357 65.2846 155.015C49.7616 155.672 38.2705 143.276 38.2705 143.276H38.2957Z" fill="#844E3F"/>
<path d="M101.093 120.33C109.434 126.503 123.849 98.422 115.709 91.7685C107.595 85.115 100.363 97.9666 100.363 97.9666L98.3465 107.201L94.7178 115.701L97.6661 118.104L101.068 120.356L101.093 120.33Z" class="skin" fill="#B77261"/>
<path d="M113.467 100.218C113.467 100.218 107.419 98.1942 103.135 107.125" stroke="#844E3F" stroke-width="2.5" stroke-linecap="square" stroke-linejoin="round"/>
<path d="M106.083 102.773C106.083 102.773 112.66 106.315 108.326 111.602" stroke="#844E3F" stroke-width="2.5" stroke-linecap="square" stroke-linejoin="round"/>
<path d="M27.535 120.331C19.1939 126.503 4.77963 98.4221 12.9191 91.7686C21.0334 85.1151 27.6862 98.751 27.6862 98.751L26.6278 107.656L27.8122 117.32L30.1053 118.939L27.5602 120.331H27.535Z" class="skin" fill="#B77261"/>
<path d="M15.1621 100.218C15.1621 100.218 21.21 98.1945 25.494 107.125" stroke="#844E3F" stroke-width="2.5" stroke-linecap="square" stroke-linejoin="round"/>
<path d="M22.5452 102.773C22.5452 102.773 15.9681 106.315 20.3024 111.603" stroke="#844E3F" stroke-width="2.5" stroke-linecap="square" stroke-linejoin="round"/>
<path d="M103.033 84.0778C103.033 101.483 100.74 116.485 98.4215 127.161C96.1787 137.584 89.8284 143.226 80.8825 149.095L79.2445 150.157C69.7695 156.356 57.5224 156.507 47.8961 150.537C38.1942 144.491 31.3903 138.191 29.2987 127.009C25.4936 106.644 25.0904 84.1031 25.0904 84.1031C25.0904 84.1031 21.4616 40.185 63.4947 41.0198C105.528 41.88 103.008 84.1031 103.008 84.1031L103.033 84.0778Z" class="skin" fill="#B77261"/>
<path d="M59.8906 102.773V111.426C59.8906 111.931 59.9914 112.412 60.1678 112.868C60.8734 114.613 62.8642 115.448 64.6786 114.967L70.0209 113.424" stroke="#844E3F" stroke-width="2.5" stroke-linecap="square" stroke-linejoin="round"/>
<path d="M45.5309 98.4715C47.5737 98.4715 49.2298 96.4285 49.2298 93.9085C49.2298 91.3884 47.5737 89.3455 45.5309 89.3455C43.4881 89.3455 41.832 91.3884 41.832 93.9085C41.832 96.4285 43.4881 98.4715 45.5309 98.4715Z" class="hair" fill="#1A1A1A"/>
<path d="M79.9284 98.4715C81.9712 98.4715 83.6273 96.4285 83.6273 93.9085C83.6273 91.3884 81.9712 89.3455 79.9284 89.3455C77.8855 89.3455 76.2295 91.3884 76.2295 93.9085C76.2295 96.4285 77.8855 98.4715 79.9284 98.4715Z" class="hair" fill="#1A1A1A"/>
<path d="M65.2659 118.447C70.3159 118.647 77.6297 120.653 77.6297 129.513C77.5597 133.153 71.8359 139.067 65.2659 138.717C58.6959 138.367 52.3522 133.863 52.2822 129.513C52.2825 120.314 60.0059 118.237 65.2659 118.457V118.447Z" fill="#AE5655"/>
<path d="M70.1916 135.267C68.0039 134.725 61.9673 134.939 58.5273 136.769C60.1273 137.939 62.7415 138.577 65.3315 138.717C67.9215 138.857 70.5857 138.043 73.0998 136.236C71.3282 135.626 70.8087 135.449 70.1916 135.267Z" fill="#D97F7E"/>
<path d="M73.0596 120.566C71.4896 119.346 68.8287 118.541 64.5564 118.377C59.735 118.599 58.0315 119.451 56.2109 120.832C59.8809 120.792 66.9713 120.746 70.6413 120.566H73.0596Z" fill="white"/>
<path d="M54.2455 80.9462L55.4299 78.467C55.7827 77.708 55.2787 76.8985 54.2707 76.5949C51.4988 75.76 45.9548 74.4192 41.6205 75.5324C36.6561 76.7973 33.0274 81.0474 31.8682 82.54C31.6162 82.8689 31.591 83.2737 31.7926 83.6026C32.1958 84.3362 33.4054 84.6145 34.3378 84.2097L39.9321 81.8064C41.8473 80.9968 44.0901 80.6932 46.3076 80.9462C47.9204 81.1486 49.8608 81.4269 51.5996 81.8317C52.7084 82.0847 53.8927 81.6799 54.2707 80.8956L54.2455 80.9462Z" class="hair" fill="#1A1A1A"/>
<path d="M71.3181 81.3893L70.1337 78.9101C69.7809 78.1511 70.2849 77.3416 71.2929 77.038C74.0649 76.2032 79.6088 74.8623 83.9432 75.9755C88.9075 77.2404 92.5363 81.4905 93.6955 82.9831C93.9474 83.312 93.9726 83.7168 93.771 84.0457C93.3679 84.7793 92.1583 85.0576 91.2259 84.6528L85.6315 82.2495C83.7164 81.4399 81.4736 81.1364 79.256 81.3893C77.6432 81.5917 75.7029 81.87 73.9641 82.2748C72.8553 82.5278 71.6709 82.123 71.2929 81.3387L71.3181 81.3893Z" class="hair" fill="#1A1A1A"/>
<path d="M25.6194 95.437C25.6194 95.437 24.561 71.9853 35.4473 68.6965L38.2948 57.7676H22.545C22.545 57.7676 21.9906 66.4703 25.6194 95.437Z" class="hair" fill="#1A1A1A"/>
<path d="M102.605 95.4369C102.605 95.4369 102.378 71.9852 91.4919 68.6964L88.3672 56.9326L103.059 55.6677C103.059 55.6677 106.234 66.4702 102.58 95.4369H102.605Z" class="hair" fill="#1A1A1A"/>
<path d="M95.3729 59.5384C95.3729 59.5384 85.0914 62.7766 71.1056 63.3078C57.1197 63.8391 62.9409 76.5642 62.9409 76.5642C62.9409 76.5642 47.7958 78.2845 48.073 56.6796C48.073 56.6796 43.7135 70.1131 30.3072 71.7322C30.3072 71.7322 33.558 66.0401 32.9532 59.5131C32.9532 59.5131 18.9926 62.4983 16.3466 68.747C16.3466 68.747 9.2907 55.9966 22.6969 41.3235C22.6969 41.3235 18.6146 37.5034 13.373 43.4738C13.373 43.4738 19.1942 26.9033 49.5094 29.6103C49.5094 29.6103 57.3717 32.3172 64.9568 27.4346C72.5419 22.552 82.3446 23.8928 86.2254 30.1415C88.8209 34.3411 89.7281 37.3769 89.7281 37.3769C89.7281 37.3769 94.3901 37.9082 94.6925 29.7621C94.6925 29.7621 101.27 36.7191 94.6925 44.1569C94.6925 44.1569 113.466 48.2046 104.344 70.0625L95.3477 59.4878L95.3729 59.5384Z" class="hair" fill="#1A1A1A"/>
</g>
<defs>
<clipPath id="clip0_310_2518">
<rect width="107.628" height="178" fill="white" transform="translate(10.5 24.5)"/>
</clipPath>
</defs>
</svg>
