<svg width="130" height="210" viewBox="0 0 130 210" fill="none" xmlns="http://www.w3.org/2000/svg">
<g clip-path="url(#clip0_310_2518)">
<path d="M38.2959 139.913H89.8041V176.545C89.8041 190.813 78.2626 202.4 64.05 202.4C49.8374 202.4 38.2959 190.813 38.2959 176.545V139.913Z" class="skin" fill="#B77261"/>
<path d="M38.2957 143.176C38.2957 143.176 44.5452 158.937 57.5483 166.375C66.9982 171.763 79.1948 169.689 85.5955 160.86C88.7959 156.458 89.7787 150.943 89.7787 141.43C89.7787 141.43 80.8076 154.257 65.2846 154.915C49.7616 155.572 38.2705 143.176 38.2705 143.176H38.2957Z" fill="#844E3F"/>
<path d="M101.093 120.23C109.434 126.403 123.849 98.3219 115.709 91.6684C107.595 85.0149 100.363 97.8665 100.363 97.8665L98.3465 107.1L94.7178 115.601L97.6661 118.004L101.068 120.256L101.093 120.23Z" class="skin" fill="#B77261"/>
<path d="M113.467 100.118C113.467 100.118 107.419 98.0941 103.135 107.024" stroke="#844E3F" stroke-width="2.5" stroke-linecap="square" stroke-linejoin="round"/>
<path d="M106.083 102.673C106.083 102.673 112.66 106.215 108.326 111.502" stroke="#844E3F" stroke-width="2.5" stroke-linecap="square" stroke-linejoin="round"/>
<path d="M27.535 120.23C19.1939 126.403 4.77963 98.322 12.9191 91.6685C21.0334 85.015 27.6862 98.6509 27.6862 98.6509L26.6278 107.556L27.8122 117.22L30.1053 118.839L27.5602 120.23H27.535Z" class="skin" fill="#B77261"/>
<path d="M15.1621 100.118C15.1621 100.118 21.21 98.0944 25.494 107.025" stroke="#844E3F" stroke-width="2.5" stroke-linecap="square" stroke-linejoin="round"/>
<path d="M22.5452 102.673C22.5452 102.673 15.9681 106.215 20.3024 111.503" stroke="#844E3F" stroke-width="2.5" stroke-linecap="square" stroke-linejoin="round"/>
<path d="M103.033 83.9777C103.033 101.383 100.74 116.385 98.4215 127.061C96.1787 137.484 89.8284 143.126 80.8825 148.995L79.2445 150.057C69.7695 156.255 57.5224 156.407 47.8961 150.437C38.1942 144.39 31.3903 138.091 29.2987 126.909C25.4936 106.544 25.0904 84.003 25.0904 84.003C25.0904 84.003 21.4616 40.0849 63.4947 40.9197C105.528 41.7799 103.008 84.003 103.008 84.003L103.033 83.9777Z" class="skin" fill="#B77261"/>
<path d="M59.8906 102.673V111.325C59.8906 111.831 59.9914 112.312 60.1678 112.767C60.8734 114.513 62.8642 115.348 64.6786 114.867L70.0209 113.324" stroke="#844E3F" stroke-width="2.5" stroke-linecap="square" stroke-linejoin="round"/>
<path d="M49.3328 95.5393C49.3328 97.6896 47.594 99.4352 45.452 99.4352C43.3101 99.4352 41.5713 97.6896 41.5713 95.5393C41.5713 93.3889 43.3101 91.6433 45.452 91.6433C47.594 91.6433 49.3328 93.3889 49.3328 95.5393Z" class="hair" fill="#1A1A1A"/>
<path d="M86.2498 95.5393C86.2498 97.6896 84.511 99.4352 82.369 99.4352C80.2271 99.4352 78.4883 97.6896 78.4883 95.5393C78.4883 93.3889 80.2271 91.6433 82.369 91.6433C84.511 91.6433 86.2498 93.3889 86.2498 95.5393Z" class="hair" fill="#1A1A1A"/>
<path d="M48.4443 118.831C59.4331 124.594 67.6454 124.2 78.3734 118.831" stroke="#844E3F" stroke-width="2.5" stroke-linecap="square"/>
<path d="M58.0381 126.382C58.0381 126.382 63.8953 128.429 67.6581 126.382" stroke="#844E3F" stroke-width="2.5" stroke-linecap="square"/>
<path d="M54.2455 80.8461L55.4299 78.3669C55.7827 77.6079 55.2787 76.7984 54.2707 76.4948C51.4988 75.6599 45.9548 74.3191 41.6205 75.4323C36.6561 76.6972 33.0274 80.9473 31.8682 82.4399C31.6162 82.7688 31.591 83.1736 31.7926 83.5025C32.1958 84.2361 33.4054 84.5144 34.3378 84.1096L39.9321 81.7063C41.8473 80.8967 44.0901 80.5931 46.3076 80.8461C47.9204 81.0485 49.8608 81.3268 51.5996 81.7316C52.7084 81.9846 53.8927 81.5798 54.2707 80.7955L54.2455 80.8461Z" class="hair" fill="#1A1A1A"/>
<path d="M71.3181 81.2892L70.1337 78.81C69.7809 78.051 70.2849 77.2415 71.2929 76.9379C74.0649 76.1031 79.6088 74.7622 83.9432 75.8754C88.9075 77.1403 92.5363 81.3904 93.6955 82.883C93.9474 83.2119 93.9726 83.6167 93.771 83.9456C93.3679 84.6792 92.1583 84.9575 91.2259 84.5527L85.6315 82.1494C83.7164 81.3398 81.4736 81.0363 79.256 81.2892C77.6432 81.4916 75.7029 81.7699 73.9641 82.1747C72.8553 82.4277 71.6709 82.0229 71.2929 81.2386L71.3181 81.2892Z" class="hair" fill="#1A1A1A"/>
<path d="M25.6194 95.3369C25.6194 95.3369 24.561 71.8852 35.4473 68.5964L38.2948 57.6675H22.545C22.545 57.6675 21.9906 66.3702 25.6194 95.3369Z" class="hair" fill="#1A1A1A"/>
<path d="M102.605 95.3368C102.605 95.3368 102.378 71.8851 91.4919 68.5963L88.3672 56.8326L103.059 55.5676C103.059 55.5676 106.234 66.3701 102.58 95.3368H102.605Z" class="hair" fill="#1A1A1A"/>
<path d="M95.3729 59.4383C95.3729 59.4383 85.0914 62.6765 71.1056 63.2077C57.1197 63.739 62.9409 76.4641 62.9409 76.4641C62.9409 76.4641 47.7958 78.1844 48.073 56.5795C48.073 56.5795 43.7135 70.013 30.3072 71.6321C30.3072 71.6321 33.558 65.94 32.9532 59.413C32.9532 59.413 18.9926 62.3982 16.3466 68.6469C16.3466 68.6469 9.2907 55.8965 22.6969 41.2234C22.6969 41.2234 18.6146 37.4033 13.373 43.3737C13.373 43.3737 19.1942 26.8032 49.5094 29.5102C49.5094 29.5102 57.3717 32.2171 64.9568 27.3345C72.5419 22.4519 82.3446 23.7927 86.2254 30.0414C88.8209 34.241 89.7281 37.2768 89.7281 37.2768C89.7281 37.2768 94.3901 37.8081 94.6925 29.662C94.6925 29.662 101.27 36.619 94.6925 44.0568C94.6925 44.0568 113.466 48.1045 104.344 69.9624L95.3477 59.3877L95.3729 59.4383Z" class="hair" fill="#1A1A1A"/>
</g>
<defs>
<clipPath id="clip0_310_2518">
<rect width="107.628" height="178" fill="white" transform="translate(10.5 24.3999)"/>
</clipPath>
</defs>
</svg>
