<svg width="130" height="210" viewBox="0 0 130 210" fill="none" xmlns="http://www.w3.org/2000/svg">
<g clip-path="url(#clip0_310_2518)">
<path d="M38.3076 140.013H89.8158V176.645C89.8158 190.913 78.2743 202.5 64.0617 202.5C49.8491 202.5 38.3076 190.913 38.3076 176.645V140.013Z" class="skin" fill="#B77261"/>
<path d="M38.3074 143.276C38.3074 143.276 44.557 159.037 57.56 166.475C67.0099 171.863 79.2065 169.789 85.6073 160.96C88.8076 156.558 89.7904 151.043 89.7904 141.531C89.7904 141.531 80.8193 154.357 65.2963 155.015C49.7733 155.672 38.2822 143.276 38.2822 143.276H38.3074Z" fill="#844E3F"/>
<path d="M101.105 120.33C109.446 126.503 123.86 98.422 115.721 91.7685C107.607 85.115 100.374 97.9666 100.374 97.9666L98.3583 107.201L94.7295 115.701L97.6779 118.104L101.08 120.356L101.105 120.33Z" class="skin" fill="#B77261"/>
<path d="M113.478 100.218C113.478 100.218 107.43 98.1942 103.146 107.125" stroke="#844E3F" stroke-width="2.5" stroke-linecap="square" stroke-linejoin="round"/>
<path d="M106.095 102.773C106.095 102.773 112.672 106.315 108.337 111.602" stroke="#844E3F" stroke-width="2.5" stroke-linecap="square" stroke-linejoin="round"/>
<path d="M27.5467 120.331C19.2056 126.503 4.79135 98.4221 12.9309 91.7686C21.0452 85.1151 27.6979 98.751 27.6979 98.751L26.6395 107.656L27.8239 117.32L30.117 118.939L27.5719 120.331H27.5467Z" class="skin" fill="#B77261"/>
<path d="M15.1738 100.218C15.1738 100.218 21.2218 98.1945 25.5057 107.125" stroke="#844E3F" stroke-width="2.5" stroke-linecap="square" stroke-linejoin="round"/>
<path d="M22.5569 102.773C22.5569 102.773 15.9798 106.315 20.3141 111.603" stroke="#844E3F" stroke-width="2.5" stroke-linecap="square" stroke-linejoin="round"/>
<path d="M103.045 84.0778C103.045 101.483 100.752 116.485 98.4332 127.161C96.1905 137.584 89.8401 143.226 80.8942 149.095L79.2563 150.157C69.7812 156.356 57.5341 156.507 47.9078 150.537C38.206 144.491 31.402 138.191 29.3105 127.009C25.5053 106.644 25.1021 84.1031 25.1021 84.1031C25.1021 84.1031 21.4734 40.185 63.5065 41.0198C105.54 41.88 103.02 84.1031 103.02 84.1031L103.045 84.0778Z" class="skin" fill="#B77261"/>
<path d="M59.9023 102.773V111.426C59.9023 111.931 60.0031 112.412 60.1795 112.868C60.8851 114.613 62.8759 115.448 64.6903 114.967L70.0326 113.424" stroke="#844E3F" stroke-width="2.5" stroke-linecap="square" stroke-linejoin="round"/>
<path d="M49.3445 95.6394C49.3445 97.7897 47.6057 99.5353 45.4638 99.5353C43.3218 99.5353 41.583 97.7897 41.583 95.6394C41.583 93.489 43.3218 91.7434 45.4638 91.7434C47.6057 91.7434 49.3445 93.489 49.3445 95.6394Z" class="hair" fill="#1A1A1A"/>
<path d="M86.2615 95.6394C86.2615 97.7897 84.5227 99.5353 82.3808 99.5353C80.2388 99.5353 78.5 97.7897 78.5 95.6394C78.5 93.489 80.2388 91.7434 82.3808 91.7434C84.5227 91.7434 86.2615 93.489 86.2615 95.6394Z" class="hair" fill="#1A1A1A"/>
<path d="M46.0791 120.388L83.536 118.339C83.536 118.339 81.2583 131.97 64.3638 132.443C47.4693 132.916 46.0485 120.389 46.0485 120.389L46.0791 120.388Z" fill="#AE5655"/>
<path d="M81.4675 118.597L81.5917 118.241C65.6119 119.189 55.1161 119.483 48.0016 120.182C48.1701 120.453 49.4064 122.159 49.5617 122.438C49.998 123.168 51.1521 123.671 52.5217 123.725C58.2287 123.963 64.6864 123.981 77.3118 122.694C78.783 122.546 81.1826 119.439 81.4675 118.597Z" fill="white"/>
<path d="M54.2997 130.758C56.9016 131.927 60.4834 132.99 64.9816 132.864C69.4799 132.738 72.9365 131.141 75.3936 129.571C74.1947 128.197 70.022 127.356 62.9494 128.082C56.8112 128.717 55.1783 129.752 54.2997 130.758Z" fill="#D97F7E"/>
<path d="M54.2573 80.9462L55.4416 78.467C55.7944 77.708 55.2904 76.8985 54.2825 76.5949C51.5105 75.76 45.9666 74.4192 41.6322 75.5324C36.6679 76.7973 33.0391 81.0474 31.8799 82.54C31.6279 82.8689 31.6027 83.2737 31.8043 83.6026C32.2075 84.3362 33.4171 84.6145 34.3495 84.2097L39.9438 81.8064C41.859 80.9968 44.1018 80.6932 46.3193 80.9462C47.9321 81.1486 49.8725 81.4269 51.6113 81.8317C52.7201 82.0847 53.9045 81.6799 54.2825 80.8956L54.2573 80.9462Z" class="hair" fill="#1A1A1A"/>
<path d="M71.3298 81.3893L70.1454 78.9101C69.7927 78.1511 70.2966 77.3416 71.3046 77.038C74.0766 76.2032 79.6205 74.8623 83.9549 75.9755C88.9192 77.2404 92.548 81.4905 93.7072 82.9831C93.9592 83.312 93.9844 83.7168 93.7828 84.0457C93.3796 84.7793 92.17 85.0576 91.2376 84.6528L85.6433 82.2495C83.7281 81.4399 81.4853 81.1364 79.2677 81.3893C77.655 81.5917 75.7146 81.87 73.9758 82.2748C72.867 82.5278 71.6826 82.123 71.3046 81.3387L71.3298 81.3893Z" class="hair" fill="#1A1A1A"/>
<path d="M25.6311 95.437C25.6311 95.437 24.5727 71.9853 35.459 68.6965L38.3065 57.7676H22.5567C22.5567 57.7676 22.0023 66.4703 25.6311 95.437Z" class="hair" fill="#1A1A1A"/>
<path d="M102.617 95.4369C102.617 95.4369 102.39 71.9852 91.5037 68.6964L88.3789 56.9326L103.07 55.6677C103.07 55.6677 106.245 66.4702 102.592 95.4369H102.617Z" class="hair" fill="#1A1A1A"/>
<path d="M95.3846 59.5384C95.3846 59.5384 85.1031 62.7766 71.1173 63.3078C57.1314 63.8391 62.9526 76.5642 62.9526 76.5642C62.9526 76.5642 47.8076 78.2845 48.0848 56.6796C48.0848 56.6796 43.7252 70.1131 30.319 71.7322C30.319 71.7322 33.5697 66.0401 32.9649 59.5131C32.9649 59.5131 19.0043 62.4983 16.3583 68.747C16.3583 68.747 9.30241 55.9966 22.7087 41.3235C22.7087 41.3235 18.6263 37.5034 13.3848 43.4738C13.3848 43.4738 19.2059 26.9033 49.5211 29.6103C49.5211 29.6103 57.3834 32.3172 64.9686 27.4346C72.5537 22.552 82.3563 23.8928 86.2371 30.1415C88.8327 34.3411 89.7399 37.3769 89.7399 37.3769C89.7399 37.3769 94.4018 37.9082 94.7042 29.7621C94.7042 29.7621 101.281 36.7191 94.7042 44.1569C94.7042 44.1569 113.478 48.2046 104.356 70.0625L95.3594 59.4878L95.3846 59.5384Z" class="hair" fill="#1A1A1A"/>
</g>
<defs>
<clipPath id="clip0_310_2518">
<rect width="107.628" height="178" fill="white" transform="translate(10.5117 24.5)"/>
</clipPath>
</defs>
</svg>
