<svg width="473" height="238" viewBox="0 0 473 238" fill="none" xmlns="http://www.w3.org/2000/svg">
<g clip-path="url(#clip0_238_1687)">
<path d="M348.927 106.37C348.927 106.37 339.481 88.2701 326.631 85.0102C323.682 84.2636 319.293 83.0609 318.608 83.0311C304.439 82.3303 296.616 106.711 291.307 110.328C285.989 113.947 266.413 109.958 253.113 119.924C245.964 125.285 222.156 148.305 241.296 179.433C260.653 210.907 285.532 203.462 299.098 195.466C312.664 187.47 317.3 167.415 322.049 161.668C326.799 155.922 342.731 154.925 353.381 143.236C364.031 131.548 348.927 106.36 348.927 106.36L348.927 106.37Z" fill="#745725"/>
<path d="M339.838 103.022C339.838 103.022 330.331 83.4192 316.162 82.7083C301.994 82.0074 287.526 103.352 282.218 106.98C276.899 110.598 257.324 106.61 244.024 116.575C236.875 121.936 218.459 142.739 237.609 173.867C256.966 205.341 276.443 200.113 290.009 192.118C303.574 184.122 308.211 164.066 312.96 158.32C317.71 152.573 333.641 151.577 344.292 139.888C354.942 128.199 339.838 103.012 339.838 103.012L339.838 103.022Z" fill="#9D806D"/>
<path d="M396.604 95.1292C396.604 95.1292 419.338 141.706 417.704 148.136C415.868 155.376 411.229 161.536 407.546 162.542C401.48 164.206 392.719 157.559 389.684 152.247C386.777 147.167 338.999 51.8536 353.234 31.2995C359.497 22.2461 396.594 95.1299 396.594 95.1299L396.604 95.1292Z" class="skin" fill="#FFB784"/>
<path d="M458.793 48.4639L455.784 43.5019L458.752 41.5142L462 46.1671C462 46.1671 463.837 45.3381 463.974 45.4184C464.11 45.4987 465.969 47.8129 465.94 48.227C465.91 48.6411 460.484 52.5788 459.765 52.632C459.575 52.6461 457.797 49.9341 457.797 49.9341L458.793 48.4639Z" fill="#BEB3A5"/>
<path d="M409.826 30.9743L413.676 36.1655L416.441 34.1625L413.389 29.1635C413.389 29.1635 414.746 27.6767 414.714 27.5183C414.673 27.3607 413.053 24.8882 412.654 24.7871C412.255 24.686 406.604 29.1126 406.558 29.3069C406.521 29.4904 407.992 31.7227 407.992 31.7227L409.826 30.9843L409.826 30.9743Z" fill="#BEB3A5"/>
<path d="M432.487 64.0537L429.478 59.0917L432.445 57.104L435.693 61.757C435.693 61.757 437.531 60.9279 437.667 61.0082C437.804 61.0886 439.663 63.4027 439.633 63.8168C439.603 64.231 434.178 68.1687 433.458 68.2219C433.268 68.2359 431.49 65.5239 431.49 65.5239L432.487 64.0537Z" fill="#BEB3A5"/>
<path d="M433.353 16.2448L437.203 21.4359L439.969 19.4331L436.917 14.4341C436.917 14.4341 438.274 12.9472 438.242 12.7888C438.2 12.6312 436.58 10.1587 436.181 10.0576C435.782 9.95649 430.131 14.3831 430.085 14.5774C430.048 14.7609 431.519 16.9932 431.519 16.9932L433.354 16.2548L433.353 16.2448Z" fill="#BEB3A5"/>
<path d="M317.272 125.057C317.488 131.512 312.772 136.904 306.729 137.11C300.685 137.315 295.609 132.245 295.393 125.8C295.178 119.346 299.893 113.954 305.936 113.748C311.98 113.542 317.057 118.613 317.272 125.057Z" fill="#534643"/>
<path d="M401.177 51.9302C401.158 51.3991 405.511 40.9697 406.459 39.7844C407.405 38.5892 446.929 10.288 449.992 11.0864C453.055 11.8848 461.84 21.1722 462.974 22.927C464.099 24.6825 466.871 38.8051 466.102 39.8165C465.332 40.8278 427.735 62.2951 426.852 62.8527C425.969 63.4103 407.793 65.0452 407.793 65.0452L401.177 51.9302Z" fill="#9D806D"/>
<g opacity="0.14">
<path d="M440.793 43.5058C446.383 40.9726 451.547 37.7073 456.408 34.0122C459.148 31.9308 461.786 29.7062 464.359 27.3961C464.211 26.764 464.056 26.1625 463.916 25.6203C461.74 27.5796 459.54 29.4905 457.252 31.2973C452.468 35.0871 447.385 38.4871 441.888 41.1943C437.06 43.5707 431.876 45.2098 426.576 46.6265C431.56 43.917 435.367 39.1544 439.858 35.758C441.447 34.5554 443.147 33.4854 445.032 32.7633C445.97 32.4026 446.945 32.1295 447.967 31.9535C449.058 31.7624 450.173 31.6297 451.144 31.1761C451.95 30.795 452.715 30.1256 452.855 29.0402C452.969 28.1275 452.635 26.8762 451.676 26.2639C450.612 25.5991 449.429 26.1788 448.56 26.3837C447.394 26.6507 446.231 26.9577 445.09 27.2832C439.965 28.7673 435.125 30.8432 430.616 33.4672C429.99 33.835 430.885 35.1956 431.511 34.8278C435.238 32.6533 439.195 30.8638 443.363 29.4806C445.403 28.8073 447.481 28.2318 449.615 27.7525C450.07 27.6485 450.567 27.441 451.07 27.454C451.705 27.4774 451.655 28.295 451.493 28.6887C451.104 29.672 449.951 29.9783 449.031 30.1769C447.122 30.5792 445.256 30.898 443.504 31.6605C441.85 32.3856 440.324 33.3624 438.898 34.4525C435.92 36.7123 433.32 39.4565 430.464 41.878C427.77 44.167 424.802 46.1447 421.231 46.911C422.865 43.7358 424.039 40.1727 425.426 36.7847C426.243 34.7952 427.147 32.8797 428.297 31.1771C429.547 29.3264 431.095 27.8455 432.842 26.6011C439.571 21.8135 448.03 19.3496 456.855 18.8579C457.696 18.8159 458.538 18.7938 459.391 18.781C458.934 18.3024 458.456 17.8153 457.957 17.3196C453.665 17.4359 449.517 17.9937 445.587 19.0579C441.38 20.1927 437.394 21.8539 433.758 24.0517C431.844 25.208 430.045 26.5567 428.544 28.2652C427.191 29.802 426.131 31.6486 425.201 33.6063C423.1 38.0819 421.759 43.1746 419.262 47.3178C419.047 47.6753 419.256 48.1924 419.607 48.4578C415.196 49.678 410.878 51.0623 406.866 53.0569C405.509 53.7299 404.197 54.4599 402.897 55.2291L403.627 56.6722C404.339 56.2478 405.062 55.8327 405.786 55.4375C411.156 52.5186 417.072 50.725 423.125 49.1522C429.188 47.5788 435.231 46.0067 440.821 43.4735L440.793 43.5058Z" fill="#DBA680"/>
<path d="M455.915 40.1176C449.116 42.4689 442.239 44.5848 435.641 47.3332C425.464 51.5719 415.755 56.6903 406.567 62.6042L407.308 64.0665C419.535 56.1698 432.701 49.7007 446.658 44.8309C453.436 42.461 460.715 41.0387 466 36.1369C465.915 35.5303 465.815 34.8645 465.704 34.1794C462.894 36.9392 459.687 38.8139 455.915 40.1176Z" fill="#DBA680"/>
<path d="M414.607 64.3908C415.894 64.2655 417.24 64.1259 418.566 63.9876C421.703 62.2487 424.908 60.6251 428.207 59.1656C432.741 57.1626 437.425 55.4298 442.24 53.9686C444.023 52.9426 445.854 51.883 447.665 50.8348C441.886 52.2969 436.253 54.1098 430.84 56.3185C425.202 58.6141 419.796 61.3246 414.618 64.4001L414.607 64.3908Z" fill="#DBA680"/>
<path d="M416.163 32.5762C414.789 33.5619 413.511 34.4803 412.357 35.3192C408.687 40.7146 405.169 46.2696 401.312 51.4477C401.22 51.7057 401.173 51.88 401.176 51.9299L401.883 53.3346C406.542 47.1728 410.683 40.4062 415.099 34.0816C415.444 33.5838 415.799 33.0854 416.163 32.5762Z" fill="#DBA680"/>
</g>
<path d="M320.038 102.668L402.851 47.797L415.027 64.4998L344.949 113.858L344.577 112.901L332.821 121.466L331.63 121.253L320.038 102.668Z" fill="#6C5B58"/>
<path d="M261.002 133.687L280.914 162.347L274.781 166.639L255.761 137.541L261.002 133.687Z" fill="#6C5B58"/>
<path d="M415.829 35.6557L405.479 49.7836L263.982 141.647C264.162 141.905 264.342 142.163 264.511 142.421L406.057 50.5247L416.583 36.2128L415.819 35.6564L415.829 35.6557Z" fill="#BEB3A5"/>
<path d="M267.926 147.433L408.087 55.0155L440.103 19.4726L439.403 18.8411L407.518 54.2538L267.396 146.648C267.576 146.906 267.746 147.165 267.926 147.433Z" fill="#BEB3A5"/>
<path d="M457.713 41.0487L410.537 58.1201L410.478 58.1444L270.891 151.785C271.07 152.043 271.25 152.301 271.421 152.57L410.903 58.9972L458.031 41.9496L457.714 41.0587L457.713 41.0487Z" fill="#BEB3A5"/>
<path d="M430.737 57.3905L411.998 61.7295L274.36 156.864C274.54 157.122 274.719 157.38 274.889 157.639L412.385 62.6053L430.945 58.2995L430.737 57.3805L430.737 57.3905Z" fill="#BEB3A5"/>
<path d="M375.667 92.4372C375.747 95.0234 379.373 96.7749 379.854 97.302L380.7 99.2288C381.532 99.1975 382.933 100.209 383.764 100.178C389.707 99.9696 391.782 97.5958 397.729 97.4376C396.961 95.4848 396.632 94.9666 396.632 94.9666C396.632 94.9666 399.313 92.6384 400.403 90.257C401.504 87.8849 400.618 84.1926 400.618 84.1926C400.618 84.1926 403.153 83.9651 404.624 80.3498C406.086 76.7453 404.775 73.828 404.775 73.828C404.775 73.828 409.984 69.5445 406.99 65.0537C403.995 60.5629 385.394 53.1767 382.697 58.1485C380 63.1203 395.359 67.5512 395.359 67.5512C395.359 67.5512 377.151 63.0395 374.926 66.9215C372.712 70.8127 377.779 70.8502 377.779 70.8502C377.779 70.8502 374.994 72.4627 374.625 75.2228C374.257 77.9829 377.138 78.9052 377.138 78.9052C377.138 78.9052 374.934 79.9423 373.988 82.3633C373.041 84.7843 378.329 88.2114 378.329 88.2114C378.329 88.2114 375.586 89.851 375.665 92.4172L375.667 92.4372Z" class="skin" fill="#FFB784"/>
<path d="M251.452 137.97L205.491 150.27C205.491 150.27 242.739 41.5674 229.291 39.7382C207.337 36.7493 171.817 165.83 178.791 176.719C185.765 187.607 256.685 160.642 256.685 160.642L251.453 137.98L251.452 137.97Z" class="skin" fill="#FFB784"/>
<path d="M205.501 150.26L205.998 148.424L193.175 152.186L193.696 153.936L213.777 148.05L205.501 150.26Z" fill="#B17861"/>
<path d="M417.699 36.3498C417.644 37.3786 416.736 38.2797 415.687 38.3572C414.638 38.4348 413.827 37.6608 413.881 36.622C413.935 35.5931 414.843 34.6921 415.893 34.6145C416.942 34.537 417.753 35.3109 417.699 36.3498Z" fill="#BEB3A5"/>
<path d="M440.597 20.1799C440.543 21.2087 439.635 22.1098 438.585 22.1874C437.536 22.2649 436.725 21.4909 436.779 20.4521C436.834 19.4232 437.742 18.5222 438.791 18.4446C439.84 18.367 440.651 19.141 440.597 20.1799Z" fill="#BEB3A5"/>
<path d="M432.338 57.2824C432.284 58.3113 431.376 59.2123 430.327 59.2899C429.277 59.3675 428.467 58.5935 428.52 57.5546C428.575 56.5258 429.483 55.6247 430.532 55.5471C431.581 55.4696 432.392 56.2436 432.338 57.2824Z" fill="#BEB3A5"/>
<path d="M396.633 94.9666C395.808 95.4898 394.585 95.9419 393.656 95.8799L394.106 97.8863C395.338 97.9661 396.535 97.4455 397.449 96.7651C396.96 95.5755 396.681 95.0636 396.623 94.9673L396.633 94.9666Z" fill="#B17861"/>
<path d="M243.579 140.18C243.88 140.168 254.404 137.109 254.404 137.109C254.404 137.109 263.133 121.584 270.43 120.391C277.727 119.199 284.544 121.719 285.414 121.253C286.283 120.777 286.116 113.083 290.633 113.02C295.149 112.958 294.9 121.406 291.389 125.292C287.879 129.179 282.87 129.931 282.87 129.931C282.87 129.931 290.014 135.632 295.271 135.535C300.529 135.448 310.902 129.376 313.804 131.392C316.706 133.408 311.246 141.92 297.442 143.161C297.442 143.161 304.802 144.184 309.531 143.594C314.25 143.004 317.399 141.836 318.63 143.403C319.861 144.97 315.279 149.86 315.279 149.86C315.279 149.86 318.638 151.4 316.584 154.195C314.54 156.988 309.244 158.193 309.244 158.193C309.244 158.193 309.593 162.92 298.226 165.86C281.98 170.075 259.853 160.659 258.949 160.394C258.055 160.129 249.239 163.734 249.152 163.369C249.064 163.004 243.579 140.17 243.579 140.17L243.579 140.18Z" class="skin" fill="#FFB784"/>
<path d="M305.565 143.786C301.523 143.744 297.431 143.172 297.431 143.172C298.659 143.061 299.791 142.877 300.89 142.655C292.01 143.643 284.832 142.224 282.356 141.624C282.244 141.592 282.172 141.577 282.142 141.579L281.813 143.372L281.925 143.404C284.288 143.973 290.805 145.279 299.019 144.672C301.098 144.519 303.297 144.235 305.556 143.797L305.565 143.786Z" fill="#B17861"/>
<path d="M316.075 148.948C306.448 154.493 282.309 151.032 282.056 151.001L281.788 152.809C282.488 152.908 293.578 154.5 303.87 153.739C308.627 153.387 313.205 152.526 316.513 150.795C315.946 150.194 315.269 149.872 315.269 149.872C315.269 149.872 315.614 149.505 316.075 148.948Z" fill="#B17861"/>
<path d="M308.483 160.279C309.27 159.106 309.238 158.264 309.234 158.204C299.27 161.101 280.404 158.285 280.221 158.259L279.942 160.058C280.562 160.153 292.307 161.907 302.319 161.167C304.508 161.005 306.596 160.72 308.483 160.279Z" fill="#B17861"/>
<path d="M285.175 129.309L281.029 126.36L279.952 127.836L282.89 129.93C282.98 129.923 283.883 129.766 285.165 129.31L285.175 129.309Z" fill="#B17861"/>
<path d="M395.359 67.5602C395.359 67.5602 391.47 66.6019 387.071 65.9424C395.079 67.581 402.687 71.2686 402.791 71.3212L403.55 69.768C403.133 69.5577 395.244 65.7301 386.897 64.1367C390.646 66.1906 395.349 67.561 395.349 67.561L395.359 67.5602Z" fill="#B17861"/>
<path d="M398.316 80.0916L399.774 79.1699C395.893 73.0165 381.235 70.7141 374.993 70C375.98 70.8414 377.78 70.859 377.78 70.859C377.78 70.859 377.134 71.2383 376.431 71.9233C383.047 72.8006 395.141 75.0615 398.305 80.0823L398.316 80.0916Z" fill="#B17861"/>
<path d="M375.626 86.0391C376.873 87.2831 378.33 88.2304 378.33 88.2304C378.33 88.2304 378.282 88.2641 378.196 88.3207C381.712 89.1259 385.298 90.3477 386.672 91.8035L387.931 90.6153C385.413 87.958 378.313 86.5036 375.626 86.0391Z" fill="#B17861"/>
<path d="M375.567 80.0669C383.31 79.0725 394.566 86.861 394.673 86.9436L395.663 85.5241C395.176 85.1883 384.281 77.6544 375.958 78.2897C376.564 78.7373 377.14 78.9258 377.14 78.9258C377.14 78.9258 376.383 79.2831 375.567 80.0669Z" fill="#B17861"/>
<path d="M458.754 41.675C458.7 42.7038 457.792 43.6049 456.743 43.6824C455.693 43.76 454.883 42.986 454.936 41.9472C454.991 40.9183 455.899 40.0173 456.948 39.9397C457.997 39.8621 458.808 40.6361 458.754 41.675Z" fill="#BEB3A5"/>
<path d="M397.66 148.543L386.109 100.074C386.435 100 386.762 99.9256 387.095 99.8106L386.51 98.0152C378.847 100.511 375.799 92.5776 375.673 92.2253L374.076 93.3279C374.113 93.4156 376.918 100.774 384.231 100.354L395.813 148.971L397.649 148.533L397.66 148.543Z" fill="#B17861"/>
</g>
<defs>
<clipPath id="clip0_238_1687">
<rect width="473" height="238" fill="white"/>
</clipPath>
</defs>
</svg>
