<svg width="473" height="238" viewBox="0 0 473 238" fill="none" xmlns="http://www.w3.org/2000/svg">
<path d="M139.602 221.059L127.938 222.031C127.938 222.031 122.182 224.241 115.616 224.464C109.05 224.686 106.711 221.32 106.711 221.32L102.876 221.65C102.876 221.65 101.434 225.064 97.5019 224.92C93.5588 224.778 92.9376 222.506 92.9376 222.506C92.9376 222.506 92.4015 224.213 90.5938 224.679C88.7861 225.146 86.066 222.819 86.066 222.819C86.066 222.819 85.325 225.529 82.7435 225.463C80.162 225.396 78.3217 224.183 78.3217 224.183C78.3217 224.183 77.3807 225.871 75.4286 225.31C73.2126 224.676 73.4267 199.984 87.4802 196.588C101.534 193.193 129.627 199.762 129.627 199.762C129.627 199.762 134.779 214.596 134.861 214.771C134.945 214.957 139.613 221.047 139.613 221.047L139.602 221.059Z" class="skin" fill="#FFB784"/>
<path d="M221.417 39.3258C221.417 39.3258 234.275 202.93 226.166 209.939C218.056 216.948 122.191 222.129 122.191 222.129L121.489 199.155C121.489 199.155 196.709 192.345 198.16 188.267C199.623 184.187 202.123 104.241 205.63 69.023C208.393 41.2832 221.418 39.3365 221.418 39.3365L221.417 39.3258Z" class="skin" fill="#FFB784"/>
<path d="M110.361 197.907L109.708 199.817C109.651 199.8 103.848 198.093 99.419 203.488C95.4358 208.342 94.1671 220.268 93.8737 223.754C93.1148 223.134 92.9357 222.485 92.9357 222.485C92.9357 222.485 92.6365 223.432 91.7429 224.109C91.956 221.252 93.1566 207.885 97.7779 202.248C103.098 195.758 110.291 197.87 110.371 197.895L110.361 197.907Z" fill="#BA4E00"/>
<path d="M100.859 223.988C100.859 223.988 100.848 223.989 100.837 223.99C101.224 222.5 101.655 220.352 101.889 219.303C102.976 214.635 104.453 208.24 109.164 207.685C115.92 206.931 120.407 213.787 120.59 214.082L121.354 215.281L119.925 215.597C115.847 216.494 108.954 218.631 107.798 220.552C107.66 220.778 107.671 220.905 107.714 221.009C108.574 223.581 117.764 223.668 124.402 221.939C129.977 220.484 129.765 213.989 129.752 213.711L131.848 213.606C131.945 215.772 131.258 219.624 128.465 222.039C128.264 222.046 128.062 222.042 127.872 222.048C127.362 222.241 121.846 224.249 115.603 224.454C109.038 224.677 106.698 221.311 106.698 221.311L105.653 221.401C105.511 220.791 105.613 220.151 105.964 219.552C107.57 216.864 114.661 214.807 117.916 213.991C116.468 212.263 113.351 209.22 109.392 209.679C106.166 210.054 104.866 215.64 103.929 219.717C103.766 220.417 103.617 221.03 103.474 221.588L102.852 221.642C102.852 221.642 102.265 223.021 100.837 223.99L100.859 223.988Z" fill="#BA4E00"/>
<path d="M90.0092 206.591C88.9054 210.939 88.1941 219.325 87.8727 224.045C86.8506 223.49 86.0537 222.82 86.0537 222.82C86.0537 222.82 85.9868 223.083 85.8049 223.441C86.1487 218.591 86.8531 210.516 87.9644 206.124C89.7051 199.289 96.3872 196.774 96.6698 196.675L97.4136 198.55C97.3487 198.577 91.471 200.808 90.0092 206.591Z" fill="#BA4E00"/>
<path d="M90.1147 196.372L90.6732 198.306C90.6732 198.306 85.3399 199.837 82.0613 205.979C79.4666 210.831 79.308 220.433 79.3752 224.724C78.7122 224.438 78.3095 224.183 78.3095 224.183C78.3095 224.183 77.9579 224.782 77.273 225.151C77.1762 220.906 77.2678 210.528 80.191 205.069C83.9142 198.106 89.8627 196.437 90.1147 196.372Z" fill="#BA4E00"/>
<path d="M198.17 188.254C198.242 188.045 198.315 187.728 198.392 187.314L206.563 185.839L206.935 187.81L193.337 190.256C196.187 189.539 197.953 188.852 198.159 188.255L198.17 188.254Z" fill="#BA4E00"/>
<path d="M371.369 62.5922C379.122 98.2546 390.507 189.358 382.397 196.367C374.288 203.375 265.021 209.25 265.021 209.25L264.354 187.334C264.354 187.334 351.443 179.202 352.895 175.123C354.358 171.044 340.788 62.5046 340.788 62.5046C340.788 62.5046 336.109 30.1453 351.439 28.825C365.846 27.5843 369.621 54.5147 371.369 62.5922Z" class="skin" fill="#FFB784"/>
<path d="M218.175 204.553C219.077 199.161 223.921 180.766 247.943 181.162C269.465 181.515 285.405 187.417 285.405 187.417L289.888 207.74L253.778 210.422C252.819 210.601 247.766 206.932 246.958 207.173C246.271 207.383 245.786 207.607 245.727 207.837C245.686 208.011 245.635 208.198 245.574 208.396C245.054 210.027 243.909 212.086 241.399 212.195C237.205 212.385 236.568 210.061 236.568 210.061C236.568 210.061 236.263 213.023 233.873 212.843C231.483 212.663 230.159 210.806 230.159 210.806C230.159 210.806 229.004 213.134 227.133 213.123C225.262 213.113 223.462 210.29 223.462 210.29C223.462 210.29 222.37 213.994 219.306 213.53C216.243 213.065 218.186 204.552 218.186 204.552L218.175 204.553Z" class="skin" fill="#FFB784"/>
<path d="M244.398 210.072C244.428 207.434 244.486 203.818 245.182 202.012C246.628 198.255 256.445 198.599 256.536 198.613C257.698 198.706 258.445 199.713 259.473 201.113C260.55 202.563 262.02 204.547 264.547 206.462C268.225 209.241 275.041 208.933 277.284 208.836C277.675 208.824 278.087 208.799 278.43 208.887C277.448 208.918 276.509 208.945 275.615 208.969L266.173 209.6C265.109 209.209 264.113 208.695 263.239 208.042C260.471 205.945 258.901 203.83 257.759 202.279C257.239 201.573 256.593 200.708 256.339 200.612C254.253 200.449 247.796 201.026 247.145 202.7C246.779 203.653 246.626 205.519 246.557 207.315C246.09 207.483 245.758 207.662 245.717 207.837C245.676 208.012 245.625 208.198 245.564 208.396C245.325 209.135 244.948 209.96 244.393 210.661C244.398 210.468 244.403 210.264 244.398 210.072Z" fill="#BA4E00"/>
<path d="M239.549 194.474C243.888 190.757 253.812 190.128 254.224 190.092L254.34 192.096C254.251 192.104 244.728 192.71 240.943 195.961C237.939 198.533 237.516 208.051 237.586 211.335C236.751 210.742 236.558 210.062 236.558 210.062C236.558 210.062 236.409 211.457 235.55 212.271C235.389 209.499 235.387 198.025 239.548 194.463L239.549 194.474Z" fill="#BA4E00"/>
<path d="M215.237 211.791L217.318 211.505C217.304 211.334 215.318 195.821 228.838 186.492C228.848 185.699 228.855 185.002 228.851 184.166C212.961 194.074 215.21 211.6 215.237 211.78L215.237 211.791Z" fill="#BA4E00"/>
<path d="M231.411 194.519C234.907 189.601 243.764 188.152 244.139 188.088L244.467 190.074C244.378 190.081 236.129 191.435 233.143 195.645C230.636 199.171 231.049 208.521 231.295 211.896C230.543 211.361 230.138 210.817 230.138 210.817C230.138 210.817 229.793 211.49 229.196 212.109C228.919 208.372 228.514 198.594 231.401 194.531L231.411 194.519Z" fill="#BA4E00"/>
<path d="M236.576 186.084L237.157 188.016C237.08 188.033 229.214 190.328 225.908 195.241C223.317 199.096 224.19 208.063 224.705 211.833C223.958 211.094 223.453 210.302 223.453 210.302C223.453 210.302 223.202 211.159 222.602 211.993C222.052 207.947 221.188 198.562 224.146 194.161C227.878 188.6 236.227 186.189 236.576 186.084Z" fill="#BA4E00"/>
<path d="M358.783 174.959L358.667 172.955L358.645 172.956C358.244 172.991 355.783 173.406 353.002 173.892C353 174.514 352.958 174.935 352.896 175.123C352.751 175.521 351.78 175.958 350.152 176.431C354.168 175.72 358.351 175.007 358.783 174.959Z" fill="#BA4E00"/>
<path d="M15.3638 142.695C31.2539 141.509 89.954 136.507 140.644 132.12L141.144 132.077C142.022 132.002 142.167 131.989 151.097 145.962C155.665 153.1 161.955 163.058 169.784 175.562C182.3 195.525 194.838 215.755 196.45 218.348L194.126 218.548C173.982 186.074 144.255 138.548 140.806 134.131C136.359 134.514 104.055 137.307 72.826 139.964C57.1943 141.289 41.8404 142.59 30.3747 143.524C23.7687 144.061 19.3989 144.426 16.4716 144.636C15.7336 143.478 15.3303 142.827 15.3285 142.806C15.3267 142.784 15.3452 142.74 15.3638 142.695Z" fill="#CBC0B2"/>
<path d="M280.212 211.124L70.8645 229.153C70.8645 229.153 15.3614 143.06 15.3394 142.804C15.3174 142.549 16.6716 140.718 16.6716 140.718L143.367 129.807L197.608 212.163L279.893 207.294L280.222 211.112L280.212 211.124Z" fill="#D9D1C7"/>
</svg>
