<svg width="130" height="210" viewBox="0 0 130 210" fill="none" xmlns="http://www.w3.org/2000/svg">
<g clip-path="url(#clip0_306_2)">
<path d="M25.3535 95.7549H96.721V168.372C96.721 187.192 80.7436 202.5 61.0373 202.5C41.3596 202.5 25.3535 187.219 25.3535 168.372V95.7549Z" class="skin" fill="#D89B77"/>
<path d="M25.3535 126.344C25.3535 126.344 44.9738 161.24 67.434 159.539C102.114 156.905 96.3768 115.782 96.3768 115.782C96.3768 115.782 82.9237 143.216 61.6396 143.216C37.9174 143.243 25.3822 126.316 25.3822 126.316L25.3535 126.344Z" fill="#C1815C"/>
<path d="M30.4873 25.6064C30.4873 25.6064 46.9523 1.87605 79.0792 8.73452C101.74 13.5903 109.055 32.8489 112.267 41.3808C113.501 44.6455 113.816 48.157 113.214 51.5862L106.244 85.4945L73.2562 32.9861L41.3301 35.4002L30.5447 25.6338L30.4873 25.6064Z" class="hair" fill="#664A46"/>
<path d="M106.1 85.4949C106.1 85.4949 110.374 79.1577 118.951 82.2852C127.527 85.4126 123.655 105.33 110.775 107.881C110.775 107.881 106.157 108.841 102.543 105.823C102.543 105.823 105.612 91.0915 106.1 85.5224V85.4949Z" class="skin" fill="#D89B77"/>
<path d="M117.258 89.3082C117.258 89.3082 110.058 87.0038 104.952 97.1543" stroke="#6E4730" stroke-width="2" stroke-linecap="square" stroke-linejoin="round"/>
<path d="M108.452 92.189C108.452 92.189 116.283 96.1943 111.12 102.202" stroke="#6E4730" stroke-width="2" stroke-linecap="square" stroke-linejoin="round"/>
<path d="M18.3253 85.4949C18.3253 85.4949 14.166 79.1577 5.58932 82.2852C-2.9874 85.4126 0.885033 105.33 13.7645 107.881C13.7645 107.881 18.3827 108.841 21.997 105.823C21.997 105.823 18.8416 91.0915 18.3253 85.4949Z" class="skin" fill="#D89B77"/>
<path d="M7.28125 89.3082C7.28125 89.3082 14.4811 87.0038 19.587 97.1543" stroke="#6E4730" stroke-width="2" stroke-linecap="square" stroke-linejoin="round"/>
<path d="M16.0874 92.189C16.0874 92.189 8.25648 96.1943 13.4197 102.202" stroke="#6E4730" stroke-width="2" stroke-linecap="square" stroke-linejoin="round"/>
<path d="M107.075 66.5651C107.075 78.5812 105.842 103.738 98.1258 118.662C90.8686 132.681 78.8784 140.225 63.1305 140.664C47.4113 141.103 35.6792 135.314 26.2993 117.126C16.9194 98.9371 17.3497 66.7846 17.3497 66.7846C17.3497 66.7846 17.3497 23.8506 61.7249 23.8506C108.452 23.8506 107.075 66.5651 107.075 66.5651Z" class="skin" fill="#D89B77"/>
<path d="M18.3253 85.4947L9.60518 50.4343C9.14622 47.3617 9.60518 44.2342 10.9534 41.4085C14.3381 34.358 19.5874 22.1499 30.4876 25.6066L41.2731 35.3731C41.2731 35.3731 24.8081 38.5554 18.1819 59.1582L18.2966 85.4673L18.3253 85.4947Z" class="hair" fill="#664A46"/>
<path d="M110.661 60.0633C110.661 60.0633 105.67 23.686 81.2877 21.1072C56.9057 18.5284 36.5396 28.8161 36.5396 28.8161L31.4624 32.4374C31.4624 32.4374 32.2942 33.3976 33.9293 34.9339C14.5097 36.7171 17.3495 64.3704 17.3495 64.3704C29.1102 55.8111 30.0568 48.2393 33.2121 42.5331C44.6 51.3942 74.432 62.1483 110.661 60.0633Z" class="hair" fill="#664A46"/>
<path d="M111.293 54.2751L104.265 52.2725C105.986 68.1018 104.007 80.6117 102.687 86.5374C101.712 90.3781 97.6306 99.7405 85.9559 107.449C85.9559 107.449 78.4712 100.328 61.9488 100.328C45.4551 100.328 37.9278 107.449 37.9278 107.449C28.7487 101.414 25.0091 96.1392 23.0012 90.241C22.8004 89.61 18.0961 74.1098 20.477 52.2725L13.4492 54.2751L17.9527 85.3577L18.9567 107.469C24.0052 148.949 62.2419 147.002 62.2419 147.002C62.2419 147.002 100.392 149.251 105.584 107.442L106.646 85.3577L111.321 54.2477L111.293 54.2751Z" class="hair" fill="#664A46"/>
<path d="M51.8389 106.328C59.8444 111.016 64.5111 110.695 73.0787 106.328" stroke="#C1815C" stroke-width="2.5" stroke-linecap="square"/>
<path d="M59.0576 75.2622V94.5757C59.0576 95.0146 59.1437 95.3987 59.2871 95.7827C59.8895 97.2642 61.6679 97.95 63.2743 97.566L66.7164 96.6881" stroke="#6E4730" stroke-width="2.5" stroke-linecap="square" stroke-linejoin="round"/>
<path d="M40.6664 81.4173C42.9901 81.4173 44.8738 79.4228 44.8738 76.9028C44.8738 74.3827 42.9901 76.9027 40.6664 76.9027C38.3427 76.9027 36.459 74.3827 36.459 76.9028C36.459 79.4228 38.3427 81.4173 40.6664 81.4173Z" fill="#1A1A1A"/>
<path d="M79.6664 81.4173C81.9901 81.4173 83.8738 79.4228 83.8738 76.9028C83.8738 74.3827 81.9901 76.9027 79.6664 76.9027C77.3427 76.9027 75.459 74.3827 75.459 76.9028C75.459 79.4228 77.3427 81.4173 79.6664 81.4173Z" fill="#1A1A1A"/>
<path d="M65.2097 65.7685L96.4659 69.6379C96.4659 69.6379 94.1271 61.656 81.326 60.1715C68.5533 58.6836 65.2064 65.7412 65.2064 65.7412L65.2097 65.7685Z" fill="#1A1A1A"/>
<path d="M58.0458 65.0255L27.0133 70.4022C27.0133 70.4022 28.9632 62.3165 41.6776 60.2146C54.3634 58.1106 58.0477 64.9981 58.0477 64.9981L58.0458 65.0255Z" fill="#1A1A1A"/>
</g>
<defs>
<clipPath id="clip0_306_2">
<rect width="122.541" height="195" fill="white" transform="translate(1 7.5)"/>
</clipPath>
</defs>
</svg>
