<svg width="130" height="210" viewBox="0 0 130 210" fill="none" xmlns="http://www.w3.org/2000/svg">
<g clip-path="url(#clip0_306_2)">
<path d="M25.3535 95.7549H96.721V168.372C96.721 187.192 80.7436 202.5 61.0373 202.5C41.3596 202.5 25.3535 187.219 25.3535 168.372V95.7549Z" class="skin" fill="#D89B77"/>
<path d="M25.3535 126.344C25.3535 126.344 44.9738 161.24 67.434 159.539C102.114 156.905 96.3768 115.782 96.3768 115.782C96.3768 115.782 82.9237 143.216 61.6396 143.216C37.9174 143.243 25.3822 126.316 25.3822 126.316L25.3535 126.344Z" fill="#C1815C"/>
<path d="M30.4873 25.6064C30.4873 25.6064 46.9523 1.87605 79.0792 8.73452C101.74 13.5903 109.055 32.8489 112.267 41.3808C113.501 44.6455 113.816 48.157 113.214 51.5862L106.244 85.4945L73.2562 32.9861L41.3301 35.4002L30.5447 25.6338L30.4873 25.6064Z" class="hair" fill="#664A46"/>
<path d="M106.1 85.4949C106.1 85.4949 110.374 79.1577 118.951 82.2852C127.527 85.4126 123.655 105.33 110.775 107.881C110.775 107.881 106.157 108.841 102.543 105.823C102.543 105.823 105.612 91.0915 106.1 85.5224V85.4949Z" class="skin" fill="#D89B77"/>
<path d="M117.258 89.3082C117.258 89.3082 110.058 87.0038 104.952 97.1543" stroke="#6E4730" stroke-width="2" stroke-linecap="square" stroke-linejoin="round"/>
<path d="M108.452 92.189C108.452 92.189 116.283 96.1943 111.12 102.202" stroke="#6E4730" stroke-width="2" stroke-linecap="square" stroke-linejoin="round"/>
<path d="M18.3253 85.4949C18.3253 85.4949 14.166 79.1577 5.58932 82.2852C-2.9874 85.4126 0.885033 105.33 13.7645 107.881C13.7645 107.881 18.3827 108.841 21.997 105.823C21.997 105.823 18.8416 91.0915 18.3253 85.4949Z" class="skin" fill="#D89B77"/>
<path d="M7.28125 89.3082C7.28125 89.3082 14.4811 87.0038 19.587 97.1543" stroke="#6E4730" stroke-width="2" stroke-linecap="square" stroke-linejoin="round"/>
<path d="M16.0874 92.189C16.0874 92.189 8.25648 96.1943 13.4197 102.202" stroke="#6E4730" stroke-width="2" stroke-linecap="square" stroke-linejoin="round"/>
<path d="M107.075 66.5651C107.075 78.5812 105.842 103.738 98.1258 118.662C90.8686 132.681 78.8784 140.225 63.1305 140.664C47.4113 141.103 35.6792 135.314 26.2993 117.126C16.9194 98.9371 17.3497 66.7846 17.3497 66.7846C17.3497 66.7846 17.3497 23.8506 61.7249 23.8506C108.452 23.8506 107.075 66.5651 107.075 66.5651Z" class="skin" fill="#D89B77"/>
<path d="M18.3253 85.4947L9.60518 50.4343C9.14622 47.3617 9.60518 44.2342 10.9534 41.4085C14.3381 34.358 19.5874 22.1499 30.4876 25.6066L41.2731 35.3731C41.2731 35.3731 24.8081 38.5554 18.1819 59.1582L18.2966 85.4673L18.3253 85.4947Z" class="hair" fill="#664A46"/>
<path d="M110.661 60.0633C110.661 60.0633 105.67 23.686 81.2877 21.1072C56.9057 18.5284 36.5396 28.8161 36.5396 28.8161L31.4624 32.4374C31.4624 32.4374 32.2942 33.3976 33.9293 34.9339C14.5097 36.7171 17.3495 64.3704 17.3495 64.3704C29.1102 55.8111 30.0568 48.2393 33.2121 42.5331C44.6 51.3942 74.432 62.1483 110.661 60.0633Z" class="hair" fill="#664A46"/>
<path d="M111.293 54.2751L104.265 52.2725C105.986 68.1018 104.007 80.6117 102.687 86.5374C101.712 90.3781 97.895 101.944 86.2203 109.653C86.2203 109.653 78.7356 102.531 62.2132 102.531C45.7195 102.531 38.1922 109.653 38.1922 109.653C29.0131 103.617 25.0091 96.1392 23.0012 90.241C22.8004 89.61 18.0961 74.1098 20.477 52.2725L13.4492 54.2751L17.9527 85.3577L18.9567 107.469C24.0052 148.949 62.2419 147.002 62.2419 147.002C62.2419 147.002 100.392 149.251 105.584 107.442L106.646 85.3577L111.321 54.2477L111.293 54.2751Z" class="hair" fill="#664A46"/>
<path d="M77.6539 109.773C75.3209 106.923 69.7778 106.963 62.8809 106.963C55.984 106.963 51.4967 108.773 48.5846 110.773C45.5789 112.833 47.4948 122.313 62.8809 122.323C77.7987 122.333 79.8167 112.423 77.6624 109.773H77.6539Z" fill="#844545"/>
<path d="M62.8718 106.963C58.2142 106.963 52.9011 107.984 50.0059 109.859C51.1936 110.552 52.6286 111.482 52.6286 111.482L62.8718 111.113L73.6136 110.669C73.6136 110.669 74.4336 109.848 75.5096 108.21C72.6525 106.85 67.4868 106.953 62.8718 106.953V106.963Z" fill="white"/>
<path d="M62.5235 118.763C57.7126 119.153 55.3881 120.073 54.3408 121.033C56.5546 121.823 59.356 122.323 62.8726 122.323C66.4828 122.323 69.3352 121.743 71.5576 120.823C70.6465 119.463 68.2794 118.293 62.5235 118.763Z" fill="#A15B5A"/>
<path d="M59.0576 75.2617V94.5752C59.0576 95.0141 59.1437 95.3982 59.2871 95.7823C59.8895 97.2637 61.6679 97.9495 63.2743 97.5655L66.7164 96.6876" stroke="#6E4730" stroke-width="2.5" stroke-linecap="square" stroke-linejoin="round"/>
<path fill-rule="evenodd" clip-rule="evenodd" d="M37.7454 79.9531C37.4304 80.5102 37.251 81.1514 37.251 81.8337C37.251 83.9769 39.0211 85.7143 41.2047 85.7143C43.3883 85.7143 45.1584 83.9769 45.1584 81.8337C45.1584 81.1514 44.979 80.5102 44.6639 79.9531H37.7454Z" fill="#1A1A1A"/>
<path fill-rule="evenodd" clip-rule="evenodd" d="M76.7454 79.9531C76.4304 80.5102 76.251 81.1514 76.251 81.8337C76.251 83.9769 78.0211 85.7143 80.2047 85.7143C82.3883 85.7143 84.1584 83.9769 84.1584 81.8337C84.1584 81.1514 83.979 80.5102 83.6639 79.9531H76.7454Z" fill="#1A1A1A"/>
<path d="M66.8679 67.7901L98.3378 69.0422C98.3378 69.0422 95.3422 61.2828 82.4619 60.8699C69.6096 60.4513 66.8623 67.7632 66.8623 67.7632L66.8679 67.7901Z" fill="#1A1A1A"/>
<path d="M57.7457 67.6212L26.5355 63.3965C26.5355 63.3965 26.6321 53.964 39.3889 55.7911C46.217 59.0176 57.7557 67.5957 57.7557 67.5957L57.7457 67.6212Z" fill="#1A1A1A"/>
</g>
<defs>
<clipPath id="clip0_306_2">
<rect width="122.541" height="195" fill="white" transform="translate(1 7.5)"/>
</clipPath>
</defs>
</svg>
