<svg width="123" height="196" viewBox="0 0 123 196" fill="none" xmlns="http://www.w3.org/2000/svg">
<g clip-path="url(#clip0_306_625)">
<path d="M24.3535 88.7549H95.721V161.372C95.721 180.192 79.7436 195.5 60.0373 195.5C40.3596 195.5 24.3535 180.219 24.3535 161.372V88.7549Z" class="skin" fill="#D89B77"/>
<path d="M24.3535 119.344C24.3535 119.344 43.9738 154.24 66.434 152.539C101.114 149.905 95.3768 108.782 95.3768 108.782C95.3768 108.782 81.9237 136.216 60.6396 136.216C36.9174 136.243 24.3822 119.316 24.3822 119.316L24.3535 119.344Z" fill="#C1815C"/>
<path d="M29.4873 18.6064C29.4873 18.6064 45.9523 -5.12395 78.0792 1.73452C100.74 6.59031 108.055 25.8489 111.267 34.3808C112.501 37.6455 112.816 41.157 112.214 44.5862L105.244 78.4945L72.2562 25.9861L40.3301 28.4002L29.5447 18.6338L29.4873 18.6064Z" class="hair"  fill="#664A46"/>
<path d="M105.1 78.4949C105.1 78.4949 109.374 72.1577 117.951 75.2852C126.527 78.4126 122.655 98.3296 109.775 100.881C109.775 100.881 105.157 101.841 101.543 98.8234C101.543 98.8234 104.612 84.0915 105.1 78.5224V78.4949Z" class="skin" fill="#D89B77"/>
<path d="M116.258 82.3082C116.258 82.3082 109.058 80.0038 103.952 90.1543" stroke="#6E4730" stroke-width="2" stroke-linecap="square" stroke-linejoin="round"/>
<path d="M107.452 85.189C107.452 85.189 115.283 89.1943 110.12 95.2023" stroke="#6E4730" stroke-width="2" stroke-linecap="square" stroke-linejoin="round"/>
<path d="M17.3253 78.4949C17.3253 78.4949 13.166 72.1577 4.58932 75.2852C-3.9874 78.4126 -0.114967 98.3296 12.7645 100.881C12.7645 100.881 17.3827 101.841 20.997 98.8234C20.997 98.8234 17.8416 84.0915 17.3253 78.4949Z" class="skin" fill="#D89B77"/>
<path d="M6.28125 82.3082C6.28125 82.3082 13.4811 80.0038 18.587 90.1543" stroke="#6E4730" stroke-width="2" stroke-linecap="square" stroke-linejoin="round"/>
<path d="M15.0874 85.189C15.0874 85.189 7.25648 89.1943 12.4197 95.2023" stroke="#6E4730" stroke-width="2" stroke-linecap="square" stroke-linejoin="round"/>
<path d="M106.075 59.5651C106.075 71.5812 104.842 96.738 97.1258 111.662C89.8686 125.681 77.8784 133.225 62.1305 133.664C46.4113 134.103 34.6792 128.314 25.2993 110.126C15.9194 91.9371 16.3497 59.7846 16.3497 59.7846C16.3497 59.7846 16.3497 16.8506 60.7249 16.8506C107.452 16.8506 106.075 59.5651 106.075 59.5651Z" class="skin" fill="#D89B77"/>
<path d="M32.3867 75.2686L34.1914 76.1014L32.3867 77.3507" stroke="#6E4730" stroke-linecap="square"/>
<path d="M87.168 75.2686L85.3633 76.1014L87.168 77.3507" stroke="#6E4730" stroke-linecap="square"/>
<path d="M17.3253 78.4947L8.60518 43.4343C8.14622 40.3617 8.60518 37.2342 9.95336 34.4085C13.3381 27.358 18.5874 15.1499 29.4876 18.6066L40.2731 28.3731C40.2731 28.3731 23.8081 31.5554 17.1819 52.1582L17.2966 78.4673L17.3253 78.4947Z" class="hair"  fill="#664A46"/>
<path d="M109.661 53.0633C109.661 53.0633 104.67 16.686 80.2877 14.1072C55.9057 11.5284 35.5396 21.8161 35.5396 21.8161L30.4624 25.4374C30.4624 25.4374 31.2942 26.3976 32.9293 27.9339C13.5097 29.7171 16.3495 57.3704 16.3495 57.3704C28.1102 48.8111 29.0568 41.2393 32.2121 35.5331C43.6 44.3942 73.432 55.1483 109.661 53.0633Z" class="hair"  fill="#664A46"/>
<path d="M110.293 47.2751L103.265 45.2725C104.986 61.1018 103.007 73.6117 101.687 79.5374C100.712 83.3781 96.895 94.9436 85.2203 102.653C85.2203 102.653 77.7356 95.5313 61.2132 95.5313C44.7195 95.5313 37.1922 102.653 37.1922 102.653C28.0131 96.6171 24.0091 89.1392 22.0012 83.241C21.8004 82.61 17.0961 67.1098 19.477 45.2725L12.4492 47.2751L16.9527 78.3577L17.9567 100.469C23.0052 141.949 61.2419 140.002 61.2419 140.002C61.2419 140.002 99.3925 142.251 104.584 100.442L105.646 78.3577L110.321 47.2477L110.293 47.2751Z" class="hair"  fill="#664A46"/>
<path d="M43.8459 103.735L79.5359 102.009C79.5359 102.009 77.4585 114.824 61.3578 115.178C45.2572 115.532 43.8167 103.735 43.8167 103.735L43.8459 103.735Z" fill="#AE5655"/>
<path d="M51.6206 113.756C54.1002 114.631 57.5137 115.426 61.8005 115.332C66.0874 115.238 69.3817 114.043 71.7233 112.868C70.5807 111.84 66.6041 111.21 59.8638 111.754C54.014 112.229 52.4579 113.003 51.6206 113.756Z" fill="#D97F7E"/>
<path d="M77.5119 102.318L77.6303 102.052C62.4013 102.761 52.3986 102.981 45.6185 103.504C45.7791 103.707 46.9572 104.983 47.1053 105.192C47.521 105.738 48.6209 106.115 49.9261 106.155C55.365 106.333 61.5193 106.347 73.5515 105.384C74.9536 105.273 77.2403 102.948 77.5119 102.318Z" fill="white"/>
<path d="M58.0566 68.2617V87.5752C58.0566 88.0141 58.1427 88.3982 58.2861 88.7823C58.8885 90.2637 60.6669 90.9495 62.2733 90.5655L65.7155 89.6876" stroke="#6E4730" stroke-width="2.5" stroke-linecap="square" stroke-linejoin="round"/>
<path d="M39.6813 76.8898C41.7241 76.8898 43.3802 77.4959 43.3802 75.4908C43.3802 73.4858 41.7241 71.8604 39.6813 71.8604C37.6385 71.8604 35.9824 73.4858 35.9824 75.4908C35.9824 77.4959 37.6385 76.8898 39.6813 76.8898Z" fill="#1A1A1A"/>
<path d="M78.6813 76.8898C80.7241 76.8898 82.3802 77.4959 82.3802 75.4908C82.3802 73.4858 80.7241 71.8604 78.6813 71.8604C76.6385 71.8604 74.9824 73.4858 74.9824 75.4908C74.9824 77.4959 76.6385 76.8898 78.6813 76.8898Z" fill="#1A1A1A"/>
<path d="M63.4942 59.1585L94.5972 64.1112C94.5972 64.1112 92.5371 56.0529 79.7952 54.1247C67.082 52.194 63.4919 59.1312 63.4919 59.1312L63.4942 59.1585Z" fill="#1A1A1A"/>
<path d="M57.044 59.0306L25.7263 62.3661C25.7263 62.3661 28.201 54.4253 41.0256 53.1594C53.8218 51.8897 57.0477 59.0035 57.0477 59.0035L57.044 59.0306Z" fill="#1A1A1A"/>
</g>
<defs>
<clipPath id="clip0_306_625">
<rect width="122.541" height="195" fill="white" transform="translate(0 0.5)"/>
</clipPath>
</defs>
</svg>
