<svg width="130" height="210" viewBox="0 0 130 210" fill="none" xmlns="http://www.w3.org/2000/svg">
<g clip-path="url(#clip0_306_2)">
<path d="M25.4355 95.7549H96.803V168.372C96.803 187.192 80.8257 202.5 61.1193 202.5C41.4416 202.5 25.4355 187.219 25.4355 168.372V95.7549Z" class="skin" fill="#D89B77"/>
<path d="M25.4355 126.344C25.4355 126.344 45.0559 161.24 67.516 159.539C102.196 156.905 96.4588 115.782 96.4588 115.782C96.4588 115.782 83.0057 143.216 61.7217 143.216C37.9994 143.243 25.4642 126.316 25.4642 126.316L25.4355 126.344Z" fill="#C1815C"/>
<path d="M30.5693 25.6064C30.5693 25.6064 47.0343 1.87605 79.1612 8.73452C101.822 13.5903 109.137 32.8489 112.349 41.3808C113.583 44.6455 113.898 48.157 113.296 51.5862L106.326 85.4945L73.3382 32.9861L41.4121 35.4002L30.6267 25.6338L30.5693 25.6064Z" class="hair" fill="#664A46"/>
<path d="M106.182 85.4949C106.182 85.4949 110.456 79.1577 119.033 82.2852C127.609 85.4126 123.737 105.33 110.858 107.881C110.858 107.881 106.239 108.841 102.625 105.823C102.625 105.823 105.694 91.0915 106.182 85.5224V85.4949Z" class="skin" fill="#D89B77"/>
<path d="M117.34 89.3082C117.34 89.3082 110.14 87.0038 105.034 97.1543" stroke="#6E4730" stroke-width="2" stroke-linecap="square" stroke-linejoin="round"/>
<path d="M108.534 92.189C108.534 92.189 116.365 96.1943 111.202 102.202" stroke="#6E4730" stroke-width="2" stroke-linecap="square" stroke-linejoin="round"/>
<path d="M18.4074 85.4949C18.4074 85.4949 14.2481 79.1577 5.67135 82.2852C-2.90537 85.4126 0.967064 105.33 13.8465 107.881C13.8465 107.881 18.4647 108.841 22.079 105.823C22.079 105.823 18.9237 91.0915 18.4074 85.4949Z" class="skin" fill="#D89B77"/>
<path d="M7.36328 89.3082C7.36328 89.3082 14.5631 87.0038 19.669 97.1543" stroke="#6E4730" stroke-width="2" stroke-linecap="square" stroke-linejoin="round"/>
<path d="M16.1694 92.189C16.1694 92.189 8.33851 96.1943 13.5018 102.202" stroke="#6E4730" stroke-width="2" stroke-linecap="square" stroke-linejoin="round"/>
<path d="M107.157 66.5651C107.157 78.5812 105.924 103.738 98.2078 118.662C90.9506 132.681 78.9604 140.225 63.2125 140.664C47.4933 141.103 35.7613 135.314 26.3814 117.126C17.0015 98.9371 17.4317 66.7846 17.4317 66.7846C17.4317 66.7846 17.4318 23.8506 61.807 23.8506C108.534 23.8506 107.157 66.5651 107.157 66.5651Z" class="skin" fill="#D89B77"/>
<path d="M18.4074 85.4947L9.68721 50.4343C9.22825 47.3617 9.68721 44.2342 11.0354 41.4085C14.4202 34.358 19.6695 22.1499 30.5697 25.6066L41.3551 35.3731C41.3551 35.3731 24.8901 38.5554 18.2639 59.1582L18.3787 85.4673L18.4074 85.4947Z" class="hair" fill="#664A46"/>
<path d="M110.743 60.0633C110.743 60.0633 105.752 23.686 81.3697 21.1072C56.9877 18.5284 36.6216 28.8161 36.6216 28.8161L31.5444 32.4374C31.5444 32.4374 32.3763 33.3976 34.0113 34.9339C14.5918 36.7171 17.4315 64.3704 17.4315 64.3704C29.1923 55.8111 30.1389 48.2393 33.2942 42.5331C44.682 51.3942 74.5141 62.1483 110.743 60.0633Z" class="hair" fill="#664A46"/>
<path d="M111.375 54.2751L104.347 52.2725C106.068 68.1018 104.089 80.6117 102.769 86.5374C101.794 90.3781 94.2224 103.374 82.5477 111.083C82.5477 111.083 78.8176 102.531 62.2952 102.531C45.8015 102.531 38.8598 112.188 38.8598 112.188C29.6807 106.153 25.0912 96.1392 23.0833 90.241C22.8825 89.61 18.1782 74.1098 20.559 52.2725L13.5312 54.2751L18.0347 85.3577L19.0387 107.469C24.0872 148.949 62.3239 147.002 62.3239 147.002C62.3239 147.002 100.475 149.251 105.666 107.442L106.728 85.3577L111.403 54.2477L111.375 54.2751Z" class="hair" fill="#664A46"/>
<path d="M70.9966 114.497C70.9966 114.497 67.6917 111.028 62.4038 111.028H62.391C57.2957 111.028 53.58 114.148 53.5415 114.175L52.5918 112.02C52.7586 111.877 56.7566 108.497 62.391 108.497H62.4038C68.3462 108.497 71.9591 112.333 72.1132 112.494L71.003 114.488L70.9966 114.497Z" fill="#C1815C"/>
<path d="M59.1396 75.2617V94.5752C59.1396 95.0141 59.2257 95.3982 59.3691 95.7823C59.9715 97.2637 61.75 97.9495 63.3563 97.5655L66.7985 96.6876" stroke="#6E4730" stroke-width="2.5" stroke-linecap="square" stroke-linejoin="round"/>
<path d="M44.7974 82.3399C44.7974 84.1506 43.2484 85.632 41.3552 85.632C39.4621 85.632 37.9131 84.1506 37.9131 82.3399C37.9131 80.5293 39.4621 79.0479 41.3552 79.0479C43.2484 79.0479 44.7974 80.5293 44.7974 82.3399Z" fill="#1A1A1A"/>
<path d="M84.2095 82.3399C84.2095 84.1506 82.6605 85.632 80.7674 85.632C78.8742 85.632 77.3252 84.1506 77.3252 82.3399C77.3252 80.5293 78.8742 79.0479 80.7674 79.0479C82.6605 79.0479 84.2095 80.5293 84.2095 82.3399Z" fill="#1A1A1A"/>
<path d="M67.1613 64.2831L96.9109 74.6215C96.9109 74.6215 96.2981 66.3266 84.093 62.1905C71.9164 58.057 67.1638 64.2558 67.1638 64.2558L67.1613 64.2831Z" fill="#1A1A1A"/>
<path d="M56.1699 64.5963L26.1465 74.1107C26.1465 74.1107 26.9877 65.8358 39.3023 62.0377C51.5882 58.2415 56.1681 64.5689 56.1681 64.5689L56.1699 64.5963Z" fill="#1A1A1A"/>
</g>
<defs>
<clipPath id="clip0_306_2">
<rect width="122.541" height="195" fill="white" transform="translate(1.08203 7.5)"/>
</clipPath>
</defs>
</svg>
