<svg width="130" height="210" viewBox="0 0 130 210" fill="none" xmlns="http://www.w3.org/2000/svg">
<g clip-path="url(#clip0_277_600)">
<path d="M25.1875 95.7549H96.8223V168.372C96.8223 187.192 80.7851 202.5 61.0049 202.5C41.2535 202.5 25.1875 187.219 25.1875 168.372V95.7549Z" class="skin" fill="#D89B77"/>
<path d="M25.1875 126.344C25.1875 126.344 44.8813 161.24 67.4256 159.539C102.235 156.905 96.4768 115.782 96.4768 115.782C96.4768 115.782 82.9733 143.216 61.6095 143.216C37.7985 143.243 25.2163 126.316 25.2163 126.316L25.1875 126.344Z" fill="#C1815C"/>
<path d="M27.0473 27.7925C27.0473 27.7925 41.9944 3.03684 74.6196 7.7818C97.6332 11.1468 106.213 29.8866 109.986 38.1906C111.434 41.3677 111.979 44.8512 111.599 48.3125L106.824 82.6043L70.3657 32.3624L38.5452 36.8573L27.1066 27.8162L27.0473 27.7925Z" class="hair" fill="#664A46"/>
<path d="M106.681 82.6138C106.681 82.6138 110.549 76.0108 119.343 78.5712C128.137 81.1317 125.555 101.259 112.821 104.647C112.821 104.647 108.258 105.907 104.441 103.132C104.441 103.132 106.556 88.2303 106.682 82.6412L106.681 82.6138Z" class="skin" fill="#D89B77"/>
<path d="M118.105 85.69C118.105 85.69 110.743 83.8609 106.29 94.3235" stroke="#6E4730" stroke-width="2" stroke-linecap="square" stroke-linejoin="round"/>
<path d="M109.472 89.1399C109.472 89.1399 117.576 92.6251 112.795 98.9577" stroke="#6E4730" stroke-width="2" stroke-linecap="square" stroke-linejoin="round"/>
<path d="M18.7632 88.3484C18.7632 88.3484 14.1847 82.2964 5.79771 85.9775C-2.58931 89.6587 2.58578 109.28 15.6521 110.985C15.6521 110.985 20.3403 111.641 23.764 108.394C23.764 108.394 19.6447 93.8993 18.7632 88.3484Z" class="skin" fill="#D89B77"/>
<path d="M7.95017 92.8751C7.95017 92.8751 15.0117 90.1052 20.7865 99.9006" stroke="#6E4730" stroke-width="2" stroke-linecap="square" stroke-linejoin="round"/>
<path d="M16.9578 95.1742C16.9578 95.1742 9.37497 99.6827 14.9376 105.341" stroke="#6E4730" stroke-width="2" stroke-linecap="square" stroke-linejoin="round"/>
<path d="M106.426 63.6608C107.208 75.6514 107.61 100.835 100.853 116.232C94.496 130.695 82.9775 139.007 67.2327 140.474C51.5167 141.939 39.3889 136.929 28.8099 119.392C18.2309 101.854 16.5691 69.7419 16.5691 69.7419C16.5691 69.7419 13.7745 26.899 58.2215 23.9998C105.024 20.9469 106.426 63.6608 106.426 63.6608Z" class="skin" fill="#D89B77"/>
<path d="M18.7634 88.3485L7.74711 53.932C7.08741 50.8959 7.34355 47.7451 8.50998 44.8373C11.4413 37.5807 15.9045 25.0555 27.0473 27.7927L38.4859 36.8338C38.4859 36.8338 22.2014 41.0851 16.9055 62.0772L18.7329 88.323L18.7634 88.3485Z" class="hair" fill="#664A46"/>
<path d="M109.593 56.9384C109.593 56.9384 102.226 20.9643 77.6371 19.984C53.0478 19.0036 33.3184 30.6001 33.3184 30.6001L28.4687 34.5454C28.4687 34.5454 29.3644 35.4492 31.102 36.8754C11.7672 39.9236 16.4115 67.3328 16.4115 67.3328C27.6341 58.0232 28.0894 50.4056 30.8784 44.5053C42.8614 52.6037 73.4417 61.3859 109.593 56.9384Z" class="hair" fill="#664A46"/>
<path d="M109.849 51.1208L102.679 49.5816C105.434 65.2649 104.265 77.8775 103.329 83.8769C102.603 87.7732 99.2682 102.122 88.0765 110.577C88.0765 110.577 80.3801 101.402 63.831 102.481C47.3106 103.559 40.9862 113.649 40.9862 113.649C31.3994 108.226 26.1507 98.5334 23.7556 92.7788C23.5134 92.1623 17.7926 77.0024 18.7559 55.0557L11.8472 57.5133L18.3811 88.2358L20.8259 110.235C28.5825 151.297 66.7543 146.855 66.7543 146.855C66.7543 146.855 105.113 146.608 107.592 104.548L107.218 82.4411L109.876 51.0916L109.849 51.1208Z" class="hair" fill="#664A46"/>
<path d="M56.6755 113.703C56.6755 113.703 64.266 110.418 72.5664 112.967" stroke="#C1815C" stroke-width="2.5" stroke-linecap="square" stroke-linejoin="round"/>
<path d="M58.8965 75.4761L60.1536 94.7486C60.1822 95.1866 60.2934 95.5642 60.462 95.9381C61.1618 97.377 62.9878 97.9452 64.5717 97.457L67.9623 96.3561" stroke="#6E4730" stroke-width="2.5" stroke-linecap="square" stroke-linejoin="round"/>
<path d="M44.9916 83.4759C45.1094 85.2827 43.6544 86.8622 41.7581 86.9859C39.8619 87.1096 38.214 85.7325 38.0961 83.9257C37.9783 82.1189 39.4333 80.5394 41.3296 80.4157C43.2258 80.292 44.8737 81.6691 44.9916 83.4759Z" fill="#1A1A1A"/>
<path d="M84.4681 80.901C84.586 82.7078 83.1309 84.2873 81.2347 84.411C79.3384 84.5346 77.6905 83.1576 77.5727 81.3508C77.4548 79.544 78.9099 77.9645 80.8061 77.8408C82.7024 77.7171 84.3503 79.0942 84.4681 80.901Z" fill="#1A1A1A"/>
<path d="M64.4819 64.577L96.017 66.7611C96.017 66.7611 93.2462 58.9163 80.3362 58.1219C67.4545 57.3226 64.4772 64.55 64.4772 64.55L64.4819 64.577Z" fill="#1A1A1A"/>
<path d="M54.8532 70.0481L23.554 65.6413C23.554 65.6413 27.911 58.5441 40.7035 60.4457C53.4692 62.3366 54.8634 70.0226 54.8634 70.0226L54.8532 70.0481Z" fill="#1A1A1A"/>
<path fill-rule="evenodd" clip-rule="evenodd" d="M60.224 63.25C60.6084 63.0305 61.0986 63.163 61.3189 63.5459C62.5239 65.6402 62.0348 67.6259 60.8966 69.0502C58.5943 71.2991 56.5197 70.1136 56.5197 70.1136C56.5197 70.1136 58.8006 69.1069 59.6415 68.0546C60.4426 67.0522 60.7507 65.7725 59.927 64.3408C59.7067 63.9579 59.8397 63.4695 60.224 63.25Z" fill="#6E4730"/>
</g>
<defs>
<clipPath id="clip0_277_600">
<rect width="123" height="195" fill="white" transform="translate(0.743164 7.5)"/>
</clipPath>
</defs>
</svg>
